<svg width="202" height="52" viewBox="0 0 202 52" fill="none" xmlns="http://www.w3.org/2000/svg">
<path d="M0.569056 26L14.4261 0.5H187.574L201.431 26L187.574 51.5H14.4261L0.569056 26Z" fill="#00DFE2" stroke="#00DFE2"/>
<g clip-path="url(#clip0)">
<path d="M29.3921 22.1519H29.3281C28.5071 22.1519 27.8378 22.8233 27.8378 23.6422V30.1308C27.8378 30.9528 28.5071 31.6221 29.3281 31.6221H29.3932C30.2142 31.6221 30.8835 30.9506 30.8835 30.1308V23.6421C30.8824 22.8233 30.212 22.1519 29.3921 22.1519Z" fill="#00DFE2"/>
<path d="M31.5967 32.6352C31.5967 33.3889 32.2126 34.0027 32.9663 34.0027H34.43V37.5075C34.43 38.3306 35.1015 39 35.9203 39H35.9843C36.8064 39 37.4768 38.3296 37.4768 37.5075V34.0027H39.5222V37.5075C39.5222 38.3306 40.1958 39 41.0147 39H41.0777C41.8997 39 42.569 38.3296 42.569 37.5075V34.0027H44.0337C44.7863 34.0027 45.4023 33.3889 45.4023 32.6352V22.3899H31.5967V32.6352Z" fill="#00DFE2"/>
<path d="M41.938 16.1767L43.1006 14.3822C43.1753 14.269 43.1422 14.1143 43.028 14.0406C42.9148 13.9658 42.76 13.9968 42.6863 14.1132L41.4811 15.9697C40.5769 15.5992 39.567 15.3911 38.5004 15.3911C37.4329 15.3911 36.4251 15.5992 35.5188 15.9697L34.3157 14.1132C34.242 13.9968 34.0861 13.9658 33.9719 14.0406C33.8577 14.1142 33.8246 14.269 33.8993 14.3822L35.0629 16.1767C32.9652 17.2048 31.5507 19.1424 31.5507 21.3651C31.5507 21.5017 31.5592 21.6362 31.571 21.7696H45.431C45.4427 21.6362 45.4502 21.5017 45.4502 21.3651C45.4502 19.1424 44.0346 17.2048 41.938 16.1767ZM35.2871 19.3901C34.9188 19.3901 34.6199 19.0933 34.6199 18.7239C34.6199 18.3546 34.9188 18.0588 35.2871 18.0588C35.6575 18.0588 35.9543 18.3545 35.9543 18.7239C35.9543 19.0933 35.6554 19.3901 35.2871 19.3901ZM41.7127 19.3901C41.3444 19.3901 41.0455 19.0933 41.0455 18.7239C41.0455 18.3546 41.3444 18.0588 41.7127 18.0588C42.0821 18.0588 42.3789 18.3545 42.3789 18.7239C42.3789 19.0933 42.0821 19.3901 41.7127 19.3901Z" fill="#00DFE2"/>
<path d="M47.6708 22.1519H47.6089C46.7879 22.1519 46.1165 22.8233 46.1165 23.6422V30.1308C46.1165 30.9528 46.789 31.6221 47.6089 31.6221H47.6719C48.4939 31.6221 49.1622 30.9506 49.1622 30.1308V23.6421C49.1622 22.8233 48.4918 22.1519 47.6708 22.1519Z" fill="#00DFE2"/>
</g>
<path d="M61.992 21V14.264H63.56V14.888C63.9973 14.3547 64.552 14.088 65.224 14.088C66.0027 14.088 66.584 14.4187 66.968 15.08C67.4267 14.4187 68.0933 14.088 68.968 14.088C69.8427 14.088 70.4827 14.44 70.888 15.144C71.1227 15.56 71.24 16.1253 71.24 16.84V21H69.672V17.288C69.672 16.7013 69.624 16.3013 69.528 16.088C69.3787 15.6933 69.08 15.496 68.632 15.496C68.248 15.496 67.9387 15.6613 67.704 15.992C67.5013 16.28 67.4 16.792 67.4 17.528V21H65.832V17.288C65.832 16.7013 65.784 16.3013 65.688 16.088C65.5387 15.6933 65.24 15.496 64.792 15.496C64.408 15.496 64.0987 15.6613 63.864 15.992C63.6613 16.28 63.56 16.792 63.56 17.528V21H61.992ZM78.1544 15.048V14.264H79.7224V21H78.1544V20.296C77.6317 20.904 76.9597 21.208 76.1384 21.208C75.1464 21.208 74.3517 20.856 73.7544 20.152C73.1677 19.448 72.8744 18.6053 72.8744 17.624C72.8744 16.5573 73.189 15.704 73.8184 15.064C74.4584 14.4133 75.237 14.088 76.1544 14.088C76.997 14.088 77.6637 14.408 78.1544 15.048ZM76.3464 15.496C75.7917 15.496 75.3384 15.704 74.9864 16.12C74.645 16.536 74.4744 17.048 74.4744 17.656C74.4744 18.2533 74.645 18.76 74.9864 19.176C75.3384 19.592 75.7917 19.8 76.3464 19.8C76.8797 19.8 77.3277 19.6133 77.6904 19.24C78.0637 18.8667 78.2504 18.344 78.2504 17.672C78.2504 16.9787 78.0637 16.4453 77.6904 16.072C77.3277 15.688 76.8797 15.496 76.3464 15.496ZM84.5268 15.704H83.3268V21H81.7588V15.704H81.1028V14.264H81.7588V11.8H83.3268V14.264H84.5268V15.704ZM90.3058 18.728L91.6178 19.464C91.3191 19.9973 90.9404 20.408 90.4818 20.696C89.9591 21.0373 89.2978 21.208 88.4978 21.208C87.5591 21.208 86.8018 20.92 86.2258 20.344C85.5644 19.6827 85.2338 18.824 85.2338 17.768C85.2338 16.6587 85.5911 15.736 86.3058 15C86.9138 14.392 87.6658 14.088 88.5618 14.088C89.4364 14.088 90.1564 14.3813 90.7218 14.968C91.3511 15.6187 91.6658 16.568 91.6658 17.816V18.008H86.8338C86.8764 18.5733 87.0684 19.0267 87.4098 19.368C87.6978 19.656 88.0978 19.8 88.6098 19.8C89.0258 19.8 89.3831 19.688 89.6818 19.464C89.9271 19.272 90.1351 19.0267 90.3058 18.728ZM86.9457 16.728H90.0658C90.0018 16.3547 89.8418 16.0507 89.5858 15.816C89.3084 15.56 88.9564 15.432 88.5298 15.432C88.0818 15.432 87.7138 15.576 87.4258 15.864C87.1911 16.0773 87.0311 16.3653 86.9457 16.728ZM92.2366 14.264H93.9966L95.7406 18.12L97.6286 13.688L99.5166 18.12L101.261 14.264H103.021L99.5166 21.48L97.6286 17.176L95.7406 21.48L92.2366 14.264ZM107.836 21V14.264H109.404V14.888C109.841 14.3547 110.396 14.088 111.068 14.088C111.846 14.088 112.428 14.4187 112.812 15.08C113.27 14.4187 113.937 14.088 114.812 14.088C115.686 14.088 116.326 14.44 116.732 15.144C116.966 15.56 117.084 16.1253 117.084 16.84V21H115.516V17.288C115.516 16.7013 115.468 16.3013 115.372 16.088C115.222 15.6933 114.924 15.496 114.476 15.496C114.092 15.496 113.782 15.6613 113.548 15.992C113.345 16.28 113.244 16.792 113.244 17.528V21H111.676V17.288C111.676 16.7013 111.628 16.3013 111.532 16.088C111.382 15.6933 111.084 15.496 110.636 15.496C110.252 15.496 109.942 15.6613 109.708 15.992C109.505 16.28 109.404 16.792 109.404 17.528V21H107.836ZM123.79 18.728L125.102 19.464C124.803 19.9973 124.425 20.408 123.966 20.696C123.443 21.0373 122.782 21.208 121.982 21.208C121.043 21.208 120.286 20.92 119.71 20.344C119.049 19.6827 118.718 18.824 118.718 17.768C118.718 16.6587 119.075 15.736 119.79 15C120.398 14.392 121.15 14.088 122.046 14.088C122.921 14.088 123.641 14.3813 124.206 14.968C124.835 15.6187 125.15 16.568 125.15 17.816V18.008H120.318C120.361 18.5733 120.553 19.0267 120.894 19.368C121.182 19.656 121.582 19.8 122.094 19.8C122.51 19.8 122.867 19.688 123.166 19.464C123.411 19.272 123.619 19.0267 123.79 18.728ZM120.43 16.728H123.55C123.486 16.3547 123.326 16.0507 123.07 15.816C122.793 15.56 122.441 15.432 122.014 15.432C121.566 15.432 121.198 15.576 120.91 15.864C120.675 16.0773 120.515 16.3653 120.43 16.728ZM130.901 15.272L129.733 16.04C129.498 15.656 129.178 15.464 128.773 15.464C128.57 15.464 128.41 15.5227 128.293 15.64C128.197 15.736 128.149 15.8533 128.149 15.992C128.149 16.152 128.224 16.28 128.373 16.376C128.405 16.3973 128.437 16.4187 128.469 16.44C128.501 16.4507 128.56 16.4773 128.645 16.52C128.73 16.5627 128.816 16.6053 128.901 16.648L129.701 17.048C130.149 17.272 130.464 17.48 130.645 17.672C130.976 18.0027 131.141 18.4187 131.141 18.92C131.141 19.5173 130.944 20.0293 130.549 20.456C130.09 20.9573 129.461 21.208 128.661 21.208C128.064 21.208 127.578 21.064 127.205 20.776C126.8 20.4773 126.512 20.0667 126.341 19.544L127.621 18.936C127.728 19.2453 127.85 19.4587 127.989 19.576C128.16 19.7467 128.389 19.832 128.677 19.832C128.954 19.832 129.168 19.7573 129.317 19.608C129.466 19.4587 129.541 19.2827 129.541 19.08C129.541 18.888 129.472 18.7173 129.333 18.568C129.184 18.4187 128.96 18.28 128.661 18.152L128.085 17.88C127.637 17.6667 127.328 17.4747 127.157 17.304C126.837 16.9947 126.677 16.616 126.677 16.168C126.677 15.6027 126.864 15.1227 127.237 14.728C127.642 14.3013 128.192 14.088 128.885 14.088C129.365 14.088 129.781 14.2053 130.133 14.44C130.453 14.6427 130.709 14.92 130.901 15.272ZM136.667 15.272L135.499 16.04C135.264 15.656 134.944 15.464 134.539 15.464C134.336 15.464 134.176 15.5227 134.059 15.64C133.963 15.736 133.914 15.8533 133.914 15.992C133.914 16.152 133.989 16.28 134.139 16.376C134.171 16.3973 134.203 16.4187 134.235 16.44C134.267 16.4507 134.325 16.4773 134.411 16.52C134.496 16.5627 134.581 16.6053 134.667 16.648L135.467 17.048C135.915 17.272 136.229 17.48 136.411 17.672C136.741 18.0027 136.907 18.4187 136.907 18.92C136.907 19.5173 136.709 20.0293 136.315 20.456C135.856 20.9573 135.227 21.208 134.427 21.208C133.829 21.208 133.344 21.064 132.971 20.776C132.565 20.4773 132.277 20.0667 132.107 19.544L133.387 18.936C133.493 19.2453 133.616 19.4587 133.755 19.576C133.925 19.7467 134.155 19.832 134.443 19.832C134.72 19.832 134.933 19.7573 135.083 19.608C135.232 19.4587 135.307 19.2827 135.307 19.08C135.307 18.888 135.237 18.7173 135.099 18.568C134.949 18.4187 134.725 18.28 134.427 18.152L133.851 17.88C133.403 17.6667 133.093 17.4747 132.923 17.304C132.603 16.9947 132.443 16.616 132.443 16.168C132.443 15.6027 132.629 15.1227 133.003 14.728C133.408 14.3013 133.957 14.088 134.651 14.088C135.131 14.088 135.547 14.2053 135.899 14.44C136.219 14.6427 136.475 14.92 136.667 15.272ZM143.04 18.728L144.352 19.464C144.053 19.9973 143.675 20.408 143.216 20.696C142.693 21.0373 142.032 21.208 141.232 21.208C140.293 21.208 139.536 20.92 138.96 20.344C138.299 19.6827 137.968 18.824 137.968 17.768C137.968 16.6587 138.325 15.736 139.04 15C139.648 14.392 140.4 14.088 141.296 14.088C142.171 14.088 142.891 14.3813 143.456 14.968C144.085 15.6187 144.4 16.568 144.4 17.816V18.008H139.568C139.611 18.5733 139.803 19.0267 140.144 19.368C140.432 19.656 140.832 19.8 141.344 19.8C141.76 19.8 142.117 19.688 142.416 19.464C142.661 19.272 142.869 19.0267 143.04 18.728ZM139.68 16.728H142.8C142.736 16.3547 142.576 16.0507 142.32 15.816C142.043 15.56 141.691 15.432 141.264 15.432C140.816 15.432 140.448 15.576 140.16 15.864C139.925 16.0773 139.765 16.3653 139.68 16.728ZM146.023 21V14.264H147.591V14.888C148.071 14.3547 148.679 14.088 149.415 14.088C150.3 14.088 150.962 14.392 151.399 15C151.676 15.3947 151.815 16.0187 151.815 16.872V21H150.247V17.256C150.247 16.8507 150.215 16.52 150.151 16.264C150.087 16.008 149.986 15.832 149.847 15.736C149.708 15.6293 149.58 15.5653 149.463 15.544C149.356 15.512 149.207 15.496 149.015 15.496C148.791 15.496 148.61 15.5173 148.471 15.56C148.343 15.592 148.199 15.6773 148.039 15.816C147.89 15.944 147.778 16.1733 147.703 16.504C147.628 16.824 147.591 17.2453 147.591 17.768V21H146.023ZM158.733 15V14.264H160.301V20.456C160.301 21.3307 160.226 22.04 160.077 22.584C159.927 23.1387 159.634 23.5973 159.197 23.96C158.61 24.44 157.863 24.68 156.957 24.68C156.039 24.68 155.303 24.4027 154.749 23.848C154.205 23.304 153.874 22.6053 153.757 21.752H155.277C155.351 22.1787 155.517 22.5307 155.773 22.808C156.061 23.1173 156.466 23.272 156.989 23.272C157.511 23.272 157.922 23.1227 158.221 22.824C158.562 22.4933 158.733 21.928 158.733 21.128V20.248C158.231 20.888 157.549 21.208 156.685 21.208C155.778 21.208 155.037 20.904 154.461 20.296C153.789 19.592 153.453 18.7013 153.453 17.624C153.453 16.5467 153.783 15.6773 154.445 15.016C155.053 14.3973 155.815 14.088 156.733 14.088C157.554 14.088 158.221 14.392 158.733 15ZM156.924 15.496C156.445 15.496 156.05 15.6453 155.741 15.944C155.282 16.3707 155.053 16.9413 155.053 17.656C155.053 18.392 155.277 18.9573 155.725 19.352C156.066 19.6507 156.466 19.8 156.924 19.8C157.447 19.8 157.885 19.6187 158.237 19.256C158.631 18.8293 158.829 18.3013 158.829 17.672C158.829 16.9467 158.615 16.3813 158.189 15.976C157.869 15.656 157.447 15.496 156.924 15.496ZM167.009 18.728L168.321 19.464C168.022 19.9973 167.644 20.408 167.185 20.696C166.662 21.0373 166.001 21.208 165.201 21.208C164.262 21.208 163.505 20.92 162.929 20.344C162.268 19.6827 161.937 18.824 161.937 17.768C161.937 16.6587 162.294 15.736 163.009 15C163.617 14.392 164.369 14.088 165.265 14.088C166.14 14.088 166.86 14.3813 167.425 14.968C168.054 15.6187 168.369 16.568 168.369 17.816V18.008H163.537C163.58 18.5733 163.772 19.0267 164.113 19.368C164.401 19.656 164.801 19.8 165.313 19.8C165.729 19.8 166.086 19.688 166.385 19.464C166.63 19.272 166.838 19.0267 167.009 18.728ZM163.649 16.728H166.769C166.705 16.3547 166.545 16.0507 166.289 15.816C166.012 15.56 165.66 15.432 165.233 15.432C164.785 15.432 164.417 15.576 164.129 15.864C163.894 16.0773 163.734 16.3653 163.649 16.728ZM170.008 21V14.264H171.576V14.872C171.778 14.6373 171.997 14.4507 172.232 14.312C172.488 14.1627 172.808 14.088 173.192 14.088C173.65 14.088 174.061 14.1947 174.424 14.408L173.784 15.832C173.528 15.672 173.261 15.592 172.984 15.592C172.568 15.592 172.242 15.7147 172.008 15.96C171.72 16.2693 171.576 16.7867 171.576 17.512V21H170.008ZM65.416 33.704H63.72V39H62.152V33.704H61.48V32.264H62.152V29.928C62.152 28.9893 62.3707 28.2853 62.808 27.816C63.224 27.3787 63.7573 27.16 64.408 27.16C64.7813 27.16 65.1173 27.224 65.416 27.352V28.904C65.1493 28.744 64.8987 28.664 64.664 28.664C64.3653 28.664 64.136 28.7493 63.976 28.92C63.8053 29.0907 63.72 29.3573 63.72 29.72V32.264H65.416V33.704ZM66.9765 33.096C67.6698 32.424 68.5285 32.088 69.5525 32.088C70.5765 32.088 71.4298 32.424 72.1125 33.096C72.8058 33.7573 73.1525 34.6053 73.1525 35.64C73.1525 36.664 72.8058 37.5173 72.1125 38.2C71.4298 38.872 70.5765 39.208 69.5525 39.208C68.5285 39.208 67.6698 38.872 66.9765 38.2C66.2938 37.5173 65.9525 36.664 65.9525 35.64C65.9525 34.6053 66.2938 33.7573 66.9765 33.096ZM68.0965 37.224C68.4592 37.608 68.9445 37.8 69.5525 37.8C70.1605 37.8 70.6458 37.608 71.0085 37.224C71.3712 36.8293 71.5525 36.3067 71.5525 35.656C71.5525 34.9413 71.3552 34.4027 70.9605 34.04C70.5765 33.6773 70.1072 33.496 69.5525 33.496C68.9978 33.496 68.5232 33.6773 68.1285 34.04C67.7445 34.4027 67.5525 34.9413 67.5525 35.656C67.5525 36.3067 67.7338 36.8293 68.0965 37.224ZM74.7889 39V32.264H76.3569V32.872C76.5595 32.6373 76.7782 32.4507 77.0129 32.312C77.2689 32.1627 77.5889 32.088 77.9729 32.088C78.4315 32.088 78.8422 32.1947 79.2049 32.408L78.5649 33.832C78.3089 33.672 78.0422 33.592 77.7649 33.592C77.3489 33.592 77.0235 33.7147 76.7889 33.96C76.5009 34.2693 76.3569 34.7867 76.3569 35.512V39H74.7889ZM88.7638 33.048V32.264H90.3318V39H88.7638V38.296C88.2411 38.904 87.5691 39.208 86.7478 39.208C85.7558 39.208 84.9611 38.856 84.3638 38.152C83.7771 37.448 83.4838 36.6053 83.4838 35.624C83.4838 34.5573 83.7984 33.704 84.4278 33.064C85.0678 32.4133 85.8464 32.088 86.7638 32.088C87.6064 32.088 88.2731 32.408 88.7638 33.048ZM86.9557 33.496C86.4011 33.496 85.9478 33.704 85.5958 34.12C85.2544 34.536 85.0838 35.048 85.0838 35.656C85.0838 36.2533 85.2544 36.76 85.5958 37.176C85.9478 37.592 86.4011 37.8 86.9557 37.8C87.4891 37.8 87.9371 37.6133 88.2998 37.24C88.6731 36.8667 88.8598 36.344 88.8598 35.672C88.8598 34.9787 88.6731 34.4453 88.2998 34.072C87.9371 33.688 87.4891 33.496 86.9557 33.496ZM92.3041 39V32.264H93.8721V32.888C94.3521 32.3547 94.9601 32.088 95.6961 32.088C96.5815 32.088 97.2428 32.392 97.6801 33C97.9575 33.3947 98.0961 34.0187 98.0961 34.872V39H96.5281V35.256C96.5281 34.8507 96.4961 34.52 96.4321 34.264C96.3681 34.008 96.2668 33.832 96.1281 33.736C95.9895 33.6293 95.8615 33.5653 95.7441 33.544C95.6375 33.512 95.4881 33.496 95.2961 33.496C95.0721 33.496 94.8908 33.5173 94.7521 33.56C94.6241 33.592 94.4801 33.6773 94.3201 33.816C94.1708 33.944 94.0588 34.1733 93.9841 34.504C93.9095 34.824 93.8721 35.2453 93.8721 35.768V39H92.3041ZM105.014 33.048V27.336H106.582V39H105.014V38.296C104.491 38.904 103.819 39.208 102.998 39.208C102.006 39.208 101.211 38.856 100.614 38.152C100.027 37.448 99.7338 36.6053 99.7338 35.624C99.7338 34.5573 100.048 33.704 100.678 33.064C101.318 32.4133 102.096 32.088 103.014 32.088C103.856 32.088 104.523 32.408 105.014 33.048ZM103.206 33.496C102.651 33.496 102.198 33.704 101.846 34.12C101.504 34.536 101.334 35.048 101.334 35.656C101.334 36.2533 101.504 36.76 101.846 37.176C102.198 37.592 102.651 37.8 103.206 37.8C103.739 37.8 104.187 37.6133 104.55 37.24C104.923 36.8667 105.11 36.344 105.11 35.672C105.11 34.9787 104.923 34.4453 104.55 34.072C104.187 33.688 103.739 33.496 103.206 33.496ZM108.57 39V32.264H110.138V32.872C110.341 32.6373 110.559 32.4507 110.794 32.312C111.05 32.1627 111.37 32.088 111.754 32.088C112.213 32.088 112.623 32.1947 112.986 32.408L112.346 33.832C112.09 33.672 111.823 33.592 111.546 33.592C111.13 33.592 110.805 33.7147 110.57 33.96C110.282 34.2693 110.138 34.7867 110.138 35.512V39H108.57ZM114.242 33.096C114.935 32.424 115.794 32.088 116.818 32.088C117.842 32.088 118.695 32.424 119.378 33.096C120.071 33.7573 120.418 34.6053 120.418 35.64C120.418 36.664 120.071 37.5173 119.378 38.2C118.695 38.872 117.842 39.208 116.818 39.208C115.794 39.208 114.935 38.872 114.242 38.2C113.559 37.5173 113.218 36.664 113.218 35.64C113.218 34.6053 113.559 33.7573 114.242 33.096ZM115.362 37.224C115.725 37.608 116.21 37.8 116.818 37.8C117.426 37.8 117.911 37.608 118.274 37.224C118.637 36.8293 118.818 36.3067 118.818 35.656C118.818 34.9413 118.621 34.4027 118.226 34.04C117.842 33.6773 117.373 33.496 116.818 33.496C116.263 33.496 115.789 33.6773 115.394 34.04C115.01 34.4027 114.818 34.9413 114.818 35.656C114.818 36.3067 114.999 36.8293 115.362 37.224ZM122.055 32.264H123.623V39H122.055V32.264ZM122.118 30.2C121.927 30.008 121.831 29.768 121.831 29.48C121.831 29.192 121.927 28.952 122.118 28.76C122.311 28.568 122.551 28.472 122.839 28.472C123.127 28.472 123.367 28.568 123.559 28.76C123.751 28.952 123.847 29.192 123.847 29.48C123.847 29.768 123.751 30.008 123.559 30.2C123.367 30.392 123.127 30.488 122.839 30.488C122.551 30.488 122.311 30.392 122.118 30.2ZM130.529 33.048V27.336H132.097V39H130.529V38.296C130.007 38.904 129.335 39.208 128.513 39.208C127.521 39.208 126.727 38.856 126.129 38.152C125.543 37.448 125.249 36.6053 125.249 35.624C125.249 34.5573 125.564 33.704 126.193 33.064C126.833 32.4133 127.612 32.088 128.529 32.088C129.372 32.088 130.039 32.408 130.529 33.048ZM128.721 33.496C128.167 33.496 127.713 33.704 127.361 34.12C127.02 34.536 126.849 35.048 126.849 35.656C126.849 36.2533 127.02 36.76 127.361 37.176C127.713 37.592 128.167 37.8 128.721 37.8C129.255 37.8 129.703 37.6133 130.065 37.24C130.439 36.8667 130.625 36.344 130.625 35.672C130.625 34.9787 130.439 34.4453 130.065 34.072C129.703 33.688 129.255 33.496 128.721 33.496Z" fill="#00DFE2"/>
<defs>
<clipPath id="clip0">
</clipPath>
</defs>
</svg>
