<svg width="189" height="104" viewBox="0 0 189 104" fill="none" xmlns="http://www.w3.org/2000/svg">
<rect x="3.91956" y="4.2439" width="181.661" height="71.3669" rx="4" fill="url(#paint0_linear)" fill-opacity="0.22"/>
<path d="M172.605 1H186.878L188.5 2.94637V7.1635" stroke="#DCDDE9"/>
<path d="M16.8954 78.5304H2.62201L1.00003 76.584V72.3669" stroke="#DCDDE9"/>
<line x1="64.8448" y1="9.29871" x2="64.8448" y2="68.3811" stroke="#DCDDE9"/>
<path d="M34.9099 22.7264H18.6902L34.9099 38.9462V22.7264Z" fill="#6D8FF2"/>
<path d="M34.9099 22.7264H18.6902L34.9099 38.9462V22.7264Z" fill="#6D8FF2"/>
<path d="M34.9099 22.7264H18.6902L34.9099 38.9462V22.7264Z" fill="#6D8FF2"/>
<path d="M51.1297 22.7264H34.9099L51.1297 38.9462V22.7264Z" fill="#486FF0"/>
<path d="M34.9099 38.9462H18.6902L34.9099 55.1659V38.9462Z" fill="#00DFE2"/>
<path d="M51.1297 38.9462H34.9099L51.1297 55.1659V38.9462Z" fill="#47F0E9"/>
<path d="M84.9702 37.2439V20.7899H89.6062V22.6519C90.8729 21.0559 92.5069 20.2579 94.5082 20.2579C96.9656 20.2579 98.7009 21.2586 99.7142 23.2599C100.956 21.2586 102.716 20.2579 104.996 20.2579C106.922 20.2579 108.404 20.9292 109.442 22.2719C109.924 22.9052 110.228 23.5639 110.354 24.2479C110.506 24.9319 110.582 25.8186 110.582 26.9079V37.2439H105.946V28.2759C105.946 26.7306 105.693 25.6539 105.186 25.0459C104.73 24.4886 104.097 24.2099 103.286 24.2099C102.121 24.2099 101.272 24.6912 100.74 25.6539C100.31 26.3632 100.094 27.4272 100.094 28.8459V37.2439H95.4582V28.2759C95.4582 26.7306 95.2049 25.6539 94.6982 25.0459C94.2422 24.4886 93.6089 24.2099 92.7982 24.2099C91.6329 24.2099 90.7842 24.6912 90.2522 25.6539C89.8216 26.3632 89.6062 27.4272 89.6062 28.8459V37.2439H84.9702Z" fill="#2C315B"/>
<path d="M119.136 28.494L133.364 28.494L133.364 35.1206H131.494C131.305 35.1206 131.131 35.2226 131.041 35.3866C130.95 35.5505 130.957 35.7502 131.06 35.9072L133.447 39.5664C133.542 39.7123 133.706 39.8004 133.881 39.8004C134.057 39.8004 134.221 39.7123 134.316 39.5664L136.703 35.9073C136.805 35.7503 136.812 35.5506 136.722 35.3866C136.631 35.2227 136.457 35.1207 136.268 35.1207H134.398L134.398 27.9837C134.398 27.7019 134.167 27.4734 133.881 27.4734L119.136 27.4734C118.85 27.4734 118.619 27.7019 118.619 27.9837C118.619 28.2655 118.85 28.494 119.136 28.494ZM133.881 38.3477L132.442 36.1413H135.321L133.881 38.3477Z" fill="url(#paint1_linear)"/>
<path d="M84.4319 57V48.7H85.8719V49.58C86.3652 48.86 87.0519 48.5 87.9319 48.5C88.9319 48.5 89.6852 48.9467 90.1919 49.84C90.7652 48.9467 91.5986 48.5 92.6919 48.5C94.4919 48.5 95.3919 49.58 95.3919 51.74V57H93.9519V51.96C93.9519 51.56 93.9252 51.2267 93.8719 50.96C93.8319 50.68 93.6919 50.4133 93.4519 50.16C93.2252 49.9067 92.8986 49.78 92.4719 49.78C91.2452 49.78 90.6319 50.6467 90.6319 52.38V57H89.1919V52.08C89.1919 50.5467 88.6919 49.78 87.6919 49.78C86.4786 49.78 85.8719 50.68 85.8719 52.48V57H84.4319ZM98.1233 48.7H99.5633V57H98.1233V48.7ZM98.1233 46.28C97.9233 46.08 97.8233 45.84 97.8233 45.56C97.8233 45.28 97.9233 45.04 98.1233 44.84C98.3233 44.64 98.5633 44.54 98.8433 44.54C99.1233 44.54 99.3633 44.64 99.5633 44.84C99.7633 45.04 99.8633 45.28 99.8633 45.56C99.8633 45.84 99.7633 46.08 99.5633 46.28C99.3633 46.48 99.1233 46.58 98.8433 46.58C98.5633 46.58 98.3233 46.48 98.1233 46.28ZM102.283 57V48.7H103.723V49.66C104.31 48.8867 105.103 48.5 106.103 48.5C107.17 48.5 107.963 48.88 108.483 49.64C108.803 50.1067 108.963 50.8467 108.963 51.86V57H107.523V51.9C107.523 51.22 107.397 50.7133 107.143 50.38C106.837 49.98 106.383 49.78 105.783 49.78C105.17 49.78 104.683 49.9933 104.323 50.42C103.923 50.8867 103.723 51.6333 103.723 52.66V57H102.283ZM111.678 48.7H113.118V57H111.678V48.7ZM111.678 46.28C111.478 46.08 111.378 45.84 111.378 45.56C111.378 45.28 111.478 45.04 111.678 44.84C111.878 44.64 112.118 44.54 112.398 44.54C112.678 44.54 112.918 44.64 113.118 44.84C113.318 45.04 113.418 45.28 113.418 45.56C113.418 45.84 113.318 46.08 113.118 46.28C112.918 46.48 112.678 46.58 112.398 46.58C112.118 46.58 111.878 46.48 111.678 46.28ZM115.838 57V48.7H117.278V49.66C117.865 48.8867 118.658 48.5 119.658 48.5C120.725 48.5 121.518 48.88 122.038 49.64C122.358 50.1067 122.518 50.8467 122.518 51.86V57H121.078V51.9C121.078 51.22 120.951 50.7133 120.698 50.38C120.391 49.98 119.938 49.78 119.338 49.78C118.725 49.78 118.238 49.9933 117.878 50.42C117.478 50.8867 117.278 51.6333 117.278 52.66V57H115.838ZM131.593 49.88V48.7H133.033V56.8C133.033 58.2533 132.766 59.34 132.233 60.06C131.473 61.0867 130.366 61.6 128.913 61.6C127.686 61.6 126.699 61.2267 125.953 60.48C125.233 59.76 124.873 58.8667 124.873 57.8H126.293C126.293 58.4667 126.506 59.04 126.933 59.52C127.413 60.0533 128.079 60.32 128.933 60.32C129.933 60.32 130.666 59.9333 131.133 59.16C131.439 58.6667 131.593 57.96 131.593 57.04V55.84C130.873 56.7733 129.926 57.24 128.753 57.24C127.606 57.24 126.659 56.8667 125.913 56.12C125.113 55.32 124.713 54.2267 124.713 52.84C124.713 51.4933 125.113 50.42 125.913 49.62C126.686 48.8733 127.633 48.5 128.753 48.5C129.939 48.5 130.886 48.96 131.593 49.88ZM128.913 49.78C128.179 49.78 127.553 50.04 127.033 50.56C126.473 51.1333 126.193 51.8933 126.193 52.84C126.193 53.8933 126.506 54.7067 127.133 55.28C127.626 55.7333 128.219 55.96 128.913 55.96C129.659 55.96 130.266 55.7267 130.733 55.26C131.359 54.66 131.673 53.86 131.673 52.86C131.673 51.86 131.379 51.08 130.793 50.52C130.299 50.0267 129.673 49.78 128.913 49.78Z" fill="#582BDE"/>
<path d="M83.12 90.662H89.98V100H88.552V92.006H84.548V100H83.12V90.662ZM92.5615 94.834C93.1681 94.246 93.9195 93.952 94.8155 93.952C95.7115 93.952 96.4581 94.246 97.0555 94.834C97.6621 95.4127 97.9655 96.1547 97.9655 97.06C97.9655 97.956 97.6621 98.7027 97.0555 99.3C96.4581 99.888 95.7115 100.182 94.8155 100.182C93.9195 100.182 93.1681 99.888 92.5615 99.3C91.9641 98.7027 91.6655 97.956 91.6655 97.06C91.6655 96.1547 91.9641 95.4127 92.5615 94.834ZM93.5415 98.446C93.8588 98.782 94.2835 98.95 94.8155 98.95C95.3475 98.95 95.7721 98.782 96.0895 98.446C96.4068 98.1007 96.5655 97.6433 96.5655 97.074C96.5655 96.4487 96.3928 95.9773 96.0475 95.66C95.7115 95.3427 95.3008 95.184 94.8155 95.184C94.3301 95.184 93.9148 95.3427 93.5695 95.66C93.2335 95.9773 93.0655 96.4487 93.0655 97.074C93.0655 97.6433 93.2241 98.1007 93.5415 98.446ZM99.9013 94.106H104.325V98.74H105.221V101.68H103.961V100H99.8453V101.68H98.5853V98.74C99.0613 98.712 99.4206 98.4553 99.6633 97.97C99.822 97.6247 99.9013 97.1067 99.9013 96.416V94.106ZM102.953 98.74V95.366H101.217V96.934C101.217 97.7833 100.989 98.3853 100.531 98.74H102.953ZM107.578 99.314V103.206H106.206V94.106H107.578V94.75C108.026 94.218 108.609 93.952 109.328 93.952C110.131 93.952 110.807 94.2367 111.358 94.806C111.918 95.366 112.198 96.1033 112.198 97.018C112.198 97.9607 111.909 98.726 111.33 99.314C110.751 99.8927 110.089 100.182 109.342 100.182C108.642 100.182 108.054 99.8927 107.578 99.314ZM109.16 95.184C108.693 95.184 108.297 95.352 107.97 95.688C107.653 96.0147 107.494 96.4813 107.494 97.088C107.494 97.676 107.653 98.1333 107.97 98.46C108.297 98.7867 108.693 98.95 109.16 98.95C109.645 98.95 110.037 98.768 110.336 98.404C110.644 98.04 110.798 97.5967 110.798 97.074C110.798 96.542 110.644 96.094 110.336 95.73C110.037 95.366 109.645 95.184 109.16 95.184ZM114.218 94.834C114.824 94.246 115.576 93.952 116.472 93.952C117.368 93.952 118.114 94.246 118.712 94.834C119.318 95.4127 119.622 96.1547 119.622 97.06C119.622 97.956 119.318 98.7027 118.712 99.3C118.114 99.888 117.368 100.182 116.472 100.182C115.576 100.182 114.824 99.888 114.218 99.3C113.62 98.7027 113.322 97.956 113.322 97.06C113.322 96.1547 113.62 95.4127 114.218 94.834ZM115.198 98.446C115.515 98.782 115.94 98.95 116.472 98.95C117.004 98.95 117.428 98.782 117.746 98.446C118.063 98.1007 118.222 97.6433 118.222 97.074C118.222 96.4487 118.049 95.9773 117.704 95.66C117.368 95.3427 116.957 95.184 116.472 95.184C115.986 95.184 115.571 95.3427 115.226 95.66C114.89 95.9773 114.722 96.4487 114.722 97.074C114.722 97.6433 114.88 98.1007 115.198 98.446ZM125.506 90.06H126.906C126.803 90.5453 126.588 90.9653 126.262 91.32C125.935 91.6747 125.534 91.9173 125.058 92.048L124.134 92.3C123.891 92.3653 123.704 92.4213 123.574 92.468C123.443 92.5147 123.28 92.6033 123.084 92.734C122.897 92.8553 122.738 93.0047 122.608 93.182C122.3 93.5927 122.136 94.1247 122.118 94.778H122.132C122.542 94.2273 123.21 93.952 124.134 93.952C124.964 93.952 125.65 94.232 126.192 94.792C126.761 95.38 127.046 96.1267 127.046 97.032C127.046 97.9467 126.742 98.7027 126.136 99.3C125.538 99.888 124.792 100.182 123.896 100.182C123 100.182 122.281 99.9207 121.74 99.398C121.441 99.118 121.212 98.7727 121.054 98.362C120.895 97.9513 120.802 97.6153 120.774 97.354C120.755 97.0833 120.746 96.7567 120.746 96.374C120.746 94.5447 121.044 93.196 121.642 92.328C122.09 91.6653 122.678 91.2453 123.406 91.068L124.386 90.83C125.03 90.6713 125.403 90.4147 125.506 90.06ZM122.622 98.446C122.939 98.782 123.364 98.95 123.896 98.95C124.428 98.95 124.852 98.782 125.17 98.446C125.487 98.1007 125.646 97.6433 125.646 97.074C125.646 96.4487 125.473 95.9773 125.128 95.66C124.792 95.3427 124.381 95.184 123.896 95.184C123.41 95.184 122.995 95.3427 122.65 95.66C122.314 95.9773 122.146 96.4487 122.146 97.074C122.146 97.6433 122.304 98.1007 122.622 98.446ZM128.477 100V94.106H129.849V96.29H132.285V94.106H133.657V100H132.285V97.55H129.849V100H128.477ZM139.525 98.012L140.673 98.656C140.412 99.1227 140.081 99.482 139.679 99.734C139.222 100.033 138.643 100.182 137.943 100.182C137.122 100.182 136.459 99.93 135.955 99.426C135.377 98.8473 135.087 98.096 135.087 97.172C135.087 96.2013 135.4 95.394 136.025 94.75C136.557 94.218 137.215 93.952 137.999 93.952C138.765 93.952 139.395 94.2087 139.889 94.722C140.44 95.2913 140.715 96.122 140.715 97.214V97.382H136.487C136.525 97.8767 136.693 98.2733 136.991 98.572C137.243 98.824 137.593 98.95 138.041 98.95C138.405 98.95 138.718 98.852 138.979 98.656C139.194 98.488 139.376 98.2733 139.525 98.012ZM136.585 96.262H139.315C139.259 95.9353 139.119 95.6693 138.895 95.464C138.653 95.24 138.345 95.128 137.971 95.128C137.579 95.128 137.257 95.254 137.005 95.506C136.8 95.6927 136.66 95.9447 136.585 96.262ZM146.279 98.012L147.427 98.656C147.166 99.1227 146.835 99.482 146.433 99.734C145.976 100.033 145.397 100.182 144.697 100.182C143.876 100.182 143.213 99.93 142.709 99.426C142.131 98.8473 141.841 98.096 141.841 97.172C141.841 96.2013 142.154 95.394 142.779 94.75C143.311 94.218 143.969 93.952 144.753 93.952C145.519 93.952 146.149 94.2087 146.643 94.722C147.194 95.2913 147.469 96.122 147.469 97.214V97.382H143.241C143.279 97.8767 143.447 98.2733 143.745 98.572C143.997 98.824 144.347 98.95 144.795 98.95C145.159 98.95 145.472 98.852 145.733 98.656C145.948 98.488 146.13 98.2733 146.279 98.012ZM143.339 96.262H146.069C146.013 95.9353 145.873 95.6693 145.649 95.464C145.407 95.24 145.099 95.128 144.725 95.128C144.333 95.128 144.011 95.254 143.759 95.506C143.554 95.6927 143.414 95.9447 143.339 96.262Z" fill="#A0A4B8"/>
<path d="M181.103 93.5L184 96.5L181.103 99.5L180.571 98.9482L182.558 96.8902L162 96.8902L162 96.1098L182.558 96.1098L180.571 94.0518L181.103 93.5Z" fill="#A0A4B8"/>
<defs>
<linearGradient id="paint0_linear" x1="3.91956" y1="39.9274" x2="180.736" y2="39.9273" gradientUnits="userSpaceOnUse">
<stop stop-color="#E8E8FF" stop-opacity="0"/>
<stop offset="1" stop-color="#CDCDF8" stop-opacity="0.87"/>
</linearGradient>
<linearGradient id="paint1_linear" x1="134.19" y1="45.3151" x2="118.619" y2="45.3151" gradientUnits="userSpaceOnUse">
<stop stop-color="#00D2D5"/>
<stop offset="1" stop-color="#00D2D5" stop-opacity="0"/>
</linearGradient>
</defs>
</svg>
