<svg width="190" height="104" viewBox="0 0 190 104" fill="none" xmlns="http://www.w3.org/2000/svg">
<rect x="4.04968" y="4.2439" width="181.661" height="71.3669" rx="4" fill="url(#paint0_linear)" fill-opacity="0.22"/>
<path d="M172.735 1H187.008L188.63 2.94637V7.1635" stroke="#DCDDE9"/>
<path d="M17.0255 78.5304H2.75213L1.13016 76.584V72.3669" stroke="#DCDDE9"/>
<line x1="64.975" y1="9.29871" x2="64.975" y2="68.3811" stroke="#DCDDE9"/>
<path d="M35.1916 38.6299C26.2336 38.6299 18.9718 45.8917 18.9718 54.8496H35.1916V38.6299Z" fill="#00DFE2"/>
<path d="M35.1916 38.6299C44.1495 38.6299 51.4114 45.8917 51.4114 54.8496H35.1916V38.6299Z" fill="#47F0E9"/>
<path d="M35.1916 38.6299C26.2336 38.6299 18.9718 31.3681 18.9718 22.4101H35.1916V38.6299Z" fill="#6D8FF2"/>
<path d="M35.1916 38.6299C44.1495 38.6299 51.4114 31.3681 51.4114 22.4101H35.1916V38.6299Z" fill="#486FF0"/>
<path d="M97.7162 22.9179V20.7899H102.352V37.2439H97.7162V35.1159C96.4749 36.8892 94.7902 37.7759 92.6622 37.7759C90.1796 37.7759 88.1529 36.9272 86.5822 35.2299C85.0369 33.5326 84.2642 31.4552 84.2642 28.9979C84.2642 26.5152 85.0242 24.4379 86.5442 22.7659C88.0642 21.0939 90.0276 20.2579 92.4342 20.2579C94.8156 20.2579 96.5762 21.1446 97.7162 22.9179ZM96.8802 25.6919C96.0189 24.8052 94.9296 24.3619 93.6122 24.3619C92.2949 24.3619 91.2056 24.8052 90.3442 25.6919C89.4829 26.5786 89.0522 27.6806 89.0522 28.9979C89.0522 30.3152 89.4829 31.4299 90.3442 32.3419C91.2056 33.2286 92.2949 33.6719 93.6122 33.6719C94.9296 33.6719 96.0189 33.2286 96.8802 32.3419C97.7416 31.4299 98.1722 30.3152 98.1722 28.9979C98.1722 27.6806 97.7416 26.5786 96.8802 25.6919Z" fill="#2C315B"/>
<path d="M111.129 28.494L125.358 28.494L125.358 35.1206H123.488C123.299 35.1206 123.125 35.2226 123.034 35.3866C122.943 35.5505 122.951 35.7502 123.053 35.9072L125.44 39.5664C125.535 39.7123 125.699 39.8004 125.875 39.8004C126.05 39.8004 126.214 39.7123 126.309 39.5664L128.696 35.9073C128.798 35.7503 128.806 35.5506 128.715 35.3866C128.625 35.2227 128.451 35.1207 128.261 35.1207H126.391L126.391 27.9837C126.391 27.7019 126.16 27.4734 125.875 27.4734L111.129 27.4734C110.844 27.4734 110.612 27.7019 110.612 27.9837C110.612 28.2655 110.843 28.494 111.129 28.494ZM125.875 38.3477L124.435 36.1413H127.314L125.875 38.3477Z" fill="url(#paint1_linear)"/>
<path d="M90.9221 49.7338V48.5538H92.3621V56.8538H90.9221V55.6938C90.2021 56.6271 89.2555 57.0938 88.0821 57.0938C86.9621 57.0938 86.0088 56.7071 85.2221 55.9338C84.4355 55.1604 84.0421 54.0804 84.0421 52.6938C84.0421 51.3338 84.4288 50.2738 85.2021 49.5138C85.9888 48.7404 86.9488 48.3538 88.0821 48.3538C89.2821 48.3538 90.2288 48.8138 90.9221 49.7338ZM88.2421 49.6338C87.4821 49.6338 86.8355 49.9071 86.3021 50.4538C85.7821 50.9871 85.5221 51.7338 85.5221 52.6938C85.5221 53.6138 85.7621 54.3671 86.2421 54.9538C86.7355 55.5271 87.4021 55.8138 88.2421 55.8138C89.0821 55.8138 89.7488 55.5138 90.2421 54.9138C90.7488 54.3138 91.0021 53.5804 91.0021 52.7138C91.0021 51.7271 90.7221 50.9671 90.1621 50.4338C89.6021 49.9004 88.9621 49.6338 88.2421 49.6338ZM95.0895 56.8538V48.5538H96.5295V49.4538C96.9962 48.7204 97.6228 48.3538 98.4095 48.3538C98.8095 48.3538 99.2362 48.4671 99.6895 48.6938L99.0095 49.9938C98.7428 49.8071 98.4628 49.7138 98.1695 49.7138C97.6628 49.7138 97.2762 49.8871 97.0095 50.2338C96.6895 50.6604 96.5295 51.4071 96.5295 52.4738V56.8538H95.0895ZM102.447 55.6938V56.8538H101.007V42.2738H102.447V49.7138C103.181 48.8071 104.127 48.3538 105.287 48.3538C106.527 48.3538 107.507 48.7938 108.227 49.6738C108.961 50.5404 109.327 51.5671 109.327 52.7538C109.327 53.9538 108.967 54.9804 108.247 55.8338C107.527 56.6738 106.561 57.0938 105.347 57.0938C104.134 57.0938 103.167 56.6271 102.447 55.6938ZM105.147 55.8138C105.961 55.8138 106.614 55.5204 107.107 54.9338C107.601 54.3338 107.847 53.6071 107.847 52.7538C107.847 51.7938 107.574 51.0338 107.027 50.4738C106.481 49.9138 105.847 49.6338 105.127 49.6338C104.407 49.6338 103.767 49.9138 103.207 50.4738C102.647 51.0338 102.367 51.7871 102.367 52.7338C102.367 53.6004 102.621 54.3338 103.127 54.9338C103.647 55.5204 104.321 55.8138 105.147 55.8138ZM111.535 48.5538H112.975V56.8538H111.535V48.5538ZM111.535 46.1338C111.335 45.9338 111.235 45.6938 111.235 45.4138C111.235 45.1338 111.335 44.8938 111.535 44.6938C111.735 44.4938 111.975 44.3938 112.255 44.3938C112.535 44.3938 112.775 44.4938 112.975 44.6938C113.175 44.8938 113.275 45.1338 113.275 45.4138C113.275 45.6938 113.175 45.9338 112.975 46.1338C112.775 46.3338 112.535 46.4338 112.255 46.4338C111.975 46.4338 111.735 46.3338 111.535 46.1338ZM118.615 49.8738H117.175V56.8538H115.735V49.8738H114.855V48.5538H115.735V45.5538H117.175V48.5538H118.615V49.8738ZM119.972 56.8538V48.5538H121.412V49.4538C121.879 48.7204 122.506 48.3538 123.292 48.3538C123.692 48.3538 124.119 48.4671 124.572 48.6938L123.892 49.9938C123.626 49.8071 123.346 49.7138 123.052 49.7138C122.546 49.7138 122.159 49.8871 121.892 50.2338C121.572 50.6604 121.412 51.4071 121.412 52.4738V56.8538H119.972ZM131.821 49.7338V48.5538H133.261V56.8538H131.821V55.6938C131.101 56.6271 130.154 57.0938 128.981 57.0938C127.861 57.0938 126.907 56.7071 126.121 55.9338C125.334 55.1604 124.941 54.0804 124.941 52.6938C124.941 51.3338 125.327 50.2738 126.101 49.5138C126.887 48.7404 127.847 48.3538 128.981 48.3538C130.181 48.3538 131.127 48.8138 131.821 49.7338ZM129.141 49.6338C128.381 49.6338 127.734 49.9071 127.201 50.4538C126.681 50.9871 126.421 51.7338 126.421 52.6938C126.421 53.6138 126.661 54.3671 127.141 54.9538C127.634 55.5271 128.301 55.8138 129.141 55.8138C129.981 55.8138 130.647 55.5138 131.141 54.9138C131.647 54.3138 131.901 53.5804 131.901 52.7138C131.901 51.7271 131.621 50.9671 131.061 50.4338C130.501 49.9004 129.861 49.6338 129.141 49.6338ZM138.908 49.8738H137.468V56.8538H136.028V49.8738H135.148V48.5538H136.028V45.5538H137.468V48.5538H138.908V49.8738ZM140.265 48.5538H141.705V56.8538H140.265V48.5538ZM140.265 46.1338C140.065 45.9338 139.965 45.6938 139.965 45.4138C139.965 45.1338 140.065 44.8938 140.265 44.6938C140.465 44.4938 140.705 44.3938 140.985 44.3938C141.265 44.3938 141.505 44.4938 141.705 44.6938C141.905 44.8938 142.005 45.1338 142.005 45.4138C142.005 45.6938 141.905 45.9338 141.705 46.1338C141.505 46.3338 141.265 46.4338 140.985 46.4338C140.705 46.4338 140.465 46.3338 140.265 46.1338ZM151.445 55.8538C150.619 56.6804 149.572 57.0938 148.305 57.0938C147.039 57.0938 145.985 56.6804 145.145 55.8538C144.319 55.0271 143.905 53.9871 143.905 52.7338C143.905 51.4671 144.319 50.4204 145.145 49.5938C145.985 48.7671 147.039 48.3538 148.305 48.3538C149.572 48.3538 150.619 48.7671 151.445 49.5938C152.285 50.4204 152.705 51.4671 152.705 52.7338C152.705 53.9871 152.285 55.0271 151.445 55.8538ZM150.365 50.4538C149.805 49.9071 149.119 49.6338 148.305 49.6338C147.492 49.6338 146.799 49.9138 146.225 50.4738C145.665 51.0204 145.385 51.7738 145.385 52.7338C145.385 53.6938 145.672 54.4471 146.245 54.9938C146.819 55.5404 147.505 55.8138 148.305 55.8138C149.105 55.8138 149.792 55.5404 150.365 54.9938C150.939 54.4471 151.225 53.6938 151.225 52.7338C151.225 51.7604 150.939 51.0004 150.365 50.4538ZM154.914 56.8538V48.5538H156.354V49.5138C156.94 48.7404 157.734 48.3538 158.734 48.3538C159.8 48.3538 160.594 48.7338 161.114 49.4938C161.434 49.9604 161.594 50.7004 161.594 51.7138V56.8538H160.154V51.7538C160.154 51.0738 160.027 50.5671 159.774 50.2338C159.467 49.8338 159.014 49.6338 158.414 49.6338C157.8 49.6338 157.314 49.8471 156.954 50.2738C156.554 50.7404 156.354 51.4871 156.354 52.5138V56.8538H154.914Z" fill="#582BDE"/>
<path d="M85.12 90.662H91.98V100H90.552V92.006H86.548V100H85.12V90.662ZM94.5615 94.834C95.1681 94.246 95.9195 93.952 96.8155 93.952C97.7115 93.952 98.4581 94.246 99.0555 94.834C99.6621 95.4127 99.9655 96.1547 99.9655 97.06C99.9655 97.956 99.6621 98.7027 99.0555 99.3C98.4581 99.888 97.7115 100.182 96.8155 100.182C95.9195 100.182 95.1681 99.888 94.5615 99.3C93.9641 98.7027 93.6655 97.956 93.6655 97.06C93.6655 96.1547 93.9641 95.4127 94.5615 94.834ZM95.5415 98.446C95.8588 98.782 96.2835 98.95 96.8155 98.95C97.3475 98.95 97.7721 98.782 98.0895 98.446C98.4068 98.1007 98.5655 97.6433 98.5655 97.074C98.5655 96.4487 98.3928 95.9773 98.0475 95.66C97.7115 95.3427 97.3008 95.184 96.8155 95.184C96.3301 95.184 95.9148 95.3427 95.5695 95.66C95.2335 95.9773 95.0655 96.4487 95.0655 97.074C95.0655 97.6433 95.2241 98.1007 95.5415 98.446ZM101.901 94.106H106.325V98.74H107.221V101.68H105.961V100H101.845V101.68H100.585V98.74C101.061 98.712 101.421 98.4553 101.663 97.97C101.822 97.6247 101.901 97.1067 101.901 96.416V94.106ZM104.953 98.74V95.366H103.217V96.934C103.217 97.7833 102.989 98.3853 102.531 98.74H104.953ZM109.578 99.314V103.206H108.206V94.106H109.578V94.75C110.026 94.218 110.609 93.952 111.328 93.952C112.131 93.952 112.807 94.2367 113.358 94.806C113.918 95.366 114.198 96.1033 114.198 97.018C114.198 97.9607 113.909 98.726 113.33 99.314C112.751 99.8927 112.089 100.182 111.342 100.182C110.642 100.182 110.054 99.8927 109.578 99.314ZM111.16 95.184C110.693 95.184 110.297 95.352 109.97 95.688C109.653 96.0147 109.494 96.4813 109.494 97.088C109.494 97.676 109.653 98.1333 109.97 98.46C110.297 98.7867 110.693 98.95 111.16 98.95C111.645 98.95 112.037 98.768 112.336 98.404C112.644 98.04 112.798 97.5967 112.798 97.074C112.798 96.542 112.644 96.094 112.336 95.73C112.037 95.366 111.645 95.184 111.16 95.184ZM116.218 94.834C116.824 94.246 117.576 93.952 118.472 93.952C119.368 93.952 120.114 94.246 120.712 94.834C121.318 95.4127 121.622 96.1547 121.622 97.06C121.622 97.956 121.318 98.7027 120.712 99.3C120.114 99.888 119.368 100.182 118.472 100.182C117.576 100.182 116.824 99.888 116.218 99.3C115.62 98.7027 115.322 97.956 115.322 97.06C115.322 96.1547 115.62 95.4127 116.218 94.834ZM117.198 98.446C117.515 98.782 117.94 98.95 118.472 98.95C119.004 98.95 119.428 98.782 119.746 98.446C120.063 98.1007 120.222 97.6433 120.222 97.074C120.222 96.4487 120.049 95.9773 119.704 95.66C119.368 95.3427 118.957 95.184 118.472 95.184C117.986 95.184 117.571 95.3427 117.226 95.66C116.89 95.9773 116.722 96.4487 116.722 97.074C116.722 97.6433 116.88 98.1007 117.198 98.446ZM127.506 90.06H128.906C128.803 90.5453 128.588 90.9653 128.262 91.32C127.935 91.6747 127.534 91.9173 127.058 92.048L126.134 92.3C125.891 92.3653 125.704 92.4213 125.574 92.468C125.443 92.5147 125.28 92.6033 125.084 92.734C124.897 92.8553 124.738 93.0047 124.608 93.182C124.3 93.5927 124.136 94.1247 124.118 94.778H124.132C124.542 94.2273 125.21 93.952 126.134 93.952C126.964 93.952 127.65 94.232 128.192 94.792C128.761 95.38 129.046 96.1267 129.046 97.032C129.046 97.9467 128.742 98.7027 128.136 99.3C127.538 99.888 126.792 100.182 125.896 100.182C125 100.182 124.281 99.9207 123.74 99.398C123.441 99.118 123.212 98.7727 123.054 98.362C122.895 97.9513 122.802 97.6153 122.774 97.354C122.755 97.0833 122.746 96.7567 122.746 96.374C122.746 94.5447 123.044 93.196 123.642 92.328C124.09 91.6653 124.678 91.2453 125.406 91.068L126.386 90.83C127.03 90.6713 127.403 90.4147 127.506 90.06ZM124.622 98.446C124.939 98.782 125.364 98.95 125.896 98.95C126.428 98.95 126.852 98.782 127.17 98.446C127.487 98.1007 127.646 97.6433 127.646 97.074C127.646 96.4487 127.473 95.9773 127.128 95.66C126.792 95.3427 126.381 95.184 125.896 95.184C125.41 95.184 124.995 95.3427 124.65 95.66C124.314 95.9773 124.146 96.4487 124.146 97.074C124.146 97.6433 124.304 98.1007 124.622 98.446ZM130.477 100V94.106H131.849V96.29H134.285V94.106H135.657V100H134.285V97.55H131.849V100H130.477ZM141.525 98.012L142.673 98.656C142.412 99.1227 142.081 99.482 141.679 99.734C141.222 100.033 140.643 100.182 139.943 100.182C139.122 100.182 138.459 99.93 137.955 99.426C137.377 98.8473 137.087 98.096 137.087 97.172C137.087 96.2013 137.4 95.394 138.025 94.75C138.557 94.218 139.215 93.952 139.999 93.952C140.765 93.952 141.395 94.2087 141.889 94.722C142.44 95.2913 142.715 96.122 142.715 97.214V97.382H138.487C138.525 97.8767 138.693 98.2733 138.991 98.572C139.243 98.824 139.593 98.95 140.041 98.95C140.405 98.95 140.718 98.852 140.979 98.656C141.194 98.488 141.376 98.2733 141.525 98.012ZM138.585 96.262H141.315C141.259 95.9353 141.119 95.6693 140.895 95.464C140.653 95.24 140.345 95.128 139.971 95.128C139.579 95.128 139.257 95.254 139.005 95.506C138.8 95.6927 138.66 95.9447 138.585 96.262ZM148.279 98.012L149.427 98.656C149.166 99.1227 148.835 99.482 148.433 99.734C147.976 100.033 147.397 100.182 146.697 100.182C145.876 100.182 145.213 99.93 144.709 99.426C144.131 98.8473 143.841 98.096 143.841 97.172C143.841 96.2013 144.154 95.394 144.779 94.75C145.311 94.218 145.969 93.952 146.753 93.952C147.519 93.952 148.149 94.2087 148.643 94.722C149.194 95.2913 149.469 96.122 149.469 97.214V97.382H145.241C145.279 97.8767 145.447 98.2733 145.745 98.572C145.997 98.824 146.347 98.95 146.795 98.95C147.159 98.95 147.472 98.852 147.733 98.656C147.948 98.488 148.13 98.2733 148.279 98.012ZM145.339 96.262H148.069C148.013 95.9353 147.873 95.6693 147.649 95.464C147.407 95.24 147.099 95.128 146.725 95.128C146.333 95.128 146.011 95.254 145.759 95.506C145.554 95.6927 145.414 95.9447 145.339 96.262Z" fill="#A0A4B8"/>
<path d="M183.103 93.5L186 96.5L183.103 99.5L182.571 98.9482L184.558 96.8902L164 96.8902L164 96.1098L184.558 96.1098L182.571 94.0518L183.103 93.5Z" fill="#A0A4B8"/>
<defs>
<linearGradient id="paint0_linear" x1="4.04968" y1="39.9274" x2="180.867" y2="39.9273" gradientUnits="userSpaceOnUse">
<stop stop-color="#E8E8FF" stop-opacity="0"/>
<stop offset="1" stop-color="#CDCDF8" stop-opacity="0.87"/>
</linearGradient>
<linearGradient id="paint1_linear" x1="126.183" y1="45.3151" x2="110.612" y2="45.3151" gradientUnits="userSpaceOnUse">
<stop stop-color="#00D2D5"/>
<stop offset="1" stop-color="#00D2D5" stop-opacity="0"/>
</linearGradient>
</defs>
</svg>
