<svg width="190" height="104" viewBox="0 0 190 104" fill="none" xmlns="http://www.w3.org/2000/svg">
<rect x="4.17981" y="4.2439" width="181.661" height="71.3669" rx="4" fill="url(#paint0_linear)" fill-opacity="0.22"/>
<path d="M172.865 1H187.139L188.761 2.94637V7.1635" stroke="#DCDDE9"/>
<path d="M17.1556 78.5304H2.88226L1.26029 76.584V72.3669" stroke="#DCDDE9"/>
<line x1="65.105" y1="9.29871" x2="65.105" y2="68.3811" stroke="#DCDDE9"/>
<path d="M19.1021 38.63C28.06 38.63 35.3218 45.8918 35.3218 54.8497L19.1021 54.8497L19.1021 38.63Z" fill="#00DFE2"/>
<path d="M51.5414 38.63C42.5836 38.63 35.3218 45.8918 35.3218 54.8497L51.5414 54.8497L51.5414 38.63Z" fill="#47F0E9"/>
<path d="M19.1019 22.4101L19.1019 38.6298L35.3216 22.4101L19.1019 22.4101Z" fill="#6D8FF2"/>
<path d="M51.5412 22.4102H35.3215L51.5412 38.6298V22.4102Z" fill="#486FF0"/>
<path d="M93.0584 24.7419H89.8664V37.2439H85.2304V24.7419H83.4064V20.7899H85.2304V15.1659H89.8664V20.7899H93.0584V24.7419Z" fill="#2C315B"/>
<path d="M100.771 27.494L115 27.494L115 34.1206H113.13C112.941 34.1206 112.767 34.2226 112.676 34.3866C112.586 34.5505 112.593 34.7502 112.695 34.9072L115.082 38.5664C115.177 38.7123 115.341 38.8004 115.517 38.8004C115.692 38.8004 115.856 38.7123 115.951 38.5664L118.338 34.9073C118.44 34.7503 118.448 34.5506 118.357 34.3866C118.267 34.2227 118.093 34.1207 117.904 34.1207H116.034L116.034 26.9837C116.034 26.7019 115.802 26.4734 115.517 26.4734L100.771 26.4734C100.486 26.4734 100.254 26.7019 100.254 26.9837C100.254 27.2655 100.486 27.494 100.771 27.494ZM115.517 37.3477L114.077 35.1413H116.956L115.517 37.3477Z" fill="url(#paint1_linear)"/>
<path d="M87.6122 48.8738H86.1722V55.8538H84.7322V48.8738H83.8522V47.5538H84.7322V44.5538H86.1722V47.5538H87.6122V48.8738ZM95.9895 54.8538C95.1628 55.6804 94.1162 56.0938 92.8495 56.0938C91.5828 56.0938 90.5295 55.6804 89.6895 54.8538C88.8628 54.0271 88.4495 52.9871 88.4495 51.7338C88.4495 50.4671 88.8628 49.4204 89.6895 48.5938C90.5295 47.7671 91.5828 47.3538 92.8495 47.3538C94.1162 47.3538 95.1628 47.7671 95.9895 48.5938C96.8295 49.4204 97.2495 50.4671 97.2495 51.7338C97.2495 52.9871 96.8295 54.0271 95.9895 54.8538ZM94.9095 49.4538C94.3495 48.9071 93.6628 48.6338 92.8495 48.6338C92.0362 48.6338 91.3428 48.9138 90.7695 49.4738C90.2095 50.0204 89.9295 50.7738 89.9295 51.7338C89.9295 52.6938 90.2162 53.4471 90.7895 53.9938C91.3628 54.5404 92.0495 54.8138 92.8495 54.8138C93.6495 54.8138 94.3362 54.5404 94.9095 53.9938C95.4828 53.4471 95.7695 52.6938 95.7695 51.7338C95.7695 50.7604 95.4828 50.0004 94.9095 49.4538ZM99.4578 41.2738H100.898V50.6338L103.938 47.5538H105.818L102.258 51.1138L106.458 55.8538H104.578L101.258 52.0738L100.898 52.4338V55.8538H99.4578V41.2738ZM113.86 53.0738L115.06 53.7338C114.78 54.2671 114.44 54.7138 114.04 55.0738C113.28 55.7538 112.36 56.0938 111.28 56.0938C110.16 56.0938 109.193 55.7338 108.38 55.0138C107.58 54.2804 107.18 53.1938 107.18 51.7538C107.18 50.4871 107.54 49.4404 108.26 48.6138C108.993 47.7738 109.973 47.3538 111.2 47.3538C112.587 47.3538 113.633 47.8604 114.34 48.8738C114.9 49.6738 115.16 50.7138 115.12 51.9938H108.66C108.673 52.8338 108.933 53.5138 109.44 54.0338C109.947 54.5538 110.567 54.8138 111.3 54.8138C111.953 54.8138 112.52 54.6138 113 54.2138C113.373 53.8938 113.66 53.5138 113.86 53.0738ZM108.76 50.7938H113.64C113.52 50.1404 113.233 49.6204 112.78 49.2338C112.34 48.8338 111.813 48.6338 111.2 48.6338C110.6 48.6338 110.067 48.8404 109.6 49.2538C109.147 49.6538 108.867 50.1671 108.76 50.7938ZM117.329 55.8538V47.5538H118.769V48.5138C119.356 47.7404 120.149 47.3538 121.149 47.3538C122.216 47.3538 123.009 47.7338 123.529 48.4938C123.849 48.9604 124.009 49.7004 124.009 50.7138V55.8538H122.569V50.7538C122.569 50.0738 122.442 49.5671 122.189 49.2338C121.882 48.8338 121.429 48.6338 120.829 48.6338C120.216 48.6338 119.729 48.8471 119.369 49.2738C118.969 49.7404 118.769 50.4871 118.769 51.5138V55.8538H117.329Z" fill="#582BDE"/>
<path d="M83.12 90.662H89.98V100H88.552V92.006H84.548V100H83.12V90.662ZM92.5615 94.834C93.1681 94.246 93.9195 93.952 94.8155 93.952C95.7115 93.952 96.4581 94.246 97.0555 94.834C97.6621 95.4127 97.9655 96.1547 97.9655 97.06C97.9655 97.956 97.6621 98.7027 97.0555 99.3C96.4581 99.888 95.7115 100.182 94.8155 100.182C93.9195 100.182 93.1681 99.888 92.5615 99.3C91.9641 98.7027 91.6655 97.956 91.6655 97.06C91.6655 96.1547 91.9641 95.4127 92.5615 94.834ZM93.5415 98.446C93.8588 98.782 94.2835 98.95 94.8155 98.95C95.3475 98.95 95.7721 98.782 96.0895 98.446C96.4068 98.1007 96.5655 97.6433 96.5655 97.074C96.5655 96.4487 96.3928 95.9773 96.0475 95.66C95.7115 95.3427 95.3008 95.184 94.8155 95.184C94.3301 95.184 93.9148 95.3427 93.5695 95.66C93.2335 95.9773 93.0655 96.4487 93.0655 97.074C93.0655 97.6433 93.2241 98.1007 93.5415 98.446ZM99.9013 94.106H104.325V98.74H105.221V101.68H103.961V100H99.8453V101.68H98.5853V98.74C99.0613 98.712 99.4206 98.4553 99.6633 97.97C99.822 97.6247 99.9013 97.1067 99.9013 96.416V94.106ZM102.953 98.74V95.366H101.217V96.934C101.217 97.7833 100.989 98.3853 100.531 98.74H102.953ZM107.578 99.314V103.206H106.206V94.106H107.578V94.75C108.026 94.218 108.609 93.952 109.328 93.952C110.131 93.952 110.807 94.2367 111.358 94.806C111.918 95.366 112.198 96.1033 112.198 97.018C112.198 97.9607 111.909 98.726 111.33 99.314C110.751 99.8927 110.089 100.182 109.342 100.182C108.642 100.182 108.054 99.8927 107.578 99.314ZM109.16 95.184C108.693 95.184 108.297 95.352 107.97 95.688C107.653 96.0147 107.494 96.4813 107.494 97.088C107.494 97.676 107.653 98.1333 107.97 98.46C108.297 98.7867 108.693 98.95 109.16 98.95C109.645 98.95 110.037 98.768 110.336 98.404C110.644 98.04 110.798 97.5967 110.798 97.074C110.798 96.542 110.644 96.094 110.336 95.73C110.037 95.366 109.645 95.184 109.16 95.184ZM114.218 94.834C114.824 94.246 115.576 93.952 116.472 93.952C117.368 93.952 118.114 94.246 118.712 94.834C119.318 95.4127 119.622 96.1547 119.622 97.06C119.622 97.956 119.318 98.7027 118.712 99.3C118.114 99.888 117.368 100.182 116.472 100.182C115.576 100.182 114.824 99.888 114.218 99.3C113.62 98.7027 113.322 97.956 113.322 97.06C113.322 96.1547 113.62 95.4127 114.218 94.834ZM115.198 98.446C115.515 98.782 115.94 98.95 116.472 98.95C117.004 98.95 117.428 98.782 117.746 98.446C118.063 98.1007 118.222 97.6433 118.222 97.074C118.222 96.4487 118.049 95.9773 117.704 95.66C117.368 95.3427 116.957 95.184 116.472 95.184C115.986 95.184 115.571 95.3427 115.226 95.66C114.89 95.9773 114.722 96.4487 114.722 97.074C114.722 97.6433 114.88 98.1007 115.198 98.446ZM125.506 90.06H126.906C126.803 90.5453 126.588 90.9653 126.262 91.32C125.935 91.6747 125.534 91.9173 125.058 92.048L124.134 92.3C123.891 92.3653 123.704 92.4213 123.574 92.468C123.443 92.5147 123.28 92.6033 123.084 92.734C122.897 92.8553 122.738 93.0047 122.608 93.182C122.3 93.5927 122.136 94.1247 122.118 94.778H122.132C122.542 94.2273 123.21 93.952 124.134 93.952C124.964 93.952 125.65 94.232 126.192 94.792C126.761 95.38 127.046 96.1267 127.046 97.032C127.046 97.9467 126.742 98.7027 126.136 99.3C125.538 99.888 124.792 100.182 123.896 100.182C123 100.182 122.281 99.9207 121.74 99.398C121.441 99.118 121.212 98.7727 121.054 98.362C120.895 97.9513 120.802 97.6153 120.774 97.354C120.755 97.0833 120.746 96.7567 120.746 96.374C120.746 94.5447 121.044 93.196 121.642 92.328C122.09 91.6653 122.678 91.2453 123.406 91.068L124.386 90.83C125.03 90.6713 125.403 90.4147 125.506 90.06ZM122.622 98.446C122.939 98.782 123.364 98.95 123.896 98.95C124.428 98.95 124.852 98.782 125.17 98.446C125.487 98.1007 125.646 97.6433 125.646 97.074C125.646 96.4487 125.473 95.9773 125.128 95.66C124.792 95.3427 124.381 95.184 123.896 95.184C123.41 95.184 122.995 95.3427 122.65 95.66C122.314 95.9773 122.146 96.4487 122.146 97.074C122.146 97.6433 122.304 98.1007 122.622 98.446ZM128.477 100V94.106H129.849V96.29H132.285V94.106H133.657V100H132.285V97.55H129.849V100H128.477ZM139.525 98.012L140.673 98.656C140.412 99.1227 140.081 99.482 139.679 99.734C139.222 100.033 138.643 100.182 137.943 100.182C137.122 100.182 136.459 99.93 135.955 99.426C135.377 98.8473 135.087 98.096 135.087 97.172C135.087 96.2013 135.4 95.394 136.025 94.75C136.557 94.218 137.215 93.952 137.999 93.952C138.765 93.952 139.395 94.2087 139.889 94.722C140.44 95.2913 140.715 96.122 140.715 97.214V97.382H136.487C136.525 97.8767 136.693 98.2733 136.991 98.572C137.243 98.824 137.593 98.95 138.041 98.95C138.405 98.95 138.718 98.852 138.979 98.656C139.194 98.488 139.376 98.2733 139.525 98.012ZM136.585 96.262H139.315C139.259 95.9353 139.119 95.6693 138.895 95.464C138.653 95.24 138.345 95.128 137.971 95.128C137.579 95.128 137.257 95.254 137.005 95.506C136.8 95.6927 136.66 95.9447 136.585 96.262ZM146.279 98.012L147.427 98.656C147.166 99.1227 146.835 99.482 146.433 99.734C145.976 100.033 145.397 100.182 144.697 100.182C143.876 100.182 143.213 99.93 142.709 99.426C142.131 98.8473 141.841 98.096 141.841 97.172C141.841 96.2013 142.154 95.394 142.779 94.75C143.311 94.218 143.969 93.952 144.753 93.952C145.519 93.952 146.149 94.2087 146.643 94.722C147.194 95.2913 147.469 96.122 147.469 97.214V97.382H143.241C143.279 97.8767 143.447 98.2733 143.745 98.572C143.997 98.824 144.347 98.95 144.795 98.95C145.159 98.95 145.472 98.852 145.733 98.656C145.948 98.488 146.13 98.2733 146.279 98.012ZM143.339 96.262H146.069C146.013 95.9353 145.873 95.6693 145.649 95.464C145.407 95.24 145.099 95.128 144.725 95.128C144.333 95.128 144.011 95.254 143.759 95.506C143.554 95.6927 143.414 95.9447 143.339 96.262Z" fill="#A0A4B8"/>
<path d="M181.103 93.5L184 96.5L181.103 99.5L180.571 98.9482L182.558 96.8902L162 96.8902L162 96.1098L182.558 96.1098L180.571 94.0518L181.103 93.5Z" fill="#A0A4B8"/>
<defs>
<linearGradient id="paint0_linear" x1="4.17981" y1="39.9274" x2="180.997" y2="39.9273" gradientUnits="userSpaceOnUse">
<stop stop-color="#E8E8FF" stop-opacity="0"/>
<stop offset="1" stop-color="#CDCDF8" stop-opacity="0.87"/>
</linearGradient>
<linearGradient id="paint1_linear" x1="115.825" y1="44.3151" x2="100.254" y2="44.3151" gradientUnits="userSpaceOnUse">
<stop stop-color="#00D2D5"/>
<stop offset="1" stop-color="#00D2D5" stop-opacity="0"/>
</linearGradient>
</defs>
</svg>
