<svg width="190" height="105" viewBox="0 0 190 105" fill="none" xmlns="http://www.w3.org/2000/svg">
<rect x="4.30994" y="5.2439" width="181.661" height="71.3669" rx="4" fill="url(#paint0_linear)" fill-opacity="0.22"/>
<path d="M172.995 2.6488H187.269L188.891 4.59517V8.81231" stroke="#DCDDE9"/>
<path d="M17.2858 80.1792H3.01239L1.39041 78.2328V74.0157" stroke="#DCDDE9"/>
<line x1="65.2352" y1="10.2987" x2="65.2352" y2="69.3811" stroke="#DCDDE9"/>
<path d="M35.4519 23.4102H51.6716L35.4519 39.6299V23.4102Z" fill="#486FF0"/>
<path d="M35.4519 23.4102H19.2322L35.4519 39.6299V23.4102Z" fill="#6D8FF2"/>
<path d="M51.6716 39.6299C51.6716 48.5878 44.4098 55.8496 35.4519 55.8496L35.4519 39.6299L51.6716 39.6299Z" fill="#47F0E9"/>
<path d="M19.2321 39.6299C19.2321 48.5878 26.4939 55.8496 35.4518 55.8496L35.4518 39.6299L19.2321 39.6299Z" fill="#00DFE2"/>
<path d="M97.2545 31.9619L101.51 32.6459C101.333 33.1019 101.092 33.5579 100.788 34.0139C100.51 34.4446 100.066 34.9892 99.4585 35.6479C98.8505 36.2812 98.0272 36.8006 96.9885 37.2059C95.9498 37.5859 94.7592 37.7759 93.4165 37.7759C90.8325 37.7759 88.7298 37.0032 87.1085 35.4579C85.3858 33.8366 84.5245 31.6959 84.5245 29.0359C84.5245 26.4012 85.3605 24.2479 87.0325 22.5759C88.6032 21.0306 90.6678 20.2579 93.2265 20.2579C96.0132 20.2579 98.1538 21.1572 99.6485 22.9559C100.966 24.5266 101.624 26.6799 101.624 29.4159V29.7959H89.3125C89.3125 30.9106 89.5785 31.8352 90.1105 32.5699C90.8705 33.6086 91.9725 34.1279 93.4165 34.1279C95.1392 34.1279 96.4185 33.4059 97.2545 31.9619ZM89.4645 26.8319H97.2545C97.0772 25.7679 96.6085 24.9572 95.8485 24.3999C95.1138 23.8172 94.2778 23.5259 93.3405 23.5259C92.4285 23.5259 91.5925 23.8172 90.8325 24.3999C90.0978 24.9826 89.6418 25.7932 89.4645 26.8319Z" fill="#2C315B"/>
<path d="M110.74 28.494L124.969 28.494L124.969 35.1206H123.099C122.91 35.1206 122.736 35.2226 122.645 35.3866C122.555 35.5505 122.562 35.7502 122.665 35.9072L125.052 39.5664C125.147 39.7123 125.31 39.8004 125.486 39.8004C125.662 39.8004 125.825 39.7123 125.92 39.5664L128.307 35.9073C128.41 35.7503 128.417 35.5506 128.327 35.3866C128.236 35.2227 128.062 35.1207 127.873 35.1207H126.003L126.003 27.9837C126.003 27.7019 125.771 27.4734 125.486 27.4734L110.74 27.4734C110.455 27.4734 110.224 27.7019 110.224 27.9837C110.224 28.2655 110.455 28.494 110.74 28.494ZM125.486 38.3477L124.047 36.1413H126.925L125.486 38.3477Z" fill="url(#paint1_linear)"/>
<path d="M90.9824 54.0739L92.1824 54.7339C91.9024 55.2672 91.5624 55.7139 91.1624 56.0739C90.4024 56.7539 89.4824 57.0939 88.4024 57.0939C87.2824 57.0939 86.3157 56.7339 85.5024 56.0139C84.7024 55.2805 84.3024 54.1939 84.3024 52.7539C84.3024 51.4872 84.6624 50.4405 85.3824 49.6139C86.1157 48.7739 87.0957 48.3539 88.3224 48.3539C89.7091 48.3539 90.7557 48.8605 91.4624 49.8739C92.0224 50.6739 92.2824 51.7139 92.2424 52.9939H85.7824C85.7957 53.8339 86.0557 54.5139 86.5624 55.0339C87.0691 55.5539 87.6891 55.8139 88.4224 55.8139C89.0757 55.8139 89.6424 55.6139 90.1224 55.2139C90.4957 54.8939 90.7824 54.5139 90.9824 54.0739ZM85.8824 51.7939H90.7624C90.6424 51.1405 90.3557 50.6205 89.9024 50.2339C89.4624 49.8339 88.9357 49.6339 88.3224 49.6339C87.7224 49.6339 87.1891 49.8405 86.7224 50.2539C86.2691 50.6539 85.9891 51.1672 85.8824 51.7939ZM93.2513 56.8539L96.7913 52.4139L93.7713 48.5539H95.5313L97.6713 51.3739L99.8513 48.5539H101.611L98.5713 52.4339L102.011 56.8539H100.251L97.6313 53.4739L95.0113 56.8539H93.2513ZM110.033 49.1539V50.8739C109.38 50.0472 108.513 49.6339 107.433 49.6339C106.62 49.6339 105.927 49.9139 105.353 50.4739C104.78 51.0205 104.493 51.7739 104.493 52.7339C104.493 53.6939 104.78 54.4472 105.353 54.9939C105.927 55.5405 106.613 55.8139 107.413 55.8139C108.48 55.8139 109.373 55.3805 110.093 54.5139V56.2339C109.307 56.8072 108.427 57.0939 107.453 57.0939C106.16 57.0939 105.093 56.6872 104.253 55.8739C103.427 55.0472 103.013 54.0072 103.013 52.7539C103.013 51.4872 103.433 50.4405 104.273 49.6139C105.113 48.7739 106.173 48.3539 107.453 48.3539C108.413 48.3539 109.273 48.6205 110.033 49.1539ZM112.303 56.8539V42.2739H113.743V49.5139C114.33 48.7405 115.123 48.3539 116.123 48.3539C117.19 48.3539 117.983 48.7339 118.503 49.4939C118.823 49.9605 118.983 50.7005 118.983 51.7139V56.8539H117.543V51.7539C117.543 51.0739 117.416 50.5672 117.163 50.2339C116.856 49.8339 116.403 49.6339 115.803 49.6339C115.19 49.6339 114.703 49.8472 114.343 50.2739C113.943 50.7405 113.743 51.4872 113.743 52.5139V56.8539H112.303ZM128.057 49.7339V48.5539H129.497V56.8539H128.057V55.6939C127.337 56.6272 126.391 57.0939 125.217 57.0939C124.097 57.0939 123.144 56.7072 122.357 55.9339C121.571 55.1605 121.177 54.0805 121.177 52.6939C121.177 51.3339 121.564 50.2739 122.337 49.5139C123.124 48.7405 124.084 48.3539 125.217 48.3539C126.417 48.3539 127.364 48.8139 128.057 49.7339ZM125.377 49.6339C124.617 49.6339 123.971 49.9072 123.437 50.4539C122.917 50.9872 122.657 51.7339 122.657 52.6939C122.657 53.6139 122.897 54.3672 123.377 54.9539C123.871 55.5272 124.537 55.8139 125.377 55.8139C126.217 55.8139 126.884 55.5139 127.377 54.9139C127.884 54.3139 128.137 53.5805 128.137 52.7139C128.137 51.7272 127.857 50.9672 127.297 50.4339C126.737 49.9005 126.097 49.6339 125.377 49.6339ZM132.225 56.8539V48.5539H133.665V49.5139C134.251 48.7405 135.045 48.3539 136.045 48.3539C137.111 48.3539 137.905 48.7339 138.425 49.4939C138.745 49.9605 138.905 50.7005 138.905 51.7139V56.8539H137.465V51.7539C137.465 51.0739 137.338 50.5672 137.085 50.2339C136.778 49.8339 136.325 49.6339 135.725 49.6339C135.111 49.6339 134.625 49.8472 134.265 50.2739C133.865 50.7405 133.665 51.4872 133.665 52.5139V56.8539H132.225ZM147.979 49.7339V48.5539H149.419V56.6539C149.419 58.1072 149.153 59.1939 148.619 59.9139C147.859 60.9405 146.753 61.4539 145.299 61.4539C144.073 61.4539 143.086 61.0805 142.339 60.3339C141.619 59.6139 141.259 58.7205 141.259 57.6539H142.679C142.679 58.3205 142.893 58.8939 143.319 59.3739C143.799 59.9072 144.466 60.1739 145.319 60.1739C146.319 60.1739 147.053 59.7872 147.519 59.0139C147.826 58.5205 147.979 57.8139 147.979 56.8939V55.6939C147.259 56.6272 146.313 57.0939 145.139 57.0939C143.993 57.0939 143.046 56.7205 142.299 55.9739C141.499 55.1739 141.099 54.0805 141.099 52.6939C141.099 51.3472 141.499 50.2739 142.299 49.4739C143.073 48.7272 144.019 48.3539 145.139 48.3539C146.326 48.3539 147.273 48.8139 147.979 49.7339ZM145.299 49.6339C144.566 49.6339 143.939 49.8939 143.419 50.4139C142.859 50.9872 142.579 51.7472 142.579 52.6939C142.579 53.7472 142.893 54.5605 143.519 55.1339C144.013 55.5872 144.606 55.8139 145.299 55.8139C146.046 55.8139 146.653 55.5805 147.119 55.1139C147.746 54.5139 148.059 53.7139 148.059 52.7139C148.059 51.7139 147.766 50.9339 147.179 50.3739C146.686 49.8805 146.059 49.6339 145.299 49.6339ZM158.307 54.0739L159.507 54.7339C159.227 55.2672 158.887 55.7139 158.487 56.0739C157.727 56.7539 156.807 57.0939 155.727 57.0939C154.607 57.0939 153.64 56.7339 152.827 56.0139C152.027 55.2805 151.627 54.1939 151.627 52.7539C151.627 51.4872 151.987 50.4405 152.707 49.6139C153.44 48.7739 154.42 48.3539 155.647 48.3539C157.033 48.3539 158.08 48.8605 158.787 49.8739C159.347 50.6739 159.607 51.7139 159.567 52.9939H153.107C153.12 53.8339 153.38 54.5139 153.887 55.0339C154.393 55.5539 155.013 55.8139 155.747 55.8139C156.4 55.8139 156.967 55.6139 157.447 55.2139C157.82 54.8939 158.107 54.5139 158.307 54.0739ZM153.207 51.7939H158.087C157.967 51.1405 157.68 50.6205 157.227 50.2339C156.787 49.8339 156.26 49.6339 155.647 49.6339C155.047 49.6339 154.513 49.8405 154.047 50.2539C153.593 50.6539 153.313 51.1672 153.207 51.7939Z" fill="#582BDE"/>
<path d="M83.1201 91.662H89.9801V101H88.5521V93.006H84.5481V101H83.1201V91.662ZM92.5616 95.834C93.1683 95.246 93.9196 94.952 94.8156 94.952C95.7116 94.952 96.4583 95.246 97.0556 95.834C97.6623 96.4127 97.9656 97.1547 97.9656 98.06C97.9656 98.956 97.6623 99.7027 97.0556 100.3C96.4583 100.888 95.7116 101.182 94.8156 101.182C93.9196 101.182 93.1683 100.888 92.5616 100.3C91.9643 99.7027 91.6656 98.956 91.6656 98.06C91.6656 97.1547 91.9643 96.4127 92.5616 95.834ZM93.5416 99.446C93.8589 99.782 94.2836 99.95 94.8156 99.95C95.3476 99.95 95.7723 99.782 96.0896 99.446C96.4069 99.1007 96.5656 98.6433 96.5656 98.074C96.5656 97.4487 96.3929 96.9773 96.0476 96.66C95.7116 96.3427 95.3009 96.184 94.8156 96.184C94.3303 96.184 93.9149 96.3427 93.5696 96.66C93.2336 96.9773 93.0656 97.4487 93.0656 98.074C93.0656 98.6433 93.2243 99.1007 93.5416 99.446ZM99.9014 95.106H104.325V99.74H105.221V102.68H103.961V101H99.8454V102.68H98.5854V99.74C99.0614 99.712 99.4208 99.4553 99.6634 98.97C99.8221 98.6247 99.9014 98.1067 99.9014 97.416V95.106ZM102.953 99.74V96.366H101.217V97.934C101.217 98.7833 100.989 99.3853 100.531 99.74H102.953ZM107.578 100.314V104.206H106.206V95.106H107.578V95.75C108.026 95.218 108.609 94.952 109.328 94.952C110.131 94.952 110.807 95.2367 111.358 95.806C111.918 96.366 112.198 97.1033 112.198 98.018C112.198 98.9607 111.909 99.726 111.33 100.314C110.751 100.893 110.089 101.182 109.342 101.182C108.642 101.182 108.054 100.893 107.578 100.314ZM109.16 96.184C108.693 96.184 108.297 96.352 107.97 96.688C107.653 97.0147 107.494 97.4813 107.494 98.088C107.494 98.676 107.653 99.1333 107.97 99.46C108.297 99.7867 108.693 99.95 109.16 99.95C109.645 99.95 110.037 99.768 110.336 99.404C110.644 99.04 110.798 98.5967 110.798 98.074C110.798 97.542 110.644 97.094 110.336 96.73C110.037 96.366 109.645 96.184 109.16 96.184ZM114.218 95.834C114.825 95.246 115.576 94.952 116.472 94.952C117.368 94.952 118.115 95.246 118.712 95.834C119.319 96.4127 119.622 97.1547 119.622 98.06C119.622 98.956 119.319 99.7027 118.712 100.3C118.115 100.888 117.368 101.182 116.472 101.182C115.576 101.182 114.825 100.888 114.218 100.3C113.621 99.7027 113.322 98.956 113.322 98.06C113.322 97.1547 113.621 96.4127 114.218 95.834ZM115.198 99.446C115.515 99.782 115.94 99.95 116.472 99.95C117.004 99.95 117.429 99.782 117.746 99.446C118.063 99.1007 118.222 98.6433 118.222 98.074C118.222 97.4487 118.049 96.9773 117.704 96.66C117.368 96.3427 116.957 96.184 116.472 96.184C115.987 96.184 115.571 96.3427 115.226 96.66C114.89 96.9773 114.722 97.4487 114.722 98.074C114.722 98.6433 114.881 99.1007 115.198 99.446ZM125.506 91.06H126.906C126.803 91.5453 126.588 91.9653 126.262 92.32C125.935 92.6747 125.534 92.9173 125.058 93.048L124.134 93.3C123.891 93.3653 123.704 93.4213 123.574 93.468C123.443 93.5147 123.28 93.6033 123.084 93.734C122.897 93.8553 122.738 94.0047 122.608 94.182C122.3 94.5927 122.136 95.1247 122.118 95.778H122.132C122.542 95.2273 123.21 94.952 124.134 94.952C124.964 94.952 125.65 95.232 126.192 95.792C126.761 96.38 127.046 97.1267 127.046 98.032C127.046 98.9467 126.742 99.7027 126.136 100.3C125.538 100.888 124.792 101.182 123.896 101.182C123 101.182 122.281 100.921 121.74 100.398C121.441 100.118 121.212 99.7727 121.054 99.362C120.895 98.9513 120.802 98.6153 120.774 98.354C120.755 98.0833 120.746 97.7567 120.746 97.374C120.746 95.5447 121.044 94.196 121.642 93.328C122.09 92.6653 122.678 92.2453 123.406 92.068L124.386 91.83C125.03 91.6713 125.403 91.4147 125.506 91.06ZM122.622 99.446C122.939 99.782 123.364 99.95 123.896 99.95C124.428 99.95 124.852 99.782 125.17 99.446C125.487 99.1007 125.646 98.6433 125.646 98.074C125.646 97.4487 125.473 96.9773 125.128 96.66C124.792 96.3427 124.381 96.184 123.896 96.184C123.41 96.184 122.995 96.3427 122.65 96.66C122.314 96.9773 122.146 97.4487 122.146 98.074C122.146 98.6433 122.304 99.1007 122.622 99.446ZM128.477 101V95.106H129.849V97.29H132.285V95.106H133.657V101H132.285V98.55H129.849V101H128.477ZM139.525 99.012L140.673 99.656C140.412 100.123 140.081 100.482 139.679 100.734C139.222 101.033 138.643 101.182 137.943 101.182C137.122 101.182 136.459 100.93 135.955 100.426C135.377 99.8473 135.087 99.096 135.087 98.172C135.087 97.2013 135.4 96.394 136.025 95.75C136.557 95.218 137.215 94.952 137.999 94.952C138.765 94.952 139.395 95.2087 139.889 95.722C140.44 96.2913 140.715 97.122 140.715 98.214V98.382H136.487C136.525 98.8767 136.693 99.2733 136.991 99.572C137.243 99.824 137.593 99.95 138.041 99.95C138.405 99.95 138.718 99.852 138.979 99.656C139.194 99.488 139.376 99.2733 139.525 99.012ZM136.585 97.262H139.315C139.259 96.9353 139.119 96.6693 138.895 96.464C138.653 96.24 138.345 96.128 137.971 96.128C137.579 96.128 137.257 96.254 137.005 96.506C136.8 96.6927 136.66 96.9447 136.585 97.262ZM146.279 99.012L147.427 99.656C147.166 100.123 146.835 100.482 146.433 100.734C145.976 101.033 145.397 101.182 144.697 101.182C143.876 101.182 143.213 100.93 142.709 100.426C142.131 99.8473 141.841 99.096 141.841 98.172C141.841 97.2013 142.154 96.394 142.779 95.75C143.311 95.218 143.969 94.952 144.753 94.952C145.519 94.952 146.149 95.2087 146.643 95.722C147.194 96.2913 147.469 97.122 147.469 98.214V98.382H143.241C143.279 98.8767 143.447 99.2733 143.745 99.572C143.997 99.824 144.347 99.95 144.795 99.95C145.159 99.95 145.472 99.852 145.733 99.656C145.948 99.488 146.13 99.2733 146.279 99.012ZM143.339 97.262H146.069C146.013 96.9353 145.873 96.6693 145.649 96.464C145.407 96.24 145.099 96.128 144.725 96.128C144.333 96.128 144.011 96.254 143.759 96.506C143.554 96.6927 143.414 96.9447 143.339 97.262Z" fill="#A0A4B8"/>
<path d="M181.103 94.5L184 97.5L181.103 100.5L180.571 99.9482L182.558 97.8902L162 97.8902L162 97.1098L182.558 97.1098L180.571 95.0518L181.103 94.5Z" fill="#A0A4B8"/>
<defs>
<linearGradient id="paint0_linear" x1="4.30994" y1="40.9274" x2="181.127" y2="40.9273" gradientUnits="userSpaceOnUse">
<stop stop-color="#E8E8FF" stop-opacity="0"/>
<stop offset="1" stop-color="#CDCDF8" stop-opacity="0.87"/>
</linearGradient>
<linearGradient id="paint1_linear" x1="125.794" y1="45.3151" x2="110.224" y2="45.3151" gradientUnits="userSpaceOnUse">
<stop stop-color="#00D2D5"/>
<stop offset="1" stop-color="#00D2D5" stop-opacity="0"/>
</linearGradient>
</defs>
</svg>
