<svg width="190" height="105" viewBox="0 0 190 105" fill="none" xmlns="http://www.w3.org/2000/svg">
<rect x="4.38635" y="5.2439" width="181.661" height="71.3669" rx="4" fill="url(#paint0_linear)" fill-opacity="0.22"/>
<path d="M173.072 2.6488H187.345L188.967 4.59517V8.81231" stroke="#DCDDE9"/>
<path d="M17.3622 80.1792H3.0888L1.46683 78.2328V74.0157" stroke="#DCDDE9"/>
<line x1="65.3116" y1="10.2987" x2="65.3116" y2="69.3811" stroke="#DCDDE9"/>
<path d="M35.5283 39.6299H51.748L35.5283 55.8496V39.6299Z" fill="#486FF0"/>
<path d="M35.5282 39.6299H19.3085L35.5282 55.8496V39.6299Z" fill="#6D8FF2"/>
<path d="M35.5283 39.6299C35.5283 30.672 42.7901 23.4102 51.748 23.4102L51.748 39.6299L35.5283 39.6299Z" fill="#47F0E9"/>
<path d="M35.5281 39.6299C35.5281 30.672 28.2663 23.4102 19.3084 23.4102L19.3084 39.6299L35.5281 39.6299Z" fill="#00DFE2"/>
<path d="M98.048 27.31L93.716 37H91.436L83.076 20.546H88.244L92.576 30.046L96.984 20.546H99.112L103.52 30.046L107.852 20.546H113.02L104.66 37H102.38L98.048 27.31Z" fill="#2C315B"/>
<path d="M115.817 28.494L130.046 28.494L130.046 35.1206H128.176C127.987 35.1206 127.813 35.2226 127.722 35.3866C127.631 35.5505 127.639 35.7502 127.741 35.9072L130.128 39.5664C130.223 39.7123 130.387 39.8004 130.563 39.8004C130.738 39.8004 130.902 39.7123 130.997 39.5664L133.384 35.9073C133.486 35.7503 133.494 35.5506 133.403 35.3866C133.313 35.2227 133.139 35.1207 132.949 35.1207H131.079L131.079 27.9837C131.079 27.7019 130.848 27.4734 130.563 27.4734L115.817 27.4734C115.532 27.4734 115.3 27.7019 115.3 27.9837C115.3 28.2655 115.531 28.494 115.817 28.494ZM130.563 38.3477L129.123 36.1413H132.002L130.563 38.3477Z" fill="url(#paint1_linear)"/>
<path d="M91.0588 54.0739L92.2588 54.7339C91.9788 55.2672 91.6388 55.7139 91.2388 56.0739C90.4788 56.7539 89.5588 57.0939 88.4788 57.0939C87.3588 57.0939 86.3921 56.7339 85.5788 56.0139C84.7788 55.2805 84.3788 54.1939 84.3788 52.7539C84.3788 51.4872 84.7388 50.4405 85.4588 49.6139C86.1921 48.7739 87.1721 48.3539 88.3988 48.3539C89.7854 48.3539 90.8321 48.8605 91.5388 49.8739C92.0988 50.6739 92.3588 51.7139 92.3188 52.9939H85.8588C85.8721 53.8339 86.1321 54.5139 86.6388 55.0339C87.1454 55.5539 87.7654 55.8139 88.4988 55.8139C89.1521 55.8139 89.7188 55.6139 90.1988 55.2139C90.5721 54.8939 90.8588 54.5139 91.0588 54.0739ZM85.9588 51.7939H90.8388C90.7188 51.1405 90.4321 50.6205 89.9788 50.2339C89.5388 49.8339 89.0121 49.6339 88.3988 49.6339C87.7988 49.6339 87.2654 49.8405 86.7988 50.2539C86.3454 50.6539 86.0654 51.1672 85.9588 51.7939ZM95.2028 53.3339V51.8539H99.6028V53.3339H95.2028ZM100.769 48.5539H102.369L104.829 54.1939L107.429 47.9139L110.009 54.1939L112.489 48.5539H114.089L109.969 57.4339L107.409 51.2339L104.849 57.4339L100.769 48.5539ZM121.962 49.7339V48.5539H123.402V56.8539H121.962V55.6939C121.242 56.6272 120.295 57.0939 119.122 57.0939C118.002 57.0939 117.049 56.7072 116.262 55.9339C115.475 55.1605 115.082 54.0805 115.082 52.6939C115.082 51.3339 115.469 50.2739 116.242 49.5139C117.029 48.7405 117.989 48.3539 119.122 48.3539C120.322 48.3539 121.269 48.8139 121.962 49.7339ZM119.282 49.6339C118.522 49.6339 117.875 49.9072 117.342 50.4539C116.822 50.9872 116.562 51.7339 116.562 52.6939C116.562 53.6139 116.802 54.3672 117.282 54.9539C117.775 55.5272 118.442 55.8139 119.282 55.8139C120.122 55.8139 120.789 55.5139 121.282 54.9139C121.789 54.3139 122.042 53.5805 122.042 52.7139C122.042 51.7272 121.762 50.9672 121.202 50.4339C120.642 49.9005 120.002 49.6339 119.282 49.6339ZM126.129 42.2739H127.569V56.8539H126.129V42.2739ZM130.289 42.2739H131.729V56.8539H130.289V42.2739ZM140.61 54.0739L141.81 54.7339C141.53 55.2672 141.19 55.7139 140.79 56.0739C140.03 56.7539 139.11 57.0939 138.03 57.0939C136.91 57.0939 135.943 56.7339 135.13 56.0139C134.33 55.2805 133.93 54.1939 133.93 52.7539C133.93 51.4872 134.29 50.4405 135.01 49.6139C135.743 48.7739 136.723 48.3539 137.95 48.3539C139.336 48.3539 140.383 48.8605 141.09 49.8739C141.65 50.6739 141.91 51.7139 141.87 52.9939H135.41C135.423 53.8339 135.683 54.5139 136.19 55.0339C136.696 55.5539 137.316 55.8139 138.05 55.8139C138.703 55.8139 139.27 55.6139 139.75 55.2139C140.123 54.8939 140.41 54.5139 140.61 54.0739ZM135.51 51.7939H140.39C140.27 51.1405 139.983 50.6205 139.53 50.2339C139.09 49.8339 138.563 49.6339 137.95 49.6339C137.35 49.6339 136.816 49.8405 136.35 50.2539C135.896 50.6539 135.616 51.1672 135.51 51.7939ZM146.998 49.8739H145.558V56.8539H144.118V49.8739H143.238V48.5539H144.118V45.5539H145.558V48.5539H146.998V49.8739Z" fill="#582BDE"/>
<path d="M83.12 91.662H89.98V101H88.552V93.006H84.548V101H83.12V91.662ZM92.5615 95.834C93.1681 95.246 93.9195 94.952 94.8155 94.952C95.7115 94.952 96.4581 95.246 97.0555 95.834C97.6621 96.4127 97.9655 97.1547 97.9655 98.06C97.9655 98.956 97.6621 99.7027 97.0555 100.3C96.4581 100.888 95.7115 101.182 94.8155 101.182C93.9195 101.182 93.1681 100.888 92.5615 100.3C91.9641 99.7027 91.6655 98.956 91.6655 98.06C91.6655 97.1547 91.9641 96.4127 92.5615 95.834ZM93.5415 99.446C93.8588 99.782 94.2835 99.95 94.8155 99.95C95.3475 99.95 95.7721 99.782 96.0895 99.446C96.4068 99.1007 96.5655 98.6433 96.5655 98.074C96.5655 97.4487 96.3928 96.9773 96.0475 96.66C95.7115 96.3427 95.3008 96.184 94.8155 96.184C94.3301 96.184 93.9148 96.3427 93.5695 96.66C93.2335 96.9773 93.0655 97.4487 93.0655 98.074C93.0655 98.6433 93.2241 99.1007 93.5415 99.446ZM99.9013 95.106H104.325V99.74H105.221V102.68H103.961V101H99.8453V102.68H98.5853V99.74C99.0613 99.712 99.4206 99.4553 99.6633 98.97C99.822 98.6247 99.9013 98.1067 99.9013 97.416V95.106ZM102.953 99.74V96.366H101.217V97.934C101.217 98.7833 100.989 99.3853 100.531 99.74H102.953ZM107.578 100.314V104.206H106.206V95.106H107.578V95.75C108.026 95.218 108.609 94.952 109.328 94.952C110.131 94.952 110.807 95.2367 111.358 95.806C111.918 96.366 112.198 97.1033 112.198 98.018C112.198 98.9607 111.909 99.726 111.33 100.314C110.751 100.893 110.089 101.182 109.342 101.182C108.642 101.182 108.054 100.893 107.578 100.314ZM109.16 96.184C108.693 96.184 108.297 96.352 107.97 96.688C107.653 97.0147 107.494 97.4813 107.494 98.088C107.494 98.676 107.653 99.1333 107.97 99.46C108.297 99.7867 108.693 99.95 109.16 99.95C109.645 99.95 110.037 99.768 110.336 99.404C110.644 99.04 110.798 98.5967 110.798 98.074C110.798 97.542 110.644 97.094 110.336 96.73C110.037 96.366 109.645 96.184 109.16 96.184ZM114.218 95.834C114.824 95.246 115.576 94.952 116.472 94.952C117.368 94.952 118.114 95.246 118.712 95.834C119.318 96.4127 119.622 97.1547 119.622 98.06C119.622 98.956 119.318 99.7027 118.712 100.3C118.114 100.888 117.368 101.182 116.472 101.182C115.576 101.182 114.824 100.888 114.218 100.3C113.62 99.7027 113.322 98.956 113.322 98.06C113.322 97.1547 113.62 96.4127 114.218 95.834ZM115.198 99.446C115.515 99.782 115.94 99.95 116.472 99.95C117.004 99.95 117.428 99.782 117.746 99.446C118.063 99.1007 118.222 98.6433 118.222 98.074C118.222 97.4487 118.049 96.9773 117.704 96.66C117.368 96.3427 116.957 96.184 116.472 96.184C115.986 96.184 115.571 96.3427 115.226 96.66C114.89 96.9773 114.722 97.4487 114.722 98.074C114.722 98.6433 114.88 99.1007 115.198 99.446ZM125.506 91.06H126.906C126.803 91.5453 126.588 91.9653 126.262 92.32C125.935 92.6747 125.534 92.9173 125.058 93.048L124.134 93.3C123.891 93.3653 123.704 93.4213 123.574 93.468C123.443 93.5147 123.28 93.6033 123.084 93.734C122.897 93.8553 122.738 94.0047 122.608 94.182C122.3 94.5927 122.136 95.1247 122.118 95.778H122.132C122.542 95.2273 123.21 94.952 124.134 94.952C124.964 94.952 125.65 95.232 126.192 95.792C126.761 96.38 127.046 97.1267 127.046 98.032C127.046 98.9467 126.742 99.7027 126.136 100.3C125.538 100.888 124.792 101.182 123.896 101.182C123 101.182 122.281 100.921 121.74 100.398C121.441 100.118 121.212 99.7727 121.054 99.362C120.895 98.9513 120.802 98.6153 120.774 98.354C120.755 98.0833 120.746 97.7567 120.746 97.374C120.746 95.5447 121.044 94.196 121.642 93.328C122.09 92.6653 122.678 92.2453 123.406 92.068L124.386 91.83C125.03 91.6713 125.403 91.4147 125.506 91.06ZM122.622 99.446C122.939 99.782 123.364 99.95 123.896 99.95C124.428 99.95 124.852 99.782 125.17 99.446C125.487 99.1007 125.646 98.6433 125.646 98.074C125.646 97.4487 125.473 96.9773 125.128 96.66C124.792 96.3427 124.381 96.184 123.896 96.184C123.41 96.184 122.995 96.3427 122.65 96.66C122.314 96.9773 122.146 97.4487 122.146 98.074C122.146 98.6433 122.304 99.1007 122.622 99.446ZM128.477 101V95.106H129.849V97.29H132.285V95.106H133.657V101H132.285V98.55H129.849V101H128.477ZM139.525 99.012L140.673 99.656C140.412 100.123 140.081 100.482 139.679 100.734C139.222 101.033 138.643 101.182 137.943 101.182C137.122 101.182 136.459 100.93 135.955 100.426C135.377 99.8473 135.087 99.096 135.087 98.172C135.087 97.2013 135.4 96.394 136.025 95.75C136.557 95.218 137.215 94.952 137.999 94.952C138.765 94.952 139.395 95.2087 139.889 95.722C140.44 96.2913 140.715 97.122 140.715 98.214V98.382H136.487C136.525 98.8767 136.693 99.2733 136.991 99.572C137.243 99.824 137.593 99.95 138.041 99.95C138.405 99.95 138.718 99.852 138.979 99.656C139.194 99.488 139.376 99.2733 139.525 99.012ZM136.585 97.262H139.315C139.259 96.9353 139.119 96.6693 138.895 96.464C138.653 96.24 138.345 96.128 137.971 96.128C137.579 96.128 137.257 96.254 137.005 96.506C136.8 96.6927 136.66 96.9447 136.585 97.262ZM146.279 99.012L147.427 99.656C147.166 100.123 146.835 100.482 146.433 100.734C145.976 101.033 145.397 101.182 144.697 101.182C143.876 101.182 143.213 100.93 142.709 100.426C142.131 99.8473 141.841 99.096 141.841 98.172C141.841 97.2013 142.154 96.394 142.779 95.75C143.311 95.218 143.969 94.952 144.753 94.952C145.519 94.952 146.149 95.2087 146.643 95.722C147.194 96.2913 147.469 97.122 147.469 98.214V98.382H143.241C143.279 98.8767 143.447 99.2733 143.745 99.572C143.997 99.824 144.347 99.95 144.795 99.95C145.159 99.95 145.472 99.852 145.733 99.656C145.948 99.488 146.13 99.2733 146.279 99.012ZM143.339 97.262H146.069C146.013 96.9353 145.873 96.6693 145.649 96.464C145.407 96.24 145.099 96.128 144.725 96.128C144.333 96.128 144.011 96.254 143.759 96.506C143.554 96.6927 143.414 96.9447 143.339 97.262Z" fill="#A0A4B8"/>
<path d="M181.103 94.5L184 97.5L181.103 100.5L180.571 99.9482L182.558 97.8902L162 97.8902L162 97.1098L182.558 97.1098L180.571 95.0518L181.103 94.5Z" fill="#A0A4B8"/>
<defs>
<linearGradient id="paint0_linear" x1="4.38635" y1="40.9274" x2="181.203" y2="40.9273" gradientUnits="userSpaceOnUse">
<stop stop-color="#E8E8FF" stop-opacity="0"/>
<stop offset="1" stop-color="#CDCDF8" stop-opacity="0.87"/>
</linearGradient>
<linearGradient id="paint1_linear" x1="130.871" y1="45.3151" x2="115.3" y2="45.3151" gradientUnits="userSpaceOnUse">
<stop stop-color="#00D2D5"/>
<stop offset="1" stop-color="#00D2D5" stop-opacity="0"/>
</linearGradient>
</defs>
</svg>
