<svg width="189" height="105" viewBox="0 0 189 105" fill="none" xmlns="http://www.w3.org/2000/svg">
<rect x="3.46289" y="5.2439" width="181.661" height="71.3669" rx="4" fill="url(#paint0_linear)" fill-opacity="0.22"/>
<path d="M172.148 2.6488H186.422L188.044 4.59517V8.81231" stroke="#DCDDE9"/>
<path d="M16.4387 80.1792H2.16528L0.543306 78.2328V74.0157" stroke="#DCDDE9"/>
<line x1="64.388" y1="10.2987" x2="64.388" y2="69.3811" stroke="#DCDDE9"/>
<path d="M18.385 39.8496C18.385 30.8917 25.6468 23.6299 34.6047 23.6299L34.6047 39.8496L18.385 39.8496Z" fill="#486FF0"/>
<path d="M50.8245 39.8496C50.8245 30.8917 43.5626 23.6299 34.6047 23.6299L34.6047 39.8496L50.8245 39.8496Z" fill="#6D8FF2"/>
<path d="M34.6047 55.8496C34.6047 46.8917 27.3429 39.6299 18.385 39.6299L18.385 55.8496L34.6047 55.8496Z" fill="#47F0E9"/>
<path d="M34.6047 55.8496C34.6047 46.8917 41.8666 39.6299 50.8245 39.6299L50.8245 55.8496L34.6047 55.8496Z" fill="#00DFE2"/>
<path d="M84.204 37V20.546H88.84V22.408C90.1067 20.812 91.7407 20.014 93.742 20.014C96.1993 20.014 97.9347 21.0147 98.948 23.016C100.189 21.0147 101.95 20.014 104.23 20.014C106.155 20.014 107.637 20.6853 108.676 22.028C109.157 22.6613 109.461 23.32 109.588 24.004C109.74 24.688 109.816 25.5747 109.816 26.664V37H105.18V28.032C105.18 26.4867 104.927 25.41 104.42 24.802C103.964 24.2447 103.331 23.966 102.52 23.966C101.355 23.966 100.506 24.4473 99.974 25.41C99.5433 26.1193 99.328 27.1833 99.328 28.602V37H94.692V28.032C94.692 26.4867 94.4387 25.41 93.932 24.802C93.476 24.2447 92.8427 23.966 92.032 23.966C90.8667 23.966 90.018 24.4473 89.486 25.41C89.0553 26.1193 88.84 27.1833 88.84 28.602V37H84.204ZM126.119 31.718L130.375 32.402C130.198 32.858 129.957 33.314 129.653 33.77C129.375 34.2007 128.931 34.7453 128.323 35.404C127.715 36.0373 126.892 36.5567 125.853 36.962C124.815 37.342 123.624 37.532 122.281 37.532C119.697 37.532 117.595 36.7593 115.973 35.214C114.251 33.5927 113.389 31.452 113.389 28.792C113.389 26.1573 114.225 24.004 115.897 22.332C117.468 20.7867 119.533 20.014 122.091 20.014C124.878 20.014 127.019 20.9133 128.513 22.712C129.831 24.2827 130.489 26.436 130.489 29.172V29.552H118.177C118.177 30.6667 118.443 31.5913 118.975 32.326C119.735 33.3647 120.837 33.884 122.281 33.884C124.004 33.884 125.283 33.162 126.119 31.718ZM118.329 26.588H126.119C125.942 25.524 125.473 24.7133 124.713 24.156C123.979 23.5733 123.143 23.282 122.205 23.282C121.293 23.282 120.457 23.5733 119.697 24.156C118.963 24.7387 118.507 25.5493 118.329 26.588Z" fill="#2C315B"/>
<path d="M136.893 28.494L151.122 28.494L151.122 35.1206H149.252C149.063 35.1206 148.889 35.2226 148.798 35.3866C148.708 35.5505 148.715 35.7502 148.818 35.9072L151.205 39.5664C151.3 39.7123 151.463 39.8004 151.639 39.8004C151.815 39.8004 151.978 39.7123 152.073 39.5664L154.46 35.9073C154.563 35.7503 154.57 35.5506 154.48 35.3866C154.389 35.2227 154.215 35.1207 154.026 35.1207H152.156L152.156 27.9837C152.156 27.7019 151.924 27.4734 151.639 27.4734L136.893 27.4734C136.608 27.4734 136.377 27.7019 136.377 27.9837C136.377 28.2655 136.608 28.494 136.893 28.494ZM151.639 38.3477L150.2 36.1413H153.078L151.639 38.3477Z" fill="url(#paint1_linear)"/>
<path d="M83.9752 56.8539V48.5539H85.4152V49.4339C85.9085 48.7139 86.5952 48.3539 87.4752 48.3539C88.4752 48.3539 89.2285 48.8005 89.7352 49.6939C90.3085 48.8005 91.1418 48.3539 92.2352 48.3539C94.0352 48.3539 94.9352 49.4339 94.9352 51.5939V56.8539H93.4952V51.8139C93.4952 51.4139 93.4685 51.0805 93.4152 50.8139C93.3752 50.5339 93.2352 50.2672 92.9952 50.0139C92.7685 49.7605 92.4418 49.6339 92.0152 49.6339C90.7885 49.6339 90.1752 50.5005 90.1752 52.2339V56.8539H88.7352V51.9339C88.7352 50.4005 88.2352 49.6339 87.2352 49.6339C86.0218 49.6339 85.4152 50.5339 85.4152 52.3339V56.8539H83.9752ZM103.827 54.0739L105.027 54.7339C104.747 55.2672 104.407 55.7139 104.007 56.0739C103.247 56.7539 102.327 57.0939 101.247 57.0939C100.127 57.0939 99.1599 56.7339 98.3466 56.0139C97.5466 55.2805 97.1466 54.1939 97.1466 52.7539C97.1466 51.4872 97.5066 50.4405 98.2266 49.6139C98.9599 48.7739 99.9399 48.3539 101.167 48.3539C102.553 48.3539 103.6 48.8605 104.307 49.8739C104.867 50.6739 105.127 51.7139 105.087 52.9939H98.6266C98.6399 53.8339 98.8999 54.5139 99.4066 55.0339C99.9132 55.5539 100.533 55.8139 101.267 55.8139C101.92 55.8139 102.487 55.6139 102.967 55.2139C103.34 54.8939 103.627 54.5139 103.827 54.0739ZM98.7266 51.7939H103.607C103.487 51.1405 103.2 50.6205 102.747 50.2339C102.307 49.8339 101.78 49.6339 101.167 49.6339C100.567 49.6339 100.033 49.8405 99.5666 50.2539C99.1132 50.6539 98.8332 51.1672 98.7266 51.7939ZM111.895 49.8539L110.715 50.4739C110.489 49.9139 110.102 49.6339 109.555 49.6339C109.275 49.6339 109.035 49.7139 108.835 49.8739C108.649 50.0339 108.555 50.2672 108.555 50.5739C108.555 50.8539 108.642 51.0672 108.815 51.2139C109.002 51.3472 109.362 51.5272 109.895 51.7539C110.949 52.1939 111.642 52.6205 111.975 53.0339C112.269 53.3939 112.415 53.8405 112.415 54.3739C112.415 55.2139 112.142 55.8805 111.595 56.3739C111.062 56.8539 110.382 57.0939 109.555 57.0939C109.395 57.0939 109.222 57.0739 109.035 57.0339C108.849 57.0072 108.589 56.9405 108.255 56.8339C107.935 56.7139 107.629 56.4939 107.335 56.1739C107.042 55.8539 106.815 55.4539 106.655 54.9739L107.895 54.4539C108.229 55.3605 108.789 55.8139 109.575 55.8139C110.015 55.8139 110.349 55.6805 110.575 55.4139C110.815 55.1472 110.935 54.8405 110.935 54.4939C110.935 54.3072 110.902 54.1472 110.835 54.0139C110.782 53.8672 110.682 53.7405 110.535 53.6339C110.402 53.5272 110.269 53.4405 110.135 53.3739C110.015 53.3072 109.835 53.2205 109.595 53.1139C108.529 52.6472 107.855 52.2405 107.575 51.8939C107.322 51.5739 107.195 51.1672 107.195 50.6739C107.195 49.9539 107.415 49.3872 107.855 48.9739C108.309 48.5605 108.895 48.3539 109.615 48.3539C110.669 48.3539 111.429 48.8539 111.895 49.8539ZM118.927 49.8539L117.747 50.4739C117.52 49.9139 117.133 49.6339 116.587 49.6339C116.307 49.6339 116.067 49.7139 115.867 49.8739C115.68 50.0339 115.587 50.2672 115.587 50.5739C115.587 50.8539 115.673 51.0672 115.847 51.2139C116.033 51.3472 116.393 51.5272 116.927 51.7539C117.98 52.1939 118.673 52.6205 119.007 53.0339C119.3 53.3939 119.447 53.8405 119.447 54.3739C119.447 55.2139 119.173 55.8805 118.627 56.3739C118.093 56.8539 117.413 57.0939 116.587 57.0939C116.427 57.0939 116.253 57.0739 116.067 57.0339C115.88 57.0072 115.62 56.9405 115.287 56.8339C114.967 56.7139 114.66 56.4939 114.367 56.1739C114.073 55.8539 113.847 55.4539 113.687 54.9739L114.927 54.4539C115.26 55.3605 115.82 55.8139 116.607 55.8139C117.047 55.8139 117.38 55.6805 117.607 55.4139C117.847 55.1472 117.967 54.8405 117.967 54.4939C117.967 54.3072 117.933 54.1472 117.867 54.0139C117.813 53.8672 117.713 53.7405 117.567 53.6339C117.433 53.5272 117.3 53.4405 117.167 53.3739C117.047 53.3072 116.867 53.2205 116.627 53.1139C115.56 52.6472 114.887 52.2405 114.607 51.8939C114.353 51.5739 114.227 51.1672 114.227 50.6739C114.227 49.9539 114.447 49.3872 114.887 48.9739C115.34 48.5605 115.927 48.3539 116.647 48.3539C117.7 48.3539 118.46 48.8539 118.927 49.8539ZM127.518 54.0739L128.718 54.7339C128.438 55.2672 128.098 55.7139 127.698 56.0739C126.938 56.7539 126.018 57.0939 124.938 57.0939C123.818 57.0939 122.851 56.7339 122.038 56.0139C121.238 55.2805 120.838 54.1939 120.838 52.7539C120.838 51.4872 121.198 50.4405 121.918 49.6139C122.651 48.7739 123.631 48.3539 124.858 48.3539C126.245 48.3539 127.291 48.8605 127.998 49.8739C128.558 50.6739 128.818 51.7139 128.778 52.9939H122.318C122.331 53.8339 122.591 54.5139 123.098 55.0339C123.605 55.5539 124.225 55.8139 124.958 55.8139C125.611 55.8139 126.178 55.6139 126.658 55.2139C127.031 54.8939 127.318 54.5139 127.518 54.0739ZM122.418 51.7939H127.298C127.178 51.1405 126.891 50.6205 126.438 50.2339C125.998 49.8339 125.471 49.6339 124.858 49.6339C124.258 49.6339 123.725 49.8405 123.258 50.2539C122.805 50.6539 122.525 51.1672 122.418 51.7939ZM130.987 56.8539V48.5539H132.427V49.5139C133.014 48.7405 133.807 48.3539 134.807 48.3539C135.874 48.3539 136.667 48.7339 137.187 49.4939C137.507 49.9605 137.667 50.7005 137.667 51.7139V56.8539H136.227V51.7539C136.227 51.0739 136.1 50.5672 135.847 50.2339C135.54 49.8339 135.087 49.6339 134.487 49.6339C133.874 49.6339 133.387 49.8472 133.027 50.2739C132.627 50.7405 132.427 51.4872 132.427 52.5139V56.8539H130.987ZM146.741 49.7339V48.5539H148.181V56.6539C148.181 58.1072 147.915 59.1939 147.381 59.9139C146.621 60.9405 145.515 61.4539 144.061 61.4539C142.835 61.4539 141.848 61.0805 141.101 60.3339C140.381 59.6139 140.021 58.7205 140.021 57.6539H141.441C141.441 58.3205 141.655 58.8939 142.081 59.3739C142.561 59.9072 143.228 60.1739 144.081 60.1739C145.081 60.1739 145.815 59.7872 146.281 59.0139C146.588 58.5205 146.741 57.8139 146.741 56.8939V55.6939C146.021 56.6272 145.075 57.0939 143.901 57.0939C142.755 57.0939 141.808 56.7205 141.061 55.9739C140.261 55.1739 139.861 54.0805 139.861 52.6939C139.861 51.3472 140.261 50.2739 141.061 49.4739C141.835 48.7272 142.781 48.3539 143.901 48.3539C145.088 48.3539 146.035 48.8139 146.741 49.7339ZM144.061 49.6339C143.328 49.6339 142.701 49.8939 142.181 50.4139C141.621 50.9872 141.341 51.7472 141.341 52.6939C141.341 53.7472 141.655 54.5605 142.281 55.1339C142.775 55.5872 143.368 55.8139 144.061 55.8139C144.808 55.8139 145.415 55.5805 145.881 55.1139C146.508 54.5139 146.821 53.7139 146.821 52.7139C146.821 51.7139 146.528 50.9339 145.941 50.3739C145.448 49.8805 144.821 49.6339 144.061 49.6339ZM157.069 54.0739L158.269 54.7339C157.989 55.2672 157.649 55.7139 157.249 56.0739C156.489 56.7539 155.569 57.0939 154.489 57.0939C153.369 57.0939 152.402 56.7339 151.589 56.0139C150.789 55.2805 150.389 54.1939 150.389 52.7539C150.389 51.4872 150.749 50.4405 151.469 49.6139C152.202 48.7739 153.182 48.3539 154.409 48.3539C155.795 48.3539 156.842 48.8605 157.549 49.8739C158.109 50.6739 158.369 51.7139 158.329 52.9939H151.869C151.882 53.8339 152.142 54.5139 152.649 55.0339C153.155 55.5539 153.775 55.8139 154.509 55.8139C155.162 55.8139 155.729 55.6139 156.209 55.2139C156.582 54.8939 156.869 54.5139 157.069 54.0739ZM151.969 51.7939H156.849C156.729 51.1405 156.442 50.6205 155.989 50.2339C155.549 49.8339 155.022 49.6339 154.409 49.6339C153.809 49.6339 153.275 49.8405 152.809 50.2539C152.355 50.6539 152.075 51.1672 151.969 51.7939ZM160.538 56.8539V48.5539H161.978V49.4539C162.444 48.7205 163.071 48.3539 163.858 48.3539C164.258 48.3539 164.684 48.4672 165.138 48.6939L164.458 49.9939C164.191 49.8072 163.911 49.7139 163.618 49.7139C163.111 49.7139 162.724 49.8872 162.458 50.2339C162.138 50.6605 161.978 51.4072 161.978 52.4739V56.8539H160.538Z" fill="#582BDE"/>
<path d="M82.12 91.662H88.98V101H87.552V93.006H83.548V101H82.12V91.662ZM91.5615 95.834C92.1681 95.246 92.9195 94.952 93.8155 94.952C94.7115 94.952 95.4581 95.246 96.0555 95.834C96.6621 96.4127 96.9655 97.1547 96.9655 98.06C96.9655 98.956 96.6621 99.7027 96.0555 100.3C95.4581 100.888 94.7115 101.182 93.8155 101.182C92.9195 101.182 92.1681 100.888 91.5615 100.3C90.9641 99.7027 90.6655 98.956 90.6655 98.06C90.6655 97.1547 90.9641 96.4127 91.5615 95.834ZM92.5415 99.446C92.8588 99.782 93.2835 99.95 93.8155 99.95C94.3475 99.95 94.7721 99.782 95.0895 99.446C95.4068 99.1007 95.5655 98.6433 95.5655 98.074C95.5655 97.4487 95.3928 96.9773 95.0475 96.66C94.7115 96.3427 94.3008 96.184 93.8155 96.184C93.3301 96.184 92.9148 96.3427 92.5695 96.66C92.2335 96.9773 92.0655 97.4487 92.0655 98.074C92.0655 98.6433 92.2241 99.1007 92.5415 99.446ZM98.9013 95.106H103.325V99.74H104.221V102.68H102.961V101H98.8453V102.68H97.5853V99.74C98.0613 99.712 98.4206 99.4553 98.6633 98.97C98.822 98.6247 98.9013 98.1067 98.9013 97.416V95.106ZM101.953 99.74V96.366H100.217V97.934C100.217 98.7833 99.9886 99.3853 99.5313 99.74H101.953ZM106.578 100.314V104.206H105.206V95.106H106.578V95.75C107.026 95.218 107.609 94.952 108.328 94.952C109.131 94.952 109.807 95.2367 110.358 95.806C110.918 96.366 111.198 97.1033 111.198 98.018C111.198 98.9607 110.909 99.726 110.33 100.314C109.751 100.893 109.089 101.182 108.342 101.182C107.642 101.182 107.054 100.893 106.578 100.314ZM108.16 96.184C107.693 96.184 107.297 96.352 106.97 96.688C106.653 97.0147 106.494 97.4813 106.494 98.088C106.494 98.676 106.653 99.1333 106.97 99.46C107.297 99.7867 107.693 99.95 108.16 99.95C108.645 99.95 109.037 99.768 109.336 99.404C109.644 99.04 109.798 98.5967 109.798 98.074C109.798 97.542 109.644 97.094 109.336 96.73C109.037 96.366 108.645 96.184 108.16 96.184ZM113.218 95.834C113.824 95.246 114.576 94.952 115.472 94.952C116.368 94.952 117.114 95.246 117.712 95.834C118.318 96.4127 118.622 97.1547 118.622 98.06C118.622 98.956 118.318 99.7027 117.712 100.3C117.114 100.888 116.368 101.182 115.472 101.182C114.576 101.182 113.824 100.888 113.218 100.3C112.62 99.7027 112.322 98.956 112.322 98.06C112.322 97.1547 112.62 96.4127 113.218 95.834ZM114.198 99.446C114.515 99.782 114.94 99.95 115.472 99.95C116.004 99.95 116.428 99.782 116.746 99.446C117.063 99.1007 117.222 98.6433 117.222 98.074C117.222 97.4487 117.049 96.9773 116.704 96.66C116.368 96.3427 115.957 96.184 115.472 96.184C114.986 96.184 114.571 96.3427 114.226 96.66C113.89 96.9773 113.722 97.4487 113.722 98.074C113.722 98.6433 113.88 99.1007 114.198 99.446ZM124.506 91.06H125.906C125.803 91.5453 125.588 91.9653 125.262 92.32C124.935 92.6747 124.534 92.9173 124.058 93.048L123.134 93.3C122.891 93.3653 122.704 93.4213 122.574 93.468C122.443 93.5147 122.28 93.6033 122.084 93.734C121.897 93.8553 121.738 94.0047 121.608 94.182C121.3 94.5927 121.136 95.1247 121.118 95.778H121.132C121.542 95.2273 122.21 94.952 123.134 94.952C123.964 94.952 124.65 95.232 125.192 95.792C125.761 96.38 126.046 97.1267 126.046 98.032C126.046 98.9467 125.742 99.7027 125.136 100.3C124.538 100.888 123.792 101.182 122.896 101.182C122 101.182 121.281 100.921 120.74 100.398C120.441 100.118 120.212 99.7727 120.054 99.362C119.895 98.9513 119.802 98.6153 119.774 98.354C119.755 98.0833 119.746 97.7567 119.746 97.374C119.746 95.5447 120.044 94.196 120.642 93.328C121.09 92.6653 121.678 92.2453 122.406 92.068L123.386 91.83C124.03 91.6713 124.403 91.4147 124.506 91.06ZM121.622 99.446C121.939 99.782 122.364 99.95 122.896 99.95C123.428 99.95 123.852 99.782 124.17 99.446C124.487 99.1007 124.646 98.6433 124.646 98.074C124.646 97.4487 124.473 96.9773 124.128 96.66C123.792 96.3427 123.381 96.184 122.896 96.184C122.41 96.184 121.995 96.3427 121.65 96.66C121.314 96.9773 121.146 97.4487 121.146 98.074C121.146 98.6433 121.304 99.1007 121.622 99.446ZM127.477 101V95.106H128.849V97.29H131.285V95.106H132.657V101H131.285V98.55H128.849V101H127.477ZM138.525 99.012L139.673 99.656C139.412 100.123 139.081 100.482 138.679 100.734C138.222 101.033 137.643 101.182 136.943 101.182C136.122 101.182 135.459 100.93 134.955 100.426C134.377 99.8473 134.087 99.096 134.087 98.172C134.087 97.2013 134.4 96.394 135.025 95.75C135.557 95.218 136.215 94.952 136.999 94.952C137.765 94.952 138.395 95.2087 138.889 95.722C139.44 96.2913 139.715 97.122 139.715 98.214V98.382H135.487C135.525 98.8767 135.693 99.2733 135.991 99.572C136.243 99.824 136.593 99.95 137.041 99.95C137.405 99.95 137.718 99.852 137.979 99.656C138.194 99.488 138.376 99.2733 138.525 99.012ZM135.585 97.262H138.315C138.259 96.9353 138.119 96.6693 137.895 96.464C137.653 96.24 137.345 96.128 136.971 96.128C136.579 96.128 136.257 96.254 136.005 96.506C135.8 96.6927 135.66 96.9447 135.585 97.262ZM145.279 99.012L146.427 99.656C146.166 100.123 145.835 100.482 145.433 100.734C144.976 101.033 144.397 101.182 143.697 101.182C142.876 101.182 142.213 100.93 141.709 100.426C141.131 99.8473 140.841 99.096 140.841 98.172C140.841 97.2013 141.154 96.394 141.779 95.75C142.311 95.218 142.969 94.952 143.753 94.952C144.519 94.952 145.149 95.2087 145.643 95.722C146.194 96.2913 146.469 97.122 146.469 98.214V98.382H142.241C142.279 98.8767 142.447 99.2733 142.745 99.572C142.997 99.824 143.347 99.95 143.795 99.95C144.159 99.95 144.472 99.852 144.733 99.656C144.948 99.488 145.13 99.2733 145.279 99.012ZM142.339 97.262H145.069C145.013 96.9353 144.873 96.6693 144.649 96.464C144.407 96.24 144.099 96.128 143.725 96.128C143.333 96.128 143.011 96.254 142.759 96.506C142.554 96.6927 142.414 96.9447 142.339 97.262Z" fill="#A0A4B8"/>
<path d="M180.103 94.5L183 97.5L180.103 100.5L179.571 99.9482L181.558 97.8902L161 97.8902L161 97.1098L181.558 97.1098L179.571 95.0518L180.103 94.5Z" fill="#A0A4B8"/>
<defs>
<linearGradient id="paint0_linear" x1="3.46289" y1="40.9274" x2="180.28" y2="40.9273" gradientUnits="userSpaceOnUse">
<stop stop-color="#E8E8FF" stop-opacity="0"/>
<stop offset="1" stop-color="#CDCDF8" stop-opacity="0.87"/>
</linearGradient>
<linearGradient id="paint1_linear" x1="151.948" y1="45.3151" x2="136.377" y2="45.3151" gradientUnits="userSpaceOnUse">
<stop stop-color="#00D2D5"/>
<stop offset="1" stop-color="#00D2D5" stop-opacity="0"/>
</linearGradient>
</defs>
</svg>
