<svg width="24" height="24" xmlns="http://www.w3.org/2000/svg"><defs><radialGradient cx="192.615%" cy="177.804%" fx="192.615%" fy="177.804%" r="187.678%" id="a"><stop stop-color="#F7F6FA" offset="0%"/><stop stop-color="#9191A8" offset="100%"/></radialGradient></defs><path d="M12 0c6.627 0 12 5.373 12 12s-5.373 12-12 12S0 18.627 0 12 5.373 0 12 0zM6.863 17.32h2.465V9.39H6.863v7.93zm1.233-9.014a1.43 1.43 0 1 0-.003-2.859 1.43 1.43 0 0 0 .003 2.86zm10.462 9.014v-4.35c0-2.135-.46-3.777-2.956-3.777-1.2 0-2.003.657-2.332 1.28h-.033V9.39h-2.364v7.93h2.463v-3.923c0-1.034.196-2.036 1.479-2.036 1.263 0 1.28 1.183 1.28 2.103v3.856h2.463z" fill="url(#a)" opacity=".4"/></svg>