<svg width="24" height="24" xmlns="http://www.w3.org/2000/svg"><defs><radialGradient cx="192.615%" cy="177.804%" fx="192.615%" fy="177.804%" r="187.678%" id="a"><stop stop-color="#F7F6FA" offset="0%"/><stop stop-color="#9191A8" offset="100%"/></radialGradient></defs><g fill="none" fill-rule="evenodd" opacity=".4"><rect fill="url(#a)" fill-rule="nonzero" width="24" height="24" rx="12"/><g transform="translate(6 6)" fill="#FFF"><path d="M5.998 0C4.37 0 4.165.007 3.525.036c-.638.03-1.074.13-1.456.279a2.94 2.94 0 0 0-1.062.692 2.94 2.94 0 0 0-.692 1.062c-.148.382-.25.818-.279 1.456C.006 4.165 0 4.37 0 5.998c0 1.63.007 1.833.036 2.473.03.639.13 1.075.279 1.456.153.395.358.729.692 1.063a2.94 2.94 0 0 0 1.062.691c.382.149.818.25 1.456.28.64.028.844.035 2.473.035 1.63 0 1.833-.007 2.473-.036.639-.029 1.075-.13 1.456-.279a2.94 2.94 0 0 0 1.063-.691 2.94 2.94 0 0 0 .691-1.063c.149-.381.25-.817.28-1.456.028-.64.035-.844.035-2.473s-.007-1.833-.036-2.473c-.029-.638-.13-1.074-.279-1.456a2.94 2.94 0 0 0-.691-1.062A2.94 2.94 0 0 0 9.926.315C9.546.167 9.11.065 8.471.036 7.831.006 7.627 0 5.998 0zm0 1.08c1.602 0 1.791.007 2.424.036.585.026.902.124 1.114.206.28.109.48.239.69.449.21.21.34.41.448.69.082.211.18.529.207 1.113.028.633.034.823.034 2.424 0 1.602-.006 1.791-.034 2.424-.027.585-.125.902-.207 1.114-.109.28-.239.48-.449.69-.21.21-.41.34-.69.448-.21.082-.528.18-1.113.207-.633.028-.822.034-2.424.034-1.602 0-1.791-.006-2.424-.034-.584-.027-.902-.125-1.113-.207a1.858 1.858 0 0 1-.69-.449c-.21-.21-.34-.41-.449-.69-.082-.21-.18-.528-.206-1.113-.03-.633-.035-.822-.035-2.424 0-1.601.006-1.791.035-2.424.026-.584.124-.902.206-1.113.109-.28.239-.48.449-.69.21-.21.41-.34.69-.449.211-.082.529-.18 1.113-.206.633-.03.823-.035 2.424-.035z"/><path d="M5.998 7.997a2 2 0 1 1 0-3.998 2 2 0 0 1 0 3.998zm0-5.079a3.08 3.08 0 1 0 0 6.16 3.08 3.08 0 0 0 0-6.16zm3.922-.122a.72.72 0 1 1-1.44 0 .72.72 0 0 1 1.44 0"/></g></g></svg>