<svg height="14" viewBox="0 0 14 14" width="14" xmlns="http://www.w3.org/2000/svg"><path d="m7.43203139 1.81000796-1.27656986 4.06818537c-.03876221.1235278-.15323788.20758545-.28270458.20758545h-4.12170794c-.32727985 0-.59259259.26531274-.59259259.59259259 0 .18461686.08604236.35868681.23271673.47080288l3.38198892 2.58515028c.09878645.07551114.13991774.20466806.10298953.32339887l-1.29654997 4.1686403c-.09719927.3125131.07734704.6446505.38986008.7418498.18326111.0569987.38277849.0217163.53537746-.0946755l3.31515776-2.5285694c.10626788-.0810536.25364412-.0809304.35977631.0003008l3.30231916 2.5275229c.259893.1989164.6318315.1494851.8307479-.1104079.1165343-.1522572.1522007-.3514881.0957252-.5347175l-1.2853886-4.1703252c-.0365428-.11855963.0046476-.24733251.1032136-.32267513l3.3824363-2.58549232c.2600173-.19875396.309681-.57066149.1109271-.83067874-.1121161-.14667437-.2861861-.23271673-.4708029-.23271673h-4.1383244c-.12974845 0-.24440453-.08441761-.28293212-.20831389l-1.26438966-4.06600005c-.09718268-.31251821-.42931087-.48708214-.74182908-.38989946-.18568442.05774163-.33122466.20290749-.38944435.38844258z" fill="#ffa38a" fill-rule="evenodd" transform="translate(-1 -1)"/></svg>