<svg width="24" height="24" xmlns="http://www.w3.org/2000/svg"><defs><radialGradient cx="192.615%" cy="177.804%" fx="192.615%" fy="177.804%" r="187.678%" id="a"><stop stop-color="#F7F6FA" offset="0%"/><stop stop-color="#9191A8" offset="100%"/></radialGradient></defs><path d="M12 0c6.627 0 12 5.373 12 12s-5.373 12-12 12S0 18.627 0 12 5.373 0 12 0zm-1.56 17.333c4.529 0 7.006-3.59 7.006-6.705 0-.102 0-.203-.008-.305a4.896 4.896 0 0 0 1.229-1.22c-.45.191-.926.316-1.414.371a2.386 2.386 0 0 0 1.082-1.303 5.07 5.07 0 0 1-1.563.572c-.764-.777-1.976-.967-2.958-.464-.983.503-1.49 1.575-1.238 2.613-1.98-.095-3.824-.99-5.074-2.462-.654 1.077-.32 2.454.762 3.146a2.528 2.528 0 0 1-1.117-.295v.03c0 1.122.826 2.088 1.975 2.31a2.565 2.565 0 0 1-1.112.04c.323.96 1.247 1.618 2.3 1.637a5.083 5.083 0 0 1-3.643.977 7.2 7.2 0 0 0 3.773 1.056v.002z" fill="url(#a)" opacity=".4"/></svg>