<svg width="106" height="101" viewBox="0 0 106 101" fill="none" xmlns="http://www.w3.org/2000/svg">
<path d="M1.20762 70.2997C1.52965 70.407 1.52965 70.7291 1.20762 70.8364C0.885597 70.9437 0.456203 70.9437 0.241519 70.8364C-0.0805064 70.7291 -0.0805064 70.407 0.241519 70.2997C0.456203 70.1923 0.885597 70.1923 1.20762 70.2997Z" fill="white"/>
<path d="M3.78349 68.7969C4.10551 68.9042 4.10551 69.2262 3.78349 69.3336C3.46146 69.4409 3.03213 69.4409 2.81745 69.3336C2.49542 69.2262 2.49542 68.9042 2.81745 68.7969C3.03213 68.6895 3.46146 68.6895 3.78349 68.7969Z" fill="white"/>
<path d="M42.1048 96.5984C42.4268 96.7057 42.4268 97.0278 42.1048 97.1351C41.7827 97.2424 41.3534 97.2424 41.1387 97.1351C40.8167 97.0278 40.8167 96.7057 41.1387 96.5984C41.3534 96.3837 41.7827 96.3837 42.1048 96.5984Z" fill="white"/>
<path d="M44.5735 95.0957C44.8955 95.203 44.8955 95.5251 44.5735 95.6324C44.2515 95.7398 43.8222 95.7398 43.6075 95.6324C43.2855 95.5251 43.2855 95.203 43.6075 95.0957C43.9295 94.9884 44.3588 94.9884 44.5735 95.0957Z" fill="white"/>
<path d="M47.15 93.5928C47.472 93.7002 47.472 94.0222 47.15 94.1295C46.828 94.2369 46.3986 94.2369 46.1839 94.1295C45.8619 94.0222 45.8619 93.7002 46.1839 93.5928C46.3986 93.4855 46.9353 93.4855 47.15 93.5928Z" fill="white"/>
<path d="M49.7262 92.1974C50.0482 92.3047 50.0482 92.6268 49.7262 92.7341C49.4042 92.8414 48.9748 92.8414 48.7601 92.7341C48.438 92.6268 48.438 92.3047 48.7601 92.1974C48.9748 91.9827 49.4042 91.9827 49.7262 92.1974Z" fill="white"/>
<path d="M52.1949 90.6946C52.517 90.8019 52.517 91.1239 52.1949 91.2313C51.8729 91.3386 51.4435 91.3386 51.2288 91.2313C50.9068 91.1239 50.9068 90.8019 51.2288 90.6946C51.5508 90.4799 51.9802 90.4799 52.1949 90.6946Z" fill="white"/>
<path d="M54.3418 89.9432C54.6975 89.9432 54.9859 89.751 54.9859 89.5138C54.9859 89.2767 54.6975 89.0845 54.3418 89.0845C53.9861 89.0845 53.6978 89.2767 53.6978 89.5138C53.6978 89.751 53.9861 89.9432 54.3418 89.9432Z" fill="white"/>
<path d="M57.3475 87.7964C57.6695 87.9037 57.6695 88.2258 57.3475 88.3331C57.0255 88.4404 56.5961 88.4404 56.3814 88.3331C56.0594 88.2258 56.0594 87.9037 56.3814 87.7964C56.5961 87.5817 57.0255 87.5817 57.3475 87.7964Z" fill="white"/>
<path d="M59.3873 86.9377C59.743 86.9377 60.0313 86.7455 60.0313 86.5083C60.0313 86.2712 59.743 86.079 59.3873 86.079C59.0316 86.079 58.7432 86.2712 58.7432 86.5083C58.7432 86.7455 59.0316 86.9377 59.3873 86.9377Z" fill="white"/>
<path d="M62.3924 84.7908C62.7145 84.8982 62.7145 85.2202 62.3924 85.3275C62.0704 85.4349 61.641 85.4349 61.4263 85.3275C61.1043 85.2202 61.1043 84.8982 61.4263 84.7908C61.7484 84.6835 62.1778 84.6835 62.3924 84.7908Z" fill="white"/>
<path d="M64.9685 83.2881C65.2906 83.3954 65.2906 83.7175 64.9685 83.8248C64.6465 83.9321 64.2172 83.9321 64.0025 83.8248C63.6805 83.7175 63.6805 83.3954 64.0025 83.2881C64.2172 83.1807 64.7539 83.1807 64.9685 83.2881Z" fill="white"/>
<path d="M67.5448 81.8926C67.8668 81.9999 67.8668 82.3219 67.5448 82.4293C67.2228 82.5366 66.7934 82.5366 66.5787 82.4293C66.2567 82.3219 66.2567 81.9999 66.5787 81.8926C66.7934 81.6779 67.2228 81.6779 67.5448 81.8926Z" fill="white"/>
<path d="M38.992 95.847C39.3477 95.847 39.636 95.6548 39.636 95.4177C39.636 95.1805 39.3477 94.9883 38.992 94.9883C38.6363 94.9883 38.3479 95.1805 38.3479 95.4177C38.3479 95.6548 38.6363 95.847 38.992 95.847Z" fill="white"/>
<path d="M42.1048 93.5928C42.4268 93.7002 42.4268 94.0222 42.1048 94.1295C41.7827 94.2369 41.3534 94.2369 41.1387 94.1295C40.8167 94.0222 40.8167 93.7002 41.1387 93.5928C41.3534 93.4855 41.7827 93.4855 42.1048 93.5928Z" fill="white"/>
<path d="M44.5735 92.1974C44.8955 92.3047 44.8955 92.6268 44.5735 92.7341C44.2515 92.8414 43.8222 92.8414 43.6075 92.7341C43.2855 92.6268 43.2855 92.3047 43.6075 92.1974C43.9295 91.9827 44.3588 91.9827 44.5735 92.1974Z" fill="white"/>
<path d="M47.15 90.6946C47.472 90.8019 47.472 91.1239 47.15 91.2313C46.828 91.3386 46.3986 91.3386 46.1839 91.2313C45.8619 91.1239 45.8619 90.8019 46.1839 90.6946C46.3986 90.4799 46.9353 90.4799 47.15 90.6946Z" fill="white"/>
<path d="M49.7262 89.1919C50.0482 89.2992 50.0482 89.6213 49.7262 89.7286C49.4042 89.8359 48.9748 89.8359 48.7601 89.7286C48.438 89.6213 48.438 89.2992 48.7601 89.1919C48.9748 89.0846 49.4042 89.0846 49.7262 89.1919Z" fill="white"/>
<path d="M52.1949 87.7964C52.517 87.9037 52.517 88.2258 52.1949 88.3331C51.8729 88.4404 51.4435 88.4404 51.2288 88.3331C50.9068 88.2258 50.9068 87.9037 51.2288 87.7964C51.5508 87.5817 51.9802 87.5817 52.1949 87.7964Z" fill="white"/>
<path d="M54.7708 86.2936C55.0929 86.4009 55.0929 86.7229 54.7708 86.8303C54.4488 86.9376 54.0195 86.9376 53.8048 86.8303C53.5901 86.7229 53.4828 86.4009 53.8048 86.2936C54.1268 86.0789 54.5562 86.0789 54.7708 86.2936Z" fill="white"/>
<path d="M57.3475 84.7908C57.6695 84.8982 57.6695 85.2202 57.3475 85.3275C57.0255 85.4349 56.5961 85.4349 56.3814 85.3275C56.0594 85.2202 56.0594 84.8982 56.3814 84.7908C56.5961 84.6835 57.0255 84.6835 57.3475 84.7908Z" fill="white"/>
<path d="M59.3873 84.0394C59.743 84.0394 60.0313 83.8472 60.0313 83.61C60.0313 83.3729 59.743 83.1807 59.3873 83.1807C59.0316 83.1807 58.7432 83.3729 58.7432 83.61C58.7432 83.8472 59.0316 84.0394 59.3873 84.0394Z" fill="white"/>
<path d="M61.9631 82.5367C62.3188 82.5367 62.6072 82.3444 62.6072 82.1073C62.6072 81.8702 62.3188 81.6779 61.9631 81.6779C61.6074 81.6779 61.3191 81.8702 61.3191 82.1073C61.3191 82.3444 61.6074 82.5367 61.9631 82.5367Z" fill="white"/>
<path d="M64.9685 80.3898C65.2906 80.4972 65.2906 80.8192 64.9685 80.9265C64.6465 81.0339 64.2172 81.0339 64.0025 80.9265C63.6805 80.8192 63.6805 80.4972 64.0025 80.3898C64.2172 80.2825 64.7539 80.2825 64.9685 80.3898Z" fill="white"/>
<path d="M36.9525 93.5928C37.2745 93.7002 37.2745 94.0222 36.9525 94.1295C36.6305 94.2369 36.2011 94.2369 35.9864 94.1295C35.6644 94.0222 35.6644 93.7002 35.9864 93.5928C36.3084 93.4855 36.7378 93.4855 36.9525 93.5928Z" fill="white"/>
<path d="M39.5287 92.1974C39.8507 92.3047 39.8507 92.6268 39.5287 92.7341C39.2066 92.8414 38.7772 92.8414 38.5626 92.7341C38.2405 92.6268 38.2405 92.3047 38.5626 92.1974C38.7772 91.9827 39.2066 91.9827 39.5287 92.1974Z" fill="white"/>
<path d="M42.1048 90.6946C42.4268 90.8019 42.4268 91.1239 42.1048 91.2313C41.7827 91.3386 41.3534 91.3386 41.1387 91.2313C40.8167 91.1239 40.8167 90.8019 41.1387 90.6946C41.3534 90.4799 41.7827 90.4799 42.1048 90.6946Z" fill="white"/>
<path d="M44.5735 89.1919C44.8955 89.2992 44.8955 89.6213 44.5735 89.7286C44.2515 89.8359 43.8222 89.8359 43.6075 89.7286C43.2855 89.6213 43.2855 89.2992 43.6075 89.1919C43.9295 89.0846 44.3588 89.0846 44.5735 89.1919Z" fill="white"/>
<path d="M47.15 87.7964C47.472 87.9037 47.472 88.2258 47.15 88.3331C46.828 88.4404 46.3986 88.4404 46.1839 88.3331C45.8619 88.2258 45.8619 87.9037 46.1839 87.7964C46.3986 87.5817 46.9353 87.5817 47.15 87.7964Z" fill="white"/>
<path d="M49.7262 86.2936C50.0482 86.4009 50.0482 86.7229 49.7262 86.8303C49.4042 86.9376 48.9748 86.9376 48.7601 86.8303C48.438 86.7229 48.438 86.4009 48.7601 86.2936C48.9748 86.0789 49.4042 86.0789 49.7262 86.2936Z" fill="white"/>
<path d="M52.1949 84.7908C52.517 84.8982 52.517 85.2202 52.1949 85.3275C51.8729 85.4349 51.4435 85.4349 51.2288 85.3275C50.9068 85.2202 50.9068 84.8982 51.2288 84.7908C51.5508 84.6835 51.9802 84.6835 52.1949 84.7908Z" fill="white"/>
<path d="M54.771 83.2881C55.0931 83.3954 55.0931 83.7175 54.771 83.8248C54.449 83.9321 54.0197 83.9321 53.805 83.8248C53.483 83.7175 53.483 83.3954 53.805 83.2881C54.127 83.1807 54.5564 83.1807 54.771 83.2881Z" fill="white"/>
<path d="M57.3475 81.8926C57.6695 81.9999 57.6695 82.3219 57.3475 82.4293C57.0255 82.5366 56.5961 82.5366 56.3814 82.4293C56.0594 82.3219 56.0594 81.9999 56.3814 81.8926C56.5961 81.6779 57.0255 81.6779 57.3475 81.8926Z" fill="white"/>
<path d="M59.9234 80.3898C60.2455 80.4972 60.2455 80.8192 59.9234 80.9265C59.6014 81.0339 59.172 81.0339 58.9573 80.9265C58.6353 80.8192 58.6353 80.4972 58.9573 80.3898C59.172 80.2825 59.6014 80.2825 59.9234 80.3898Z" fill="white"/>
<path d="M62.3924 78.887C62.7145 78.9944 62.7145 79.3164 62.3924 79.4237C62.0704 79.5311 61.641 79.5311 61.4263 79.4237C61.1043 79.3164 61.1043 78.9944 61.4263 78.887C61.7484 78.7797 62.1778 78.7797 62.3924 78.887Z" fill="white"/>
<path d="M34.3763 92.1974C34.6983 92.3047 34.6983 92.6268 34.3763 92.7341C34.0542 92.8414 33.6249 92.8414 33.4102 92.7341C33.0882 92.6268 33.0882 92.3047 33.4102 92.1974C33.7322 91.9827 34.1616 91.9827 34.3763 92.1974Z" fill="white"/>
<path d="M36.9525 90.6946C37.2745 90.8019 37.2745 91.1239 36.9525 91.2313C36.6305 91.3386 36.2011 91.3386 35.9864 91.2313C35.6644 91.1239 35.6644 90.8019 35.9864 90.6946C36.3084 90.4799 36.7378 90.4799 36.9525 90.6946Z" fill="white"/>
<path d="M39.5287 89.1919C39.8507 89.2992 39.8507 89.6213 39.5287 89.7286C39.2066 89.8359 38.7772 89.8359 38.5626 89.7286C38.2405 89.6213 38.2405 89.2992 38.5626 89.1919C38.7772 89.0846 39.2066 89.0846 39.5287 89.1919Z" fill="white"/>
<path d="M42.1048 87.7964C42.4268 87.9037 42.4268 88.2258 42.1048 88.3331C41.7827 88.4404 41.3534 88.4404 41.1387 88.3331C40.8167 88.2258 40.8167 87.9037 41.1387 87.7964C41.3534 87.5817 41.7827 87.5817 42.1048 87.7964Z" fill="white"/>
<path d="M44.5735 86.2936C44.8955 86.4009 44.8955 86.7229 44.5735 86.8303C44.2515 86.9376 43.8222 86.9376 43.6075 86.8303C43.2855 86.7229 43.2855 86.4009 43.6075 86.2936C43.9295 86.0789 44.3588 86.0789 44.5735 86.2936Z" fill="white"/>
<path d="M47.15 84.7908C47.472 84.8982 47.472 85.2202 47.15 85.3275C46.828 85.4349 46.3986 85.4349 46.1839 85.3275C45.8619 85.2202 45.8619 84.8982 46.1839 84.7908C46.3986 84.6835 46.9353 84.6835 47.15 84.7908Z" fill="white"/>
<path d="M49.7262 83.2881C50.0482 83.3954 50.0482 83.7175 49.7262 83.8248C49.4042 83.9321 48.9748 83.9321 48.7601 83.8248C48.438 83.7175 48.438 83.3954 48.7601 83.2881C48.9748 83.1807 49.4042 83.1807 49.7262 83.2881Z" fill="white"/>
<path d="M52.1949 81.8926C52.517 81.9999 52.517 82.3219 52.1949 82.4293C51.8729 82.5366 51.4435 82.5366 51.2288 82.4293C50.9068 82.3219 50.9068 81.9999 51.2288 81.8926C51.5508 81.6779 51.9802 81.6779 52.1949 81.8926Z" fill="white"/>
<path d="M54.771 80.3898C55.0931 80.4972 55.0931 80.8192 54.771 80.9265C54.449 81.0339 54.0197 81.0339 53.805 80.9265C53.483 80.8192 53.483 80.4972 53.805 80.3898C54.127 80.2825 54.5564 80.2825 54.771 80.3898Z" fill="white"/>
<path d="M57.3475 78.887C57.6695 78.9944 57.6695 79.3164 57.3475 79.4237C57.0255 79.5311 56.5961 79.5311 56.3814 79.4237C56.0594 79.3164 56.0594 78.9944 56.3814 78.887C56.5961 78.7797 57.0255 78.7797 57.3475 78.887Z" fill="white"/>
<path d="M59.3873 78.1357C59.743 78.1357 60.0313 77.9434 60.0313 77.7063C60.0313 77.4692 59.743 77.2769 59.3873 77.2769C59.0316 77.2769 58.7432 77.4692 58.7432 77.7063C58.7432 77.9434 59.0316 78.1357 59.3873 78.1357Z" fill="white"/>
<path d="M31.9075 90.6946C32.2295 90.8019 32.2295 91.1239 31.9075 91.2313C31.5855 91.3386 31.1562 91.3386 30.9415 91.2313C30.6194 91.1239 30.6194 90.8019 30.9415 90.6946C31.1562 90.4799 31.5855 90.4799 31.9075 90.6946Z" fill="white"/>
<path d="M34.3763 89.1919C34.6983 89.2992 34.6983 89.6213 34.3763 89.7286C34.0542 89.8359 33.6249 89.8359 33.4102 89.7286C33.0882 89.6213 33.0882 89.2992 33.4102 89.1919C33.7322 89.0846 34.1616 89.0846 34.3763 89.1919Z" fill="white"/>
<path d="M36.9525 87.7964C37.2745 87.9037 37.2745 88.2258 36.9525 88.3331C36.6305 88.4404 36.2011 88.4404 35.9864 88.3331C35.6644 88.2258 35.6644 87.9037 35.9864 87.7964C36.3084 87.5817 36.7378 87.5817 36.9525 87.7964Z" fill="white"/>
<path d="M39.5287 86.2936C39.8507 86.4009 39.8507 86.7229 39.5287 86.8303C39.2066 86.9376 38.7772 86.9376 38.5626 86.8303C38.2405 86.7229 38.2405 86.4009 38.5626 86.2936C38.7772 86.0789 39.2066 86.0789 39.5287 86.2936Z" fill="white"/>
<path d="M42.1048 84.7908C42.4268 84.8982 42.4268 85.2202 42.1048 85.3275C41.7827 85.4349 41.3534 85.4349 41.1387 85.3275C40.8167 85.2202 40.8167 84.8982 41.1387 84.7908C41.3534 84.6835 41.7827 84.6835 42.1048 84.7908Z" fill="white"/>
<path d="M44.5735 83.2881C44.8955 83.3954 44.8955 83.7175 44.5735 83.8248C44.2515 83.9321 43.8222 83.9321 43.6075 83.8248C43.2855 83.7175 43.2855 83.3954 43.6075 83.2881C43.9295 83.1807 44.3588 83.1807 44.5735 83.2881Z" fill="white"/>
<path d="M47.15 81.8926C47.472 81.9999 47.472 82.3219 47.15 82.4293C46.828 82.5366 46.3986 82.5366 46.1839 82.4293C45.8619 82.3219 45.8619 81.9999 46.1839 81.8926C46.3986 81.6779 46.9353 81.6779 47.15 81.8926Z" fill="white"/>
<path d="M49.7262 80.3898C50.0482 80.4972 50.0482 80.8192 49.7262 80.9265C49.4042 81.0339 48.9748 81.0339 48.7601 80.9265C48.438 80.8192 48.438 80.4972 48.7601 80.3898C48.9748 80.2825 49.4042 80.2825 49.7262 80.3898Z" fill="white"/>
<path d="M52.1949 78.887C52.517 78.9944 52.517 79.3164 52.1949 79.4237C51.8729 79.5311 51.4435 79.5311 51.2288 79.4237C50.9068 79.3164 50.9068 78.9944 51.2288 78.887C51.5508 78.7797 51.9802 78.7797 52.1949 78.887Z" fill="white"/>
<path d="M54.771 77.4915C55.0931 77.5989 55.0931 77.9209 54.771 78.0282C54.449 78.1356 54.0197 78.1356 53.805 78.0282C53.483 77.9209 53.483 77.5989 53.805 77.4915C54.127 77.2768 54.5564 77.2768 54.771 77.4915Z" fill="white"/>
<path d="M57.3475 75.9888C57.6695 76.0962 57.6695 76.4182 57.3475 76.5255C57.0255 76.6329 56.5961 76.6329 56.3814 76.5255C56.0594 76.4182 56.0594 76.0962 56.3814 75.9888C56.5961 75.8815 57.0255 75.8815 57.3475 75.9888Z" fill="white"/>
<path d="M29.3312 89.1919C29.6532 89.2992 29.6532 89.6213 29.3312 89.7286C29.0091 89.8359 28.5797 89.8359 28.3651 89.7286C28.043 89.6213 28.043 89.2992 28.3651 89.1919C28.5797 89.0846 29.0091 89.0846 29.3312 89.1919Z" fill="white"/>
<path d="M31.3703 88.4404C31.726 88.4404 32.0144 88.2482 32.0144 88.011C32.0144 87.7739 31.726 87.5817 31.3703 87.5817C31.0146 87.5817 30.7263 87.7739 30.7263 88.011C30.7263 88.2482 31.0146 88.4404 31.3703 88.4404Z" fill="white"/>
<path d="M34.3763 86.2936C34.6983 86.4009 34.6983 86.7229 34.3763 86.8303C34.0542 86.9376 33.6249 86.9376 33.4102 86.8303C33.0882 86.7229 33.0882 86.4009 33.4102 86.2936C33.7322 86.0789 34.1616 86.0789 34.3763 86.2936Z" fill="white"/>
<path d="M36.4155 85.5423C36.7712 85.5423 37.0595 85.35 37.0595 85.1129C37.0595 84.8758 36.7712 84.6835 36.4155 84.6835C36.0598 84.6835 35.7715 84.8758 35.7715 85.1129C35.7715 85.35 36.0598 85.5423 36.4155 85.5423Z" fill="white"/>
<path d="M39.5287 83.2881C39.8507 83.3954 39.8507 83.7175 39.5287 83.8248C39.2066 83.9321 38.7772 83.9321 38.5626 83.8248C38.2405 83.7175 38.2405 83.3954 38.5626 83.2881C38.7772 83.1807 39.2066 83.1807 39.5287 83.2881Z" fill="white"/>
<path d="M41.5681 82.5367C41.9238 82.5367 42.2122 82.3444 42.2122 82.1073C42.2122 81.8702 41.9238 81.6779 41.5681 81.6779C41.2124 81.6779 40.9241 81.8702 40.9241 82.1073C40.9241 82.3444 41.2124 82.5367 41.5681 82.5367Z" fill="white"/>
<path d="M44.5735 80.3898C44.8955 80.4972 44.8955 80.8192 44.5735 80.9265C44.2515 81.0339 43.8222 81.0339 43.6075 80.9265C43.2855 80.8192 43.2855 80.4972 43.6075 80.3898C43.9295 80.2825 44.3588 80.2825 44.5735 80.3898Z" fill="white"/>
<path d="M47.15 78.887C47.472 78.9944 47.472 79.3164 47.15 79.4237C46.828 79.5311 46.3986 79.5311 46.1839 79.4237C45.8619 79.3164 45.8619 78.9944 46.1839 78.887C46.3986 78.7797 46.828 78.7797 47.15 78.887Z" fill="white"/>
<path d="M49.7262 77.4915C50.0482 77.5989 50.0482 77.9209 49.7262 78.0282C49.4042 78.1356 48.9748 78.1356 48.7601 78.0282C48.438 77.9209 48.438 77.5989 48.7601 77.4915C48.9748 77.2768 49.4042 77.2768 49.7262 77.4915Z" fill="white"/>
<path d="M52.1949 75.9888C52.517 76.0962 52.517 76.4182 52.1949 76.5255C51.8729 76.6329 51.4435 76.6329 51.2288 76.5255C50.9068 76.4182 50.9068 76.0962 51.2288 75.9888C51.5508 75.7741 51.9802 75.7741 52.1949 75.9888Z" fill="white"/>
<path d="M54.771 74.486C55.0931 74.5934 55.0931 74.9154 54.771 75.0227C54.449 75.1301 54.0197 75.1301 53.805 75.0227C53.483 74.9154 53.483 74.5934 53.805 74.486C54.0197 74.3787 54.449 74.3787 54.771 74.486Z" fill="white"/>
<path d="M26.3254 88.4404C26.6811 88.4404 26.9695 88.2482 26.9695 88.011C26.9695 87.7739 26.6811 87.5817 26.3254 87.5817C25.9697 87.5817 25.6814 87.7739 25.6814 88.011C25.6814 88.2482 25.9697 88.4404 26.3254 88.4404Z" fill="white"/>
<path d="M29.3312 86.2936C29.6532 86.4009 29.6532 86.7229 29.3312 86.8303C29.0091 86.9376 28.5797 86.9376 28.3651 86.8303C28.043 86.7229 28.043 86.4009 28.3651 86.2936C28.5797 86.0789 29.0091 86.0789 29.3312 86.2936Z" fill="white"/>
<path d="M31.3703 85.5423C31.726 85.5423 32.0144 85.35 32.0144 85.1129C32.0144 84.8758 31.726 84.6835 31.3703 84.6835C31.0146 84.6835 30.7263 84.8758 30.7263 85.1129C30.7263 85.35 31.0146 85.5423 31.3703 85.5423Z" fill="white"/>
<path d="M34.3763 83.2881C34.6983 83.3954 34.6983 83.7175 34.3763 83.8248C34.0542 83.9321 33.6249 83.9321 33.4102 83.8248C33.0882 83.7175 33.0882 83.3954 33.4102 83.2881C33.7322 83.1807 34.1616 83.1807 34.3763 83.2881Z" fill="white"/>
<path d="M36.4155 82.5367C36.7712 82.5367 37.0595 82.3444 37.0595 82.1073C37.0595 81.8702 36.7712 81.6779 36.4155 81.6779C36.0598 81.6779 35.7715 81.8702 35.7715 82.1073C35.7715 82.3444 36.0598 82.5367 36.4155 82.5367Z" fill="white"/>
<path d="M39.5287 80.3898C39.8507 80.4972 39.8507 80.8192 39.5287 80.9265C39.2066 81.0339 38.7772 81.0339 38.5626 80.9265C38.2405 80.8192 38.2405 80.4972 38.5626 80.3898C38.7772 80.2825 39.2066 80.2825 39.5287 80.3898Z" fill="white"/>
<path d="M41.9977 78.887C42.3197 78.9944 42.3197 79.3164 41.9977 79.4237C41.6756 79.5311 41.2462 79.5311 41.0316 79.4237C40.7095 79.3164 40.7095 78.9944 41.0316 78.887C41.3536 78.7797 41.783 78.7797 41.9977 78.887Z" fill="white"/>
<path d="M44.5735 77.4915C44.8955 77.5989 44.8955 77.9209 44.5735 78.0282C44.2515 78.1356 43.8222 78.1356 43.6075 78.0282C43.2855 77.9209 43.2855 77.5989 43.6075 77.4915C43.9295 77.2768 44.3588 77.2768 44.5735 77.4915Z" fill="white"/>
<path d="M46.613 76.7402C46.9687 76.7402 47.257 76.548 47.257 76.3108C47.257 76.0737 46.9687 75.8815 46.613 75.8815C46.2573 75.8815 45.969 76.0737 45.969 76.3108C45.969 76.548 46.2573 76.7402 46.613 76.7402Z" fill="white"/>
<path d="M49.7262 74.486C50.0482 74.5934 50.0482 74.9154 49.7262 75.0227C49.4042 75.1301 48.9748 75.1301 48.7601 75.0227C48.438 74.9154 48.438 74.5934 48.7601 74.486C48.9748 74.3787 49.4042 74.3787 49.7262 74.486Z" fill="white"/>
<path d="M52.1949 73.0905C52.517 73.1979 52.517 73.5199 52.1949 73.6272C51.8729 73.7346 51.4435 73.7346 51.2288 73.6272C50.9068 73.5199 50.9068 73.1979 51.2288 73.0905C51.5508 72.8758 51.9802 72.8758 52.1949 73.0905Z" fill="white"/>
<path d="M24.1787 86.2936C24.5008 86.4009 24.5008 86.7229 24.1787 86.8303C23.8567 86.9376 23.4274 86.9376 23.2127 86.8303C22.8907 86.7229 22.8907 86.4009 23.2127 86.2936C23.5347 86.0789 23.9641 86.0789 24.1787 86.2936Z" fill="white"/>
<path d="M26.755 84.7908C27.077 84.8982 27.077 85.2202 26.755 85.3275C26.433 85.4349 26.0036 85.4349 25.7889 85.3275C25.4669 85.2202 25.4669 84.8982 25.7889 84.7908C26.1109 84.6835 26.5403 84.6835 26.755 84.7908Z" fill="white"/>
<path d="M29.3312 83.2881C29.6532 83.3954 29.6532 83.7175 29.3312 83.8248C29.0091 83.9321 28.5797 83.9321 28.3651 83.8248C28.043 83.7175 28.043 83.3954 28.3651 83.2881C28.5797 83.1807 29.0091 83.1807 29.3312 83.2881Z" fill="white"/>
<path d="M31.3703 82.5367C31.726 82.5367 32.0144 82.3444 32.0144 82.1073C32.0144 81.8702 31.726 81.6779 31.3703 81.6779C31.0146 81.6779 30.7263 81.8702 30.7263 82.1073C30.7263 82.3444 31.0146 82.5367 31.3703 82.5367Z" fill="white"/>
<path d="M34.3763 80.3898C34.6983 80.4972 34.6983 80.8192 34.3763 80.9265C34.0542 81.0339 33.6249 81.0339 33.4102 80.9265C33.0882 80.8192 33.0882 80.4972 33.4102 80.3898C33.7322 80.2825 34.1616 80.2825 34.3763 80.3898Z" fill="white"/>
<path d="M36.9525 78.887C37.2745 78.9944 37.2745 79.3164 36.9525 79.4237C36.6305 79.5311 36.2011 79.5311 35.9864 79.4237C35.6644 79.3164 35.6644 78.9944 35.9864 78.887C36.2011 78.7797 36.6305 78.7797 36.9525 78.887Z" fill="white"/>
<path d="M39.5287 77.4915C39.8507 77.5989 39.8507 77.9209 39.5287 78.0282C39.2066 78.1356 38.7772 78.1356 38.5626 78.0282C38.2405 77.9209 38.2405 77.5989 38.5626 77.4915C38.7772 77.2768 39.2066 77.2768 39.5287 77.4915Z" fill="white"/>
<path d="M41.9977 75.9888C42.3197 76.0962 42.3197 76.4182 41.9977 76.5255C41.6756 76.6329 41.2462 76.6329 41.0316 76.5255C40.7095 76.4182 40.7095 76.0962 41.0316 75.9888C41.3536 75.7741 41.783 75.7741 41.9977 75.9888Z" fill="white"/>
<path d="M44.5735 74.486C44.8955 74.5934 44.8955 74.9154 44.5735 75.0227C44.2515 75.1301 43.8222 75.1301 43.6075 75.0227C43.2855 74.9154 43.2855 74.5934 43.6075 74.486C43.9295 74.3787 44.3588 74.3787 44.5735 74.486Z" fill="white"/>
<path d="M47.15 73.0905C47.472 73.1979 47.472 73.5199 47.15 73.6272C46.828 73.7346 46.3986 73.7346 46.1839 73.6272C45.8619 73.5199 45.8619 73.1979 46.1839 73.0905C46.3986 72.8758 46.828 72.8758 47.15 73.0905Z" fill="white"/>
<path d="M21.71 84.7908C22.032 84.8982 22.032 85.2202 21.71 85.3275C21.388 85.4349 20.9586 85.4349 20.744 85.3275C20.4219 85.2202 20.4219 84.8982 20.744 84.7908C20.9586 84.6835 21.388 84.6835 21.71 84.7908Z" fill="white"/>
<path d="M24.1787 83.2881C24.5008 83.3954 24.5008 83.7175 24.1787 83.8248C23.8567 83.9321 23.4274 83.9321 23.2127 83.8248C22.8907 83.7175 22.8907 83.3954 23.2127 83.2881C23.5347 83.1807 23.9641 83.1807 24.1787 83.2881Z" fill="white"/>
<path d="M26.755 81.8926C27.077 81.9999 27.077 82.3219 26.755 82.4293C26.433 82.5366 26.0036 82.5366 25.7889 82.4293C25.4669 82.3219 25.4669 81.9999 25.7889 81.8926C26.1109 81.6779 26.5403 81.6779 26.755 81.8926Z" fill="white"/>
<path d="M29.3312 80.3898C29.6532 80.4972 29.6532 80.8192 29.3312 80.9265C29.0091 81.0339 28.5797 81.0339 28.3651 80.9265C28.043 80.8192 28.043 80.4972 28.3651 80.3898C28.5797 80.2825 29.0091 80.2825 29.3312 80.3898Z" fill="white"/>
<path d="M31.9075 78.887C32.2295 78.9944 32.2295 79.3164 31.9075 79.4237C31.5855 79.5311 31.1562 79.5311 30.9415 79.4237C30.6194 79.3164 30.6194 78.9944 30.9415 78.887C31.1562 78.7797 31.5855 78.7797 31.9075 78.887Z" fill="white"/>
<path d="M34.3763 77.4916C34.6983 77.5989 34.6983 77.9209 34.3763 78.0283C34.0542 78.1356 33.6249 78.1356 33.4102 78.0283C33.0882 77.9209 33.0882 77.5989 33.4102 77.4916C33.7322 77.3842 34.1616 77.2769 34.3763 77.4916Z" fill="white"/>
<path d="M36.9525 75.9888C37.2745 76.0962 37.2745 76.4182 36.9525 76.5255C36.6305 76.6329 36.2011 76.6329 35.9864 76.5255C35.6644 76.4182 35.6644 76.0962 35.9864 75.9888C36.2011 75.7741 36.6305 75.7741 36.9525 75.9888Z" fill="white"/>
<path d="M38.992 75.2373C39.3477 75.2373 39.636 75.0451 39.636 74.808C39.636 74.5708 39.3477 74.3786 38.992 74.3786C38.6363 74.3786 38.3479 74.5708 38.3479 74.808C38.3479 75.0451 38.6363 75.2373 38.992 75.2373Z" fill="white"/>
<path d="M19.1336 83.2881C19.4557 83.3954 19.4557 83.7175 19.1336 83.8248C18.8116 83.9321 18.3822 83.9321 18.1675 83.8248C17.8455 83.7175 17.8455 83.3954 18.1675 83.2881C18.3822 83.1807 18.919 83.1807 19.1336 83.2881Z" fill="white"/>
<path d="M21.71 81.8926C22.032 81.9999 22.032 82.3219 21.71 82.4293C21.388 82.5366 20.9586 82.5366 20.744 82.4293C20.4219 82.3219 20.4219 81.9999 20.744 81.8926C20.9586 81.6779 21.388 81.6779 21.71 81.8926Z" fill="white"/>
<path d="M23.7493 81.1412C24.105 81.1412 24.3933 80.949 24.3933 80.7118C24.3933 80.4747 24.105 80.2825 23.7493 80.2825C23.3936 80.2825 23.1052 80.4747 23.1052 80.7118C23.1052 80.949 23.3936 81.1412 23.7493 81.1412Z" fill="white"/>
<path d="M26.755 78.887C27.077 78.9944 27.077 79.3164 26.755 79.4237C26.433 79.5311 26.0036 79.5311 25.7889 79.4237C25.4669 79.3164 25.4669 78.9944 25.7889 78.887C26.1109 78.7797 26.5403 78.7797 26.755 78.887Z" fill="white"/>
<path d="M29.3312 77.4915C29.6532 77.5989 29.6532 77.9209 29.3312 78.0282C29.0091 78.1356 28.5797 78.1356 28.3651 78.0282C28.043 77.9209 28.043 77.5989 28.3651 77.4915C28.5797 77.2768 29.0091 77.2768 29.3312 77.4915Z" fill="white"/>
<path d="M31.9075 75.9888C32.2295 76.0962 32.2295 76.4182 31.9075 76.5255C31.5855 76.6329 31.1562 76.6329 30.9415 76.5255C30.6194 76.4182 30.6194 76.0962 30.9415 75.9888C31.1562 75.7741 31.5855 75.7741 31.9075 75.9888Z" fill="white"/>
<path d="M33.9468 75.2373C34.3025 75.2373 34.5909 75.0451 34.5909 74.808C34.5909 74.5708 34.3025 74.3786 33.9468 74.3786C33.5911 74.3786 33.3027 74.5708 33.3027 74.808C33.3027 75.0451 33.5911 75.2373 33.9468 75.2373Z" fill="white"/>
<path d="M16.5577 81.8926C16.8797 81.9999 16.8797 82.3219 16.5577 82.4293C16.2357 82.5366 15.8063 82.5366 15.5916 82.4293C15.2696 82.3219 15.2696 81.9999 15.5916 81.8926C15.9136 81.6779 16.343 81.6779 16.5577 81.8926Z" fill="white"/>
<path d="M19.1336 80.3898C19.4557 80.4972 19.4557 80.8192 19.1336 80.9265C18.8116 81.0339 18.3822 81.0339 18.1675 80.9265C17.8455 80.8192 17.8455 80.4972 18.1675 80.3898C18.3822 80.2825 18.919 80.2825 19.1336 80.3898Z" fill="white"/>
<path d="M21.71 78.887C22.032 78.9944 22.032 79.3164 21.71 79.4237C21.388 79.5311 20.9586 79.5311 20.744 79.4237C20.4219 79.3164 20.4219 78.9944 20.744 78.887C20.9586 78.7797 21.388 78.7797 21.71 78.887Z" fill="white"/>
<path d="M24.1787 77.4915C24.5008 77.5989 24.5008 77.9209 24.1787 78.0282C23.8567 78.1356 23.4274 78.1356 23.2127 78.0282C22.8907 77.9209 22.8907 77.5989 23.2127 77.4915C23.5347 77.2768 23.9641 77.2768 24.1787 77.4915Z" fill="white"/>
<path d="M26.755 75.9888C27.077 76.0962 27.077 76.4182 26.755 76.5255C26.433 76.6329 26.0036 76.6329 25.7889 76.5255C25.4669 76.4182 25.4669 76.0962 25.7889 75.9888C26.1109 75.7741 26.5403 75.7741 26.755 75.9888Z" fill="white"/>
<path d="M28.7945 75.2373C29.1502 75.2373 29.4385 75.0451 29.4385 74.808C29.4385 74.5708 29.1502 74.3786 28.7945 74.3786C28.4388 74.3786 28.1504 74.5708 28.1504 74.808C28.1504 75.0451 28.4388 75.2373 28.7945 75.2373Z" fill="white"/>
<path d="M14.0887 80.3898C14.4108 80.4972 14.4108 80.8192 14.0887 80.9265C13.7667 81.0339 13.3373 81.0339 13.1226 80.9265C12.8006 80.8192 12.8006 80.4972 13.1226 80.3898C13.3373 80.2825 13.7667 80.2825 14.0887 80.3898Z" fill="white"/>
<path d="M16.5577 78.887C16.8797 78.9944 16.8797 79.3164 16.5577 79.4237C16.2357 79.5311 15.8063 79.5311 15.5916 79.4237C15.2696 79.3164 15.2696 78.9944 15.5916 78.887C15.9136 78.7797 16.343 78.7797 16.5577 78.887Z" fill="white"/>
<path d="M19.1336 77.4915C19.4557 77.5989 19.4557 77.9209 19.1336 78.0282C18.8116 78.1356 18.3822 78.1356 18.1675 78.0282C17.8455 77.9209 17.8455 77.5989 18.1675 77.4915C18.3822 77.2768 18.919 77.2768 19.1336 77.4915Z" fill="white"/>
<path d="M21.71 75.9888C22.032 76.0962 22.032 76.4182 21.71 76.5255C21.388 76.6329 20.9586 76.6329 20.744 76.5255C20.4219 76.4182 20.4219 76.0962 20.744 75.9888C20.9586 75.7741 21.388 75.7741 21.71 75.9888Z" fill="white"/>
<path d="M24.1787 74.486C24.5008 74.5934 24.5008 74.9154 24.1787 75.0227C23.8567 75.1301 23.4274 75.1301 23.2127 75.0227C22.8907 74.9154 22.8907 74.5934 23.2127 74.486C23.5347 74.3787 23.9641 74.3787 24.1787 74.486Z" fill="white"/>
<path d="M11.5125 78.887C11.8345 78.9944 11.8345 79.3164 11.5125 79.4237C11.1905 79.5311 10.7611 79.5311 10.5465 79.4237C10.2244 79.3164 10.2244 78.9944 10.5465 78.887C10.7611 78.7797 11.1905 78.7797 11.5125 78.887Z" fill="white"/>
<path d="M14.0887 77.4915C14.4108 77.5989 14.4108 77.9209 14.0887 78.0282C13.7667 78.1356 13.3373 78.1356 13.1226 78.0282C12.8006 77.9209 12.8006 77.5989 13.1226 77.4915C13.3373 77.2768 13.7667 77.2768 14.0887 77.4915Z" fill="white"/>
<path d="M16.5577 75.9888C16.8797 76.0962 16.8797 76.4182 16.5577 76.5255C16.2357 76.6329 15.8063 76.6329 15.5916 76.5255C15.2696 76.4182 15.2696 76.0962 15.5916 75.9888C15.9136 75.7741 16.343 75.7741 16.5577 75.9888Z" fill="white"/>
<path d="M19.1336 74.486C19.4557 74.5934 19.4557 74.9154 19.1336 75.0227C18.8116 75.1301 18.3822 75.1301 18.1675 75.0227C17.8455 74.9154 17.8455 74.5934 18.1675 74.486C18.3822 74.3787 18.919 74.3787 19.1336 74.486Z" fill="white"/>
<path d="M8.93638 77.3843C9.25841 77.4916 9.25841 77.8136 8.93638 77.921C8.61436 78.0283 8.18496 78.0283 7.97028 77.921C7.64825 77.8136 7.64825 77.4916 7.97028 77.3843C8.18496 77.2769 8.61436 77.2769 8.93638 77.3843Z" fill="white"/>
<path d="M11.5125 75.9888C11.8345 76.0962 11.8345 76.4182 11.5125 76.5255C11.1905 76.6329 10.7611 76.6329 10.5465 76.5255C10.2244 76.4182 10.2244 76.0962 10.5465 75.9888C10.7611 75.7741 11.1905 75.7741 11.5125 75.9888Z" fill="white"/>
<path d="M13.9812 74.486C14.3033 74.5934 14.3033 74.9154 13.9812 75.0227C13.6592 75.1301 13.2299 75.1301 13.0152 75.0227C12.6932 74.9154 12.6932 74.5934 13.0152 74.486C13.3372 74.3787 13.7666 74.3787 13.9812 74.486Z" fill="white"/>
<path d="M16.5577 72.9832C16.8797 73.0906 16.8797 73.4126 16.5577 73.5199C16.2357 73.6273 15.8063 73.6273 15.5916 73.5199C15.2696 73.4126 15.2696 73.0906 15.5916 72.9832C15.9136 72.8759 16.343 72.8759 16.5577 72.9832C16.8797 73.1979 16.343 72.8759 16.5577 72.9832Z" fill="white"/>
<path d="M6.35997 75.9888C6.68199 76.0962 6.68199 76.4182 6.35997 76.5255C6.03794 76.6329 5.60855 76.6329 5.39386 76.5255C5.07184 76.4182 5.07184 76.0962 5.39386 75.9888C5.71589 75.7741 6.14528 75.7741 6.35997 75.9888Z" fill="white"/>
<path d="M8.93595 74.486C9.25797 74.5934 9.25797 74.9154 8.93595 75.0227C8.61392 75.1301 8.18453 75.1301 7.96984 75.0227C7.75516 74.9154 7.64782 74.5934 7.96984 74.486C8.18453 74.3787 8.61392 74.3787 8.93595 74.486Z" fill="white"/>
<path d="M11.5125 72.9832C11.8345 73.0906 11.8345 73.4126 11.5125 73.5199C11.1905 73.6273 10.7611 73.6273 10.5465 73.5199C10.2244 73.4126 10.2244 73.0906 10.5465 72.9832C10.7611 72.8759 11.1905 72.8759 11.5125 72.9832Z" fill="white"/>
<path d="M13.9812 71.5878C14.3033 71.6951 14.3033 72.0171 13.9812 72.1245C13.6592 72.2318 13.2299 72.2318 13.0152 72.1245C12.6932 72.0171 12.6932 71.6951 13.0152 71.5878C13.3372 71.3731 13.7666 71.3731 13.9812 71.5878C14.3033 71.6951 13.7666 71.3731 13.9812 71.5878Z" fill="white"/>
<path d="M3.89122 74.486C4.21324 74.5934 4.21324 74.9154 3.89122 75.0227C3.56919 75.1301 3.1398 75.1301 2.92511 75.0227C2.60309 74.9154 2.60309 74.5934 2.92511 74.486C3.1398 74.3787 3.56919 74.3787 3.89122 74.486Z" fill="white"/>
<path d="M6.35997 72.9832C6.68199 73.0906 6.68199 73.4126 6.35997 73.5199C6.03794 73.6273 5.60855 73.6273 5.39386 73.5199C5.07184 73.4126 5.07184 73.0906 5.39386 72.9832C5.71589 72.8759 6.14528 72.8759 6.35997 72.9832Z" fill="white"/>
<path d="M8.93638 71.5878C9.25841 71.6951 9.25841 72.0171 8.93638 72.1245C8.61436 72.2318 8.18496 72.2318 7.97028 72.1245C7.64825 72.0171 7.64825 71.6951 7.97028 71.5878C8.18496 71.3731 8.61436 71.3731 8.93638 71.5878Z" fill="white"/>
<path d="M11.5125 70.6217C11.1905 70.729 10.7611 70.729 10.5465 70.6217C10.2244 70.5143 10.2244 70.1923 10.5465 70.085C10.7611 69.9776 11.7272 70.5143 11.5125 70.6217Z" fill="white"/>
<path d="M1.31498 72.9832C1.637 73.0906 1.637 73.4126 1.31498 73.5199C0.992953 73.6273 0.563625 73.6273 0.348941 73.5199C0.0269154 73.4126 0.0269154 73.0906 0.348941 72.9832C0.563625 72.8759 0.992953 72.8759 1.31498 72.9832Z" fill="white"/>
<path d="M3.89122 71.5878C4.21324 71.6951 4.21324 72.0171 3.89122 72.1245C3.56919 72.2318 3.1398 72.2318 2.92511 72.1245C2.60309 72.0171 2.60309 71.6951 2.92511 71.5878C3.1398 71.3731 3.56919 71.3731 3.89122 71.5878Z" fill="white"/>
<path d="M6.35997 70.0851C6.68199 70.1924 6.68199 70.5145 6.35997 70.6218C6.03794 70.7291 5.60855 70.7291 5.39386 70.6218C5.07184 70.5145 5.07184 70.1924 5.39386 70.0851C5.71589 69.9777 6.14528 69.9777 6.35997 70.0851Z" fill="white"/>
<path d="M69.5845 81.1412C69.9402 81.1412 70.2285 80.949 70.2285 80.7118C70.2285 80.4747 69.9402 80.2825 69.5845 80.2825C69.2288 80.2825 68.9404 80.4747 68.9404 80.7118C68.9404 80.949 69.2288 81.1412 69.5845 81.1412Z" fill="white"/>
<path d="M72.1604 79.6384C72.5161 79.6384 72.8045 79.4462 72.8045 79.209C72.8045 78.9719 72.5161 78.7797 72.1604 78.7797C71.8047 78.7797 71.5164 78.9719 71.5164 79.209C71.5164 79.4462 71.8047 79.6384 72.1604 79.6384Z" fill="white"/>
<path d="M75.1661 77.4915C75.4881 77.5989 75.4881 77.9209 75.1661 78.0282C74.844 78.1356 74.4147 78.1356 74.2 78.0282C73.878 77.9209 73.878 77.5989 74.2 77.4915C74.4147 77.2768 74.844 77.2768 75.1661 77.4915Z" fill="white"/>
<path d="M77.7425 75.9888C78.0646 76.0962 78.0646 76.4182 77.7425 76.5255C77.4205 76.6329 76.9911 76.6329 76.7764 76.5255C76.4544 76.4182 76.4544 76.0962 76.7764 75.9888C76.9911 75.8815 77.4205 75.8815 77.7425 75.9888Z" fill="white"/>
<path d="M80.2112 74.486C80.5332 74.5934 80.5332 74.9154 80.2112 75.0227C79.8892 75.1301 79.4599 75.1301 79.2452 75.0227C78.9232 74.9154 78.9232 74.5934 79.2452 74.486C79.5672 74.3787 79.9965 74.3787 80.2112 74.486Z" fill="white"/>
<path d="M82.7875 73.0905C83.1095 73.1979 83.1095 73.5199 82.7875 73.6272C82.4654 73.7346 82.036 73.7346 81.8214 73.6272C81.4993 73.5199 81.4993 73.1979 81.8214 73.0905C82.036 72.8758 82.4654 72.8758 82.7875 73.0905Z" fill="white"/>
<path d="M85.3636 71.5878C85.6856 71.6951 85.6856 72.0171 85.3636 72.1245C85.0415 72.2318 84.6122 72.2318 84.3975 72.1245C84.0755 72.0171 84.0755 71.6951 84.3975 71.5878C84.6122 71.3731 85.0415 71.3731 85.3636 71.5878Z" fill="white"/>
<path d="M87.4031 70.8363C87.7588 70.8363 88.0471 70.6441 88.0471 70.407C88.0471 70.1698 87.7588 69.9776 87.4031 69.9776C87.0474 69.9776 86.759 70.1698 86.759 70.407C86.759 70.6441 87.0474 70.8363 87.4031 70.8363Z" fill="white"/>
<path d="M89.9795 69.3336C90.3352 69.3336 90.6236 69.1413 90.6236 68.9042C90.6236 68.6671 90.3352 68.4749 89.9795 68.4749C89.6238 68.4749 89.3354 68.6671 89.3354 68.9042C89.3354 69.1413 89.6238 69.3336 89.9795 69.3336Z" fill="white"/>
<path d="M92.985 67.1868C93.307 67.2942 93.307 67.6162 92.985 67.7235C92.6629 67.8309 92.2335 67.8309 92.0189 67.7235C91.6968 67.6162 91.6968 67.2942 92.0189 67.1868C92.3409 67.0795 92.6629 66.9721 92.985 67.1868Z" fill="white"/>
<path d="M95.5611 65.684C95.8831 65.7914 95.8831 66.1134 95.5611 66.2207C95.239 66.3281 94.8097 66.3281 94.595 66.2207C94.273 66.1134 94.273 65.7914 94.595 65.684C94.8097 65.5767 95.239 65.5767 95.5611 65.684Z" fill="white"/>
<path d="M98.0296 64.1812C98.3517 64.2886 98.3517 64.6106 98.0296 64.7179C97.7076 64.8253 97.2782 64.8253 97.0635 64.7179C96.7415 64.6106 96.7415 64.2886 97.0635 64.1812C97.3856 64.0739 97.815 64.0739 98.0296 64.1812Z" fill="white"/>
<path d="M100.606 62.7858C100.929 62.8931 100.929 63.2151 100.606 63.3225C100.284 63.4298 99.8551 63.4298 99.6404 63.3225C99.3184 63.2151 99.3184 62.8931 99.6404 62.7858C99.9625 62.6784 100.284 62.5711 100.606 62.7858Z" fill="white"/>
<path d="M67.5448 78.887C67.8668 78.9944 67.8668 79.3164 67.5448 79.4237C67.2228 79.5311 66.7934 79.5311 66.5787 79.4237C66.2567 79.3164 66.2567 78.9944 66.5787 78.887C66.7934 78.7797 67.2228 78.7797 67.5448 78.887Z" fill="white"/>
<path d="M70.0137 77.4915C70.3357 77.5989 70.3357 77.9209 70.0137 78.0282C69.6917 78.1356 69.2624 78.1356 69.0477 78.0282C68.7256 77.9209 68.7256 77.5989 69.0477 77.4915C69.3697 77.2768 69.799 77.2768 70.0137 77.4915Z" fill="white"/>
<path d="M72.1604 76.7402C72.5161 76.7402 72.8045 76.548 72.8045 76.3108C72.8045 76.0737 72.5161 75.8815 72.1604 75.8815C71.8047 75.8815 71.5164 76.0737 71.5164 76.3108C71.5164 76.548 71.8047 76.7402 72.1604 76.7402Z" fill="white"/>
<path d="M75.1661 74.486C75.4881 74.5934 75.4881 74.9154 75.1661 75.0227C74.844 75.1301 74.4147 75.1301 74.2 75.0227C73.878 74.9154 73.878 74.5934 74.2 74.486C74.4147 74.3787 74.844 74.3787 75.1661 74.486Z" fill="white"/>
<path d="M77.7425 73.0905C78.0646 73.1979 78.0646 73.5199 77.7425 73.6272C77.4205 73.7346 76.9911 73.7346 76.7764 73.6272C76.4544 73.5199 76.4544 73.1979 76.7764 73.0905C76.9911 72.8758 77.4205 72.8758 77.7425 73.0905Z" fill="white"/>
<path d="M80.2112 71.5878C80.5332 71.6951 80.5332 72.0171 80.2112 72.1245C79.8892 72.2318 79.4599 72.2318 79.2452 72.1245C78.9232 72.0171 78.9232 71.6951 79.2452 71.5878C79.5672 71.3731 79.9965 71.3731 80.2112 71.5878Z" fill="white"/>
<path d="M82.7875 70.0851C83.1095 70.1924 83.1095 70.5145 82.7875 70.6218C82.4654 70.7291 82.036 70.7291 81.8214 70.6218C81.4993 70.5145 81.4993 70.1924 81.8214 70.0851C82.036 69.9777 82.4654 69.9777 82.7875 70.0851Z" fill="white"/>
<path d="M85.3636 68.6895C85.6856 68.7969 85.6856 69.1189 85.3636 69.2262C85.0415 69.3336 84.6122 69.3336 84.3975 69.2262C84.0755 69.1189 84.0755 68.7969 84.3975 68.6895C84.6122 68.4748 85.0415 68.4748 85.3636 68.6895Z" fill="white"/>
<path d="M87.8324 67.1868C88.1544 67.2941 88.1544 67.6161 87.8324 67.7235C87.5104 67.8308 87.081 67.8308 86.8663 67.7235C86.5442 67.6161 86.5442 67.2941 86.8663 67.1868C87.1883 66.9721 87.6177 66.9721 87.8324 67.1868Z" fill="white"/>
<path d="M89.9795 66.4353C90.3352 66.4353 90.6236 66.243 90.6236 66.0059C90.6236 65.7688 90.3352 65.5765 89.9795 65.5765C89.6238 65.5765 89.3354 65.7688 89.3354 66.0059C89.3354 66.243 89.6238 66.4353 89.9795 66.4353Z" fill="white"/>
<path d="M92.985 64.1812C93.307 64.2886 93.307 64.6106 92.985 64.7179C92.663 64.8253 92.2336 64.8253 92.0189 64.7179C91.8042 64.6106 91.6969 64.2886 92.0189 64.1812C92.2336 64.0739 92.663 64.0739 92.985 64.1812Z" fill="white"/>
<path d="M95.5611 62.7857C95.8831 62.893 95.8831 63.2151 95.5611 63.3224C95.239 63.4298 94.8097 63.4298 94.595 63.3224C94.273 63.2151 94.273 62.893 94.595 62.7857C94.8097 62.571 95.239 62.571 95.5611 62.7857Z" fill="white"/>
<path d="M98.0296 61.283C98.3517 61.3904 98.3517 61.7124 98.0296 61.8197C97.7076 61.9271 97.2782 61.9271 97.0635 61.8197C96.7415 61.7124 96.7415 61.3904 97.0635 61.283C97.3856 61.1757 97.815 61.1757 98.0296 61.283C98.3517 61.4977 97.815 61.1757 98.0296 61.283Z" fill="white"/>
<path d="M64.9685 77.4915C65.2906 77.5989 65.2906 77.9209 64.9685 78.0282C64.6465 78.1356 64.2172 78.1356 64.0025 78.0282C63.6805 77.9209 63.6805 77.5989 64.0025 77.4915C64.2172 77.2768 64.6465 77.2768 64.9685 77.4915Z" fill="white"/>
<path d="M67.5448 75.9888C67.8668 76.0962 67.8668 76.4182 67.5448 76.5255C67.2228 76.6329 66.7934 76.6329 66.5787 76.5255C66.2567 76.4182 66.2567 76.0962 66.5787 75.9888C66.7934 75.8815 67.2228 75.8815 67.5448 75.9888Z" fill="white"/>
<path d="M70.0137 74.486C70.3357 74.5934 70.3357 74.9154 70.0137 75.0227C69.6917 75.1301 69.2624 75.1301 69.0477 75.0227C68.7256 74.9154 68.7256 74.5934 69.0477 74.486C69.3697 74.3787 69.799 74.3787 70.0137 74.486Z" fill="white"/>
<path d="M72.5897 73.0905C72.9117 73.1979 72.9117 73.5199 72.5897 73.6272C72.2677 73.7346 71.8383 73.7346 71.6236 73.6272C71.3016 73.5199 71.3016 73.1979 71.6236 73.0905C71.9456 72.8758 72.375 72.8758 72.5897 73.0905Z" fill="white"/>
<path d="M75.1661 71.5878C75.4881 71.6951 75.4881 72.0171 75.1661 72.1245C74.844 72.2318 74.4147 72.2318 74.2 72.1245C73.878 72.0171 73.878 71.6951 74.2 71.5878C74.4147 71.3731 74.844 71.3731 75.1661 71.5878Z" fill="white"/>
<path d="M77.7425 70.0851C78.0646 70.1924 78.0646 70.5145 77.7425 70.6218C77.4205 70.7291 76.9911 70.7291 76.7764 70.6218C76.4544 70.5145 76.4544 70.1924 76.7764 70.0851C76.9911 69.9777 77.4205 69.9777 77.7425 70.0851Z" fill="white"/>
<path d="M80.2112 68.6895C80.5332 68.7969 80.5332 69.1189 80.2112 69.2262C79.8892 69.3336 79.4599 69.3336 79.2452 69.2262C78.9232 69.1189 78.9232 68.7969 79.2452 68.6895C79.5672 68.4748 79.9965 68.4748 80.2112 68.6895Z" fill="white"/>
<path d="M82.7875 67.1868C83.1095 67.2941 83.1095 67.6161 82.7875 67.7235C82.4654 67.8308 82.036 67.8308 81.8214 67.7235C81.4993 67.6161 81.4993 67.2941 81.8214 67.1868C82.036 66.9721 82.4654 66.9721 82.7875 67.1868Z" fill="white"/>
<path d="M85.3636 65.684C85.6856 65.7914 85.6856 66.1134 85.3636 66.2207C85.0415 66.3281 84.6122 66.3281 84.3975 66.2207C84.0755 66.1134 84.0755 65.7914 84.3975 65.684C84.6122 65.5767 85.0415 65.5767 85.3636 65.684Z" fill="white"/>
<path d="M87.8324 64.1812C88.1544 64.2886 88.1544 64.6106 87.8324 64.7179C87.5104 64.8253 87.081 64.8253 86.8663 64.7179C86.5442 64.6106 86.5442 64.2886 86.8663 64.1812C87.1883 64.0739 87.6177 64.0739 87.8324 64.1812Z" fill="white"/>
<path d="M90.4087 62.7857C90.7308 62.893 90.7308 63.2151 90.4087 63.3224C90.0867 63.4298 89.6574 63.4298 89.4427 63.3224C89.1207 63.2151 89.1207 62.893 89.4427 62.7857C89.7647 62.571 90.194 62.571 90.4087 62.7857Z" fill="white"/>
<path d="M92.985 61.283C93.307 61.3904 93.307 61.7124 92.985 61.8197C92.6629 61.9271 92.2335 61.9271 92.0189 61.8197C91.6968 61.7124 91.6968 61.3904 92.0189 61.283C92.2335 61.1757 92.6629 61.1757 92.985 61.283Z" fill="white"/>
<path d="M95.5611 59.7802C95.8831 59.8875 95.8831 60.2095 95.5611 60.3169C95.239 60.4242 94.8097 60.4242 94.595 60.3169C94.273 60.2095 94.273 59.8875 94.595 59.7802C94.8097 59.6728 95.239 59.6728 95.5611 59.7802Z" fill="white"/>
<path d="M62.3924 75.9888C62.7145 76.0962 62.7145 76.4182 62.3924 76.5255C62.0704 76.6329 61.641 76.6329 61.4263 76.5255C61.1043 76.4182 61.1043 76.0962 61.4263 75.9888C61.7484 75.8815 62.1778 75.8815 62.3924 75.9888Z" fill="white"/>
<path d="M64.9685 74.486C65.2906 74.5934 65.2906 74.9154 64.9685 75.0227C64.6465 75.1301 64.2172 75.1301 64.0025 75.0227C63.6805 74.9154 63.6805 74.5934 64.0025 74.486C64.2172 74.3787 64.6465 74.3787 64.9685 74.486Z" fill="white"/>
<path d="M67.5448 73.0905C67.8668 73.1979 67.8668 73.5199 67.5448 73.6272C67.2228 73.7346 66.7934 73.7346 66.5787 73.6272C66.2567 73.5199 66.2567 73.1979 66.5787 73.0905C66.7934 72.8758 67.2228 72.8758 67.5448 73.0905Z" fill="white"/>
<path d="M69.5845 72.3391C69.9402 72.3391 70.2285 72.1469 70.2285 71.9098C70.2285 71.6726 69.9402 71.4804 69.5845 71.4804C69.2288 71.4804 68.9404 71.6726 68.9404 71.9098C68.9404 72.1469 69.2288 72.3391 69.5845 72.3391Z" fill="white"/>
<path d="M72.5897 70.0851C72.9117 70.1924 72.9117 70.5145 72.5897 70.6218C72.2677 70.7291 71.8383 70.7291 71.6236 70.6218C71.3016 70.5145 71.3016 70.1924 71.6236 70.0851C71.9456 69.9777 72.375 69.9777 72.5897 70.0851Z" fill="white"/>
<path d="M75.1661 68.6895C75.4881 68.7969 75.4881 69.1189 75.1661 69.2262C74.844 69.3336 74.4147 69.3336 74.2 69.2262C73.878 69.1189 73.878 68.7969 74.2 68.6895C74.4147 68.4748 74.844 68.4748 75.1661 68.6895Z" fill="white"/>
<path d="M77.2055 67.8308C77.5612 67.8308 77.8496 67.6386 77.8496 67.4015C77.8496 67.1643 77.5612 66.9721 77.2055 66.9721C76.8498 66.9721 76.5615 67.1643 76.5615 67.4015C76.5615 67.6386 76.8498 67.8308 77.2055 67.8308Z" fill="white"/>
<path d="M80.2112 65.684C80.5332 65.7914 80.5332 66.1134 80.2112 66.2207C79.8892 66.3281 79.4599 66.3281 79.2452 66.2207C78.9232 66.1134 78.9232 65.7914 79.2452 65.684C79.5672 65.5767 79.9965 65.5767 80.2112 65.684Z" fill="white"/>
<path d="M82.7875 64.1812C83.1095 64.2886 83.1095 64.6106 82.7875 64.7179C82.4654 64.8253 82.036 64.8253 81.8214 64.7179C81.4993 64.6106 81.4993 64.2886 81.8214 64.1812C82.036 64.0739 82.4654 64.0739 82.7875 64.1812Z" fill="white"/>
<path d="M85.3636 62.7857C85.6856 62.893 85.6856 63.2151 85.3636 63.3224C85.0415 63.4298 84.6122 63.4298 84.3975 63.3224C84.0755 63.2151 84.0755 62.893 84.3975 62.7857C84.6122 62.571 85.0415 62.571 85.3636 62.7857Z" fill="white"/>
<path d="M87.8324 61.283C88.1544 61.3904 88.1544 61.7124 87.8324 61.8197C87.5104 61.9271 87.081 61.9271 86.8663 61.8197C86.5442 61.7124 86.5442 61.3904 86.8663 61.283C87.1883 61.1757 87.6177 61.1757 87.8324 61.283Z" fill="white"/>
<path d="M59.9234 74.486C60.2455 74.5934 60.2455 74.9154 59.9234 75.0227C59.6014 75.1301 59.172 75.1301 58.9573 75.0227C58.6353 74.9154 58.6353 74.5934 58.9573 74.486C59.172 74.3787 59.6014 74.3787 59.9234 74.486Z" fill="white"/>
<path d="M62.3924 73.0905C62.7145 73.1979 62.7145 73.5199 62.3924 73.6272C62.0704 73.7346 61.641 73.7346 61.4263 73.6272C61.1043 73.5199 61.1043 73.1979 61.4263 73.0905C61.7484 72.8758 62.1778 72.8758 62.3924 73.0905Z" fill="white"/>
<path d="M64.9685 71.5878C65.2906 71.6951 65.2906 72.0171 64.9685 72.1245C64.6465 72.2318 64.2172 72.2318 64.0025 72.1245C63.6805 72.0171 63.6805 71.6951 64.0025 71.5878C64.2172 71.3731 64.6465 71.3731 64.9685 71.5878Z" fill="white"/>
<path d="M67.5448 70.0851C67.8668 70.1924 67.8668 70.5145 67.5448 70.6218C67.2228 70.7291 66.7934 70.7291 66.5787 70.6218C66.2567 70.5145 66.2567 70.1924 66.5787 70.0851C66.9007 69.9777 67.2228 69.9777 67.5448 70.0851Z" fill="white"/>
<path d="M70.0137 68.6895C70.3357 68.7969 70.3357 69.1189 70.0137 69.2262C69.6917 69.3336 69.2624 69.3336 69.0477 69.2262C68.7256 69.1189 68.7256 68.7969 69.0477 68.6895C69.3697 68.4748 69.799 68.4748 70.0137 68.6895Z" fill="white"/>
<path d="M72.5897 67.1868C72.9117 67.2941 72.9117 67.6161 72.5897 67.7235C72.2677 67.8308 71.8383 67.8308 71.6236 67.7235C71.3016 67.6161 71.3016 67.2941 71.6236 67.1868C71.9456 66.9721 72.375 66.9721 72.5897 67.1868Z" fill="white"/>
<path d="M74.6296 66.4353C74.9853 66.4353 75.2737 66.243 75.2737 66.0059C75.2737 65.7688 74.9853 65.5765 74.6296 65.5765C74.2739 65.5765 73.9856 65.7688 73.9856 66.0059C73.9856 66.243 74.2739 66.4353 74.6296 66.4353Z" fill="white"/>
<path d="M77.7425 64.1812C78.0646 64.2886 78.0646 64.6106 77.7425 64.7179C77.4205 64.8253 76.9911 64.8253 76.7764 64.7179C76.4544 64.6106 76.4544 64.2886 76.7764 64.1812C76.9911 64.0739 77.4205 64.0739 77.7425 64.1812Z" fill="white"/>
<path d="M79.2452 62.7857C79.5673 62.6784 79.9966 62.6784 80.2113 62.7857C80.5333 62.893 80.5333 63.2151 80.2113 63.3224C79.8893 63.4298 79.4599 63.4298 79.2452 63.3224C79.0306 63.2151 79.0306 62.893 79.2452 62.7857C79.5673 62.571 79.0306 62.893 79.2452 62.7857Z" fill="white"/>
<path d="M57.3475 72.9832C57.6695 73.0906 57.6695 73.4126 57.3475 73.5199C57.0255 73.6273 56.5961 73.6273 56.3814 73.5199C56.0594 73.4126 56.0594 73.0906 56.3814 72.9832C56.5961 72.8759 57.0255 72.8759 57.3475 72.9832Z" fill="white"/>
<path d="M59.8164 71.5878C60.1385 71.6951 60.1385 72.0171 59.8164 72.1245C59.4944 72.2318 59.0651 72.2318 58.8504 72.1245C58.5284 72.0171 58.5284 71.6951 58.8504 71.5878C59.1724 71.3731 59.6018 71.3731 59.8164 71.5878Z" fill="white"/>
<path d="M52.3025 99.3893C52.6246 99.4967 52.6246 99.8187 52.3025 99.9261C51.9805 100.033 51.5512 100.033 51.3365 99.9261C51.0145 99.8187 51.0145 99.4967 51.3365 99.3893C51.5512 99.282 51.9805 99.282 52.3025 99.3893Z" fill="white"/>
<path d="M54.3418 98.6379C54.6975 98.6379 54.9859 98.4457 54.9859 98.2085C54.9859 97.9714 54.6975 97.7792 54.3418 97.7792C53.9861 97.7792 53.6978 97.9714 53.6978 98.2085C53.6978 98.4457 53.9861 98.6379 54.3418 98.6379Z" fill="white"/>
<path d="M57.3475 96.4911C57.6695 96.5984 57.6695 96.9205 57.3475 97.0278C57.0255 97.1351 56.5961 97.1351 56.3814 97.0278C56.0594 96.9205 56.0594 96.5984 56.3814 96.4911C56.7034 96.3837 57.1328 96.3837 57.3475 96.4911Z" fill="white"/>
<path d="M59.9234 94.9883C60.2455 95.0957 60.2455 95.4177 59.9234 95.5251C59.6014 95.6324 59.172 95.6324 58.9573 95.5251C58.6353 95.4177 58.6353 95.0957 58.9573 94.9883C59.172 94.881 59.6014 94.881 59.9234 94.9883Z" fill="white"/>
<path d="M62.4998 93.5928C62.8218 93.7002 62.8218 94.0222 62.4998 94.1295C62.1778 94.2369 61.7484 94.2369 61.5338 94.1295C61.2117 94.0222 61.2117 93.7002 61.5338 93.5928C61.7484 93.3782 62.1778 93.3782 62.4998 93.5928Z" fill="white"/>
<path d="M64.9685 92.0901C65.2906 92.1975 65.2906 92.5195 64.9685 92.6269C64.6465 92.7342 64.2172 92.7342 64.0025 92.6269C63.6805 92.5195 63.6805 92.1975 64.0025 92.0901C64.3245 91.9828 64.7539 91.9828 64.9685 92.0901Z" fill="white"/>
<path d="M67.5448 90.5873C67.8668 90.6947 67.8668 91.0167 67.5448 91.1241C67.2228 91.2314 66.7934 91.2314 66.5787 91.1241C66.2567 91.0167 66.2567 90.6947 66.5787 90.5873C66.7934 90.48 67.2228 90.48 67.5448 90.5873Z" fill="white"/>
<path d="M70.1212 89.1918C70.4432 89.2992 70.4432 89.6212 70.1212 89.7285C69.7992 89.8359 69.3698 89.8359 69.1551 89.7285C68.8331 89.6212 68.8331 89.2992 69.1551 89.1918C69.3698 88.9772 69.7992 88.9772 70.1212 89.1918Z" fill="white"/>
<path d="M72.5897 87.689C72.9117 87.7964 72.9117 88.1184 72.5897 88.2257C72.2677 88.3331 71.8383 88.3331 71.6236 88.2257C71.3016 88.1184 71.3016 87.7964 71.6236 87.689C71.9456 87.4743 72.375 87.4743 72.5897 87.689Z" fill="white"/>
<path d="M75.1661 86.1863C75.4881 86.2937 75.4881 86.6157 75.1661 86.7231C74.844 86.8304 74.4147 86.8304 74.2 86.7231C73.878 86.6157 73.878 86.2937 74.2 86.1863C74.522 86.079 74.9514 86.079 75.1661 86.1863Z" fill="white"/>
<path d="M47.15 99.3893C47.472 99.4967 47.472 99.8187 47.15 99.9261C46.828 100.033 46.3986 100.033 46.1839 99.9261C45.8619 99.8187 45.8619 99.4967 46.1839 99.3893C46.5059 99.282 46.9353 99.282 47.15 99.3893Z" fill="white"/>
<path d="M49.7262 97.9939C50.0482 98.1012 50.0482 98.4233 49.7262 98.5306C49.4042 98.638 48.9748 98.638 48.7601 98.5306C48.438 98.4233 48.438 98.1012 48.7601 97.9939C48.9748 97.7792 49.5115 97.7792 49.7262 97.9939Z" fill="white"/>
<path d="M52.3025 96.4911C52.6246 96.5984 52.6246 96.9205 52.3025 97.0278C51.9805 97.1351 51.5512 97.1351 51.3365 97.0278C51.0145 96.9205 51.0145 96.5984 51.3365 96.4911C51.5512 96.3837 51.9805 96.3837 52.3025 96.4911Z" fill="white"/>
<path d="M54.771 94.9883C55.0931 95.0957 55.0931 95.4177 54.771 95.5251C54.449 95.6324 54.0197 95.6324 53.805 95.5251C53.483 95.4177 53.483 95.0957 53.805 94.9883C54.127 94.881 54.5564 94.881 54.771 94.9883Z" fill="white"/>
<path d="M57.3475 93.5928C57.6695 93.7002 57.6695 94.0222 57.3475 94.1295C57.0255 94.2369 56.5961 94.2369 56.3814 94.1295C56.0594 94.0222 56.0594 93.7002 56.3814 93.5928C56.7034 93.3782 57.1328 93.3782 57.3475 93.5928Z" fill="white"/>
<path d="M59.9234 92.0901C60.2455 92.1975 60.2455 92.5195 59.9234 92.6269C59.6014 92.7342 59.172 92.7342 58.9573 92.6269C58.6353 92.5195 58.6353 92.1975 58.9573 92.0901C59.172 91.9828 59.6014 91.9828 59.9234 92.0901Z" fill="white"/>
<path d="M62.4998 90.5873C62.8218 90.6947 62.8218 91.0167 62.4998 91.1241C62.1778 91.2314 61.7484 91.2314 61.5338 91.1241C61.2117 91.0167 61.2117 90.6947 61.5338 90.5873C61.7484 90.48 62.1778 90.48 62.4998 90.5873Z" fill="white"/>
<path d="M64.9685 89.1918C65.2906 89.2992 65.2906 89.6212 64.9685 89.7285C64.6465 89.8359 64.2172 89.8359 64.0025 89.7285C63.6805 89.6212 63.6805 89.2992 64.0025 89.1918C64.3245 88.9772 64.7539 88.9772 64.9685 89.1918Z" fill="white"/>
<path d="M67.0083 88.4404C67.364 88.4404 67.6523 88.2482 67.6523 88.011C67.6523 87.7739 67.364 87.5817 67.0083 87.5817C66.6526 87.5817 66.3643 87.7739 66.3643 88.011C66.3643 88.2482 66.6526 88.4404 67.0083 88.4404Z" fill="white"/>
<path d="M70.1212 86.1863C70.4432 86.2937 70.4432 86.6157 70.1212 86.7231C69.7992 86.8304 69.3698 86.8304 69.1551 86.7231C68.8331 86.6157 68.8331 86.2937 69.1551 86.1863C69.3698 86.079 69.7992 86.079 70.1212 86.1863Z" fill="white"/>
<path d="M72.5897 84.7908C72.9117 84.8981 72.9117 85.2201 72.5897 85.3275C72.2677 85.4348 71.8383 85.4348 71.6236 85.3275C71.3016 85.2201 71.3016 84.8981 71.6236 84.7908C71.9456 84.5761 72.375 84.5761 72.5897 84.7908Z" fill="white"/>
<path d="M44.1443 98.6379C44.5 98.6379 44.7884 98.4457 44.7884 98.2085C44.7884 97.9714 44.5 97.7792 44.1443 97.7792C43.7886 97.7792 43.5002 97.9714 43.5002 98.2085C43.5002 98.4457 43.7886 98.6379 44.1443 98.6379Z" fill="white"/>
<path d="M47.15 96.4911C47.472 96.5984 47.472 96.9205 47.15 97.0278C46.828 97.1351 46.3986 97.1351 46.1839 97.0278C45.8619 96.9205 45.8619 96.5984 46.1839 96.4911C46.5059 96.3837 46.9353 96.3837 47.15 96.4911Z" fill="white"/>
<path d="M49.1895 95.7397C49.5452 95.7397 49.8335 95.5475 49.8335 95.3104C49.8335 95.0732 49.5452 94.881 49.1895 94.881C48.8338 94.881 48.5454 95.0732 48.5454 95.3104C48.5454 95.5475 48.8338 95.7397 49.1895 95.7397Z" fill="white"/>
<path d="M51.7656 94.2369C52.1213 94.2369 52.4097 94.0447 52.4097 93.8075C52.4097 93.5704 52.1213 93.3782 51.7656 93.3782C51.4099 93.3782 51.1216 93.5704 51.1216 93.8075C51.1216 94.0447 51.4099 94.2369 51.7656 94.2369Z" fill="white"/>
<path d="M54.771 92.0901C55.0931 92.1975 55.0931 92.5195 54.771 92.6269C54.449 92.7342 54.0197 92.7342 53.805 92.6269C53.483 92.5195 53.483 92.1975 53.805 92.0901C54.127 91.9828 54.5564 91.9828 54.771 92.0901Z" fill="white"/>
<path d="M57.3475 90.5873C57.6695 90.6947 57.6695 91.0167 57.3475 91.1241C57.0255 91.2314 56.5961 91.2314 56.3814 91.1241C56.0594 91.0167 56.0594 90.6947 56.3814 90.5873C56.7034 90.48 57.1328 90.48 57.3475 90.5873Z" fill="white"/>
<path d="M59.9234 89.1918C60.2455 89.2992 60.2455 89.6212 59.9234 89.7285C59.6014 89.8359 59.172 89.8359 58.9573 89.7285C58.6353 89.6212 58.6353 89.2992 58.9573 89.1918C59.172 88.9772 59.6014 88.9772 59.9234 89.1918Z" fill="white"/>
<path d="M62.4998 87.689C62.8218 87.7964 62.8218 88.1184 62.4998 88.2257C62.1778 88.3331 61.7484 88.3331 61.5338 88.2257C61.2117 88.1184 61.2117 87.7964 61.5338 87.689C61.7484 87.4743 62.1778 87.4743 62.4998 87.689Z" fill="white"/>
<path d="M64.9685 86.1863C65.2906 86.2937 65.2906 86.6157 64.9685 86.7231C64.6465 86.8304 64.2172 86.8304 64.0025 86.7231C63.6805 86.6157 63.6805 86.2937 64.0025 86.1863C64.3245 86.079 64.7539 86.079 64.9685 86.1863Z" fill="white"/>
<path d="M67.0083 85.4348C67.364 85.4348 67.6523 85.2426 67.6523 85.0055C67.6523 84.7683 67.364 84.5761 67.0083 84.5761C66.6526 84.5761 66.3643 84.7683 66.3643 85.0055C66.3643 85.2426 66.6526 85.4348 67.0083 85.4348Z" fill="white"/>
<path d="M70.1212 83.288C70.4432 83.3954 70.4432 83.7174 70.1212 83.8247C69.7992 83.9321 69.3698 83.9321 69.1551 83.8247C68.8331 83.7174 68.8331 83.3954 69.1551 83.288C69.3698 83.0733 69.7992 83.0733 70.1212 83.288Z" fill="white"/>
<path d="M77.2055 85.4348C77.5612 85.4348 77.8496 85.2426 77.8496 85.0055C77.8496 84.7683 77.5612 84.5761 77.2055 84.5761C76.8498 84.5761 76.5615 84.7683 76.5615 85.0055C76.5615 85.2426 76.8498 85.4348 77.2055 85.4348Z" fill="white"/>
<path d="M79.782 83.9322C80.1377 83.9322 80.4261 83.7399 80.4261 83.5028C80.4261 83.2657 80.1377 83.0734 79.782 83.0734C79.4263 83.0734 79.1379 83.2657 79.1379 83.5028C79.1379 83.7399 79.4263 83.9322 79.782 83.9322Z" fill="white"/>
<path d="M82.7875 81.7853C83.1095 81.8926 83.1095 82.2146 82.7875 82.322C82.4654 82.4293 82.036 82.4293 81.8214 82.322C81.4993 82.2146 81.4993 81.8926 81.8214 81.7853C82.1434 81.6779 82.5728 81.6779 82.7875 81.7853Z" fill="white"/>
<path d="M85.3636 80.2825C85.6856 80.3899 85.6856 80.7119 85.3636 80.8192C85.0415 80.9266 84.6122 80.9266 84.3975 80.8192C84.0755 80.7119 84.0755 80.3899 84.3975 80.2825C84.6122 80.1752 85.0415 80.1752 85.3636 80.2825Z" fill="white"/>
<path d="M87.9398 78.887C88.2618 78.9943 88.2618 79.3163 87.9398 79.4237C87.6178 79.531 87.1884 79.531 86.9737 79.4237C86.6517 79.3163 86.6517 78.9943 86.9737 78.887C87.1884 78.6723 87.6178 78.6723 87.9398 78.887Z" fill="white"/>
<path d="M90.4087 77.3843C90.7308 77.4916 90.7308 77.8136 90.4087 77.921C90.0867 78.0283 89.6574 78.0283 89.4427 77.921C89.1207 77.8136 89.1207 77.4916 89.4427 77.3843C89.7647 77.2769 90.194 77.2769 90.4087 77.3843Z" fill="white"/>
<path d="M92.985 75.8815C93.307 75.9889 93.307 76.3109 92.985 76.4182C92.6629 76.5256 92.2335 76.5256 92.0189 76.4182C91.6968 76.3109 91.6968 75.9889 92.0189 75.8815C92.2335 75.7742 92.7703 75.7742 92.985 75.8815Z" fill="white"/>
<path d="M95.5611 74.486C95.8831 74.5933 95.8831 74.9153 95.5611 75.0227C95.239 75.13 94.8097 75.13 94.595 75.0227C94.273 74.9153 94.273 74.5933 94.595 74.486C94.8097 74.2713 95.239 74.2713 95.5611 74.486Z" fill="white"/>
<path d="M98.0296 72.9832C98.3517 73.0906 98.3517 73.4126 98.0296 73.5199C97.7076 73.6273 97.2782 73.6273 97.0635 73.5199C96.7415 73.4126 96.7415 73.0906 97.0635 72.9832C97.3856 72.7685 97.815 72.7685 98.0296 72.9832Z" fill="white"/>
<path d="M100.177 72.2318C100.533 72.2318 100.821 72.0395 100.821 71.8024C100.821 71.5653 100.533 71.373 100.177 71.373C99.8213 71.373 99.533 71.5653 99.533 71.8024C99.533 72.0395 99.8213 72.2318 100.177 72.2318Z" fill="white"/>
<path d="M103.182 70.085C103.505 70.1923 103.505 70.5143 103.182 70.6217C102.86 70.729 102.431 70.729 102.216 70.6217C101.894 70.5143 101.894 70.1923 102.216 70.085C102.431 69.8703 102.86 69.8703 103.182 70.085Z" fill="white"/>
<path d="M105.758 68.5822C106.08 68.6896 106.08 69.0116 105.758 69.1189C105.436 69.2263 105.007 69.2263 104.792 69.1189C104.47 69.0116 104.47 68.6896 104.792 68.5822C105.007 68.3675 105.436 68.3675 105.758 68.5822Z" fill="white"/>
<path d="M75.1661 83.288C75.4881 83.3954 75.4881 83.7174 75.1661 83.8247C74.844 83.9321 74.4147 83.9321 74.2 83.8247C73.878 83.7174 73.878 83.3954 74.2 83.288C74.522 83.0733 74.9514 83.0733 75.1661 83.288Z" fill="white"/>
<path d="M77.7425 81.7853C78.0646 81.8926 78.0646 82.2146 77.7425 82.322C77.4205 82.4293 76.9911 82.4293 76.7764 82.322C76.4544 82.2146 76.4544 81.8926 76.7764 81.7853C76.9911 81.6779 77.4205 81.6779 77.7425 81.7853Z" fill="white"/>
<path d="M80.3185 80.2825C80.6405 80.3899 80.6405 80.7119 80.3185 80.8192C79.9964 80.9266 79.567 80.9266 79.3524 80.8192C79.0303 80.7119 79.0303 80.3899 79.3524 80.2825C79.567 80.1752 79.9964 80.1752 80.3185 80.2825Z" fill="white"/>
<path d="M82.7875 78.887C83.1095 78.9943 83.1095 79.3163 82.7875 79.4237C82.4654 79.531 82.036 79.531 81.8214 79.4237C81.4993 79.3163 81.4993 78.9943 81.8214 78.887C82.1434 78.6723 82.5728 78.6723 82.7875 78.887Z" fill="white"/>
<path d="M84.8271 78.1357C85.1828 78.1357 85.4712 77.9434 85.4712 77.7063C85.4712 77.4692 85.1828 77.2769 84.8271 77.2769C84.4714 77.2769 84.1831 77.4692 84.1831 77.7063C84.1831 77.9434 84.4714 78.1357 84.8271 78.1357Z" fill="white"/>
<path d="M87.9398 75.8815C88.2618 75.9889 88.2618 76.3109 87.9398 76.4182C87.6178 76.5256 87.1884 76.5256 86.9737 76.4182C86.6517 76.3109 86.6517 75.9889 86.9737 75.8815C87.1884 75.7742 87.6178 75.7742 87.9398 75.8815Z" fill="white"/>
<path d="M90.4088 74.486C90.7308 74.5933 90.7308 74.9153 90.4088 75.0227C90.0868 75.13 89.6574 75.13 89.4427 75.0227C89.2281 74.9153 89.1207 74.5933 89.4427 74.486C89.7648 74.2713 90.1941 74.2713 90.4088 74.486Z" fill="white"/>
<path d="M92.985 72.9832C93.307 73.0906 93.307 73.4126 92.985 73.5199C92.6629 73.6273 92.2335 73.6273 92.0189 73.5199C91.6968 73.4126 91.6968 73.0906 92.0189 72.9832C92.2335 72.7685 92.7703 72.7685 92.985 72.9832Z" fill="white"/>
<path d="M95.0244 72.2318C95.3801 72.2318 95.6685 72.0395 95.6685 71.8024C95.6685 71.5653 95.3801 71.373 95.0244 71.373C94.6687 71.373 94.3804 71.5653 94.3804 71.8024C94.3804 72.0395 94.6687 72.2318 95.0244 72.2318Z" fill="white"/>
<path d="M98.0296 70.085C98.3517 70.1923 98.3517 70.5143 98.0296 70.6217C97.7076 70.729 97.2782 70.729 97.0635 70.6217C96.7415 70.5143 96.7415 70.1923 97.0635 70.085C97.3856 69.8703 97.815 69.8703 98.0296 70.085Z" fill="white"/>
<path d="M100.606 68.5822C100.929 68.6896 100.929 69.0116 100.606 69.1189C100.284 69.2263 99.8551 69.2263 99.6404 69.1189C99.3184 69.0116 99.3184 68.6896 99.6404 68.5822C99.9625 68.3675 100.392 68.3675 100.606 68.5822Z" fill="white"/>
<path d="M102.646 67.8308C103.001 67.8308 103.29 67.6386 103.29 67.4015C103.29 67.1643 103.001 66.9721 102.646 66.9721C102.29 66.9721 102.001 67.1643 102.001 67.4015C102.001 67.6386 102.29 67.8308 102.646 67.8308Z" fill="white"/>
<path d="M105.758 65.5766C106.08 65.6839 106.08 66.006 105.758 66.1133C105.436 66.2207 105.007 66.2207 104.792 66.1133C104.47 66.006 104.47 65.6839 104.792 65.5766C105.007 65.4693 105.436 65.4693 105.758 65.5766Z" fill="white"/>
<path d="M72.5897 81.7853C72.9117 81.8926 72.9117 82.2146 72.5897 82.322C72.2677 82.4293 71.8383 82.4293 71.6236 82.322C71.3016 82.2146 71.3016 81.8926 71.6236 81.7853C71.9456 81.6779 72.375 81.6779 72.5897 81.7853Z" fill="white"/>
<path d="M75.1661 80.2825C75.4881 80.3899 75.4881 80.7119 75.1661 80.8192C74.844 80.9266 74.4147 80.9266 74.2 80.8192C73.878 80.7119 73.878 80.3899 74.2 80.2825C74.522 80.1752 74.9514 80.1752 75.1661 80.2825Z" fill="white"/>
<path d="M77.7425 78.887C78.0646 78.9943 78.0646 79.3163 77.7425 79.4237C77.4205 79.531 76.9911 79.531 76.7764 79.4237C76.4544 79.3163 76.4544 78.9943 76.7764 78.887C76.9911 78.6723 77.4205 78.6723 77.7425 78.887Z" fill="white"/>
<path d="M79.782 78.1357C80.1377 78.1357 80.4261 77.9434 80.4261 77.7063C80.4261 77.4692 80.1377 77.2769 79.782 77.2769C79.4263 77.2769 79.1379 77.4692 79.1379 77.7063C79.1379 77.9434 79.4263 78.1357 79.782 78.1357Z" fill="white"/>
<path d="M82.7875 75.8815C83.1095 75.9889 83.1095 76.3109 82.7875 76.4182C82.4654 76.5256 82.036 76.5256 81.8214 76.4182C81.4993 76.3109 81.4993 75.9889 81.8214 75.8815C82.1434 75.7742 82.5728 75.7742 82.7875 75.8815Z" fill="white"/>
<path d="M85.3636 74.486C85.6856 74.5933 85.6856 74.9153 85.3636 75.0227C85.0415 75.13 84.6122 75.13 84.3975 75.0227C84.0755 74.9153 84.0755 74.5933 84.3975 74.486C84.6122 74.2713 85.0415 74.2713 85.3636 74.486Z" fill="white"/>
<path d="M87.9398 72.9832C88.2618 73.0906 88.2618 73.4126 87.9398 73.5199C87.6178 73.6273 87.1884 73.6273 86.9737 73.5199C86.6517 73.4126 86.6517 73.0906 86.9737 72.9832C87.1884 72.7685 87.6178 72.7685 87.9398 72.9832Z" fill="white"/>
<path d="M90.4088 71.4805C90.7308 71.5879 90.7308 71.9099 90.4088 72.0172C90.0868 72.1246 89.6574 72.1246 89.4427 72.0172C89.2281 71.9099 89.1207 71.5879 89.4427 71.4805C89.7648 71.3732 90.1941 71.3732 90.4088 71.4805Z" fill="white"/>
<path d="M92.5554 70.729C92.9111 70.729 93.1995 70.5368 93.1995 70.2997C93.1995 70.0625 92.9111 69.8703 92.5554 69.8703C92.1997 69.8703 91.9114 70.0625 91.9114 70.2997C91.9114 70.5368 92.1997 70.729 92.5554 70.729Z" fill="white"/>
<path d="M95.5611 68.5822C95.8831 68.6896 95.8831 69.0116 95.5611 69.1189C95.239 69.2263 94.8097 69.2263 94.595 69.1189C94.273 69.0116 94.273 68.6896 94.595 68.5822C94.8097 68.3675 95.239 68.3675 95.5611 68.5822Z" fill="white"/>
<path d="M98.0296 67.0795C98.3517 67.1868 98.3517 67.5088 98.0296 67.6162C97.7076 67.7235 97.2782 67.7235 97.0635 67.6162C96.7415 67.5088 96.7415 67.1868 97.0635 67.0795C97.3856 66.9721 97.815 66.9721 98.0296 67.0795Z" fill="white"/>
<path d="M100.606 65.5766C100.929 65.6839 100.929 66.006 100.606 66.1133C100.284 66.2207 99.8551 66.2207 99.6404 66.1133C99.3184 66.006 99.3184 65.6839 99.6404 65.5766C99.9625 65.4693 100.392 65.4693 100.606 65.5766Z" fill="white"/>
<path d="M102.646 64.8252C103.001 64.8252 103.29 64.633 103.29 64.3959C103.29 64.1587 103.001 63.9665 102.646 63.9665C102.29 63.9665 102.001 64.1587 102.001 64.3959C102.001 64.633 102.29 64.8252 102.646 64.8252Z" fill="white"/>
<path d="M103.504 58.4919V56.8818H102.538C102.431 56.8818 102.431 56.7745 102.324 56.7745L61.963 33.4813C60.2456 32.4078 57.1327 32.6225 55.0932 33.8033L3.56907 63.7517C3.24705 63.9664 2.92499 64.181 2.60297 64.3957H1.85156V67.938C1.85156 68.5821 2.28097 69.2261 3.03236 69.6555L43.3929 92.9487C45.1104 94.0221 48.2233 93.8074 50.2628 92.6267L101.787 62.6783C102.86 62.0342 103.397 61.2828 103.504 60.5314V59.5653V58.4919Z" fill="#4B8EC8"/>
<path d="M103.504 60.4242V59.4581V58.3847C103.504 58.3847 103.504 58.3847 103.504 58.2774V56.8819H102.538C102.431 56.8819 102.431 56.7746 102.324 56.7746L87.4032 48.0799C86.2224 48.0799 85.471 48.1872 85.0417 48.2946C82.8948 49.046 48.6528 68.9042 47.9014 72.0171C47.2573 75.0227 45.9692 90.1579 45.9692 90.1579V93.4855C47.472 93.5929 49.0821 93.2708 50.3702 92.5194L101.894 62.5711C102.86 62.0343 103.397 61.283 103.504 60.4242Z" fill="#16110D"/>
<path d="M46.2912 93.9149C45.1105 93.9149 43.9297 93.7002 43.071 93.1635L2.71037 69.8703C1.85164 69.3336 1.31494 68.6895 1.31494 67.8308V63.9665H2.28104C2.49573 63.7518 2.81774 63.5371 3.13977 63.3224L54.6639 33.374C56.8107 32.1933 60.031 31.9786 61.9631 33.052L102.324 56.3452L102.431 56.4525H103.612V60.4242C103.612 61.3903 102.86 62.249 101.787 62.893L50.2629 92.8414C49.2968 93.5928 47.794 93.9149 46.2912 93.9149ZM2.17366 64.8252V67.9381C2.17366 68.4748 2.49572 68.9042 3.13977 69.3336L43.5003 92.6268C45.2178 93.5928 48.116 93.4855 50.0482 92.3047L101.572 62.3563C102.538 61.8196 103.075 61.1756 103.075 60.4242V58.3847V57.2039H102.324L102.216 57.0966C102.109 56.9892 102.109 56.9892 102.002 56.9892L61.6411 33.696C59.9236 32.73 57.0254 32.8373 55.0933 34.0181L3.56916 63.9665C3.24714 64.1811 2.92506 64.3958 2.71037 64.6105L2.60306 64.7179H2.17366V64.8252Z" fill="#16110D"/>
<path d="M43.2857 89.5139L2.92509 66.2207C1.20762 65.1472 1.4223 63.4298 3.4618 62.249L54.9859 32.3006C57.0254 31.1198 60.1384 31.0125 61.8558 31.9786L102.216 55.2718C103.934 56.3452 103.719 58.0627 101.68 59.2434L50.1555 89.1918C48.2234 90.3726 45.1105 90.5873 43.2857 89.5139Z" fill="#4B8EC8"/>
<path d="M46.2915 90.5873C45.1108 90.5873 43.93 90.3726 43.0713 89.8359L2.81804 66.5427C1.9593 66.006 1.42261 65.2546 1.42261 64.5032C1.42261 63.5371 2.06661 62.6784 3.24737 61.927L54.7715 31.9786C56.9183 30.7978 60.1386 30.5831 62.0708 31.6565L102.431 54.9497C103.29 55.4864 103.827 56.2378 103.827 56.9892C103.827 57.9553 103.183 58.814 102.002 59.5654L50.4778 89.5138C49.2971 90.2652 47.7943 90.5873 46.2915 90.5873ZM58.9579 31.6565C57.6697 31.6565 56.2743 31.9786 55.2009 32.6226L3.67676 62.571C2.71068 63.1077 2.17395 63.8591 2.17395 64.5032C2.17395 65.0399 2.496 65.5766 3.14005 65.8986L43.5006 89.1918C45.2181 90.1579 48.1163 90.0505 50.0485 88.8698L101.573 58.9214C102.539 58.3847 103.075 57.6333 103.075 56.9892C103.075 56.4525 102.753 55.9158 102.109 55.5938L61.7487 32.3006C60.9973 31.8712 60.0313 31.6565 58.9579 31.6565Z" fill="#16110D"/>
<path d="M47.1501 87.2596L46.9354 87.1523L8.07764 64.7178L57.1329 36.1649L57.3476 36.2722L96.2054 58.7067L47.1501 87.2596Z" fill="#16110D"/>
<path d="M47.3648 85.0055L7.75562 62.1417L57.777 33.052L97.3861 55.9158L47.3648 85.0055Z" fill="white"/>
<path d="M47.365 85.4348L47.1503 85.3275L7.00439 62.1416L57.6698 32.6226L57.8845 32.73L98.0304 55.9158L47.365 85.4348ZM8.50721 62.1416L47.365 84.5761L96.6349 55.9158L57.7772 33.4814L8.50721 62.1416Z" fill="#16110D"/>
<path d="M91.0531 42.6055V42.7128L86.974 40.3513C86.8667 40.3513 86.8667 40.4586 86.7594 40.4586C85.5786 41.1027 84.9346 42.1761 83.8612 41.532C82.6804 40.888 81.4996 40.6733 82.6804 40.0293C82.7877 40.0293 82.8951 39.9219 82.8951 39.9219L83.2171 36.9163L81.6069 36.3796L81.3923 39.1705L76.8839 34.6622C76.1325 34.2328 74.7371 34.4475 74.5224 35.0915L73.9857 36.487H73.449V39.7072C73.449 39.9219 73.5563 40.1366 73.8784 40.2439L86.1153 47.3285C86.4373 47.5432 86.9741 47.6505 87.4034 47.5432L91.9118 47.0065C92.6632 46.8991 93.0926 46.5771 92.9852 46.1477V42.9275L91.0531 42.6055Z" fill="#16110D"/>
<path d="M87.296 47.9725C86.8666 47.9725 86.4372 47.8652 86.1152 47.6505L73.8782 40.5659C73.6635 40.4586 73.5562 40.3512 73.4488 40.2439L73.2341 40.3512V36.0576L73.8782 36.1649L74.3076 34.9841C74.4149 34.6621 74.7369 34.4474 75.1663 34.2328C75.8103 34.0181 76.6691 34.0181 77.2058 34.3401L77.3131 34.4474L81.1775 38.4191L81.3922 36.0576L83.6463 36.9163V40.6733L83.0023 40.4586C82.8949 40.5659 82.7876 40.5659 82.7876 40.5659C82.6802 40.6733 82.5729 40.6733 82.5729 40.7806C82.6802 40.8879 83.0022 40.9953 83.2169 41.1026C83.4316 41.21 83.7536 41.3173 83.9683 41.532C84.6124 41.854 84.9344 41.6393 85.6858 41.1026C85.9005 40.888 86.2225 40.6733 86.5446 40.4586L86.6519 40.3512L86.8666 40.2439L87.0813 40.3512L90.7309 42.3907L93.1998 42.7128C93.3071 42.7128 93.4144 42.8201 93.4144 42.9274V46.1477C93.4144 46.6844 92.8777 47.2211 92.019 47.3285L87.5106 47.8652C87.5106 47.9725 87.4033 47.9725 87.296 47.9725ZM73.9855 39.7072C73.9855 39.8145 74.0929 39.9219 74.2002 40.0292L86.4372 47.1138C86.7592 47.2211 87.0812 47.3285 87.5106 47.3285L92.019 46.7918C92.5557 46.6844 92.8777 46.4697 92.7704 46.3624V43.3568L91.3749 43.1421V43.4642L87.0813 40.9953C87.0813 40.9953 87.0812 40.9953 86.9739 40.9953C86.6519 41.21 86.4372 41.3173 86.2225 41.532C85.4712 42.0687 84.7197 42.6054 83.7536 42.0687C83.5389 41.9614 83.217 41.854 83.0023 41.6393C82.3582 41.3173 81.9289 41.1026 81.9289 40.6733C81.9289 40.2439 82.2509 40.0292 82.5729 39.8145C82.5729 39.8145 83.0023 40.1366 83.1096 40.0292V37.2383L82.1435 36.809L81.8215 39.9219L76.8838 34.9841C76.5618 34.7695 75.9177 34.7695 75.4884 34.8768C75.2737 34.9841 75.059 35.0915 75.059 35.1988L74.4149 36.809H73.9855V39.7072Z" fill="#16110D"/>
<path d="M92.7706 42.3908L87.0815 39.0632C86.9741 39.0632 86.9741 39.1705 86.8668 39.1705C85.686 39.8146 83.8612 39.8146 82.7878 39.1705C81.607 38.5265 81.607 37.4531 82.7878 36.809C82.8951 36.809 83.0025 36.7017 83.0025 36.7017L77.0987 33.2667C76.3473 32.8373 74.9518 33.052 74.7371 33.6961L73.6637 36.2723C73.5564 36.5943 73.6637 36.809 74.0931 37.0237L86.3301 44.1082C86.6521 44.3229 87.1888 44.4303 87.6182 44.3229L92.1265 43.7862C93.2 43.5715 93.522 42.8201 92.7706 42.3908Z" fill="white"/>
<path d="M87.296 44.7523C86.8666 44.7523 86.4372 44.6449 86.1152 44.4302L73.8783 37.3457C73.3415 37.0236 73.1269 36.5943 73.3415 36.1649L74.415 33.5887C74.5223 33.2667 74.8443 33.052 75.2737 32.8373C75.9177 32.6226 76.7764 32.6226 77.3131 32.9446L83.7537 36.7016L83.1096 37.0236C83.0023 37.131 82.8949 37.131 82.8949 37.131C82.4656 37.3457 82.2509 37.6677 82.2509 37.9897C82.2509 38.3117 82.4656 38.6338 82.8949 38.8485C83.9684 39.3852 85.6858 39.3852 86.6519 38.8485L86.7593 38.7411L86.9739 38.6338L87.1886 38.7411L92.8777 42.0687C93.3071 42.2834 93.5218 42.7128 93.4144 43.1421C93.3071 43.6788 92.7704 44.0009 92.019 44.1082L87.5106 44.6449C87.5106 44.7523 87.4033 44.7523 87.296 44.7523ZM76.0251 33.4814C75.8104 33.4814 75.5957 33.4814 75.381 33.5887C75.1663 33.696 74.9517 33.8034 74.9517 33.9107L73.8783 36.4869C73.7709 36.5943 73.9855 36.809 74.0929 36.809L86.3299 43.8935C86.6519 44.0009 86.9739 44.1082 87.4033 44.1082L91.9117 43.5715C92.4484 43.4642 92.6631 43.2495 92.6631 43.1421C92.6631 43.0348 92.4484 42.9274 92.4484 42.8201L86.9739 39.5998C86.9739 39.5998 86.9739 39.5998 86.8666 39.5998C85.5785 40.3512 83.6463 40.3512 82.3582 39.5998C81.7142 39.1705 81.2848 38.6338 81.2848 38.0971C81.2848 37.5604 81.4995 37.131 82.0362 36.809L76.6691 33.696C76.6691 33.4814 76.3471 33.4814 76.0251 33.4814Z" fill="#16110D"/>
<path d="M93.4144 53.769L61.7486 35.4136C60.9972 34.9842 61.1045 34.2328 61.9633 33.6961L63.8954 32.5153C64.7541 31.9786 66.1496 31.9786 66.901 32.408L98.6742 50.7635C99.4256 51.1928 99.3183 51.9442 98.4595 52.4809L96.5274 53.6617C95.5613 54.1984 94.1658 54.1984 93.4144 53.769Z" fill="white"/>
<path d="M94.7025 54.413C94.1658 54.413 93.6291 54.3057 93.1997 54.091L61.4265 35.7355C60.9971 35.5208 60.7825 35.0915 60.7825 34.6621C60.7825 34.2327 61.1045 33.696 61.6412 33.374L63.5733 32.1932C64.5394 31.6565 66.0422 31.5492 66.901 32.0859L98.7815 50.4414C99.2108 50.656 99.4256 51.0854 99.4256 51.5148C99.4256 51.9441 99.1035 52.4809 98.5668 52.8029L96.6346 53.9836C96.0979 54.3057 95.3465 54.413 94.7025 54.413ZM93.6291 53.4469C94.2731 53.8763 95.4539 53.769 96.2053 53.3396L98.1374 52.1588C98.4595 51.9441 98.6742 51.7295 98.6742 51.5148C98.6742 51.3001 98.4595 51.1928 98.3521 51.0854L66.5789 32.7299C65.9348 32.3006 64.7541 32.4079 64.0027 32.8373L62.0706 34.018C61.7486 34.2327 61.5339 34.4474 61.5339 34.6621C61.5339 34.8768 61.7485 34.9841 61.8559 35.0915L93.6291 53.4469Z" fill="#16110D"/>
<path d="M83.5389 49.5827L67.6522 40.4586C67.2229 40.2439 67.3302 39.8146 67.7596 39.5999L68.7256 39.0632C69.155 38.8485 69.7991 38.7411 70.2285 38.9558L86.115 48.0799C86.5444 48.2946 86.4371 48.7239 86.0077 48.9386L85.0416 49.4753C84.5049 49.69 83.8609 49.7974 83.5389 49.5827Z" fill="#4B8EC8"/>
<path d="M84.1828 50.0121C83.8607 50.0121 83.5387 49.9047 83.324 49.7974L67.4375 40.6733C67.1154 40.566 67.0081 40.2439 67.0081 40.0293C67.0081 39.7072 67.2227 39.3852 67.5448 39.2779L68.5109 38.7412C69.0476 38.4191 69.9063 38.4191 70.3356 38.6338L86.2223 47.7579C86.5443 47.8652 86.6516 48.1872 86.6516 48.4019C86.6516 48.724 86.4369 49.046 86.1149 49.1533L85.1489 49.69C84.8268 49.9047 84.5048 50.0121 84.1828 50.0121ZM69.5843 39.0632C69.3696 39.0632 69.1549 39.1705 68.9402 39.2779L67.9742 39.8146C67.8668 39.9219 67.7595 40.0293 67.7595 40.0293C67.7595 40.0293 67.7594 40.0293 67.8668 40.1366L83.7534 49.2607C84.0754 49.368 84.5048 49.368 84.9342 49.1533L85.9002 48.6166C86.0075 48.5093 86.1149 48.4019 86.1149 48.4019C86.1149 48.4019 86.1149 48.4019 86.0076 48.2946L70.121 39.1705C69.9063 39.1705 69.799 39.0632 69.5843 39.0632Z" fill="#16110D"/>
<path d="M54.9859 57.3113C53.6978 56.56 51.551 56.56 50.1555 57.3113C48.8674 58.0627 48.8674 59.3508 50.1555 60.1022C51.4436 60.8536 53.5905 60.8536 54.9859 60.1022C56.3814 59.3508 56.3814 58.1701 54.9859 57.3113Z" fill="#16110D"/>
<path d="M60.2456 53.769C55.952 51.3001 49.2967 51.3001 45.0031 53.769C42.7489 55.0571 41.5681 56.7746 41.5681 58.7067C41.5681 60.6389 42.7489 62.3564 45.0031 63.6445C47.1499 64.9326 49.9408 65.4693 52.6243 65.4693C55.4152 65.4693 58.0988 64.8252 60.2456 63.6445C62.4998 62.3564 63.6806 60.6389 63.6806 58.7067C63.6806 56.8819 62.4998 55.0571 60.2456 53.769ZM59.3869 62.1417C55.6299 64.2885 49.6188 64.2885 45.9692 62.1417C44.359 61.1756 43.5003 59.9948 43.5003 58.8141C43.5003 57.6333 44.359 56.3452 45.9692 55.4865C47.794 54.4131 50.2628 53.8763 52.7317 53.8763C55.2006 53.8763 57.5621 54.4131 59.4942 55.4865C61.1044 56.4526 61.9631 57.6333 61.9631 58.8141C61.8557 59.9948 60.997 61.1756 59.3869 62.1417Z" fill="#16110D"/>
<path d="M54.9859 55.4864C53.6978 54.735 51.551 54.735 50.1555 55.4864C48.8674 56.2378 48.8674 57.5259 50.1555 58.2773C51.4436 59.0287 53.5905 59.0287 54.9859 58.2773C56.3814 57.5259 56.3814 56.3451 54.9859 55.4864Z" fill="#4B8EC8"/>
<path d="M60.2456 51.9442C55.952 49.4753 49.2967 49.4753 45.0031 51.9442C42.7489 53.2323 41.5681 54.9497 41.5681 56.8819C41.5681 58.8141 42.7489 60.5315 45.0031 61.8196C47.1499 63.1077 49.9408 63.6444 52.6243 63.6444C55.3079 63.6444 58.0988 63.0004 60.2456 61.8196C62.4998 60.5315 63.6806 58.8141 63.6806 56.8819C63.6806 55.0571 62.4998 53.2323 60.2456 51.9442ZM59.3869 60.3168C55.6299 62.4637 49.6188 62.4637 45.9692 60.3168C44.359 59.3508 43.5003 58.17 43.5003 56.9892C43.5003 55.8085 44.359 54.5204 45.9692 53.6616C47.794 52.5882 50.2628 52.0515 52.7317 52.0515C55.2006 52.0515 57.5621 52.5882 59.4942 53.6616C61.1044 54.6277 61.9631 55.8085 61.9631 56.9892C61.8557 58.17 60.997 59.3508 59.3869 60.3168Z" fill="#4B8EC8"/>
<path d="M51.2293 1.49348C44.0374 4.82108 37.5969 14.8039 37.0602 24.0353C36.8455 27.6849 37.5969 30.6905 38.9924 32.73L49.2972 52.2662L54.2349 54.7351C54.6642 53.769 61.8561 19.3122 62.2855 18.2388C63.0369 15.77 68.2967 14.2672 68.404 11.9056C68.5114 3.42564 58.2065 -1.72677 51.2293 1.49348ZM50.2633 23.6059C47.4724 25.0014 45.3255 23.2839 45.4329 19.7416C45.6476 16.3067 48.0091 12.4424 50.8 11.1543C53.4835 9.86615 55.6303 11.4763 55.523 14.9112C55.4156 18.2388 53.0542 22.2105 50.2633 23.6059Z" fill="#4B8EC8"/>
<path d="M52.0882 3.31829C44.8963 6.64588 38.4559 16.6287 37.9192 25.8601C37.8118 27.5776 37.9191 29.1877 38.2412 30.5831C46.3992 35.5209 52.5176 35.1988 58.9582 39.5999C60.9976 30.3685 63.0372 20.7077 63.1445 20.171C63.8959 17.7021 67.8675 15.9846 67.8675 13.6231C67.9749 4.92842 59.0655 0.0980284 52.0882 3.31829ZM51.2295 25.3234C48.4386 26.7188 46.2918 25.0014 46.3991 21.4591C46.6138 18.0241 48.9753 14.1598 51.7662 12.8717C54.4498 11.5836 56.5966 13.1937 56.4893 16.6287C56.2746 20.0636 54.0204 23.9279 51.2295 25.3234Z" fill="white"/>
<path d="M54.4494 55.5939L48.8676 52.803L48.7603 52.6956L38.4555 33.1594C36.9527 31.0126 36.2013 27.8996 36.416 24.1427C37.06 14.9113 43.5005 4.49909 50.9071 1.17149C54.6641 -0.545978 59.4945 -0.0092676 63.3588 2.4596C66.901 4.82112 68.9406 8.3634 68.8332 12.2277C68.8332 13.7305 67.2231 14.9113 65.613 15.9847C64.3249 16.8434 63.0368 17.7022 62.7147 18.6682C62.6074 19.0976 61.2119 25.3234 59.8165 31.9786C57.0256 45.1817 54.9861 54.5204 54.6641 55.1645L54.4494 55.5939ZM49.619 51.9442L53.8054 53.9837C54.4494 51.3002 56.9183 40.0293 58.7431 31.5493C60.4605 23.4986 61.534 18.5609 61.6413 18.1315C62.0707 16.8434 63.5734 15.77 64.9689 14.8039C66.3643 13.8378 67.7598 12.9791 67.7598 12.013C67.8672 8.47075 66.0423 5.25049 62.8221 3.21099C59.2798 0.956811 54.8788 0.420102 51.4438 2.03023C44.3593 5.25049 38.1334 15.2333 37.5967 24.1427C37.382 27.5776 38.0261 30.4758 39.4215 32.5153L49.619 51.9442ZM48.4383 24.6794C47.7942 24.6794 47.1501 24.4647 46.7208 24.1427C45.54 23.3913 44.896 21.7811 45.0033 19.7416C45.218 16.092 47.6869 12.013 50.5851 10.6176C51.9806 9.97353 53.376 9.97353 54.3421 10.6176C55.5228 11.369 56.1669 12.8718 56.0595 14.8039C55.9522 18.4535 53.4833 22.5325 50.4777 24.0353C49.8337 24.4647 49.0823 24.6794 48.4383 24.6794ZM52.6246 11.2616C52.1952 11.2616 51.6585 11.369 51.1218 11.691C48.5456 12.9791 46.2914 16.6287 46.0767 19.849C45.9694 21.4591 46.3987 22.7472 47.2575 23.2839C48.0089 23.7133 48.975 23.7133 50.0484 23.1766C52.6246 21.8885 54.8788 18.1315 54.9861 14.9113C54.9861 13.4085 54.5567 12.2277 53.698 11.5837C53.376 11.369 53.0539 11.2616 52.6246 11.2616Z" fill="#16110D"/>
<path d="M68.404 13.5158C68.5113 4.92842 63.1443 0.634746 56.1671 3.855C48.9751 7.1826 42.5346 17.1654 41.9979 26.3968C41.7832 30.0464 42.5346 33.052 43.93 35.0915L54.2348 54.6277L66.0425 23.7133C66.4718 22.7472 66.9012 21.6738 67.2233 20.6003C67.9746 18.3462 68.404 15.8773 68.404 13.5158Z" fill="#16110D"/>
<path d="M54.4494 55.5938L53.8054 55.2718L43.3932 35.5209C41.8904 33.374 41.139 30.2611 41.3537 26.5041C41.9978 17.2727 48.4383 6.86056 55.8449 3.53296C59.1725 2.03018 62.2854 2.03018 64.7543 3.64031C67.5452 5.46512 69.0479 9.0074 68.9406 13.7304C68.9406 16.092 68.5112 18.5608 67.6525 21.137C67.3305 22.2105 66.9011 23.2839 66.4717 24.25L54.4494 55.5938ZM60.6753 3.42562C59.3871 3.42562 57.8844 3.74765 56.3816 4.49904C49.297 7.7193 43.0712 17.7021 42.5345 26.6115C42.3198 30.0464 42.9639 32.9447 44.3593 34.9841L54.1274 53.5543L65.5056 23.7132C65.935 22.7472 66.3644 21.6737 66.6864 20.7077C67.4378 18.2388 67.8672 15.8773 67.9746 13.6231C68.0819 9.43677 66.6864 6.10917 64.3249 4.49904C63.1441 3.74765 61.9634 3.42562 60.6753 3.42562Z" fill="#16110D"/>
<path d="M54.6641 32.73L49.4043 29.1877C48.6529 28.651 48.7603 27.2556 49.5117 25.8601C50.2631 24.572 51.5512 23.928 52.3026 24.3573L54.9861 26.1821L59.9239 16.1993C60.5679 14.8039 61.856 13.9452 62.7147 14.2672C63.5735 14.5892 63.6808 15.9847 63.0368 17.2728L55.5228 32.1933C55.3081 32.6227 54.8788 32.9447 54.6641 32.73Z" fill="#4B8EC8"/>
</svg>
