<svg width="125" height="109" viewBox="0 0 125 109" fill="none" xmlns="http://www.w3.org/2000/svg">
<path d="M7.17565 85.108C7.46267 85.2513 7.46267 85.5379 7.17565 85.6812C6.88863 85.8245 6.4581 85.8245 6.17108 85.6812C5.88405 85.5379 5.88405 85.2513 6.17108 85.108C6.4581 84.8215 6.88863 84.8215 7.17565 85.108Z" fill="white"/>
<path d="M9.90231 83.532C10.1893 83.6753 10.1893 83.9619 9.90231 84.1052C9.61527 84.2484 9.18469 84.2484 8.89765 84.1052C8.61061 83.9619 8.61061 83.6753 8.89765 83.532C9.18469 83.3887 9.61527 83.2455 9.90231 83.532Z" fill="white"/>
<path d="M12.6292 81.9559C12.9163 82.0992 12.9163 82.3858 12.6292 82.529C12.3422 82.6723 11.9117 82.6723 11.6247 82.529C11.3377 82.3858 11.3377 82.0992 11.6247 81.9559C11.9117 81.8126 12.3422 81.8126 12.6292 81.9559Z" fill="white"/>
<path d="M15.3558 80.3799C15.6428 80.5231 15.6428 80.8097 15.3558 80.953C15.0688 81.0962 14.6383 81.0962 14.3512 80.953C14.0642 80.8097 14.0642 80.5231 14.3512 80.3799C14.6383 80.2366 15.0688 80.2366 15.3558 80.3799Z" fill="white"/>
<path d="M18.0824 78.8038C18.3694 78.9471 18.3694 79.2336 18.0824 79.3769C17.7954 79.5202 17.3648 79.5202 17.0778 79.3769C16.7908 79.2336 16.7908 78.9471 17.0778 78.8038C17.2213 78.6605 17.7954 78.6605 18.0824 78.8038Z" fill="white"/>
<path d="M20.8094 77.2278C21.0965 77.371 21.0965 77.6576 20.8094 77.8009C20.5224 77.9442 20.0919 77.9442 19.8049 77.8009C19.5178 77.6576 19.5178 77.371 19.8049 77.2278C19.9484 77.0845 20.5224 77.0845 20.8094 77.2278Z" fill="white"/>
<path d="M23.536 75.6516C23.823 75.7949 23.823 76.0814 23.536 76.2247C23.249 76.368 22.8185 76.368 22.5314 76.2247C22.2444 76.0814 22.2444 75.7949 22.5314 75.6516C22.6749 75.5083 23.249 75.5083 23.536 75.6516Z" fill="white"/>
<path d="M26.2628 74.0755C26.5499 74.2188 26.5499 74.5054 26.2628 74.6487C25.9758 74.792 25.5453 74.792 25.2582 74.6487C24.9712 74.5054 24.9712 74.2188 25.2582 74.0755C25.4018 73.9323 25.9758 73.9323 26.2628 74.0755Z" fill="white"/>
<path d="M28.9896 72.4995C29.2766 72.6428 29.2766 72.9293 28.9896 73.0726C28.7026 73.2159 28.2721 73.2159 27.985 73.0726C27.698 72.9293 27.698 72.6428 27.985 72.4995C28.1286 72.3562 28.7026 72.3562 28.9896 72.4995Z" fill="white"/>
<path d="M31.7162 70.9234C32.0032 71.0667 32.0032 71.3533 31.7162 71.4966C31.4292 71.6398 30.9986 71.6398 30.7116 71.4966C30.4246 71.3533 30.4246 71.0667 30.7116 70.9234C30.8551 70.7802 31.4292 70.7802 31.7162 70.9234Z" fill="white"/>
<path d="M34.2995 69.3473C34.5865 69.4906 34.5865 69.7772 34.2995 69.9205C34.0124 70.0637 33.5819 70.0637 33.2949 69.9205C33.0078 69.7772 33.0078 69.4906 33.2949 69.3473C33.5819 69.204 34.0124 69.204 34.2995 69.3473Z" fill="white"/>
<path d="M37.0263 67.7712C37.3133 67.9145 37.3133 68.2011 37.0263 68.3443C36.7392 68.4876 36.3087 68.4876 36.0217 68.3443C35.7346 68.2011 35.7346 67.9145 36.0217 67.7712C36.3087 67.6279 36.7392 67.6279 37.0263 67.7712Z" fill="white"/>
<path d="M39.7531 66.1952C40.0401 66.3384 40.0401 66.625 39.7531 66.7683C39.466 66.9116 39.0355 66.9116 38.7485 66.7683C38.4614 66.625 38.4614 66.3384 38.7485 66.1952C39.0355 66.0519 39.466 66.0519 39.7531 66.1952Z" fill="white"/>
<path d="M42.0494 65.4788C42.4457 65.4788 42.767 65.2863 42.767 65.0489C42.767 64.8115 42.4457 64.6191 42.0494 64.6191C41.6531 64.6191 41.3318 64.8115 41.3318 65.0489C41.3318 65.2863 41.6531 65.4788 42.0494 65.4788Z" fill="white"/>
<path d="M45.2067 63.1864C45.4937 63.3296 45.4937 63.6162 45.2067 63.7595C44.9197 63.9027 44.4891 63.9027 44.2021 63.7595C43.9151 63.6162 43.9151 63.3296 44.2021 63.1864C44.4891 62.8998 44.9197 62.8998 45.2067 63.1864Z" fill="white"/>
<path d="M47.9333 61.6102C48.2203 61.7535 48.2203 62.04 47.9333 62.1833C47.6462 62.3266 47.2157 62.3266 46.9286 62.1833C46.6416 62.04 46.6416 61.7535 46.9286 61.6102C47.2157 61.3236 47.6462 61.3236 47.9333 61.6102Z" fill="white"/>
<path d="M50.66 60.0341C50.947 60.1774 50.947 60.464 50.66 60.6073C50.373 60.7505 49.9425 60.7505 49.6555 60.6073C49.3684 60.464 49.3684 60.1774 49.6555 60.0341C49.9425 59.7476 50.373 59.7476 50.66 60.0341Z" fill="white"/>
<path d="M53.3869 58.458C53.6739 58.6013 53.6739 58.8879 53.3869 59.0312C53.0998 59.1744 52.6693 59.1744 52.3823 59.0312C52.0952 58.8879 52.0952 58.6013 52.3823 58.458C52.6693 58.3148 53.0998 58.3148 53.3869 58.458Z" fill="white"/>
<path d="M37.0263 64.6191C37.3133 64.7624 37.3133 65.0489 37.0263 65.1922C36.7392 65.3355 36.3087 65.3355 36.0217 65.1922C35.7346 65.0489 35.7346 64.7624 36.0217 64.6191C36.3087 64.4758 36.7392 64.4758 37.0263 64.6191Z" fill="white"/>
<path d="M39.7531 63.1864C40.0401 63.3296 40.0401 63.6162 39.7531 63.7595C39.466 63.9027 39.0355 63.9027 38.7485 63.7595C38.4614 63.6162 38.4614 63.3296 38.7485 63.1864C39.0355 62.8998 39.466 62.8998 39.7531 63.1864Z" fill="white"/>
<path d="M42.4796 61.6102C42.7666 61.7535 42.7666 62.04 42.4796 62.1833C42.1926 62.3266 41.7621 62.3266 41.475 62.1833C41.188 62.04 41.188 61.7535 41.475 61.6102C41.7621 61.3236 42.1926 61.3236 42.4796 61.6102Z" fill="white"/>
<path d="M45.2067 60.0341C45.4937 60.1774 45.4937 60.464 45.2067 60.6073C44.9197 60.7505 44.4891 60.7505 44.2021 60.6073C43.9151 60.464 43.9151 60.1774 44.2021 60.0341C44.4891 59.7476 44.9197 59.7476 45.2067 60.0341Z" fill="white"/>
<path d="M47.9333 58.458C48.2203 58.6013 48.2203 58.8879 47.9333 59.0312C47.6462 59.1744 47.2157 59.1744 46.9286 59.0312C46.6416 58.8879 46.6416 58.6013 46.9286 58.458C47.2157 58.3148 47.6462 58.3148 47.9333 58.458C48.2203 58.6013 47.6462 58.3148 47.9333 58.458Z" fill="white"/>
<path d="M34.2995 63.1864C34.5865 63.3296 34.5865 63.6162 34.2995 63.7595C34.0124 63.9027 33.5819 63.9027 33.2949 63.7595C33.0078 63.6162 33.0078 63.3296 33.2949 63.1864C33.5819 62.8998 34.0124 62.8998 34.2995 63.1864Z" fill="white"/>
<path d="M37.0263 61.6102C37.3133 61.7535 37.3133 62.04 37.0263 62.1833C36.7392 62.3266 36.3087 62.3266 36.0217 62.1833C35.7346 62.04 35.7346 61.7535 36.0217 61.6102C36.3087 61.3236 36.7392 61.3236 37.0263 61.6102Z" fill="white"/>
<path d="M39.7531 60.0341C40.0401 60.1774 40.0401 60.464 39.7531 60.6073C39.466 60.7505 39.0355 60.7505 38.7485 60.6073C38.4614 60.464 38.4614 60.1774 38.7485 60.0341C39.0355 59.7476 39.466 59.7476 39.7531 60.0341Z" fill="white"/>
<path d="M42.4796 58.458C42.7666 58.6013 42.7666 58.8879 42.4796 59.0312C42.1926 59.1744 41.7621 59.1744 41.475 59.0312C41.188 58.8879 41.188 58.6013 41.475 58.458C41.7621 58.3148 42.1926 58.3148 42.4796 58.458Z" fill="white"/>
<path d="M31.7162 61.6102C32.0032 61.7535 32.0032 62.04 31.7162 62.1833C31.4292 62.3266 30.9986 62.3266 30.7116 62.1833C30.4246 62.04 30.4246 61.7535 30.7116 61.6102C30.8551 61.3236 31.4292 61.3236 31.7162 61.6102Z" fill="white"/>
<path d="M34.2995 60.0341C34.5865 60.1774 34.5865 60.464 34.2995 60.6073C34.0124 60.7505 33.5819 60.7505 33.2949 60.6073C33.0078 60.464 33.0078 60.1774 33.2949 60.0341C33.5819 59.7476 34.0124 59.7476 34.2995 60.0341Z" fill="white"/>
<path d="M36.5957 59.1745C36.9921 59.1745 37.3133 58.982 37.3133 58.7446C37.3133 58.5073 36.9921 58.3148 36.5957 58.3148C36.1994 58.3148 35.8782 58.5073 35.8782 58.7446C35.8782 58.982 36.1994 59.1745 36.5957 59.1745Z" fill="white"/>
<path d="M39.3226 57.5984C39.7189 57.5984 40.0401 57.4059 40.0401 57.1685C40.0401 56.9311 39.7189 56.7387 39.3226 56.7387C38.9262 56.7387 38.605 56.9311 38.605 57.1685C38.605 57.4059 38.9262 57.5984 39.3226 57.5984Z" fill="white"/>
<path d="M28.9896 60.0341C29.2766 60.1774 29.2766 60.464 28.9896 60.6073C28.7026 60.7505 28.2721 60.7505 27.985 60.6073C27.698 60.464 27.698 60.1774 27.985 60.0341C28.1286 59.7476 28.7026 59.7476 28.9896 60.0341Z" fill="white"/>
<path d="M31.1424 59.1745C31.5387 59.1745 31.86 58.982 31.86 58.7446C31.86 58.5073 31.5387 58.3148 31.1424 58.3148C30.7461 58.3148 30.4248 58.5073 30.4248 58.7446C30.4248 58.982 30.7461 59.1745 31.1424 59.1745Z" fill="white"/>
<path d="M34.2995 56.882C34.5865 57.0253 34.5865 57.3118 34.2995 57.4551C34.0124 57.5984 33.5819 57.5984 33.2949 57.4551C33.0078 57.3118 33.0078 57.0253 33.2949 56.882C33.5819 56.7387 34.0124 56.7387 34.2995 56.882Z" fill="white"/>
<path d="M37.0263 55.3059C37.3133 55.4492 37.3133 55.7358 37.0263 55.8791C36.7392 56.0223 36.3087 56.0223 36.0217 55.8791C35.7346 55.7358 35.7346 55.4492 36.0217 55.3059C36.3087 55.1627 36.7392 55.1627 37.0263 55.3059C37.3133 55.4492 36.7392 55.1627 37.0263 55.3059Z" fill="white"/>
<path d="M26.1193 58.4581C26.4063 58.6014 26.4063 58.8879 26.1193 59.0312C25.8322 59.1745 25.4017 59.1745 25.1147 59.0312C24.8277 58.8879 24.8277 58.6014 25.1147 58.4581C25.4017 58.1715 25.8322 58.1715 26.1193 58.4581Z" fill="white"/>
<path d="M28.8461 56.882C29.1331 57.0253 29.1331 57.3119 28.8461 57.4552C28.559 57.5984 28.1285 57.5984 27.8415 57.4552C27.5545 57.3119 27.5545 57.0253 27.8415 56.882C28.1285 56.5955 28.559 56.5955 28.8461 56.882Z" fill="white"/>
<path d="M31.5729 55.3059C31.8599 55.4492 31.8599 55.7358 31.5729 55.8791C31.2858 56.0223 30.8553 56.0223 30.5683 55.8791C30.2813 55.7358 30.2813 55.4492 30.5683 55.3059C30.8553 55.1627 31.2858 55.1627 31.5729 55.3059Z" fill="white"/>
<path d="M34.2995 53.7299C34.5865 53.8732 34.5865 54.1597 34.2995 54.303C34.0124 54.4463 33.5819 54.4463 33.2949 54.303C33.0078 54.1597 33.0078 53.8732 33.2949 53.7299C33.5819 53.5866 34.0124 53.5866 34.2995 53.7299Z" fill="white"/>
<path d="M26.1193 55.3059C26.4063 55.4492 26.4063 55.7358 26.1193 55.8791C25.8322 56.0223 25.4017 56.0223 25.1147 55.8791C24.8277 55.7358 24.8277 55.4492 25.1147 55.3059C25.4017 55.1627 25.8322 55.1627 26.1193 55.3059Z" fill="white"/>
<path d="M28.8461 53.7299C29.1331 53.8732 29.1331 54.1597 28.8461 54.303C28.559 54.4463 28.1285 54.4463 27.8415 54.303C27.5545 54.1597 27.5545 53.8732 27.8415 53.7299C28.1285 53.5866 28.559 53.5866 28.8461 53.7299Z" fill="white"/>
<path d="M31.5729 52.1538C31.8599 52.2971 31.8599 52.5837 31.5729 52.727C31.2858 52.8702 30.8553 52.8702 30.5683 52.727C30.2813 52.5837 30.2813 52.2971 30.5683 52.1538C30.8553 52.0106 31.2858 52.0106 31.5729 52.1538C31.8599 52.2971 31.2858 52.0106 31.5729 52.1538Z" fill="white"/>
<path d="M26.1193 52.1538C26.4063 52.2971 26.4063 52.5837 26.1193 52.727C25.8322 52.8702 25.4017 52.8702 25.1147 52.727C24.8277 52.5837 24.8277 52.2971 25.1147 52.1538C25.4017 52.0106 25.8322 52.0106 26.1193 52.1538Z" fill="white"/>
<path d="M28.8461 50.5777C29.1331 50.7209 29.1331 51.0075 28.8461 51.1508C28.559 51.2941 28.1285 51.2941 27.8415 51.1508C27.5545 51.0075 27.5545 50.7209 27.8415 50.5777C28.1285 50.4344 28.559 50.4344 28.8461 50.5777Z" fill="white"/>
<path d="M61.1365 107.746C61.5328 107.746 61.854 107.554 61.854 107.316C61.854 107.079 61.5328 106.887 61.1365 106.887C60.7402 106.887 60.4189 107.079 60.4189 107.316C60.4189 107.554 60.7402 107.746 61.1365 107.746Z" fill="white"/>
<path d="M64.2938 105.454C64.5809 105.597 64.5809 105.884 64.2938 106.027C64.0068 106.17 63.5763 106.17 63.2892 106.027C63.0022 105.884 63.0022 105.597 63.2892 105.454C63.5763 105.167 64.0068 105.167 64.2938 105.454Z" fill="white"/>
<path d="M56.257 106.887C56.544 107.03 56.544 107.316 56.257 107.46C55.9699 107.603 55.5394 107.603 55.2524 107.46C54.9654 107.316 54.9654 107.03 55.2524 106.887C55.3959 106.743 55.9699 106.743 56.257 106.887Z" fill="white"/>
<path d="M58.9838 105.454C59.2708 105.597 59.2708 105.884 58.9838 106.027C58.6968 106.17 58.2662 106.17 57.9792 106.027C57.6922 105.884 57.6922 105.597 57.9792 105.454C58.1227 105.167 58.6968 105.167 58.9838 105.454Z" fill="white"/>
<path d="M61.5671 103.878C61.8541 104.021 61.8541 104.308 61.5671 104.451C61.28 104.594 60.8495 104.594 60.5624 104.451C60.2754 104.308 60.2754 104.021 60.5624 103.878C60.8495 103.591 61.28 103.591 61.5671 103.878Z" fill="white"/>
<path d="M53.5304 105.454C53.8174 105.597 53.8174 105.884 53.5304 106.027C53.2434 106.17 52.8128 106.17 52.5258 106.027C52.2388 105.884 52.2388 105.597 52.5258 105.454C52.6693 105.167 53.2434 105.167 53.5304 105.454Z" fill="white"/>
<path d="M56.257 103.878C56.544 104.021 56.544 104.308 56.257 104.451C55.9699 104.594 55.5394 104.594 55.2524 104.451C54.9654 104.308 54.9654 104.021 55.2524 103.878C55.3959 103.591 55.9699 103.591 56.257 103.878Z" fill="white"/>
<path d="M58.9838 102.302C59.2708 102.445 59.2708 102.731 58.9838 102.875C58.6968 103.018 58.2662 103.018 57.9792 102.875C57.6922 102.731 57.6922 102.445 57.9792 102.302C58.1227 102.015 58.6968 102.015 58.9838 102.302Z" fill="white"/>
<path d="M50.8036 103.878C51.0906 104.021 51.0906 104.308 50.8036 104.451C50.5166 104.594 50.086 104.594 49.799 104.451C49.512 104.308 49.512 104.021 49.799 103.878C49.9425 103.591 50.5166 103.591 50.8036 103.878Z" fill="white"/>
<path d="M53.5304 102.302C53.8174 102.445 53.8174 102.731 53.5304 102.875C53.2434 103.018 52.8128 103.018 52.5258 102.875C52.2388 102.731 52.2388 102.445 52.5258 102.302C52.6693 102.015 53.2434 102.015 53.5304 102.302Z" fill="white"/>
<path d="M56.257 100.726C56.544 100.869 56.544 101.155 56.257 101.299C55.9699 101.442 55.5394 101.442 55.2524 101.299C54.9654 101.155 54.9654 100.869 55.2524 100.726C55.3959 100.582 55.9699 100.582 56.257 100.726Z" fill="white"/>
<path d="M50.2296 101.442C50.6259 101.442 50.9472 101.249 50.9472 101.012C50.9472 100.775 50.6259 100.582 50.2296 100.582C49.8332 100.582 49.512 100.775 49.512 101.012C49.512 101.249 49.8332 101.442 50.2296 101.442Z" fill="white"/>
<path d="M53.5304 99.1494C53.8174 99.2927 53.8174 99.5793 53.5304 99.7226C53.2434 99.8658 52.8128 99.8658 52.5258 99.7226C52.2388 99.5793 52.2388 99.2927 52.5258 99.1494C52.6693 99.0062 53.2434 99.0062 53.5304 99.1494Z" fill="white"/>
<path d="M50.8035 97.5735C51.0905 97.7167 51.0905 98.0033 50.8035 98.1466C50.5165 98.2899 50.0859 98.2899 49.7989 98.1466C49.3683 98.0033 50.5165 97.4302 50.8035 97.5735Z" fill="white"/>
<path d="M23.536 100.726C23.823 100.869 23.823 101.155 23.536 101.299C23.249 101.442 22.8185 101.442 22.5314 101.299C22.2444 101.155 22.2444 100.869 22.5314 100.726C22.8185 100.439 23.249 100.439 23.536 100.726Z" fill="white"/>
<path d="M26.2628 99.1495C26.5499 99.2928 26.5499 99.5793 26.2628 99.7226C25.9758 99.8659 25.5453 99.8659 25.2582 99.7226C24.9712 99.5793 24.9712 99.2928 25.2582 99.1495C25.5453 98.8629 25.9758 98.8629 26.2628 99.1495Z" fill="white"/>
<path d="M28.9896 97.5735C29.2766 97.7168 29.2766 98.0034 28.9896 98.1466C28.7026 98.2899 28.2721 98.2899 27.985 98.1466C27.698 98.0034 27.698 97.7168 27.985 97.5735C28.2721 97.4302 28.7026 97.4302 28.9896 97.5735Z" fill="white"/>
<path d="M31.7162 95.9974C32.0032 96.1406 32.0032 96.4272 31.7162 96.5705C31.4292 96.7138 30.9986 96.7138 30.7116 96.5705C30.4246 96.4272 30.4246 96.1406 30.7116 95.9974C30.9986 95.8541 31.4292 95.8541 31.7162 95.9974Z" fill="white"/>
<path d="M34.443 94.4212C34.7301 94.5645 34.7301 94.851 34.443 94.9943C34.156 95.1376 33.7254 95.1376 33.4384 94.9943C33.1514 94.851 33.1514 94.5645 33.4384 94.4212C33.7254 94.2779 34.156 94.2779 34.443 94.4212Z" fill="white"/>
<path d="M37.1698 92.8453C37.4569 92.9885 37.4569 93.2751 37.1698 93.4184C36.8828 93.5616 36.4522 93.5616 36.1652 93.4184C35.8782 93.2751 35.8782 92.9885 36.1652 92.8453C36.4522 92.702 36.8828 92.702 37.1698 92.8453Z" fill="white"/>
<path d="M39.8966 91.2691C40.1836 91.4124 40.1836 91.6989 39.8966 91.8422C39.6096 91.9855 39.1791 91.9855 38.892 91.8422C38.605 91.6989 38.605 91.4124 38.892 91.2691C39.0355 91.1258 39.6096 91.1258 39.8966 91.2691Z" fill="white"/>
<path d="M18.0824 100.726C18.3694 100.869 18.3694 101.155 18.0824 101.299C17.7954 101.442 17.3648 101.442 17.0778 101.299C16.7908 101.155 16.7908 100.869 17.0778 100.726C17.3648 100.582 17.7954 100.439 18.0824 100.726Z" fill="white"/>
<path d="M20.8094 99.1495C21.0965 99.2928 21.0965 99.5793 20.8094 99.7226C20.5224 99.8659 20.0919 99.8659 19.8049 99.7226C19.5178 99.5793 19.5178 99.2928 19.8049 99.1495C20.0919 98.8629 20.5224 98.8629 20.8094 99.1495Z" fill="white"/>
<path d="M23.536 97.5735C23.823 97.7168 23.823 98.0034 23.536 98.1466C23.249 98.2899 22.8185 98.2899 22.5314 98.1466C22.2444 98.0034 22.2444 97.7168 22.5314 97.5735C22.8185 97.4302 23.249 97.4302 23.536 97.5735Z" fill="white"/>
<path d="M26.2628 95.9974C26.5499 96.1406 26.5499 96.4272 26.2628 96.5705C25.9758 96.7138 25.5453 96.7138 25.2582 96.5705C24.9712 96.4272 24.9712 96.1406 25.2582 95.9974C25.5453 95.8541 25.9758 95.8541 26.2628 95.9974Z" fill="white"/>
<path d="M28.9896 94.4212C29.2766 94.5645 29.2766 94.851 28.9896 94.9943C28.7026 95.1376 28.2721 95.1376 27.985 94.9943C27.698 94.851 27.698 94.5645 27.985 94.4212C28.2721 94.2779 28.7026 94.2779 28.9896 94.4212Z" fill="white"/>
<path d="M31.1424 93.5615C31.5387 93.5615 31.86 93.3691 31.86 93.1317C31.86 92.8943 31.5387 92.7018 31.1424 92.7018C30.7461 92.7018 30.4248 92.8943 30.4248 93.1317C30.4248 93.3691 30.7461 93.5615 31.1424 93.5615Z" fill="white"/>
<path d="M34.443 91.2691C34.7301 91.4124 34.7301 91.6989 34.443 91.8422C34.156 91.9855 33.7254 91.9855 33.4384 91.8422C33.1514 91.6989 33.1514 91.4124 33.4384 91.2691C33.7254 91.1258 34.156 91.1258 34.443 91.2691Z" fill="white"/>
<path d="M37.1698 89.693C37.4569 89.8363 37.4569 90.1229 37.1698 90.2661C36.8828 90.4094 36.4522 90.4094 36.1652 90.2661C35.8782 90.1229 35.8782 89.8363 36.1652 89.693C36.4522 89.5498 36.8828 89.5498 37.1698 89.693Z" fill="white"/>
<path d="M12.6292 100.726C12.9163 100.869 12.9163 101.155 12.6292 101.299C12.3422 101.442 11.9117 101.442 11.6247 101.299C11.3377 101.155 11.3377 100.869 11.6247 100.726C11.9117 100.439 12.3422 100.439 12.6292 100.726Z" fill="white"/>
<path d="M14.9253 99.8659C15.3216 99.8659 15.6429 99.6735 15.6429 99.4361C15.6429 99.1987 15.3216 99.0062 14.9253 99.0062C14.529 99.0062 14.2078 99.1987 14.2078 99.4361C14.2078 99.6735 14.529 99.8659 14.9253 99.8659Z" fill="white"/>
<path d="M18.0824 97.5735C18.3694 97.7168 18.3694 98.0034 18.0824 98.1466C17.7954 98.2899 17.3648 98.2899 17.0778 98.1466C16.7908 98.0034 16.7908 97.7168 17.0778 97.5735C17.3648 97.4302 17.7954 97.4302 18.0824 97.5735Z" fill="white"/>
<path d="M9.90231 99.1495C10.1893 99.2928 10.1893 99.5793 9.90231 99.7226C9.61527 99.8659 9.18469 99.8659 8.89765 99.7226C8.61061 99.5793 8.61061 99.2928 8.89765 99.1495C9.18469 98.8629 9.61527 98.8629 9.90231 99.1495Z" fill="white"/>
<path d="M12.6292 97.5735C12.9163 97.7168 12.9163 98.0034 12.6292 98.1466C12.3422 98.2899 11.9117 98.2899 11.6247 98.1466C11.3377 98.0034 11.3377 97.7168 11.6247 97.5735C11.9117 97.4302 12.3422 97.4302 12.6292 97.5735Z" fill="white"/>
<path d="M7.17565 97.5734C7.46267 97.7167 7.46267 98.0032 7.17565 98.1465C6.88863 98.2898 6.4581 98.2898 6.17108 98.1465C5.88405 98.0032 5.88405 97.7167 6.17108 97.5734C6.4581 97.2868 6.88863 97.2868 7.17565 97.5734Z" fill="white"/>
<path d="M9.90231 95.9973C10.1893 96.1406 10.1893 96.4271 9.90231 96.5704C9.61527 96.7137 9.18469 96.7137 8.89765 96.5704C8.61061 96.4271 8.61061 96.1406 8.89765 95.9973C9.18469 95.854 9.61527 95.7107 9.90231 95.9973Z" fill="white"/>
<path d="M4.44886 95.9974C4.73589 96.1407 4.73589 96.4272 4.44886 96.5705C4.16184 96.7138 3.7313 96.7138 3.44427 96.5705C3.15725 96.4272 3.15725 96.1407 3.44427 95.9974C3.7313 95.7108 4.16184 95.7108 4.44886 95.9974Z" fill="white"/>
<path d="M7.17565 94.4212C7.46267 94.5645 7.46267 94.851 7.17565 94.9943C6.88863 95.1376 6.4581 95.1376 6.17108 94.9943C5.88405 94.851 5.88405 94.5645 6.17108 94.4212C6.4581 94.2779 6.88863 94.2779 7.17565 94.4212Z" fill="white"/>
<path d="M1.72209 94.4212C2.00913 94.5645 2.00913 94.851 1.72209 94.9943C1.43506 95.1376 1.00451 95.1376 0.717474 94.9943C0.430438 94.851 0.430438 94.5645 0.717474 94.4212C1.00451 94.2779 1.43506 94.2779 1.72209 94.4212Z" fill="white"/>
<path d="M4.44886 92.8453C4.73589 92.9885 4.73589 93.2751 4.44886 93.4184C4.16184 93.5616 3.7313 93.5616 3.44427 93.4184C3.15725 93.2751 3.15725 92.9885 3.44427 92.8453C3.7313 92.702 4.16184 92.702 4.44886 92.8453Z" fill="white"/>
<path d="M1.72209 91.2691C2.00913 91.4124 2.00913 91.6989 1.72209 91.8422C1.43506 91.9855 1.00451 91.9855 0.717474 91.8422C0.430438 91.6989 0.430438 91.4124 0.717474 91.2691C1.00451 91.1258 1.43506 91.1258 1.72209 91.2691Z" fill="white"/>
<path d="M6.17115 88.117C6.45817 87.9737 6.8887 87.9737 7.17573 88.117C7.46275 88.2603 7.46275 88.5468 7.17573 88.6901C6.8887 88.8334 5.88412 88.2603 6.17115 88.117Z" fill="white"/>
<path d="M9.90231 86.5409C10.1893 86.6842 10.1893 86.9708 9.90231 87.1141C9.61527 87.2573 9.18469 87.2573 8.89765 87.1141C8.61061 86.9708 8.61061 86.6842 8.89765 86.5409C9.18469 86.3977 9.61527 86.3977 9.90231 86.5409Z" fill="white"/>
<path d="M12.6292 84.9648C12.9163 85.108 12.9163 85.3946 12.6292 85.5379C12.3422 85.6812 11.9117 85.6812 11.6247 85.5379C11.3377 85.3946 11.3377 85.108 11.6247 84.9648C11.9117 84.8215 12.3422 84.8215 12.6292 84.9648Z" fill="white"/>
<path d="M15.3558 83.3887C15.6428 83.532 15.6428 83.8186 15.3558 83.9618C15.0688 84.1051 14.6383 84.1051 14.3512 83.9618C14.0642 83.8186 14.0642 83.532 14.3512 83.3887C14.6383 83.2454 15.0688 83.2454 15.3558 83.3887Z" fill="white"/>
<path d="M18.0824 81.8127C18.3694 81.9559 18.3694 82.2425 18.0824 82.3858C17.7954 82.529 17.3648 82.529 17.0778 82.3858C16.7908 82.2425 16.7908 81.9559 17.0778 81.8127C17.3648 81.6694 17.7954 81.6694 18.0824 81.8127Z" fill="white"/>
<path d="M20.8094 80.2366C21.0965 80.3799 21.0965 80.6664 20.8094 80.8097C20.5224 80.953 20.0919 80.953 19.8049 80.8097C19.5178 80.6664 19.5178 80.3799 19.8049 80.2366C20.0919 80.0933 20.5224 80.0933 20.8094 80.2366Z" fill="white"/>
<path d="M67.0206 104.451C66.7336 104.594 66.3031 104.594 66.016 104.451C65.729 104.308 65.729 104.021 66.016 103.878C66.3031 103.734 66.7336 103.734 67.0206 103.878C67.3076 104.021 67.3076 104.308 67.0206 104.451C66.7336 104.594 67.3076 104.308 67.0206 104.451Z" fill="white"/>
<path d="M69.7472 102.302C70.0342 102.445 70.0342 102.731 69.7472 102.875C69.4601 103.018 69.0296 103.018 68.7426 102.875C68.4556 102.731 68.4556 102.445 68.7426 102.302C69.0296 102.158 69.4601 102.158 69.7472 102.302Z" fill="white"/>
<path d="M72.474 100.726C72.761 100.869 72.761 101.155 72.474 101.299C72.187 101.442 71.7564 101.442 71.4694 101.299C71.1824 101.155 71.1824 100.869 71.4694 100.726C71.7564 100.582 72.187 100.582 72.474 100.726Z" fill="white"/>
<path d="M75.2008 99.1494C75.4878 99.2927 75.4878 99.5793 75.2008 99.7226C74.9138 99.8658 74.4832 99.8658 74.1962 99.7226C73.9092 99.5793 73.9092 99.2927 74.1962 99.1494C74.4832 99.0062 74.9138 99.0062 75.2008 99.1494Z" fill="white"/>
<path d="M77.9276 97.5735C78.2147 97.7168 78.2147 98.0034 77.9276 98.1466C77.6406 98.2899 77.2101 98.2899 76.923 98.1466C76.636 98.0034 76.636 97.7168 76.923 97.5735C77.2101 97.4302 77.6406 97.4302 77.9276 97.5735Z" fill="white"/>
<path d="M80.6544 95.9974C80.9415 96.1406 80.9415 96.4272 80.6544 96.5705C80.3674 96.7138 79.9369 96.7138 79.6498 96.5705C79.3628 96.4272 79.3628 96.1406 79.6498 95.9974C79.9369 95.8541 80.3674 95.8541 80.6544 95.9974Z" fill="white"/>
<path d="M83.381 94.4212C83.668 94.5645 83.668 94.851 83.381 94.9943C83.094 95.1376 82.6634 95.1376 82.3764 94.9943C82.0894 94.851 82.0894 94.5645 82.3764 94.4212C82.6634 94.2779 83.094 94.2779 83.381 94.4212Z" fill="white"/>
<path d="M86.1078 92.8453C86.3949 92.9885 86.3949 93.2751 86.1078 93.4184C85.8208 93.5616 85.3903 93.5616 85.1032 93.4184C84.8162 93.2751 84.8162 92.9885 85.1032 92.8453C85.3903 92.702 85.8208 92.702 86.1078 92.8453Z" fill="white"/>
<path d="M88.8346 91.2691C89.1217 91.4124 89.1217 91.6989 88.8346 91.8422C88.5476 91.9855 88.117 91.9855 87.83 91.8422C87.543 91.6989 87.543 91.4124 87.83 91.2691C88.117 91.1258 88.5476 91.1258 88.8346 91.2691Z" fill="white"/>
<path d="M91.5614 89.693C91.8484 89.8363 91.8484 90.1229 91.5614 90.2661C91.2744 90.4094 90.8438 90.4094 90.5568 90.2661C90.2698 90.1229 90.2698 89.8363 90.5568 89.693C90.8438 89.5498 91.2744 89.5498 91.5614 89.693Z" fill="white"/>
<path d="M63.2892 102.302C63.5763 102.158 64.0068 102.158 64.2938 102.302C64.5809 102.445 64.5809 102.731 64.2938 102.875C64.0068 103.018 63.5763 103.018 63.2892 102.875C63.0022 102.731 63.0022 102.445 63.2892 102.302Z" fill="white"/>
<path d="M67.0206 100.726C67.3076 100.869 67.3076 101.155 67.0206 101.299C66.7336 101.442 66.3031 101.442 66.016 101.299C65.729 101.155 65.729 100.869 66.016 100.726C66.3031 100.582 66.7336 100.582 67.0206 100.726Z" fill="white"/>
<path d="M69.7472 99.1494C70.0342 99.2927 70.0342 99.5793 69.7472 99.7226C69.4601 99.8658 69.0296 99.8658 68.7426 99.7226C68.4556 99.5793 68.4556 99.2927 68.7426 99.1494C69.0296 99.0062 69.4601 99.0062 69.7472 99.1494Z" fill="white"/>
<path d="M72.474 97.5735C72.761 97.7168 72.761 98.0034 72.474 98.1466C72.187 98.2899 71.7564 98.2899 71.4694 98.1466C71.1824 98.0034 71.1824 97.7168 71.4694 97.5735C71.7564 97.4302 72.187 97.4302 72.474 97.5735Z" fill="white"/>
<path d="M75.2008 95.9974C75.4878 96.1406 75.4878 96.4272 75.2008 96.5705C74.9138 96.7138 74.4832 96.7138 74.1962 96.5705C73.9092 96.4272 73.9092 96.1406 74.1962 95.9974C74.4832 95.8541 74.9138 95.8541 75.2008 95.9974Z" fill="white"/>
<path d="M77.9276 94.4212C78.2147 94.5645 78.2147 94.851 77.9276 94.9943C77.6406 95.1376 77.2101 95.1376 76.923 94.9943C76.636 94.851 76.636 94.5645 76.923 94.4212C77.2101 94.2779 77.6406 94.2779 77.9276 94.4212Z" fill="white"/>
<path d="M80.6544 92.8453C80.9415 92.9885 80.9415 93.2751 80.6544 93.4184C80.3674 93.5616 79.9369 93.5616 79.6498 93.4184C79.3628 93.2751 79.3628 92.9885 79.6498 92.8453C79.9369 92.702 80.3674 92.702 80.6544 92.8453Z" fill="white"/>
<path d="M82.9505 91.9855C83.3467 91.9855 83.668 91.7931 83.668 91.5557C83.668 91.3183 83.3467 91.1259 82.9505 91.1259C82.5542 91.1259 82.2329 91.3183 82.2329 91.5557C82.2329 91.7931 82.5542 91.9855 82.9505 91.9855Z" fill="white"/>
<path d="M86.1078 89.693C86.3949 89.8363 86.3949 90.1229 86.1078 90.2661C85.8208 90.4094 85.3903 90.4094 85.1032 90.2661C84.8162 90.1229 84.8162 89.8363 85.1032 89.693C85.3903 89.5498 85.8208 89.5498 86.1078 89.693Z" fill="white"/>
<path d="M88.8346 88.117C89.1217 88.2603 89.1217 88.5468 88.8346 88.6901C88.5476 88.8334 88.117 88.8334 87.83 88.6901C87.543 88.5468 87.543 88.2603 87.83 88.117C88.117 87.9737 88.5476 87.9737 88.8346 88.117Z" fill="white"/>
<path d="M60.5624 100.726C60.8495 100.582 61.28 100.582 61.5671 100.726C61.8541 100.869 61.8541 101.155 61.5671 101.299C61.28 101.442 60.8495 101.442 60.5624 101.299C60.2754 101.155 60.2754 100.869 60.5624 100.726Z" fill="white"/>
<path d="M64.4374 99.1494C64.7245 99.2927 64.7245 99.5793 64.4374 99.7226C64.1504 99.8658 63.7198 99.8658 63.4328 99.7226C63.1458 99.5793 63.1458 99.2927 63.4328 99.1494C63.7198 99.0062 64.0069 99.0062 64.4374 99.1494Z" fill="white"/>
<path d="M67.0206 97.5735C67.3076 97.7168 67.3076 98.0034 67.0206 98.1466C66.7336 98.2899 66.3031 98.2899 66.016 98.1466C65.729 98.0034 65.729 97.7168 66.016 97.5735C66.3031 97.4302 66.7336 97.4302 67.0206 97.5735Z" fill="white"/>
<path d="M69.7472 95.9974C70.0342 96.1406 70.0342 96.4272 69.7472 96.5705C69.4601 96.7138 69.0296 96.7138 68.7426 96.5705C68.4556 96.4272 68.4556 96.1406 68.7426 95.9974C69.0296 95.8541 69.4601 95.8541 69.7472 95.9974Z" fill="white"/>
<path d="M72.474 94.4212C72.761 94.5645 72.761 94.851 72.474 94.9943C72.187 95.1376 71.7564 95.1376 71.4694 94.9943C71.1824 94.851 71.1824 94.5645 71.4694 94.4212C71.7564 94.2779 72.187 94.2779 72.474 94.4212Z" fill="white"/>
<path d="M74.1962 92.8453C74.4832 92.702 74.9138 92.702 75.2008 92.8453C75.4878 92.9885 75.4878 93.2751 75.2008 93.4184C74.9138 93.5616 74.4832 93.5616 74.1962 93.4184C73.9092 93.2751 73.9092 92.9885 74.1962 92.8453C74.4832 92.702 73.9092 92.9885 74.1962 92.8453Z" fill="white"/>
<path d="M77.9276 91.2691C78.2147 91.4124 78.2147 91.6989 77.9276 91.8422C77.6406 91.9855 77.2101 91.9855 76.923 91.8422C76.636 91.6989 76.636 91.4124 76.923 91.2691C77.2101 91.1258 77.6406 91.1258 77.9276 91.2691Z" fill="white"/>
<path d="M80.6544 89.693C80.9415 89.8363 80.9415 90.1229 80.6544 90.2661C80.3674 90.4094 79.9369 90.4094 79.6498 90.2661C79.3628 90.1229 79.3628 89.8363 79.6498 89.693C79.9369 89.5498 80.3674 89.5498 80.6544 89.693Z" fill="white"/>
<path d="M83.381 88.117C83.668 88.2603 83.668 88.5468 83.381 88.6901C83.094 88.8334 82.6634 88.8334 82.3764 88.6901C82.0894 88.5468 82.0894 88.2603 82.3764 88.117C82.6634 87.9737 83.094 87.9737 83.381 88.117Z" fill="white"/>
<path d="M57.8356 99.1494C58.1227 99.0062 58.5532 99.0062 58.8402 99.1494C59.1272 99.2927 59.1272 99.5793 58.8402 99.7226C58.5532 99.8658 58.1227 99.8658 57.8356 99.7226C57.5486 99.5793 57.5486 99.2927 57.8356 99.1494Z" fill="white"/>
<path d="M56.257 98.1466C55.97 98.2899 55.5394 98.2899 55.2524 98.1466C54.9654 98.0033 54.9654 97.7167 55.2524 97.5735C55.3959 97.4302 56.544 98.0033 56.257 98.1466Z" fill="white"/>
<path d="M56.1137 94.4212C56.4007 94.5645 56.4007 94.851 56.1137 94.9943C55.8266 95.1376 55.3961 95.1376 55.1091 94.9943C54.822 94.851 54.822 94.5645 55.1091 94.4212C55.3961 94.2779 55.8266 94.2779 56.1137 94.4212Z" fill="white"/>
<path d="M58.8402 92.8453C59.1272 92.9885 59.1272 93.2751 58.8402 93.4184C58.5532 93.5616 58.1227 93.5616 57.8356 93.4184C57.5486 93.2751 57.5486 92.9885 57.8356 92.8453C58.1227 92.702 58.5532 92.702 58.8402 92.8453Z" fill="white"/>
<path d="M61.5671 91.2691C61.8541 91.4124 61.8541 91.6989 61.5671 91.8422C61.28 91.9855 60.8495 91.9855 60.5624 91.8422C60.2754 91.6989 60.2754 91.4124 60.5624 91.2691C60.8495 91.1258 61.28 91.1258 61.5671 91.2691Z" fill="white"/>
<path d="M64.2938 89.693C64.5809 89.8363 64.5809 90.1229 64.2938 90.2661C64.0068 90.4094 63.5763 90.4094 63.2892 90.2661C63.0022 90.1229 63.0022 89.8363 63.2892 89.693C63.5763 89.5498 64.0068 89.5498 64.2938 89.693Z" fill="white"/>
<path d="M66.5901 88.8334C66.9864 88.8334 67.3077 88.6409 67.3077 88.4035C67.3077 88.1661 66.9864 87.9737 66.5901 87.9737C66.1938 87.9737 65.8726 88.1661 65.8726 88.4035C65.8726 88.6409 66.1938 88.8334 66.5901 88.8334Z" fill="white"/>
<path d="M69.7472 86.5409C70.0342 86.6842 70.0342 86.9708 69.7472 87.1141C69.4601 87.2573 69.0296 87.2573 68.7426 87.1141C68.4556 86.9708 68.4556 86.6842 68.7426 86.5409C69.0296 86.3977 69.4601 86.3977 69.7472 86.5409Z" fill="white"/>
<path d="M72.474 84.9648C72.761 85.108 72.761 85.3946 72.474 85.5379C72.187 85.6812 71.7564 85.6812 71.4694 85.5379C71.1824 85.3946 71.1824 85.108 71.4694 84.9648C71.7564 84.8215 72.187 84.8215 72.474 84.9648Z" fill="white"/>
<path d="M75.2008 83.3887C75.4878 83.532 75.4878 83.8186 75.2008 83.9618C74.9138 84.1051 74.4832 84.1051 74.1962 83.9618C73.9092 83.8186 73.9092 83.532 74.1962 83.3887C74.4832 83.2454 74.9138 83.2454 75.2008 83.3887Z" fill="white"/>
<path d="M53.5304 92.8453C53.8174 92.9885 53.8174 93.2751 53.5304 93.4184C53.2434 93.5616 52.8128 93.5616 52.5258 93.4184C52.2388 93.2751 52.2388 92.9885 52.5258 92.8453C52.6693 92.702 53.2434 92.702 53.5304 92.8453Z" fill="white"/>
<path d="M56.1137 91.2691C56.4007 91.4124 56.4007 91.6989 56.1137 91.8422C55.8266 91.9855 55.3961 91.9855 55.1091 91.8422C54.822 91.6989 54.822 91.4124 55.1091 91.2691C55.3961 91.1258 55.8266 91.1258 56.1137 91.2691Z" fill="white"/>
<path d="M58.8402 89.693C59.1272 89.8363 59.1272 90.1229 58.8402 90.2661C58.5532 90.4094 58.1227 90.4094 57.8356 90.2661C57.5486 90.1229 57.5486 89.8363 57.8356 89.693C58.1227 89.5498 58.5532 89.5498 58.8402 89.693Z" fill="white"/>
<path d="M61.5671 88.117C61.8541 88.2603 61.8541 88.5468 61.5671 88.6901C61.28 88.8334 60.8495 88.8334 60.5624 88.6901C60.2754 88.5468 60.2754 88.2603 60.5624 88.117C60.8495 87.9737 61.28 87.9737 61.5671 88.117Z" fill="white"/>
<path d="M64.2938 86.5409C64.5809 86.6842 64.5809 86.9708 64.2938 87.1141C64.0068 87.2573 63.5763 87.2573 63.2892 87.1141C63.0022 86.9708 63.0022 86.6842 63.2892 86.5409C63.5763 86.3977 64.0068 86.3977 64.2938 86.5409Z" fill="white"/>
<path d="M67.0206 84.9648C67.3076 85.108 67.3076 85.3946 67.0206 85.5379C66.7336 85.6812 66.3031 85.6812 66.016 85.5379C65.729 85.3946 65.729 85.108 66.016 84.9648C66.3031 84.8215 66.7336 84.8215 67.0206 84.9648Z" fill="white"/>
<path d="M69.7472 83.3887C70.0342 83.532 70.0342 83.8186 69.7472 83.9618C69.4601 84.1051 69.0296 84.1051 68.7426 83.9618C68.4556 83.8186 68.4556 83.532 68.7426 83.3887C69.0296 83.2454 69.4601 83.2454 69.7472 83.3887Z" fill="white"/>
<path d="M72.474 81.8127C72.761 81.9559 72.761 82.2425 72.474 82.3858C72.187 82.529 71.7564 82.529 71.4694 82.3858C71.1824 82.2425 71.1824 81.9559 71.4694 81.8127C71.7564 81.6694 72.187 81.6694 72.474 81.8127Z" fill="white"/>
<path d="M75.2008 80.2366C75.4878 80.3799 75.4878 80.6664 75.2008 80.8097C74.9138 80.953 74.4832 80.953 74.1962 80.8097C73.9092 80.6664 73.9092 80.3799 74.1962 80.2366C74.4832 80.0933 74.9138 80.0933 75.2008 80.2366Z" fill="white"/>
<path d="M49.6555 91.2691C49.9425 91.1258 50.373 91.1258 50.66 91.2691C50.947 91.4124 50.947 91.6989 50.66 91.8422C50.373 91.9855 49.9425 91.9855 49.6555 91.8422C49.3684 91.6989 49.3684 91.4124 49.6555 91.2691Z" fill="white"/>
<path d="M53.5304 89.693C53.8174 89.8363 53.8174 90.1229 53.5304 90.2661C53.2434 90.4094 52.8128 90.4094 52.5258 90.2661C52.2388 90.1229 52.2388 89.8363 52.5258 89.693C52.6693 89.5498 53.2434 89.5498 53.5304 89.693Z" fill="white"/>
<path d="M55.1091 88.117C55.3961 87.9737 55.8266 87.9737 56.1137 88.117C56.4007 88.2603 56.4007 88.5468 56.1137 88.6901C55.8266 88.8334 55.3961 88.8334 55.1091 88.6901C54.822 88.5468 54.822 88.2603 55.1091 88.117C55.3961 87.9737 54.822 88.2603 55.1091 88.117Z" fill="white"/>
<path d="M58.8405 86.5409C59.1275 86.6842 59.1275 86.9708 58.8405 87.114C58.5535 87.2573 58.123 87.2573 57.8359 87.114C57.5489 86.9708 58.5535 86.3977 58.8405 86.5409Z" fill="white"/>
<path d="M61.5671 84.9648C61.8542 85.108 61.8542 85.3946 61.5671 85.5379C61.2801 85.6811 60.8495 85.6811 60.5625 85.5379C60.2755 85.3946 61.2801 84.8215 61.5671 84.9648Z" fill="white"/>
<path d="M68.7426 80.953C68.4556 80.8097 68.4556 80.5231 68.7426 80.3799C69.0296 80.2366 69.4602 80.2366 69.7472 80.3799C70.0342 80.5231 69.0296 81.0962 68.7426 80.953Z" fill="white"/>
<path d="M67.0206 78.8037C67.3076 78.947 67.3076 79.2336 67.0206 79.3769C66.7336 79.5201 66.3031 79.5201 66.016 79.3769C65.729 79.2336 65.729 78.947 66.016 78.8037C66.3031 78.5172 66.7336 78.5172 67.0206 78.8037Z" fill="white"/>
<path d="M69.7472 77.2277C70.0342 77.371 70.0342 77.6575 69.7472 77.8008C69.4601 77.9441 69.0296 77.9441 68.7426 77.8008C68.4556 77.6575 68.4556 77.371 68.7426 77.2277C69.0296 76.9411 69.4601 76.9411 69.7472 77.2277Z" fill="white"/>
<path d="M41.475 89.693C41.7621 89.5498 42.1926 89.5498 42.4796 89.693C42.7666 89.8363 42.7666 90.1229 42.4796 90.2661C42.1926 90.4094 41.7621 90.4094 41.475 90.2661C41.188 90.1229 41.188 89.8363 41.475 89.693Z" fill="white"/>
<path d="M45.35 88.117C45.637 88.2603 45.637 88.5468 45.35 88.6901C45.0629 88.8334 44.6324 88.8334 44.3454 88.6901C44.0584 88.5468 44.0584 88.2603 44.3454 88.117C44.4889 87.9737 45.0629 87.9737 45.35 88.117Z" fill="white"/>
<path d="M48.0768 86.5409C48.3638 86.6842 48.3638 86.9708 48.0768 87.1141C47.7898 87.2573 47.3592 87.2573 47.0722 87.1141C46.7852 86.9708 46.7852 86.6842 47.0722 86.5409C47.2157 86.3977 47.7898 86.3977 48.0768 86.5409Z" fill="white"/>
<path d="M50.8036 84.9648C51.0906 85.108 51.0906 85.3946 50.8036 85.5379C50.5166 85.6812 50.086 85.6812 49.799 85.5379C49.512 85.3946 49.512 85.108 49.799 84.9648C50.086 84.8215 50.5166 84.8215 50.8036 84.9648Z" fill="white"/>
<path d="M53.5304 83.3887C53.8174 83.532 53.8174 83.8186 53.5304 83.9618C53.2434 84.1051 52.8128 84.1051 52.5258 83.9618C52.2388 83.8186 52.2388 83.532 52.5258 83.3887C52.6693 83.2454 53.2434 83.2454 53.5304 83.3887Z" fill="white"/>
<path d="M56.1137 81.8127C56.4007 81.9559 56.4007 82.2425 56.1137 82.3858C55.8266 82.529 55.3961 82.529 55.1091 82.3858C54.822 82.2425 54.822 81.9559 55.1091 81.8127C55.3961 81.6694 55.8266 81.6694 56.1137 81.8127Z" fill="white"/>
<path d="M58.8402 80.2366C59.1272 80.3799 59.1272 80.6664 58.8402 80.8097C58.5532 80.953 58.1227 80.953 57.8356 80.8097C57.5486 80.6664 57.5486 80.3799 57.8356 80.2366C58.1227 80.0933 58.5532 80.0933 58.8402 80.2366Z" fill="white"/>
<path d="M61.5671 78.8038C61.8541 78.947 61.8541 79.2336 61.5671 79.3769C61.28 79.5202 60.8495 79.5202 60.5624 79.3769C60.2754 79.2336 60.2754 78.947 60.5624 78.8038C60.8495 78.6605 61.28 78.5172 61.5671 78.8038Z" fill="white"/>
<path d="M64.2938 77.2277C64.5809 77.371 64.5809 77.6575 64.2938 77.8008C64.0068 77.9441 63.5763 77.9441 63.2892 77.8008C63.0022 77.6575 63.0022 77.371 63.2892 77.2277C63.5763 76.9411 64.0068 76.9411 64.2938 77.2277Z" fill="white"/>
<path d="M67.0206 75.6516C67.3076 75.7949 67.3076 76.0815 67.0206 76.2248C66.7336 76.368 66.3031 76.368 66.016 76.2248C65.729 76.0815 65.729 75.7949 66.016 75.6516C66.3031 75.3651 66.7336 75.3651 67.0206 75.6516Z" fill="white"/>
<path d="M38.7485 88.117C39.0355 87.9737 39.4661 87.9737 39.7531 88.117C40.0401 88.2603 40.0401 88.5468 39.7531 88.6901C39.4661 88.8334 39.0355 88.8334 38.7485 88.6901C38.605 88.5468 38.4614 88.2603 38.7485 88.117Z" fill="white"/>
<path d="M42.6234 86.5409C42.9104 86.6842 42.9104 86.9708 42.6234 87.1141C42.3364 87.2573 41.9059 87.2573 41.6188 87.1141C41.3318 86.9708 41.3318 86.6842 41.6188 86.5409C41.7623 86.3977 42.3364 86.3977 42.6234 86.5409Z" fill="white"/>
<path d="M45.35 84.9648C45.637 85.108 45.637 85.3946 45.35 85.5379C45.0629 85.6812 44.6324 85.6812 44.3454 85.5379C44.0584 85.3946 44.0584 85.108 44.3454 84.9648C44.6324 84.8215 45.0629 84.8215 45.35 84.9648Z" fill="white"/>
<path d="M48.0768 83.3887C48.3638 83.532 48.3638 83.8186 48.0768 83.9618C47.7898 84.1051 47.3592 84.1051 47.0722 83.9618C46.7852 83.8186 46.7852 83.532 47.0722 83.3887C47.2157 83.2454 47.7898 83.2454 48.0768 83.3887Z" fill="white"/>
<path d="M50.8036 81.8127C51.0906 81.9559 51.0906 82.2425 50.8036 82.3858C50.5166 82.529 50.086 82.529 49.799 82.3858C49.512 82.2425 49.512 81.9559 49.799 81.8127C49.9425 81.6694 50.5166 81.6694 50.8036 81.8127Z" fill="white"/>
<path d="M53.5304 80.2366C53.8174 80.3799 53.8174 80.6664 53.5304 80.8097C53.2434 80.953 52.8128 80.953 52.5258 80.8097C52.2388 80.6664 52.2388 80.3799 52.5258 80.2366C52.6693 80.0933 53.2434 80.0933 53.5304 80.2366Z" fill="white"/>
<path d="M56.1137 78.8037C56.4007 78.947 56.4007 79.2336 56.1137 79.3769C55.8266 79.5201 55.3961 79.5201 55.1091 79.3769C54.822 79.2336 54.822 78.947 55.1091 78.8037C55.3961 78.5172 55.8266 78.5172 56.1137 78.8037Z" fill="white"/>
<path d="M58.8402 77.2277C59.1272 77.371 59.1272 77.6575 58.8402 77.8008C58.5532 77.9441 58.1227 77.9441 57.8356 77.8008C57.5486 77.6575 57.5486 77.371 57.8356 77.2277C58.1227 77.0844 58.5532 76.9411 58.8402 77.2277Z" fill="white"/>
<path d="M61.5671 75.6516C61.8541 75.7949 61.8541 76.0815 61.5671 76.2248C61.28 76.368 60.8495 76.368 60.5624 76.2248C60.2754 76.0815 60.2754 75.7949 60.5624 75.6516C60.8495 75.3651 61.28 75.3651 61.5671 75.6516Z" fill="white"/>
<path d="M64.2938 74.0755C64.5809 74.2188 64.5809 74.5054 64.2938 74.6487C64.0068 74.792 63.5763 74.792 63.2892 74.6487C63.0022 74.5054 63.0022 74.2188 63.2892 74.0755C63.5763 73.9323 64.0068 73.9323 64.2938 74.0755Z" fill="white"/>
<path d="M64.2938 70.9234C64.5809 71.0667 64.5809 71.3533 64.2938 71.4966C64.0068 71.6398 63.5763 71.6398 63.2892 71.4966C63.0022 71.3533 63.0022 71.0667 63.2892 70.9234C63.5763 70.7802 64.0068 70.7802 64.2938 70.9234Z" fill="white"/>
<path d="M67.0206 69.3473C67.3076 69.4906 67.3076 69.7772 67.0206 69.9205C66.7336 70.0637 66.3031 70.0637 66.016 69.9205C65.729 69.7772 65.729 69.4906 66.016 69.3473C66.3031 69.204 66.7336 69.204 67.0206 69.3473Z" fill="white"/>
<path d="M69.7472 67.7712C70.0342 67.9145 70.0342 68.2011 69.7472 68.3443C69.4601 68.4876 69.0296 68.4876 68.7426 68.3443C68.4556 68.2011 68.4556 67.9145 68.7426 67.7712C69.0296 67.6279 69.4601 67.6279 69.7472 67.7712Z" fill="white"/>
<path d="M72.474 66.1952C72.761 66.3384 72.761 66.625 72.474 66.7683C72.187 66.9116 71.7564 66.9116 71.4694 66.7683C71.1824 66.625 71.1824 66.3384 71.4694 66.1952C71.7564 66.0519 72.187 66.0519 72.474 66.1952Z" fill="white"/>
<path d="M75.2008 64.6191C75.4878 64.7624 75.4878 65.0489 75.2008 65.1922C74.9138 65.3355 74.4832 65.3355 74.1962 65.1922C73.9092 65.0489 73.9092 64.7624 74.1962 64.6191C74.4832 64.4758 74.9138 64.4758 75.2008 64.6191Z" fill="white"/>
<path d="M77.9276 63.0431C78.2147 63.1863 78.2147 63.4729 77.9276 63.6162C77.6406 63.7595 77.2101 63.7595 76.923 63.6162C76.636 63.4729 76.636 63.1863 76.923 63.0431C77.2101 62.8998 77.6406 62.8998 77.9276 63.0431Z" fill="white"/>
<path d="M80.6544 61.467C80.9415 61.6103 80.9415 61.8969 80.6544 62.0401C80.3674 62.1834 79.9369 62.1834 79.6498 62.0401C79.3628 61.8969 79.3628 61.6103 79.6498 61.467C79.9369 61.3237 80.3674 61.3237 80.6544 61.467Z" fill="white"/>
<path d="M52.3823 74.6487C52.0952 74.5054 52.0952 74.2188 52.3823 74.0755C52.6693 73.9323 53.0998 73.9323 53.3869 74.0755C53.6739 74.2188 53.6739 74.5054 53.3869 74.6487C53.2433 74.792 52.6693 74.792 52.3823 74.6487Z" fill="white"/>
<path d="M56.1137 72.4995C56.4007 72.6428 56.4007 72.9293 56.1137 73.0726C55.8266 73.2159 55.3961 73.2159 55.1091 73.0726C54.822 72.9293 54.822 72.6428 55.1091 72.4995C55.3961 72.3562 55.8266 72.3562 56.1137 72.4995Z" fill="white"/>
<path d="M58.8402 70.9234C59.1272 71.0667 59.1272 71.3533 58.8402 71.4966C58.5532 71.6398 58.1227 71.6398 57.8356 71.4966C57.5486 71.3533 57.5486 71.0667 57.8356 70.9234C58.1227 70.7802 58.5532 70.7802 58.8402 70.9234Z" fill="white"/>
<path d="M61.5671 69.3473C61.8541 69.4906 61.8541 69.7772 61.5671 69.9205C61.28 70.0637 60.8495 70.0637 60.5624 69.9205C60.2754 69.7772 60.2754 69.4906 60.5624 69.3473C60.8495 69.204 61.28 69.204 61.5671 69.3473Z" fill="white"/>
<path d="M64.2938 67.7712C64.5809 67.9145 64.5809 68.2011 64.2938 68.3443C64.0068 68.4876 63.5763 68.4876 63.2892 68.3443C63.0022 68.2011 63.0022 67.9145 63.2892 67.7712C63.5763 67.6279 64.0068 67.6279 64.2938 67.7712Z" fill="white"/>
<path d="M67.0206 66.1952C67.3076 66.3384 67.3076 66.625 67.0206 66.7683C66.7336 66.9116 66.3031 66.9116 66.016 66.7683C65.729 66.625 65.729 66.3384 66.016 66.1952C66.3031 66.0519 66.7336 66.0519 67.0206 66.1952Z" fill="white"/>
<path d="M69.7472 64.6191C70.0342 64.7624 70.0342 65.0489 69.7472 65.1922C69.4601 65.3355 69.0296 65.3355 68.7426 65.1922C68.4556 65.0489 68.4556 64.7624 68.7426 64.6191C69.0296 64.4758 69.4601 64.4758 69.7472 64.6191Z" fill="white"/>
<path d="M72.474 63.0431C72.761 63.1863 72.761 63.4729 72.474 63.6162C72.187 63.7595 71.7564 63.7595 71.4694 63.6162C71.1824 63.4729 71.1824 63.1863 71.4694 63.0431C71.7564 62.8998 72.187 62.8998 72.474 63.0431Z" fill="white"/>
<path d="M75.2008 61.467C75.4878 61.6103 75.4878 61.8969 75.2008 62.0401C74.9138 62.1834 74.4832 62.1834 74.1962 62.0401C73.9092 61.8969 73.9092 61.6103 74.1962 61.467C74.4832 61.3237 74.9138 61.3237 75.2008 61.467Z" fill="white"/>
<path d="M77.9276 59.8908C78.2147 60.0341 78.2147 60.3207 77.9276 60.464C77.6406 60.6073 77.2101 60.6073 76.923 60.464C76.636 60.3207 76.636 60.0341 76.923 59.8908C77.2101 59.7476 77.6406 59.7476 77.9276 59.8908Z" fill="white"/>
<path d="M50.66 72.4995C50.947 72.6428 50.947 72.9294 50.66 73.0726C50.373 73.2159 49.9425 73.2159 49.6555 73.0726C49.3684 72.9294 49.3684 72.6428 49.6555 72.4995C49.9425 72.213 50.373 72.213 50.66 72.4995Z" fill="white"/>
<path d="M53.3869 70.9234C53.6739 71.0667 53.6739 71.3533 53.3869 71.4966C53.0998 71.6398 52.6693 71.6398 52.3823 71.4966C52.0952 71.3533 52.0952 71.0667 52.3823 70.9234C52.6693 70.7802 53.0998 70.7802 53.3869 70.9234Z" fill="white"/>
<path d="M56.1137 69.3473C56.4007 69.4906 56.4007 69.7772 56.1137 69.9205C55.8266 70.0637 55.3961 70.0637 55.1091 69.9205C54.822 69.7772 54.822 69.4906 55.1091 69.3473C55.3961 69.204 55.8266 69.204 56.1137 69.3473Z" fill="white"/>
<path d="M58.8402 67.7712C59.1272 67.9145 59.1272 68.2011 58.8402 68.3443C58.5532 68.4876 58.1227 68.4876 57.8356 68.3443C57.5486 68.2011 57.5486 67.9145 57.8356 67.7712C58.1227 67.6279 58.5532 67.6279 58.8402 67.7712Z" fill="white"/>
<path d="M61.1365 66.9116C61.5328 66.9116 61.854 66.7191 61.854 66.4817C61.854 66.2443 61.5328 66.0519 61.1365 66.0519C60.7402 66.0519 60.4189 66.2443 60.4189 66.4817C60.4189 66.7191 60.7402 66.9116 61.1365 66.9116Z" fill="white"/>
<path d="M64.2938 64.6191C64.5809 64.7624 64.5809 65.0489 64.2938 65.1922C64.0068 65.3355 63.5763 65.3355 63.2892 65.1922C63.0022 65.0489 63.0022 64.7624 63.2892 64.6191C63.5763 64.4758 64.0068 64.4758 64.2938 64.6191Z" fill="white"/>
<path d="M67.0206 63.0431C67.3076 63.1863 67.3076 63.4729 67.0206 63.6162C66.7336 63.7595 66.3031 63.7595 66.016 63.6162C65.729 63.4729 65.729 63.1863 66.016 63.0431C66.3031 62.8998 66.7336 62.8998 67.0206 63.0431Z" fill="white"/>
<path d="M69.7472 61.467C70.0342 61.6103 70.0342 61.8969 69.7472 62.0401C69.4601 62.1834 69.0296 62.1834 68.7426 62.0401C68.4556 61.8969 68.4556 61.6103 68.7426 61.467C69.0296 61.3237 69.4601 61.3237 69.7472 61.467Z" fill="white"/>
<path d="M71.9 60.6073C72.2963 60.6073 72.6175 60.4149 72.6175 60.1775C72.6175 59.9401 72.2963 59.7477 71.9 59.7477C71.5036 59.7477 71.1824 59.9401 71.1824 60.1775C71.1824 60.4149 71.5036 60.6073 71.9 60.6073Z" fill="white"/>
<path d="M75.2008 58.3148C75.4878 58.4581 75.4878 58.7446 75.2008 58.8879C74.9138 59.0312 74.4832 59.0312 74.1962 58.8879C73.9092 58.7446 73.9092 58.4581 74.1962 58.3148C74.4832 58.1715 74.9138 58.1715 75.2008 58.3148Z" fill="white"/>
<path d="M47.9333 70.9234C48.2203 71.0667 48.2203 71.3533 47.9333 71.4966C47.6462 71.6398 47.2157 71.6398 46.9286 71.4966C46.6416 71.3533 46.6416 71.0667 46.9286 70.9234C47.2157 70.7802 47.6462 70.7802 47.9333 70.9234Z" fill="white"/>
<path d="M50.66 69.3473C50.947 69.4906 50.947 69.7772 50.66 69.9205C50.373 70.0637 49.9425 70.0637 49.6555 69.9205C49.3684 69.7772 49.3684 69.4906 49.6555 69.3473C49.9425 69.204 50.373 69.204 50.66 69.3473Z" fill="white"/>
<path d="M52.9564 68.4877C53.3527 68.4877 53.6739 68.2952 53.6739 68.0578C53.6739 67.8204 53.3527 67.628 52.9564 67.628C52.56 67.628 52.2388 67.8204 52.2388 68.0578C52.2388 68.2952 52.56 68.4877 52.9564 68.4877Z" fill="white"/>
<path d="M56.1137 66.1952C56.4007 66.3384 56.4007 66.625 56.1137 66.7683C55.8266 66.9116 55.3961 66.9116 55.1091 66.7683C54.822 66.625 54.822 66.3384 55.1091 66.1952C55.3961 66.0519 55.8266 66.0519 56.1137 66.1952Z" fill="white"/>
<path d="M58.8402 64.6191C59.1272 64.7624 59.1272 65.0489 58.8402 65.1922C58.5532 65.3355 58.1227 65.3355 57.8356 65.1922C57.5486 65.0489 57.5486 64.7624 57.8356 64.6191C58.1227 64.4758 58.5532 64.4758 58.8402 64.6191Z" fill="white"/>
<path d="M61.1365 63.7594C61.5328 63.7594 61.854 63.567 61.854 63.3296C61.854 63.0922 61.5328 62.8998 61.1365 62.8998C60.7402 62.8998 60.4189 63.0922 60.4189 63.3296C60.4189 63.567 60.7402 63.7594 61.1365 63.7594Z" fill="white"/>
<path d="M64.2938 61.467C64.5809 61.6103 64.5809 61.8969 64.2938 62.0401C64.0068 62.1834 63.5763 62.1834 63.2892 62.0401C63.0022 61.8969 63.0022 61.6103 63.2892 61.467C63.5763 61.3237 64.0068 61.3237 64.2938 61.467Z" fill="white"/>
<path d="M67.0206 59.8908C67.3076 60.0341 67.3076 60.3207 67.0206 60.464C66.7336 60.6073 66.3031 60.6073 66.016 60.464C65.729 60.3207 65.729 60.0341 66.016 59.8908C66.3031 59.7476 66.7336 59.7476 67.0206 59.8908Z" fill="white"/>
<path d="M69.7472 58.3148C70.0342 58.4581 70.0342 58.7446 69.7472 58.8879C69.4601 59.0312 69.0296 59.0312 68.7426 58.8879C68.4556 58.7446 68.4556 58.4581 68.7426 58.3148C69.0296 58.1715 69.4601 58.1715 69.7472 58.3148Z" fill="white"/>
<path d="M72.474 56.7387C72.761 56.882 72.761 57.1686 72.474 57.3119C72.187 57.4551 71.7564 57.4551 71.4694 57.3119C71.1824 57.1686 71.1824 56.882 71.4694 56.7387C71.7564 56.5955 72.187 56.5955 72.474 56.7387Z" fill="white"/>
<path d="M45.35 69.3473C45.637 69.4906 45.637 69.7772 45.35 69.9205C45.0629 70.0637 44.6324 70.0637 44.3454 69.9205C44.0584 69.7772 44.0584 69.4906 44.3454 69.3473C44.4889 69.204 45.0629 69.204 45.35 69.3473Z" fill="white"/>
<path d="M47.9333 67.7712C48.2203 67.9145 48.2203 68.2011 47.9333 68.3443C47.6462 68.4876 47.2157 68.4876 46.9286 68.3443C46.6416 68.2011 46.6416 67.9145 46.9286 67.7712C47.2157 67.6279 47.6462 67.6279 47.9333 67.7712Z" fill="white"/>
<path d="M50.66 66.1952C50.947 66.3384 50.947 66.625 50.66 66.7683C50.373 66.9116 49.9425 66.9116 49.6555 66.7683C49.3684 66.625 49.3684 66.3384 49.6555 66.1952C49.9425 66.0519 50.373 66.0519 50.66 66.1952Z" fill="white"/>
<path d="M53.3869 64.6191C53.6739 64.7624 53.6739 65.0489 53.3869 65.1922C53.0998 65.3355 52.6693 65.3355 52.3823 65.1922C52.0952 65.0489 52.0952 64.7624 52.3823 64.6191C52.6693 64.4758 53.0998 64.4758 53.3869 64.6191Z" fill="white"/>
<path d="M56.1137 63.0431C56.4007 63.1863 56.4007 63.4729 56.1137 63.6162C55.8266 63.7595 55.3961 63.7595 55.1091 63.6162C54.822 63.4729 54.822 63.1863 55.1091 63.0431C55.3961 62.8998 55.8266 62.8998 56.1137 63.0431Z" fill="white"/>
<path d="M58.8402 61.467C59.1272 61.6103 59.1272 61.8969 58.8402 62.0401C58.5532 62.1834 58.1227 62.1834 57.8356 62.0401C57.5486 61.8969 57.5486 61.6103 57.8356 61.467C58.1227 61.3237 58.5532 61.3237 58.8402 61.467Z" fill="white"/>
<path d="M61.5671 59.8908C61.8541 60.0341 61.8541 60.3207 61.5671 60.464C61.28 60.6073 60.8495 60.6073 60.5624 60.464C60.2754 60.3207 60.2754 60.0341 60.5624 59.8908C60.8495 59.7476 61.28 59.7476 61.5671 59.8908Z" fill="white"/>
<path d="M64.2938 58.3148C64.5809 58.4581 64.5809 58.7446 64.2938 58.8879C64.0068 59.0312 63.5763 59.0312 63.2892 58.8879C63.0022 58.7446 63.0022 58.4581 63.2892 58.3148C63.5763 58.1715 64.0068 58.1715 64.2938 58.3148Z" fill="white"/>
<path d="M67.0206 56.7387C67.3076 56.882 67.3076 57.1686 67.0206 57.3119C66.7336 57.4551 66.3031 57.4551 66.016 57.3119C65.729 57.1686 65.729 56.882 66.016 56.7387C66.3031 56.5955 66.7336 56.5955 67.0206 56.7387Z" fill="white"/>
<path d="M22.5314 78.6606C22.8185 78.5173 23.249 78.5173 23.536 78.6606C23.823 78.8038 23.823 79.0904 23.536 79.2337C23.249 79.3769 22.8185 79.3769 22.5314 79.2337C22.2444 79.0904 22.2444 78.9471 22.5314 78.6606Z" fill="white"/>
<path d="M26.2628 77.0844C26.5499 77.2277 26.5499 77.5142 26.2628 77.6575C25.9758 77.8008 25.5453 77.8008 25.2582 77.6575C24.9712 77.5142 24.9712 77.2277 25.2582 77.0844C25.5453 76.9411 25.9758 76.9411 26.2628 77.0844Z" fill="white"/>
<path d="M28.9896 75.6516C29.2766 75.7949 29.2766 76.0815 28.9896 76.2248C28.7026 76.368 28.2721 76.368 27.985 76.2248C27.698 76.0815 27.698 75.7949 27.985 75.6516C28.2721 75.3651 28.7026 75.3651 28.9896 75.6516Z" fill="white"/>
<path d="M31.7162 74.0756C32.0032 74.2188 32.0032 74.5054 31.7162 74.6487C31.4292 74.792 30.9986 74.792 30.7116 74.6487C30.4246 74.5054 30.4246 74.2188 30.7116 74.0756C30.9986 73.789 31.4292 73.789 31.7162 74.0756Z" fill="white"/>
<path d="M33.8692 73.2159C34.2655 73.2159 34.5867 73.0234 34.5867 72.786C34.5867 72.5486 34.2655 72.3562 33.8692 72.3562C33.4729 72.3562 33.1516 72.5486 33.1516 72.786C33.1516 73.0234 33.4729 73.2159 33.8692 73.2159Z" fill="white"/>
<path d="M37.1698 70.9234C37.4569 71.0667 37.4569 71.3533 37.1698 71.4966C36.8828 71.6398 36.4522 71.6398 36.1652 71.4966C35.8782 71.3533 35.8782 71.0667 36.1652 70.9234C36.3087 70.7802 36.8828 70.7802 37.1698 70.9234Z" fill="white"/>
<path d="M39.8966 69.3473C40.1836 69.4906 40.1836 69.7772 39.8966 69.9205C39.6096 70.0637 39.1791 70.0637 38.892 69.9205C38.605 69.7772 38.605 69.4906 38.892 69.3473C39.0355 69.204 39.6096 69.204 39.8966 69.3473Z" fill="white"/>
<path d="M42.6234 67.7712C42.9104 67.9145 42.9104 68.2011 42.6234 68.3443C42.3364 68.4876 41.9059 68.4876 41.6188 68.3443C41.3318 68.2011 41.3318 67.9145 41.6188 67.7712C41.7623 67.6279 42.3364 67.6279 42.6234 67.7712Z" fill="white"/>
<path d="M45.35 66.1952C45.637 66.3384 45.637 66.625 45.35 66.7683C45.0629 66.9116 44.6324 66.9116 44.3454 66.7683C44.0584 66.625 44.0584 66.3384 44.3454 66.1952C44.4889 66.0519 45.0629 66.0519 45.35 66.1952Z" fill="white"/>
<path d="M47.9333 64.6191C48.2203 64.7624 48.2203 65.0489 47.9333 65.1922C47.6462 65.3355 47.2157 65.3355 46.9286 65.1922C46.6416 65.0489 46.6416 64.7624 46.9286 64.6191C47.2157 64.4758 47.6462 64.4758 47.9333 64.6191Z" fill="white"/>
<path d="M50.66 63.0431C50.947 63.1863 50.947 63.4729 50.66 63.6162C50.373 63.7595 49.9425 63.7595 49.6555 63.6162C49.3684 63.4729 49.3684 63.1863 49.6555 63.0431C49.9425 62.8998 50.373 62.8998 50.66 63.0431Z" fill="white"/>
<path d="M53.3869 61.467C53.6739 61.6103 53.6739 61.8969 53.3869 62.0401C53.0998 62.1834 52.6693 62.1834 52.3823 62.0401C52.0952 61.8969 52.0952 61.6103 52.3823 61.467C52.6693 61.3237 53.0998 61.3237 53.3869 61.467Z" fill="white"/>
<path d="M56.1137 59.8908C56.4007 60.0341 56.4007 60.3207 56.1137 60.464C55.8266 60.6073 55.3961 60.6073 55.1091 60.464C54.822 60.3207 54.822 60.0341 55.1091 59.8908C55.3961 59.7476 55.8266 59.7476 56.1137 59.8908Z" fill="white"/>
<path d="M58.8402 58.3148C59.1272 58.4581 59.1272 58.7446 58.8402 58.8879C58.5532 59.0312 58.1227 59.0312 57.8356 58.8879C57.5486 58.7446 57.5486 58.4581 57.8356 58.3148C58.1227 58.1715 58.5532 58.1715 58.8402 58.3148Z" fill="white"/>
<path d="M113.519 108.319C113.806 108.463 113.806 108.749 113.519 108.893C113.232 109.036 112.801 109.036 112.514 108.893C112.227 108.749 112.227 108.463 112.514 108.319C112.658 108.176 113.232 108.176 113.519 108.319Z" fill="white"/>
<path d="M116.102 106.743C116.389 106.887 116.389 107.173 116.102 107.316C115.815 107.46 115.385 107.46 115.098 107.316C114.811 107.173 114.811 106.887 115.098 106.743C115.385 106.6 115.815 106.6 116.102 106.743Z" fill="white"/>
<path d="M118.829 105.167C119.116 105.31 119.116 105.597 118.829 105.74C118.542 105.884 118.111 105.884 117.824 105.74C117.537 105.597 117.537 105.31 117.824 105.167C118.111 105.024 118.542 105.024 118.829 105.167Z" fill="white"/>
<path d="M121.556 103.591C121.843 103.735 121.843 104.021 121.556 104.164C121.268 104.308 120.838 104.308 120.551 104.164C120.264 104.021 120.264 103.735 120.551 103.591C120.838 103.448 121.268 103.448 121.556 103.591Z" fill="white"/>
<path d="M108.065 108.319C108.352 108.463 108.352 108.749 108.065 108.893C107.778 109.036 107.348 109.036 107.061 108.893C106.774 108.749 106.774 108.463 107.061 108.319C107.204 108.176 107.778 108.176 108.065 108.319Z" fill="white"/>
<path d="M110.792 106.743C111.079 106.887 111.079 107.173 110.792 107.316C110.505 107.46 110.075 107.46 109.788 107.316C109.501 107.173 109.501 106.887 109.788 106.743C109.931 106.6 110.505 106.6 110.792 106.743Z" fill="white"/>
<path d="M113.519 105.167C113.806 105.31 113.806 105.597 113.519 105.74C113.232 105.884 112.801 105.884 112.514 105.74C112.227 105.597 112.227 105.31 112.514 105.167C112.658 105.024 113.232 105.024 113.519 105.167Z" fill="white"/>
<path d="M116.102 103.591C116.389 103.735 116.389 104.021 116.102 104.164C115.815 104.308 115.385 104.308 115.098 104.164C114.811 104.021 114.811 103.735 115.098 103.591C115.385 103.448 115.815 103.448 116.102 103.591Z" fill="white"/>
<path d="M118.829 102.015C119.116 102.158 119.116 102.445 118.829 102.588C118.542 102.731 118.111 102.731 117.824 102.588C117.537 102.445 117.537 102.158 117.824 102.015C118.111 101.872 118.542 101.872 118.829 102.015Z" fill="white"/>
<path d="M121.556 100.439C121.843 100.582 121.843 100.869 121.556 101.012C121.268 101.155 120.838 101.155 120.551 101.012C120.264 100.869 120.264 100.582 120.551 100.439C120.838 100.296 121.268 100.296 121.556 100.439Z" fill="white"/>
<path d="M102.612 108.319C102.899 108.463 102.899 108.749 102.612 108.893C102.325 109.036 101.894 109.036 101.607 108.893C101.32 108.749 101.32 108.463 101.607 108.319C101.751 108.176 102.325 108.176 102.612 108.319Z" fill="white"/>
<path d="M105.339 106.743C105.626 106.887 105.626 107.173 105.339 107.316C105.051 107.46 104.621 107.46 104.334 107.316C104.047 107.173 104.047 106.887 104.334 106.743C104.477 106.6 105.051 106.6 105.339 106.743Z" fill="white"/>
<path d="M108.065 105.167C108.352 105.31 108.352 105.597 108.065 105.74C107.778 105.884 107.348 105.884 107.061 105.74C106.774 105.597 106.774 105.31 107.061 105.167C107.204 105.024 107.778 105.024 108.065 105.167Z" fill="white"/>
<path d="M110.792 103.591C111.079 103.735 111.079 104.021 110.792 104.164C110.505 104.308 110.075 104.308 109.788 104.164C109.501 104.021 109.501 103.735 109.788 103.591C109.931 103.448 110.505 103.448 110.792 103.591Z" fill="white"/>
<path d="M113.519 102.015C113.806 102.158 113.806 102.445 113.519 102.588C113.232 102.731 112.801 102.731 112.514 102.588C112.227 102.445 112.227 102.158 112.514 102.015C112.658 101.872 113.232 101.872 113.519 102.015Z" fill="white"/>
<path d="M116.102 100.439C116.389 100.582 116.389 100.869 116.102 101.012C115.815 101.155 115.385 101.155 115.098 101.012C114.811 100.869 114.811 100.582 115.098 100.439C115.385 100.296 115.815 100.296 116.102 100.439Z" fill="white"/>
<path d="M118.829 98.863C119.116 99.0062 119.116 99.2928 118.829 99.4361C118.542 99.5794 118.111 99.5794 117.824 99.4361C117.537 99.2928 117.537 99.0062 117.824 98.863C118.111 98.7197 118.542 98.7197 118.829 98.863Z" fill="white"/>
<path d="M99.8852 106.743C100.172 106.887 100.172 107.173 99.8852 107.316C99.5981 107.46 99.1676 107.46 98.8806 107.316C98.5935 107.173 98.5935 106.887 98.8806 106.743C99.1676 106.6 99.5981 106.6 99.8852 106.743Z" fill="white"/>
<path d="M102.612 105.167C102.899 105.31 102.899 105.597 102.612 105.74C102.325 105.884 101.894 105.884 101.607 105.74C101.32 105.597 101.32 105.31 101.607 105.167C101.894 105.024 102.325 105.024 102.612 105.167Z" fill="white"/>
<path d="M105.339 103.591C105.626 103.735 105.626 104.021 105.339 104.164C105.051 104.308 104.621 104.308 104.334 104.164C104.047 104.021 104.047 103.735 104.334 103.591C104.621 103.448 105.051 103.448 105.339 103.591Z" fill="white"/>
<path d="M108.065 102.015C108.352 102.158 108.352 102.445 108.065 102.588C107.778 102.731 107.348 102.731 107.061 102.588C106.774 102.445 106.774 102.158 107.061 102.015C107.204 101.872 107.778 101.872 108.065 102.015Z" fill="white"/>
<path d="M97.1583 105.167C97.4454 105.31 97.4454 105.597 97.1583 105.74C96.8713 105.884 96.4408 105.884 96.1537 105.74C95.8667 105.597 95.8667 105.31 96.1537 105.167C96.4408 105.024 96.8713 105.024 97.1583 105.167Z" fill="white"/>
<path d="M99.8852 103.591C100.172 103.735 100.172 104.021 99.8852 104.164C99.5981 104.308 99.1676 104.308 98.8806 104.164C98.5935 104.021 98.5935 103.735 98.8806 103.591C99.1676 103.448 99.5981 103.448 99.8852 103.591Z" fill="white"/>
<path d="M102.612 102.015C102.899 102.158 102.899 102.445 102.612 102.588C102.325 102.731 101.894 102.731 101.607 102.588C101.32 102.445 101.32 102.158 101.607 102.015C101.751 101.872 102.325 101.872 102.612 102.015Z" fill="white"/>
<path d="M97.1583 102.015C97.4454 102.158 97.4454 102.445 97.1583 102.588C96.8713 102.731 96.4408 102.731 96.1537 102.588C95.8667 102.445 95.8667 102.158 96.1537 102.015C96.4408 101.872 96.8713 101.872 97.1583 102.015Z" fill="white"/>
<path d="M99.3111 101.155C99.7074 101.155 100.029 100.963 100.029 100.726C100.029 100.488 99.7074 100.296 99.3111 100.296C98.9148 100.296 98.5935 100.488 98.5935 100.726C98.5935 100.963 98.9148 101.155 99.3111 101.155Z" fill="white"/>
<path d="M97.1583 98.863C97.4454 99.0062 97.4454 99.2928 97.1583 99.4361C96.8713 99.5794 96.4408 99.5794 96.1537 99.4361C95.8667 99.2928 95.8667 99.0062 96.1537 98.863C96.2973 98.7197 96.8713 98.7197 97.1583 98.863Z" fill="white"/>
<path d="M94.4318 97.2868C94.7188 97.4301 94.7188 97.7166 94.4318 97.8599C94.1448 98.0032 93.7142 98.0032 93.4272 97.8599C93.1402 97.7166 93.1402 97.4301 93.4272 97.2868C93.5707 97.1435 94.1448 97.1435 94.4318 97.2868Z" fill="white"/>
<path d="M97.1583 95.7108C97.4454 95.8541 97.4454 96.1406 97.1583 96.2839C96.8713 96.4272 96.4408 96.4272 96.1537 96.2839C95.8667 96.1406 95.8667 95.8541 96.1537 95.7108C96.2973 95.5675 96.8713 95.5675 97.1583 95.7108Z" fill="white"/>
<path d="M91.7048 95.7108C91.9918 95.8541 91.9918 96.1406 91.7048 96.2839C91.4177 96.4272 90.9872 96.4272 90.7001 96.2839C90.4131 96.1406 90.4131 95.8541 90.7001 95.7108C90.9872 95.5675 91.4177 95.5675 91.7048 95.7108Z" fill="white"/>
<path d="M94.4318 94.1347C94.7188 94.278 94.7188 94.5645 94.4318 94.7078C94.1448 94.8511 93.7142 94.8511 93.4272 94.7078C93.1402 94.5645 93.1402 94.278 93.4272 94.1347C93.5707 93.9914 94.1448 93.9914 94.4318 94.1347Z" fill="white"/>
<path d="M97.1583 92.5587C97.4454 92.702 97.4454 92.9885 97.1583 93.1318C96.8713 93.2751 96.4408 93.2751 96.1537 93.1318C95.8667 92.9885 95.8667 92.702 96.1537 92.5587C96.2973 92.4154 96.8713 92.4154 97.1583 92.5587Z" fill="white"/>
<path d="M88.9782 94.1347C89.2652 94.278 89.2652 94.5645 88.9782 94.7078C88.6911 94.8511 88.2606 94.8511 87.9736 94.7078C87.6865 94.5645 87.6865 94.278 87.9736 94.1347C88.2606 93.9914 88.6911 93.9914 88.9782 94.1347Z" fill="white"/>
<path d="M91.7048 92.5587C91.9918 92.702 91.9918 92.9885 91.7048 93.1318C91.4177 93.2751 90.9872 93.2751 90.7001 93.1318C90.4131 92.9885 90.4131 92.702 90.7001 92.5587C90.9872 92.4154 91.4177 92.4154 91.7048 92.5587Z" fill="white"/>
<path d="M94.4318 90.9826C94.7188 91.1259 94.7188 91.4124 94.4318 91.5557C94.1448 91.699 93.7142 91.699 93.4272 91.5557C93.1402 91.4124 93.1402 91.1259 93.4272 90.9826C93.7142 90.8393 94.1448 90.8393 94.4318 90.9826Z" fill="white"/>
<path d="M82.3764 59.8908C82.6634 59.7476 83.094 59.7476 83.381 59.8908C83.668 60.0341 83.668 60.3207 83.381 60.464C83.094 60.6073 82.6634 60.6073 82.3764 60.464C82.0894 60.3207 82.0894 60.0341 82.3764 59.8908Z" fill="white"/>
<path d="M86.1078 58.3148C86.3949 58.4581 86.3949 58.7446 86.1078 58.8879C85.8208 59.0312 85.3903 59.0312 85.1032 58.8879C84.8162 58.7446 84.8162 58.4581 85.1032 58.3148C85.3903 58.1715 85.8208 58.1715 86.1078 58.3148Z" fill="white"/>
<path d="M88.8346 56.7387C89.1217 56.882 89.1217 57.1686 88.8346 57.3119C88.5476 57.4551 88.117 57.4551 87.83 57.3119C87.543 57.1686 87.543 56.882 87.83 56.7387C88.117 56.5955 88.5476 56.5955 88.8346 56.7387Z" fill="white"/>
<path d="M79.6498 58.3148C79.9369 58.1715 80.3674 58.1715 80.6544 58.3148C80.9415 58.4581 80.9415 58.7446 80.6544 58.8879C80.3674 59.0312 79.9369 59.0312 79.6498 58.8879C79.3628 58.7446 79.3628 58.6013 79.6498 58.3148Z" fill="white"/>
<path d="M83.381 56.7387C83.668 56.882 83.668 57.1686 83.381 57.3119C83.094 57.4551 82.6634 57.4551 82.3764 57.3119C82.0894 57.1686 82.0894 56.882 82.3764 56.7387C82.6634 56.5955 83.094 56.5955 83.381 56.7387Z" fill="white"/>
<path d="M86.1078 55.1626C86.3949 55.3059 86.3949 55.5925 86.1078 55.7358C85.8208 55.879 85.3903 55.879 85.1032 55.7358C84.8162 55.5925 84.8162 55.3059 85.1032 55.1626C85.3903 55.0194 85.8208 55.0194 86.1078 55.1626Z" fill="white"/>
<path d="M88.8346 53.7299C89.1217 53.8732 89.1217 54.1597 88.8346 54.303C88.5476 54.4463 88.117 54.4463 87.83 54.303C87.543 54.1597 87.543 53.8732 87.83 53.7299C88.117 53.4433 88.5476 53.4433 88.8346 53.7299Z" fill="white"/>
<path d="M76.923 56.7387C77.2101 56.5955 77.6406 56.5955 77.9276 56.7387C78.2147 56.882 78.2147 57.1686 77.9276 57.3119C77.6406 57.4551 77.2101 57.4551 76.923 57.3119C76.636 57.1686 76.636 56.882 76.923 56.7387Z" fill="white"/>
<path d="M80.6544 55.1626C80.9415 55.3059 80.9415 55.5925 80.6544 55.7358C80.3674 55.879 79.9369 55.879 79.6498 55.7358C79.3628 55.5925 79.3628 55.3059 79.6498 55.1626C79.9369 55.0194 80.3674 55.0194 80.6544 55.1626Z" fill="white"/>
<path d="M83.381 53.5866C83.668 53.7299 83.668 54.0165 83.381 54.1598C83.094 54.303 82.6634 54.303 82.3764 54.1598C82.0894 54.0165 82.0894 53.7299 82.3764 53.5866C82.6634 53.4434 83.094 53.4434 83.381 53.5866Z" fill="white"/>
<path d="M86.1078 52.0105C86.3949 52.1538 86.3949 52.4403 86.1078 52.5836C85.8208 52.7269 85.3903 52.7269 85.1032 52.5836C84.8162 52.4403 84.8162 52.1538 85.1032 52.0105C85.3903 51.8672 85.8208 51.8672 86.1078 52.0105Z" fill="white"/>
<path d="M74.1962 55.1626C74.4832 55.0194 74.9138 55.0194 75.2008 55.1626C75.4878 55.3059 75.4878 55.5925 75.2008 55.7358C74.9138 55.879 74.4832 55.879 74.1962 55.7358C73.9092 55.5925 73.9092 55.4492 74.1962 55.1626Z" fill="white"/>
<path d="M77.9276 53.5866C78.2147 53.7299 78.2147 54.0165 77.9276 54.1598C77.6406 54.303 77.2101 54.303 76.923 54.1598C76.636 54.0165 76.636 53.7299 76.923 53.5866C77.2101 53.4434 77.6406 53.4434 77.9276 53.5866Z" fill="white"/>
<path d="M80.6544 52.0105C80.9415 52.1538 80.9415 52.4403 80.6544 52.5836C80.3674 52.7269 79.9369 52.7269 79.6498 52.5836C79.3628 52.4403 79.3628 52.1538 79.6498 52.0105C79.9369 51.8672 80.3674 51.8672 80.6544 52.0105Z" fill="white"/>
<path d="M83.381 50.5777C83.668 50.721 83.668 51.0075 83.381 51.1508C83.094 51.2941 82.6634 51.2941 82.3764 51.1508C82.0894 51.0075 82.0894 50.721 82.3764 50.5777C82.6634 50.2912 83.094 50.2912 83.381 50.5777Z" fill="white"/>
<path d="M93.8577 89.2631C89.8393 86.9707 83.6682 86.9707 79.7934 89.2631L64.5809 98.0032C61.4236 99.8658 56.1137 99.8658 53.0999 98.0032C51.8083 97.2868 51.0907 96.2838 51.0907 95.4242C51.0907 94.5645 51.8083 93.5615 53.0999 92.8451L70.6085 82.8156C72.7612 81.5261 73.9093 79.95 73.9093 77.9441C73.9093 76.0814 72.7612 74.3621 70.6085 73.2158L70.178 72.9293C66.1596 70.6368 59.9885 70.6368 56.1137 72.9293L22.2445 92.4153C19.0873 94.2779 13.7773 94.2779 10.7635 92.4153L4.59242 88.8333C3.3008 88.1169 2.58324 87.114 2.58324 86.2543C2.58324 85.3946 3.3008 84.3916 4.59242 83.6752L57.5488 53.3C59.558 54.1597 62.4282 54.0164 64.1504 53.0134C66.1596 51.8672 66.1596 50.0046 64.1504 48.8583C62.1412 47.7121 58.9839 47.7121 56.9747 48.8583C55.6831 49.5747 55.2526 50.5777 55.5396 51.4374L3.30081 81.3828C1.14811 82.6723 0 84.2484 0 86.2543C0 88.1169 1.14811 89.8363 3.30081 91.1258L9.47188 94.7078C13.4902 97.0002 19.6613 97.0002 23.5362 94.7078L57.4053 75.2218C60.5626 73.3591 65.8726 73.3591 68.8863 75.2218L69.3169 75.5083C70.6085 76.2247 71.3261 77.2277 71.3261 78.0873C71.3261 78.947 70.6085 79.95 69.3169 80.6664L51.8083 90.6959C49.6556 91.9855 48.5075 93.5615 48.5075 95.5674C48.5075 97.4301 49.6556 99.1494 51.8083 100.439C55.8266 102.731 61.9977 102.731 65.8726 100.439L81.085 91.6989C84.2422 89.8363 89.5522 89.8363 92.566 91.6989L99.4547 95.9973L100.603 92.5586L93.8577 89.2631Z" fill="#16110D"/>
<path d="M94.1452 87.1139C90.1268 84.8215 83.9557 84.8215 80.0809 87.1139L64.8685 95.854C61.7112 97.7166 56.4012 97.7166 53.3874 95.854C52.0958 95.1376 51.3782 94.1346 51.3782 93.2749C51.3782 92.4153 52.0958 91.4123 53.3874 90.6959L70.896 80.6663C73.0487 79.3768 74.1968 77.8008 74.1968 75.7948C74.1968 73.9322 73.0487 72.2129 70.896 71.0666L70.4655 70.7801C66.4471 68.4876 60.2761 68.4876 56.4012 70.7801L22.5321 90.2661C19.3748 92.1287 14.0648 92.1287 11.051 90.2661L4.87998 86.6841C3.58836 85.9677 2.87078 84.9647 2.87078 84.1051C2.87078 83.2454 3.58836 82.2424 4.87998 81.526L58.4104 50.8642C60.276 51.4373 62.5723 51.1508 64.1509 50.2911C66.1601 49.1449 66.1601 47.2822 64.1509 46.136C62.1417 44.9897 58.9844 44.9897 56.9752 46.136C55.3966 46.9957 55.1096 48.2852 55.8272 49.4314L3.44485 79.3768C1.29215 80.6663 0.144043 82.2424 0.144043 84.2483C0.144043 86.111 1.29215 87.8303 3.44485 89.1198L9.6159 92.7018C13.6343 94.9943 19.8053 94.9943 23.6802 92.7018L57.5493 73.2158C60.7066 71.3532 66.0166 71.3532 69.0304 73.2158L69.4609 73.5024C70.7525 74.2188 71.4701 75.2217 71.4701 76.0814C71.4701 76.9411 70.7525 77.944 69.4609 78.6604L51.9523 88.69C49.7996 89.9795 48.6515 91.5556 48.6515 93.5615C48.6515 95.4241 49.7996 97.1435 51.9523 98.433C55.9707 100.725 62.1417 100.725 66.0166 98.433L81.229 89.693C84.3863 87.8303 89.6963 87.8303 92.71 89.693L99.5987 93.9913L102.469 92.7018L94.1452 87.1139Z" fill="white"/>
<path d="M110.792 95.9974C109.501 95.281 107.204 95.281 105.913 95.9974C104.621 96.7138 104.621 98.0033 105.913 98.863C107.204 99.5794 109.501 99.5794 110.792 98.863C112.084 98.0033 112.084 96.7138 110.792 95.9974Z" fill="#16110D"/>
<path d="M116.102 92.4154C111.797 89.9797 104.908 89.9797 100.603 92.4154C98.3066 93.7049 97.1584 95.4243 97.1584 97.4302C97.1584 99.2928 98.4501 101.155 100.603 102.445C102.755 103.734 105.626 104.308 108.352 104.308C111.079 104.308 113.949 103.734 116.102 102.445C118.398 101.155 119.546 99.4361 119.546 97.4302C119.546 95.4243 118.255 93.7049 116.102 92.4154ZM115.098 100.726C111.366 102.875 105.195 102.875 101.464 100.726C99.8852 99.7227 98.8806 98.5764 98.8806 97.2869C98.8806 95.9974 99.7417 94.8512 101.464 93.8482C103.33 92.702 105.769 92.2722 108.352 92.2722C110.792 92.2722 113.232 92.8453 115.241 93.8482C116.82 94.8512 117.824 95.9974 117.824 97.2869C117.681 98.5764 116.82 99.866 115.098 100.726Z" fill="#16110D"/>
<path d="M110.792 94.1347C109.501 93.4183 107.204 93.4183 105.913 94.1347C104.621 94.8511 104.621 96.1406 105.913 97.0003C107.204 97.7167 109.501 97.7167 110.792 97.0003C112.084 96.1406 112.084 94.8511 110.792 94.1347Z" fill="white"/>
<path d="M116.102 90.5528C111.797 88.117 104.908 88.117 100.603 90.5528C98.3066 91.8423 97.1584 93.5616 97.1584 95.5675C97.1584 97.4302 98.4501 99.2928 100.603 100.582C102.755 101.872 105.626 102.445 108.352 102.445C111.079 102.445 113.949 101.872 116.102 100.582C118.398 99.2928 119.546 97.5735 119.546 95.5675C119.546 93.5616 118.255 91.8423 116.102 90.5528ZM115.098 98.863C111.366 101.012 105.195 101.012 101.464 98.863C99.8852 97.86 98.8806 96.7138 98.8806 95.4243C98.8806 94.1348 99.7417 92.9885 101.464 91.9856C103.33 90.8393 105.769 90.4095 108.352 90.4095C110.792 90.4095 113.232 90.9826 115.241 91.9856C116.82 92.9885 117.824 94.1348 117.824 95.4243C117.681 96.7138 116.82 98.0033 115.098 98.863Z" fill="white"/>
<path d="M106.917 39.4019C99.5982 42.6973 93.1401 52.8702 92.5661 62.1834C92.2791 65.9086 92.9966 68.9175 94.5753 71.0667L105.052 90.8393L110.075 93.275C110.505 92.2721 117.824 57.4551 118.255 56.3089C118.973 53.8731 124.426 52.2971 124.426 50.0046C124.426 41.4078 113.95 36.1065 106.917 39.4019ZM105.913 61.7535C103.043 63.1863 100.89 61.467 101.033 57.885C101.177 54.303 103.617 50.4344 106.487 49.1449C109.214 47.8554 111.366 49.5748 111.223 52.8702C111.223 56.4522 108.783 60.3207 105.913 61.7535Z" fill="#4B8EC8"/>
<path d="M107.778 41.2646C100.459 44.56 94.0012 54.7329 93.4272 64.046C93.2836 65.7654 93.4271 67.4847 93.7142 68.9175C102.038 73.9323 108.209 73.6458 114.667 78.0874C116.676 68.7742 118.829 58.888 118.973 58.4581C119.69 56.0224 123.708 54.1597 123.852 51.724C123.995 42.8407 114.811 37.9692 107.778 41.2646ZM106.917 63.6162C104.047 65.049 101.894 63.3296 102.038 59.7476C102.181 56.1657 104.621 52.2971 107.491 51.0076C110.218 49.7181 112.371 51.4374 112.227 54.7329C112.084 58.1716 109.644 62.1834 106.917 63.6162Z" fill="white"/>
<path d="M110.218 94.1347L104.478 91.4124L104.334 91.2691L94.0013 71.3532C92.4226 69.2041 91.7051 66.0519 91.9921 62.1834C92.5662 52.7269 99.1678 42.2675 106.774 38.8288C110.505 37.1094 115.528 37.5393 119.403 40.1183C122.991 42.4108 125 46.136 125 50.0046C125 51.5807 123.278 52.7269 121.699 53.7299C120.408 54.5895 119.116 55.4492 118.829 56.4522C118.686 56.882 117.394 63.1863 115.815 69.9205C112.945 83.2454 110.936 92.7019 110.649 93.4183L110.218 94.1347ZM105.339 90.5527L109.644 92.7019C110.362 89.9796 112.802 78.5172 114.667 70.0637C116.389 61.8968 117.537 56.882 117.681 56.4522C118.112 55.1627 119.547 54.1597 120.982 53.1567C122.417 52.1538 123.709 51.2941 123.852 50.2912C123.852 46.7092 122.13 43.4137 118.829 41.2645C115.241 38.9721 110.792 38.5422 107.348 40.1183C100.172 43.4137 93.8578 53.4433 93.2837 62.4699C92.9967 66.0519 93.7143 68.9175 95.1494 70.9234L105.339 90.5527ZM104.047 62.7565C103.33 62.7565 102.756 62.6132 102.325 62.1834C101.177 61.3237 100.459 59.7476 100.603 57.7417C100.746 54.0164 103.33 50.0046 106.343 48.5718C107.779 47.8554 109.07 47.8554 110.218 48.5718C111.366 49.2882 112.084 50.8643 111.94 52.8702C111.797 56.5955 109.357 60.7506 106.343 62.1834C105.482 62.6132 104.765 62.7565 104.047 62.7565ZM108.209 49.2882C107.779 49.2882 107.205 49.4315 106.63 49.718C104.047 51.0076 101.751 54.7328 101.607 58.0282C101.464 59.6043 102.038 60.8938 102.899 61.467C103.617 61.8968 104.621 61.8968 105.769 61.3237C108.496 60.0342 110.649 56.3089 110.792 53.0135C110.792 51.4374 110.362 50.2912 109.501 49.718C109.07 49.4315 108.783 49.2882 108.209 49.2882Z" fill="#16110D"/>
<path d="M124.282 51.5806C124.426 42.8406 118.972 38.5422 111.797 41.8376C104.478 45.1331 98.0195 55.3059 97.4455 64.6191C97.1584 68.3444 97.876 71.3532 99.4547 73.5024L109.931 93.275L121.843 61.8968C122.273 60.8938 122.704 59.8909 122.991 58.7446C123.852 56.4521 124.282 54.0164 124.282 51.5806Z" fill="#16110D"/>
<path d="M110.218 94.1347L109.501 93.8481L98.8807 73.789C97.3021 71.6398 96.5845 68.4876 96.8715 64.6191C97.4456 55.1626 104.047 44.7032 111.653 41.2645C114.954 39.6884 118.255 39.6884 120.695 41.2645C123.565 43.1271 125 46.7091 125 51.4374C125 53.8731 124.57 56.3089 123.708 58.8879C123.421 59.8909 122.991 61.0371 122.56 62.04L110.218 94.1347ZM116.389 41.4078C115.098 41.4078 113.519 41.6944 112.084 42.4107C104.908 45.7062 98.5937 55.7357 98.0196 64.7624C97.7326 68.3443 98.4502 71.2099 99.8853 73.2159L109.788 91.9855L121.269 61.7535C121.699 60.7505 122.13 59.7476 122.417 58.6013C123.278 56.1656 123.565 53.7298 123.708 51.4374C123.852 47.139 122.417 43.8435 119.977 42.2675C118.973 41.6944 117.824 41.4078 116.389 41.4078Z" fill="#16110D"/>
<path d="M110.362 71.0667L105.052 67.4847C104.334 66.9116 104.334 65.4788 105.195 64.1893C106.056 62.8998 107.204 62.1834 108.066 62.7565L110.792 64.6191L115.815 54.5896C116.533 53.1568 117.824 52.2971 118.685 52.5837C119.547 52.8702 119.69 54.303 118.973 55.7358L111.51 70.6369C111.079 70.9234 110.649 71.21 110.362 71.0667Z" fill="#4B8EC8"/>
<path d="M84.5292 17.3369L55.6831 0.716431L26.9805 17.3369V50.4344L55.6831 67.0549V33.9573L84.5292 17.3369Z" fill="white"/>
<path d="M26.9805 50.4344L55.6831 66.9116V33.814L26.9805 17.1935V50.4344Z" fill="#4B8EC8"/>
<path d="M85.1033 17.0503L55.6831 0L26.4065 16.907H26.2629V17.6234V50.8642L55.1091 67.4847L55.6831 67.7712L56.2572 67.4847L84.8163 51.0075L85.1033 50.8642V17.6234V17.0503ZM55.6831 1.4328L69.1734 9.16989L41.4753 25.0739L27.9851 17.3368L55.6831 1.4328ZM55.1091 66.0519L27.411 50.1478V18.3398L55.1091 34.2438V66.0519ZM67.4512 26.5067L55.6831 33.2409L42.1929 25.5038L69.8909 9.59973L83.3812 17.3368L67.4512 26.5067Z" fill="#16110D"/>
<path d="M44.3456 33.9573L39.0356 30.9484C38.4616 30.6618 37.8875 30.5186 37.3135 30.8051C36.7394 31.0917 36.4524 31.8081 36.4524 32.6678C36.4524 34.1006 37.3135 35.8199 38.4616 36.393L43.7715 39.4019C44.0586 39.5452 44.4891 39.6885 44.7761 39.6885C45.0631 39.6885 45.2067 39.6884 45.4937 39.5452C46.0677 39.2586 46.3548 38.5422 46.3548 37.6825C46.2113 36.2497 45.3502 34.5304 44.3456 33.9573ZM44.7761 38.5422C44.6326 38.6855 44.3456 38.5422 44.2021 38.3989L38.8921 35.3901C38.1745 34.9602 37.457 33.6707 37.457 32.6678C37.457 32.0946 37.6005 31.8081 37.744 31.8081C37.8875 31.6648 38.1745 31.8081 38.318 31.9514L38.7486 32.0946C38.8921 33.3842 39.6097 34.6737 40.6143 35.2468L45.2067 37.8258C45.0632 38.2557 44.9196 38.3989 44.7761 38.5422Z" fill="#16110D"/>
</svg>
