<svg width="122" height="85" viewBox="0 0 122 85" fill="none" xmlns="http://www.w3.org/2000/svg">
<path d="M27.9929 64.6608C28.4667 64.8185 28.4667 65.2915 27.9929 65.4491C27.5192 65.6068 26.8875 65.6068 26.5716 65.4491C26.0979 65.2915 26.0979 64.8185 26.5716 64.6608C26.8875 64.5031 27.5192 64.5031 27.9929 64.6608Z" fill="white"/>
<path d="M31.7833 62.4534C32.2571 62.6111 32.2571 63.0841 31.7833 63.2417C31.3095 63.3994 30.6778 63.3994 30.3619 63.2417C29.8881 63.0841 29.8881 62.6111 30.3619 62.4534C30.6778 62.2957 31.3095 62.2957 31.7833 62.4534Z" fill="white"/>
<path d="M35.4157 60.4037C35.8894 60.5614 35.8894 61.0344 35.4157 61.1921C34.9419 61.3498 34.3101 61.3498 33.9943 61.1921C33.5205 61.0344 33.5205 60.5614 33.9943 60.4037C34.468 60.0884 35.0998 60.0884 35.4157 60.4037Z" fill="white"/>
<path d="M39.2059 58.1963C39.6797 58.354 39.6797 58.827 39.2059 58.9847C38.7322 59.1424 38.1004 59.1424 37.7845 58.9847C37.3108 58.827 37.3108 58.354 37.7845 58.1963C38.2583 57.881 38.8901 57.881 39.2059 58.1963Z" fill="white"/>
<path d="M42.9961 55.989C43.4699 56.1466 43.4699 56.6197 42.9961 56.7773C42.5223 56.935 41.8907 56.935 41.5748 56.7773C41.101 56.6197 41.101 56.1466 41.5748 55.989C41.8907 55.8313 42.5223 55.8313 42.9961 55.989Z" fill="white"/>
<path d="M46.7865 53.9393C47.2603 54.097 47.2603 54.57 46.7865 54.7277C46.3127 54.8853 45.681 54.8853 45.3651 54.7277C44.8913 54.57 44.8913 54.097 45.3651 53.9393C45.681 53.624 46.3127 53.624 46.7865 53.9393Z" fill="white"/>
<path d="M50.4188 51.7319C50.8926 51.8896 50.8926 52.3626 50.4188 52.5203C49.945 52.6779 49.3133 52.6779 48.9974 52.5203C48.5236 52.3626 48.5236 51.8896 48.9974 51.7319C49.4712 51.4166 50.103 51.4166 50.4188 51.7319Z" fill="white"/>
<path d="M24.2025 62.4534C24.6763 62.6111 24.6763 63.0841 24.2025 63.2417C23.7287 63.3994 23.097 63.3994 22.7811 63.2417C22.3073 63.0841 22.3073 62.6111 22.7811 62.4534C23.2549 62.2957 23.8867 62.2957 24.2025 62.4534Z" fill="white"/>
<path d="M27.9929 60.4037C28.4667 60.5614 28.4667 61.0344 27.9929 61.1921C27.5192 61.3498 26.8875 61.3498 26.5716 61.1921C26.0979 61.0344 26.0979 60.5614 26.5716 60.4037C26.8875 60.0884 27.5192 60.0884 27.9929 60.4037Z" fill="white"/>
<path d="M30.9935 59.3C31.5169 59.3 31.9411 59.0177 31.9411 58.6694C31.9411 58.321 31.5169 58.0387 30.9935 58.0387C30.4702 58.0387 30.0459 58.321 30.0459 58.6694C30.0459 59.0177 30.4702 59.3 30.9935 59.3Z" fill="white"/>
<path d="M35.4157 55.989C35.8894 56.1466 35.8894 56.6197 35.4157 56.7773C34.9419 56.935 34.3101 56.935 33.9943 56.7773C33.5205 56.6197 33.5205 56.1466 33.9943 55.989C34.468 55.8313 35.0998 55.8313 35.4157 55.989Z" fill="white"/>
<path d="M39.2059 53.9393C39.6797 54.097 39.6797 54.57 39.2059 54.7277C38.7322 54.8853 38.1004 54.8853 37.7845 54.7277C37.3108 54.57 37.3108 54.097 37.7845 53.9393C38.2583 53.624 38.8901 53.624 39.2059 53.9393Z" fill="white"/>
<path d="M42.2063 52.6779C42.7297 52.6779 43.154 52.3956 43.154 52.0473C43.154 51.6989 42.7297 51.4166 42.2063 51.4166C41.683 51.4166 41.2588 51.6989 41.2588 52.0473C41.2588 52.3956 41.683 52.6779 42.2063 52.6779Z" fill="white"/>
<path d="M19.7805 61.3497C20.3039 61.3497 20.7282 61.0673 20.7282 60.719C20.7282 60.3707 20.3039 60.0883 19.7805 60.0883C19.2572 60.0883 18.833 60.3707 18.833 60.719C18.833 61.0673 19.2572 61.3497 19.7805 61.3497Z" fill="white"/>
<path d="M24.2025 58.1963C24.6763 58.354 24.6763 58.827 24.2025 58.9847C23.7287 59.1424 23.097 59.1424 22.7811 58.9847C22.3073 58.827 22.3073 58.354 22.7811 58.1963C23.2549 57.881 23.8867 57.881 24.2025 58.1963Z" fill="white"/>
<path d="M27.9929 55.989C28.4667 56.1466 28.4667 56.6197 27.9929 56.7773C27.5192 56.935 26.8875 56.935 26.5716 56.7773C26.0979 56.6197 26.0979 56.1466 26.5716 55.989C26.8875 55.8313 27.5192 55.8313 27.9929 55.989Z" fill="white"/>
<path d="M31.7833 53.9393C32.2571 54.097 32.2571 54.57 31.7833 54.7277C31.3095 54.8853 30.6778 54.8853 30.3619 54.7277C29.8881 54.57 29.8881 54.097 30.3619 53.9393C30.6778 53.624 31.3095 53.624 31.7833 53.9393Z" fill="white"/>
<path d="M35.4157 51.7319C35.8894 51.8896 35.8894 52.3626 35.4157 52.5203C34.9419 52.6779 34.3101 52.6779 33.9943 52.5203C33.5205 52.3626 33.5205 51.8896 33.9943 51.7319C34.468 51.4166 35.0998 51.4166 35.4157 51.7319Z" fill="white"/>
<path d="M38.574 50.6283C39.0973 50.6283 39.5215 50.3459 39.5215 49.9976C39.5215 49.6493 39.0973 49.3669 38.574 49.3669C38.0507 49.3669 37.6265 49.6493 37.6265 49.9976C37.6265 50.3459 38.0507 50.6283 38.574 50.6283Z" fill="white"/>
<path d="M16.7799 58.1963C17.2537 58.354 17.2537 58.827 16.7799 58.9847C16.3061 59.1424 15.6744 59.1424 15.3585 58.9847C14.8847 58.827 14.8847 58.354 15.3585 58.1963C15.6744 57.881 16.3061 57.881 16.7799 58.1963Z" fill="white"/>
<path d="M20.5701 55.989C21.0439 56.1466 21.0439 56.6197 20.5701 56.7773C20.0963 56.935 19.4647 56.935 19.1488 56.7773C18.675 56.6197 18.675 56.1466 19.1488 55.989C19.4647 55.8313 20.0963 55.8313 20.5701 55.989Z" fill="white"/>
<path d="M24.2025 53.9393C24.6763 54.097 24.6763 54.57 24.2025 54.7277C23.7287 54.8853 23.097 54.8853 22.7811 54.7277C22.3073 54.57 22.3073 54.097 22.7811 53.9393C23.2549 53.624 23.8867 53.624 24.2025 53.9393Z" fill="white"/>
<path d="M27.9929 51.7319C28.4667 51.8896 28.4667 52.3626 27.9929 52.5203C27.5192 52.6779 26.8875 52.6779 26.5716 52.5203C26.0979 52.3626 26.0979 51.8896 26.5716 51.7319C26.8875 51.4166 27.5192 51.4166 27.9929 51.7319Z" fill="white"/>
<path d="M31.7833 49.5246C32.2571 49.6822 32.2571 50.1552 31.7833 50.3129C31.3095 50.4706 30.6778 50.4706 30.3619 50.3129C29.8881 50.1552 29.8881 49.6822 30.3619 49.5246C30.6778 49.3669 31.3095 49.3669 31.7833 49.5246Z" fill="white"/>
<path d="M12.9898 55.989C13.4636 56.1466 13.4636 56.6197 12.9898 56.7773C12.516 56.935 11.8843 56.935 11.5685 56.7773C11.0947 56.6197 11.0947 56.1466 11.5685 55.989C12.0423 55.8313 12.6739 55.8313 12.9898 55.989Z" fill="white"/>
<path d="M16.7799 53.9393C17.2537 54.097 17.2537 54.57 16.7799 54.7277C16.3061 54.8853 15.6744 54.8853 15.3585 54.7277C14.8847 54.57 14.8847 54.097 15.3585 53.9393C15.6744 53.624 16.3061 53.624 16.7799 53.9393Z" fill="white"/>
<path d="M20.5701 51.7319C21.0439 51.8896 21.0439 52.3626 20.5701 52.5203C20.0963 52.6779 19.4647 52.6779 19.1488 52.5203C18.675 52.3626 18.675 51.8896 19.1488 51.7319C19.4647 51.4166 20.0963 51.4166 20.5701 51.7319Z" fill="white"/>
<path d="M24.2025 49.5246C24.6763 49.6822 24.6763 50.1552 24.2025 50.3129C23.7287 50.4706 23.097 50.4706 22.7811 50.3129C22.3073 50.1552 22.3073 49.6822 22.7811 49.5246C23.2549 49.3669 23.8867 49.3669 24.2025 49.5246Z" fill="white"/>
<path d="M27.9929 47.3172C28.4667 47.4749 28.4667 47.9479 27.9929 48.1056C27.5192 48.2632 26.8875 48.2632 26.5716 48.1056C26.0979 47.9479 26.0979 47.4749 26.5716 47.3172C26.8875 47.1596 27.5192 47.1596 27.9929 47.3172C28.3088 47.6326 27.5192 47.1596 27.9929 47.3172Z" fill="white"/>
<path d="M9.19935 53.7816C9.67313 53.9393 9.67313 54.4123 9.19935 54.57C8.72556 54.7277 8.0938 54.7277 7.77795 54.57C7.30416 54.4123 7.30416 53.9393 7.77795 53.7816C8.25173 53.624 8.88349 53.624 9.19935 53.7816Z" fill="white"/>
<path d="M12.9898 51.7319C13.4636 51.8896 13.4636 52.3626 12.9898 52.5203C12.516 52.6779 11.8843 52.6779 11.5685 52.5203C11.0947 52.3626 11.0947 51.8896 11.5685 51.7319C11.8843 51.4166 12.516 51.4166 12.9898 51.7319Z" fill="white"/>
<path d="M16.7799 49.5246C17.2537 49.6822 17.2537 50.1552 16.7799 50.3129C16.3061 50.4706 15.6744 50.4706 15.3585 50.3129C14.8847 50.1552 14.8847 49.6822 15.3585 49.5246C15.6744 49.3669 16.3061 49.3669 16.7799 49.5246Z" fill="white"/>
<path d="M19.7805 48.4209C20.3039 48.4209 20.7282 48.1385 20.7282 47.7902C20.7282 47.4419 20.3039 47.1595 19.7805 47.1595C19.2572 47.1595 18.833 47.4419 18.833 47.7902C18.833 48.1385 19.2572 48.4209 19.7805 48.4209Z" fill="white"/>
<path d="M24.2025 46.0559C23.7287 46.2135 23.097 46.2135 22.7811 46.0559C22.3073 45.8982 22.3073 45.4252 22.7811 45.2675C23.2549 44.9522 24.6763 45.7405 24.2025 46.0559Z" fill="white"/>
<path d="M5.56692 51.7319C6.04071 51.8896 6.04071 52.3626 5.56692 52.5203C5.09314 52.6779 4.46148 52.6779 4.14562 52.5203C3.67184 52.3626 3.67184 51.8896 4.14562 51.7319C4.46148 51.4166 5.09314 51.4166 5.56692 51.7319Z" fill="white"/>
<path d="M9.19935 49.5246C9.67313 49.6822 9.67313 50.1552 9.19935 50.3129C8.72556 50.4706 8.0938 50.4706 7.77795 50.3129C7.30416 50.1552 7.30416 49.6822 7.77795 49.5246C8.25173 49.3669 8.88349 49.3669 9.19935 49.5246Z" fill="white"/>
<path d="M12.9898 47.3172C13.4636 47.4749 13.4636 47.9479 12.9898 48.1056C12.516 48.2632 11.8843 48.2632 11.5685 48.1056C11.0947 47.9479 11.0947 47.4749 11.5685 47.3172C11.8843 47.1596 12.516 47.1596 12.9898 47.3172Z" fill="white"/>
<path d="M16.7799 45.2675C17.2537 45.4252 17.2537 45.8982 16.7799 46.0559C16.3061 46.2135 15.6744 46.2135 15.3585 46.0559C14.8847 45.8982 14.8847 45.4252 15.3585 45.2675C15.6744 44.9522 16.3061 44.9522 16.7799 45.2675Z" fill="white"/>
<path d="M1.77674 49.5246C2.25052 49.6822 2.25052 50.1552 1.77674 50.3129C1.30295 50.4706 0.671198 50.4706 0.35534 50.3129C-0.118447 50.1552 -0.118447 49.6822 0.35534 49.5246C0.671198 49.3669 1.30295 49.3669 1.77674 49.5246Z" fill="white"/>
<path d="M5.56692 47.3172C6.04071 47.4749 6.04071 47.9479 5.56692 48.1056C5.09314 48.2632 4.46148 48.2632 4.14562 48.1056C3.67184 47.9479 3.67184 47.4749 4.14562 47.3172C4.46148 47.1596 5.09314 47.1596 5.56692 47.3172Z" fill="white"/>
<path d="M9.19935 45.2675C9.67313 45.4252 9.67313 45.8982 9.19935 46.0559C8.72556 46.2135 8.0938 46.2135 7.77795 46.0559C7.30416 45.8982 7.30416 45.4252 7.77795 45.2675C8.25173 44.9522 8.88349 44.9522 9.19935 45.2675Z" fill="white"/>
<path d="M12.9898 43.0602C13.4636 43.2178 13.4636 43.6908 12.9898 43.8485C12.516 44.0062 11.8843 44.0062 11.5685 43.8485C11.0947 43.6908 11.0947 43.2178 11.5685 43.0602C11.8843 42.7448 12.516 42.7448 12.9898 43.0602Z" fill="white"/>
<path d="M1.77674 45.2675C2.25052 45.4252 2.25052 45.8982 1.77674 46.0559C1.30295 46.2135 0.671198 46.2135 0.35534 46.0559C-0.118447 45.8982 -0.118447 45.4252 0.35534 45.2675C0.671198 44.9522 1.30295 44.9522 1.77674 45.2675Z" fill="white"/>
<path d="M5.56692 43.0602C6.04071 43.2178 6.04071 43.6908 5.56692 43.8485C5.09314 44.0062 4.46148 44.0062 4.14562 43.8485C3.67184 43.6908 3.67184 43.2178 4.14562 43.0602C4.46148 42.7448 5.09314 42.7448 5.56692 43.0602Z" fill="white"/>
<path d="M9.19935 40.8528C9.67313 41.0105 9.67313 41.4835 9.19935 41.6412C8.72556 41.7988 8.0938 41.7988 7.77795 41.6412C7.30416 41.4835 7.30416 41.0105 7.77795 40.8528C8.25173 40.6951 8.88349 40.6951 9.19935 40.8528Z" fill="white"/>
<path d="M1.77674 40.8528C2.25052 41.0105 2.25052 41.4835 1.77674 41.6412C1.30295 41.7988 0.671198 41.7988 0.35534 41.6412C-0.118447 41.4835 -0.118447 41.0105 0.35534 40.8528C0.671198 40.6951 1.30295 40.6951 1.77674 40.8528Z" fill="white"/>
<path d="M5.56692 38.8031C6.04071 38.9608 6.04071 39.4338 5.56692 39.5914C5.09314 39.7491 4.46148 39.7491 4.14562 39.5914C3.67184 39.4338 3.67184 38.9608 4.14562 38.8031C4.46148 38.4878 5.09314 38.4878 5.56692 38.8031C5.88278 38.9608 5.09314 38.4878 5.56692 38.8031Z" fill="white"/>
<path d="M76.7929 84.054C77.2666 84.2117 77.2666 84.6847 76.7929 84.8424C76.3191 85 75.6873 85 75.3715 84.8424C74.8977 84.6847 74.8977 84.2117 75.3715 84.054C75.6873 83.7387 76.3191 83.7387 76.7929 84.054Z" fill="white"/>
<path d="M80.4254 81.8466C80.8992 82.0043 80.8992 82.4773 80.4254 82.635C79.9516 82.7927 79.3199 82.7927 79.004 82.635C78.5302 82.4773 78.5302 82.0043 79.004 81.8466C79.4778 81.689 80.1096 81.689 80.4254 81.8466Z" fill="white"/>
<path d="M84.2155 79.6393C84.6892 79.797 84.6892 80.27 84.2155 80.4276C83.7417 80.5853 83.1099 80.5853 82.7941 80.4276C82.3203 80.27 82.3203 79.797 82.7941 79.6393C83.2678 79.4816 83.8996 79.4816 84.2155 79.6393Z" fill="white"/>
<path d="M88.0059 77.5896C88.4797 77.7473 88.4797 78.2203 88.0059 78.3779C87.5321 78.5356 86.9004 78.5356 86.5846 78.3779C86.1108 78.2203 86.1108 77.7473 86.5846 77.5896C86.9004 77.2743 87.5321 77.2743 88.0059 77.5896Z" fill="white"/>
<path d="M99.2189 71.1252C99.6927 71.2828 99.6927 71.7558 99.2189 71.9135C98.7451 72.0712 98.1133 72.0712 97.7975 71.9135C97.3237 71.7558 97.3237 71.2828 97.7975 71.1252C98.1133 70.8098 98.7451 70.8098 99.2189 71.1252Z" fill="white"/>
<path d="M103.009 68.9178C103.483 69.0755 103.483 69.5485 103.009 69.7062C102.535 69.8639 101.904 69.8639 101.588 69.7062C101.114 69.5485 101.114 69.0755 101.588 68.9178C101.904 68.6025 102.535 68.6025 103.009 68.9178Z" fill="white"/>
<path d="M106.641 66.7105C107.115 66.8681 107.115 67.3412 106.641 67.4988C106.168 67.6565 105.536 67.6565 105.22 67.4988C104.746 67.3412 104.746 66.8681 105.22 66.7105C105.694 66.5528 106.326 66.5528 106.641 66.7105Z" fill="white"/>
<path d="M110.432 64.5031C110.906 64.6607 110.906 65.1338 110.432 65.2914C109.958 65.4491 109.326 65.4491 109.01 65.2914C108.537 65.1338 108.537 64.6607 109.01 64.5031C109.484 64.3454 110.116 64.3454 110.432 64.5031Z" fill="white"/>
<path d="M114.222 62.4534C114.696 62.6111 114.696 63.0841 114.222 63.2418C113.748 63.3994 113.117 63.3994 112.801 63.2418C112.327 63.0841 112.327 62.6111 112.801 62.4534C113.117 62.1381 113.748 62.1381 114.222 62.4534Z" fill="white"/>
<path d="M91.7963 75.3823C92.2701 75.5399 92.2701 76.0129 91.7963 76.1706C91.3225 76.3283 90.6907 76.3283 90.3749 76.1706C89.9011 76.0129 89.9011 75.5399 90.3749 75.3823C90.6907 75.0669 91.3225 75.0669 91.7963 75.3823Z" fill="white"/>
<path d="M95.4286 73.1749C95.9024 73.3326 95.9024 73.8056 95.4286 73.9632C94.9548 74.1209 94.3231 74.1209 94.0072 73.9632C93.5334 73.8056 93.5334 73.3326 94.0072 73.1749C94.481 73.0172 95.1127 73.0172 95.4286 73.1749Z" fill="white"/>
<path d="M117.854 60.2461C118.328 60.4037 118.328 60.8767 117.854 61.0344C117.381 61.1921 116.749 61.1921 116.433 61.0344C115.959 60.8767 115.959 60.4037 116.433 60.2461C116.907 60.0884 117.539 60.0884 117.854 60.2461Z" fill="white"/>
<path d="M121.645 58.0387C122.118 58.1964 122.118 58.6694 121.645 58.8271C121.171 58.9847 120.539 58.9847 120.223 58.8271C119.749 58.6694 119.749 58.1964 120.223 58.0387C120.697 57.8811 121.329 57.8811 121.645 58.0387Z" fill="white"/>
<path d="M69.2123 84.054C69.6861 84.2117 69.6861 84.6847 69.2123 84.8424C68.7385 85 68.1067 85 67.7909 84.8424C67.3171 84.6847 67.3171 84.2117 67.7909 84.054C68.2647 83.7387 68.8964 83.7387 69.2123 84.054Z" fill="white"/>
<path d="M73.0027 81.8466C73.4765 82.0043 73.4765 82.4773 73.0027 82.635C72.5289 82.7927 71.8973 82.7927 71.5814 82.635C71.1076 82.4773 71.1076 82.0043 71.5814 81.8466C71.8973 81.689 72.5289 81.689 73.0027 81.8466Z" fill="white"/>
<path d="M76.7929 79.6393C77.2666 79.797 77.2666 80.27 76.7929 80.4276C76.3191 80.5853 75.6873 80.5853 75.3715 80.4276C74.8977 80.27 74.8977 79.797 75.3715 79.6393C75.6873 79.4816 76.3191 79.4816 76.7929 79.6393Z" fill="white"/>
<path d="M80.4254 77.5896C80.8992 77.7473 80.8992 78.2203 80.4254 78.3779C79.9516 78.5356 79.3199 78.5356 79.004 78.3779C78.5302 78.2203 78.5302 77.7473 79.004 77.5896C79.4778 77.2743 80.1096 77.2743 80.4254 77.5896Z" fill="white"/>
<path d="M84.2155 75.3823C84.6892 75.5399 84.6892 76.0129 84.2155 76.1706C83.7417 76.3283 83.1099 76.3283 82.7941 76.1706C82.3203 76.0129 82.3203 75.5399 82.7941 75.3823C83.2678 75.0669 83.8996 75.0669 84.2155 75.3823Z" fill="white"/>
<path d="M94.7967 69.8638C95.32 69.8638 95.7443 69.5815 95.7443 69.2331C95.7443 68.8848 95.32 68.6025 94.7967 68.6025C94.2733 68.6025 93.8491 68.8848 93.8491 69.2331C93.8491 69.5815 94.2733 69.8638 94.7967 69.8638Z" fill="white"/>
<path d="M99.2189 66.7105C99.6927 66.8681 99.6927 67.3412 99.2189 67.4988C98.7451 67.6565 98.1133 67.6565 97.7975 67.4988C97.3237 67.3412 97.3237 66.8681 97.7975 66.7105C98.1133 66.5528 98.7451 66.5528 99.2189 66.7105Z" fill="white"/>
<path d="M103.009 64.5031C103.483 64.6607 103.483 65.1338 103.009 65.2914C102.535 65.4491 101.904 65.4491 101.588 65.2914C101.114 65.1338 101.114 64.6607 101.588 64.5031C101.904 64.3454 102.535 64.3454 103.009 64.5031Z" fill="white"/>
<path d="M106.641 62.4534C107.115 62.6111 107.115 63.0841 106.641 63.2418C106.168 63.3994 105.536 63.3994 105.22 63.2418C104.746 63.0841 104.746 62.6111 105.22 62.4534C105.694 62.1381 106.326 62.1381 106.641 62.4534Z" fill="white"/>
<path d="M110.432 60.2461C110.906 60.4037 110.906 60.8767 110.432 61.0344C109.958 61.1921 109.326 61.1921 109.01 61.0344C108.537 60.8767 108.537 60.4037 109.01 60.2461C109.484 60.0884 110.116 60.0884 110.432 60.2461Z" fill="white"/>
<path d="M114.222 58.0387C114.696 58.1964 114.696 58.6694 114.222 58.8271C113.748 58.9847 113.117 58.9847 112.801 58.8271C112.327 58.6694 112.327 58.1964 112.801 58.0387C113.117 57.8811 113.748 57.8811 114.222 58.0387Z" fill="white"/>
<path d="M117.854 55.989C118.328 56.1467 118.328 56.6197 117.854 56.7773C117.381 56.935 116.749 56.935 116.433 56.7773C115.959 56.6197 115.959 56.1467 116.433 55.989C116.907 55.6737 117.539 55.6737 117.854 55.989Z" fill="white"/>
<path d="M88.0059 73.1749C88.4797 73.3326 88.4797 73.8056 88.0059 73.9632C87.5321 74.1209 86.9004 74.1209 86.5846 73.9632C86.1108 73.8056 86.1108 73.3326 86.5846 73.1749C86.9004 73.0172 87.5321 73.0172 88.0059 73.1749Z" fill="white"/>
<path d="M91.7963 71.1252C92.2701 71.2828 92.2701 71.7558 91.7963 71.9135C91.3225 72.0712 90.6907 72.0712 90.3749 71.9135C89.9011 71.7558 89.9011 71.2828 90.3749 71.1252C90.6907 70.8098 91.3225 70.8098 91.7963 71.1252Z" fill="white"/>
<path d="M60.9999 85C61.5232 85 61.9474 84.7177 61.9474 84.3693C61.9474 84.021 61.5232 83.7386 60.9999 83.7386C60.4765 83.7386 60.0522 84.021 60.0522 84.3693C60.0522 84.7177 60.4765 85 60.9999 85Z" fill="white"/>
<path d="M65.5799 81.8466C66.0537 82.0043 66.0537 82.4773 65.5799 82.635C65.1061 82.7927 64.4744 82.7927 64.1586 82.635C63.6848 82.4773 63.6848 82.0043 64.1586 81.8466C64.4744 81.689 65.1061 81.689 65.5799 81.8466Z" fill="white"/>
<path d="M69.2123 79.6393C69.6861 79.797 69.6861 80.27 69.2123 80.4276C68.7385 80.5853 68.1067 80.5853 67.7909 80.4276C67.3171 80.27 67.3171 79.797 67.7909 79.6393C68.2647 79.4816 68.8964 79.4816 69.2123 79.6393Z" fill="white"/>
<path d="M72.2129 78.5356C72.7362 78.5356 73.1605 78.2532 73.1605 77.9049C73.1605 77.5566 72.7362 77.2742 72.2129 77.2742C71.6896 77.2742 71.2654 77.5566 71.2654 77.9049C71.2654 78.2532 71.6896 78.5356 72.2129 78.5356Z" fill="white"/>
<path d="M76.0033 76.4859C76.5266 76.4859 76.9508 76.2035 76.9508 75.8552C76.9508 75.5069 76.5266 75.2245 76.0033 75.2245C75.48 75.2245 75.0557 75.5069 75.0557 75.8552C75.0557 76.2035 75.48 76.4859 76.0033 76.4859Z" fill="white"/>
<path d="M80.4254 73.1749C80.8992 73.3326 80.8992 73.8056 80.4254 73.9632C79.9516 74.1209 79.3199 74.1209 79.004 73.9632C78.5302 73.8056 78.5302 73.3326 79.004 73.1749C79.4778 73.0172 80.1096 73.0172 80.4254 73.1749Z" fill="white"/>
<path d="M91.7963 66.7105C92.2701 66.8681 92.2701 67.3412 91.7963 67.4988C91.3225 67.6565 90.6907 67.6565 90.3749 67.4988C89.9011 67.3412 89.9011 66.8681 90.3749 66.7105C90.6907 66.5528 91.3225 66.5528 91.7963 66.7105Z" fill="white"/>
<path d="M95.4286 64.5031C95.9024 64.6607 95.9024 65.1338 95.4286 65.2914C94.9548 65.4491 94.3231 65.4491 94.0072 65.2914C93.5334 65.1338 93.5334 64.6607 94.0072 64.5031C94.481 64.3454 95.1127 64.3454 95.4286 64.5031Z" fill="white"/>
<path d="M98.4293 63.3994C98.9526 63.3994 99.3769 63.1171 99.3769 62.7687C99.3769 62.4204 98.9526 62.1381 98.4293 62.1381C97.906 62.1381 97.4817 62.4204 97.4817 62.7687C97.4817 63.1171 97.906 63.3994 98.4293 63.3994Z" fill="white"/>
<path d="M103.009 60.2461C103.483 60.4037 103.483 60.8767 103.009 61.0344C102.535 61.1921 101.904 61.1921 101.588 61.0344C101.114 60.8767 101.114 60.4037 101.588 60.2461C101.904 60.0884 102.535 60.0884 103.009 60.2461Z" fill="white"/>
<path d="M106.641 58.0387C107.115 58.1964 107.115 58.6694 106.641 58.8271C106.168 58.9847 105.536 58.9847 105.22 58.8271C104.746 58.6694 104.746 58.1964 105.22 58.0387C105.694 57.8811 106.326 57.8811 106.641 58.0387Z" fill="white"/>
<path d="M110.432 55.989C110.906 56.1467 110.906 56.6197 110.432 56.7773C109.958 56.935 109.326 56.935 109.01 56.7773C108.537 56.6197 108.537 56.1467 109.01 55.989C109.484 55.6737 110.116 55.6737 110.432 55.989Z" fill="white"/>
<path d="M114.222 53.7816C114.696 53.9393 114.696 54.4123 114.222 54.57C113.748 54.7277 113.117 54.7277 112.801 54.57C112.327 54.4123 112.327 53.9393 112.801 53.7816C113.117 53.624 113.748 53.624 114.222 53.7816Z" fill="white"/>
<path d="M84.2155 71.1252C84.6892 71.2828 84.6892 71.7558 84.2155 71.9135C83.7417 72.0712 83.1099 72.0712 82.7941 71.9135C82.3203 71.7558 82.3203 71.2828 82.7941 71.1252C83.2678 70.8098 83.8996 70.8098 84.2155 71.1252Z" fill="white"/>
<path d="M88.0059 68.9178C88.4797 69.0755 88.4797 69.5485 88.0059 69.7062C87.5321 69.8639 86.9004 69.8639 86.5846 69.7062C86.1108 69.5485 86.1108 69.0755 86.5846 68.9178C86.9004 68.6025 87.5321 68.6025 88.0059 68.9178Z" fill="white"/>
<path d="M57.9993 81.8466C58.4731 82.0043 58.4731 82.4773 57.9993 82.635C57.5255 82.7927 56.8939 82.7927 56.578 82.635C56.1042 82.4773 56.1042 82.0043 56.578 81.8466C57.0518 81.689 57.6834 81.689 57.9993 81.8466Z" fill="white"/>
<path d="M61.7897 79.6393C62.2635 79.797 62.2635 80.27 61.7897 80.4276C61.3159 80.5853 60.6841 80.5853 60.3683 80.4276C59.8945 80.27 59.8945 79.797 60.3683 79.6393C60.6841 79.4816 61.3159 79.4816 61.7897 79.6393Z" fill="white"/>
<path d="M65.5799 77.5896C66.0537 77.7473 66.0537 78.2203 65.5799 78.3779C65.1061 78.5356 64.4744 78.5356 64.1586 78.3779C63.6848 78.2203 63.6848 77.7473 64.1586 77.5896C64.4744 77.2743 65.1061 77.2743 65.5799 77.5896Z" fill="white"/>
<path d="M69.2123 75.3823C69.6861 75.5399 69.6861 76.0129 69.2123 76.1706C68.7385 76.3283 68.1067 76.3283 67.7909 76.1706C67.3171 76.0129 67.3171 75.5399 67.7909 75.3823C68.2647 75.0669 68.8964 75.0669 69.2123 75.3823Z" fill="white"/>
<path d="M73.0027 73.1749C73.4765 73.3326 73.4765 73.8056 73.0027 73.9632C72.5289 74.1209 71.8973 74.1209 71.5814 73.9632C71.1076 73.8056 71.1076 73.3326 71.5814 73.1749C71.8973 73.0172 72.5289 73.0172 73.0027 73.1749Z" fill="white"/>
<path d="M76.0033 72.0712C76.5266 72.0712 76.9508 71.7888 76.9508 71.4405C76.9508 71.0922 76.5266 70.8098 76.0033 70.8098C75.48 70.8098 75.0557 71.0922 75.0557 71.4405C75.0557 71.7888 75.48 72.0712 76.0033 72.0712Z" fill="white"/>
<path d="M88.0059 64.5031C88.4797 64.6607 88.4797 65.1338 88.0059 65.2914C87.5321 65.4491 86.9004 65.4491 86.5846 65.2914C86.1108 65.1338 86.1108 64.6607 86.5846 64.5031C86.9004 64.3454 87.5321 64.3454 88.0059 64.5031Z" fill="white"/>
<path d="M91.0065 63.3994C91.5298 63.3994 91.954 63.1171 91.954 62.7687C91.954 62.4204 91.5298 62.1381 91.0065 62.1381C90.4831 62.1381 90.0588 62.4204 90.0588 62.7687C90.0588 63.1171 90.4831 63.3994 91.0065 63.3994Z" fill="white"/>
<path d="M95.4286 60.2461C95.9024 60.4037 95.9024 60.8767 95.4286 61.0344C94.9548 61.1921 94.3231 61.1921 94.0072 61.0344C93.5334 60.8767 93.5334 60.4037 94.0072 60.2461C94.481 60.0884 95.1127 60.0884 95.4286 60.2461Z" fill="white"/>
<path d="M99.2189 58.0387C99.6927 58.1964 99.6927 58.6694 99.2189 58.8271C98.7451 58.9847 98.1133 58.9847 97.7975 58.8271C97.3237 58.6694 97.3237 58.1964 97.7975 58.0387C98.1133 57.8811 98.7451 57.8811 99.2189 58.0387Z" fill="white"/>
<path d="M103.009 55.989C103.483 56.1467 103.483 56.6197 103.009 56.7773C102.535 56.935 101.904 56.935 101.588 56.7773C101.114 56.6197 101.114 56.1467 101.588 55.989C101.904 55.6737 102.535 55.6737 103.009 55.989Z" fill="white"/>
<path d="M106.641 53.7816C107.115 53.9393 107.115 54.4123 106.641 54.57C106.168 54.7277 105.536 54.7277 105.22 54.57C104.746 54.4123 104.746 53.9393 105.22 53.7816C105.694 53.624 106.326 53.624 106.641 53.7816Z" fill="white"/>
<path d="M110.432 51.5742C110.906 51.7319 110.906 52.2049 110.432 52.3626C109.958 52.5203 109.326 52.5203 109.01 52.3626C108.537 52.2049 108.537 51.7319 109.01 51.5742C109.484 51.4166 110.116 51.4166 110.432 51.5742Z" fill="white"/>
<path d="M79.7935 69.8638C80.3168 69.8638 80.7411 69.5815 80.7411 69.2331C80.7411 68.8848 80.3168 68.6025 79.7935 68.6025C79.2702 68.6025 78.8459 68.8848 78.8459 69.2331C78.8459 69.5815 79.2702 69.8638 79.7935 69.8638Z" fill="white"/>
<path d="M84.2155 66.7105C84.6892 66.8681 84.6892 67.3412 84.2155 67.4988C83.7417 67.6565 83.1099 67.6565 82.7941 67.4988C82.3203 67.3412 82.3203 66.8681 82.7941 66.7105C83.2678 66.5528 83.8996 66.5528 84.2155 66.7105Z" fill="white"/>
<path d="M54.2091 79.6393C54.6829 79.797 54.6829 80.27 54.2091 80.4276C53.7353 80.5853 53.1036 80.5853 52.7877 80.4276C52.3139 80.27 52.3139 79.797 52.7877 79.6393C53.2615 79.4816 53.8933 79.4816 54.2091 79.6393Z" fill="white"/>
<path d="M57.9993 77.5896C58.4731 77.7473 58.4731 78.2203 57.9993 78.3779C57.5255 78.5356 56.8939 78.5356 56.578 78.3779C56.1042 78.2203 56.1042 77.7473 56.578 77.5896C57.0518 77.2743 57.6834 77.2743 57.9993 77.5896Z" fill="white"/>
<path d="M61.7897 75.3823C62.2635 75.5399 62.2635 76.0129 61.7897 76.1706C61.3159 76.3283 60.6841 76.3283 60.3683 76.1706C59.8945 76.0129 59.8945 75.5399 60.3683 75.3823C60.6841 75.0669 61.3159 75.0669 61.7897 75.3823Z" fill="white"/>
<path d="M65.5799 73.1749C66.0537 73.3326 66.0537 73.8056 65.5799 73.9632C65.1061 74.1209 64.4744 74.1209 64.1586 73.9632C63.6848 73.8056 63.6848 73.3326 64.1586 73.1749C64.4744 73.0172 65.1061 73.0172 65.5799 73.1749Z" fill="white"/>
<path d="M68.5806 72.0712C69.1039 72.0712 69.5281 71.7888 69.5281 71.4405C69.5281 71.0922 69.1039 70.8098 68.5806 70.8098C68.0573 70.8098 67.6331 71.0922 67.6331 71.4405C67.6331 71.7888 68.0573 72.0712 68.5806 72.0712Z" fill="white"/>
<path d="M73.0027 68.9178C73.4765 69.0755 73.4765 69.5485 73.0027 69.7062C72.5289 69.8639 71.8973 69.8639 71.5814 69.7062C71.1076 69.5485 71.1076 69.0755 71.5814 68.9178C71.8973 68.6025 72.5289 68.6025 73.0027 68.9178Z" fill="white"/>
<path d="M84.2155 62.4534C84.6892 62.6111 84.6892 63.0841 84.2155 63.2418C83.7417 63.3994 83.1099 63.3994 82.7941 63.2418C82.3203 63.0841 82.3203 62.6111 82.7941 62.4534C83.2678 62.1381 83.8996 62.1381 84.2155 62.4534Z" fill="white"/>
<path d="M88.0059 60.2461C88.4797 60.4037 88.4797 60.8767 88.0059 61.0344C87.5321 61.1921 86.9004 61.1921 86.5846 61.0344C86.1108 60.8767 86.1108 60.4037 86.5846 60.2461C86.9004 60.0884 87.5321 60.0884 88.0059 60.2461Z" fill="white"/>
<path d="M91.7963 58.0387C92.2701 58.1964 92.2701 58.6694 91.7963 58.8271C91.3225 58.9847 90.6907 58.9847 90.3749 58.8271C89.9011 58.6694 89.9011 58.1964 90.3749 58.0387C90.6907 57.8811 91.3225 57.8811 91.7963 58.0387Z" fill="white"/>
<path d="M95.4286 55.989C95.9024 56.1467 95.9024 56.6197 95.4286 56.7773C94.9548 56.935 94.3231 56.935 94.0072 56.7773C93.5334 56.6197 93.5334 56.1467 94.0072 55.989C94.481 55.6737 95.1127 55.6737 95.4286 55.989Z" fill="white"/>
<path d="M99.2189 53.7816C99.6927 53.9393 99.6927 54.4123 99.2189 54.57C98.7451 54.7277 98.1133 54.7277 97.7975 54.57C97.3237 54.4123 97.3237 53.9393 97.7975 53.7816C98.1133 53.624 98.7451 53.624 99.2189 53.7816Z" fill="white"/>
<path d="M103.009 51.5742C103.483 51.7319 103.483 52.2049 103.009 52.3626C102.535 52.5203 101.904 52.5203 101.588 52.3626C101.114 52.2049 101.114 51.7319 101.588 51.5742C101.904 51.4166 102.535 51.4166 103.009 51.5742Z" fill="white"/>
<path d="M106.01 50.4706C106.533 50.4706 106.957 50.1882 106.957 49.8399C106.957 49.4916 106.533 49.2092 106.01 49.2092C105.486 49.2092 105.062 49.4916 105.062 49.8399C105.062 50.1882 105.486 50.4706 106.01 50.4706Z" fill="white"/>
<path d="M76.7929 66.7105C77.2666 66.8681 77.2666 67.3412 76.7929 67.4988C76.3191 67.6565 75.6873 67.6565 75.3715 67.4988C74.8977 67.3412 74.8977 66.8681 75.3715 66.7105C75.6873 66.5528 76.3191 66.5528 76.7929 66.7105Z" fill="white"/>
<path d="M79.7935 65.6068C80.3168 65.6068 80.7411 65.3244 80.7411 64.9761C80.7411 64.6278 80.3168 64.3455 79.7935 64.3455C79.2702 64.3455 78.8459 64.6278 78.8459 64.9761C78.8459 65.3244 79.2702 65.6068 79.7935 65.6068Z" fill="white"/>
<path d="M50.5767 77.5896C51.0505 77.7473 51.0505 78.2203 50.5767 78.3779C50.1029 78.5356 49.4712 78.5356 49.1554 78.3779C48.6816 78.2203 48.6816 77.7473 49.1554 77.5896C49.4712 77.2743 50.1029 77.2743 50.5767 77.5896Z" fill="white"/>
<path d="M54.2091 75.3823C54.6829 75.5399 54.6829 76.0129 54.2091 76.1706C53.7353 76.3283 53.1036 76.3283 52.7877 76.1706C52.3139 76.0129 52.3139 75.5399 52.7877 75.3823C53.2615 75.0669 53.8933 75.0669 54.2091 75.3823Z" fill="white"/>
<path d="M57.9993 73.1749C58.4731 73.3326 58.4731 73.8056 57.9993 73.9632C57.5255 74.1209 56.8939 74.1209 56.578 73.9632C56.1042 73.8056 56.1042 73.3326 56.578 73.1749C57.0518 73.0172 57.6834 73.0172 57.9993 73.1749Z" fill="white"/>
<path d="M61.7897 71.1252C62.2635 71.2828 62.2635 71.7558 61.7897 71.9135C61.3159 72.0712 60.6841 72.0712 60.3683 71.9135C59.8945 71.7558 59.8945 71.2828 60.3683 71.1252C60.6841 70.8098 61.3159 70.8098 61.7897 71.1252Z" fill="white"/>
<path d="M65.5799 68.9178C66.0537 69.0755 66.0537 69.5485 65.5799 69.7062C65.1061 69.8639 64.4744 69.8639 64.1586 69.7062C63.6848 69.5485 63.6848 69.0755 64.1586 68.9178C64.4744 68.6025 65.1061 68.6025 65.5799 68.9178Z" fill="white"/>
<path d="M69.2123 66.7105C69.6861 66.8681 69.6861 67.3412 69.2123 67.4988C68.7385 67.6565 68.1067 67.6565 67.7909 67.4988C67.3171 67.3412 67.3171 66.8681 67.7909 66.7105C68.2647 66.5528 68.8964 66.5528 69.2123 66.7105Z" fill="white"/>
<path d="M79.7935 61.3497C80.3168 61.3497 80.7411 61.0673 80.7411 60.719C80.7411 60.3707 80.3168 60.0883 79.7935 60.0883C79.2702 60.0883 78.8459 60.3707 78.8459 60.719C78.8459 61.0673 79.2702 61.3497 79.7935 61.3497Z" fill="white"/>
<path d="M83.5838 59.1423C84.1071 59.1423 84.5313 58.86 84.5313 58.5116C84.5313 58.1633 84.1071 57.881 83.5838 57.881C83.0604 57.881 82.6362 58.1633 82.6362 58.5116C82.6362 58.86 83.0604 59.1423 83.5838 59.1423Z" fill="white"/>
<path d="M88.0059 55.989C88.4797 56.1467 88.4797 56.6197 88.0059 56.7773C87.5321 56.935 86.9004 56.935 86.5846 56.7773C86.1108 56.6197 86.1108 56.1467 86.5846 55.989C86.9004 55.6737 87.5321 55.6737 88.0059 55.989Z" fill="white"/>
<path d="M91.7963 53.7816C92.2701 53.9393 92.2701 54.4123 91.7963 54.57C91.3225 54.7277 90.6907 54.7277 90.3749 54.57C89.9011 54.4123 89.9011 53.9393 90.3749 53.7816C90.6907 53.624 91.3225 53.624 91.7963 53.7816Z" fill="white"/>
<path d="M95.4286 51.5742C95.9024 51.7319 95.9024 52.2049 95.4286 52.3626C94.9548 52.5203 94.3231 52.5203 94.0072 52.3626C93.5334 52.2049 93.5334 51.7319 94.0072 51.5742C94.481 51.4166 95.1127 51.4166 95.4286 51.5742Z" fill="white"/>
<path d="M72.2129 65.6068C72.7362 65.6068 73.1605 65.3244 73.1605 64.9761C73.1605 64.6278 72.7362 64.3455 72.2129 64.3455C71.6896 64.3455 71.2654 64.6278 71.2654 64.9761C71.2654 65.3244 71.6896 65.6068 72.2129 65.6068Z" fill="white"/>
<path d="M76.0033 63.3994C76.5266 63.3994 76.9508 63.1171 76.9508 62.7687C76.9508 62.4204 76.5266 62.1381 76.0033 62.1381C75.48 62.1381 75.0557 62.4204 75.0557 62.7687C75.0557 63.1171 75.48 63.3994 76.0033 63.3994Z" fill="white"/>
<path d="M46.7865 75.3823C47.2603 75.5399 47.2603 76.0129 46.7865 76.1706C46.3127 76.3283 45.681 76.3283 45.3651 76.1706C44.8913 76.0129 44.8913 75.5399 45.3651 75.3823C45.681 75.0669 46.3127 75.0669 46.7865 75.3823Z" fill="white"/>
<path d="M49.7871 74.2785C50.3105 74.2785 50.7348 73.9962 50.7348 73.6479C50.7348 73.2996 50.3105 73.0172 49.7871 73.0172C49.2638 73.0172 48.8396 73.2996 48.8396 73.6479C48.8396 73.9962 49.2638 74.2785 49.7871 74.2785Z" fill="white"/>
<path d="M53.5774 72.0712C54.1007 72.0712 54.525 71.7888 54.525 71.4405C54.525 71.0922 54.1007 70.8098 53.5774 70.8098C53.0541 70.8098 52.6299 71.0922 52.6299 71.4405C52.6299 71.7888 53.0541 72.0712 53.5774 72.0712Z" fill="white"/>
<path d="M57.9993 68.9178C58.4731 69.0755 58.4731 69.5485 57.9993 69.7062C57.5255 69.8639 56.8939 69.8639 56.578 69.7062C56.1042 69.5485 56.1042 69.0755 56.578 68.9178C57.0518 68.6025 57.6834 68.6025 57.9993 68.9178Z" fill="white"/>
<path d="M60.9999 67.8142C61.5232 67.8142 61.9474 67.5318 61.9474 67.1835C61.9474 66.8351 61.5232 66.5528 60.9999 66.5528C60.4765 66.5528 60.0522 66.8351 60.0522 67.1835C60.0522 67.5318 60.4765 67.8142 60.9999 67.8142Z" fill="white"/>
<path d="M65.5799 64.5031C66.0537 64.6607 66.0537 65.1338 65.5799 65.2914C65.1061 65.4491 64.4744 65.4491 64.1586 65.2914C63.6848 65.1338 63.6848 64.6607 64.1586 64.5031C64.4744 64.3454 65.1061 64.3454 65.5799 64.5031Z" fill="white"/>
<path d="M76.7929 58.0387C77.2666 58.1964 77.2666 58.6694 76.7929 58.8271C76.3191 58.9847 75.6873 58.9847 75.3715 58.8271C74.8977 58.6694 74.8977 58.1964 75.3715 58.0387C75.6873 57.8811 76.3191 57.8811 76.7929 58.0387Z" fill="white"/>
<path d="M80.4254 55.989C80.8992 56.1467 80.8992 56.6197 80.4254 56.7773C79.9516 56.935 79.3199 56.935 79.004 56.7773C78.5302 56.6197 78.5302 56.1467 79.004 55.989C79.4778 55.6737 80.1096 55.6737 80.4254 55.989Z" fill="white"/>
<path d="M83.5838 54.8853C84.1071 54.8853 84.5313 54.6029 84.5313 54.2546C84.5313 53.9063 84.1071 53.624 83.5838 53.624C83.0604 53.624 82.6362 53.9063 82.6362 54.2546C82.6362 54.6029 83.0604 54.8853 83.5838 54.8853Z" fill="white"/>
<path d="M88.0059 51.5742C88.4797 51.7319 88.4797 52.2049 88.0059 52.3626C87.5321 52.5203 86.9004 52.5203 86.5846 52.3626C86.1108 52.2049 86.1108 51.7319 86.5846 51.5742C86.9004 51.4166 87.5321 51.4166 88.0059 51.5742Z" fill="white"/>
<path d="M69.2123 62.4534C69.6861 62.6111 69.6861 63.0841 69.2123 63.2418C68.7385 63.3994 68.1067 63.3994 67.7909 63.2418C67.3171 63.0841 67.3171 62.6111 67.7909 62.4534C68.2647 62.1381 68.8964 62.1381 69.2123 62.4534Z" fill="white"/>
<path d="M73.0027 60.2461C73.4765 60.4037 73.4765 60.8767 73.0027 61.0344C72.5289 61.1921 71.8973 61.1921 71.5814 61.0344C71.1076 60.8767 71.1076 60.4037 71.5814 60.2461C71.8973 60.0884 72.5289 60.0884 73.0027 60.2461Z" fill="white"/>
<path d="M42.9961 73.1749C43.4699 73.3326 43.4699 73.8056 42.9961 73.9632C42.5223 74.1209 41.8907 74.1209 41.5748 73.9632C41.101 73.8056 41.101 73.3326 41.5748 73.1749C42.0486 73.0172 42.6803 73.0172 42.9961 73.1749Z" fill="white"/>
<path d="M46.7865 70.9675C47.2603 71.1252 47.2603 71.5982 46.7865 71.7558C46.3127 71.9135 45.681 71.9135 45.3651 71.7558C44.8913 71.5982 44.8913 71.1252 45.3651 70.9675C45.681 70.8098 46.3127 70.8098 46.7865 70.9675Z" fill="white"/>
<path d="M50.5767 68.9178C51.0505 69.0755 51.0505 69.5485 50.5767 69.7062C50.1029 69.8639 49.4712 69.8639 49.1554 69.7062C48.6816 69.5485 48.6816 69.0755 49.1554 68.9178C49.4712 68.6025 50.1029 68.6025 50.5767 68.9178Z" fill="white"/>
<path d="M54.2091 66.7105C54.6829 66.8681 54.6829 67.3412 54.2091 67.4988C53.7353 67.6565 53.1036 67.6565 52.7877 67.4988C52.3139 67.3412 52.3139 66.8681 52.7877 66.7105C53.2615 66.5528 53.8933 66.5528 54.2091 66.7105Z" fill="white"/>
<path d="M57.9993 64.5031C58.4731 64.6607 58.4731 65.1338 57.9993 65.2914C57.5255 65.4491 56.8939 65.4491 56.578 65.2914C56.1042 65.1338 56.1042 64.6607 56.578 64.5031C56.8939 64.3454 57.5255 64.3454 57.9993 64.5031Z" fill="white"/>
<path d="M61.7897 62.4534C62.2635 62.6111 62.2635 63.0841 61.7897 63.2418C61.3159 63.3994 60.6841 63.3994 60.3683 63.2418C59.8945 63.0841 59.8945 62.6111 60.3683 62.4534C60.6841 62.1381 61.3159 62.1381 61.7897 62.4534Z" fill="white"/>
<path d="M73.0027 55.989C73.4765 56.1467 73.4765 56.6197 73.0027 56.7773C72.5289 56.935 71.8973 56.935 71.5814 56.7773C71.1076 56.6197 71.1076 56.1467 71.5814 55.989C71.8973 55.6737 72.5289 55.6737 73.0027 55.989Z" fill="white"/>
<path d="M76.0033 54.7277C76.5266 54.7277 76.9508 54.4453 76.9508 54.097C76.9508 53.7487 76.5266 53.4663 76.0033 53.4663C75.48 53.4663 75.0557 53.7487 75.0557 54.097C75.0557 54.4453 75.48 54.7277 76.0033 54.7277Z" fill="white"/>
<path d="M65.422 60.2461C65.8958 60.4038 65.8958 60.8768 65.422 61.0344C64.9482 61.1921 64.3165 61.1921 64.0006 61.0344C63.5268 60.8768 63.5268 60.4038 64.0006 60.2461C64.4744 59.9307 65.1061 59.9307 65.422 60.2461Z" fill="white"/>
<path d="M69.2123 58.0387C69.6861 58.1964 69.6861 58.6694 69.2123 58.8271C68.7385 58.9847 68.1067 58.9847 67.7909 58.8271C67.3171 58.6694 67.3171 58.1964 67.7909 58.0387C68.1067 57.8811 68.8964 57.8811 69.2123 58.0387Z" fill="white"/>
<path d="M39.2059 70.9675C39.6797 71.1252 39.6797 71.5982 39.2059 71.7558C38.7322 71.9135 38.1004 71.9135 37.7845 71.7558C37.3108 71.5982 37.3108 71.1252 37.7845 70.9675C38.2583 70.8098 38.8901 70.8098 39.2059 70.9675Z" fill="white"/>
<path d="M42.9961 68.9178C43.4699 69.0755 43.4699 69.5485 42.9961 69.7062C42.5223 69.8639 41.8907 69.8639 41.5748 69.7062C41.101 69.5485 41.101 69.0755 41.5748 68.9178C42.0486 68.6025 42.6803 68.6025 42.9961 68.9178Z" fill="white"/>
<path d="M46.7865 66.7105C47.2603 66.8681 47.2603 67.3412 46.7865 67.4988C46.3127 67.6565 45.681 67.6565 45.3651 67.4988C44.8913 67.3412 44.8913 66.8681 45.3651 66.7105C45.681 66.5528 46.3127 66.5528 46.7865 66.7105Z" fill="white"/>
<path d="M50.5767 64.5031C51.0505 64.6607 51.0505 65.1338 50.5767 65.2914C50.1029 65.4491 49.4712 65.4491 49.1554 65.2914C48.6816 65.1338 48.6816 64.6607 49.1554 64.5031C49.4712 64.3454 50.1029 64.3454 50.5767 64.5031Z" fill="white"/>
<path d="M53.5774 63.3994C54.1007 63.3994 54.525 63.1171 54.525 62.7687C54.525 62.4204 54.1007 62.1381 53.5774 62.1381C53.0541 62.1381 52.6299 62.4204 52.6299 62.7687C52.6299 63.1171 53.0541 63.3994 53.5774 63.3994Z" fill="white"/>
<path d="M57.9993 60.2461C58.4731 60.4038 58.4731 60.8768 57.9993 61.0344C57.5255 61.1921 56.8939 61.1921 56.578 61.0344C56.1042 60.8768 56.1042 60.4038 56.578 60.2461C56.8939 59.9307 57.5255 59.9307 57.9993 60.2461Z" fill="white"/>
<path d="M69.2123 54.57C68.7385 54.7276 68.1067 54.7276 67.7909 54.57C67.3171 54.4123 67.3171 53.9393 67.7909 53.7816C68.1067 53.4663 69.6861 54.4123 69.2123 54.57Z" fill="white"/>
<path d="M61.7897 58.0387C62.2635 58.1964 62.2635 58.6694 61.7897 58.8271C61.3159 58.9847 60.6841 58.9847 60.3683 58.8271C59.8945 58.6694 59.8945 58.1964 60.3683 58.0387C60.6841 57.8811 61.3159 57.8811 61.7897 58.0387Z" fill="white"/>
<path d="M65.422 55.989C65.8958 56.1467 65.8958 56.6197 65.422 56.7773C64.9482 56.935 64.3165 56.935 64.0006 56.7773C63.5268 56.6197 63.5268 56.1467 64.0006 55.989C64.4744 55.6737 65.1061 55.6737 65.422 55.989Z" fill="white"/>
<path d="M35.5733 68.9178C36.0471 69.0755 36.0471 69.5485 35.5733 69.7062C35.0995 69.8639 34.4678 69.8639 34.152 69.7062C33.6782 69.5485 33.6782 69.0755 34.152 68.9178C34.4678 68.6025 35.0995 68.6025 35.5733 68.9178Z" fill="white"/>
<path d="M39.2059 66.7105C39.6797 66.8681 39.6797 67.3412 39.2059 67.4988C38.7322 67.6565 38.1004 67.6565 37.7845 67.4988C37.3108 67.3412 37.3108 66.8681 37.7845 66.7105C38.2583 66.5528 38.8901 66.5528 39.2059 66.7105Z" fill="white"/>
<path d="M42.9961 64.5031C43.4699 64.6607 43.4699 65.1338 42.9961 65.2914C42.5223 65.4491 41.8907 65.4491 41.5748 65.2914C41.101 65.1338 41.101 64.6607 41.5748 64.5031C42.0486 64.3454 42.6803 64.3454 42.9961 64.5031Z" fill="white"/>
<path d="M46.7865 62.4534C47.2603 62.6111 47.2603 63.0841 46.7865 63.2418C46.3127 63.3994 45.681 63.3994 45.3651 63.2418C44.8913 63.0841 44.8913 62.6111 45.3651 62.4534C45.681 62.1381 46.3127 62.1381 46.7865 62.4534Z" fill="white"/>
<path d="M49.7871 61.3497C50.3105 61.3497 50.7348 61.0673 50.7348 60.719C50.7348 60.3707 50.3105 60.0883 49.7871 60.0883C49.2638 60.0883 48.8396 60.3707 48.8396 60.719C48.8396 61.0673 49.2638 61.3497 49.7871 61.3497Z" fill="white"/>
<path d="M54.2091 58.0387C54.6829 58.1964 54.6829 58.6694 54.2091 58.8271C53.7353 58.9847 53.1036 58.9847 52.7877 58.8271C52.3139 58.6694 52.3139 58.1964 52.7877 58.0387C53.2615 57.8811 53.8933 57.8811 54.2091 58.0387Z" fill="white"/>
<path d="M57.9993 55.989C58.4731 56.1467 58.4731 56.6197 57.9993 56.7773C57.5255 56.935 56.8939 56.935 56.578 56.7773C56.1042 56.6197 56.1042 56.1467 56.578 55.989C56.8939 55.6737 57.5255 55.6737 57.9993 55.989Z" fill="white"/>
<path d="M61.7897 53.7816C62.2635 53.9393 62.2635 54.4123 61.7897 54.57C61.3159 54.7276 60.6841 54.7276 60.3683 54.57C59.8945 54.4123 59.8945 53.9393 60.3683 53.7816C60.6841 53.4663 61.3159 53.4663 61.7897 53.7816Z" fill="white"/>
<path d="M31.7833 66.7105C32.2571 66.8681 32.2571 67.3412 31.7833 67.4988C31.3095 67.6565 30.6778 67.6565 30.3619 67.4988C29.8881 67.3412 29.8881 66.8681 30.3619 66.7105C30.6778 66.5528 31.3095 66.5528 31.7833 66.7105Z" fill="white"/>
<path d="M35.5733 64.5031C36.0471 64.6607 36.0471 65.1338 35.5733 65.2914C35.0995 65.4491 34.4678 65.4491 34.152 65.2914C33.6782 65.1338 33.6782 64.6607 34.152 64.5031C34.4678 64.3454 35.0995 64.3454 35.5733 64.5031Z" fill="white"/>
<path d="M39.2059 62.4534C39.6797 62.6111 39.6797 63.0841 39.2059 63.2418C38.7322 63.3994 38.1004 63.3994 37.7845 63.2418C37.3108 63.0841 37.3108 62.6111 37.7845 62.4534C38.2583 62.1381 38.8901 62.1381 39.2059 62.4534Z" fill="white"/>
<path d="M42.9961 60.2461C43.4699 60.4038 43.4699 60.8768 42.9961 61.0344C42.5223 61.1921 41.8907 61.1921 41.5748 61.0344C41.101 60.8768 41.101 60.4038 41.5748 60.2461C42.0486 59.9307 42.6803 59.9307 42.9961 60.2461Z" fill="white"/>
<path d="M46.7865 58.0387C47.2603 58.1964 47.2603 58.6694 46.7865 58.8271C46.3127 58.9847 45.681 58.9847 45.3651 58.8271C44.8913 58.6694 44.8913 58.1964 45.3651 58.0387C45.681 57.8811 46.3127 57.8811 46.7865 58.0387Z" fill="white"/>
<path d="M49.7871 56.935C50.3105 56.935 50.7348 56.6526 50.7348 56.3043C50.7348 55.956 50.3105 55.6736 49.7871 55.6736C49.2638 55.6736 48.8396 55.956 48.8396 56.3043C48.8396 56.6526 49.2638 56.935 49.7871 56.935Z" fill="white"/>
<path d="M53.5774 54.7277C54.1007 54.7277 54.525 54.4453 54.525 54.097C54.525 53.7487 54.1007 53.4663 53.5774 53.4663C53.0541 53.4663 52.6299 53.7487 52.6299 54.097C52.6299 54.4453 53.0541 54.7277 53.5774 54.7277Z" fill="white"/>
<path d="M120.223 53.7816C120.539 53.624 121.329 53.624 121.645 53.7816C122.119 53.9393 122.119 54.4123 121.645 54.57C121.329 54.7277 120.539 54.7277 120.223 54.57C119.908 54.4123 119.908 54.097 120.223 53.7816Z" fill="white"/>
<path d="M116.591 51.5742C116.907 51.4166 117.696 51.4166 118.012 51.5742C118.486 51.7319 118.486 52.2049 118.012 52.3626C117.696 52.5203 116.907 52.5203 116.591 52.3626C116.117 52.2049 116.117 51.8896 116.591 51.5742Z" fill="white"/>
<path d="M112.801 49.5246C113.117 49.3669 113.906 49.3669 114.222 49.5246C114.696 49.6822 114.696 50.1552 114.222 50.3129C113.906 50.4706 113.117 50.4706 112.801 50.3129C112.327 50.1552 112.327 49.6822 112.801 49.5246Z" fill="white"/>
<path d="M110.432 47.3172C110.906 47.4749 110.906 47.9479 110.432 48.1056C110.116 48.2633 109.326 48.2633 109.01 48.1056C108.694 47.9479 110.116 47.1596 110.432 47.3172Z" fill="white"/>
<path d="M116.591 47.4748L116.749 38.6454L103.957 37.3841L58.6311 11.2111C54.2091 8.68835 47.576 8.37302 43.7857 10.5804L12.5158 28.5546L3.35599 27.6086L3.198 35.8074C3.04007 37.5417 4.30358 39.4338 6.83044 41.0104L61 72.2288C65.422 74.7515 72.055 75.0669 75.8453 72.8595L113.906 50.9436C115.801 50.1552 116.591 48.7362 116.591 47.4748Z" fill="#4B8EC8"/>
<path d="M104.272 36.5957L59.1048 10.5804C54.5249 7.90003 47.4181 7.5847 43.312 9.94973L12.3579 27.7663L2.56634 26.8203L2.40835 35.8074C2.25042 38.0147 3.67184 40.2221 6.51456 41.7988L60.6841 73.0172C63.211 74.4362 66.5275 75.2245 69.5281 75.2245C72.055 75.2245 74.5819 74.7515 76.477 73.6479L114.538 51.7319C116.433 50.6282 117.539 49.0516 117.539 47.3172L117.696 37.6994L104.272 36.5957ZM63.6848 72.5442V65.1338L59.2627 62.6111V70.1792L7.3042 40.2221C6.83041 39.9068 6.35665 39.5914 6.04079 39.2761V31.708L4.14562 30.1313V28.397L12.6737 29.1853L44.1016 11.0534C47.734 9.00372 54.0512 9.31904 58.1573 11.6841L103.483 37.8571L103.641 38.0147L115.801 39.1184V40.8528L77.2667 64.9761L72.2129 66.0798H69.0543V73.6479C67.1592 73.6479 65.2641 73.1749 63.6848 72.5442Z" fill="#16110D"/>
<path d="M114.222 42.5871L76.161 64.5031C72.3707 66.7104 65.7378 66.3951 61.3158 63.8724L7.14611 32.654C2.7241 30.1313 2.25039 26.1896 6.04068 23.9822L44.1015 2.06629C47.8918 -0.141075 54.5248 0.174253 58.9468 2.69695L113.116 33.9154C117.538 36.5957 118.012 40.3798 114.222 42.5871Z" fill="#4B8EC8"/>
<path d="M69.6859 66.8681C66.5273 66.8681 63.3687 66.0798 60.8418 64.6608L6.67227 33.4424C4.14541 32.0233 2.56616 29.9736 2.56616 27.9239C2.56616 26.1896 3.67161 24.6129 5.56675 23.5092L43.6277 1.59329C47.7338 -0.771742 54.6827 -0.456415 59.4205 2.22395L113.59 33.4424C116.117 34.8614 117.696 36.9111 117.696 38.9608C117.696 40.6951 116.591 42.2718 114.696 43.3755L76.6347 65.2914C74.7396 66.3951 72.3707 66.8681 69.6859 66.8681ZM50.4186 1.43561C48.2076 1.43561 45.9966 1.90863 44.4173 2.85464L6.3564 24.7706C4.93504 25.5589 4.14545 26.6626 4.14545 27.7663C4.14545 29.1853 5.25095 30.762 7.30403 31.8657L61.4736 63.0841C65.5798 65.4491 71.8969 65.7644 75.5293 63.7147L113.59 41.7988C115.011 41.0105 115.801 39.9068 115.801 38.8031C115.801 37.3841 114.696 35.8074 112.643 34.7037L58.4729 3.48531C56.2619 2.22396 53.2613 1.43561 50.4186 1.43561Z" fill="#16110D"/>
<path d="M59.5788 14.0491L23.5711 35.0191C21.8339 35.9651 18.8332 35.9651 16.7802 34.7037L13.9375 32.9694C11.8844 31.8657 11.7264 30.1313 13.4636 29.0277L49.6293 8.21541C51.3666 7.2694 54.3672 7.26939 56.4203 8.53074L59.263 10.2651C61.1581 11.3688 61.316 13.1031 59.5788 14.0491Z" fill="white"/>
<path d="M20.4123 33.4424C18.991 33.4424 17.4117 33.127 16.1482 32.3387L13.1476 30.6043C11.8842 29.816 11.0945 28.7123 11.0945 27.6086C11.0945 26.6626 11.7262 25.7166 12.6738 25.2436L48.8395 4.43133C50.8926 3.32765 54.2091 3.32765 56.4201 4.74667L59.4208 6.48101C60.6842 7.26935 61.4738 8.37304 61.4738 9.47672C61.4738 10.4227 60.8421 11.3687 59.8945 11.8418L23.7288 32.654C22.9391 33.2847 21.6758 33.4424 20.4123 33.4424ZM52.314 5.37733C51.3664 5.37733 50.4188 5.53501 49.787 6.00802L13.6214 26.8203C13.3055 26.9779 12.8318 27.2933 12.8318 27.7663C12.8318 28.2393 13.3055 28.87 14.0952 29.1853L17.0959 30.9196C18.8331 31.8657 21.5178 32.0233 23.0971 31.235L59.2628 10.4227C59.5786 10.2651 60.0524 9.94973 60.0524 9.47672C60.0524 9.00372 59.5787 8.37303 58.789 8.05769L55.7884 6.32335C54.8408 5.69268 53.5774 5.37733 52.314 5.37733Z" fill="#16110D"/>
<path d="M39.2059 40.5374L34.9418 43.0602C33.9942 43.6908 32.257 43.5331 31.1515 42.9025L27.677 41.0105C26.5715 40.3798 26.4137 39.4338 27.3612 38.8031L31.6252 36.2804C32.5728 35.6497 34.3101 35.8074 35.4156 36.4381L38.89 38.3301C39.9955 39.1184 40.1535 40.0644 39.2059 40.5374Z" fill="white"/>
<path d="M33.2044 41.3258C32.2568 41.3258 31.4672 41.1681 30.6776 40.6951L27.2031 38.8031C26.4135 38.3301 25.9397 37.5417 25.9397 36.9111C25.9397 36.2804 26.2556 35.6497 27.0452 35.3344L31.3093 32.8117C32.5727 32.181 34.4678 32.181 35.8892 32.9694L39.2058 34.8614C39.9954 35.3344 40.4692 36.1227 40.4692 36.7534C40.4692 37.3841 40.1533 38.0148 39.3636 38.3301L35.0996 40.8528C34.6258 41.1681 33.8361 41.3258 33.2044 41.3258ZM33.3624 33.7577C32.8886 33.7577 32.4148 33.9154 32.099 34.073L27.8349 36.5957C27.6769 36.7534 27.6769 36.7534 27.6769 36.7534C27.6769 36.7534 27.8349 37.0687 28.1507 37.2264L31.6251 39.1184C32.4147 39.5915 33.8362 39.7491 34.4679 39.2761L38.7319 36.7534C38.8898 36.5957 38.8899 36.5957 38.8899 36.5957C38.8899 36.5957 38.732 36.2804 38.4161 36.1227L35.0996 34.2307C34.4678 33.9154 33.8362 33.7577 33.3624 33.7577Z" fill="#16110D"/>
<path d="M50.7347 33.9154L46.4706 36.4381C45.523 37.0687 43.7857 36.9111 42.6802 36.2804L39.2059 34.3884C38.1004 33.7577 37.9424 32.8117 38.89 32.181L43.1541 29.6583C44.1017 29.0277 45.8388 29.1853 46.9443 29.816L50.4188 31.708C51.5243 32.4963 51.6822 33.4424 50.7347 33.9154Z" fill="white"/>
<path d="M44.7333 34.7037C43.7857 34.7037 42.996 34.546 42.2064 34.073L38.7319 32.181C37.9423 31.708 37.4685 30.9196 37.4685 30.289C37.4685 29.6583 37.7844 29.0276 38.574 28.7123L42.8381 26.1896C44.1016 25.5589 45.9966 25.5589 47.418 26.3472L50.8925 28.2393C51.6821 28.7123 52.1559 29.5006 52.1559 30.1313C52.1559 30.762 51.8401 31.3926 51.0504 31.708L46.7863 34.2307C46.1546 34.546 45.365 34.7037 44.7333 34.7037ZM44.8912 27.1356C44.4174 27.1356 43.9436 27.2932 43.6278 27.4509L39.3637 29.9736C39.2057 30.1313 39.2058 30.1313 39.2058 30.1313C39.2058 30.1313 39.3637 30.4466 39.6795 30.6043L43.154 32.4963C43.9436 32.9693 45.365 33.127 45.9967 32.654L50.2608 30.1313C50.4187 29.9736 50.4187 29.9736 50.4187 29.9736C50.4187 29.9736 50.2608 29.6583 49.9449 29.5006L46.4705 27.6086C46.1546 27.2933 45.365 27.1356 44.8912 27.1356Z" fill="#16110D"/>
<path d="M62.2632 27.2933L57.9991 29.8159C57.0516 30.4466 55.3144 30.289 54.2089 29.6583L50.7344 27.7662C49.6289 27.1356 49.471 26.1896 50.4186 25.5589L54.6827 23.0362C55.6302 22.4055 57.3674 22.5632 58.4729 23.1939L61.9474 25.0859C63.0529 25.7166 63.2108 26.8203 62.2632 27.2933Z" fill="white"/>
<path d="M56.2621 28.0816C55.3145 28.0816 54.5248 27.9239 53.7352 27.4509L50.4187 25.5589C49.629 25.0859 49.1553 24.2976 49.1553 23.6669C49.1553 23.0362 49.4712 22.4055 50.2608 22.0902L54.5248 19.5675C55.7882 18.9368 57.6834 18.9368 59.1048 19.7252L62.5792 21.6172C63.3689 22.0902 63.8426 22.8785 63.8426 23.5092C63.8426 24.1399 63.5268 24.7706 62.7371 25.0859L58.473 27.6086C57.6834 27.9239 57.0517 28.0816 56.2621 28.0816ZM56.42 20.5135C55.9462 20.5135 55.4724 20.6712 55.1565 20.8288L50.8925 23.3516C50.7345 23.5092 50.7346 23.5092 50.7346 23.5092C50.7346 23.5092 50.8925 23.8245 51.2083 23.9822L54.5248 25.8742C55.3144 26.3472 56.7359 26.5049 57.3676 26.0319L61.6316 23.5092C61.7895 23.3515 61.7896 23.3516 61.7896 23.3516C61.7896 23.3516 61.6317 23.0362 61.3158 22.8785L57.8414 20.9865C57.6834 20.6712 57.0517 20.5135 56.42 20.5135Z" fill="#16110D"/>
<path d="M73.792 20.6712L69.5279 23.1939C68.5804 23.8246 66.8432 23.6669 65.7377 23.0363L62.2633 21.1442C61.1578 20.5136 60.9998 19.5676 61.9474 18.9369L66.2115 16.4142C67.1591 15.7835 68.8963 15.9412 70.0018 16.5719L73.4762 18.4639C74.5817 19.0946 74.7396 20.0406 73.792 20.6712Z" fill="white"/>
<path d="M67.7909 21.3019C66.8433 21.3019 66.0537 21.1442 65.2641 20.6712L61.9475 18.7792C61.1578 18.3062 60.6841 17.5178 60.6841 16.8872C60.6841 16.2565 61 15.6258 61.7896 15.3105L66.0537 12.7878C67.3171 12.1571 69.2122 12.1571 70.6336 12.9454L73.9501 14.8375C74.7398 15.3105 75.2136 16.0988 75.2136 16.7295C75.2136 17.3602 74.8977 17.9908 74.108 18.3062L69.8439 20.8289C69.2122 21.1442 68.5805 21.3019 67.7909 21.3019ZM67.9488 13.8915C67.475 13.8915 67.0012 14.0491 66.6854 14.2068L62.4213 16.7295C62.2633 16.8871 62.2634 16.8872 62.2634 16.8872C62.2634 16.8872 62.4213 17.2025 62.7371 17.3602L66.0537 19.2522C66.8433 19.7252 68.2647 19.8829 68.8964 19.4099L73.1605 16.8872C73.3184 16.7295 73.3184 16.7295 73.3184 16.7295C73.3184 16.7295 73.1605 16.4142 72.8446 16.2565L69.5281 14.3645C69.2122 14.0491 68.5805 13.8915 67.9488 13.8915Z" fill="#16110D"/>
<path d="M50.419 47.0018L46.1549 49.5245C45.2073 50.1552 43.4702 49.9975 42.3647 49.3668L38.8902 47.4748C37.7847 46.8441 37.6268 45.8981 38.5743 45.2675L42.8384 42.7447C43.786 42.1141 45.5232 42.2717 46.6287 42.9024L50.1031 44.7944C51.2086 45.5828 51.3666 46.5288 50.419 47.0018Z" fill="white"/>
<path d="M44.4176 47.7902C43.47 47.7902 42.6803 47.6325 41.8907 47.1595L38.4163 45.2675C37.6267 44.7945 37.1528 44.0061 37.1528 43.3754C37.1528 42.7448 37.4687 42.1141 38.2584 41.7988L42.5225 39.276C43.7859 38.6454 45.6811 38.6454 47.1024 39.4337L50.4189 41.3257C51.2085 41.7987 51.6823 42.5871 51.6823 43.2178C51.6823 43.8484 51.3664 44.4791 50.5768 44.7944L46.3128 47.3172C45.839 47.6325 45.2073 47.7902 44.4176 47.7902ZM44.5755 40.2221C44.1017 40.2221 43.628 40.3797 43.3121 40.5374L39.048 43.0601C38.8901 43.2178 38.8901 43.2178 38.8901 43.2178C38.8901 43.2178 39.048 43.5331 39.3639 43.6908L42.8383 45.5828C43.628 46.0558 45.0493 46.2135 45.681 45.7405L49.9451 43.2178C50.1031 43.0601 50.103 43.0601 50.103 43.0601C50.103 43.0601 49.9451 42.7448 49.6292 42.5871L46.3128 40.6951C45.839 40.3797 45.2072 40.2221 44.5755 40.2221Z" fill="#16110D"/>
<path d="M61.9476 40.3798L57.6835 42.9025C56.7359 43.5332 54.9987 43.3755 53.8932 42.7448L50.4188 40.8528C49.3133 40.2221 49.1553 39.2761 50.1029 38.6454L54.367 36.1227C55.3146 35.4921 57.0518 35.6497 58.1573 36.2804L61.6317 38.1724C62.7372 38.9608 62.8951 39.9068 61.9476 40.3798Z" fill="white"/>
<path d="M55.9463 41.1681C54.9988 41.1681 54.2092 41.0105 53.4195 40.5375L49.9451 38.6454C49.1554 38.1724 48.6816 37.3841 48.6816 36.7534C48.6816 36.1228 48.9974 35.4921 49.7871 35.1767L54.0512 32.654C55.3146 32.0234 57.2098 32.0234 58.6311 32.8117L62.1056 34.7037C62.8952 35.1767 63.369 35.9651 63.369 36.5958C63.369 37.2264 63.0531 37.8571 62.2635 38.1724L57.9994 40.6951C57.3677 41.0105 56.736 41.1681 55.9463 41.1681ZM56.1042 33.6001C55.6304 33.6001 55.1567 33.7577 54.8408 33.9154L50.5767 36.4381C50.4188 36.5957 50.4188 36.5958 50.4188 36.5958C50.4188 36.5958 50.5767 36.9111 50.8926 37.0688L54.367 38.9608C55.1567 39.4338 56.578 39.5915 57.2097 39.1185L61.4738 36.5958C61.6318 36.4381 61.6317 36.4381 61.6317 36.4381C61.6317 36.4381 61.4738 36.1228 61.158 35.9651L57.6835 34.073C57.3677 33.7577 56.7359 33.6001 56.1042 33.6001Z" fill="#16110D"/>
<path d="M73.4761 33.7577L69.2121 36.2804C68.2646 36.911 66.5273 36.7534 65.4218 36.1227L61.9473 34.2307C60.8418 33.6 60.6839 32.654 61.6315 32.0233L65.8956 29.5006C66.8431 28.8699 68.5804 29.0276 69.6859 29.6583L73.1603 31.5503C74.2658 32.3386 74.4237 33.2846 73.4761 33.7577Z" fill="white"/>
<path d="M67.475 34.546C66.5274 34.546 65.7378 34.3884 64.9481 33.9153L61.6316 32.0233C60.8419 31.5503 60.3682 30.762 60.3682 30.1313C60.3682 29.5006 60.684 28.8699 61.4737 28.5546L65.7378 26.0319C67.0012 25.4012 68.8963 25.4012 70.3177 26.1896L73.7921 28.0816C74.5818 28.5546 75.0555 29.343 75.0555 29.9736C75.0555 30.6043 74.7397 31.235 73.9501 31.5503L69.686 34.073C68.8964 34.3883 68.2646 34.546 67.475 34.546ZM67.633 26.9779C67.1592 26.9779 66.6853 27.1356 66.3694 27.2933L62.1054 29.816C61.9475 29.9736 61.9475 29.9736 61.9475 29.9736C61.9475 29.9736 62.1054 30.289 62.4212 30.4466L65.7378 32.3387C66.5274 32.8117 67.9488 32.9693 68.5805 32.4963L72.8446 29.9736C73.0025 29.816 73.0025 29.816 73.0025 29.816C73.0025 29.816 72.8446 29.5006 72.5287 29.3429L69.0543 27.4509C68.8963 27.1356 68.2647 26.9779 67.633 26.9779Z" fill="#16110D"/>
<path d="M85.0052 27.1356L80.7411 29.6583C79.7935 30.289 78.0563 30.1313 76.9508 29.5006L73.4763 27.6086C72.3708 26.9779 72.213 26.0319 73.1606 25.4012L77.4246 22.8785C78.3721 22.2479 80.1094 22.4055 81.2149 23.0362L84.6893 24.9282C85.7948 25.5589 85.9528 26.5049 85.0052 27.1356Z" fill="white"/>
<path d="M79.0038 27.9239C78.0562 27.9239 77.2666 27.7663 76.4769 27.2933L73.1605 25.4012C72.3708 24.9282 71.897 24.1399 71.897 23.5092C71.897 22.8785 72.2128 22.2479 73.0025 21.9325L77.2666 19.4098C78.53 18.7792 80.4252 18.7792 81.8466 19.5675L85.163 21.4595C85.9527 21.9325 86.4264 22.7209 86.4264 23.3516C86.4264 23.9822 86.1106 24.6129 85.3209 25.0859L81.0569 27.6086C80.4252 27.7663 79.7934 27.9239 79.0038 27.9239ZM79.1618 20.3558C78.688 20.3558 78.2142 20.5135 77.8983 20.6712L73.6342 23.1939C73.4763 23.3516 73.4763 23.3516 73.4763 23.3516C73.4763 23.3516 73.6343 23.6669 73.9501 23.8245L77.2666 25.7166C78.0562 26.1896 79.4776 26.3473 80.1093 25.8742L84.3734 23.3516C84.5313 23.1939 84.5313 23.1939 84.5313 23.1939C84.5313 23.1939 84.3734 22.8785 84.0575 22.7209L80.5831 20.8289C80.4251 20.5135 79.7935 20.3558 79.1618 20.3558Z" fill="#16110D"/>
<path d="M61.7896 53.624L57.5255 56.1467C56.5779 56.7774 54.8407 56.6197 53.7352 55.989L50.2608 54.097C49.1553 53.4663 48.9974 52.5203 49.9449 51.8896L54.209 49.3669C55.1566 48.7363 56.8938 48.8939 57.9993 49.5246L61.4737 51.4166C62.5792 52.0473 62.7372 52.9933 61.7896 53.624Z" fill="white"/>
<path d="M55.6304 54.2546C54.6828 54.2546 53.8932 54.097 53.1036 53.624L49.6291 51.7319C48.8395 51.2589 48.3657 50.4706 48.3657 49.8399C48.3657 49.2092 48.6816 48.5786 49.4712 48.2632L53.7352 45.7405C54.9987 45.1099 56.8939 45.1098 58.3152 45.8982L61.7897 47.7902C62.5793 48.2632 63.0531 49.0516 63.0531 49.6823C63.0531 50.3129 62.7372 50.9436 61.9476 51.2589L57.6835 53.7816C57.2097 54.097 56.4201 54.2546 55.6304 54.2546ZM55.7884 46.8442C55.3146 46.8442 54.8407 47.0019 54.5249 47.1595L50.2609 49.6823C50.103 49.8399 50.1029 49.8399 50.1029 49.8399C50.1029 49.8399 50.2608 50.1552 50.5767 50.3129L54.0511 52.2049C54.8408 52.6779 56.2621 52.8356 56.8938 52.3626L61.1579 49.8399C61.3158 49.6822 61.3159 49.6823 61.3159 49.6823C61.3159 49.6823 61.1579 49.3669 60.842 49.2092L57.3677 47.3172C57.0518 47.0019 56.4201 46.8442 55.7884 46.8442Z" fill="#16110D"/>
<path d="M73.3187 47.0018L69.0546 49.5245C68.107 50.1552 66.3698 49.9975 65.2643 49.3668L61.7899 47.4748C60.6844 46.8441 60.5264 45.8981 61.474 45.2675L65.7381 42.7447C66.6857 42.1141 68.4228 42.2717 69.5283 42.9024L73.0028 44.7944C74.1083 45.4251 74.2662 46.3711 73.3187 47.0018Z" fill="white"/>
<path d="M67.1593 47.6325C66.2117 47.6325 65.4221 47.4748 64.6325 47.0018L61.316 45.1098C60.5264 44.6368 60.0525 43.8484 60.0525 43.2178C60.0525 42.5871 60.3684 41.9564 61.158 41.6411L65.4221 39.1184C66.6855 38.4877 68.5807 38.4877 70.0021 39.2761L73.4764 41.1681C74.2661 41.6411 74.7399 42.4294 74.7399 43.0601C74.7399 43.6908 74.4241 44.3215 73.6344 44.6368L69.3703 47.1595C68.7386 47.4748 67.9489 47.6325 67.1593 47.6325ZM67.4752 40.2221C67.0014 40.2221 66.5276 40.3797 66.2118 40.5374L61.9477 43.0601C61.7897 43.2178 61.7898 43.2178 61.7898 43.2178C61.7898 43.2178 61.9477 43.5331 62.2635 43.6908L65.58 45.5828C66.3696 46.0558 67.7911 46.2135 68.4228 45.7405L72.6868 43.2178C72.8447 43.0601 72.8448 43.0601 72.8448 43.0601C72.8448 43.0601 72.6869 42.7448 72.371 42.5871L68.8966 40.6951C68.5807 40.3798 67.949 40.2221 67.4752 40.2221Z" fill="#16110D"/>
<path d="M84.847 40.3798L80.5829 42.9025C79.6353 43.5332 77.8981 43.3755 76.7926 42.7448L73.3182 40.8528C72.2127 40.2221 72.0547 39.2761 73.0023 38.6454L77.2664 36.1227C78.214 35.4921 79.9512 35.6497 81.0567 36.2804L84.5311 38.1724C85.6366 38.8031 85.7945 39.7491 84.847 40.3798Z" fill="white"/>
<path d="M78.8458 41.0104C77.8982 41.0104 77.1086 40.8528 76.319 40.3798L73.0024 38.4877C72.2128 38.0147 71.739 37.2264 71.739 36.5957C71.739 35.965 72.0549 35.3344 72.8445 35.019L77.1086 32.4963C78.3721 31.8656 80.2672 31.8657 81.6885 32.654L85.0051 34.546C85.7947 35.019 86.2685 35.8074 86.2685 36.438C86.2685 37.0687 85.9526 37.6994 85.163 38.0147L80.8989 40.5374C80.2672 40.8528 79.4775 41.0104 78.8458 41.0104ZM79.0037 33.6C78.5299 33.6 78.0561 33.7577 77.7403 33.9154L73.4762 36.438C73.3183 36.5957 73.3183 36.5957 73.3183 36.5957C73.3183 36.5957 73.4762 36.9111 73.7921 37.0687L77.1086 38.9607C77.8983 39.4338 79.3196 39.5914 79.9513 39.1184L84.2154 36.5957C84.3734 36.438 84.3733 36.438 84.3733 36.438C84.3733 36.438 84.2154 36.1227 83.8996 35.9651L80.583 34.073C80.1092 33.6 79.4775 33.6 79.0037 33.6Z" fill="#16110D"/>
<path d="M96.3758 33.6L92.1118 36.1227C91.1642 36.7534 89.427 36.5957 88.3215 35.9651L84.847 34.073C83.7415 33.4423 83.5835 32.4963 84.5311 31.8657L88.7952 29.343C89.7428 28.7123 91.48 28.87 92.5856 29.5006L95.902 31.3926C97.1654 32.181 97.3234 33.127 96.3758 33.6Z" fill="white"/>
<path d="M90.3746 34.3884C89.427 34.3884 88.6374 34.2307 87.8477 33.7577L84.3733 31.8657C83.5836 31.3927 83.1099 30.6043 83.1099 29.9736C83.1099 29.343 83.4257 28.7123 84.2154 28.397L88.4794 25.8743C89.7428 25.2436 91.638 25.2436 93.0594 26.0319L96.3758 27.9239C97.1655 28.397 97.6393 29.1853 97.6393 29.816C97.6393 30.4466 97.3235 31.0773 96.5338 31.3927L92.2697 33.9154C91.7959 34.2307 91.0063 34.3884 90.3746 34.3884ZM90.5325 26.8203C90.0588 26.8203 89.5849 26.9779 89.269 27.1356L85.005 29.6583C84.8471 29.816 84.847 29.816 84.847 29.816C84.847 29.816 85.005 30.1313 85.3208 30.289L88.7953 32.181C89.5849 32.654 91.0063 32.8117 91.638 32.3387L95.9021 29.816L96.3758 30.6043L95.9021 29.816C96.06 29.6583 96.0601 29.6583 96.0601 29.6583C96.0601 29.6583 95.902 29.343 95.5862 29.1853L92.2697 27.2933C91.638 26.9779 91.0063 26.8203 90.5325 26.8203Z" fill="#16110D"/>
<path d="M73.0025 60.0883L68.7384 62.611C67.7908 63.2417 66.0537 63.084 64.9482 62.4534L61.4737 60.5614C60.3682 59.9307 60.2103 58.9847 61.1578 58.354L65.4219 55.8313C66.3695 55.2006 68.1068 55.3583 69.2123 55.989L72.6866 57.881C73.7921 58.5117 73.9501 59.4577 73.0025 60.0883Z" fill="white"/>
<path d="M67.0013 60.719C66.0537 60.719 65.2641 60.5613 64.4744 60.0883L61 58.1963C60.2103 57.7233 59.7366 56.9349 59.7366 56.3043C59.7366 55.6736 60.0524 55.0429 60.842 54.7276L65.1061 52.2049C66.3695 51.5742 68.2647 51.5742 69.6861 52.3626L73.1605 54.2546C73.9502 54.7276 74.4239 55.5159 74.4239 56.1466C74.4239 56.7773 74.1081 57.4079 73.3184 57.7233L69.0543 60.246C68.4226 60.5613 67.633 60.719 67.0013 60.719ZM67.1592 53.3086C66.6854 53.3086 66.2116 53.4662 65.8957 53.6239L61.6316 56.1466C61.4737 56.3043 61.4738 56.3043 61.4738 56.3043C61.4738 56.3043 61.6317 56.6196 61.9475 56.7773L65.422 58.6693C66.2116 59.1423 67.633 59.3 68.2647 58.827L72.5288 56.3043C72.6867 56.1466 72.6867 56.1466 72.6867 56.1466C72.6867 56.1466 72.5288 55.8313 72.2129 55.6736L68.7384 53.7816C68.2647 53.4662 67.6329 53.3086 67.1592 53.3086Z" fill="#16110D"/>
<path d="M84.5313 53.4663L80.2673 55.989C79.3197 56.6197 77.5825 56.462 76.477 55.8313L73.0025 53.9393C71.897 53.3086 71.7391 52.3626 72.6866 51.7319L76.9507 49.2092C77.8983 48.5785 79.6356 48.7362 80.7411 49.3669L84.2155 51.2589C85.321 51.8896 85.4789 52.8356 84.5313 53.4663Z" fill="white"/>
<path d="M78.5301 54.0969C77.5826 54.0969 76.793 53.9392 76.0033 53.4662L72.6868 51.5742C71.8971 51.1012 71.4233 50.3129 71.4233 49.6822C71.4233 49.0515 71.7392 48.4209 72.5289 48.1055L76.793 45.5828C78.0564 44.9521 79.9515 44.9521 81.3728 45.7405L84.8473 47.6325C85.6369 48.1055 86.1107 48.8938 86.1107 49.5245C86.1107 50.1552 85.7949 50.7859 85.0053 51.1012L80.7412 53.6239C79.9515 53.9393 79.1618 54.0969 78.5301 54.0969ZM78.6881 46.6865C78.2143 46.6865 77.7405 46.8442 77.4246 47.0018L73.1606 49.5245C73.0027 49.6822 73.0026 49.6822 73.0026 49.6822C73.0026 49.6822 73.1605 49.9975 73.4764 50.1552L76.793 52.0472C77.5826 52.5202 79.0039 52.6779 79.6357 52.2049L83.8997 49.6822C84.0577 49.5245 84.0576 49.5245 84.0576 49.5245C84.0576 49.5245 83.8997 49.2092 83.5839 49.0515L80.1094 47.1595C79.7936 46.8442 79.1619 46.6865 78.6881 46.6865Z" fill="#16110D"/>
<path d="M96.0604 46.8442L91.7963 49.3669C90.8488 49.9976 89.1115 49.8399 88.006 49.2092L84.6895 47.3172C83.584 46.6865 83.4261 45.7405 84.3737 45.1098L88.6378 42.5872C89.5853 41.9565 91.3225 42.1141 92.428 42.7448L95.9024 44.6369C96.85 45.2675 97.008 46.2135 96.0604 46.8442Z" fill="white"/>
<path d="M90.0589 47.4748C89.1114 47.4748 88.3218 47.3172 87.5321 46.8442L84.2157 44.9522C83.426 44.4791 82.9521 43.6908 82.9521 43.0601C82.9521 42.4295 83.268 41.7988 84.0577 41.4834L88.3218 38.9607C89.5852 38.3301 91.4804 38.3301 92.9017 39.1184L96.2182 41.0104C97.0078 41.4834 97.4816 42.2718 97.4816 42.9025C97.4816 43.5331 97.1657 44.1638 96.3761 44.4791L92.1121 47.0019C91.4804 47.3172 90.6907 47.4748 90.0589 47.4748ZM90.2169 40.0644C89.7431 40.0644 89.2694 40.2221 88.9535 40.3797L84.6894 42.9025C84.5315 43.0601 84.5314 43.0601 84.5314 43.0601C84.5314 43.0601 84.6894 43.3755 85.0053 43.5331L88.3218 45.4252C89.1114 45.8982 90.5327 46.0558 91.1645 45.5828L95.4286 43.0601C95.5865 42.9025 95.5864 42.9025 95.5864 42.9025C95.5864 42.9025 95.4285 42.5871 95.1127 42.4294L91.7962 40.5374C91.4804 40.0644 90.6907 40.0644 90.2169 40.0644Z" fill="#16110D"/>
<path d="M107.589 40.0644L103.325 42.5871C102.377 43.2178 100.64 43.0601 99.5347 42.4294L96.0604 40.5374C94.9549 39.9068 94.7969 38.9608 95.7445 38.3301L100.009 35.8074C100.956 35.1767 102.693 35.3344 103.799 35.965L107.273 37.8571C108.379 38.6454 108.537 39.5914 107.589 40.0644Z" fill="white"/>
<path d="M101.588 40.8528C100.64 40.8528 99.8505 40.6951 99.0609 40.2221L95.5864 38.3301C94.7968 37.8571 94.323 37.0687 94.323 36.438C94.323 35.8074 94.6389 35.1767 95.4285 34.8614L99.6926 32.3387C100.956 31.708 102.851 31.708 104.272 32.4963L107.589 34.3884C108.379 34.8614 108.852 35.6497 108.852 36.2804C108.852 36.9111 108.537 37.5417 107.747 37.8571L103.483 40.3798C103.009 40.6951 102.219 40.8528 101.588 40.8528ZM101.746 33.2847C101.272 33.2847 100.798 33.4424 100.482 33.6L96.2182 36.1227C96.0602 36.2804 96.0603 36.2804 96.0603 36.2804C96.0603 36.2804 96.2182 36.5957 96.534 36.7534L100.008 38.6454C100.798 39.1184 102.219 39.2761 102.851 38.8031L107.115 36.2804C107.273 36.1227 107.273 36.1227 107.273 36.1227C107.273 36.1227 107.115 35.8074 106.799 35.6497L103.483 33.7577C103.009 33.4423 102.377 33.2847 101.746 33.2847Z" fill="#16110D"/>
</svg>
