<svg width="82" height="116" viewBox="0 0 82 116" fill="none" xmlns="http://www.w3.org/2000/svg">
<path d="M10.3426 80.1024C10.6112 80.2375 10.6112 80.5077 10.3426 80.6427C10.0739 80.7778 9.67102 80.7778 9.4024 80.6427C9.13377 80.5077 9.13377 80.2375 9.4024 80.1024C9.67102 79.9673 10.0739 79.9673 10.3426 80.1024Z" fill="white"/>
<path d="M7.79083 78.6166C8.05947 78.7516 8.05947 79.0218 7.79083 79.1569C7.5222 79.292 7.11928 79.292 6.85064 79.1569C6.58201 79.0218 6.58201 78.7516 6.85064 78.6166C7.11928 78.4815 7.5222 78.4815 7.79083 78.6166Z" fill="white"/>
<path d="M5.23859 77.2658C5.50722 77.4009 5.50722 77.671 5.23859 77.8061C4.96997 77.9412 4.56702 77.9412 4.29839 77.8061C4.02977 77.671 4.02977 77.4009 4.29839 77.2658C4.56702 76.9956 4.96997 76.9956 5.23859 77.2658Z" fill="white"/>
<path d="M2.68662 75.7799C2.95526 75.915 2.95526 76.1852 2.68662 76.3202C2.41799 76.4553 2.01503 76.4553 1.7464 76.3202C1.47776 76.1852 1.47776 75.915 1.7464 75.7799C2.01503 75.5097 2.41799 75.5097 2.68662 75.7799Z" fill="white"/>
<path d="M53.7267 105.092C53.9953 105.227 53.9953 105.497 53.7267 105.633C53.458 105.768 53.0551 105.768 52.7864 105.633C52.5178 105.497 52.5178 105.227 52.7864 105.092C53.0551 104.957 53.458 104.957 53.7267 105.092Z" fill="white"/>
<path d="M38.4147 111.036C38.6833 111.171 38.6833 111.441 38.4147 111.576C38.146 111.711 37.7431 111.711 37.4744 111.576C37.2058 111.441 37.2058 111.171 37.4744 111.036C37.7431 110.901 38.146 110.901 38.4147 111.036Z" fill="white"/>
<path d="M40.9666 109.55C41.2352 109.685 41.2352 109.955 40.9666 110.09C40.698 110.225 40.295 110.225 40.0264 110.09C39.7578 109.955 39.7578 109.685 40.0264 109.55C40.295 109.415 40.698 109.415 40.9666 109.55Z" fill="white"/>
<path d="M43.5187 108.064C43.7873 108.199 43.7873 108.469 43.5187 108.604C43.25 108.739 42.8471 108.739 42.5784 108.604C42.3098 108.469 42.3098 108.199 42.5784 108.064C42.8471 107.929 43.25 107.929 43.5187 108.064Z" fill="white"/>
<path d="M46.0708 106.578C46.3394 106.713 46.3394 106.983 46.0708 107.118C45.8022 107.254 45.3993 107.254 45.1307 107.118C44.862 106.983 44.862 106.713 45.1307 106.578C45.3993 106.443 45.8022 106.443 46.0708 106.578Z" fill="white"/>
<path d="M48.6227 105.092C48.8913 105.227 48.8913 105.497 48.6227 105.633C48.354 105.768 47.9511 105.768 47.6824 105.633C47.4138 105.497 47.4138 105.227 47.6824 105.092C47.9511 104.957 48.354 104.957 48.6227 105.092Z" fill="white"/>
<path d="M51.1746 103.606C51.4433 103.742 51.4433 104.012 51.1746 104.147C50.906 104.282 50.5031 104.282 50.2344 104.147C49.9658 104.012 49.9658 103.742 50.2344 103.606C50.5031 103.471 50.906 103.471 51.1746 103.606Z" fill="white"/>
<path d="M33.3109 111.036C33.5795 111.171 33.5795 111.441 33.3109 111.576C33.0422 111.711 32.6393 111.711 32.3707 111.576C32.102 111.441 32.102 111.171 32.3707 111.036C32.6393 110.901 33.0422 110.901 33.3109 111.036Z" fill="white"/>
<path d="M35.8626 109.55C36.1312 109.685 36.1312 109.955 35.8626 110.09C35.594 110.225 35.191 110.225 34.9224 110.09C34.6538 109.955 34.6538 109.685 34.9224 109.55C35.191 109.415 35.594 109.415 35.8626 109.55Z" fill="white"/>
<path d="M38.4147 108.064C38.6833 108.199 38.6833 108.469 38.4147 108.604C38.146 108.739 37.7431 108.739 37.4744 108.604C37.2058 108.469 37.2058 108.199 37.4744 108.064C37.7431 107.929 38.146 107.929 38.4147 108.064Z" fill="white"/>
<path d="M40.9666 106.578C41.2352 106.713 41.2352 106.983 40.9666 107.118C40.698 107.254 40.295 107.254 40.0264 107.118C39.7578 106.983 39.7578 106.713 40.0264 106.578C40.295 106.443 40.698 106.443 40.9666 106.578Z" fill="white"/>
<path d="M43.5187 105.092C43.7873 105.227 43.7873 105.497 43.5187 105.633C43.25 105.768 42.8471 105.768 42.5784 105.633C42.3098 105.497 42.3098 105.227 42.5784 105.092C42.8471 104.957 43.25 104.957 43.5187 105.092Z" fill="white"/>
<path d="M46.0708 103.606C46.3394 103.742 46.3394 104.012 46.0708 104.147C45.8022 104.282 45.3993 104.282 45.1307 104.147C44.862 104.012 44.862 103.742 45.1307 103.606C45.3993 103.471 45.8022 103.471 46.0708 103.606Z" fill="white"/>
<path d="M48.6227 102.12C48.8913 102.256 48.8913 102.526 48.6227 102.661C48.354 102.796 47.9511 102.796 47.6824 102.661C47.4138 102.526 47.4138 102.256 47.6824 102.12C47.9511 101.985 48.354 101.985 48.6227 102.12Z" fill="white"/>
<path d="M30.7587 109.55C31.0273 109.685 31.0273 109.955 30.7587 110.09C30.49 110.225 30.0871 110.225 29.8184 110.09C29.5498 109.955 29.5498 109.685 29.8184 109.55C30.0871 109.415 30.49 109.415 30.7587 109.55Z" fill="white"/>
<path d="M33.3109 108.064C33.5795 108.199 33.5795 108.469 33.3109 108.604C33.0422 108.739 32.6393 108.739 32.3707 108.604C32.102 108.469 32.102 108.199 32.3707 108.064C32.6393 107.929 33.0422 107.929 33.3109 108.064Z" fill="white"/>
<path d="M35.8626 106.578C36.1312 106.713 36.1312 106.983 35.8626 107.118C35.594 107.254 35.191 107.254 34.9224 107.118C34.6538 106.983 34.6538 106.713 34.9224 106.578C35.191 106.443 35.594 106.443 35.8626 106.578Z" fill="white"/>
<path d="M38.4147 105.092C38.6833 105.227 38.6833 105.497 38.4147 105.633C38.146 105.768 37.7431 105.768 37.4744 105.633C37.2058 105.497 37.2058 105.227 37.4744 105.092C37.7431 104.957 38.146 104.957 38.4147 105.092Z" fill="white"/>
<path d="M40.9666 103.606C41.2352 103.742 41.2352 104.012 40.9666 104.147C40.698 104.282 40.295 104.282 40.0264 104.147C39.7578 104.012 39.7578 103.742 40.0264 103.606C40.295 103.471 40.698 103.471 40.9666 103.606Z" fill="white"/>
<path d="M43.5187 102.12C43.7873 102.256 43.7873 102.526 43.5187 102.661C43.25 102.796 42.8471 102.796 42.5784 102.661C42.3098 102.526 42.3098 102.256 42.5784 102.12C42.8471 101.985 43.25 101.985 43.5187 102.12Z" fill="white"/>
<path d="M46.0708 100.635C46.3394 100.77 46.3394 101.04 46.0708 101.175C45.8022 101.31 45.3993 101.31 45.1307 101.175C44.862 101.04 44.862 100.77 45.1307 100.635C45.3993 100.499 45.8022 100.499 46.0708 100.635Z" fill="white"/>
<path d="M28.2066 108.064C28.4752 108.199 28.4752 108.469 28.2066 108.604C27.938 108.739 27.535 108.739 27.2664 108.604C26.9978 108.469 26.9978 108.199 27.2664 108.064C27.535 107.929 27.938 107.929 28.2066 108.064Z" fill="white"/>
<path d="M30.7587 106.578C31.0273 106.713 31.0273 106.983 30.7587 107.118C30.49 107.254 30.0871 107.254 29.8184 107.118C29.5498 106.983 29.5498 106.713 29.8184 106.578C30.0871 106.443 30.49 106.443 30.7587 106.578Z" fill="white"/>
<path d="M33.3109 105.092C33.5795 105.227 33.5795 105.497 33.3109 105.633C33.0422 105.768 32.6393 105.768 32.3707 105.633C32.102 105.497 32.102 105.227 32.3707 105.092C32.6393 104.957 33.0422 104.957 33.3109 105.092Z" fill="white"/>
<path d="M35.8626 103.606C36.1312 103.742 36.1312 104.012 35.8626 104.147C35.594 104.282 35.191 104.282 34.9224 104.147C34.6538 104.012 34.6538 103.742 34.9224 103.606C35.191 103.471 35.594 103.471 35.8626 103.606Z" fill="white"/>
<path d="M38.4147 102.12C38.6833 102.256 38.6833 102.526 38.4147 102.661C38.146 102.796 37.7431 102.796 37.4744 102.661C37.2058 102.526 37.2058 102.256 37.4744 102.12C37.7431 101.985 38.146 101.985 38.4147 102.12Z" fill="white"/>
<path d="M40.9666 100.635C41.2352 100.77 41.2352 101.04 40.9666 101.175C40.698 101.31 40.295 101.31 40.0264 101.175C39.7578 101.04 39.7578 100.77 40.0264 100.635C40.295 100.499 40.698 100.499 40.9666 100.635Z" fill="white"/>
<path d="M43.5187 99.1487C43.7873 99.2838 43.7873 99.554 43.5187 99.6891C43.25 99.8242 42.8471 99.8242 42.5784 99.6891C42.3098 99.554 42.3098 99.2838 42.5784 99.1487C42.8471 99.0137 43.25 99.0137 43.5187 99.1487Z" fill="white"/>
<path d="M25.6547 106.578C25.9233 106.713 25.9233 106.983 25.6547 107.118C25.386 107.254 24.9831 107.254 24.7144 107.118C24.4458 106.983 24.4458 106.713 24.7144 106.578C24.9831 106.443 25.386 106.443 25.6547 106.578Z" fill="white"/>
<path d="M28.2066 105.092C28.4752 105.227 28.4752 105.497 28.2066 105.633C27.938 105.768 27.535 105.768 27.2664 105.633C26.9978 105.497 26.9978 105.227 27.2664 105.092C27.535 104.957 27.938 104.957 28.2066 105.092Z" fill="white"/>
<path d="M30.7587 103.606C31.0273 103.742 31.0273 104.012 30.7587 104.147C30.49 104.282 30.0871 104.282 29.8184 104.147C29.5498 104.012 29.5498 103.742 29.8184 103.606C30.0871 103.471 30.49 103.471 30.7587 103.606Z" fill="white"/>
<path d="M33.3109 102.12C33.5795 102.256 33.5795 102.526 33.3109 102.661C33.0422 102.796 32.6393 102.796 32.3707 102.661C32.102 102.526 32.102 102.256 32.3707 102.12C32.6393 101.985 33.0422 101.985 33.3109 102.12Z" fill="white"/>
<path d="M35.8626 100.635C36.1312 100.77 36.1312 101.04 35.8626 101.175C35.594 101.31 35.191 101.31 34.9224 101.175C34.6538 101.04 34.6538 100.77 34.9224 100.635C35.191 100.499 35.594 100.499 35.8626 100.635Z" fill="white"/>
<path d="M38.4147 99.1487C38.6833 99.2838 38.6833 99.554 38.4147 99.6891C38.146 99.8242 37.7431 99.8242 37.4744 99.6891C37.2058 99.554 37.2058 99.2838 37.4744 99.1487C37.7431 99.0137 38.146 99.0137 38.4147 99.1487Z" fill="white"/>
<path d="M40.9666 97.6628C41.2352 97.7979 41.2352 98.0681 40.9666 98.2032C40.698 98.3383 40.295 98.3383 40.0264 98.2032C39.7578 98.0681 39.7578 97.7979 40.0264 97.6628C40.295 97.5278 40.698 97.5278 40.9666 97.6628Z" fill="white"/>
<path d="M23.1026 105.092C23.3713 105.227 23.3713 105.497 23.1026 105.633C22.834 105.768 22.4311 105.768 22.1624 105.633C21.8938 105.497 21.8938 105.227 22.1624 105.092C22.4311 104.957 22.834 104.957 23.1026 105.092Z" fill="white"/>
<path d="M25.6547 103.606C25.9233 103.742 25.9233 104.012 25.6547 104.147C25.386 104.282 24.9831 104.282 24.7144 104.147C24.4458 104.012 24.4458 103.742 24.7144 103.606C24.9831 103.471 25.386 103.471 25.6547 103.606Z" fill="white"/>
<path d="M28.2066 102.12C28.4752 102.256 28.4752 102.526 28.2066 102.661C27.938 102.796 27.535 102.796 27.2664 102.661C26.9978 102.526 26.9978 102.256 27.2664 102.12C27.535 101.985 27.938 101.985 28.2066 102.12Z" fill="white"/>
<path d="M30.7587 100.635C31.0273 100.77 31.0273 101.04 30.7587 101.175C30.49 101.31 30.0871 101.31 29.8184 101.175C29.5498 101.04 29.5498 100.77 29.8184 100.635C30.0871 100.499 30.49 100.499 30.7587 100.635Z" fill="white"/>
<path d="M33.3109 99.1487C33.5795 99.2838 33.5795 99.554 33.3109 99.6891C33.0422 99.8242 32.6393 99.8242 32.3707 99.6891C32.102 99.554 32.102 99.2838 32.3707 99.1487C32.6393 99.0137 33.0422 99.0137 33.3109 99.1487Z" fill="white"/>
<path d="M35.8626 97.6628C36.1312 97.7979 36.1312 98.0681 35.8626 98.2032C35.594 98.3383 35.191 98.3383 34.9224 98.2032C34.6538 98.0681 34.6538 97.7979 34.9224 97.6628C35.191 97.5278 35.594 97.5278 35.8626 97.6628Z" fill="white"/>
<path d="M38.4147 96.1771C38.6833 96.3121 38.6833 96.5823 38.4147 96.7174C38.146 96.8524 37.7431 96.8524 37.4744 96.7174C37.2058 96.5823 37.2058 96.3121 37.4744 96.1771C37.7431 96.042 38.146 96.042 38.4147 96.1771Z" fill="white"/>
<path d="M20.1476 104.282C20.5185 104.282 20.8192 104.1 20.8192 103.876C20.8192 103.653 20.5185 103.471 20.1476 103.471C19.7767 103.471 19.4761 103.653 19.4761 103.876C19.4761 104.1 19.7767 104.282 20.1476 104.282Z" fill="white"/>
<path d="M23.1026 102.12C23.3713 102.256 23.3713 102.526 23.1026 102.661C22.834 102.796 22.4311 102.796 22.1624 102.661C21.8938 102.526 21.8938 102.256 22.1624 102.12C22.4311 101.985 22.834 101.985 23.1026 102.12Z" fill="white"/>
<path d="M25.6547 100.635C25.9233 100.77 25.9233 101.04 25.6547 101.175C25.386 101.31 24.9831 101.31 24.7144 101.175C24.4458 101.04 24.4458 100.77 24.7144 100.635C24.9831 100.499 25.386 100.499 25.6547 100.635Z" fill="white"/>
<path d="M28.2066 99.1487C28.4752 99.2838 28.4752 99.554 28.2066 99.6891C27.938 99.8242 27.535 99.8242 27.2664 99.6891C26.9978 99.554 26.9978 99.2838 27.2664 99.1487C27.535 99.0137 27.938 99.0137 28.2066 99.1487Z" fill="white"/>
<path d="M30.7587 97.6628C31.0273 97.7979 31.0273 98.0681 30.7587 98.2032C30.49 98.3383 30.0871 98.3383 29.8184 98.2032C29.5498 98.0681 29.5498 97.7979 29.8184 97.6628C30.0871 97.5278 30.49 97.5278 30.7587 97.6628Z" fill="white"/>
<path d="M33.3109 96.1771C33.5795 96.3121 33.5795 96.5823 33.3109 96.7174C33.0422 96.8524 32.6393 96.8524 32.3707 96.7174C32.102 96.5823 32.102 96.3121 32.3707 96.1771C32.6393 96.042 33.0422 96.042 33.3109 96.1771Z" fill="white"/>
<path d="M35.8626 94.6911C36.1312 94.8262 36.1312 95.0963 35.8626 95.2314C35.594 95.3665 35.191 95.3665 34.9224 95.2314C34.6538 95.0963 34.6538 94.8262 34.9224 94.6911C35.191 94.556 35.594 94.556 35.8626 94.6911Z" fill="white"/>
<path d="M20.5506 100.635C20.8192 100.77 20.8192 101.04 20.5506 101.175C20.2819 101.31 19.879 101.31 19.6104 101.175C19.3418 101.04 19.3418 100.77 19.6104 100.635C19.879 100.499 20.2819 100.499 20.5506 100.635Z" fill="white"/>
<path d="M23.1026 99.1487C23.3713 99.2838 23.3713 99.554 23.1026 99.6891C22.834 99.8242 22.4311 99.8242 22.1624 99.6891C21.8938 99.554 21.8938 99.2838 22.1624 99.1487C22.4311 99.0137 22.834 99.0137 23.1026 99.1487Z" fill="white"/>
<path d="M25.6547 97.6628C25.9233 97.7979 25.9233 98.0681 25.6547 98.2032C25.386 98.3383 24.9831 98.3383 24.7144 98.2032C24.4458 98.0681 24.4458 97.7979 24.7144 97.6628C24.9831 97.5278 25.386 97.5278 25.6547 97.6628Z" fill="white"/>
<path d="M28.2066 96.1771C28.4752 96.3121 28.4752 96.5823 28.2066 96.7174C27.938 96.8524 27.535 96.8524 27.2664 96.7174C26.9978 96.5823 26.9978 96.3121 27.2664 96.1771C27.535 96.042 27.938 96.042 28.2066 96.1771Z" fill="white"/>
<path d="M30.7587 94.6911C31.0273 94.8262 31.0273 95.0963 30.7587 95.2314C30.49 95.3665 30.0871 95.3665 29.8184 95.2314C29.5498 95.0963 29.5498 94.8262 29.8184 94.6911C30.0871 94.556 30.49 94.556 30.7587 94.6911Z" fill="white"/>
<path d="M33.3109 93.2052C33.5795 93.3403 33.5795 93.6105 33.3109 93.7456C33.0422 93.8806 32.6393 93.8806 32.3707 93.7456C32.102 93.6105 32.102 93.3403 32.3707 93.2052C32.6393 93.0702 33.0422 93.0702 33.3109 93.2052Z" fill="white"/>
<path d="M20.5506 97.6628C20.8192 97.7979 20.8192 98.0681 20.5506 98.2032C20.2819 98.3383 19.879 98.3383 19.6104 98.2032C19.3418 98.0681 19.3418 97.7979 19.6104 97.6628C19.879 97.5278 20.2819 97.5278 20.5506 97.6628Z" fill="white"/>
<path d="M22.1624 96.1771C22.4311 96.042 22.834 96.042 23.1026 96.1771C23.3713 96.3121 23.3713 96.5823 23.1026 96.7174C22.834 96.8524 22.4311 96.8524 22.1624 96.7174C21.8938 96.5823 21.8938 96.3121 22.1624 96.1771Z" fill="white"/>
<path d="M25.6547 94.6911C25.9233 94.8262 25.9233 95.0963 25.6547 95.2314C25.386 95.3665 24.9831 95.3665 24.7144 95.2314C24.4458 95.0963 24.4458 94.8262 24.7144 94.6911C24.9831 94.556 25.386 94.556 25.6547 94.6911Z" fill="white"/>
<path d="M28.2066 93.2052C28.4752 93.3403 28.4752 93.6105 28.2066 93.7456C27.938 93.8806 27.535 93.8806 27.2664 93.7456C26.9978 93.6105 26.9978 93.3403 27.2664 93.2052C27.535 93.0702 27.938 93.0702 28.2066 93.2052Z" fill="white"/>
<path d="M30.7587 91.7194C31.0273 91.8544 31.0273 92.1246 30.7587 92.2597C30.49 92.3948 30.0871 92.3948 29.8184 92.2597C29.5498 92.1246 29.5498 91.8544 29.8184 91.7194C30.0871 91.5843 30.49 91.5843 30.7587 91.7194Z" fill="white"/>
<path d="M24.7144 91.7194C24.9831 91.5843 25.386 91.5843 25.6547 91.7194C25.9233 91.8544 25.9233 92.1246 25.6547 92.2597C25.386 92.3948 24.9831 92.3948 24.7144 92.2597C24.4458 92.1246 24.4458 91.8544 24.7144 91.7194Z" fill="white"/>
<path d="M28.2066 90.2334C28.4752 90.3685 28.4752 90.6386 28.2066 90.7737C27.938 90.9088 27.535 90.9088 27.2664 90.7737C26.9978 90.6386 26.9978 90.3685 27.2664 90.2334C27.535 90.0983 27.938 90.0983 28.2066 90.2334Z" fill="white"/>
<path d="M25.6547 88.7475C25.9233 88.8826 25.9233 89.1528 25.6547 89.2879C25.386 89.4229 24.9831 89.4229 24.7144 89.2879C24.4458 89.1528 24.4458 88.8826 24.7144 88.7475C24.9831 88.6125 25.386 88.6125 25.6547 88.7475Z" fill="white"/>
<path d="M23.1026 87.3968C23.3713 87.5319 23.3713 87.802 23.1026 87.9371C22.834 88.0722 22.4311 88.0722 22.1624 87.9371C21.8938 87.802 21.8938 87.5319 22.1624 87.3968C22.4311 87.1266 22.834 87.1266 23.1026 87.3968Z" fill="white"/>
<path d="M20.5506 85.7759C20.8192 85.9109 20.8192 86.1811 20.5506 86.3162C20.2819 86.4513 19.879 86.4513 19.6104 86.3162C19.3418 86.1811 19.3418 85.9109 19.6104 85.7759C19.879 85.6408 20.2819 85.6408 20.5506 85.7759Z" fill="white"/>
<path d="M17.9986 84.425C18.2673 84.5601 18.2673 84.8302 17.9986 84.9653C17.73 85.1004 17.327 85.1004 17.0584 84.9653C16.7898 84.8302 16.7898 84.5601 17.0584 84.425C17.327 84.1548 17.73 84.1548 17.9986 84.425Z" fill="white"/>
<path d="M15.4466 82.9391C15.7153 83.0742 15.7153 83.3444 15.4466 83.4794C15.178 83.6145 14.775 83.6145 14.5064 83.4794C14.2378 83.3444 14.2378 83.0742 14.5064 82.9391C14.775 82.669 15.178 82.669 15.4466 82.9391Z" fill="white"/>
<path d="M12.8946 81.4532C13.1632 81.5883 13.1632 81.8585 12.8946 81.9935C12.626 82.1286 12.223 82.1286 11.9544 81.9935C11.6858 81.8585 11.6858 81.5883 11.9544 81.4532C12.223 81.1831 12.626 81.1831 12.8946 81.4532Z" fill="white"/>
<path d="M12.8946 78.6166C13.1632 78.7516 13.1632 79.0218 12.8946 79.1569C12.626 79.292 12.223 79.292 11.9544 79.1569C11.6858 79.0218 11.6858 78.7516 11.9544 78.6166C12.0887 78.4815 12.626 78.4815 12.8946 78.6166Z" fill="white"/>
<path d="M15.4466 77.1307C15.7153 77.2658 15.7153 77.536 15.4466 77.671C15.178 77.8061 14.775 77.8061 14.5064 77.671C14.2378 77.536 14.2378 77.2658 14.5064 77.1307C14.6407 76.9956 15.178 76.9956 15.4466 77.1307Z" fill="white"/>
<path d="M17.9986 75.7799C18.2673 75.915 18.2673 76.1852 17.9986 76.3202C17.73 76.4553 17.327 76.4553 17.0584 76.3202C16.7898 76.1852 16.7898 75.915 17.0584 75.7799C17.1927 75.5097 17.73 75.5097 17.9986 75.7799Z" fill="white"/>
<path d="M10.3426 77.1307C10.6112 77.2658 10.6112 77.536 10.3426 77.671C10.0739 77.8061 9.67102 77.8061 9.4024 77.671C9.13377 77.536 9.13377 77.2658 9.4024 77.1307C9.67102 76.9956 10.0739 76.9956 10.3426 77.1307Z" fill="white"/>
<path d="M12.8946 75.7799C13.1632 75.915 13.1632 76.1852 12.8946 76.3202C12.626 76.4553 12.223 76.4553 11.9544 76.3202C11.6858 76.1852 11.6858 75.915 11.9544 75.7799C12.0887 75.5097 12.626 75.5097 12.8946 75.7799Z" fill="white"/>
<path d="M14.9094 74.9694C15.2803 74.9694 15.5809 74.788 15.5809 74.5642C15.5809 74.3404 15.2803 74.1589 14.9094 74.1589C14.5385 74.1589 14.2378 74.3404 14.2378 74.5642C14.2378 74.788 14.5385 74.9694 14.9094 74.9694Z" fill="white"/>
<path d="M7.79083 75.7799C8.05947 75.915 8.05947 76.1852 7.79083 76.3202C7.5222 76.4553 7.11928 76.4553 6.85064 76.3202C6.58201 76.1852 6.58201 75.915 6.85064 75.7799C7.11928 75.5097 7.5222 75.5097 7.79083 75.7799Z" fill="white"/>
<path d="M10.3426 74.294C10.6112 74.4291 10.6112 74.6992 10.3426 74.8343C10.0739 74.9694 9.67102 74.9694 9.4024 74.8343C9.13377 74.6992 9.13377 74.4291 9.4024 74.294C9.67102 74.0238 10.0739 74.0238 10.3426 74.294Z" fill="white"/>
<path d="M12.8946 72.8082C13.1632 72.9432 13.1632 73.2134 12.8946 73.3485C12.626 73.4835 12.223 73.4835 11.9544 73.3485C11.6858 73.2134 11.6858 72.9432 11.9544 72.8082C12.0887 72.6731 12.626 72.6731 12.8946 72.8082Z" fill="white"/>
<path d="M5.23859 74.294C5.50722 74.4291 5.50722 74.6992 5.23859 74.8343C4.96997 74.9694 4.56702 74.9694 4.29839 74.8343C4.02977 74.6992 4.02977 74.4291 4.29839 74.294C4.56702 74.0238 4.96997 74.0238 5.23859 74.294Z" fill="white"/>
<path d="M7.79083 72.8082C8.05947 72.9432 8.05947 73.2134 7.79083 73.3485C7.5222 73.4835 7.11928 73.4835 6.85064 73.3485C6.58201 73.2134 6.58201 72.9432 6.85064 72.8082C7.11928 72.6731 7.5222 72.6731 7.79083 72.8082Z" fill="white"/>
<path d="M10.3426 71.3222C10.6112 71.4573 10.6112 71.7274 10.3426 71.8625C10.0739 71.9976 9.67102 71.9976 9.4024 71.8625C9.13377 71.7274 9.13377 71.4573 9.4024 71.3222C9.67102 71.1871 10.0739 71.1871 10.3426 71.3222Z" fill="white"/>
<path d="M2.14937 73.4836C2.52028 73.4836 2.82096 73.3021 2.82096 73.0783C2.82096 72.8545 2.52028 72.6731 2.14937 72.6731C1.77846 72.6731 1.47778 72.8545 1.47778 73.0783C1.47778 73.3021 1.77846 73.4836 2.14937 73.4836Z" fill="white"/>
<path d="M5.23859 71.3222C5.50722 71.4573 5.50722 71.7274 5.23859 71.8625C4.96997 71.9976 4.56702 71.9976 4.29839 71.8625C4.02977 71.7274 4.02977 71.4573 4.29839 71.3222C4.56702 71.1871 4.96997 71.1871 5.23859 71.3222Z" fill="white"/>
<path d="M7.79083 69.8363C8.05947 69.9714 8.05947 70.2415 7.79083 70.3766C7.5222 70.5117 7.11928 70.5117 6.85064 70.3766C6.58201 70.2415 6.58201 69.9714 6.85064 69.8363C7.11928 69.7012 7.5222 69.7012 7.79083 69.8363Z" fill="white"/>
<path d="M2.68662 69.8363C2.95526 69.9714 2.95526 70.2415 2.68662 70.3766C2.41799 70.5117 2.01503 70.5117 1.7464 70.3766C1.47776 70.2415 1.47776 69.9714 1.7464 69.8363C1.88071 69.7012 2.41799 69.7012 2.68662 69.8363Z" fill="white"/>
<path d="M5.23854 68.3505C5.50716 68.4856 5.50716 68.7557 5.23854 68.8908C4.96992 69.0259 4.56698 69.0259 4.29836 68.8908C3.89544 68.7557 4.96992 68.2154 5.23854 68.3505Z" fill="white"/>
<path d="M56.2787 103.606C56.5473 103.742 56.5473 104.012 56.2787 104.147C56.0101 104.282 55.6071 104.282 55.3384 104.147C55.0698 104.012 55.0698 103.742 55.3384 103.606C55.6071 103.471 56.0101 103.471 56.2787 103.606Z" fill="white"/>
<path d="M58.8306 102.12C59.0992 102.256 59.0992 102.526 58.8306 102.661C58.562 102.796 58.1591 102.796 57.8904 102.661C57.6218 102.526 57.6218 102.256 57.8904 102.12C58.1591 101.985 58.562 101.985 58.8306 102.12Z" fill="white"/>
<path d="M61.3826 100.635C61.6512 100.77 61.6512 101.04 61.3826 101.175C61.114 101.31 60.7111 101.31 60.4424 101.175C60.1738 101.04 60.1738 100.77 60.4424 100.635C60.7111 100.499 61.114 100.499 61.3826 100.635Z" fill="white"/>
<path d="M63.9347 99.1487C64.2033 99.2838 64.2033 99.554 63.9347 99.6891C63.6661 99.8242 63.2631 99.8242 62.9944 99.6891C62.7258 99.554 62.7258 99.2838 62.9944 99.1487C63.2631 99.0137 63.6661 99.0137 63.9347 99.1487Z" fill="white"/>
<path d="M53.7267 102.12C53.9953 102.256 53.9953 102.526 53.7267 102.661C53.458 102.796 53.0551 102.796 52.7864 102.661C52.5178 102.526 52.5178 102.256 52.7864 102.12C53.0551 101.985 53.458 101.985 53.7267 102.12Z" fill="white"/>
<path d="M55.7414 101.31C56.1123 101.31 56.413 101.129 56.413 100.905C56.413 100.681 56.1123 100.5 55.7414 100.5C55.3705 100.5 55.0698 100.681 55.0698 100.905C55.0698 101.129 55.3705 101.31 55.7414 101.31Z" fill="white"/>
<path d="M58.8306 99.1487C59.0992 99.2838 59.0992 99.554 58.8306 99.6891C58.562 99.8242 58.1591 99.8242 57.8904 99.6891C57.6218 99.554 57.6218 99.2838 57.8904 99.1487C58.1591 99.0137 58.562 99.0137 58.8306 99.1487Z" fill="white"/>
<path d="M61.3826 97.6628C61.6512 97.7979 61.6512 98.0681 61.3826 98.2032C61.114 98.3383 60.7111 98.3383 60.4424 98.2032C60.1738 98.0681 60.1738 97.7979 60.4424 97.6628C60.7111 97.5278 61.114 97.5278 61.3826 97.6628Z" fill="white"/>
<path d="M51.1746 100.635C51.4433 100.77 51.4433 101.04 51.1746 101.175C50.906 101.31 50.5031 101.31 50.2344 101.175C49.9658 101.04 49.9658 100.77 50.2344 100.635C50.5031 100.499 50.906 100.499 51.1746 100.635Z" fill="white"/>
<path d="M53.7267 99.1487C53.9953 99.2838 53.9953 99.554 53.7267 99.6891C53.458 99.8242 53.0551 99.8242 52.7864 99.6891C52.5178 99.554 52.5178 99.2838 52.7864 99.1487C53.0551 99.0137 53.458 99.0137 53.7267 99.1487Z" fill="white"/>
<path d="M55.7414 98.3383C56.1123 98.3383 56.413 98.1568 56.413 97.933C56.413 97.7092 56.1123 97.5278 55.7414 97.5278C55.3705 97.5278 55.0698 97.7092 55.0698 97.933C55.0698 98.1568 55.3705 98.3383 55.7414 98.3383Z" fill="white"/>
<path d="M58.8306 96.1771C59.0992 96.3121 59.0992 96.5823 58.8306 96.7174C58.562 96.8524 58.1591 96.8524 57.8904 96.7174C57.6218 96.5823 57.6218 96.3121 57.8904 96.1771C58.1591 96.042 58.562 96.042 58.8306 96.1771Z" fill="white"/>
<path d="M48.6227 99.1487C48.8913 99.2838 48.8913 99.554 48.6227 99.6891C48.354 99.8242 47.9511 99.8242 47.6824 99.6891C47.4138 99.554 47.4138 99.2838 47.6824 99.1487C47.9511 99.0137 48.354 99.0137 48.6227 99.1487Z" fill="white"/>
<path d="M51.1746 97.6628C51.4433 97.7979 51.4433 98.0681 51.1746 98.2032C50.906 98.3383 50.5031 98.3383 50.2344 98.2032C49.9658 98.0681 49.9658 97.7979 50.2344 97.6628C50.5031 97.5278 50.906 97.5278 51.1746 97.6628Z" fill="white"/>
<path d="M53.7267 96.1771C53.9953 96.3121 53.9953 96.5823 53.7267 96.7174C53.458 96.8524 53.0551 96.8524 52.7864 96.7174C52.5178 96.5823 52.5178 96.3121 52.7864 96.1771C53.0551 96.042 53.458 96.042 53.7267 96.1771Z" fill="white"/>
<path d="M56.2787 94.6911C56.5473 94.8262 56.5473 95.0963 56.2787 95.2314C56.0101 95.3665 55.6071 95.3665 55.3384 95.2314C55.0698 95.0963 55.0698 94.8262 55.3384 94.6911C55.6071 94.556 56.0101 94.556 56.2787 94.6911Z" fill="white"/>
<path d="M58.8307 93.8806C58.562 94.0157 58.1591 94.0157 57.8904 93.8806C57.6218 93.7455 57.6218 93.4754 57.8904 93.3403C58.1591 93.0701 59.0993 93.6105 58.8307 93.8806Z" fill="white"/>
<path d="M46.0708 97.6628C46.3394 97.7979 46.3394 98.0681 46.0708 98.2032C45.8022 98.3383 45.3993 98.3383 45.1307 98.2032C44.862 98.0681 44.862 97.7979 45.1307 97.6628C45.3993 97.5278 45.8022 97.5278 46.0708 97.6628Z" fill="white"/>
<path d="M48.6227 96.1771C48.8913 96.3121 48.8913 96.5823 48.6227 96.7174C48.354 96.8524 47.9511 96.8524 47.6824 96.7174C47.4138 96.5823 47.4138 96.3121 47.6824 96.1771C47.9511 96.042 48.354 96.042 48.6227 96.1771Z" fill="white"/>
<path d="M51.1746 94.6911C51.4433 94.8262 51.4433 95.0963 51.1746 95.2314C50.906 95.3665 50.5031 95.3665 50.2344 95.2314C49.9658 95.0963 49.9658 94.8262 50.2344 94.6911C50.5031 94.556 50.906 94.556 51.1746 94.6911Z" fill="white"/>
<path d="M53.7267 93.2052C53.9953 93.3403 53.9953 93.6105 53.7267 93.7456C53.458 93.8806 53.0551 93.8806 52.7864 93.7456C52.5178 93.6105 52.5178 93.3403 52.7864 93.2052C53.0551 93.0702 53.458 93.0702 53.7267 93.2052Z" fill="white"/>
<path d="M56.2787 92.3948C56.0101 92.5298 55.6071 92.5298 55.3384 92.3948C55.0698 92.2597 55.0698 91.9895 55.3384 91.8545C55.6071 91.5843 56.5474 92.1246 56.2787 92.3948Z" fill="white"/>
<path d="M43.5187 96.1771C43.7873 96.3121 43.7873 96.5823 43.5187 96.7174C43.25 96.8524 42.8471 96.8524 42.5784 96.7174C42.3098 96.5823 42.3098 96.3121 42.5784 96.1771C42.8471 96.042 43.25 96.042 43.5187 96.1771Z" fill="white"/>
<path d="M46.0708 94.6911C46.3394 94.8262 46.3394 95.0963 46.0708 95.2314C45.8022 95.3665 45.3993 95.3665 45.1307 95.2314C44.862 95.0963 44.862 94.8262 45.1307 94.6911C45.3993 94.556 45.8022 94.556 46.0708 94.6911Z" fill="white"/>
<path d="M48.0854 93.8806C48.4563 93.8806 48.757 93.6992 48.757 93.4754C48.757 93.2516 48.4563 93.0701 48.0854 93.0701C47.7145 93.0701 47.4138 93.2516 47.4138 93.4754C47.4138 93.6992 47.7145 93.8806 48.0854 93.8806Z" fill="white"/>
<path d="M51.1746 91.7194C51.4433 91.8544 51.4433 92.1246 51.1746 92.2597C50.906 92.3948 50.5031 92.3948 50.2344 92.2597C49.9658 92.1246 49.9658 91.8544 50.2344 91.7194C50.5031 91.5843 50.906 91.5843 51.1746 91.7194Z" fill="white"/>
<path d="M53.7267 90.9088C53.4581 91.0439 53.0551 91.0439 52.7864 90.9088C52.5178 90.7737 52.5178 90.5036 52.7864 90.3685C53.0551 90.0983 53.9954 90.6386 53.7267 90.9088Z" fill="white"/>
<path d="M40.9666 94.6911C41.2352 94.8262 41.2352 95.0963 40.9666 95.2314C40.698 95.3665 40.295 95.3665 40.0264 95.2314C39.7578 95.0963 39.7578 94.8262 40.0264 94.6911C40.295 94.556 40.698 94.556 40.9666 94.6911Z" fill="white"/>
<path d="M43.5187 93.2052C43.7873 93.3403 43.7873 93.6105 43.5187 93.7456C43.25 93.8806 42.8471 93.8806 42.5784 93.7456C42.3098 93.6105 42.3098 93.3403 42.5784 93.2052C42.8471 93.0702 43.25 93.0702 43.5187 93.2052Z" fill="white"/>
<path d="M46.0708 91.7194C46.3394 91.8544 46.3394 92.1246 46.0708 92.2597C45.8022 92.3948 45.3993 92.3948 45.1307 92.2597C44.862 92.1246 44.862 91.8544 45.1307 91.7194C45.3993 91.5843 45.8022 91.5843 46.0708 91.7194Z" fill="white"/>
<path d="M48.6227 90.2334C48.8913 90.3685 48.8913 90.6386 48.6227 90.7737C48.354 90.9088 47.9511 90.9088 47.6824 90.7737C47.4138 90.6386 47.4138 90.3685 47.6824 90.2334C47.9511 90.0983 48.354 90.0983 48.6227 90.2334Z" fill="white"/>
<path d="M51.1746 89.423C50.906 89.558 50.5031 89.558 50.2344 89.423C49.9658 89.2879 49.9658 89.0177 50.2344 88.8826C50.5031 88.6125 51.4433 89.1528 51.1746 89.423Z" fill="white"/>
<path d="M38.4147 93.2052C38.6833 93.3403 38.6833 93.6105 38.4147 93.7456C38.146 93.8806 37.7431 93.8806 37.4744 93.7456C37.2058 93.6105 37.2058 93.3403 37.4744 93.2052C37.7431 93.0702 38.146 93.0702 38.4147 93.2052Z" fill="white"/>
<path d="M40.9666 91.7194C41.2352 91.8544 41.2352 92.1246 40.9666 92.2597C40.698 92.3948 40.295 92.3948 40.0264 92.2597C39.7578 92.1246 39.7578 91.8544 40.0264 91.7194C40.295 91.5843 40.698 91.5843 40.9666 91.7194Z" fill="white"/>
<path d="M43.5187 90.2334C43.7873 90.3685 43.7873 90.6386 43.5187 90.7737C43.25 90.9088 42.8471 90.9088 42.5784 90.7737C42.3098 90.6386 42.3098 90.3685 42.5784 90.2334C42.8471 90.0983 43.25 90.0983 43.5187 90.2334Z" fill="white"/>
<path d="M46.0708 88.7475C46.3394 88.8826 46.3394 89.1528 46.0708 89.2879C45.8022 89.4229 45.3993 89.4229 45.1307 89.2879C44.862 89.1528 44.862 88.8826 45.1307 88.7475C45.3993 88.6125 45.8022 88.6125 46.0708 88.7475Z" fill="white"/>
<path d="M48.6226 87.9371C48.354 88.0722 47.9511 88.0722 47.6824 87.9371C47.4138 87.802 47.4138 87.5318 47.6824 87.3968C47.9511 87.1266 48.8913 87.6669 48.6226 87.9371Z" fill="white"/>
<path d="M35.8626 91.7194C36.1312 91.8544 36.1312 92.1246 35.8626 92.2597C35.594 92.3948 35.191 92.3948 34.9224 92.2597C34.6538 92.1246 34.6538 91.8544 34.9224 91.7194C35.191 91.5843 35.594 91.5843 35.8626 91.7194Z" fill="white"/>
<path d="M38.4147 90.2334C38.6833 90.3685 38.6833 90.6386 38.4147 90.7737C38.146 90.9088 37.7431 90.9088 37.4744 90.7737C37.2058 90.6386 37.2058 90.3685 37.4744 90.2334C37.7431 90.0983 38.146 90.0983 38.4147 90.2334Z" fill="white"/>
<path d="M40.9666 88.7475C41.2352 88.8826 41.2352 89.1528 40.9666 89.2879C40.698 89.4229 40.295 89.4229 40.0264 89.2879C39.7578 89.1528 39.7578 88.8826 40.0264 88.7475C40.295 88.6125 40.698 88.6125 40.9666 88.7475Z" fill="white"/>
<path d="M43.5187 87.2617C43.7873 87.3968 43.7873 87.667 43.5187 87.802C43.25 87.9371 42.8471 87.9371 42.5784 87.802C42.3098 87.667 42.3098 87.3968 42.5784 87.2617C42.8471 87.1266 43.25 87.1266 43.5187 87.2617Z" fill="white"/>
<path d="M46.0708 86.4512C45.8022 86.5863 45.3993 86.5863 45.1307 86.4512C44.862 86.3161 44.862 86.046 45.1307 85.9109C45.3993 85.6407 46.3394 86.3161 46.0708 86.4512Z" fill="white"/>
<path d="M33.3109 90.2334C33.5795 90.3685 33.5795 90.6386 33.3109 90.7737C33.0422 90.9088 32.6393 90.9088 32.3707 90.7737C32.102 90.6386 32.102 90.3685 32.3707 90.2334C32.6393 90.0983 33.0422 90.0983 33.3109 90.2334Z" fill="white"/>
<path d="M35.8626 88.7475C36.1312 88.8826 36.1312 89.1528 35.8626 89.2879C35.594 89.4229 35.191 89.4229 34.9224 89.2879C34.6538 89.1528 34.6538 88.8826 34.9224 88.7475C35.191 88.6125 35.594 88.6125 35.8626 88.7475Z" fill="white"/>
<path d="M38.4147 87.2617C38.6833 87.3968 38.6833 87.667 38.4147 87.802C38.146 87.9371 37.7431 87.9371 37.4744 87.802C37.2058 87.667 37.2058 87.3968 37.4744 87.2617C37.7431 87.1266 38.146 87.1266 38.4147 87.2617Z" fill="white"/>
<path d="M40.9666 85.7759C41.2352 85.9109 41.2352 86.1811 40.9666 86.3162C40.698 86.4513 40.295 86.4513 40.0264 86.3162C39.7578 86.1811 39.7578 85.9109 40.0264 85.7759C40.295 85.6408 40.698 85.6408 40.9666 85.7759Z" fill="white"/>
<path d="M43.5186 84.9653C43.25 85.1004 42.847 85.1004 42.5784 84.9653C42.3098 84.8303 42.3098 84.5601 42.5784 84.425C42.847 84.1548 43.7872 84.8303 43.5186 84.9653Z" fill="white"/>
<path d="M30.7587 88.7475C31.0273 88.8826 31.0273 89.1528 30.7587 89.2879C30.49 89.4229 30.0871 89.4229 29.8184 89.2879C29.5498 89.1528 29.5498 88.8826 29.8184 88.7475C30.0871 88.6125 30.49 88.6125 30.7587 88.7475Z" fill="white"/>
<path d="M33.3109 87.2617C33.5795 87.3968 33.5795 87.667 33.3109 87.802C33.0422 87.9371 32.6393 87.9371 32.3707 87.802C32.102 87.667 32.102 87.3968 32.3707 87.2617C32.6393 87.1266 33.0422 87.1266 33.3109 87.2617Z" fill="white"/>
<path d="M35.8626 85.7759C36.1312 85.9109 36.1312 86.1811 35.8626 86.3162C35.594 86.4513 35.191 86.4513 34.9224 86.3162C34.6538 86.1811 34.6538 85.9109 34.9224 85.7759C35.191 85.6408 35.594 85.6408 35.8626 85.7759Z" fill="white"/>
<path d="M38.4147 84.425C38.6833 84.5601 38.6833 84.8302 38.4147 84.9653C38.146 85.1004 37.7431 85.1004 37.4744 84.9653C37.2058 84.8302 37.2058 84.5601 37.4744 84.425C37.7431 84.1548 38.146 84.1548 38.4147 84.425Z" fill="white"/>
<path d="M40.9666 83.4795C40.698 83.6145 40.295 83.6145 40.0264 83.4795C39.7578 83.3444 39.7578 83.0742 40.0264 82.9392C40.295 82.669 41.2353 83.3444 40.9666 83.4795Z" fill="white"/>
<path d="M28.2066 87.2617C28.4752 87.3968 28.4752 87.667 28.2066 87.802C27.938 87.9371 27.535 87.9371 27.2664 87.802C26.9978 87.667 26.9978 87.3968 27.2664 87.2617C27.535 87.1266 27.938 87.1266 28.2066 87.2617Z" fill="white"/>
<path d="M30.7587 85.7759C31.0273 85.9109 31.0273 86.1811 30.7587 86.3162C30.49 86.4513 30.0871 86.4513 29.8184 86.3162C29.5498 86.1811 29.5498 85.9109 29.8184 85.7759C30.0871 85.6408 30.49 85.6408 30.7587 85.7759Z" fill="white"/>
<path d="M33.3109 84.425C33.5795 84.5601 33.5795 84.8302 33.3109 84.9653C33.0422 85.1004 32.6393 85.1004 32.3707 84.9653C32.102 84.8302 32.102 84.5601 32.3707 84.425C32.6393 84.1548 33.0422 84.1548 33.3109 84.425Z" fill="white"/>
<path d="M35.4597 83.6145C35.8306 83.6145 36.1313 83.4331 36.1313 83.2093C36.1313 82.9855 35.8306 82.8041 35.4597 82.8041C35.0888 82.8041 34.7881 82.9855 34.7881 83.2093C34.7881 83.4331 35.0888 83.6145 35.4597 83.6145Z" fill="white"/>
<path d="M25.6547 85.7759C25.9233 85.9109 25.9233 86.1811 25.6547 86.3162C25.386 86.4513 24.9831 86.4513 24.7144 86.3162C24.4458 86.1811 24.4458 85.9109 24.7144 85.7759C24.9831 85.6408 25.386 85.6408 25.6547 85.7759Z" fill="white"/>
<path d="M28.2066 84.425C28.4752 84.5601 28.4752 84.8302 28.2066 84.9653C27.938 85.1004 27.535 85.1004 27.2664 84.9653C26.9978 84.8302 26.9978 84.5601 27.2664 84.425C27.535 84.1548 27.938 84.1548 28.2066 84.425Z" fill="white"/>
<path d="M30.7587 82.9391C31.0273 83.0742 31.0273 83.3444 30.7587 83.4794C30.49 83.6145 30.0871 83.6145 29.8184 83.4794C29.5498 83.3444 29.5498 83.0742 29.8184 82.9391C30.0871 82.669 30.49 82.669 30.7587 82.9391Z" fill="white"/>
<path d="M33.3109 81.4532C33.5795 81.5883 33.5795 81.8585 33.3109 81.9935C33.0422 82.1286 32.6393 82.1286 32.3707 81.9935C32.102 81.8585 32.102 81.5883 32.3707 81.4532C32.6393 81.3182 33.0422 81.3182 33.3109 81.4532Z" fill="white"/>
<path d="M23.1026 84.2899C23.3713 84.425 23.3713 84.6952 23.1026 84.8302C22.834 84.9653 22.4311 84.9653 22.1624 84.8302C21.8938 84.6952 21.8938 84.425 22.1624 84.2899C22.4311 84.1548 22.834 84.1548 23.1026 84.2899Z" fill="white"/>
<path d="M25.6547 82.9391C25.9233 83.0742 25.9233 83.3444 25.6547 83.4794C25.386 83.6145 24.9831 83.6145 24.7144 83.4794C24.4458 83.3444 24.4458 83.0742 24.7144 82.9391C24.9831 82.804 25.386 82.669 25.6547 82.9391Z" fill="white"/>
<path d="M28.2066 81.4532C28.4752 81.5883 28.4752 81.8585 28.2066 81.9935C27.938 82.1286 27.535 82.1286 27.2664 81.9935C26.9978 81.8585 26.9978 81.5883 27.2664 81.4532C27.535 81.1831 27.938 81.1831 28.2066 81.4532Z" fill="white"/>
<path d="M30.7587 79.9674C31.0273 80.1025 31.0273 80.3726 30.7587 80.5077C30.49 80.6428 30.0871 80.6428 29.8184 80.5077C29.5498 80.3726 29.5498 80.1025 29.8184 79.9674C30.0871 79.6972 30.49 79.6972 30.7587 79.9674Z" fill="white"/>
<path d="M20.5506 82.9391C20.8192 83.0742 20.8192 83.3444 20.5506 83.4794C20.2819 83.6145 19.879 83.6145 19.6104 83.4794C19.3418 83.3444 19.3418 83.0742 19.6104 82.9391C19.879 82.669 20.2819 82.669 20.5506 82.9391Z" fill="white"/>
<path d="M23.1026 81.4532C23.3713 81.5883 23.3713 81.8585 23.1026 81.9935C22.834 82.1286 22.4311 82.1286 22.1624 81.9935C21.8938 81.8585 21.8938 81.5883 22.1624 81.4532C22.4311 81.1831 22.834 81.1831 23.1026 81.4532Z" fill="white"/>
<path d="M25.6547 79.9674C25.9233 80.1025 25.9233 80.3726 25.6547 80.5077C25.386 80.6428 24.9831 80.6428 24.7144 80.5077C24.4458 80.3726 24.4458 80.1025 24.7144 79.9674C24.9831 79.6972 25.386 79.6972 25.6547 79.9674Z" fill="white"/>
<path d="M27.8037 79.1569C28.1746 79.1569 28.4753 78.9754 28.4753 78.7516C28.4753 78.5278 28.1746 78.3464 27.8037 78.3464C27.4328 78.3464 27.1321 78.5278 27.1321 78.7516C27.1321 78.9754 27.4328 79.1569 27.8037 79.1569Z" fill="white"/>
<path d="M17.9986 81.4532C18.2673 81.5883 18.2673 81.8585 17.9986 81.9935C17.73 82.1286 17.327 82.1286 17.0584 81.9935C16.7898 81.8585 16.7898 81.5883 17.0584 81.4532C17.327 81.1831 17.73 81.1831 17.9986 81.4532Z" fill="white"/>
<path d="M20.5506 79.9674C20.8192 80.1025 20.8192 80.3726 20.5506 80.5077C20.2819 80.6428 19.879 80.6428 19.6104 80.5077C19.3418 80.3726 19.3418 80.1025 19.6104 79.9674C19.879 79.6972 20.2819 79.6972 20.5506 79.9674Z" fill="white"/>
<path d="M23.1026 78.4815C23.3713 78.6166 23.3713 78.8867 23.1026 79.0218C22.834 79.1569 22.4311 79.1569 22.1624 79.0218C21.8938 78.8867 21.8938 78.6166 22.1624 78.4815C22.4311 78.3464 22.834 78.3464 23.1026 78.4815Z" fill="white"/>
<path d="M25.6547 76.9957C25.9233 77.1307 25.9233 77.4009 25.6547 77.536C25.386 77.671 24.9831 77.671 24.7144 77.536C24.4458 77.4009 24.4458 77.1307 24.7144 76.9957C24.9831 76.8606 25.386 76.8606 25.6547 76.9957C25.9233 77.1307 25.386 76.8606 25.6547 76.9957Z" fill="white"/>
<path d="M15.4466 79.9674C15.7153 80.1025 15.7153 80.3726 15.4466 80.5077C15.178 80.6428 14.775 80.6428 14.5064 80.5077C14.2378 80.3726 14.2378 80.1025 14.5064 79.9674C14.775 79.6972 15.178 79.6972 15.4466 79.9674Z" fill="white"/>
<path d="M17.9986 78.4815C18.2673 78.6166 18.2673 78.8867 17.9986 79.0218C17.73 79.1569 17.327 79.1569 17.0584 79.0218C16.7898 78.8867 16.7898 78.6166 17.0584 78.4815C17.327 78.3464 17.73 78.3464 17.9986 78.4815Z" fill="white"/>
<path d="M20.5506 76.9957C20.8192 77.1307 20.8192 77.4009 20.5506 77.536C20.2819 77.671 19.879 77.671 19.6104 77.536C19.3418 77.4009 19.3418 77.1307 19.6104 76.9957C19.879 76.8606 20.2819 76.8606 20.5506 76.9957Z" fill="white"/>
<path d="M71.5908 115.358C71.8595 115.493 71.8595 115.764 71.5908 115.899C71.3222 116.034 70.9193 116.034 70.6507 115.899C70.3821 115.764 70.3821 115.493 70.6507 115.358C70.9193 115.223 71.3222 115.223 71.5908 115.358Z" fill="white"/>
<path d="M69.0387 113.872C69.3074 114.008 69.3074 114.278 69.0387 114.413C68.7701 114.548 68.3671 114.548 68.0985 114.413C67.8298 114.278 67.8298 114.008 68.0985 113.872C68.3671 113.737 68.7701 113.737 69.0387 113.872Z" fill="white"/>
<path d="M61.3826 109.415C61.6512 109.55 61.6512 109.82 61.3826 109.955C61.114 110.09 60.7111 110.09 60.4424 109.955C60.1738 109.82 60.1738 109.55 60.4424 109.415C60.7111 109.28 61.114 109.28 61.3826 109.415Z" fill="white"/>
<path d="M58.8306 107.929C59.0992 108.064 59.0992 108.334 58.8306 108.469C58.562 108.604 58.1591 108.604 57.8904 108.469C57.6218 108.334 57.6218 108.064 57.8904 107.929C58.1591 107.794 58.562 107.794 58.8306 107.929Z" fill="white"/>
<path d="M56.2787 106.443C56.5473 106.578 56.5473 106.848 56.2787 106.983C56.0101 107.118 55.6071 107.118 55.3384 106.983C55.0698 106.848 55.0698 106.578 55.3384 106.443C55.6071 106.308 56.0101 106.308 56.2787 106.443Z" fill="white"/>
<path d="M66.4869 112.387C66.7555 112.522 66.7555 112.792 66.4869 112.927C66.2183 113.062 65.8153 113.062 65.5467 112.927C65.2781 112.792 65.2781 112.522 65.5467 112.387C65.8153 112.252 66.2183 112.252 66.4869 112.387Z" fill="white"/>
<path d="M63.9347 110.901C64.2033 111.036 64.2033 111.306 63.9347 111.441C63.6661 111.576 63.2631 111.576 62.9944 111.441C62.7258 111.306 62.7258 111.036 62.9944 110.901C63.2631 110.766 63.6661 110.766 63.9347 110.901Z" fill="white"/>
<path d="M76.6947 115.358C76.9633 115.493 76.9633 115.764 76.6947 115.899C76.4261 116.034 76.0231 116.034 75.7545 115.899C75.4858 115.764 75.4858 115.493 75.7545 115.358C76.0231 115.223 76.4261 115.223 76.6947 115.358Z" fill="white"/>
<path d="M79.2467 113.872C79.5154 114.008 79.5154 114.278 79.2467 114.413C78.9781 114.548 78.5751 114.548 78.3065 114.413C78.0378 114.278 78.0378 114.008 78.3065 113.872C78.5751 113.737 78.9781 113.737 79.2467 113.872Z" fill="white"/>
<path d="M81.7987 112.387C82.0673 112.522 82.0673 112.792 81.7987 112.927C81.5301 113.062 81.1271 113.062 80.8585 112.927C80.5898 112.792 80.5898 112.522 80.8585 112.387C81.1271 112.252 81.5301 112.252 81.7987 112.387Z" fill="white"/>
<path d="M74.1426 113.872C74.4112 114.008 74.4112 114.278 74.1426 114.413C73.874 114.548 73.4711 114.548 73.2024 114.413C72.9338 114.278 72.9338 114.008 73.2024 113.872C73.4711 113.737 73.874 113.737 74.1426 113.872Z" fill="white"/>
<path d="M76.6947 112.387C76.9633 112.522 76.9633 112.792 76.6947 112.927C76.4261 113.062 76.0231 113.062 75.7545 112.927C75.4858 112.792 75.4858 112.522 75.7545 112.387C76.0231 112.252 76.4261 112.252 76.6947 112.387Z" fill="white"/>
<path d="M79.2467 110.901C79.5154 111.036 79.5154 111.306 79.2467 111.441C78.9781 111.576 78.5751 111.576 78.3065 111.441C78.0378 111.306 78.0378 111.036 78.3065 110.901C78.5751 110.766 78.9781 110.766 79.2467 110.901Z" fill="white"/>
<path d="M71.5908 112.387C71.8595 112.522 71.8595 112.792 71.5908 112.927C71.3222 113.062 70.9193 113.062 70.6507 112.927C70.3821 112.792 70.3821 112.522 70.6507 112.387C70.9193 112.252 71.3222 112.252 71.5908 112.387Z" fill="white"/>
<path d="M74.1426 110.901C74.4112 111.036 74.4112 111.306 74.1426 111.441C73.874 111.576 73.4711 111.576 73.2024 111.441C72.9338 111.306 72.9338 111.036 73.2024 110.901C73.4711 110.766 73.874 110.766 74.1426 110.901Z" fill="white"/>
<path d="M69.0387 110.901C69.3074 111.036 69.3074 111.306 69.0387 111.441C68.7701 111.576 68.3671 111.576 68.0985 111.441C67.8298 111.306 67.8298 111.036 68.0985 110.901C68.3671 110.766 68.7701 110.766 69.0387 110.901Z" fill="white"/>
<path d="M71.5908 109.415C71.8595 109.55 71.8595 109.82 71.5908 109.955C71.3222 110.09 70.9193 110.09 70.6507 109.955C70.3821 109.82 70.3821 109.55 70.6507 109.415C70.9193 109.28 71.3222 109.28 71.5908 109.415Z" fill="white"/>
<path d="M66.4869 109.415C66.7555 109.55 66.7555 109.82 66.4869 109.955C66.2183 110.09 65.8153 110.09 65.5467 109.955C65.2781 109.82 65.2781 109.55 65.5467 109.415C65.8153 109.28 66.2183 109.28 66.4869 109.415Z" fill="white"/>
<path d="M69.0387 107.929C69.3074 108.064 69.3074 108.334 69.0387 108.469C68.7701 108.604 68.3671 108.604 68.0985 108.469C67.8298 108.334 67.8298 108.064 68.0985 107.929C68.3671 107.794 68.7701 107.794 69.0387 107.929Z" fill="white"/>
<path d="M71.5908 106.443C71.8595 106.578 71.8595 106.848 71.5908 106.983C71.3222 107.118 70.9193 107.118 70.6507 106.983C70.3821 106.848 70.3821 106.578 70.6507 106.443C70.9193 106.308 71.3222 106.308 71.5908 106.443Z" fill="white"/>
<path d="M63.9347 107.929C64.2033 108.064 64.2033 108.334 63.9347 108.469C63.6661 108.604 63.2631 108.604 62.9944 108.469C62.7258 108.334 62.7258 108.064 62.9944 107.929C63.2631 107.794 63.6661 107.794 63.9347 107.929Z" fill="white"/>
<path d="M66.4869 106.443C66.7555 106.578 66.7555 106.848 66.4869 106.983C66.2183 107.118 65.8153 107.118 65.5467 106.983C65.2781 106.848 65.2781 106.578 65.5467 106.443C65.8153 106.308 66.2183 106.308 66.4869 106.443Z" fill="white"/>
<path d="M69.0387 104.957C69.3074 105.092 69.3074 105.362 69.0387 105.498C68.7701 105.633 68.3671 105.633 68.0985 105.498C67.8298 105.362 67.8298 105.092 68.0985 104.957C68.3671 104.822 68.7701 104.822 69.0387 104.957Z" fill="white"/>
<path d="M61.3826 106.443C61.6512 106.578 61.6512 106.848 61.3826 106.983C61.114 107.118 60.7111 107.118 60.4424 106.983C60.1738 106.848 60.1738 106.578 60.4424 106.443C60.7111 106.308 61.114 106.308 61.3826 106.443Z" fill="white"/>
<path d="M63.9347 104.957C64.2033 105.092 64.2033 105.362 63.9347 105.498C63.6661 105.633 63.2631 105.633 62.9944 105.498C62.7258 105.362 62.7258 105.092 62.9944 104.957C63.2631 104.822 63.6661 104.822 63.9347 104.957Z" fill="white"/>
<path d="M66.4869 103.471C66.7555 103.606 66.7555 103.877 66.4869 104.012C66.2183 104.147 65.8153 104.147 65.5467 104.012C65.2781 103.877 65.2781 103.606 65.5467 103.471C65.8153 103.336 66.2183 103.336 66.4869 103.471Z" fill="white"/>
<path d="M58.8306 104.957C59.0992 105.092 59.0992 105.362 58.8306 105.498C58.562 105.633 58.1591 105.633 57.8904 105.498C57.6218 105.362 57.6218 105.092 57.8904 104.957C58.1591 104.822 58.562 104.822 58.8306 104.957Z" fill="white"/>
<path d="M61.3826 103.471C61.6512 103.606 61.6512 103.877 61.3826 104.012C61.114 104.147 60.7111 104.147 60.4424 104.012C60.1738 103.877 60.1738 103.606 60.4424 103.471C60.7111 103.336 61.114 103.336 61.3826 103.471Z" fill="white"/>
<path d="M63.9347 101.985C64.2033 102.12 64.2033 102.391 63.9347 102.526C63.6661 102.661 63.2631 102.661 62.9944 102.526C62.7258 102.391 62.7258 102.12 62.9944 101.985C63.2631 101.85 63.6661 101.85 63.9347 101.985Z" fill="white"/>
<path d="M66.4869 101.175C66.2183 101.31 65.8153 101.31 65.5467 101.175C65.2781 101.04 65.2781 100.77 65.5467 100.635C65.8153 100.499 66.2183 100.499 66.4869 100.635C66.7555 100.77 66.7555 101.04 66.4869 101.175Z" fill="white"/>
<path d="M77.7699 41.1998L6.98529 0.540738C6.04508 0.000417978 5.23921 0.000417978 4.70194 0.540738L1.20972 2.56694L3.76171 6.2141V61.5969C3.76171 63.8933 5.23918 66.5949 6.98529 67.5404L73.0688 105.498L76.4267 110.361L79.6503 108.335C80.3218 107.929 80.8591 107.119 80.8591 105.768V47.2784C80.9934 44.9821 79.516 42.2805 77.7699 41.1998Z" fill="#4B8EC8"/>
<path d="M61.1141 38.3627L2.28369 5.26813L1.34351 3.10685L3.8955 1.48589C4.43277 1.08065 5.23868 0.945573 6.17889 1.48589L76.9634 42.145C77.9036 42.6853 78.8439 43.7659 79.3811 44.9817L79.5154 45.3869L75.3516 47.9534L61.1141 38.3627Z" fill="white"/>
<path d="M79.9183 47.4131L76.1575 49.7094L76.4261 51.1953L79.9183 49.034V47.4131Z" fill="white"/>
<path d="M4.56698 0.40524C5.23856 -0.13508 6.17877 -0.13508 7.2533 0.40524L78.0378 41.0643C79.9183 42.145 81.3957 44.9817 81.3957 47.4131V105.903C81.3957 107.254 80.8585 108.334 80.0526 108.739L76.5603 110.901L73.0681 105.903L6.98465 68.0803C5.10423 66.9997 3.62675 64.163 3.62675 61.7316V6.48384L0.94043 2.56652L4.56698 0.40524ZM4.16405 6.21368V61.5965C4.16405 63.7578 5.50718 66.3243 7.11897 67.2699L73.2025 105.227L76.5603 109.955L77.2319 109.55L77.3663 108.469L79.9183 106.848C80.3212 106.578 80.4555 106.308 80.4555 105.768V47.278C80.4555 45.1167 79.1123 42.5502 77.5005 41.6047L6.71604 0.94556C6.04446 0.54032 5.37289 0.54032 4.83563 0.94556L1.61201 2.83668L4.16405 6.21368Z" fill="#16110D"/>
<path d="M24.177 91.179L38.5488 82.9392C39.8919 82.1287 42.3096 82.2638 43.9214 83.2093L52.6519 88.2073L56.8157 90.0984V91.9895C56.6814 92.5298 56.4128 92.9351 55.8755 93.2052L38.1458 103.336C37.4742 103.741 36.6683 103.877 35.8624 103.877C34.7879 103.877 33.7134 103.606 32.9075 103.066L21.3563 96.4472C20.5504 95.9068 20.0132 95.3665 20.0132 94.556V94.421V92.9351L24.177 91.179Z" fill="#16110D"/>
<path d="M55.6069 91.4491L37.8772 101.58C36.5341 102.256 34.385 102.256 32.9075 101.31L21.3564 94.691C19.8789 93.8806 19.7446 92.5298 20.9534 91.8544L38.6831 81.7234C40.0263 81.048 42.1754 81.048 43.6528 81.9935L55.204 88.6124C56.6815 89.4229 56.8158 90.6386 55.6069 91.4491Z" fill="#4B8EC8"/>
<path d="M22.9682 93.3403L27.8035 90.5036C29.4153 89.558 31.2957 89.558 32.9075 90.5036L44.9959 97.3927L37.7429 101.58C36.3997 102.256 34.2507 102.256 32.7732 101.31L23.5054 96.177C21.8936 95.3665 21.625 94.0157 22.9682 93.3403Z" fill="white"/>
<path d="M35.7283 102.391C36.5342 102.391 37.4743 102.256 38.0116 101.85L55.7413 91.7194C56.4129 91.3141 56.8158 90.7738 56.8158 90.2335C56.8158 89.5581 56.2786 88.8827 55.4727 88.3424L43.9215 81.7234C42.3097 80.7779 40.0263 80.7779 38.5489 81.4533L20.8192 91.5843C20.1476 91.9895 19.7446 92.5299 19.7446 93.0702C19.7446 93.7456 20.2819 94.421 21.0878 94.9613L32.639 101.58C33.5792 102.121 34.6537 102.391 35.7283 102.391ZM55.3384 91.179L37.6087 101.31C36.3998 101.985 34.3851 101.85 32.9076 101.04L21.3564 94.421C20.6849 94.0157 20.2819 93.6105 20.2819 93.0702C20.2819 92.6649 20.6849 92.2597 20.9535 92.1246L38.6832 81.9936C39.892 81.3182 41.9068 81.4533 43.3842 82.2638L54.9354 88.8827C55.607 89.2879 56.0099 89.6932 56.0099 90.2335C56.0099 90.6387 55.7413 90.9089 55.3384 91.179Z" fill="#16110D"/>
<path d="M1.20908 2.29637C1.88066 1.89113 2.68654 1.89113 3.62675 2.43145L74.4113 43.0905C76.2917 44.1712 77.7692 47.0079 77.7692 49.4393V107.929C77.7692 109.28 77.2319 109.82 76.829 110.09C76.5603 110.225 76.1574 110.36 75.8888 110.36C75.3515 110.36 74.5456 110.09 73.874 109.685L3.35814 69.9715C1.47772 68.8908 0.000244141 66.0541 0.000244141 63.6227V5.13305C0.000244141 3.78225 0.5375 2.70161 1.20908 2.29637Z" fill="#16110D"/>
<path d="M0.40332 56.8687V64.028C0.40332 66.1892 1.8808 68.7558 3.76122 69.8364L74.1428 110.225C76.0232 111.306 77.5007 110.495 77.5007 108.334V101.175L0.40332 56.8687Z" fill="#4B8EC8"/>
<path d="M75.6203 110.901C76.0233 110.901 76.4262 110.766 76.6949 110.631C77.5008 110.225 77.9037 109.28 77.9037 108.199V100.905L77.7694 100.77L0.134766 56.1933V63.8929C0.134766 66.1892 1.74653 68.8908 3.76127 69.9715L74.1428 110.36C74.5458 110.766 75.0831 110.901 75.6203 110.901ZM77.0978 101.31V108.199C77.0978 109.145 76.8292 109.82 76.2919 110.09C75.7546 110.36 75.0831 110.36 74.2772 109.82L3.8956 69.5662C2.14949 68.4856 0.672021 66.0541 0.672021 64.0279V57.5441L77.0978 101.31Z" fill="#16110D"/>
<path d="M72.9337 94.0157L4.96978 55.1127C4.2982 54.7074 3.89526 53.7619 3.89526 52.9514V8.23991C3.89526 7.42942 4.43251 7.02418 4.96978 7.42942L72.9337 46.3325C73.6053 46.7377 74.0083 47.6833 74.0083 48.4938V93.2053C74.0083 94.0157 73.471 94.421 72.9337 94.0157Z" fill="#1A3962"/>
<path d="M73.3368 94.5561C73.4711 94.5561 73.6054 94.5561 73.7398 94.421C74.1427 94.1508 74.277 93.7456 74.277 93.2053V48.4938C74.277 47.5482 73.7397 46.4676 72.9338 46.0623L4.96992 7.15929C4.56697 6.88913 4.16404 6.88913 3.89541 7.15929C3.49246 7.42945 3.35815 7.83468 3.35815 8.375V53.0865C3.35815 54.0321 3.89542 55.1127 4.70131 55.5179L72.6652 94.421C72.9339 94.421 73.0682 94.5561 73.3368 94.5561ZM4.56699 7.56452C4.70131 7.56452 4.83564 7.56452 4.83564 7.6996L72.7995 46.6027C73.3368 46.8728 73.7398 47.6833 73.7398 48.4938V93.2053C73.7398 93.4754 73.6054 93.7456 73.4711 93.7456C73.3368 93.8807 73.2025 93.7456 73.0682 93.7456L5.10425 54.8425C4.56698 54.5724 4.16406 53.7619 4.16406 52.9514V8.23992C4.16406 7.96976 4.29836 7.6996 4.56699 7.56452C4.43267 7.56452 4.43267 7.56452 4.56699 7.56452Z" fill="#16110D"/>
<path d="M53.9955 69.7013L22.0284 51.1953C18.1332 48.8989 15.0439 42.9554 15.0439 37.6873C15.0439 32.5543 18.1332 30.1228 22.0284 32.4192L53.9955 50.9251C57.8907 53.2215 60.9799 59.165 60.9799 64.4331C60.9799 69.5662 57.7564 71.9976 53.9955 69.7013Z" fill="white"/>
<path d="M55.07 67.8102C54.1298 67.8102 53.0552 67.54 52.115 66.8646L20.1478 48.3586C16.1184 46.0623 12.8948 39.8486 12.8948 34.5805C12.8948 31.7438 13.835 29.5825 15.4468 28.5019C16.7899 27.6914 18.536 27.8265 20.4164 28.9071L52.3837 47.4131C56.4131 49.7094 59.6367 55.9231 59.6367 61.1912C59.6367 64.0279 58.6965 66.1892 57.0847 67.2698C56.4131 67.6751 55.7416 67.8102 55.07 67.8102ZM17.5958 28.9071C17.0586 28.9071 16.5213 29.0422 15.984 29.3123C14.5066 30.1228 13.7006 32.149 13.7006 34.7155C13.7006 39.7135 16.7899 45.657 20.5508 47.8183L52.518 66.3243C54.1298 67.2698 55.6072 67.4049 56.6818 66.7295C58.1592 65.919 58.9651 63.8928 58.9651 61.3263C58.9651 56.3284 55.8759 50.3848 52.115 48.2235L20.1478 29.7176C19.3419 29.1773 18.4017 28.9071 17.5958 28.9071Z" fill="#16110D"/>
<path d="M55.7415 64.5683V75.7799C55.7415 76.1852 56.1444 76.7255 56.5474 76.5904L58.0248 75.915C58.2934 75.7799 58.5621 76.0501 58.6964 76.4553L60.1739 81.1831C60.3082 81.5884 60.7111 81.9936 60.9798 81.9936H62.1886C62.4573 81.9936 62.5916 81.5884 62.4573 81.1831L60.9798 76.3202C60.8455 75.915 60.9798 75.7799 61.2484 75.915L63.2632 76.8606C63.6661 76.9957 63.8004 76.5904 63.5318 76.1852L56.413 64.5683C56.1444 64.163 55.7415 64.163 55.7415 64.5683Z" fill="white"/>
<path d="M60.5768 79.4271H59.3679C58.8307 79.4271 58.2934 78.8868 58.1591 78.3465L56.6817 73.6187C56.6817 73.4836 56.5474 73.3485 56.5474 73.3485L55.2042 74.0239C54.9356 74.159 54.8013 74.159 54.5327 73.8888C54.264 73.7537 53.9954 73.2134 53.9954 72.8082V61.5965C53.9954 61.1913 54.264 61.0562 54.3983 60.9211C54.667 60.786 55.0699 61.0562 55.3385 61.4614L62.4572 73.0783C62.7258 73.4836 62.7258 74.0239 62.4572 74.2941C62.3229 74.4291 62.0543 74.5642 61.6513 74.4291L59.9052 73.6187L61.3827 78.3465C61.517 78.7517 61.517 79.1569 61.2484 79.292C60.9798 79.292 60.8454 79.4271 60.5768 79.4271ZM56.5474 72.538C56.6817 72.538 56.6817 72.538 56.816 72.538C57.0846 72.6731 57.3532 72.9432 57.4876 73.3485L58.965 78.0763C59.0993 78.4815 59.368 78.6166 59.5023 78.6166H60.7111C60.7111 78.6166 60.7111 78.4815 60.7111 78.3465L59.2337 73.4836C59.0993 73.0783 59.2336 72.8082 59.3679 72.6731C59.5023 72.538 59.7709 72.538 60.0395 72.6731L61.7856 73.4836V73.3485L54.8013 61.8667V72.8082C54.8013 72.9433 54.9356 73.2134 55.0699 73.2134L56.5474 72.538C56.4131 72.538 56.4131 72.538 56.5474 72.538Z" fill="#16110D"/>
<path d="M21.0877 42.9555C20.9534 42.8204 20.8191 42.6853 20.8191 42.5503V36.7418C20.8191 36.6067 20.9534 36.4717 21.0877 36.6067L22.2966 37.2821C24.3113 38.4979 25.1172 39.8487 25.1172 42.145C25.1172 44.4414 24.3113 44.8466 22.2966 43.766L21.0877 42.9555ZM22.2966 42.9555C23.9084 43.9011 24.5799 43.4958 24.5799 41.6047C24.5799 39.7136 23.9084 38.6329 22.2966 37.6874L21.3564 37.2821V42.4152L22.2966 42.9555Z" fill="black"/>
<path d="M26.1917 45.9272C26.0574 45.7922 25.9231 45.6571 25.9231 45.522V39.7136C25.9231 39.5785 26.0574 39.4434 26.1917 39.5785L28.8781 41.1994C29.0124 41.3345 29.1467 41.4696 29.1467 41.6047C29.1467 41.7398 29.0124 41.8748 28.8781 41.7398L26.4604 40.389V42.145L28.7438 43.4958C28.8781 43.6309 29.0124 43.766 29.0124 43.901C29.0124 44.0361 28.8781 44.1712 28.7438 44.0361L26.4604 42.6853V45.3869L28.8781 46.7377C29.0124 46.8728 29.1467 47.0079 29.1467 47.143C29.1467 47.278 29.0124 47.4131 28.8781 47.278L26.1917 45.9272Z" fill="black"/>
<path d="M30.6243 48.4938C30.49 48.3587 30.3557 48.2236 30.3557 48.0885V42.2801C30.3557 42.145 30.49 42.0099 30.6243 42.145H30.7586C30.893 42.2801 31.0273 42.4152 31.0273 42.5502V48.0885L33.3106 49.4393C33.4449 49.5744 33.5793 49.7095 33.5793 49.8446C33.5793 49.9796 33.4449 50.1147 33.3106 49.9796L30.6243 48.4938Z" fill="black"/>
<path d="M34.5193 50.7902C34.385 50.6551 34.2507 50.52 34.2507 50.3849V44.5765C34.2507 44.4414 34.385 44.3063 34.5193 44.4414H34.6536C34.7879 44.5765 34.9223 44.7115 34.9223 44.8466V50.6551C34.9223 50.7902 34.7879 50.9252 34.5193 50.7902Z" fill="black"/>
<path d="M38.0114 52.8163C37.8771 52.6812 37.7428 52.5462 37.7428 52.4111L35.5937 45.2519C35.4594 44.9817 35.5937 44.9817 35.728 44.9817H35.8623C35.9966 45.1168 36.131 45.2518 36.131 45.3869L38.1457 51.8708L40.0262 47.6833C40.0262 47.5482 40.1605 47.5482 40.2948 47.6833H40.4291C40.5634 47.8184 40.6977 47.9534 40.5634 48.0885L38.4144 52.6812C38.4144 52.8163 38.28 52.8163 38.1457 52.6812L38.0114 52.8163Z" fill="black"/>
<path d="M41.638 54.8426C41.5037 54.7075 41.3694 54.5724 41.3694 54.4373V48.6289C41.3694 48.4938 41.5037 48.3587 41.638 48.4938L44.3244 50.1148C44.4587 50.2499 44.593 50.3849 44.593 50.52C44.593 50.6551 44.4587 50.7902 44.3244 50.6551L41.9066 49.3043V51.0603L44.19 52.4111C44.3244 52.5462 44.4587 52.6813 44.4587 52.8164C44.4587 52.9515 44.3244 53.0865 44.19 52.9515L41.9066 51.6007V54.3022L44.3244 55.653C44.4587 55.7881 44.593 55.9232 44.593 56.0583C44.593 56.1934 44.4587 56.3284 44.3244 56.1934L41.638 54.8426Z" fill="black"/>
<path d="M45.8019 57.274C45.6675 57.1389 45.5332 57.0038 45.5332 56.8687V51.0603C45.5332 50.9252 45.6675 50.7901 45.8019 50.9252L47.4136 51.8708C48.4882 52.5462 49.1598 53.7619 49.1598 54.8425C49.1598 55.7881 48.6225 56.3284 47.9509 56.0583L49.4284 59.03C49.5627 59.3002 49.4284 59.4353 49.2941 59.3002L49.1598 59.1651C49.0255 59.03 48.8911 59.03 48.8911 58.7598L47.4136 55.653L46.3391 55.1127V57.274C46.2048 57.4091 46.0705 57.4091 45.8019 57.274ZM47.4136 55.1127C48.0852 55.5179 48.6225 55.2478 48.6225 54.4373C48.6225 53.6268 48.2195 52.8163 47.4136 52.4111L46.2048 51.7357V54.4373L47.4136 55.1127Z" fill="black"/>
</svg>
