<svg width="23" height="23" viewBox="0 0 23 23" fill="none" xmlns="http://www.w3.org/2000/svg">
<g clip-path="url(#clip0)">
<path d="M19.9015 0H3.10027C1.38861 0 0.000976562 1.38758 0.000976562 3.0993V19.9006C0.000976562 21.6123 1.38856 22.9999 3.10027 22.9999H11.3865L11.4007 14.781H9.26539C8.98789 14.781 8.76267 14.5566 8.7616 14.2791L8.75136 11.6298C8.75029 11.3508 8.97619 11.124 9.2552 11.124H11.3866V8.56415C11.3866 5.59342 13.2009 3.97583 15.851 3.97583H18.0256C18.3038 3.97583 18.5295 4.20139 18.5295 4.47967V6.71358C18.5295 6.99174 18.304 7.21725 18.0259 7.21742L16.6914 7.21804C15.2502 7.21804 14.9711 7.90288 14.9711 8.90792V11.1241H18.1379C18.4397 11.1241 18.6738 11.3876 18.6382 11.6872L18.3242 14.3365C18.2942 14.5901 18.0792 14.7811 17.8239 14.7811H14.9852L14.9711 23H19.9016C21.6132 23 23.0008 21.6124 23.0008 19.9008V3.0993C23.0007 1.38758 21.6132 0 19.9015 0Z" fill="#475993"/>
</g>
<defs>
<clipPath id="clip0">
<rect width="23" height="23" fill="white"/>
</clipPath>
</defs>
</svg>
