<svg width="23" height="23" viewBox="0 0 23 23" fill="none" xmlns="http://www.w3.org/2000/svg">
<g clip-path="url(#clip0)">
<path d="M5.09729 13.8991L4.29669 16.8879L1.37052 16.9498C0.496027 15.3278 0 13.472 0 11.4999C0 9.59295 0.463773 7.79463 1.28584 6.21118H1.28647L3.89158 6.68879L5.03278 9.27827C4.79393 9.9746 4.66374 10.7221 4.66374 11.4999C4.66383 12.3441 4.81675 13.1529 5.09729 13.8991Z" fill="#FBBB00"/>
<path d="M22.7992 9.35168C22.9312 10.0473 23.0001 10.7658 23.0001 11.5C23.0001 12.3234 22.9135 13.1265 22.7486 13.9011C22.1888 16.5373 20.726 18.8392 18.6996 20.4681L18.699 20.4675L15.4177 20.3001L14.9533 17.4011C16.2979 16.6125 17.3488 15.3784 17.9023 13.9011H11.7529V9.35168H17.992H22.7992Z" fill="#518EF8"/>
<path d="M18.6989 20.4675L18.6996 20.4682C16.7288 22.0523 14.2253 23.0001 11.5001 23.0001C7.12061 23.0001 3.31298 20.5522 1.37061 16.9499L5.09737 13.8993C6.06853 16.4912 8.56884 18.3363 11.5001 18.3363C12.76 18.3363 13.9404 17.9957 14.9532 17.4011L18.6989 20.4675Z" fill="#28B446"/>
<path d="M18.8407 2.64752L15.1152 5.69753C14.0669 5.0423 12.8278 4.66379 11.5003 4.66379C8.5027 4.66379 5.95563 6.5935 5.03311 9.27834L1.28676 6.21126H1.28613C3.20007 2.52115 7.05572 0 11.5003 0C14.2906 0 16.849 0.993941 18.8407 2.64752Z" fill="#F14336"/>
</g>
<defs>
<clipPath id="clip0">
<rect width="23" height="23" fill="white"/>
</clipPath>
</defs>
</svg>
