<svg width="13" height="12" viewBox="0 0 13 12" fill="none" xmlns="http://www.w3.org/2000/svg">
<g clip-path="url(#clip0)">
<path d="M6.50299 7.15592L1.63951 2.66675C1.50592 2.54314 1.3273 2.47514 1.13685 2.47514C0.946285 2.47514 0.767772 2.54314 0.633968 2.66675L0.208033 3.06012C0.0740162 3.18353 0.000243871 3.34851 0.000243878 3.52431C0.000243886 3.70012 0.0740163 3.8649 0.208033 3.98841L5.99842 9.33348C6.13265 9.45748 6.31201 9.52539 6.50268 9.5249C6.69419 9.52539 6.87334 9.45758 7.00767 9.33348L12.7925 3.99339C12.9265 3.86988 13.0002 3.7051 13.0002 3.52919C13.0002 3.35339 12.9265 3.18861 12.7925 3.065L12.3665 2.67173C12.0893 2.41583 11.638 2.41583 11.3609 2.67173L6.50299 7.15592Z" fill="white"/>
</g>
<defs>
<clipPath id="clip0">
<rect width="12" height="13" fill="white" transform="translate(0.000244141 12) rotate(-90)"/>
</clipPath>
</defs>
</svg>
