<svg width="188" height="300" viewBox="0 0 188 300" fill="none" xmlns="http://www.w3.org/2000/svg">
<path fill-rule="evenodd" clip-rule="evenodd" d="M107.309 54.6803C107.309 54.6803 102.513 62.434 120.176 65.0991C126.367 68.7337 122.604 68.7337 122.604 68.7337H105.002L102.513 62.1916L103.242 56.8003L105.973 54.2562L107.309 54.6803Z" fill="#FF6329"/>
<path fill-rule="evenodd" clip-rule="evenodd" d="M77.5069 223.747C89.3428 219.143 90.921 211.995 95.2304 204.968C99.0542 218.658 78.8424 231.137 65.0644 238.83C35.384 255.488 37.0834 262.394 31.7424 269.481C30.3461 256.639 40.6645 243.797 48.9193 236.044C54.139 231.197 60.1481 227.745 66.7639 224.11C75.0186 219.567 76.293 215.266 82.484 210.238C84.2442 215.145 79.8741 219.688 77.5069 223.747Z" fill="#FF6329"/>
<path fill-rule="evenodd" clip-rule="evenodd" d="M27.9183 254.459C24.0944 260.516 21.1203 274.63 22.2735 284.262C32.5919 279.84 36.2942 271.117 39.3292 268.33C39.3292 277.659 31.9241 288.138 25.1869 291.833C16.3255 296.316 13.4726 297.164 7.5244 298.981C4.24682 300.011 2.91152 298.739 0.969238 297.952C12.198 291.046 16.0824 290.743 19.1781 280.143C20.9991 273.782 21.8488 258.214 27.9183 254.459Z" fill="#FF754A"/>
<path fill-rule="evenodd" clip-rule="evenodd" d="M78.4171 232.833C76.475 235.983 73.1973 240.526 74.5933 244.524C91.0419 239.436 92.6809 226.533 95.7763 217.083C100.086 226.957 95.5335 237.861 91.3454 243.191C85.2759 250.824 72.4084 251.611 63.5467 257.305C61.301 249.976 70.5267 236.346 78.4171 232.833Z" fill="#FF754A"/>
<path fill-rule="evenodd" clip-rule="evenodd" d="M127.946 179.89C125.457 184.554 111.376 200.97 111.254 215.387C123.393 208.421 114.35 204.181 117.202 201.757C123.272 208.784 120.359 213.63 116.413 219.082C104.942 234.953 110.708 230.289 106.217 234.892C94.0772 225.2 101.968 213.146 107.734 204.423C111.376 198.971 120.723 184.191 127.946 179.89Z" fill="#FF754A"/>
<path fill-rule="evenodd" clip-rule="evenodd" d="M141.42 160.203C134.379 173.105 127.946 176.376 120.905 181.828C87.5221 207.512 56.9315 208.057 37.9333 220.96C35.8092 222.414 33.5028 223.928 32.2281 226.048C38.783 222.838 52.5006 213.509 60.573 214.357C56.3245 218.719 18.5108 230.713 12.6839 270.571L11.6521 274.811C7.76749 269.299 5.82524 255.367 5.8859 249.067C6.0073 241.071 8.13168 234.044 11.8341 228.653C19.846 217.022 33.624 207.452 50.8616 201.818C91.1032 188.673 110.526 194.428 141.42 160.203Z" fill="#BA1802"/>
<path fill-rule="evenodd" clip-rule="evenodd" d="M104.517 73.0956C104.517 73.0956 97.6581 69.7035 98.5686 65.7056C98.5686 65.7056 99.1148 64.4335 99.9041 64.3728C100.693 64.3123 100.147 59.1028 100.147 59.1028C100.147 59.1028 97.9008 52.8028 107.977 53.3482L104.456 55.044L102.696 64.0094L104.517 73.0956Z" fill="url(#paint0_linear)"/>
<path fill-rule="evenodd" clip-rule="evenodd" d="M50.9825 42.9287C50.9825 42.9287 31.56 96.2352 74.2292 132.278C116.899 168.32 72.5298 108.956 72.5298 108.956L53.9566 57.8303L50.9825 42.9287Z" fill="#BA1802"/>
<path fill-rule="evenodd" clip-rule="evenodd" d="M86.9151 0.0411987C86.9151 0.0411987 59.3591 9.61213 54.0785 51.0458C54.0785 51.0458 51.4686 40.7479 50.9832 42.9287C50.4974 45.1095 49.9512 54.9228 49.9512 54.9228L53.1073 66.4924L61.969 49.4103L73.1371 20.6371L86.9151 0.0411987Z" fill="#BA1802"/>
<path fill-rule="evenodd" clip-rule="evenodd" d="M149.189 105.685C149.189 105.685 155.38 117.74 152.346 126.341L152.042 129.431L154.409 131.733L156.412 120.405L152.771 106.594L149.189 105.685Z" fill="#BA1802"/>
<path fill-rule="evenodd" clip-rule="evenodd" d="M149.189 105.685C149.189 105.685 172.496 73.7616 145.729 51.0458L161.692 62.2524L167.155 80.3644L161.51 97.8099L149.189 105.685Z" fill="#BA1802"/>
<path fill-rule="evenodd" clip-rule="evenodd" d="M123.029 168.26C123.029 168.26 102.574 174.257 69.0093 131.733L89.3422 138.154L126.67 163.959L123.029 168.26Z" fill="#BA1802"/>
<path fill-rule="evenodd" clip-rule="evenodd" d="M97.9004 90.1777C97.9004 90.1777 83.0908 78.1232 76.232 57.2853C76.232 57.2853 71.2549 43.1107 77.2032 20.6975C77.8102 14.5795 73.0758 20.6975 73.0758 20.6975L68.9485 72.0657L96.2618 103.989L98.5074 100.597L97.9004 90.1777Z" fill="#FF754A"/>
<path fill-rule="evenodd" clip-rule="evenodd" d="M141.238 154.933C141.238 154.933 165.212 150.693 175.349 139.426C175.349 139.426 183.179 131.066 184.211 123.07C184.211 123.07 184.575 119.678 184.211 118.951C184.211 118.951 180.387 123.737 172.86 127.19C172.86 127.19 182.511 120.648 185.607 105.867L171.707 122.768L165.516 134.519L141.238 154.933Z" fill="#FF754A"/>
<path fill-rule="evenodd" clip-rule="evenodd" d="M178.202 66.4928C178.202 66.4928 189.006 83.2115 181.055 98.7189C181.055 98.7189 183.846 96.4172 187.124 95.2056L184.09 100.536L178.202 106.654L176.563 101.99L178.202 66.4928Z" fill="#FF693B"/>
<path fill-rule="evenodd" clip-rule="evenodd" d="M140.327 46.1391C140.327 46.1391 151.131 44.0188 165.091 53.3475C165.091 53.3475 174.56 61.1012 174.742 71.8232C174.742 71.8232 175.045 67.522 178.201 66.4924C178.201 66.4924 177.352 67.7041 177.048 70.127L177.473 73.2162L175.652 78.6074L170.918 72.0653L167.458 64.4328L161.267 56.6791L154.409 51.5304L144.758 47.4717L140.327 46.1391Z" fill="#FF754A"/>
<path fill-rule="evenodd" clip-rule="evenodd" d="M103.667 129.249C100.814 128.522 100.936 128.583 98.3867 126.826L90.132 120.768C88.0076 119.436 87.7041 118.769 85.8831 117.558L69.9202 106.715C56.3849 97.8102 60.3908 96.6594 56.3849 93.7518C55.4745 95.8114 57.3562 96.841 53.775 93.4489C52.8646 92.5402 52.0756 91.571 51.5291 90.5414C52.3791 95.6297 58.8129 108.229 61.4228 112.894C66.0356 121.071 73.1371 130.097 74.2903 132.278L67.0673 128.522C71.5589 137.063 83.8194 146.937 91.0425 151.541C99.6611 157.053 111.618 162.687 124 164.443L124.425 166.624C124.546 166.442 124.607 165.897 124.668 166.018L125.275 163.474C125.457 162.445 125.578 161.233 125.76 160.264C126.185 157.477 126.367 156.084 126.246 153.298C125.7 140.395 121.026 131.793 115.685 122.888C109.191 112.046 106.581 109.198 103.424 95.6902C101.907 79.8802 115.624 73.2169 121.512 74.6098L125.639 74.186C121.512 76.5485 119.569 76.7302 117.081 80.3648C107.309 96.4172 132.801 110.895 142.027 128.159C148.218 139.789 145.304 142.878 143.302 152.752C158.233 139.486 144.941 119.375 134.561 107.684C130.556 103.141 112.347 84.5444 130.738 77.5177C136.807 75.2157 142.027 77.6994 143.241 77.5177C145.426 79.5773 146.215 78.8502 147.854 80.1827C147.732 74.9735 144.091 71.9448 139.842 70.2486C131.709 67.0986 134.137 65.0994 127.156 65.0994C122.483 65.0994 98.9329 66.7957 106.095 56.2557C107.552 54.0749 107.673 55.6499 108.219 53.4086C99.4184 53.8932 101.725 58.0728 101.664 63.7669C101.664 67.7044 100.025 63.7669 101.239 68.2494C101.786 70.2486 103.667 71.8235 104.76 73.2169C102.878 76.7906 100.086 78.6081 98.4471 83.6964C96.7477 89.0269 97.1728 89.7539 96.7477 93.7518C95.1698 107.321 99.4184 114.529 103.667 129.249Z" fill="url(#paint1_linear)"/>
<path fill-rule="evenodd" clip-rule="evenodd" d="M55.5347 97.9311C60.0263 101.202 55.4743 102.474 70.5874 112.409L88.3713 124.463C90.435 125.796 90.7385 126.523 93.1056 128.037L102.332 134.761C105.184 136.76 105.002 136.699 108.219 137.487C104.213 123.676 101.421 119.617 100.086 103.625C98.5685 103.383 99.0539 103.807 98.872 102.171C97.1118 100.172 94.8658 98.4157 92.6809 96.1744C79.3884 82.0603 71.4979 61.5253 72.7119 42.1409C74.1686 19.3042 83.5157 9.36965 86.7934 0.101593C79.1457 3.06979 64.4572 22.5146 62.1508 30.3288C56.0813 39.8996 55.5347 53.0446 53.896 57.8908C53.2283 59.8896 53.5318 58.9204 53.0463 59.8291L50.9219 43.0496C48.919 52.8025 46.7338 58.0725 47.5838 70.0662C48.3728 79.4554 50.8007 91.4495 55.5347 97.9311Z" fill="url(#paint2_linear)"/>
<path fill-rule="evenodd" clip-rule="evenodd" d="M101.603 95.8722C104.82 109.683 107.491 112.591 114.107 123.616C119.509 132.641 124.364 141.485 124.85 154.63C124.971 157.417 124.789 158.871 124.364 161.718C124.182 162.687 124.061 163.898 123.879 164.989L123.272 167.594C123.211 167.472 123.15 168.017 123.029 168.26L121.329 173.833C137.535 162.263 145.912 141.546 131.648 124.888C126.974 119.375 121.633 115.741 116.777 110.955C106.216 100.476 101.239 79.0322 120.176 74.3677C112.407 73.0352 100.025 79.7589 101.603 95.8722Z" fill="url(#paint3_linear)"/>
<path fill-rule="evenodd" clip-rule="evenodd" d="M160.418 146.089C167.398 141.848 177.473 132.581 179.173 125.251L171.1 128.704C174.681 122.949 187.245 113.196 187.184 95.2056C184.392 97.4468 182.086 100.657 179.294 103.383C178.201 102.838 177.959 103.928 179.355 100.173C180.022 98.4765 180.326 98.1131 180.872 96.1748C183.543 87.0882 183.36 74.004 178.262 66.432C177.048 68.1886 177.352 68.8552 176.927 71.9444C176.623 74.3674 176.38 75.3365 175.349 77.0932C172.01 72.1869 173.467 65.8869 162.299 56.1341C158.536 52.8632 148.217 46.3816 140.327 46.0787C143.483 50.2583 148.278 51.3487 156.108 62.0099C166.973 76.8511 162.724 94.3573 149.189 105.624C150.706 110.349 156.108 116.407 154.469 126.099C153.923 129.37 153.862 131.551 152.588 128.219C151.01 112.893 144.454 107.502 137.11 99.2035C128.248 89.1477 121.39 79.274 142.269 77.0932C141.056 77.3357 135.835 74.7915 129.766 77.0932C111.436 84.1202 129.584 102.717 133.59 107.26C143.969 118.951 157.261 139.062 142.33 152.328L141.177 154.812C148.035 153.237 155.38 149.36 160.418 146.089Z" fill="url(#paint4_linear)"/>
<path fill-rule="evenodd" clip-rule="evenodd" d="M141.42 160.203C140.752 166.442 129.16 177.043 122.058 182.495C88.6754 208.179 58.2667 213.327 39.2081 226.23C37.0837 227.684 34.7773 229.198 33.5025 231.318C40.0578 228.108 53.7751 218.779 61.8479 219.627C57.599 223.989 19.7853 235.983 13.9585 275.841L12.9267 280.081C9.04211 274.569 7.09986 260.637 7.16056 254.337C7.28192 246.341 9.4063 239.314 13.1088 233.923C21.1208 222.292 34.8985 212.722 52.1364 207.088C92.4992 193.943 110.526 194.428 141.42 160.203Z" fill="url(#paint5_linear)"/>
<path fill-rule="evenodd" clip-rule="evenodd" d="M76.1107 222.292C87.9466 217.689 90.9207 211.995 95.1693 205.029C95.9582 218.355 77.3854 229.683 63.6682 237.436C33.9877 254.095 37.0227 262.515 31.7421 269.541C30.3458 256.699 39.3291 242.404 47.5838 234.65C52.8036 229.804 58.8123 226.351 65.4284 222.717C73.6828 218.173 76.3534 215.327 82.5445 210.359C82.241 215.145 78.4779 218.234 76.1107 222.292Z" fill="url(#paint6_linear)"/>
<path fill-rule="evenodd" clip-rule="evenodd" d="M127.945 179.89C125.457 184.554 107.127 202.06 106.945 216.417C116.474 210.541 114.289 204.181 117.142 201.757C120.784 210.42 117.688 213.63 113.803 219.082C102.332 234.953 110.647 230.289 106.156 234.892C94.0164 225.2 99.297 213.146 105.124 204.423C108.826 198.971 120.723 184.191 127.945 179.89Z" fill="url(#paint7_linear)"/>
<path fill-rule="evenodd" clip-rule="evenodd" d="M30.5281 251.551C26.7042 257.608 23.73 271.722 24.8832 281.354C35.2016 276.932 36.2941 271.116 39.3287 268.33C38.3578 274.63 33.6842 281.051 27.4324 286.321C23.0015 290.077 16.0823 294.196 10.134 296.013C6.85644 297.043 5.52114 297.103 3.57886 296.316C14.8076 289.411 15.0504 284.867 18.0852 274.266C19.9062 267.967 24.4582 255.306 30.5281 251.551Z" fill="url(#paint8_linear)"/>
<path fill-rule="evenodd" clip-rule="evenodd" d="M79.1461 231.682C77.204 234.832 74.4118 238.527 74.2906 242.585C90.7393 237.497 92.3779 224.594 95.4736 215.145C98.6905 225.321 94.4416 235.377 90.2535 240.708C84.184 248.34 72.1662 249.733 63.244 255.427C62.3336 248.219 71.2557 235.195 79.1461 231.682Z" fill="url(#paint9_linear)"/>
<defs>
<linearGradient id="paint0_linear" x1="101.723" y1="54.0883" x2="106.368" y2="72.6372" gradientUnits="userSpaceOnUse">
<stop stop-color="#EA580C"/>
<stop offset="1" stop-color="#E53012"/>
</linearGradient>
<linearGradient id="paint1_linear" x1="99.0324" y1="82.8117" x2="119.751" y2="165.544" gradientUnits="userSpaceOnUse">
<stop stop-color="#EA580C"/>
<stop offset="1" stop-color="#E53012"/>
</linearGradient>
<linearGradient id="paint2_linear" x1="122.365" y1="89.2333" x2="95.4084" y2="68.8398" gradientUnits="userSpaceOnUse">
<stop stop-color="#EA580C"/>
<stop offset="1" stop-color="#E53012"/>
</linearGradient>
<linearGradient id="paint3_linear" x1="126.692" y1="101.615" x2="118.077" y2="124.762" gradientUnits="userSpaceOnUse">
<stop stop-color="#FF6529"/>
<stop offset="0.9834" stop-color="#DB2507"/>
</linearGradient>
<linearGradient id="paint4_linear" x1="136.093" y1="103.587" x2="159.005" y2="91.9559" gradientUnits="userSpaceOnUse">
<stop stop-color="#FF6529"/>
<stop offset="1" stop-color="#E53012"/>
</linearGradient>
<linearGradient id="paint5_linear" x1="28.81" y1="241.856" x2="99.4396" y2="210.042" gradientUnits="userSpaceOnUse">
<stop stop-color="#E53012"/>
<stop offset="1" stop-color="#EA580C"/>
</linearGradient>
<linearGradient id="paint6_linear" x1="68.4374" y1="222.317" x2="59.8104" y2="243.592" gradientUnits="userSpaceOnUse">
<stop stop-color="#E53012"/>
<stop offset="1" stop-color="#FF6329"/>
</linearGradient>
<linearGradient id="paint7_linear" x1="108.652" y1="230.297" x2="114.319" y2="193.899" gradientUnits="userSpaceOnUse">
<stop stop-color="#E53012"/>
<stop offset="1" stop-color="#EA580C"/>
</linearGradient>
<linearGradient id="paint8_linear" x1="9.87862" y1="291.725" x2="30.8324" y2="266.785" gradientUnits="userSpaceOnUse">
<stop stop-color="#E53012"/>
<stop offset="1" stop-color="#EA580C"/>
</linearGradient>
<linearGradient id="paint9_linear" x1="98.8169" y1="228.946" x2="58.876" y2="241.957" gradientUnits="userSpaceOnUse">
<stop stop-color="#E53012"/>
<stop offset="1" stop-color="#EA580C"/>
</linearGradient>
</defs>
</svg>
