<svg width="239" height="158" viewBox="0 0 239 158" fill="none" xmlns="http://www.w3.org/2000/svg">
<path fill-rule="evenodd" clip-rule="evenodd" d="M56.1353 29.22C56.1353 29.22 53.6174 33.2956 62.8919 34.6965C66.1427 36.6069 64.1668 36.6069 64.1668 36.6069H54.9242L53.6174 33.1682L54 30.3344L55.4342 28.9971L56.1353 29.22Z" fill="#FF6329"/>
<path fill-rule="evenodd" clip-rule="evenodd" d="M40.487 118.087C46.7018 115.667 47.5305 111.91 49.7933 108.217C51.8012 115.413 41.1882 121.972 33.9535 126.016C18.3687 134.772 19.261 138.402 16.4566 142.127C15.7234 135.377 21.1415 128.627 25.4759 124.551C28.2168 122.004 31.3721 120.189 34.8459 118.278C39.1803 115.89 39.8495 113.63 43.1003 110.987C44.0246 113.566 41.7299 115.954 40.487 118.087Z" fill="#FF6329"/>
<path fill-rule="evenodd" clip-rule="evenodd" d="M14.4485 134.23C12.4406 137.414 10.8789 144.833 11.4844 149.896C16.9025 147.572 18.8466 142.987 20.4402 141.522C20.4402 146.425 16.5519 151.934 13.0142 153.876C8.36124 156.232 6.86322 156.678 3.73989 157.633C2.01887 158.175 1.31772 157.506 0.297852 157.092C6.19394 153.462 8.23361 153.303 9.85912 147.731C10.8153 144.388 11.2615 136.205 14.4485 134.23Z" fill="#FF754A"/>
<path fill-rule="evenodd" clip-rule="evenodd" d="M40.9649 122.863C39.9451 124.519 38.224 126.907 38.957 129.009C47.594 126.334 48.4546 119.552 50.0799 114.585C52.3427 119.775 49.9525 125.506 47.7533 128.308C44.5663 132.32 37.8097 132.734 33.1566 135.727C31.9774 131.874 36.8217 124.71 40.9649 122.863Z" fill="#FF754A"/>
<path fill-rule="evenodd" clip-rule="evenodd" d="M66.9716 95.0347C65.6648 97.4865 58.2708 106.115 58.2072 113.693C64.5812 110.032 59.8325 107.803 61.3304 106.529C64.5176 110.223 62.9878 112.77 60.9161 115.636C54.8925 123.978 57.9204 121.526 55.5619 123.946C49.1877 118.852 53.3308 112.515 56.3587 107.93C58.2708 105.065 63.1789 97.2955 66.9716 95.0347Z" fill="#FF754A"/>
<path fill-rule="evenodd" clip-rule="evenodd" d="M74.047 84.6865C70.35 91.4687 66.9717 93.188 63.2747 96.0537C45.7458 109.554 29.683 109.841 19.7073 116.623C18.592 117.387 17.3809 118.183 16.7116 119.297C20.1535 117.61 27.3564 112.706 31.5952 113.152C29.3643 115.445 9.50881 121.749 6.44917 142.7L5.90736 144.929C3.86763 142.032 2.84778 134.708 2.87963 131.397C2.94337 127.194 4.05886 123.5 6.00296 120.667C10.2099 114.553 17.4446 109.522 26.4958 106.561C47.6262 99.6517 57.8249 102.677 74.047 84.6865Z" fill="#BA1802"/>
<path fill-rule="evenodd" clip-rule="evenodd" d="M54.6695 38.9C54.6695 38.9 51.0681 37.117 51.5462 35.0155C51.5462 35.0155 51.833 34.3469 52.2474 34.3149C52.6617 34.2832 52.3749 31.5448 52.3749 31.5448C52.3749 31.5448 51.1955 28.2334 56.4861 28.52L54.6376 29.4114L53.7134 34.1239L54.6695 38.9Z" fill="url(#paint0_linear)"/>
<path fill-rule="evenodd" clip-rule="evenodd" d="M26.5592 23.043C26.5592 23.043 16.3607 51.0627 38.7657 70.0078C61.171 88.953 37.8734 57.7492 37.8734 57.7492L28.1209 30.8758L26.5592 23.043Z" fill="#BA1802"/>
<path fill-rule="evenodd" clip-rule="evenodd" d="M45.4269 0.5C45.4269 0.5 30.9576 5.53081 28.1848 27.3098C28.1848 27.3098 26.8144 21.8968 26.5595 23.0431C26.3044 24.1895 26.0176 29.3477 26.0176 29.3477L27.6748 35.429L32.328 26.4501L38.1922 11.3259L45.4269 0.5Z" fill="#BA1802"/>
<path fill-rule="evenodd" clip-rule="evenodd" d="M78.1265 56.0303C78.1265 56.0303 81.3773 62.3666 79.7837 66.8879L79.6243 68.5117L80.8673 69.7217L81.919 63.7674L80.0069 56.5078L78.1265 56.0303Z" fill="#BA1802"/>
<path fill-rule="evenodd" clip-rule="evenodd" d="M78.1262 56.0297C78.1262 56.0297 90.3646 39.2498 76.3096 27.3096L84.6917 33.2002L87.56 42.7205L84.5959 51.8904L78.1262 56.0297Z" fill="#BA1802"/>
<path fill-rule="evenodd" clip-rule="evenodd" d="M64.3897 88.9215C64.3897 88.9215 53.6493 92.0738 36.0249 69.7217L46.7015 73.0969L66.3021 86.6609L64.3897 88.9215Z" fill="#BA1802"/>
<path fill-rule="evenodd" clip-rule="evenodd" d="M51.1952 47.8787C51.1952 47.8787 43.4188 41.5424 39.8174 30.5893C39.8174 30.5893 37.204 23.1386 40.3274 11.3575C40.6461 8.14165 38.1601 11.3575 38.1601 11.3575L35.9929 38.3584L50.3348 55.1383L51.514 53.3553L51.1952 47.8787Z" fill="#FF754A"/>
<path fill-rule="evenodd" clip-rule="evenodd" d="M73.9509 81.9163C73.9509 81.9163 86.5398 79.6876 91.8624 73.7653C91.8624 73.7653 95.9736 69.3712 96.5155 65.1683C96.5155 65.1683 96.7066 63.3851 96.5155 63.0031C96.5155 63.0031 94.5077 65.5185 90.5556 67.3335C90.5556 67.3335 95.623 63.8947 97.2485 56.1255L89.95 65.0091L86.6992 71.1862L73.9509 81.9163Z" fill="#FF754A"/>
<path fill-rule="evenodd" clip-rule="evenodd" d="M93.3606 35.4292C93.3606 35.4292 99.0336 44.2171 94.8585 52.3684C94.8585 52.3684 96.3245 51.1585 98.0455 50.5217L96.4521 53.3235L93.3606 56.5395L92.5 54.0879L93.3606 35.4292Z" fill="#FF693B"/>
<path fill-rule="evenodd" clip-rule="evenodd" d="M73.4731 24.7304C73.4731 24.7304 79.1461 23.6159 86.4763 28.5194C86.4763 28.5194 91.4482 32.595 91.5437 38.2309C91.5437 38.2309 91.7031 35.97 93.3603 35.4288C93.3603 35.4288 92.9142 36.0657 92.7548 37.3393L92.978 38.963L92.0218 41.7969L89.5359 38.3581L87.7193 34.3462L84.4685 30.2706L80.867 27.5642L75.7995 25.4309L73.4731 24.7304Z" fill="#FF754A"/>
<path fill-rule="evenodd" clip-rule="evenodd" d="M54.2233 68.4162C52.7253 68.034 52.7891 68.0658 51.4506 67.1424L47.1161 63.9584C46.0006 63.258 45.8412 62.9076 44.8851 62.2709L36.5032 56.5715C29.396 51.8908 31.4994 51.2858 29.396 49.7575C28.9179 50.8401 29.9059 51.3813 28.0255 49.5983C27.5474 49.1207 27.1332 48.6112 26.8462 48.07C27.2925 50.7446 30.6708 57.3674 32.0413 59.8192C34.4634 64.1176 38.1923 68.8619 38.7978 70.0082L35.0051 68.034C37.3636 72.5236 43.8015 77.7136 47.5942 80.1334C52.1197 83.031 58.3982 85.9921 64.8999 86.9154L65.1231 88.0617C65.1867 87.9662 65.2186 87.6796 65.2505 87.7433L65.5693 86.406C65.6648 85.8648 65.7286 85.2279 65.8242 84.7185C66.0474 83.2537 66.1429 82.5215 66.0791 81.0568C65.7923 74.2748 63.3382 69.7535 60.5337 65.0728C57.1235 59.3734 55.7531 57.8768 54.0957 50.7764C53.2991 42.4661 60.5018 38.9637 63.5933 39.6959L65.7605 39.4731C63.5933 40.7149 62.5733 40.8104 61.2667 42.7208C56.1355 51.1586 69.5212 58.7684 74.3656 67.843C77.6163 73.9564 76.0865 75.5802 75.0348 80.7703C82.875 73.7972 75.8954 63.226 70.4454 57.0809C68.342 54.6928 58.7808 44.9178 68.4376 41.2243C71.6246 40.0143 74.3656 41.3198 75.0029 41.2243C76.1503 42.3069 76.5646 41.9247 77.4252 42.6252C77.3614 39.887 75.4492 38.295 73.2182 37.4034C68.9476 35.7477 70.2224 34.6969 66.5572 34.6969C64.1031 34.6969 51.7374 35.5885 55.498 30.0483C56.2629 28.902 56.3267 29.7298 56.6136 28.5518C51.9923 28.8065 53.2034 31.0034 53.1714 33.9964C53.1714 36.0661 52.311 33.9964 52.9484 36.3526C53.2353 37.4034 54.2233 38.2313 54.797 38.9637C53.8089 40.8422 52.3429 41.7975 51.4823 44.4721C50.59 47.2739 50.8131 47.6561 50.59 49.7575C49.7614 56.8897 51.9923 60.6789 54.2233 68.4162Z" fill="url(#paint1_linear)"/>
<path fill-rule="evenodd" clip-rule="evenodd" d="M28.9495 51.9543C31.3079 53.6736 28.9177 54.3424 36.8535 59.5641L46.1915 65.9004C47.2751 66.6009 47.4345 66.983 48.6775 67.7791L53.5219 71.3133C55.0198 72.3642 54.9242 72.3322 56.6134 72.7461C54.5098 65.4865 53.0438 63.3533 52.3426 54.9473C51.546 54.8199 51.8009 55.0428 51.7053 54.1832C50.7811 53.1324 49.6017 52.209 48.4545 51.0309C41.4747 43.6121 37.3315 32.8182 37.969 22.629C38.7339 10.6253 43.6419 5.40335 45.363 0.531738C41.3473 2.09193 33.6345 12.3128 32.4235 16.4202C29.2364 21.451 28.9495 28.3604 28.089 30.9077C27.7384 31.9584 27.8977 31.4489 27.6428 31.9266L26.5273 23.1067C25.4756 28.2331 24.3282 31.0032 24.7745 37.3075C25.1888 42.2428 26.4637 48.5473 28.9495 51.9543Z" fill="url(#paint2_linear)"/>
<path fill-rule="evenodd" clip-rule="evenodd" d="M53.1395 50.8719C54.8287 58.1316 56.231 59.6599 59.7048 65.4549C62.5414 70.199 65.091 74.8478 65.3459 81.7572C65.4097 83.222 65.3142 83.9861 65.091 85.4827C64.9954 85.9921 64.9316 86.6288 64.8361 87.2019L64.5174 88.5712C64.4855 88.5075 64.4536 88.7939 64.3899 88.9214L63.4974 91.8507C72.0069 85.7691 76.4052 74.8798 68.9155 66.1236C66.4614 63.226 63.6568 61.3156 61.1072 58.8002C55.5617 53.2918 52.9482 42.0203 62.8919 39.5684C58.8125 38.868 52.3108 42.4022 53.1395 50.8719Z" fill="url(#paint3_linear)"/>
<path fill-rule="evenodd" clip-rule="evenodd" d="M84.0223 77.2675C87.6874 75.0386 92.9778 70.1671 93.8703 66.3144L89.6314 68.1293C91.5118 65.1044 98.1091 59.9781 98.0771 50.5215C96.6112 51.6996 95.4001 53.3871 93.934 54.8199C93.3603 54.5334 93.2329 55.1066 93.9659 53.1324C94.3165 52.2408 94.4759 52.0498 94.7627 51.0309C96.165 46.2547 96.0693 39.3772 93.3923 35.3971C92.7548 36.3205 92.9142 36.6709 92.691 38.2947C92.5316 39.5682 92.4042 40.0777 91.8625 41.001C90.1095 38.4221 90.8744 35.1106 85.0102 29.9842C83.0342 28.2649 77.6161 24.8579 73.4729 24.6987C75.1302 26.8957 77.648 27.4688 81.7593 33.0727C87.4642 40.8738 85.2333 50.0756 78.1261 55.998C78.9229 58.4816 81.7593 61.6656 80.8989 66.7601C80.6121 68.4796 80.5802 69.6259 79.9108 67.8746C79.0823 59.8189 75.6402 56.9851 71.7838 52.623C67.1306 47.3373 63.5293 42.1473 74.4929 41.001C73.8555 41.1285 71.1145 39.7912 67.9274 41.001C58.3025 44.6947 67.8319 54.4697 69.9353 56.8578C75.3853 63.0029 82.3648 73.574 74.5247 80.5472L73.9191 81.8525C77.5206 81.0247 81.377 78.987 84.0223 77.2675Z" fill="url(#paint4_linear)"/>
<path fill-rule="evenodd" clip-rule="evenodd" d="M74.0469 84.6865C73.6963 87.9662 67.609 93.5382 63.8801 96.4039C46.3512 109.904 30.384 112.611 20.3766 119.393C19.2611 120.157 18.05 120.953 17.3807 122.067C20.8228 120.38 28.0255 115.476 32.2644 115.922C30.0334 118.215 10.1779 124.519 7.11834 145.47L6.57654 147.699C4.5368 144.802 3.51695 137.478 3.54882 134.167C3.61255 129.964 4.72803 126.27 6.67215 123.437C10.8792 117.323 18.1137 112.292 27.1651 109.331C48.3591 102.422 57.8246 102.677 74.0469 84.6865Z" fill="url(#paint5_linear)"/>
<path fill-rule="evenodd" clip-rule="evenodd" d="M39.7536 117.323C45.9685 114.903 47.5302 111.91 49.761 108.249C50.1753 115.253 40.423 121.208 33.2202 125.283C17.6354 134.039 19.229 138.465 16.4562 142.159C15.7231 135.408 20.44 127.894 24.7745 123.818C27.5153 121.271 30.6705 119.456 34.1445 117.546C38.4787 115.158 39.8811 113.661 43.1319 111.05C42.9726 113.566 40.9966 115.19 39.7536 117.323Z" fill="url(#paint6_linear)"/>
<path fill-rule="evenodd" clip-rule="evenodd" d="M66.9715 95.0347C65.6648 97.4865 56.0398 106.688 55.9442 114.235C60.9479 111.146 59.8006 107.803 61.2985 106.529C63.2108 111.082 61.5853 112.77 59.5455 115.636C53.5221 123.978 57.8883 121.526 55.53 123.946C49.1557 118.852 51.9285 112.515 54.9881 107.93C56.9321 105.065 63.1789 97.2955 66.9715 95.0347Z" fill="url(#paint7_linear)"/>
<path fill-rule="evenodd" clip-rule="evenodd" d="M15.8189 132.702C13.811 135.886 12.2493 143.305 12.8549 148.368C18.2729 146.043 18.8466 142.987 20.44 141.522C19.9302 144.834 17.4761 148.209 14.1934 150.979C11.8668 152.953 8.23362 155.118 5.11025 156.073C3.38923 156.614 2.68808 156.646 1.66821 156.232C7.5643 152.603 7.69179 150.214 9.28532 144.642C10.2415 141.331 12.6317 134.676 15.8189 132.702Z" fill="url(#paint8_linear)"/>
<path fill-rule="evenodd" clip-rule="evenodd" d="M41.3477 122.259C40.3279 123.914 38.8617 125.856 38.7981 127.99C47.4351 125.315 48.2955 118.533 49.921 113.566C51.6102 118.915 49.3791 124.201 47.18 127.003C43.993 131.015 37.6826 131.747 32.9977 134.74C32.5196 130.951 37.2045 124.105 41.3477 122.259Z" fill="url(#paint9_linear)"/>
<path fill-rule="evenodd" clip-rule="evenodd" d="M78.6045 126.924H80.2936V114.538L85.8709 122.721H85.9666L91.544 114.538V126.924H93.2649V111.609H91.5121L85.9347 119.951L80.3573 111.609H78.6045V126.924ZM99.0655 126.924H100.787V111.609H99.0655V126.924ZM106.587 126.924H108.308V121.002H112.674L117.104 126.956H119.24L114.555 120.684C116.977 120.238 118.698 118.773 118.698 116.226C118.698 114.984 118.252 113.902 117.519 113.169C116.562 112.214 115.033 111.641 113.152 111.641H106.555V126.924H106.587ZM108.34 119.442V113.233H113.057C115.543 113.233 116.977 114.379 116.977 116.258C116.977 118.264 115.351 119.442 113.025 119.442H108.34ZM123.255 126.924H125.263V124.632H123.255V126.924ZM130.394 126.924H141.581V125.364H132.115V120.015H140.466V118.455H132.115V113.233H141.454V111.673H130.394V126.924ZM145.214 126.924H147.19L152.098 120.333L157.006 126.924H159.078L153.182 119.092L158.855 111.609H156.815L152.162 117.85L147.445 111.609H145.406L151.079 119.092L145.214 126.924ZM163.54 126.924H165.261V121.511H168.99C172.241 121.511 175.013 119.792 175.013 116.512C175.013 113.456 172.75 111.609 169.277 111.609H163.54V126.924ZM165.261 119.951V113.233H169.149C171.635 113.233 173.261 114.379 173.261 116.544C173.261 118.614 171.602 119.951 169.054 119.951H165.261ZM179.476 126.924H181.197V121.002H185.562L189.993 126.956H192.127L187.442 120.684C189.865 120.238 191.587 118.773 191.587 116.226C191.587 114.984 191.141 113.902 190.407 113.169C189.451 112.214 187.921 111.641 186.041 111.641H179.444V126.924H179.476ZM181.197 119.442V113.233H185.914C188.4 113.233 189.834 114.379 189.834 116.258C189.834 118.264 188.207 119.442 185.881 119.442H181.197ZM196.621 126.924H207.809V125.364H198.342V120.015H206.693V118.455H198.342V113.233H207.681V111.673H196.621V126.924ZM217.815 127.147C220.843 127.147 223.042 125.428 223.042 122.817C223.042 120.429 221.481 119.187 218.038 118.455C214.661 117.722 213.895 116.926 213.895 115.494C213.895 114.061 215.17 112.978 217.146 112.978C218.709 112.978 220.143 113.488 221.577 114.634L222.596 113.296C221.035 112.055 219.441 111.418 217.21 111.418C214.311 111.418 212.175 113.201 212.175 115.589C212.175 118.136 213.799 119.283 217.306 120.047C220.526 120.715 221.291 121.543 221.291 122.944C221.291 124.504 219.92 125.587 217.88 125.587C215.745 125.587 214.215 124.855 212.621 123.422L211.537 124.695C213.417 126.351 215.393 127.147 217.815 127.147ZM232.923 127.147C235.95 127.147 238.149 125.428 238.149 122.817C238.149 120.429 236.588 119.187 233.146 118.455C229.768 117.722 229.003 116.926 229.003 115.494C229.003 114.061 230.277 112.978 232.254 112.978C233.815 112.978 235.249 113.488 236.683 114.634L237.703 113.296C236.141 112.055 234.549 111.418 232.317 111.418C229.416 111.418 227.281 113.201 227.281 115.589C227.281 118.136 228.907 119.283 232.413 120.047C235.631 120.715 236.396 121.543 236.396 122.944C236.396 124.504 235.026 125.587 232.986 125.587C230.85 125.587 229.322 124.855 227.728 123.422L226.644 124.695C228.492 126.351 230.5 127.147 232.923 127.147Z" fill="white"/>
<path d="M89.5302 103H79.5702V86.2H89.2902V88.96H82.5222V93.136H88.5702V95.896H82.5222V100.24H89.5302V103ZM98.5829 97.72H92.5349V95.152H98.5829V97.72ZM114.367 99.16L115.495 101.368C114.967 101.928 114.207 102.384 113.215 102.736C112.239 103.088 111.207 103.264 110.119 103.264C107.559 103.264 105.471 102.472 103.855 100.888C102.255 99.304 101.455 97.208 101.455 94.6C101.455 92.104 102.215 90.032 103.735 88.384C105.239 86.752 107.343 85.936 110.047 85.936C112.191 85.936 113.895 86.504 115.159 87.64L113.839 89.824C112.703 89.072 111.439 88.696 110.047 88.696C108.447 88.696 107.135 89.232 106.111 90.304C105.087 91.376 104.575 92.808 104.575 94.6C104.575 96.36 105.111 97.784 106.183 98.872C107.271 99.96 108.671 100.504 110.383 100.504C111.855 100.504 113.183 100.056 114.367 99.16ZM116.478 94.6C116.478 92.152 117.294 90.096 118.926 88.432C120.59 86.768 122.686 85.936 125.214 85.936C127.742 85.936 129.83 86.736 131.478 88.336C133.142 89.952 133.974 92.04 133.974 94.6C133.974 97.112 133.142 99.184 131.478 100.816C129.814 102.448 127.726 103.264 125.214 103.264C122.686 103.264 120.598 102.464 118.95 100.864C117.302 99.264 116.478 97.176 116.478 94.6ZM119.598 94.6C119.598 96.296 120.134 97.704 121.206 98.824C122.278 99.944 123.614 100.504 125.214 100.504C126.942 100.504 128.31 99.944 129.318 98.824C130.342 97.704 130.854 96.296 130.854 94.6C130.854 92.888 130.31 91.472 129.222 90.352C128.134 89.248 126.798 88.696 125.214 88.696C123.598 88.696 122.254 89.248 121.182 90.352C120.126 91.456 119.598 92.872 119.598 94.6ZM140.343 103H137.391V86.2H140.367L146.103 94.048L151.575 86.2H154.359V103H151.431V90.856L146.127 98.32H145.695L140.343 90.928V103ZM161.975 103H159.023V86.2H161.999L167.735 94.048L173.207 86.2H175.991V103H173.063V90.856L167.759 98.32H167.327L161.975 90.928V103ZM190.616 103H180.656V86.2H190.376V88.96H183.608V93.136H189.656V95.896H183.608V100.24H190.616V103ZM197.413 96.712V103H194.461V86.2C195.293 86.2 196.197 86.192 197.173 86.176C198.149 86.16 198.949 86.152 199.573 86.152C203.637 86.152 205.669 87.88 205.669 91.336C205.669 92.616 205.341 93.672 204.685 94.504C204.029 95.304 203.277 95.848 202.429 96.136L207.685 103H204.109L199.477 96.712H197.413ZM199.429 88.912C199.349 88.912 199.221 88.92 199.045 88.936C198.869 88.936 198.621 88.944 198.301 88.96C197.981 88.96 197.685 88.96 197.413 88.96V93.952H199.333C200.277 93.952 201.045 93.72 201.637 93.256C202.245 92.792 202.549 92.16 202.549 91.36C202.549 89.728 201.509 88.912 199.429 88.912ZM221.219 99.16L222.347 101.368C221.819 101.928 221.059 102.384 220.067 102.736C219.091 103.088 218.059 103.264 216.971 103.264C214.411 103.264 212.323 102.472 210.707 100.888C209.107 99.304 208.307 97.208 208.307 94.6C208.307 92.104 209.067 90.032 210.587 88.384C212.091 86.752 214.195 85.936 216.899 85.936C219.043 85.936 220.747 86.504 222.011 87.64L220.691 89.824C219.555 89.072 218.291 88.696 216.899 88.696C215.299 88.696 213.987 89.232 212.963 90.304C211.939 91.376 211.427 92.808 211.427 94.6C211.427 96.36 211.963 97.784 213.035 98.872C214.123 99.96 215.523 100.504 217.235 100.504C218.707 100.504 220.035 100.056 221.219 99.16ZM235.241 103H225.281V86.2H235.001V88.96H228.233V93.136H234.281V95.896H228.233V100.24H235.241V103Z" fill="white"/>
<defs>
<linearGradient id="paint0_linear" x1="53.2023" y1="28.9091" x2="55.6461" y2="38.6578" gradientUnits="userSpaceOnUse">
<stop stop-color="#EA580C"/>
<stop offset="1" stop-color="#E53012"/>
</linearGradient>
<linearGradient id="paint1_linear" x1="51.7896" y1="44.0071" x2="62.6899" y2="87.4889" gradientUnits="userSpaceOnUse">
<stop stop-color="#EA580C"/>
<stop offset="1" stop-color="#E53012"/>
</linearGradient>
<linearGradient id="paint2_linear" x1="64.0409" y1="47.3824" x2="49.8759" y2="36.6771" gradientUnits="userSpaceOnUse">
<stop stop-color="#EA580C"/>
<stop offset="1" stop-color="#E53012"/>
</linearGradient>
<linearGradient id="paint3_linear" x1="66.3133" y1="53.8904" x2="61.781" y2="66.0542" gradientUnits="userSpaceOnUse">
<stop stop-color="#FF6529"/>
<stop offset="0.9834" stop-color="#DB2507"/>
</linearGradient>
<linearGradient id="paint4_linear" x1="71.2497" y1="54.9271" x2="83.2856" y2="48.8235" gradientUnits="userSpaceOnUse">
<stop stop-color="#FF6529"/>
<stop offset="1" stop-color="#E53012"/>
</linearGradient>
<linearGradient id="paint5_linear" x1="14.9167" y1="127.607" x2="52.0164" y2="110.913" gradientUnits="userSpaceOnUse">
<stop stop-color="#E53012"/>
<stop offset="1" stop-color="#EA580C"/>
</linearGradient>
<linearGradient id="paint6_linear" x1="35.7245" y1="117.336" x2="31.1864" y2="128.516" gradientUnits="userSpaceOnUse">
<stop stop-color="#E53012"/>
<stop offset="1" stop-color="#FF6329"/>
</linearGradient>
<linearGradient id="paint7_linear" x1="56.8409" y1="121.53" x2="59.8227" y2="102.399" gradientUnits="userSpaceOnUse">
<stop stop-color="#E53012"/>
<stop offset="1" stop-color="#EA580C"/>
</linearGradient>
<linearGradient id="paint8_linear" x1="4.97614" y1="153.819" x2="15.9921" y2="140.721" gradientUnits="userSpaceOnUse">
<stop stop-color="#E53012"/>
<stop offset="1" stop-color="#EA580C"/>
</linearGradient>
<linearGradient id="paint9_linear" x1="51.6765" y1="120.82" x2="30.6999" y2="127.647" gradientUnits="userSpaceOnUse">
<stop stop-color="#E53012"/>
<stop offset="1" stop-color="#EA580C"/>
</linearGradient>
</defs>
</svg>
