<svg width="19" height="19" viewBox="0 0 19 19" fill="none" xmlns="http://www.w3.org/2000/svg">
<path d="M18.8339 18.031L14.2166 13.4137C15.4552 11.9898 16.2051 10.1319 16.2051 8.10133C16.2051 3.63149 12.5694 0 8.10377 0C3.63393 0 0.00244141 3.6357 0.00244141 8.10133C0.00244141 12.567 3.63814 16.2027 8.10377 16.2027C10.1344 16.2027 11.9922 15.4528 13.4162 14.2142L18.0335 18.8315C18.143 18.941 18.2905 19 18.4337 19C18.5769 19 18.7244 18.9452 18.8339 18.8315C19.053 18.6124 19.053 18.2501 18.8339 18.031ZM1.1357 8.10133C1.1357 4.2592 4.26164 1.13747 8.09956 1.13747C11.9417 1.13747 15.0634 4.26341 15.0634 8.10133C15.0634 11.9392 11.9417 15.0694 8.09956 15.0694C4.26164 15.0694 1.1357 11.9435 1.1357 8.10133Z" fill="white"/>
</svg>
