<svg width="27" height="27" viewBox="0 0 27 27" fill="none" xmlns="http://www.w3.org/2000/svg">
<path d="M13.4943 0C7.52823 0 2.67163 4.8566 2.67163 10.8226C2.67163 11.5019 2.73389 12.1868 2.86408 12.8547C2.86974 12.8943 2.89239 13.0132 2.93767 13.217C3.10182 13.9472 3.34522 14.666 3.6622 15.3509C4.82823 18.0962 7.39239 22.3132 13.0188 26.8302C13.1603 26.9434 13.3301 27 13.4999 27C13.6697 27 13.8396 26.9434 13.9811 26.8302C19.6018 22.3132 22.1716 18.0962 23.3377 15.3509C23.6546 14.666 23.898 13.9528 24.0622 13.217C24.1075 13.0132 24.1301 12.8943 24.1358 12.8547C24.2603 12.1868 24.3282 11.5019 24.3282 10.8226C24.3169 4.8566 19.4603 0 13.4943 0ZM22.6188 12.5887C22.6188 12.6 22.6131 12.6113 22.6131 12.6226C22.6075 12.6509 22.5905 12.7358 22.5622 12.866C22.5622 12.8717 22.5622 12.8717 22.5622 12.8774C22.4207 13.5113 22.2113 14.1283 21.9339 14.7226C21.9282 14.7283 21.9282 14.7396 21.9226 14.7453C20.8641 17.2528 18.5433 21.0792 13.4943 25.2509C8.44522 21.0792 6.12446 17.2528 5.06597 14.7453C5.06031 14.7396 5.06031 14.7283 5.05465 14.7226C4.78295 14.134 4.57352 13.5113 4.42635 12.8774C4.42635 12.8717 4.42635 12.8717 4.42635 12.866C4.39239 12.7358 4.38106 12.6509 4.3754 12.6226C4.3754 12.6113 4.36974 12.6 4.36974 12.583C4.25654 12 4.19993 11.4113 4.19993 10.817C4.19993 5.69434 8.37163 1.52264 13.4943 1.52264C18.6169 1.52264 22.7886 5.69434 22.7886 10.817C22.7886 11.417 22.732 12.0113 22.6188 12.5887Z" fill="#4B8EC8"/>
<path d="M13.4943 4.06982C9.70746 4.06982 6.62256 7.15472 6.62256 10.9415C6.62256 14.7283 9.70746 17.8132 13.4943 17.8132C17.281 17.8132 20.366 14.7283 20.366 10.9415C20.366 7.15472 17.281 4.06982 13.4943 4.06982ZM13.4943 16.2849C10.5452 16.2849 8.15086 13.8849 8.15086 10.9415C8.15086 7.99812 10.5509 5.59812 13.4943 5.59812C16.4377 5.59812 18.8377 7.99812 18.8377 10.9415C18.8377 13.8849 16.4433 16.2849 13.4943 16.2849Z" fill="#4B8EC8"/>
</svg>
