<svg width="126" height="130" viewBox="0 0 126 130" fill="none" xmlns="http://www.w3.org/2000/svg">
<path d="M33.2398 127.786C33.9191 127.786 34.4698 127.464 34.4698 127.066C34.4698 126.668 33.9191 126.345 33.2398 126.345C32.5604 126.345 32.0098 126.668 32.0098 127.066C32.0098 127.464 32.5604 127.786 33.2398 127.786Z" fill="#1A3962"/>
<path d="M38.6703 123.914C39.1503 124.184 39.1503 124.634 38.6703 124.934C38.1903 125.205 37.4103 125.205 36.9303 124.934C36.4503 124.664 36.4503 124.214 36.9303 123.914C37.4103 123.644 38.1903 123.644 38.6703 123.914Z" fill="#1A3962"/>
<path d="M43.2299 121.272C43.7099 121.542 43.7099 121.993 43.2299 122.293C42.7499 122.563 41.9699 122.563 41.4899 122.293C41.0099 122.023 41.0099 121.572 41.4899 121.272C41.9699 121.002 42.7499 121.002 43.2299 121.272Z" fill="#1A3962"/>
<path d="M47.8202 118.631C48.3002 118.901 48.3002 119.351 47.8202 119.651C47.3402 119.951 46.5602 119.921 46.0802 119.651C45.6002 119.381 45.6002 118.931 46.0802 118.631C46.5302 118.361 47.3102 118.361 47.8202 118.631Z" fill="#1A3962"/>
<path d="M52.3798 115.989C52.8598 116.259 52.8598 116.71 52.3798 117.01C51.8998 117.28 51.1198 117.28 50.6398 117.01C50.1598 116.74 50.1598 116.289 50.6398 115.989C51.1198 115.719 51.8998 115.719 52.3798 115.989Z" fill="#1A3962"/>
<path d="M29.5502 123.914C30.0302 124.184 30.0302 124.634 29.5502 124.934C29.0702 125.205 28.2902 125.205 27.8102 124.934C27.3302 124.664 27.3302 124.214 27.8102 123.914C28.2602 123.644 29.0402 123.644 29.5502 123.914Z" fill="#1A3962"/>
<path d="M34.1097 121.272C34.5897 121.542 34.5897 121.993 34.1097 122.293C33.6297 122.563 32.8498 122.563 32.3698 122.293C31.8898 122.023 31.8898 121.572 32.3698 121.272C32.8498 121.002 33.6297 121.002 34.1097 121.272Z" fill="#1A3962"/>
<path d="M38.6703 118.631C39.1503 118.901 39.1503 119.351 38.6703 119.651C38.1903 119.921 37.4103 119.921 36.9303 119.651C36.4503 119.381 36.4503 118.931 36.9303 118.631C37.4103 118.361 38.1903 118.361 38.6703 118.631Z" fill="#1A3962"/>
<path d="M43.2299 115.989C43.7099 116.259 43.7099 116.71 43.2299 117.01C42.7499 117.28 41.9699 117.28 41.4899 117.01C41.0099 116.74 41.0099 116.289 41.4899 115.989C41.9699 115.719 42.7499 115.719 43.2299 115.989Z" fill="#1A3962"/>
<path d="M46.92 114.578C47.5993 114.578 48.15 114.256 48.15 113.858C48.15 113.46 47.5993 113.137 46.92 113.137C46.2407 113.137 45.6899 113.46 45.6899 113.858C45.6899 114.256 46.2407 114.578 46.92 114.578Z" fill="#1A3962"/>
<path d="M24.9598 121.272C25.4398 121.542 25.4398 121.993 24.9598 122.293C24.4798 122.563 23.6999 122.563 23.2199 122.293C22.7399 122.023 22.7399 121.572 23.2199 121.272C23.6999 121.002 24.4798 121.002 24.9598 121.272Z" fill="#1A3962"/>
<path d="M29.5502 118.631C30.0302 118.901 30.0302 119.351 29.5502 119.651C29.0702 119.921 28.2902 119.921 27.8102 119.651C27.3302 119.381 27.3302 118.931 27.8102 118.631C28.2602 118.361 29.0402 118.361 29.5502 118.631Z" fill="#1A3962"/>
<path d="M33.2398 117.22C33.9191 117.22 34.4698 116.897 34.4698 116.499C34.4698 116.102 33.9191 115.779 33.2398 115.779C32.5604 115.779 32.0098 116.102 32.0098 116.499C32.0098 116.897 32.5604 117.22 33.2398 117.22Z" fill="#1A3962"/>
<path d="M38.6703 113.348C39.1503 113.618 39.1503 114.068 38.6703 114.368C38.1903 114.638 37.4103 114.638 36.9303 114.368C36.4503 114.098 36.4503 113.648 36.9303 113.348C37.4103 113.077 38.1903 113.077 38.6703 113.348Z" fill="#1A3962"/>
<path d="M43.2299 110.706C43.7099 110.976 43.7099 111.426 43.2299 111.727C42.7499 111.997 41.9699 111.997 41.4899 111.727C41.0099 111.456 41.0099 111.006 41.4899 110.706C41.9699 110.436 42.7499 110.436 43.2299 110.706Z" fill="#1A3962"/>
<path d="M20.3998 118.631C20.8798 118.901 20.8798 119.351 20.3998 119.651C19.9198 119.921 19.1398 119.921 18.6598 119.651C18.1798 119.381 18.1798 118.931 18.6598 118.631C19.1398 118.361 19.9198 118.361 20.3998 118.631Z" fill="#1A3962"/>
<path d="M24.9598 115.989C25.4398 116.259 25.4398 116.71 24.9598 117.01C24.4798 117.28 23.6999 117.28 23.2199 117.01C22.7399 116.74 22.7399 116.289 23.2199 115.989C23.6999 115.719 24.4798 115.719 24.9598 115.989Z" fill="#1A3962"/>
<path d="M29.5502 113.348C30.0302 113.618 30.0302 114.068 29.5502 114.368C29.0702 114.638 28.2902 114.638 27.8102 114.368C27.3302 114.098 27.3302 113.648 27.8102 113.348C28.2602 113.077 29.0402 113.077 29.5502 113.348Z" fill="#1A3962"/>
<path d="M34.1097 110.706C34.5897 110.976 34.5897 111.426 34.1097 111.727C33.6297 111.997 32.8498 111.997 32.3698 111.727C31.8898 111.456 31.8898 111.006 32.3698 110.706C32.8498 110.436 33.6297 110.436 34.1097 110.706Z" fill="#1A3962"/>
<path d="M38.6703 108.064C39.1503 108.335 39.1503 108.785 38.6703 109.085C38.1903 109.355 37.4103 109.355 36.9303 109.085C36.4503 108.815 36.4503 108.365 36.9303 108.064C37.4103 107.794 38.1903 107.794 38.6703 108.064Z" fill="#1A3962"/>
<path d="M15.8397 115.989C16.3197 116.259 16.3197 116.71 15.8397 117.01C15.3597 117.28 14.5797 117.28 14.0997 117.01C13.6197 116.74 13.6197 116.289 14.0997 115.989C14.5797 115.719 15.3597 115.719 15.8397 115.989Z" fill="#1A3962"/>
<path d="M20.3998 113.348C20.8798 113.618 20.8798 114.068 20.3998 114.368C19.9198 114.638 19.1398 114.638 18.6598 114.368C18.1798 114.098 18.1798 113.648 18.6598 113.348C19.1398 113.077 19.9198 113.077 20.3998 113.348Z" fill="#1A3962"/>
<path d="M24.9598 110.706C25.4398 110.976 25.4398 111.426 24.9598 111.727C24.4798 111.997 23.6999 111.997 23.2199 111.727C22.7399 111.456 22.7399 111.006 23.2199 110.706C23.6999 110.436 24.4798 110.436 24.9598 110.706Z" fill="#1A3962"/>
<path d="M29.5502 108.064C30.0302 108.335 30.0302 108.785 29.5502 109.085C29.0702 109.355 28.2902 109.355 27.8102 109.085C27.3302 108.815 27.3302 108.365 27.8102 108.064C28.2602 107.794 29.0402 107.794 29.5502 108.064Z" fill="#1A3962"/>
<path d="M33.2398 106.654C33.9191 106.654 34.4698 106.331 34.4698 105.933C34.4698 105.535 33.9191 105.213 33.2398 105.213C32.5604 105.213 32.0098 105.535 32.0098 105.933C32.0098 106.331 32.5604 106.654 33.2398 106.654Z" fill="#1A3962"/>
<path d="M11.2201 113.318C11.7001 113.588 11.7001 114.038 11.2201 114.338C10.7401 114.608 9.96012 114.608 9.48012 114.338C9.00012 114.068 9.00012 113.618 9.48012 113.318C9.96012 113.047 10.7401 113.047 11.2201 113.318Z" fill="#1A3962"/>
<path d="M15.7802 110.676C16.2602 110.946 16.2602 111.396 15.7802 111.697C15.3002 111.967 14.5202 111.967 14.0402 111.697C13.5602 111.426 13.5602 110.976 14.0402 110.676C14.5202 110.406 15.3002 110.406 15.7802 110.676Z" fill="#1A3962"/>
<path d="M20.37 108.064C20.85 108.335 20.85 108.785 20.37 109.085C19.89 109.355 19.11 109.355 18.63 109.085C18.15 108.815 18.15 108.365 18.63 108.064C19.11 107.764 19.89 107.764 20.37 108.064Z" fill="#1A3962"/>
<path d="M24.9301 105.423C25.4101 105.693 25.4101 106.143 24.9301 106.443C24.4501 106.714 23.6701 106.714 23.1901 106.443C22.7101 106.173 22.7101 105.723 23.1901 105.423C23.6701 105.123 24.4501 105.123 24.9301 105.423Z" fill="#1A3962"/>
<path d="M29.4901 102.781C29.9701 103.051 29.9701 103.502 29.4901 103.802C29.0101 104.072 28.2301 104.072 27.7501 103.802C27.2701 103.532 27.2701 103.081 27.7501 102.781C28.2301 102.481 29.0101 102.481 29.4901 102.781Z" fill="#1A3962"/>
<path d="M6.66004 110.676C7.14004 110.946 7.14004 111.396 6.66004 111.697C6.18004 111.967 5.40006 111.967 4.92006 111.697C4.44006 111.426 4.44006 110.976 4.92006 110.676C5.40006 110.406 6.18004 110.406 6.66004 110.676Z" fill="#1A3962"/>
<path d="M11.2201 108.064C11.7001 108.335 11.7001 108.785 11.2201 109.085C10.7401 109.355 9.96012 109.355 9.48012 109.085C9.00012 108.815 9.00012 108.365 9.48012 108.064C9.96012 107.764 10.7401 107.764 11.2201 108.064Z" fill="#1A3962"/>
<path d="M15.7802 105.423C16.2602 105.693 16.2602 106.143 15.7802 106.443C15.3002 106.714 14.5202 106.714 14.0402 106.443C13.5602 106.173 13.5602 105.723 14.0402 105.423C14.5202 105.123 15.3002 105.123 15.7802 105.423Z" fill="#1A3962"/>
<path d="M20.37 102.781C20.85 103.051 20.85 103.502 20.37 103.802C19.89 104.072 19.11 104.072 18.63 103.802C18.15 103.532 18.15 103.081 18.63 102.781C19.11 102.481 19.89 102.481 20.37 102.781Z" fill="#1A3962"/>
<path d="M24.9301 100.14C25.4101 100.41 25.4101 100.86 24.9301 101.16C24.4501 101.43 23.6701 101.43 23.1901 101.16C22.7101 100.89 22.7101 100.44 23.1901 100.14C23.6701 99.8695 24.4501 99.8695 24.9301 100.14Z" fill="#1A3962"/>
<path d="M2.10001 108.064C2.58001 108.335 2.58001 108.785 2.10001 109.085C1.62001 109.355 0.84 109.355 0.36 109.085C-0.12 108.815 -0.12 108.365 0.36 108.064C0.84 107.764 1.62001 107.764 2.10001 108.064Z" fill="#1A3962"/>
<path d="M5.79005 106.624C6.46936 106.624 7.02008 106.301 7.02008 105.903C7.02008 105.505 6.46936 105.183 5.79005 105.183C5.11074 105.183 4.56006 105.505 4.56006 105.903C4.56006 106.301 5.11074 106.624 5.79005 106.624Z" fill="#1A3962"/>
<path d="M11.2201 102.781C11.7001 103.051 11.7001 103.502 11.2201 103.802C10.7401 104.072 9.96012 104.072 9.48012 103.802C9.00012 103.532 9.00012 103.081 9.48012 102.781C9.96012 102.481 10.7401 102.481 11.2201 102.781Z" fill="#1A3962"/>
<path d="M15.7802 100.14C16.2602 100.41 16.2602 100.86 15.7802 101.16C15.3002 101.43 14.5202 101.43 14.0402 101.16C13.5602 100.89 13.5602 100.44 14.0402 100.14C14.5202 99.8695 15.3002 99.8695 15.7802 100.14Z" fill="#1A3962"/>
<path d="M2.10001 102.781C2.58001 103.051 2.58001 103.502 2.10001 103.802C1.62001 104.072 0.84 104.072 0.36 103.802C-0.12 103.532 -0.12 103.081 0.36 102.781C0.84 102.481 1.62001 102.481 2.10001 102.781Z" fill="#1A3962"/>
<path d="M6.66004 100.14C7.14004 100.41 7.14004 100.86 6.66004 101.16C6.18004 101.43 5.40006 101.43 4.92006 101.16C4.44006 100.89 4.44006 100.44 4.92006 100.14H6.66004Z" fill="#1A3962"/>
<path d="M47.9701 128.777C48.4501 129.047 48.4501 129.497 47.9701 129.797C47.4901 130.068 46.7101 130.068 46.2301 129.797C45.7501 129.527 45.7501 129.077 46.2301 128.777C46.7101 128.477 47.4901 128.477 47.9701 128.777Z" fill="#1A3962"/>
<path d="M52.5599 126.135C53.0399 126.405 53.0399 126.856 52.5599 127.156C52.0799 127.426 51.3 127.426 50.82 127.156C50.34 126.886 50.34 126.435 50.82 126.135C51.3 125.835 52.0799 125.835 52.5599 126.135Z" fill="#1A3962"/>
<path d="M56.25 124.724C56.9293 124.724 57.48 124.402 57.48 124.004C57.48 123.606 56.9293 123.283 56.25 123.283C55.5707 123.283 55.02 123.606 55.02 124.004C55.02 124.402 55.5707 124.724 56.25 124.724Z" fill="#1A3962"/>
<path d="M61.6801 120.852C62.1601 121.122 62.1601 121.572 61.6801 121.873C61.2001 122.143 60.4201 122.143 59.9401 121.873C59.4601 121.602 59.4601 121.152 59.9401 120.852C60.4201 120.582 61.2001 120.582 61.6801 120.852Z" fill="#1A3962"/>
<path d="M38.85 128.777C39.33 129.047 39.33 129.497 38.85 129.797C38.37 130.068 37.59 130.068 37.11 129.797C36.63 129.527 36.63 129.077 37.11 128.777C37.59 128.477 38.37 128.477 38.85 128.777Z" fill="#1A3962"/>
<path d="M43.41 126.135C43.89 126.405 43.89 126.856 43.41 127.156C42.93 127.426 42.1501 127.426 41.6701 127.156C41.1901 126.886 41.1901 126.435 41.6701 126.135C42.1501 125.835 42.93 125.835 43.41 126.135Z" fill="#1A3962"/>
<path d="M47.9701 123.494C48.4501 123.764 48.4501 124.214 47.9701 124.514C47.4901 124.784 46.7101 124.784 46.2301 124.514C45.7501 124.244 45.7501 123.794 46.2301 123.494C46.7101 123.223 47.4901 123.223 47.9701 123.494Z" fill="#1A3962"/>
<path d="M52.5599 120.852C53.0399 121.122 53.0399 121.572 52.5599 121.873C52.0799 122.143 51.3 122.143 50.82 121.873C50.34 121.602 50.34 121.152 50.82 120.852C51.3 120.582 52.0799 120.582 52.5599 120.852Z" fill="#1A3962"/>
<path d="M56.25 119.441C56.9293 119.441 57.48 119.119 57.48 118.721C57.48 118.323 56.9293 118 56.25 118C55.5707 118 55.02 118.323 55.02 118.721C55.02 119.119 55.5707 119.441 56.25 119.441Z" fill="#1A3962"/>
<path d="M56.9398 113.378C57.4198 113.648 57.4198 114.098 56.9398 114.398C56.4598 114.668 55.6798 114.668 55.1998 114.398C54.7198 114.128 54.7198 113.678 55.1998 113.378C55.6798 113.107 56.4598 113.107 56.9398 113.378Z" fill="#1A3962"/>
<path d="M61.5302 110.736C62.0102 111.006 62.0102 111.456 61.5302 111.757C61.0502 112.027 60.2702 112.027 59.7902 111.757C59.3102 111.486 59.3102 111.036 59.7902 110.736C60.2702 110.466 61.0502 110.466 61.5302 110.736Z" fill="#1A3962"/>
<path d="M66.0897 108.124C66.5697 108.395 66.5697 108.845 66.0897 109.145C65.6097 109.415 64.8297 109.415 64.3497 109.145C63.8697 108.875 63.8697 108.425 64.3497 108.124C64.8297 107.824 65.6097 107.824 66.0897 108.124Z" fill="#1A3962"/>
<path d="M70.6503 105.483C71.1303 105.753 71.1303 106.203 70.6503 106.503C70.1703 106.774 69.3903 106.774 68.9103 106.503C68.4303 106.233 68.4303 105.783 68.9103 105.483C69.3903 105.183 70.1703 105.183 70.6503 105.483Z" fill="#1A3962"/>
<path d="M75.2098 102.841C75.6898 103.111 75.6898 103.562 75.2098 103.862C74.7298 104.132 73.9499 104.132 73.4699 103.862C72.9899 103.592 72.9899 103.141 73.4699 102.841C73.9499 102.541 74.7298 102.541 75.2098 102.841Z" fill="#1A3962"/>
<path d="M78.9302 101.43C79.6095 101.43 80.1602 101.108 80.1602 100.71C80.1602 100.312 79.6095 99.9896 78.9302 99.9896C78.2509 99.9896 77.7002 100.312 77.7002 100.71C77.7002 101.108 78.2509 101.43 78.9302 101.43Z" fill="#1A3962"/>
<path d="M84.3597 97.5581C84.8397 97.8283 84.8397 98.2786 84.3597 98.5788C83.8797 98.8489 83.0998 98.8489 82.6198 98.5788C82.1398 98.3086 82.1398 97.8583 82.6198 97.5581C83.0998 97.288 83.8797 97.288 84.3597 97.5581Z" fill="#1A3962"/>
<path d="M88.9203 94.9165C89.4003 95.1867 89.4003 95.637 88.9203 95.9372C88.4403 96.2073 87.6603 96.2073 87.1803 95.9372C86.7003 95.667 86.7003 95.2167 87.1803 94.9165C87.6603 94.6464 88.4403 94.6464 88.9203 94.9165Z" fill="#1A3962"/>
<path d="M93.4799 92.275C93.9599 92.5452 93.9599 92.9954 93.4799 93.2956C92.9999 93.5657 92.2199 93.5657 91.7399 93.2956C91.2599 93.0254 91.2599 92.5752 91.7399 92.275C92.2199 92.0048 92.9999 92.0048 93.4799 92.275Z" fill="#1A3962"/>
<path d="M98.0702 89.6334C98.5502 89.9036 98.5502 90.3538 98.0702 90.654C97.5902 90.9242 96.8102 90.9242 96.3302 90.654C95.8502 90.3839 95.8502 89.9336 96.3302 89.6334C96.8102 89.3632 97.5902 89.3632 98.0702 89.6334Z" fill="#1A3962"/>
<path d="M102.63 86.9918C103.11 87.262 103.11 87.7123 102.63 88.0124C102.15 88.2826 101.37 88.2826 100.89 88.0124C100.41 87.7423 100.41 87.292 100.89 86.9918C101.37 86.7217 102.15 86.7217 102.63 86.9918Z" fill="#1A3962"/>
<path d="M106.32 85.581C106.999 85.581 107.55 85.2585 107.55 84.8606C107.55 84.4627 106.999 84.1401 106.32 84.1401C105.641 84.1401 105.09 84.4627 105.09 84.8606C105.09 85.2585 105.641 85.581 106.32 85.581Z" fill="#1A3962"/>
<path d="M111.75 81.7387C112.23 82.0089 112.23 82.4591 111.75 82.7593C111.27 83.0295 110.49 83.0295 110.01 82.7593C109.53 82.4892 109.53 82.0389 110.01 81.7387C110.49 81.4385 111.27 81.4385 111.75 81.7387Z" fill="#1A3962"/>
<path d="M116.34 79.0972C116.82 79.3673 116.82 79.8176 116.34 80.1178C115.86 80.3879 115.08 80.3879 114.6 80.1178C114.12 79.8476 114.12 79.3973 114.6 79.0972C115.08 78.797 115.86 78.797 116.34 79.0972Z" fill="#1A3962"/>
<path d="M120.9 76.4556C121.38 76.7257 121.38 77.176 120.9 77.4762C120.42 77.7463 119.64 77.7463 119.16 77.4762C118.68 77.206 118.68 76.7557 119.16 76.4556C119.64 76.1554 120.42 76.1554 120.9 76.4556Z" fill="#1A3962"/>
<path d="M50.6398 110.766C51.1198 110.496 51.8998 110.496 52.3798 110.766C52.8598 111.036 52.8598 111.486 52.3798 111.787C51.8998 112.057 51.1198 112.057 50.6398 111.787C50.1598 111.486 50.1598 111.036 50.6398 110.766Z" fill="#1A3962"/>
<path d="M56.9398 108.124C57.4198 108.395 57.4198 108.845 56.9398 109.145C56.4598 109.415 55.6798 109.415 55.1998 109.145C54.7198 108.875 54.7198 108.425 55.1998 108.124C55.6798 107.824 56.4598 107.824 56.9398 108.124Z" fill="#1A3962"/>
<path d="M61.5302 105.483C62.0102 105.753 62.0102 106.203 61.5302 106.503C61.0502 106.774 60.2702 106.774 59.7902 106.503C59.3102 106.233 59.3102 105.783 59.7902 105.483C60.2702 105.183 61.0502 105.183 61.5302 105.483Z" fill="#1A3962"/>
<path d="M66.0897 102.841C66.5697 103.111 66.5697 103.562 66.0897 103.862C65.6097 104.132 64.8297 104.132 64.3497 103.862C63.8697 103.592 63.8697 103.141 64.3497 102.841C64.8297 102.541 65.6097 102.541 66.0897 102.841Z" fill="#1A3962"/>
<path d="M70.6503 100.2C71.1303 100.47 71.1303 100.92 70.6503 101.22C70.1703 101.49 69.3903 101.49 68.9103 101.22C68.4303 100.95 68.4303 100.5 68.9103 100.2C69.3903 99.9295 70.1703 99.9295 70.6503 100.2Z" fill="#1A3962"/>
<path d="M75.2098 97.5581C75.6898 97.8283 75.6898 98.2786 75.2098 98.5788C74.7298 98.8489 73.9499 98.8489 73.4699 98.5788C72.9899 98.3086 72.9899 97.8583 73.4699 97.5581C73.9499 97.288 74.7298 97.288 75.2098 97.5581Z" fill="#1A3962"/>
<path d="M78.9302 96.1473C79.6095 96.1473 80.1602 95.8248 80.1602 95.4269C80.1602 95.029 79.6095 94.7065 78.9302 94.7065C78.2509 94.7065 77.7002 95.029 77.7002 95.4269C77.7002 95.8248 78.2509 96.1473 78.9302 96.1473Z" fill="#1A3962"/>
<path d="M84.3597 92.275C84.8397 92.5452 84.8397 92.9954 84.3597 93.2956C83.8797 93.5657 83.0998 93.5657 82.6198 93.2956C82.1398 93.0254 82.1398 92.5752 82.6198 92.275C83.0998 92.0048 83.8797 92.0048 84.3597 92.275Z" fill="#1A3962"/>
<path d="M88.9203 89.6334C89.4003 89.9036 89.4003 90.3538 88.9203 90.654C88.4403 90.9242 87.6603 90.9242 87.1803 90.654C86.7003 90.3839 86.7003 89.9336 87.1803 89.6334C87.6603 89.3632 88.4403 89.3632 88.9203 89.6334Z" fill="#1A3962"/>
<path d="M93.4799 86.9918C93.9599 87.262 93.9599 87.7123 93.4799 88.0124C92.9999 88.2826 92.2199 88.2826 91.7399 88.0124C91.2599 87.7423 91.2599 87.292 91.7399 86.9918C92.2199 86.7217 92.9999 86.7217 93.4799 86.9918Z" fill="#1A3962"/>
<path d="M98.0702 84.3503C98.5502 84.6204 98.5502 85.0707 98.0702 85.3709C97.5902 85.641 96.8102 85.641 96.3302 85.3709C95.8502 85.1007 95.8502 84.6504 96.3302 84.3503C96.8102 84.0801 97.5902 84.0801 98.0702 84.3503Z" fill="#1A3962"/>
<path d="M102.63 81.7387C103.11 82.0089 103.11 82.4591 102.63 82.7593C102.15 83.0295 101.37 83.0295 100.89 82.7593C100.41 82.4892 100.41 82.0389 100.89 81.7387C101.37 81.4385 102.15 81.4385 102.63 81.7387Z" fill="#1A3962"/>
<path d="M107.19 79.0972C107.67 79.3673 107.67 79.8176 107.19 80.1178C106.71 80.3879 105.93 80.3879 105.45 80.1178C104.97 79.8476 104.97 79.3973 105.45 79.0972C105.93 78.797 106.71 78.797 107.19 79.0972Z" fill="#1A3962"/>
<path d="M111.75 76.4556C112.23 76.7257 112.23 77.176 111.75 77.4762C111.27 77.7463 110.49 77.7463 110.01 77.4762C109.53 77.206 109.53 76.7557 110.01 76.4556C110.49 76.1554 111.27 76.1554 111.75 76.4556Z" fill="#1A3962"/>
<path d="M115.47 75.0447C116.15 75.0447 116.7 74.7222 116.7 74.3243C116.7 73.9264 116.15 73.6039 115.47 73.6039C114.791 73.6039 114.24 73.9264 114.24 74.3243C114.24 74.7222 114.791 75.0447 115.47 75.0447Z" fill="#1A3962"/>
<path d="M46.0802 108.124C46.5602 107.854 47.3402 107.854 47.8202 108.124C48.3002 108.395 48.3002 108.845 47.8202 109.145C47.3402 109.415 46.5602 109.415 46.0802 109.145C45.6002 108.845 45.6002 108.395 46.0802 108.124Z" fill="#1A3962"/>
<path d="M52.3798 105.483C52.8598 105.753 52.8598 106.203 52.3798 106.503C51.8998 106.774 51.1198 106.774 50.6398 106.503C50.1598 106.233 50.1598 105.783 50.6398 105.483C51.1198 105.183 51.8998 105.183 52.3798 105.483Z" fill="#1A3962"/>
<path d="M56.9398 102.841C57.4198 103.111 57.4198 103.562 56.9398 103.862C56.4598 104.132 55.6798 104.132 55.1998 103.862C54.7198 103.592 54.7198 103.141 55.1998 102.841C55.6798 102.541 56.4598 102.541 56.9398 102.841Z" fill="#1A3962"/>
<path d="M61.5302 100.2C62.0102 100.47 62.0102 100.92 61.5302 101.22C61.0502 101.49 60.2702 101.49 59.7902 101.22C59.3102 100.95 59.3102 100.5 59.7902 100.2C60.2702 99.9295 61.0502 99.9295 61.5302 100.2Z" fill="#1A3962"/>
<path d="M66.0897 97.5581C66.5697 97.8283 66.5697 98.2786 66.0897 98.5788C65.6097 98.8489 64.8297 98.8489 64.3497 98.5788C63.8697 98.3086 63.8697 97.8583 64.3497 97.5581C64.8297 97.288 65.6097 97.288 66.0897 97.5581Z" fill="#1A3962"/>
<path d="M70.6503 94.9165C71.1303 95.1867 71.1303 95.637 70.6503 95.9372C70.1703 96.2073 69.3903 96.2073 68.9103 95.9372C68.4303 95.667 68.4303 95.2167 68.9103 94.9165C69.3903 94.6464 70.1703 94.6464 70.6503 94.9165Z" fill="#1A3962"/>
<path d="M75.2098 92.275C75.6898 92.5452 75.6898 92.9954 75.2098 93.2956C74.7298 93.5657 73.9499 93.5657 73.4699 93.2956C72.9899 93.0254 72.9899 92.5752 73.4699 92.275C73.9499 92.0048 74.7298 92.0048 75.2098 92.275Z" fill="#1A3962"/>
<path d="M79.8002 89.6334C80.2802 89.9036 80.2802 90.3538 79.8002 90.654C79.3202 90.9242 78.5402 90.9242 78.0602 90.654C77.5802 90.3839 77.5802 89.9336 78.0602 89.6334C78.5402 89.3632 79.3202 89.3632 79.8002 89.6334Z" fill="#1A3962"/>
<path d="M84.3597 86.9918C84.8397 87.262 84.8397 87.7123 84.3597 88.0124C83.8797 88.2826 83.0998 88.2826 82.6198 88.0124C82.1398 87.7423 82.1398 87.292 82.6198 86.9918C83.0998 86.7217 83.8797 86.7217 84.3597 86.9918Z" fill="#1A3962"/>
<path d="M88.9203 84.3503C89.4003 84.6204 89.4003 85.0707 88.9203 85.3709C88.4403 85.641 87.6603 85.641 87.1803 85.3709C86.7003 85.1007 86.7003 84.6504 87.1803 84.3503C87.6603 84.0801 88.4403 84.0801 88.9203 84.3503Z" fill="#1A3962"/>
<path d="M93.4799 81.7387C93.9599 82.0089 93.9599 82.4591 93.4799 82.7593C92.9999 83.0295 92.2199 83.0295 91.7399 82.7593C91.2599 82.4892 91.2599 82.0389 91.7399 81.7387C92.2199 81.4385 92.9999 81.4385 93.4799 81.7387Z" fill="#1A3962"/>
<path d="M98.0702 79.0972C98.5502 79.3673 98.5502 79.8176 98.0702 80.1178C97.5902 80.3879 96.8102 80.3879 96.3302 80.1178C95.8502 79.8476 95.8502 79.3973 96.3302 79.0972C96.8102 78.797 97.5902 78.797 98.0702 79.0972Z" fill="#1A3962"/>
<path d="M102.63 76.4556C103.11 76.7257 103.11 77.176 102.63 77.4762C102.15 77.7463 101.37 77.7463 100.89 77.4762C100.41 77.206 100.41 76.7557 100.89 76.4556C101.37 76.1554 102.15 76.1554 102.63 76.4556Z" fill="#1A3962"/>
<path d="M106.32 75.0447C106.999 75.0447 107.55 74.7222 107.55 74.3243C107.55 73.9264 106.999 73.6039 106.32 73.6039C105.641 73.6039 105.09 73.9264 105.09 74.3243C105.09 74.7222 105.641 75.0447 106.32 75.0447Z" fill="#1A3962"/>
<path d="M41.4899 105.483C41.9699 105.213 42.7499 105.213 43.2299 105.483C43.7099 105.753 43.7099 106.203 43.2299 106.503C42.7499 106.774 41.9699 106.774 41.4899 106.503C41.0099 106.203 41.0099 105.753 41.4899 105.483Z" fill="#1A3962"/>
<path d="M47.8202 102.841C48.3002 103.111 48.3002 103.562 47.8202 103.862C47.3402 104.132 46.5602 104.132 46.0802 103.862C45.6002 103.592 45.6002 103.141 46.0802 102.841C46.5602 102.541 47.3402 102.541 47.8202 102.841Z" fill="#1A3962"/>
<path d="M52.3798 100.2C52.8598 100.47 52.8598 100.92 52.3798 101.22C51.8998 101.49 51.1198 101.49 50.6398 101.22C50.1598 100.95 50.1598 100.5 50.6398 100.2C51.1198 99.9295 51.8998 99.9295 52.3798 100.2Z" fill="#1A3962"/>
<path d="M56.0704 98.7889C56.7497 98.7889 57.3004 98.4663 57.3004 98.0685C57.3004 97.6706 56.7497 97.348 56.0704 97.348C55.3911 97.348 54.8403 97.6706 54.8403 98.0685C54.8403 98.4663 55.3911 98.7889 56.0704 98.7889Z" fill="#1A3962"/>
<path d="M61.5302 94.9165C62.0102 95.1867 62.0102 95.637 61.5302 95.9372C61.0502 96.2373 60.2702 96.2073 59.7902 95.9372C59.3102 95.667 59.3102 95.2167 59.7902 94.9165C60.2702 94.6464 61.0502 94.6464 61.5302 94.9165Z" fill="#1A3962"/>
<path d="M66.0897 92.275C66.5697 92.5452 66.5697 92.9954 66.0897 93.2956C65.6097 93.5657 64.8297 93.5657 64.3497 93.2956C63.8697 93.0254 63.8697 92.5752 64.3497 92.275C64.8297 92.0048 65.6097 92.0048 66.0897 92.275Z" fill="#1A3962"/>
<path d="M70.6503 89.6334C71.1303 89.9036 71.1303 90.3538 70.6503 90.654C70.1703 90.9242 69.3903 90.9242 68.9103 90.654C68.4303 90.3839 68.4303 89.9336 68.9103 89.6334C69.3903 89.3632 70.1703 89.3632 70.6503 89.6334Z" fill="#1A3962"/>
<path d="M74.3399 88.2226C75.0192 88.2226 75.5699 87.9 75.5699 87.5022C75.5699 87.1043 75.0192 86.7817 74.3399 86.7817C73.6605 86.7817 73.1099 87.1043 73.1099 87.5022C73.1099 87.9 73.6605 88.2226 74.3399 88.2226Z" fill="#1A3962"/>
<path d="M78.9302 85.581C79.6095 85.581 80.1602 85.2585 80.1602 84.8606C80.1602 84.4627 79.6095 84.1401 78.9302 84.1401C78.2509 84.1401 77.7002 84.4627 77.7002 84.8606C77.7002 85.2585 78.2509 85.581 78.9302 85.581Z" fill="#1A3962"/>
<path d="M84.3597 81.7387C84.8397 82.0089 84.8397 82.4591 84.3597 82.7593C83.8797 83.0295 83.0998 83.0295 82.6198 82.7593C82.1398 82.4892 82.1398 82.0389 82.6198 81.7387C83.0998 81.4385 83.8797 81.4385 84.3597 81.7387Z" fill="#1A3962"/>
<path d="M88.9203 79.0972C89.4003 79.3673 89.4003 79.8176 88.9203 80.1178C88.4403 80.3879 87.6603 80.3879 87.1803 80.1178C86.7003 79.8476 86.7003 79.3973 87.1803 79.0972C87.6603 78.797 88.4403 78.797 88.9203 79.0972Z" fill="#1A3962"/>
<path d="M93.4799 76.4556C93.9599 76.7257 93.9599 77.176 93.4799 77.4762C92.9999 77.7463 92.2199 77.7463 91.7399 77.4762C91.2599 77.206 91.2599 76.7557 91.7399 76.4556C92.2199 76.1554 92.9999 76.1554 93.4799 76.4556Z" fill="#1A3962"/>
<path d="M98.0702 73.814C98.5502 74.0842 98.5502 74.5344 98.0702 74.8346C97.5902 75.1047 96.8102 75.1047 96.3302 74.8346C95.8502 74.5644 95.8502 74.1142 96.3302 73.814C96.8102 73.5438 97.5902 73.5438 98.0702 73.814Z" fill="#1A3962"/>
<path d="M102.63 71.1724C103.11 71.4426 103.11 71.8929 102.63 72.193C102.15 72.4632 101.37 72.4632 100.89 72.193C100.41 71.9229 100.41 71.4726 100.89 71.1724H102.63Z" fill="#1A3962"/>
<path d="M36.9303 102.841C37.4103 102.571 38.1903 102.571 38.6703 102.841C39.1503 103.111 39.1503 103.562 38.6703 103.862C38.1903 104.132 37.4103 104.132 36.9303 103.862C36.4503 103.562 36.4503 103.111 36.9303 102.841Z" fill="#1A3962"/>
<path d="M42.3897 101.43C43.069 101.43 43.6197 101.108 43.6197 100.71C43.6197 100.312 43.069 99.9896 42.3897 99.9896C41.7104 99.9896 41.1597 100.312 41.1597 100.71C41.1597 101.108 41.7104 101.43 42.3897 101.43Z" fill="#1A3962"/>
<path d="M47.8202 97.5581C48.3002 97.8283 48.3002 98.2786 47.8202 98.5788C47.3402 98.8489 46.5602 98.8489 46.0802 98.5788C45.6002 98.3086 45.6002 97.8583 46.0802 97.5581C46.5602 97.288 47.3402 97.288 47.8202 97.5581Z" fill="#1A3962"/>
<path d="M52.3798 94.9165C52.8598 95.1867 52.8598 95.637 52.3798 95.9372C51.8998 96.2073 51.1198 96.2073 50.6398 95.9372C50.1598 95.667 50.1598 95.2167 50.6398 94.9165C51.1198 94.6464 51.8998 94.6464 52.3798 94.9165Z" fill="#1A3962"/>
<path d="M56.0704 93.5057C56.7497 93.5057 57.3004 93.1832 57.3004 92.7853C57.3004 92.3874 56.7497 92.0649 56.0704 92.0649C55.3911 92.0649 54.8403 92.3874 54.8403 92.7853C54.8403 93.1832 55.3911 93.5057 56.0704 93.5057Z" fill="#1A3962"/>
<path d="M61.5302 89.6334C62.0102 89.9036 62.0102 90.3538 61.5302 90.654C61.0502 90.9242 60.2702 90.9242 59.7902 90.654C59.3102 90.3839 59.3102 89.9336 59.7902 89.6334C60.2702 89.3632 61.0502 89.3632 61.5302 89.6334Z" fill="#1A3962"/>
<path d="M66.0897 86.9918C66.5697 87.262 66.5697 87.7123 66.0897 88.0124C65.6097 88.2826 64.8297 88.2826 64.3497 88.0124C63.8697 87.7423 63.8697 87.292 64.3497 86.9918C64.8297 86.7217 65.6097 86.7217 66.0897 86.9918Z" fill="#1A3962"/>
<path d="M70.6503 84.3503C71.1303 84.6204 71.1303 85.0707 70.6503 85.3709C70.1703 85.641 69.3903 85.641 68.9103 85.3709C68.4303 85.1007 68.4303 84.6504 68.9103 84.3503C69.3903 84.0801 70.1703 84.0801 70.6503 84.3503Z" fill="#1A3962"/>
<path d="M74.3399 82.9394C75.0192 82.9394 75.5699 82.6169 75.5699 82.219C75.5699 81.8211 75.0192 81.4986 74.3399 81.4986C73.6605 81.4986 73.1099 81.8211 73.1099 82.219C73.1099 82.6169 73.6605 82.9394 74.3399 82.9394Z" fill="#1A3962"/>
<path d="M79.8002 79.0972C80.2802 79.3673 80.2802 79.8176 79.8002 80.1178C79.3202 80.3879 78.5402 80.3879 78.0602 80.1178C77.5802 79.8476 77.5802 79.3973 78.0602 79.0972C78.5402 78.797 79.3202 78.797 79.8002 79.0972Z" fill="#1A3962"/>
<path d="M84.3597 76.4556C84.8397 76.7257 84.8397 77.176 84.3597 77.4762C83.8797 77.7463 83.0998 77.7463 82.6198 77.4762C82.1398 77.206 82.1398 76.7557 82.6198 76.4556C83.0998 76.1554 83.8797 76.1554 84.3597 76.4556Z" fill="#1A3962"/>
<path d="M87.1803 73.814C87.6603 73.5438 88.4403 73.5438 88.9203 73.814C89.4003 74.0842 89.4003 74.5344 88.9203 74.8346C88.4403 75.1047 87.6603 75.1047 87.1803 74.8346C86.7003 74.5344 86.7003 74.0842 87.1803 73.814Z" fill="#1A3962"/>
<path d="M32.3102 100.17C32.7902 99.8995 33.5702 99.8995 34.0502 100.17C34.5302 100.44 34.5302 100.89 34.0502 101.19C33.5702 101.46 32.7902 101.46 32.3102 101.19C31.8302 100.89 31.8302 100.44 32.3102 100.17Z" fill="#1A3962"/>
<path d="M38.64 97.5281C39.12 97.7983 39.12 98.2485 38.64 98.5487C38.16 98.8189 37.38 98.8189 36.9 98.5487C36.42 98.2785 36.42 97.8283 36.9 97.5281C37.38 97.258 38.16 97.258 38.64 97.5281Z" fill="#1A3962"/>
<path d="M43.2001 94.8865C43.6801 95.1567 43.6801 95.607 43.2001 95.9072C42.7201 96.1773 41.9401 96.1773 41.4601 95.9072C40.9801 95.637 40.9801 95.1867 41.4601 94.8865C41.9401 94.6164 42.7201 94.6164 43.2001 94.8865Z" fill="#1A3962"/>
<path d="M46.92 93.4757C47.5993 93.4757 48.15 93.1532 48.15 92.7553C48.15 92.3574 47.5993 92.0349 46.92 92.0349C46.2407 92.0349 45.6899 92.3574 45.6899 92.7553C45.6899 93.1532 46.2407 93.4757 46.92 93.4757Z" fill="#1A3962"/>
<path d="M50.61 89.6034C51.09 89.3332 51.87 89.3332 52.35 89.6034C52.83 89.8736 52.83 90.3238 52.35 90.624C51.87 90.8942 51.09 90.8942 50.61 90.624C50.13 90.3539 50.13 89.9036 50.61 89.6034Z" fill="#1A3962"/>
<path d="M55.1701 86.9618C55.6501 86.6916 56.43 86.6916 56.91 86.9618C57.39 87.232 57.39 87.6822 56.91 87.9824C56.43 88.2526 55.6501 88.2526 55.1701 87.9824C54.6901 87.7123 54.6901 87.262 55.1701 86.9618Z" fill="#1A3962"/>
<path d="M61.47 84.3503C61.95 84.6204 61.95 85.0707 61.47 85.3709C60.99 85.6411 60.21 85.6411 59.73 85.3709L61.47 84.3503Z" fill="#1A3962"/>
<path d="M66.0603 81.7087C66.5403 81.9789 66.5403 82.4291 66.0603 82.7293C65.5803 82.9995 64.8003 82.9995 64.3203 82.7293L66.0603 81.7087Z" fill="#1A3962"/>
<path d="M68.88 79.0671C69.36 78.797 70.14 78.797 70.62 79.0671C71.1 79.3373 71.1 79.7875 70.62 80.0877C70.14 80.3579 69.36 80.3579 68.88 80.0877C68.4 79.7875 68.4 79.3373 68.88 79.0671Z" fill="#1A3962"/>
<path d="M75.18 76.4256C75.66 76.6957 75.66 77.146 75.18 77.4462C74.7 77.7163 73.9199 77.7163 73.4399 77.4462L75.18 76.4256Z" fill="#1A3962"/>
<path d="M29.4901 97.5281C29.9701 97.7983 29.9701 98.2485 29.4901 98.5487C29.0101 98.8189 28.2301 98.8189 27.7501 98.5487C27.2701 98.2786 27.2701 97.8283 27.7501 97.5281H29.4901Z" fill="#1A3962"/>
<path d="M64.53 118.24C65.01 117.97 65.79 117.97 66.27 118.24C66.75 118.511 66.75 118.961 66.27 119.261C65.79 119.531 65.01 119.531 64.53 119.261C64.05 118.991 64.02 118.541 64.53 118.24Z" fill="#1A3962"/>
<path d="M70.83 115.599C71.31 115.869 71.31 116.319 70.83 116.62C70.35 116.89 69.57 116.89 69.09 116.62C68.61 116.349 68.61 115.899 69.09 115.599C69.57 115.329 70.35 115.329 70.83 115.599Z" fill="#1A3962"/>
<path d="M74.5201 114.188C75.1994 114.188 75.7501 113.866 75.7501 113.468C75.7501 113.07 75.1994 112.747 74.5201 112.747C73.8408 112.747 73.29 113.07 73.29 113.468C73.29 113.866 73.8408 114.188 74.5201 114.188Z" fill="#1A3962"/>
<path d="M79.9799 110.316C80.4599 110.586 80.4599 111.036 79.9799 111.336C79.4999 111.607 78.7199 111.607 78.2399 111.336C77.7599 111.066 77.7599 110.616 78.2399 110.316C78.7199 110.046 79.4999 110.046 79.9799 110.316Z" fill="#1A3962"/>
<path d="M83.67 108.905C84.3493 108.905 84.9 108.582 84.9 108.184C84.9 107.787 84.3493 107.464 83.67 107.464C82.9907 107.464 82.4399 107.787 82.4399 108.184C82.4399 108.582 82.9907 108.905 83.67 108.905Z" fill="#1A3962"/>
<path d="M89.1 105.063C89.58 105.333 89.58 105.783 89.1 106.083C88.62 106.353 87.84 106.353 87.36 106.083C86.88 105.813 86.88 105.363 87.36 105.063C87.84 104.762 88.62 104.762 89.1 105.063Z" fill="#1A3962"/>
<path d="M93.66 102.421C94.14 102.691 94.14 103.141 93.66 103.442C93.18 103.712 92.4001 103.712 91.9201 103.442C91.4401 103.171 91.4401 102.721 91.9201 102.421C92.4001 102.121 93.18 102.121 93.66 102.421Z" fill="#1A3962"/>
<path d="M98.2499 99.7795C98.7299 100.05 98.7299 100.5 98.2499 100.8C97.7699 101.07 96.9899 101.07 96.5099 100.8C96.0299 100.53 96.0299 100.08 96.5099 99.7795C96.9899 99.5093 97.7699 99.5093 98.2499 99.7795Z" fill="#1A3962"/>
<path d="M101.94 98.3686C102.619 98.3686 103.17 98.0461 103.17 97.6482C103.17 97.2503 102.619 96.9278 101.94 96.9278C101.261 96.9278 100.71 97.2503 100.71 97.6482C100.71 98.0461 101.261 98.3686 101.94 98.3686Z" fill="#1A3962"/>
<path d="M107.37 94.4963C107.85 94.7665 107.85 95.2167 107.37 95.5169C106.89 95.7871 106.11 95.7871 105.63 95.5169C105.15 95.2467 105.15 94.7965 105.63 94.4963C106.11 94.2261 106.89 94.2261 107.37 94.4963Z" fill="#1A3962"/>
<path d="M111.93 91.8547C112.41 92.1249 112.41 92.5752 111.93 92.8754C111.45 93.1455 110.67 93.1455 110.19 92.8754C109.71 92.6052 109.71 92.1549 110.19 91.8547C110.67 91.5546 111.45 91.5846 111.93 91.8547Z" fill="#1A3962"/>
<path d="M116.52 89.2131C117 89.4833 117 89.9336 116.52 90.2338C116.04 90.5039 115.26 90.5039 114.78 90.2338C114.3 89.9636 114.3 89.5133 114.78 89.2131C115.26 88.943 116.04 88.943 116.52 89.2131Z" fill="#1A3962"/>
<path d="M120.21 87.8023C120.889 87.8023 121.44 87.4798 121.44 87.0819C121.44 86.684 120.889 86.3615 120.21 86.3615C119.531 86.3615 118.98 86.684 118.98 87.0819C118.98 87.4798 119.531 87.8023 120.21 87.8023Z" fill="#1A3962"/>
<path d="M125.64 83.93C126.12 84.2002 126.12 84.6504 125.64 84.9506C125.16 85.2208 124.38 85.2208 123.9 84.9506C123.42 84.6805 123.42 84.2302 123.9 83.93C124.38 83.6598 125.16 83.6598 125.64 83.93Z" fill="#1A3962"/>
<path d="M59.9401 115.599C60.4201 115.329 61.2001 115.329 61.6801 115.599C62.1601 115.869 62.1601 116.319 61.6801 116.62C61.2001 116.89 60.4201 116.89 59.9401 116.62C59.4601 116.349 59.4601 115.899 59.9401 115.599Z" fill="#1A3962"/>
<path d="M66.2699 112.957C66.7499 113.227 66.7499 113.678 66.2699 113.978C65.7899 114.248 65.0099 114.248 64.5299 113.978C64.0499 113.708 64.0499 113.257 64.5299 112.957C65.0099 112.687 65.7899 112.687 66.2699 112.957Z" fill="#1A3962"/>
<path d="M70.83 110.316C71.31 110.586 71.31 111.036 70.83 111.336C70.35 111.607 69.57 111.607 69.09 111.336C68.61 111.066 68.61 110.616 69.09 110.316C69.57 110.046 70.35 110.046 70.83 110.316Z" fill="#1A3962"/>
<path d="M74.5201 108.905C75.1994 108.905 75.7501 108.582 75.7501 108.184C75.7501 107.787 75.1994 107.464 74.5201 107.464C73.8408 107.464 73.29 107.787 73.29 108.184C73.29 108.582 73.8408 108.905 74.5201 108.905Z" fill="#1A3962"/>
<path d="M79.9799 105.063C80.4599 105.333 80.4599 105.783 79.9799 106.083C79.4999 106.353 78.7199 106.353 78.2399 106.083C77.7599 105.813 77.7599 105.363 78.2399 105.063C78.7199 104.762 79.4999 104.762 79.9799 105.063Z" fill="#1A3962"/>
<path d="M84.5399 102.421C85.0199 102.691 85.0199 103.141 84.5399 103.442C84.0599 103.712 83.2799 103.712 82.7999 103.442C82.3199 103.171 82.3199 102.721 82.7999 102.421C83.2799 102.121 84.0599 102.121 84.5399 102.421Z" fill="#1A3962"/>
<path d="M89.1 99.7795C89.58 100.05 89.58 100.5 89.1 100.8C88.62 101.07 87.84 101.07 87.36 100.8C86.88 100.53 86.88 100.08 87.36 99.7795C87.84 99.5093 88.62 99.5093 89.1 99.7795Z" fill="#1A3962"/>
<path d="M93.66 97.1379C94.14 97.4081 94.14 97.8583 93.66 98.1585C93.18 98.4287 92.4001 98.4287 91.9201 98.1585C91.4401 97.8884 91.4401 97.4381 91.9201 97.1379C92.4001 96.8677 93.18 96.8677 93.66 97.1379Z" fill="#1A3962"/>
<path d="M98.2499 94.4963C98.7299 94.7665 98.7299 95.2167 98.2499 95.5169C97.7699 95.7871 96.9899 95.7871 96.5099 95.5169C96.0299 95.2467 96.0299 94.7965 96.5099 94.4963C96.9899 94.2261 97.7699 94.2261 98.2499 94.4963Z" fill="#1A3962"/>
<path d="M102.81 91.8547C103.29 92.1249 103.29 92.5752 102.81 92.8754C102.33 93.1455 101.55 93.1455 101.07 92.8754C100.59 92.6052 100.59 92.1549 101.07 91.8547C101.55 91.5846 102.33 91.5846 102.81 91.8547Z" fill="#1A3962"/>
<path d="M107.37 89.2131C107.85 89.4833 107.85 89.9336 107.37 90.2338C106.89 90.5039 106.11 90.5039 105.63 90.2338C105.15 89.9636 105.15 89.5133 105.63 89.2131C106.11 88.943 106.89 88.943 107.37 89.2131Z" fill="#1A3962"/>
<path d="M111.93 86.5716C112.41 86.8418 112.41 87.292 111.93 87.5922C111.45 87.8624 110.67 87.8624 110.19 87.5922C109.71 87.322 109.71 86.8718 110.19 86.5716C110.67 86.3014 111.45 86.3014 111.93 86.5716Z" fill="#1A3962"/>
<path d="M116.52 83.93C117 84.2002 117 84.6504 116.52 84.9506C116.04 85.2208 115.26 85.2208 114.78 84.9506C114.3 84.6805 114.3 84.2302 114.78 83.93C115.26 83.6598 116.04 83.6598 116.52 83.93Z" fill="#1A3962"/>
<path d="M121.08 81.2884C121.56 81.5586 121.56 82.0089 121.08 82.309C120.6 82.5792 119.82 82.5792 119.34 82.309C118.86 82.0389 118.86 81.5886 119.34 81.2884C119.82 81.0183 120.6 81.0183 121.08 81.2884Z" fill="#1A3962"/>
<path d="M125.64 78.6769C126.12 78.9471 126.12 79.3973 125.64 79.6975C125.16 79.9677 124.38 79.9677 123.9 79.6975C123.42 79.4274 123.42 78.9771 123.9 78.6769C124.38 78.3767 125.16 78.3767 125.64 78.6769Z" fill="#1A3962"/>
<path d="M64.0202 69.1012C63.5402 68.831 63.5402 68.3807 64.0202 68.0805C64.5002 67.8104 65.2801 67.8104 65.7601 68.0805L64.0202 69.1012Z" fill="#16110D"/>
<path d="M70.3197 66.4596C69.8397 66.7298 69.0597 66.7298 68.5797 66.4596C68.0997 66.1894 68.0997 65.7392 68.5797 65.439C69.0597 65.1688 69.8397 65.1688 70.3197 65.439C70.8297 65.7092 70.8297 66.1594 70.3197 66.4596Z" fill="#16110D"/>
<path d="M74.91 62.7974C75.39 63.0676 75.39 63.5178 74.91 63.818C74.43 64.0882 73.6501 64.0882 73.1701 63.818C72.6901 63.5479 72.6901 63.0976 73.1701 62.7974C73.6501 62.5272 74.43 62.5272 74.91 62.7974Z" fill="#16110D"/>
<path d="M79.4696 60.1558C79.9496 60.426 79.9496 60.8762 79.4696 61.1764C78.9896 61.4466 78.2096 61.4466 77.7296 61.1764C77.2496 60.9063 77.2496 60.456 77.7296 60.1558C78.2096 59.8857 78.9896 59.8857 79.4696 60.1558Z" fill="#16110D"/>
<path d="M84.0302 57.5143C84.5102 57.7844 84.5102 58.2347 84.0302 58.5349C83.5502 58.805 82.7702 58.805 82.2902 58.5349C81.8102 58.2647 81.8102 57.8144 82.2902 57.5143C82.7702 57.2441 83.5502 57.2441 84.0302 57.5143Z" fill="#16110D"/>
<path d="M87.7198 56.1034C88.3991 56.1034 88.9498 55.7809 88.9498 55.383C88.9498 54.9851 88.3991 54.6626 87.7198 54.6626C87.0405 54.6626 86.4897 54.9851 86.4897 55.383C86.4897 55.7809 87.0405 56.1034 87.7198 56.1034Z" fill="#16110D"/>
<path d="M93.1801 52.2611C93.6601 52.5313 93.6601 52.9816 93.1801 53.2818C92.7001 53.5519 91.9201 53.5519 91.4401 53.2818C90.9601 53.0116 90.9601 52.5613 91.4401 52.2611C91.9201 51.961 92.7001 51.961 93.1801 52.2611Z" fill="#16110D"/>
<path d="M42.9301 76.9959C42.4501 77.266 41.6701 77.266 41.1901 76.9959C40.7101 76.7257 40.7101 76.2754 41.1901 75.9752C41.6701 75.7051 42.4501 75.7051 42.9301 75.9752C43.4101 76.2754 43.4101 76.7257 42.9301 76.9959Z" fill="#16110D"/>
<path d="M47.4901 74.3543C47.0101 74.6244 46.2301 74.6244 45.7501 74.3543C45.2701 74.0841 45.2701 73.6339 45.7501 73.3337C46.2301 73.0635 47.0101 73.0635 47.4901 73.3337C47.9701 73.6339 47.9701 74.0841 47.4901 74.3543Z" fill="#16110D"/>
<path d="M52.0502 70.7221C52.5302 70.9923 52.5302 71.4426 52.0502 71.7427C51.5702 72.0129 50.7902 72.0129 50.3102 71.7427C49.8302 71.4726 49.8302 71.0223 50.3102 70.7221C50.7902 70.452 51.5702 70.452 52.0502 70.7221Z" fill="#16110D"/>
<path d="M56.64 68.0805C57.12 68.3507 57.12 68.801 56.64 69.1012C56.16 69.3713 55.38 69.3713 54.9 69.1012C54.42 68.831 54.42 68.3807 54.9 68.0805C55.38 67.8104 56.16 67.8104 56.64 68.0805Z" fill="#16110D"/>
<path d="M60.3301 66.6697C61.0094 66.6697 61.5601 66.3472 61.5601 65.9493C61.5601 65.5514 61.0094 65.2289 60.3301 65.2289C59.6508 65.2289 59.1001 65.5514 59.1001 65.9493C59.1001 66.3472 59.6508 66.6697 60.3301 66.6697Z" fill="#16110D"/>
<path d="M65.7601 62.7974C66.2401 63.0676 66.2401 63.5178 65.7601 63.818C65.2801 64.0882 64.5002 64.0882 64.0202 63.818C63.5402 63.5479 63.5402 63.0976 64.0202 62.7974C64.5002 62.5272 65.2801 62.5272 65.7601 62.7974Z" fill="#16110D"/>
<path d="M70.3197 60.1558C70.7997 60.426 70.7997 60.8762 70.3197 61.1764C69.8397 61.4466 69.0597 61.4466 68.5797 61.1764C68.0997 60.9063 68.0997 60.456 68.5797 60.1558C69.0597 59.8857 69.8397 59.8857 70.3197 60.1558Z" fill="#16110D"/>
<path d="M74.91 57.5143C75.39 57.7844 75.39 58.2347 74.91 58.5349C74.43 58.8051 73.6501 58.8051 73.1701 58.5349C72.6901 58.2647 72.6901 57.8145 73.1701 57.5143C73.6501 57.2141 74.43 57.2441 74.91 57.5143Z" fill="#16110D"/>
<path d="M79.4696 54.9027C79.9496 55.1729 79.9496 55.6231 79.4696 55.9233C78.9896 56.1935 78.2096 56.1935 77.7296 55.9233C77.2496 55.6532 77.2496 55.2029 77.7296 54.9027C78.2096 54.6026 78.9896 54.6026 79.4696 54.9027Z" fill="#16110D"/>
<path d="M84.0302 52.2611C84.5102 52.5313 84.5102 52.9816 84.0302 53.2818C83.5502 53.5519 82.7702 53.5519 82.2902 53.2818C81.8102 53.0116 81.8102 52.5613 82.2902 52.2611C82.7702 51.961 83.5502 51.961 84.0302 52.2611Z" fill="#16110D"/>
<path d="M88.5897 49.6196C89.0697 49.8897 89.0697 50.34 88.5897 50.6402C88.1097 50.9103 87.3297 50.9103 86.8497 50.6402C86.3697 50.37 86.3697 49.9197 86.8497 49.6196C87.3297 49.3194 88.1097 49.3194 88.5897 49.6196Z" fill="#16110D"/>
<path d="M29.2196 78.6469C29.6996 78.917 29.6996 79.3673 29.2196 79.6675C28.7396 79.9376 27.9596 79.9376 27.4796 79.6675C26.9996 79.3973 26.9996 78.9471 27.4796 78.6469C27.9596 78.3467 28.7396 78.3467 29.2196 78.6469Z" fill="#16110D"/>
<path d="M33.7802 76.0053C34.2602 76.2754 34.2602 76.7257 33.7802 77.0259C33.3002 77.2961 32.5202 77.2961 32.0402 77.0259C31.5602 76.7557 31.5602 76.3055 32.0402 76.0053C32.5202 75.7051 33.3002 75.7051 33.7802 76.0053Z" fill="#16110D"/>
<path d="M38.37 73.3637C38.85 73.6339 38.85 74.0841 38.37 74.3843C37.89 74.6545 37.11 74.6545 36.63 74.3843C36.15 74.1141 36.15 73.6639 36.63 73.3637C37.11 73.0935 37.89 73.0935 38.37 73.3637Z" fill="#16110D"/>
<path d="M42.9301 70.7221C43.4101 70.9923 43.4101 71.4426 42.9301 71.7427C42.4501 72.0129 41.6701 72.0129 41.1901 71.7427C40.7101 71.4726 40.7101 71.0223 41.1901 70.7221C41.6701 70.452 42.4501 70.452 42.9301 70.7221Z" fill="#16110D"/>
<path d="M47.4901 68.0806C47.9701 68.3507 47.9701 68.801 47.4901 69.1012C47.0101 69.3713 46.2301 69.3713 45.7501 69.1012C45.2701 68.831 45.2701 68.3807 45.7501 68.0806H47.4901Z" fill="#16110D"/>
<path d="M79.47 49.6196C79.95 49.8897 79.95 50.34 79.47 50.6402C78.99 50.9103 78.21 50.9103 77.73 50.6402L79.47 49.6196Z" fill="#16110D"/>
<path d="M84.0301 46.978C84.5101 47.2482 84.5101 47.6984 84.0301 47.9986C83.5501 48.2688 82.77 48.2688 82.29 47.9986L84.0301 46.978Z" fill="#16110D"/>
<path d="M23.7901 77.236C24.4694 77.236 25.0201 76.9135 25.0201 76.5156C25.0201 76.1177 24.4694 75.7952 23.7901 75.7952C23.1107 75.7952 22.5601 76.1177 22.5601 76.5156C22.5601 76.9135 23.1107 77.236 23.7901 77.236Z" fill="#16110D"/>
<path d="M29.2196 73.3637C29.6996 73.6339 29.6996 74.0841 29.2196 74.3843C28.7396 74.6545 27.9596 74.6545 27.4796 74.3843C26.9996 74.1141 26.9996 73.6639 27.4796 73.3637C27.9596 73.0935 28.7396 73.0935 29.2196 73.3637Z" fill="#16110D"/>
<path d="M33.7802 70.7221C34.2602 70.9923 34.2602 71.4426 33.7802 71.7427C33.3002 72.0129 32.5202 72.0129 32.0402 71.7427C31.5602 71.4726 31.5602 71.0223 32.0402 70.7221C32.5202 70.452 33.3002 70.452 33.7802 70.7221Z" fill="#16110D"/>
<path d="M38.37 68.0806C38.85 68.3507 38.85 68.801 38.37 69.1012C37.89 69.3713 37.11 69.3713 36.63 69.1012C36.15 68.831 36.15 68.3807 36.63 68.0806H38.37Z" fill="#16110D"/>
<path d="M20.1 73.3637C20.58 73.6339 20.58 74.0841 20.1 74.3843C19.62 74.6545 18.84 74.6545 18.36 74.3843C17.88 74.1141 17.88 73.6639 18.36 73.3637C18.84 73.0935 19.62 73.0935 20.1 73.3637Z" fill="#16110D"/>
<path d="M23.7901 71.9529C24.4694 71.9529 25.0201 71.6303 25.0201 71.2324C25.0201 70.8346 24.4694 70.5121 23.7901 70.5121C23.1107 70.5121 22.5601 70.8346 22.5601 71.2324C22.5601 71.6303 23.1107 71.9529 23.7901 71.9529Z" fill="#16110D"/>
<path d="M29.2196 68.0805C29.6996 68.3507 29.6996 68.801 29.2196 69.1012C28.7396 69.3713 27.9596 69.3713 27.4796 69.1012C26.9996 68.831 26.9996 68.3807 27.4796 68.0805C27.9596 67.8104 28.7396 67.8104 29.2196 68.0805Z" fill="#16110D"/>
<path d="M20.0399 68.0506C20.5199 68.3207 20.5199 68.771 20.0399 69.0712C19.5599 69.3413 18.7799 69.3413 18.2999 69.0712C17.8199 68.801 17.8199 68.3507 18.2999 68.0506C18.7799 67.7804 19.5599 67.7804 20.0399 68.0506Z" fill="#16110D"/>
<path d="M24.6298 65.409C25.1098 65.6792 25.1098 66.1294 24.6298 66.4296C24.1498 66.6998 23.3698 66.6998 22.8898 66.4296C22.4098 66.1594 22.4098 65.7092 22.8898 65.409H24.6298Z" fill="#16110D"/>
<path d="M96.0299 49.6496C96.5099 49.3794 97.2899 49.3794 97.7699 49.6496C98.25 49.9197 98.25 50.37 97.7699 50.6702C97.2899 50.9403 96.5099 50.9403 96.0299 50.6702C95.5499 50.37 95.5499 49.9197 96.0299 49.6496Z" fill="#16110D"/>
<path d="M92.3399 48.2087C93.0192 48.2087 93.5699 47.8862 93.5699 47.4883C93.5699 47.0904 93.0192 46.7679 92.3399 46.7679C91.6605 46.7679 91.1099 47.0904 91.1099 47.4883C91.1099 47.8862 91.6605 48.2087 92.3399 48.2087Z" fill="#16110D"/>
<path d="M96.8999 45.5671C97.5792 45.5671 98.1299 45.2446 98.1299 44.8467C98.1299 44.4489 97.5792 44.1263 96.8999 44.1263C96.2206 44.1263 95.6699 44.4489 95.6699 44.8467C95.6699 45.2446 96.2206 45.5671 96.8999 45.5671Z" fill="#16110D"/>
<path d="M88.6199 44.3664C89.0999 44.6366 89.0999 45.0869 88.6199 45.387C88.1399 45.6572 87.3599 45.6572 86.8799 45.387L88.6199 44.3664Z" fill="#16110D"/>
<path d="M63.9302 40.0439V9.87589L81.1202 19.8118V49.9798L63.9302 40.0439Z" fill="#4B8EC8"/>
<path d="M63.9302 9.8759L79.6502 0.840481L96.8402 10.7764L81.1502 19.8118L63.9302 9.8759Z" fill="#4B8EC8"/>
<path d="M64.1997 14.0784L79.6497 5.19307L96.8397 15.129L80.9997 23.7441L64.1997 14.0784Z" fill="white"/>
<path d="M79.65 0L63.21 9.45564V40.4641L81.12 50.8203L97.56 41.3646V10.3562L79.65 0ZM80.4 48.719L64.65 39.6236V11.1366L80.4 20.2321V48.719ZM65.4 9.87589L79.65 1.68099L95.4 10.7764L81.15 18.9713L65.4 9.87589Z" fill="#16110D"/>
<path d="M41.46 52.5913V34.6407L58.65 44.5766V62.5273L41.46 52.5913Z" fill="#4B8EC8"/>
<path d="M41.46 34.6407L57.18 25.6052L74.37 35.5412L58.65 44.5766L41.46 34.6407Z" fill="#4B8EC8"/>
<path d="M41.6997 38.8432L57.1797 29.9879L74.3697 39.8938L58.4997 48.5389L41.6997 38.8432Z" fill="white"/>
<path d="M57.1798 24.7648L40.7397 34.2204V53.0116L58.6498 63.3678L75.0897 53.9121V35.1209L57.1798 24.7648ZM57.9298 61.2665L42.1798 52.1711V35.9014L57.9298 44.9968V61.2665ZM42.9298 34.6407L57.1798 26.4458L72.9298 35.5412L58.6798 43.7361L42.9298 34.6407Z" fill="#16110D"/>
<path d="M18.8101 65.379V57.3942L36.0001 67.3301V75.3149L18.8101 65.379Z" fill="#4B8EC8"/>
<path d="M18.8101 57.3942L34.5001 48.3588L51.69 58.2947L36.0001 67.3301L18.8101 57.3942Z" fill="#4B8EC8"/>
<path d="M19.0498 61.5967L34.4998 52.7114L51.6898 62.6473L35.8498 71.2925L19.0498 61.5967Z" fill="white"/>
<path d="M34.5001 47.5183L18.0601 56.9739V65.7992L35.9701 76.1554L52.41 66.6997V57.8745L34.5001 47.5183ZM35.2801 74.0541L19.5301 64.9587V58.655L35.2801 67.7504V74.0541ZM20.2501 57.3942L34.5001 49.1993L50.2501 58.2947L36.0001 66.4896L20.2501 57.3942Z" fill="#16110D"/>
<path d="M123.6 74.6845C123.63 74.6845 123.63 74.6845 123.6 74.6845C125.46 70.9023 123.6 68.801 123.6 68.801L120.39 69.7916L89.0402 51.6608C86.1902 50.0098 81.2402 50.2199 77.9402 52.1111L7.83022 92.6052C5.79022 91.2844 3.90022 90.8341 2.73022 92.3951C-0.839778 97.1979 2.73022 100.23 2.73022 100.23C3.00022 100.47 3.30021 100.71 3.69021 100.95L36.6002 119.952C39.4502 121.602 44.4002 121.392 47.7002 119.501L121.14 77.0559C122.4 76.3955 123.21 75.555 123.6 74.6845Z" fill="#4B8EC8"/>
<path d="M41.4302 121.512C39.5402 121.512 37.7402 121.122 36.4202 120.372L3.51014 101.37C3.12014 101.13 2.76014 100.89 2.49014 100.59C2.46014 100.56 -1.31986 97.2579 2.46014 92.2149C3.24014 91.1643 4.83014 90.2938 7.89014 92.1849L77.7901 51.8109C81.1801 49.8597 86.3402 49.6496 89.2802 51.3606L120.48 69.4013L123.75 68.3807L123.93 68.5609C124.02 68.6509 125.97 70.9023 123.99 74.8646L123.63 74.7145L123.99 74.8946C123.54 75.8552 122.64 76.7557 121.38 77.5062L47.9401 119.951C46.0801 120.972 43.7102 121.512 41.4302 121.512ZM4.68015 91.8547C3.72015 91.8547 3.27014 92.4251 3.09014 92.6952C-0.209864 97.1079 2.88015 99.8695 3.03015 99.9896C3.30015 100.26 3.60015 100.47 3.93015 100.65L36.8401 119.651C39.5701 121.212 44.3702 121.032 47.5202 119.201L120.96 76.7557C122.07 76.1254 122.85 75.3449 123.24 74.5044C124.65 71.6227 123.81 69.8516 123.45 69.2813L120.36 70.2419L88.8302 52.021C86.1002 50.46 81.3002 50.6402 78.1502 52.4712L7.83015 93.0855L7.62017 92.9654C6.30017 92.1549 5.34015 91.8547 4.68015 91.8547Z" fill="#140F0C"/>
<path d="M36.6304 116.469L3.72043 97.4681C0.870435 95.8171 1.23042 92.9654 4.53042 91.0443L77.9704 48.599C81.2404 46.7079 86.2204 46.4977 89.0704 48.1487L121.98 67.15C124.83 68.801 124.47 71.6527 121.17 73.5739L47.7304 116.019C44.4304 117.91 39.4804 118.12 36.6304 116.469Z" fill="#4B8EC8"/>
<path d="M36.6002 117.88L3.69015 98.879C0.840145 97.228 1.20017 94.3763 4.50017 92.4551L77.9401 50.0098C81.2101 48.1187 86.1901 47.9086 89.0401 49.5595L121.95 68.5609C124.8 70.2119 124.44 73.0635 121.14 74.9847L47.7002 117.43C44.4002 119.321 39.4202 119.531 36.6002 117.88Z" fill="white"/>
<path d="M41.4304 118C39.5404 118 37.7404 117.61 36.4204 116.83L3.51036 97.8283C2.13036 97.0478 1.38037 95.9372 1.38037 94.7064C1.38037 93.2356 2.43036 91.7947 4.29036 90.714L77.7304 48.2687C81.1204 46.3176 86.2804 46.1074 89.2204 47.8185L122.13 66.8198C123.51 67.6003 124.26 68.7109 124.26 69.9417C124.26 71.4126 123.21 72.8534 121.35 73.934L47.9104 116.379C46.0804 117.43 43.7104 118 41.4304 118ZM84.2403 47.4583C82.1404 47.4583 79.8904 47.9686 78.1504 48.9892L4.71036 91.4345C3.12036 92.365 2.19036 93.5658 2.19036 94.7064C2.19036 95.637 2.79038 96.5075 3.90038 97.1379L36.8104 116.139C39.5404 117.7 44.3404 117.52 47.4904 115.689L120.93 73.2436C122.52 72.3131 123.45 71.1124 123.45 69.9717C123.45 69.0411 122.85 68.1706 121.74 67.5402L88.8304 48.5389C87.6304 47.7885 85.9803 47.4583 84.2403 47.4583Z" fill="#140F0C"/>
<path d="M118.53 67.9905L105.45 60.426L104.67 60.8763C103.35 61.6267 101.22 61.6267 99.9005 60.8763C98.5805 60.1258 98.5805 58.8651 99.9005 58.1146L100.68 57.6644L87.6005 50.0999C85.6505 48.9592 82.5005 48.9592 80.5505 50.0999L7.11045 92.5152C5.16045 93.6558 5.16045 95.4569 7.11045 96.5976L38.0404 114.458C39.9904 115.599 43.1404 115.599 45.0904 114.458L118.53 72.043C120.48 70.9623 120.48 69.1312 118.53 67.9905Z" fill="#4B8EC8"/>
<path d="M41.5805 115.749C40.2305 115.749 38.8805 115.449 37.8605 114.848L6.93048 96.9878C5.85048 96.3574 5.25049 95.5169 5.25049 94.5864C5.25049 93.6558 5.85048 92.8153 6.93048 92.1849L80.3705 49.7696C82.4405 48.5689 85.7705 48.5689 87.8405 49.7696L101.52 57.6644L100.11 58.4748C99.6005 58.775 99.3305 59.1352 99.3305 59.4955C99.3305 59.8557 99.6005 60.2159 100.11 60.5161C101.28 61.2065 103.29 61.2065 104.49 60.5161L105.48 59.9457L118.74 67.6003C119.82 68.2307 120.42 69.0712 120.42 70.0017C120.42 70.9323 119.82 71.7728 118.74 72.4031L45.3305 114.848C44.2805 115.449 42.9305 115.749 41.5805 115.749ZM84.0905 49.7096C82.8905 49.7096 81.6905 49.9798 80.7605 50.4901L7.3205 92.9054C6.5105 93.3857 6.06047 93.986 6.06047 94.5864C6.06047 95.2168 6.5105 95.8171 7.3205 96.2674L38.2505 114.128C40.0805 115.179 43.0805 115.179 44.9105 114.128L118.35 71.7128C119.16 71.2325 119.61 70.6321 119.61 70.0317C119.61 69.4014 119.16 68.801 118.35 68.3507L105.48 60.9063L104.88 61.2365C103.44 62.077 101.16 62.077 99.6905 61.2365C98.9105 60.7862 98.4904 60.1859 98.4904 59.4955C98.4904 58.8351 98.9105 58.2047 99.6905 57.7544L99.8705 57.6344L87.4205 50.4301C86.4905 49.9498 85.2905 49.7096 84.0905 49.7096Z" fill="#140F0C"/>
<path d="M22.5902 110.916L18.7802 108.725C18.4502 108.545 18.1802 108.034 18.1802 107.584C18.1802 107.134 18.4502 106.954 18.7802 107.134L22.5902 109.325C22.9202 109.505 23.1902 110.016 23.1902 110.466C23.1902 110.886 22.9202 111.096 22.5902 110.916Z" fill="#140F0C"/>
<path d="M124.29 69.9717L123.48 72.163L121.17 73.6039L48.0599 115.359L45.8099 117.31C42.7799 122.233 36.1499 119.771 36.1499 119.771L38.3399 120.732L41.3399 121.032L42.6599 120.912L42.2699 121.122L44.7899 120.732L48.2699 119.381L120.03 77.6863L122.79 75.9453L124.32 72.8234L124.41 70.7822L124.29 69.9717Z" fill="#140F0C"/>
<path d="M47.2803 84.1702L49.9803 82.6092C51.0903 81.9488 52.1103 81.6787 53.0403 81.7387C53.9403 81.7987 55.0203 82.189 56.2503 82.8794L56.5803 83.0595C57.4503 83.5698 58.0503 84.0201 58.4103 84.4103C58.7403 84.8005 58.8303 85.1608 58.6203 85.551C59.9103 85.2508 61.5603 85.6711 63.5703 86.8418L63.8703 87.0219C65.3403 87.8924 66.1803 88.6429 66.3903 89.2732C66.6003 89.9036 66.1803 90.534 65.1003 91.1343L62.1903 92.8153L47.2803 84.1702ZM54.5403 83.9C54.5103 83.9 54.5103 83.87 54.4803 83.87C53.4903 83.2997 52.7103 83.0595 52.2003 83.1496C51.9303 83.2096 51.6603 83.2997 51.3303 83.5098L50.4603 84.0201L55.2603 86.7817L56.2503 86.2114C56.5803 86.0013 56.7903 85.8512 56.8203 85.7011C56.8503 85.551 56.7303 85.3709 56.4603 85.1308C56.1903 84.8906 55.6803 84.5904 54.9303 84.1401L54.5403 83.9ZM61.5603 87.6823C60.6003 87.1119 59.8503 86.7817 59.3103 86.6617C58.7703 86.5416 58.2603 86.6016 57.8103 86.8718L56.6403 87.5322L62.5503 90.9542L63.6303 90.3239C64.1403 90.0237 64.2603 89.7235 64.0503 89.3933C63.8403 89.0631 63.1803 88.5828 62.0703 87.9524L61.5603 87.6823Z" fill="white"/>
<path d="M59.2802 77.236L61.0202 76.2154L72.0901 82.6092C73.5001 83.4197 74.2801 84.1401 74.4901 84.7405C74.7001 85.3709 74.2502 85.9713 73.1702 86.6016C72.0902 87.232 71.0102 87.4721 69.9302 87.3821C68.8502 87.262 67.6201 86.8118 66.2101 86.0013L55.1401 79.6074L56.8802 78.5868L67.9202 84.9506C68.9102 85.521 69.5401 85.8512 69.8401 85.9112C70.1401 85.9712 70.3501 86.0013 70.5601 86.0313C70.9201 86.0613 71.3102 85.9712 71.7002 85.7311C72.0902 85.491 72.2701 85.2808 72.2101 85.0407C72.1501 84.8005 71.9101 84.5304 71.4601 84.2602C71.0101 83.9901 70.6202 83.7499 70.3502 83.5998L59.2802 77.236Z" fill="white"/>
<path d="M67.3803 72.5833L69.0903 71.5927L75.3304 77.9865L81.6004 81.5886L79.8603 82.6092L73.5903 78.9771L62.3403 75.465L64.0504 74.4744L71.9103 76.9959L71.9403 76.9659L67.3803 72.5833Z" fill="white"/>
<path d="M44.4302 84.1702L47.1302 82.6092C48.2402 81.9488 49.2602 81.6787 50.1902 81.7387C51.0902 81.7987 52.1702 82.189 53.4002 82.8794L53.7302 83.0595C54.6002 83.5698 55.2002 84.0201 55.5602 84.4103C55.8902 84.8005 55.9802 85.1608 55.7702 85.551C57.0602 85.2508 58.7102 85.6711 60.7202 86.8418L61.0202 87.0219C62.4902 87.8924 63.3301 88.6429 63.5401 89.2732C63.7501 89.9036 63.3302 90.534 62.2502 91.1343L59.3401 92.8153L44.4302 84.1702ZM51.6902 83.9C51.6602 83.9 51.6602 83.87 51.6302 83.87C50.6402 83.2997 49.8602 83.0595 49.3502 83.1496C49.0802 83.2096 48.8102 83.2997 48.4802 83.5098L47.6102 84.0201L52.4102 86.7817L53.4002 86.2114C53.7302 86.0013 53.9402 85.8512 53.9702 85.7011C54.0002 85.551 53.8802 85.3709 53.6102 85.1308C53.3402 84.8906 52.8302 84.5904 52.0802 84.1401L51.6902 83.9ZM58.7102 87.6823C57.7502 87.1119 57.0002 86.7817 56.4602 86.6617C55.9202 86.5416 55.4102 86.6016 54.9602 86.8718L53.7902 87.5622L59.7002 90.9843L60.7802 90.3539C61.2902 90.0537 61.4102 89.7535 61.2002 89.4233C60.9902 89.0931 60.3302 88.6128 59.2202 87.9825L58.7102 87.6823Z" fill="#130E0C"/>
<path d="M56.4301 77.236L58.1701 76.2154L69.24 82.6092C70.65 83.4197 71.43 84.1401 71.64 84.7405C71.85 85.3709 71.4001 85.9713 70.3201 86.6016C69.2401 87.232 68.1601 87.4721 67.0801 87.3821C66.0001 87.262 64.77 86.8118 63.36 86.0013L52.29 79.6074L54.0301 78.5868L65.0701 84.9506C66.0601 85.521 66.69 85.8512 66.99 85.9112C67.26 85.9712 67.5 86.0013 67.71 86.0313C68.07 86.0613 68.4601 85.9712 68.8501 85.7311C69.2401 85.491 69.42 85.2808 69.36 85.0407C69.3 84.8005 69.06 84.5304 68.61 84.2602C68.16 83.9901 67.7701 83.7499 67.5001 83.5998L56.4301 77.236Z" fill="#130E0C"/>
<path d="M64.5 72.5833L66.21 71.5927L72.45 77.9865L78.72 81.5886L76.98 82.6092L70.71 78.9771L59.46 75.465L61.17 74.4744L69.03 76.9959L69.06 76.9659L64.5 72.5833Z" fill="#130E0C"/>
</svg>
