<svg width="85" height="128" viewBox="0 0 85 128" fill="none" xmlns="http://www.w3.org/2000/svg">
<path d="M50.3394 121.68C50.8155 121.95 50.8155 122.4 50.3394 122.7C49.8634 122.97 49.0899 122.97 48.6139 122.7C48.1378 122.43 48.1378 121.98 48.6139 121.68C49.0899 121.41 49.8634 121.41 50.3394 121.68Z" fill="#1A3962"/>
<path d="M54.8614 119.071C55.3375 119.341 55.3375 119.791 54.8614 120.091C54.3854 120.361 53.6119 120.361 53.1358 120.091C52.6598 119.821 52.6598 119.371 53.1358 119.071C53.6119 118.772 54.3854 118.772 54.8614 119.071Z" fill="#1A3962"/>
<path d="M59.4137 116.433C59.8897 116.703 59.8897 117.152 59.4137 117.452C58.9376 117.722 58.1641 117.722 57.6881 117.452C57.212 117.182 57.212 116.733 57.6881 116.433C58.1641 116.133 58.9376 116.133 59.4137 116.433Z" fill="#1A3962"/>
<path d="M63.9356 113.794C64.4117 114.064 64.4117 114.514 63.9356 114.813C63.4596 115.083 62.6861 115.083 62.21 114.813C61.734 114.544 61.734 114.094 62.21 113.794C62.6861 113.494 63.4596 113.494 63.9356 113.794Z" fill="#1A3962"/>
<path d="M41.2355 121.65C41.7115 121.92 41.7115 122.37 41.2355 122.67C40.7594 122.94 39.9859 122.94 39.5099 122.67C39.0338 122.4 39.0338 121.95 39.5099 121.65C39.9859 121.38 40.7594 121.38 41.2355 121.65Z" fill="#1A3962"/>
<path d="M44.8946 120.241C45.5683 120.241 46.1144 119.919 46.1144 119.521C46.1144 119.124 45.5683 118.802 44.8946 118.802C44.221 118.802 43.6748 119.124 43.6748 119.521C43.6748 119.919 44.221 120.241 44.8946 120.241Z" fill="#1A3962"/>
<path d="M49.4469 117.632C50.1206 117.632 50.6667 117.31 50.6667 116.912C50.6667 116.515 50.1206 116.193 49.4469 116.193C48.7732 116.193 48.2271 116.515 48.2271 116.912C48.2271 117.31 48.7732 117.632 49.4469 117.632Z" fill="#1A3962"/>
<path d="M54.8316 113.764C55.3077 114.034 55.3077 114.484 54.8316 114.784C54.3556 115.053 53.5821 115.053 53.106 114.784C52.63 114.514 52.63 114.064 53.106 113.764C53.5821 113.494 54.3556 113.494 54.8316 113.764Z" fill="#1A3962"/>
<path d="M59.354 111.125C59.8301 111.395 59.8301 111.845 59.354 112.145C58.878 112.415 58.1045 112.415 57.6285 112.145C57.1525 111.875 57.1525 111.425 57.6285 111.125C58.1045 110.856 58.878 110.856 59.354 111.125Z" fill="#1A3962"/>
<path d="M63.9059 108.487C64.3819 108.756 64.3819 109.206 63.9059 109.506C63.4298 109.776 62.6563 109.776 62.1803 109.506C61.7042 109.236 61.7042 108.786 62.1803 108.487C62.6265 108.217 63.4298 108.217 63.9059 108.487Z" fill="#1A3962"/>
<path d="M36.7135 119.041C37.1895 119.311 37.1895 119.761 36.7135 120.061C36.2375 120.331 35.4639 120.331 34.9879 120.061C34.5119 119.791 34.5119 119.341 34.9879 119.041C35.4639 118.742 36.2375 118.742 36.7135 119.041Z" fill="#1A3962"/>
<path d="M40.3727 117.632C41.0464 117.632 41.5924 117.31 41.5924 116.912C41.5924 116.515 41.0464 116.193 40.3727 116.193C39.699 116.193 39.1528 116.515 39.1528 116.912C39.1528 117.31 39.699 117.632 40.3727 117.632Z" fill="#1A3962"/>
<path d="M45.7872 113.764C46.2632 114.034 46.2632 114.484 45.7872 114.784C45.3112 115.053 44.5376 115.053 44.0616 114.784C43.5856 114.514 43.5856 114.064 44.0616 113.764C44.5079 113.494 45.3112 113.494 45.7872 113.764Z" fill="#1A3962"/>
<path d="M50.3097 111.125C50.7857 111.395 50.7857 111.845 50.3097 112.145C49.8336 112.415 49.0601 112.415 48.5841 112.145C48.108 111.875 48.108 111.425 48.5841 111.125C49.0601 110.856 49.8336 110.856 50.3097 111.125Z" fill="#1A3962"/>
<path d="M54.8316 108.487C55.3077 108.756 55.3077 109.206 54.8316 109.506C54.3556 109.776 53.5821 109.776 53.106 109.506C52.63 109.236 52.63 108.786 53.106 108.487C53.5821 108.217 54.3556 108.217 54.8316 108.487Z" fill="#1A3962"/>
<path d="M59.354 105.848C59.8301 106.118 59.8301 106.568 59.354 106.867C58.878 107.137 58.1045 107.137 57.6285 106.867C57.1525 106.597 57.1525 106.148 57.6285 105.848C58.1045 105.578 58.878 105.578 59.354 105.848Z" fill="#1A3962"/>
<path d="M32.191 116.403C32.667 116.673 32.667 117.122 32.191 117.422C31.715 117.692 30.9414 117.692 30.4654 117.422C29.9894 117.152 29.9894 116.703 30.4654 116.403C30.9414 116.103 31.715 116.103 32.191 116.403Z" fill="#1A3962"/>
<path d="M36.7135 113.764C37.1895 114.034 37.1895 114.484 36.7135 114.784C36.2375 115.053 35.4639 115.053 34.9879 114.784C34.5119 114.514 34.5119 114.064 34.9879 113.764C35.4639 113.494 36.2375 113.494 36.7135 113.764Z" fill="#1A3962"/>
<path d="M40.3727 112.355C41.0464 112.355 41.5924 112.032 41.5924 111.635C41.5924 111.238 41.0464 110.915 40.3727 110.915C39.699 110.915 39.1528 111.238 39.1528 111.635C39.1528 112.032 39.699 112.355 40.3727 112.355Z" fill="#1A3962"/>
<path d="M45.7872 108.487C46.2632 108.756 46.2632 109.206 45.7872 109.506C45.3112 109.776 44.5376 109.776 44.0616 109.506C43.5856 109.236 43.5856 108.786 44.0616 108.487C44.5079 108.217 45.3112 108.217 45.7872 108.487Z" fill="#1A3962"/>
<path d="M50.3097 105.848C50.7857 106.118 50.7857 106.568 50.3097 106.867C49.8336 107.137 49.0601 107.137 48.5841 106.867C48.108 106.597 48.108 106.148 48.5841 105.848C49.0601 105.578 49.8336 105.578 50.3097 105.848Z" fill="#1A3962"/>
<path d="M54.8316 103.209C55.3077 103.479 55.3077 103.929 54.8316 104.229C54.3556 104.528 53.5821 104.499 53.106 104.229C52.63 103.959 52.63 103.509 53.106 103.209C53.5821 102.939 54.3556 102.939 54.8316 103.209Z" fill="#1A3962"/>
<path d="M59.354 100.57C59.8301 100.84 59.8301 101.29 59.354 101.59C58.878 101.86 58.1045 101.86 57.6285 101.59C57.1525 101.32 57.1525 100.87 57.6285 100.57C58.1045 100.271 58.878 100.301 59.354 100.57Z" fill="#1A3962"/>
<path d="M27.6685 113.764C28.1445 114.034 28.1445 114.484 27.6685 114.784C27.1925 115.083 26.419 115.053 25.943 114.784C25.4669 114.514 25.4669 114.064 25.943 113.764C26.3892 113.494 27.1925 113.494 27.6685 113.764Z" fill="#1A3962"/>
<path d="M32.191 111.125C32.667 111.395 32.667 111.845 32.191 112.145C31.715 112.415 30.9414 112.415 30.4654 112.145C29.9894 111.875 29.9894 111.425 30.4654 111.125C30.9414 110.856 31.715 110.856 32.191 111.125Z" fill="#1A3962"/>
<path d="M36.7135 108.487C37.1895 108.756 37.1895 109.206 36.7135 109.506C36.2375 109.776 35.4639 109.776 34.9879 109.506C34.5119 109.236 34.5119 108.786 34.9879 108.487C35.4639 108.217 36.2375 108.217 36.7135 108.487Z" fill="#1A3962"/>
<path d="M40.3727 107.077C41.0464 107.077 41.5924 106.755 41.5924 106.358C41.5924 105.96 41.0464 105.638 40.3727 105.638C39.699 105.638 39.1528 105.96 39.1528 106.358C39.1528 106.755 39.699 107.077 40.3727 107.077Z" fill="#1A3962"/>
<path d="M45.7872 103.209C46.2632 103.479 46.2632 103.929 45.7872 104.229C45.3112 104.498 44.5376 104.498 44.0616 104.229C43.5856 103.959 43.5856 103.509 44.0616 103.209C44.5079 102.939 45.3112 102.939 45.7872 103.209Z" fill="#1A3962"/>
<path d="M50.3097 100.57C50.7857 100.84 50.7857 101.29 50.3097 101.59C49.8336 101.86 49.0601 101.86 48.5841 101.59C48.108 101.32 48.108 100.87 48.5841 100.57C49.0601 100.301 49.8336 100.301 50.3097 100.57Z" fill="#1A3962"/>
<path d="M54.8316 97.9318C55.3077 98.2016 55.3077 98.6514 54.8316 98.9513C54.3556 99.2211 53.5821 99.2211 53.106 98.9513C52.63 98.6814 52.63 98.2316 53.106 97.9318C53.5821 97.6619 54.3556 97.6619 54.8316 97.9318Z" fill="#1A3962"/>
<path d="M59.354 95.293C59.8301 95.5628 59.8301 96.0126 59.354 96.3125C58.878 96.5824 58.1045 96.5824 57.6285 96.3125C57.1525 96.0426 57.1525 95.5928 57.6285 95.293C58.1045 95.0231 58.878 95.0231 59.354 95.293Z" fill="#1A3962"/>
<path d="M27.6685 108.487C28.1445 108.756 28.1445 109.206 27.6685 109.506C27.1925 109.776 26.419 109.776 25.943 109.506C25.4669 109.236 25.4669 108.786 25.943 108.487C26.3892 108.217 27.1925 108.217 27.6685 108.487Z" fill="#1A3962"/>
<path d="M32.191 105.848C32.667 106.118 32.667 106.568 32.191 106.867C31.715 107.137 30.9414 107.137 30.4654 106.867C29.9894 106.597 29.9894 106.148 30.4654 105.848C30.9414 105.578 31.715 105.578 32.191 105.848Z" fill="#1A3962"/>
<path d="M36.7135 103.209C37.1895 103.479 37.1895 103.929 36.7135 104.229C36.2375 104.499 35.4639 104.499 34.9879 104.229C34.5119 103.959 34.5119 103.509 34.9879 103.209C35.4639 102.909 36.2375 102.939 36.7135 103.209Z" fill="#1A3962"/>
<path d="M40.3727 101.8C41.0464 101.8 41.5924 101.478 41.5924 101.08C41.5924 100.683 41.0464 100.36 40.3727 100.36C39.699 100.36 39.1528 100.683 39.1528 101.08C39.1528 101.478 39.699 101.8 40.3727 101.8Z" fill="#1A3962"/>
<path d="M45.7872 97.9318C46.2632 98.2016 46.2632 98.6514 45.7872 98.9513C45.3112 99.2211 44.5376 99.2211 44.0616 98.9513C43.5856 98.6814 43.5856 98.2316 44.0616 97.9318C44.5079 97.6619 45.3112 97.6619 45.7872 97.9318Z" fill="#1A3962"/>
<path d="M50.3097 95.293C50.7857 95.5628 50.7857 96.0126 50.3097 96.3125C49.8336 96.5824 49.0601 96.5824 48.5841 96.3125C48.108 96.0426 48.108 95.5928 48.5841 95.293C49.0601 95.0231 49.8336 95.0231 50.3097 95.293Z" fill="#1A3962"/>
<path d="M54.8316 92.6843C55.3077 92.9542 55.3077 93.4039 54.8316 93.7038C54.3556 93.9737 53.5821 93.9737 53.106 93.7038C52.63 93.4339 52.63 92.9842 53.106 92.6843C53.5821 92.3844 54.3556 92.3844 54.8316 92.6843Z" fill="#1A3962"/>
<path d="M59.354 91.0351C58.878 91.305 58.1045 91.305 57.6285 91.0351C57.1525 90.7652 57.1525 90.3154 57.6285 90.0156C58.1045 89.7457 58.878 89.7457 59.354 90.0156V91.0351Z" fill="#1A3962"/>
<path d="M27.6685 103.209C28.1445 103.479 28.1445 103.929 27.6685 104.229C27.1925 104.498 26.419 104.498 25.943 104.229C25.4669 103.959 25.4669 103.509 25.943 103.209C26.3892 102.939 27.1925 102.939 27.6685 103.209Z" fill="#1A3962"/>
<path d="M31.3282 101.8C32.0018 101.8 32.548 101.478 32.548 101.08C32.548 100.683 32.0018 100.36 31.3282 100.36C30.6545 100.36 30.1084 100.683 30.1084 101.08C30.1084 101.478 30.6545 101.8 31.3282 101.8Z" fill="#1A3962"/>
<path d="M36.7135 97.9318C37.1895 98.2016 37.1895 98.6514 36.7135 98.9513C36.2375 99.2211 35.4639 99.2211 34.9879 98.9513C34.5119 98.6814 34.5119 98.2316 34.9879 97.9318C35.4639 97.6619 36.2375 97.6619 36.7135 97.9318Z" fill="#1A3962"/>
<path d="M40.3727 96.5225C41.0464 96.5225 41.5924 96.2003 41.5924 95.8028C41.5924 95.4054 41.0464 95.0832 40.3727 95.0832C39.699 95.0832 39.1528 95.4054 39.1528 95.8028C39.1528 96.2003 39.699 96.5225 40.3727 96.5225Z" fill="#1A3962"/>
<path d="M45.7872 92.6843C46.2632 92.9542 46.2632 93.4039 45.7872 93.7038C45.3112 93.9737 44.5376 93.9737 44.0616 93.7038C43.5856 93.4339 43.5856 92.9842 44.0616 92.6843C44.5079 92.3844 45.3112 92.3844 45.7872 92.6843Z" fill="#1A3962"/>
<path d="M50.3097 90.0456C50.7857 90.3154 50.7857 90.7652 50.3097 91.0651C49.8336 91.335 49.0601 91.335 48.5841 91.0651C48.108 90.7952 48.108 90.3454 48.5841 90.0456C49.0601 89.7457 49.8336 89.7457 50.3097 90.0456Z" fill="#1A3962"/>
<path d="M54.8316 87.4068C55.3077 87.6766 55.3077 88.1264 54.8316 88.4263C54.3556 88.6961 53.5821 88.6961 53.106 88.4263C52.63 88.1564 52.63 87.7066 53.106 87.4068C53.5821 87.1069 54.3556 87.1069 54.8316 87.4068Z" fill="#1A3962"/>
<path d="M22.2539 101.8C22.9276 101.8 23.4738 101.478 23.4738 101.08C23.4738 100.683 22.9276 100.36 22.2539 100.36C21.5803 100.36 21.0342 100.683 21.0342 101.08C21.0342 101.478 21.5803 101.8 22.2539 101.8Z" fill="#1A3962"/>
<path d="M27.6685 97.9318C28.1445 98.2016 28.1445 98.6514 27.6685 98.9513C27.1925 99.2211 26.419 99.2211 25.943 98.9513C25.4669 98.6814 25.4669 98.2316 25.943 97.9318C26.3892 97.6619 27.1925 97.6619 27.6685 97.9318Z" fill="#1A3962"/>
<path d="M32.191 95.293C32.667 95.5628 32.667 96.0126 32.191 96.3125C31.715 96.5824 30.9414 96.5824 30.4654 96.3125C29.9894 96.0426 29.9894 95.5928 30.4654 95.293C30.9414 95.0231 31.715 95.0231 32.191 95.293Z" fill="#1A3962"/>
<path d="M36.7135 92.6843C37.1895 92.9542 37.1895 93.4039 36.7135 93.7038C36.2375 93.9737 35.4639 93.9737 34.9879 93.7038C34.5119 93.4339 34.5119 92.9842 34.9879 92.6843C35.4639 92.3844 36.2375 92.3844 36.7135 92.6843Z" fill="#1A3962"/>
<path d="M41.2355 90.0456C41.7115 90.3154 41.7115 90.7652 41.2355 91.0651C40.7594 91.335 39.9859 91.335 39.5099 91.0651C39.0338 90.7952 39.0338 90.3454 39.5099 90.0456C39.9859 89.7457 40.7594 89.7457 41.2355 90.0456Z" fill="#1A3962"/>
<path d="M45.7872 87.4068C46.2632 87.6766 46.2632 88.1264 45.7872 88.4263C45.3112 88.6961 44.5376 88.6961 44.0616 88.4263C43.5856 88.1564 43.5856 87.7066 44.0616 87.4068C44.5079 87.1069 45.3112 87.1069 45.7872 87.4068Z" fill="#1A3962"/>
<path d="M50.3097 84.7681C50.7857 85.038 50.7857 85.4878 50.3097 85.7876C49.8336 86.0575 49.0601 86.0575 48.5841 85.7876C48.108 85.5178 48.108 85.068 48.5841 84.7681C49.0601 84.4983 49.8336 84.4983 50.3097 84.7681Z" fill="#1A3962"/>
<path d="M18.5948 97.9318C19.0708 98.2016 19.0708 98.6514 18.5948 98.9513C18.1187 99.2211 17.3452 99.2211 16.8692 98.9513C16.3932 98.6814 16.3932 98.2316 16.8692 97.9318C17.3452 97.6619 18.1187 97.6619 18.5948 97.9318Z" fill="#1A3962"/>
<path d="M23.1168 95.293C23.5928 95.5628 23.5928 96.0126 23.1168 96.3125C22.6408 96.5824 21.8672 96.5824 21.3912 96.3125C20.9152 96.0426 20.9152 95.5928 21.3912 95.293C21.8672 95.0231 22.6408 95.0231 23.1168 95.293Z" fill="#1A3962"/>
<path d="M27.6685 92.6843C28.1445 92.9542 28.1445 93.4039 27.6685 93.7038C27.1925 93.9737 26.419 93.9737 25.943 93.7038C25.4669 93.4339 25.4669 92.9842 25.943 92.6843C26.3892 92.3844 27.1925 92.3844 27.6685 92.6843Z" fill="#1A3962"/>
<path d="M32.191 90.0456C32.667 90.3154 32.667 90.7652 32.191 91.0651C31.715 91.335 30.9414 91.335 30.4654 91.0651C29.9894 90.7952 29.9894 90.3454 30.4654 90.0456C30.9414 89.7457 31.715 89.7457 32.191 90.0456Z" fill="#1A3962"/>
<path d="M36.7135 87.4068C37.1895 87.6766 37.1895 88.1264 36.7135 88.4263C36.2375 88.6961 35.4639 88.6961 34.9879 88.4263C34.5119 88.1564 34.5119 87.7066 34.9879 87.4068C35.4639 87.1069 36.2375 87.1069 36.7135 87.4068Z" fill="#1A3962"/>
<path d="M41.2355 84.7681C41.7115 85.038 41.7115 85.4878 41.2355 85.7876C40.7594 86.0575 39.9859 86.0575 39.5099 85.7876C39.0338 85.5178 39.0338 85.068 39.5099 84.7681C39.9859 84.4983 40.7594 84.4983 41.2355 84.7681Z" fill="#1A3962"/>
<path d="M45.7872 83.149C45.3112 83.4188 44.5376 83.4188 44.0616 83.149C43.5856 82.8791 43.5856 82.4293 44.0616 82.1295L45.7872 83.149Z" fill="#1A3962"/>
<path d="M17.7017 93.8537C18.3754 93.8537 18.9215 93.5315 18.9215 93.134C18.9215 92.7366 18.3754 92.4144 17.7017 92.4144C17.028 92.4144 16.4819 92.7366 16.4819 93.134C16.4819 93.5315 17.028 93.8537 17.7017 93.8537Z" fill="#1A3962"/>
<path d="M23.087 90.0155C23.563 90.2854 23.563 90.7352 23.087 91.035C22.611 91.3049 21.8374 91.3049 21.3614 91.035C20.8854 90.7652 20.8854 90.3154 21.3614 90.0155C21.8374 89.7157 22.611 89.7157 23.087 90.0155Z" fill="#1A3962"/>
<path d="M27.609 87.3769C28.085 87.6468 28.085 88.0965 27.609 88.3964C27.133 88.6663 26.3594 88.6663 25.8834 88.3964C25.4074 88.1265 25.4074 87.6768 25.8834 87.3769C26.3594 87.107 27.133 87.107 27.609 87.3769Z" fill="#1A3962"/>
<path d="M32.1612 84.7382C32.6372 85.0081 32.6372 85.4579 32.1612 85.7577C31.6852 86.0276 30.9117 86.0276 30.4356 85.7577C29.9596 85.4879 29.9596 85.0381 30.4356 84.7382C30.8819 84.4684 31.6555 84.4684 32.1612 84.7382Z" fill="#1A3962"/>
<path d="M36.6832 82.0994C37.1592 82.3693 37.1592 82.8191 36.6832 83.1189C36.2072 83.3888 35.4336 83.3888 34.9576 83.1189C34.4816 82.8491 34.4816 82.3993 34.9576 82.0994C35.4336 81.8296 36.2072 81.8296 36.6832 82.0994Z" fill="#1A3962"/>
<path d="M14.0426 90.0155C14.5186 90.2854 14.5186 90.7352 14.0426 91.035C13.5666 91.3049 12.793 91.3049 12.317 91.035C11.841 90.7652 11.841 90.3154 12.317 90.0155C12.7633 89.7157 13.5368 89.7157 14.0426 90.0155Z" fill="#1A3962"/>
<path d="M18.5645 87.3769C19.0406 87.6468 19.0406 88.0965 18.5645 88.3964C18.0885 88.6663 17.315 88.6663 16.839 88.3964C16.3629 88.1265 16.3629 87.6768 16.839 87.3769C17.315 87.107 18.0885 87.107 18.5645 87.3769Z" fill="#1A3962"/>
<path d="M22.2242 85.9676C22.8979 85.9676 23.444 85.6453 23.444 85.2479C23.444 84.8504 22.8979 84.5283 22.2242 84.5283C21.5506 84.5283 21.0044 84.8504 21.0044 85.2479C21.0044 85.6453 21.5506 85.9676 22.2242 85.9676Z" fill="#1A3962"/>
<path d="M27.609 82.0994C28.085 82.3693 28.085 82.8191 27.609 83.1189C27.133 83.3888 26.3594 83.3888 25.8834 83.1189C25.4074 82.8491 25.4074 82.3993 25.8834 82.0994C26.3594 81.8296 27.133 81.8296 27.609 82.0994Z" fill="#1A3962"/>
<path d="M32.1612 79.4607C32.6372 79.7306 32.6372 80.1804 32.1612 80.4802C31.6852 80.7501 30.9117 80.7501 30.4356 80.4802C29.9596 80.2103 29.9596 79.7606 30.4356 79.4607C30.8819 79.1908 31.6555 79.1908 32.1612 79.4607Z" fill="#1A3962"/>
<path d="M14.0426 84.7382C14.5186 85.0081 14.5186 85.4579 14.0426 85.7577C13.5666 86.0276 12.793 86.0276 12.317 85.7577C11.841 85.4879 11.841 85.0381 12.317 84.7382C12.7633 84.4684 13.5368 84.4684 14.0426 84.7382Z" fill="#1A3962"/>
<path d="M17.7017 83.3289C18.3754 83.3289 18.9215 83.0067 18.9215 82.6092C18.9215 82.2118 18.3754 81.8896 17.7017 81.8896C17.028 81.8896 16.4819 82.2118 16.4819 82.6092C16.4819 83.0067 17.028 83.3289 17.7017 83.3289Z" fill="#1A3962"/>
<path d="M23.087 79.4607C23.563 79.7306 23.563 80.1804 23.087 80.4802C22.611 80.7501 21.8374 80.7501 21.3614 80.4802C20.8854 80.2103 20.8854 79.7606 21.3614 79.4607C21.8374 79.1908 22.611 79.1908 23.087 79.4607Z" fill="#1A3962"/>
<path d="M27.609 76.822C28.085 77.0919 28.085 77.5417 27.609 77.8415C27.133 78.1414 26.3594 78.1114 25.8834 77.8415C25.4074 77.5717 25.4074 77.1219 25.8834 76.822C26.3594 76.5522 27.133 76.5522 27.609 76.822Z" fill="#1A3962"/>
<path d="M33.7975 58.2015L3.27246 67.9468C3.27246 67.9468 25.2886 81.5301 26.4489 96.0431C27.639 110.556 37.7247 118.952 44.0023 120.751L68.815 106.088C68.815 106.088 58.2234 100.481 55.5756 88.7566C52.9574 77.0024 44.7758 66.5974 33.7975 58.2015Z" fill="#4B8EC8"/>
<path d="M31.1499 70.2557L13.0015 76.0428C19.041 81.3503 25.7053 88.9066 26.3598 96.7327C27.5499 111.246 37.6356 119.642 43.9132 121.441L59.1757 112.415C56.6171 109.596 54.0882 105.758 52.9576 100.811C50.3097 89.0565 42.1281 78.6516 31.1499 70.2557Z" fill="white"/>
<path d="M43.0799 121.381C36.6536 119.162 26.7761 110.706 25.5861 96.103C24.4555 82.2198 3.03446 68.8164 2.8262 68.6964L1.16016 67.6769L33.976 57.212L34.333 57.4819C46.2931 66.6574 53.9392 77.3922 56.4681 88.5467C58.997 99.7013 69.1423 105.249 69.2315 105.279L70.6595 106.028L44.1213 121.711L43.7642 121.621C43.556 121.531 43.318 121.441 43.0799 121.381ZM5.38485 68.2167C10.5914 71.7249 26.3596 83.3593 27.3712 95.9531C28.5017 109.896 37.933 117.812 43.913 119.761L67.0894 106.058C64.0845 104.079 56.9144 98.5019 54.7425 88.9365C52.3326 78.3217 45.0436 68.0667 33.6487 59.1911L5.38485 68.2167Z" fill="#15100C"/>
<path d="M48.0484 113.854L47.5724 113.255C47.5129 113.195 42.842 107.258 38.052 109.656L37.4272 109.956L36.9809 109.417C36.7726 109.147 31.5959 103.03 31.1794 93.4044C30.8223 84.4987 17.7912 74.3637 17.6424 74.2737L16.2441 73.1943L17.94 72.6845C18.3565 72.5646 19.487 72.0548 19.7845 71.1553C19.9928 70.5256 19.7548 69.686 19.0705 68.7264L18.3862 67.7369L31.5067 63.2691L31.8339 64.0787C31.8934 64.2586 33.6488 68.5165 38.1412 67.497L38.6172 67.3771L38.9742 67.7069C39.2122 67.9468 44.8948 73.5541 48.3459 84.1089C51.6781 94.274 56.4086 99.2215 56.4681 99.2815L57.4499 100.271L56.1409 100.751C56.1409 100.751 54.3855 101.44 53.9095 103.12C53.5227 104.529 54.088 106.298 55.635 108.337L56.2599 109.147L48.0484 113.854ZM43.0205 107.707C45.5791 108.577 47.5724 110.556 48.465 111.546L53.5822 108.607C52.1244 106.388 51.6484 104.379 52.1541 102.61C52.5707 101.141 53.5822 100.211 54.3855 99.6713C52.8384 97.7822 49.298 92.8946 46.6204 84.6787C43.7643 75.9529 39.242 70.6755 38.0222 69.3261C34.095 69.9858 31.5959 67.4671 30.5248 65.488L21.1531 68.6965C21.6887 69.7759 21.8077 70.7954 21.4804 71.755C21.1532 72.6845 20.4986 73.3142 19.8441 73.734C23.1465 76.5226 32.6372 85.1284 32.9644 93.3144C33.262 100.781 36.7132 106.088 37.9032 107.707C39.7478 107.018 41.5031 107.168 43.0205 107.707Z" fill="#15100C"/>
<path d="M35.8804 26.7769C35.8804 26.7769 35.4936 46.8371 25.7649 49.8656C19.0113 51.9646 16.0361 52.1745 14.8758 52.0845C14.6973 52.0845 14.5783 52.3244 14.727 52.4444L34.958 69.7759C34.958 69.7759 45.4603 68.8164 53.285 59.5209C61.1096 50.2254 63.1922 37.3917 60.2766 28.516C57.3609 19.6404 56.6469 18.8908 55.2486 19.0107C53.88 19.1306 35.8804 26.7769 35.8804 26.7769Z" fill="#4B8EC8"/>
<path d="M61.9428 34.723C60.0982 29.5056 59.3841 28.9958 58.2238 29.1158C56.8255 29.2357 38.8258 36.882 38.8258 36.882C38.8258 36.882 38.4391 56.9422 28.7103 59.9707C27.3715 60.3905 26.241 60.6904 25.1997 60.9902L35.4342 69.7459C35.4342 69.7459 45.9365 68.7864 53.7611 59.491C59.9197 52.1745 62.5081 42.7291 61.9428 34.723Z" fill="white"/>
<path d="M34.6605 70.7055L34.363 70.4656L14.132 53.1341C13.775 52.8342 13.6559 52.3245 13.8345 51.8747C14.013 51.4249 14.4593 51.155 14.9353 51.185C15.7981 51.245 18.5947 51.125 25.4971 48.9961C34.5118 46.2075 34.9878 26.9568 34.9878 26.7769V26.1772L35.5233 25.9373C39.7778 24.1382 53.7609 18.2311 55.189 18.1112C57.3609 17.9313 58.2534 19.4305 61.1393 28.2162C64.3822 38.1114 61.4368 51.215 53.9692 60.0907C45.9958 69.566 35.4638 70.6155 35.0473 70.6455L34.6605 70.7055ZM16.6608 52.9242L35.2258 68.8164C37.1001 68.5465 45.9066 66.8674 52.6006 58.9212C59.6815 50.5253 62.5079 38.1114 59.4435 28.7859C56.7063 20.42 56.0518 19.8503 55.3378 19.9103C54.2369 20.0902 43.5859 24.498 36.7431 27.3766C36.5943 30.8549 35.4043 47.7967 26.0028 50.7052C21.4509 52.1445 18.5352 52.7143 16.6608 52.9242Z" fill="#15100C"/>
<path d="M20.5286 0.899536L1.84473 27.1067C1.84473 27.1067 27.55 24.7379 37.1002 35.6526C46.6504 46.5672 59.7411 47.2269 65.8104 44.8581L76.9969 18.1411C76.9969 18.1411 65.1856 20.0302 56.1114 12.234C47.0372 4.43781 34.3035 1.04946 20.5286 0.899536Z" fill="#4B8EC8"/>
<path d="M28.5316 11.6343L9.84766 37.8415C9.84766 37.8415 35.5529 35.4726 45.1031 46.3873C54.6534 57.302 67.744 57.9617 73.8133 55.5928L84.9999 28.8759C84.9999 28.8759 73.1885 30.7649 64.1143 22.9687C55.0103 15.1725 42.3065 11.7542 28.5316 11.6343Z" fill="#4B8EC8"/>
<path d="M62.9543 23.0588C53.8801 15.2626 41.1464 11.8742 27.3715 11.7243L16.0957 27.5266C23.3848 28.3962 31.4475 30.6151 35.9399 35.7426C45.4901 46.6572 58.5808 47.3169 64.6501 44.9481L71.7905 27.8564C68.8748 26.9869 65.7807 25.4876 62.9543 23.0588Z" fill="white"/>
<path d="M61.2285 46.7772C54.2964 47.4068 44.2702 45.1879 36.4455 36.2523C27.3416 25.8774 2.5289 27.9763 1.96363 28.0063L0 28.1862L20.0822 0H20.5583C35.5828 0.149927 48.0784 4.13797 56.7063 11.5444C65.364 18.9807 76.7588 17.2716 76.8778 17.2416L78.4547 17.0017L66.4945 45.5777L66.1375 45.7277C64.8285 46.2074 63.1326 46.5972 61.2285 46.7772ZM3.68923 26.0873C9.93703 25.7574 29.4837 25.5775 37.7844 35.0529C46.9776 45.5478 59.2649 46.2074 65.1557 44.1384L75.5985 19.1906C72.0283 19.4305 62.9542 19.2806 55.546 12.9237C47.3346 5.87713 35.3745 2.039 21.0046 1.8291L3.68923 26.0873Z" fill="#15100C"/>
<path d="M57.1826 40.6601L56.4983 40.6301C56.1412 40.6001 47.8108 40.1204 42.5151 32.5941C37.9928 26.1472 23.2956 24.1682 18.8924 23.7184C16.9288 23.5085 16.6908 22.489 16.6015 21.5594C16.542 20.8698 16.4825 20.1801 14.2214 19.4305L13.0908 19.0407L22.403 5.54726L23.1171 5.96706C23.2956 6.05701 27.6393 8.51581 30.1087 4.73766L30.4359 4.22791L31.031 4.34785C31.3582 4.40782 39.1531 5.99704 46.7993 10.7347C48.5248 11.8142 50.1314 12.8637 51.6488 13.8532C56.7065 17.1816 60.6932 19.7903 65.2155 20.36L66.584 20.5399L65.87 21.7394C65.87 21.7394 65.1262 23.0287 65.5725 24.2281C65.87 25.0377 66.6733 25.6974 67.9526 26.1472L68.8153 26.4471L64.0551 39.0709L63.1923 38.7111C63.1626 38.7111 60.5147 37.6316 58.7296 38.4412C58.0751 38.7411 57.6288 39.2508 57.361 40.0604L57.1826 40.6601ZM18.4461 21.7993C18.4461 21.7993 18.5949 21.8893 19.1007 21.9493C24.9915 22.549 39.1829 24.7079 44.0026 31.5746C47.9893 37.2418 54.0587 38.5012 55.9925 38.771C56.4388 37.8715 57.123 37.1818 58.0453 36.792C59.7709 36.0124 61.8833 36.4022 63.0436 36.762L66.5245 27.4965C65.1857 26.8669 64.2931 25.9673 63.9063 24.8278C63.5196 23.7784 63.6684 22.7289 63.8766 21.9792C59.4139 21.1097 55.5165 18.5609 50.6967 15.3825C49.1794 14.3929 47.6026 13.3435 45.877 12.294C39.6589 8.45584 33.1433 6.71669 31.2392 6.26691C28.7996 9.41537 25.1402 8.90562 22.9684 7.94609L15.8875 18.2011C17.9999 19.1906 18.2973 20.39 18.3866 21.4695C18.4163 21.5594 18.4163 21.7394 18.4461 21.7993Z" fill="#15100C"/>
<path d="M34.363 65.1582L25.9731 57.5419L27.2227 56.9722C27.9367 56.6423 28.5913 56.0726 27.907 54.4234C27.669 53.8237 27.669 53.164 27.907 52.5643C28.1748 51.9346 28.7103 51.3949 29.3649 51.155C30.2574 50.7952 31.7449 50.0156 33.9466 48.1864C38.4985 44.4383 38.6473 38.2013 38.6473 38.1414L40.4324 38.1713C40.4324 38.4712 40.3134 45.3378 35.0771 49.5958C33.173 51.155 31.4474 52.2645 30.0194 52.8342C29.8111 52.9241 29.6326 53.0741 29.5731 53.284C29.5136 53.4039 29.4838 53.5538 29.5731 53.7637C30.2871 55.5029 30.1086 56.9722 29.0673 57.9317L34.2143 62.6094C35.8506 61.0802 38.9448 59.4609 42.515 61.2301C44.3893 60.2406 52.7495 55.323 53.642 45.5178L55.4271 45.6977C54.3263 57.7818 43.348 62.8793 42.872 63.0892L42.4555 63.2691L42.0687 63.0592C37.9928 60.7503 35.0771 64.3186 34.9581 64.4685L34.363 65.1582Z" fill="#15100C"/>
</svg>
