<svg width="80" height="113" viewBox="0 0 80 113" fill="none" xmlns="http://www.w3.org/2000/svg">
<path d="M10.0901 78.0308C10.3522 78.1624 10.3522 78.4256 10.0901 78.5572C9.82803 78.6888 9.43495 78.6888 9.17287 78.5572C8.9108 78.4256 8.9108 78.1624 9.17287 78.0308C9.43495 77.8992 9.82803 77.8992 10.0901 78.0308Z" fill="#1A3962"/>
<path d="M7.60039 76.5834C7.86247 76.715 7.86247 76.9782 7.60039 77.1098C7.33831 77.2414 6.94521 77.2414 6.68313 77.1098C6.42105 76.9782 6.42105 76.715 6.68313 76.5834C6.94521 76.4518 7.33831 76.4518 7.60039 76.5834Z" fill="#1A3962"/>
<path d="M5.11041 75.2676C5.37248 75.3992 5.37248 75.6623 5.11041 75.7939C4.84833 75.9255 4.45521 75.9255 4.19314 75.7939C3.93106 75.6623 3.93106 75.3992 4.19314 75.2676C4.45521 75.0044 4.84833 75.0044 5.11041 75.2676Z" fill="#1A3962"/>
<path d="M2.62094 73.8201C2.88302 73.9517 2.88302 74.2148 2.62094 74.3464C2.35886 74.478 1.96572 74.478 1.70364 74.3464C1.44156 74.2148 1.44156 73.9517 1.70364 73.8201C1.96572 73.5569 2.35886 73.5569 2.62094 73.8201Z" fill="#1A3962"/>
<path d="M52.4159 102.374C52.6779 102.506 52.6779 102.769 52.4159 102.901C52.1538 103.032 51.7606 103.032 51.4986 102.901C51.2365 102.769 51.2365 102.506 51.4986 102.374C51.7606 102.243 52.1538 102.243 52.4159 102.374Z" fill="#1A3962"/>
<path d="M37.4774 108.164C37.7395 108.296 37.7395 108.559 37.4774 108.691C37.2153 108.822 36.8222 108.822 36.5601 108.691C36.298 108.559 36.298 108.296 36.5601 108.164C36.8222 108.033 37.2153 108.033 37.4774 108.164Z" fill="#1A3962"/>
<path d="M39.9671 106.717C40.2292 106.848 40.2292 107.111 39.9671 107.243C39.705 107.375 39.3119 107.375 39.0498 107.243C38.7878 107.111 38.7878 106.848 39.0498 106.717C39.3119 106.585 39.705 106.585 39.9671 106.717Z" fill="#1A3962"/>
<path d="M42.4569 105.269C42.719 105.401 42.719 105.664 42.4569 105.796C42.1948 105.927 41.8017 105.927 41.5396 105.796C41.2775 105.664 41.2775 105.401 41.5396 105.269C41.8017 105.138 42.1948 105.138 42.4569 105.269Z" fill="#1A3962"/>
<path d="M44.9468 103.822C45.2089 103.953 45.2089 104.217 44.9468 104.348C44.6847 104.48 44.2916 104.48 44.0296 104.348C43.7675 104.217 43.7675 103.953 44.0296 103.822C44.2916 103.69 44.6847 103.69 44.9468 103.822Z" fill="#1A3962"/>
<path d="M47.4364 102.374C47.6984 102.506 47.6984 102.769 47.4364 102.901C47.1743 103.032 46.7812 103.032 46.5191 102.901C46.257 102.769 46.257 102.506 46.5191 102.374C46.7812 102.243 47.1743 102.243 47.4364 102.374Z" fill="#1A3962"/>
<path d="M49.9261 100.927C50.1882 101.059 50.1882 101.322 49.9261 101.453C49.664 101.585 49.2709 101.585 49.0088 101.453C48.7467 101.322 48.7467 101.059 49.0088 100.927C49.2709 100.795 49.664 100.795 49.9261 100.927Z" fill="#1A3962"/>
<path d="M32.4979 108.164C32.7599 108.296 32.7599 108.559 32.4979 108.691C32.2358 108.822 31.8427 108.822 31.5806 108.691C31.3185 108.559 31.3185 108.296 31.5806 108.164C31.8427 108.033 32.2358 108.033 32.4979 108.164Z" fill="#1A3962"/>
<path d="M34.9876 106.717C35.2496 106.848 35.2496 107.111 34.9876 107.243C34.7255 107.375 34.3324 107.375 34.0703 107.243C33.8083 107.111 33.8083 106.848 34.0703 106.717C34.3324 106.585 34.7255 106.585 34.9876 106.717Z" fill="#1A3962"/>
<path d="M37.4774 105.269C37.7395 105.401 37.7395 105.664 37.4774 105.796C37.2153 105.927 36.8222 105.927 36.5601 105.796C36.298 105.664 36.298 105.401 36.5601 105.269C36.8222 105.138 37.2153 105.138 37.4774 105.269Z" fill="#1A3962"/>
<path d="M39.9671 103.822C40.2292 103.953 40.2292 104.217 39.9671 104.348C39.705 104.48 39.3119 104.48 39.0498 104.348C38.7878 104.217 38.7878 103.953 39.0498 103.822C39.3119 103.69 39.705 103.69 39.9671 103.822Z" fill="#1A3962"/>
<path d="M42.4569 102.374C42.719 102.506 42.719 102.769 42.4569 102.901C42.1948 103.032 41.8017 103.032 41.5396 102.901C41.2775 102.769 41.2775 102.506 41.5396 102.374C41.8017 102.243 42.1948 102.243 42.4569 102.374Z" fill="#1A3962"/>
<path d="M44.9468 100.927C45.2089 101.059 45.2089 101.322 44.9468 101.453C44.6847 101.585 44.2916 101.585 44.0296 101.453C43.7675 101.322 43.7675 101.059 44.0296 100.927C44.2916 100.795 44.6847 100.795 44.9468 100.927Z" fill="#1A3962"/>
<path d="M47.4364 99.4794C47.6984 99.611 47.6984 99.8742 47.4364 100.006C47.1743 100.137 46.7812 100.137 46.5191 100.006C46.257 99.8742 46.257 99.611 46.5191 99.4794C46.7812 99.3478 47.1743 99.3478 47.4364 99.4794Z" fill="#1A3962"/>
<path d="M30.0082 106.717C30.2703 106.848 30.2703 107.111 30.0082 107.243C29.7461 107.375 29.3529 107.375 29.0909 107.243C28.8288 107.111 28.8288 106.848 29.0909 106.717C29.3529 106.585 29.7461 106.585 30.0082 106.717Z" fill="#1A3962"/>
<path d="M32.4979 105.269C32.7599 105.401 32.7599 105.664 32.4979 105.796C32.2358 105.927 31.8427 105.927 31.5806 105.796C31.3185 105.664 31.3185 105.401 31.5806 105.269C31.8427 105.138 32.2358 105.138 32.4979 105.269Z" fill="#1A3962"/>
<path d="M34.9876 103.822C35.2496 103.953 35.2496 104.217 34.9876 104.348C34.7255 104.48 34.3324 104.48 34.0703 104.348C33.8083 104.217 33.8083 103.953 34.0703 103.822C34.3324 103.69 34.7255 103.69 34.9876 103.822Z" fill="#1A3962"/>
<path d="M37.4774 102.374C37.7395 102.506 37.7395 102.769 37.4774 102.901C37.2153 103.032 36.8222 103.032 36.5601 102.901C36.298 102.769 36.298 102.506 36.5601 102.374C36.8222 102.243 37.2153 102.243 37.4774 102.374Z" fill="#1A3962"/>
<path d="M39.9671 100.927C40.2292 101.059 40.2292 101.322 39.9671 101.453C39.705 101.585 39.3119 101.585 39.0498 101.453C38.7878 101.322 38.7878 101.059 39.0498 100.927C39.3119 100.795 39.705 100.795 39.9671 100.927Z" fill="#1A3962"/>
<path d="M42.4569 99.4794C42.719 99.611 42.719 99.8742 42.4569 100.006C42.1948 100.137 41.8017 100.137 41.5396 100.006C41.2775 99.8742 41.2775 99.611 41.5396 99.4794C41.8017 99.3478 42.1948 99.3478 42.4569 99.4794Z" fill="#1A3962"/>
<path d="M44.9468 98.032C45.2089 98.1636 45.2089 98.4268 44.9468 98.5584C44.6847 98.69 44.2916 98.69 44.0296 98.5584C43.7675 98.4268 43.7675 98.1636 44.0296 98.032C44.2916 97.9005 44.6847 97.9005 44.9468 98.032Z" fill="#1A3962"/>
<path d="M27.5184 105.269C27.7804 105.401 27.7804 105.664 27.5184 105.796C27.2563 105.927 26.8632 105.927 26.6011 105.796C26.339 105.664 26.339 105.401 26.6011 105.269C26.8632 105.138 27.2563 105.138 27.5184 105.269Z" fill="#1A3962"/>
<path d="M30.0082 103.822C30.2703 103.953 30.2703 104.217 30.0082 104.348C29.7461 104.48 29.3529 104.48 29.0909 104.348C28.8288 104.217 28.8288 103.953 29.0909 103.822C29.3529 103.69 29.7461 103.69 30.0082 103.822Z" fill="#1A3962"/>
<path d="M32.4979 102.374C32.7599 102.506 32.7599 102.769 32.4979 102.901C32.2358 103.032 31.8427 103.032 31.5806 102.901C31.3185 102.769 31.3185 102.506 31.5806 102.374C31.8427 102.243 32.2358 102.243 32.4979 102.374Z" fill="#1A3962"/>
<path d="M34.9876 100.927C35.2496 101.059 35.2496 101.322 34.9876 101.453C34.7255 101.585 34.3324 101.585 34.0703 101.453C33.8083 101.322 33.8083 101.059 34.0703 100.927C34.3324 100.795 34.7255 100.795 34.9876 100.927Z" fill="#1A3962"/>
<path d="M37.4774 99.4794C37.7395 99.611 37.7395 99.8742 37.4774 100.006C37.2153 100.137 36.8222 100.137 36.5601 100.006C36.298 99.8742 36.298 99.611 36.5601 99.4794C36.8222 99.3478 37.2153 99.3478 37.4774 99.4794Z" fill="#1A3962"/>
<path d="M39.9671 98.032C40.2292 98.1636 40.2292 98.4268 39.9671 98.5584C39.705 98.69 39.3119 98.69 39.0498 98.5584C38.7878 98.4268 38.7878 98.1636 39.0498 98.032C39.3119 97.9005 39.705 97.9005 39.9671 98.032Z" fill="#1A3962"/>
<path d="M42.4569 96.5845C42.719 96.7161 42.719 96.9793 42.4569 97.1109C42.1948 97.2425 41.8017 97.2425 41.5396 97.1109C41.2775 96.9793 41.2775 96.7161 41.5396 96.5845C41.8017 96.4529 42.1948 96.4529 42.4569 96.5845Z" fill="#1A3962"/>
<path d="M25.0287 103.822C25.2908 103.953 25.2908 104.217 25.0287 104.348C24.7666 104.48 24.3734 104.48 24.1114 104.348C23.8493 104.217 23.8493 103.953 24.1114 103.822C24.3734 103.69 24.7666 103.69 25.0287 103.822Z" fill="#1A3962"/>
<path d="M27.5184 102.374C27.7804 102.506 27.7804 102.769 27.5184 102.901C27.2563 103.032 26.8632 103.032 26.6011 102.901C26.339 102.769 26.339 102.506 26.6011 102.374C26.8632 102.243 27.2563 102.243 27.5184 102.374Z" fill="#1A3962"/>
<path d="M30.0082 100.927C30.2703 101.059 30.2703 101.322 30.0082 101.453C29.7461 101.585 29.3529 101.585 29.0909 101.453C28.8288 101.322 28.8288 101.059 29.0909 100.927C29.3529 100.795 29.7461 100.795 30.0082 100.927Z" fill="#1A3962"/>
<path d="M32.4979 99.4794C32.7599 99.611 32.7599 99.8742 32.4979 100.006C32.2358 100.137 31.8427 100.137 31.5806 100.006C31.3185 99.8742 31.3185 99.611 31.5806 99.4794C31.8427 99.3478 32.2358 99.3478 32.4979 99.4794Z" fill="#1A3962"/>
<path d="M34.9876 98.032C35.2496 98.1636 35.2496 98.4268 34.9876 98.5584C34.7255 98.69 34.3324 98.69 34.0703 98.5584C33.8083 98.4268 33.8083 98.1636 34.0703 98.032C34.3324 97.9005 34.7255 97.9005 34.9876 98.032Z" fill="#1A3962"/>
<path d="M37.4774 96.5845C37.7395 96.7161 37.7395 96.9793 37.4774 97.1109C37.2153 97.2425 36.8222 97.2425 36.5601 97.1109C36.298 96.9793 36.298 96.7161 36.5601 96.5845C36.8222 96.4529 37.2153 96.4529 37.4774 96.5845Z" fill="#1A3962"/>
<path d="M39.9671 95.1371C40.2292 95.2687 40.2292 95.5319 39.9671 95.6635C39.705 95.7951 39.3119 95.7951 39.0498 95.6635C38.7878 95.5319 38.7878 95.2687 39.0498 95.1371C39.3119 95.0056 39.705 95.0056 39.9671 95.1371Z" fill="#1A3962"/>
<path d="M22.5389 102.374C22.801 102.506 22.801 102.769 22.5389 102.901C22.2768 103.032 21.8837 103.032 21.6216 102.901C21.3595 102.769 21.3595 102.506 21.6216 102.374C21.8837 102.243 22.2768 102.243 22.5389 102.374Z" fill="#1A3962"/>
<path d="M25.0287 100.927C25.2908 101.059 25.2908 101.322 25.0287 101.453C24.7666 101.585 24.3734 101.585 24.1114 101.453C23.8493 101.322 23.8493 101.059 24.1114 100.927C24.3734 100.795 24.7666 100.795 25.0287 100.927Z" fill="#1A3962"/>
<path d="M27.5184 99.4794C27.7804 99.611 27.7804 99.8742 27.5184 100.006C27.2563 100.137 26.8632 100.137 26.6011 100.006C26.339 99.8742 26.339 99.611 26.6011 99.4794C26.8632 99.3478 27.2563 99.3478 27.5184 99.4794Z" fill="#1A3962"/>
<path d="M30.0082 98.032C30.2703 98.1636 30.2703 98.4268 30.0082 98.5584C29.7461 98.69 29.3529 98.69 29.0909 98.5584C28.8288 98.4268 28.8288 98.1636 29.0909 98.032C29.3529 97.9005 29.7461 97.9005 30.0082 98.032Z" fill="#1A3962"/>
<path d="M32.4979 96.5845C32.7599 96.7161 32.7599 96.9793 32.4979 97.1109C32.2358 97.2425 31.8427 97.2425 31.5806 97.1109C31.3185 96.9793 31.3185 96.7161 31.5806 96.5845C31.8427 96.4529 32.2358 96.4529 32.4979 96.5845Z" fill="#1A3962"/>
<path d="M34.9876 95.1371C35.2496 95.2687 35.2496 95.5319 34.9876 95.6635C34.7255 95.7951 34.3324 95.7951 34.0703 95.6635C33.8083 95.5319 33.8083 95.2687 34.0703 95.1371C34.3324 95.0056 34.7255 95.0056 34.9876 95.1371Z" fill="#1A3962"/>
<path d="M37.4774 93.6898C37.7395 93.8213 37.7395 94.0845 37.4774 94.2161C37.2153 94.3477 36.8222 94.3477 36.5601 94.2161C36.298 94.0845 36.298 93.8213 36.5601 93.6898C36.8222 93.5582 37.2153 93.5582 37.4774 93.6898Z" fill="#1A3962"/>
<path d="M19.6559 101.585C20.0177 101.585 20.3111 101.408 20.3111 101.19C20.3111 100.972 20.0177 100.795 19.6559 100.795C19.2941 100.795 19.0007 100.972 19.0007 101.19C19.0007 101.408 19.2941 101.585 19.6559 101.585Z" fill="#1A3962"/>
<path d="M22.5389 99.4794C22.801 99.611 22.801 99.8742 22.5389 100.006C22.2768 100.137 21.8837 100.137 21.6216 100.006C21.3595 99.8742 21.3595 99.611 21.6216 99.4794C21.8837 99.3478 22.2768 99.3478 22.5389 99.4794Z" fill="#1A3962"/>
<path d="M25.0287 98.032C25.2908 98.1636 25.2908 98.4268 25.0287 98.5584C24.7666 98.69 24.3734 98.69 24.1114 98.5584C23.8493 98.4268 23.8493 98.1636 24.1114 98.032C24.3734 97.9005 24.7666 97.9005 25.0287 98.032Z" fill="#1A3962"/>
<path d="M27.5184 96.5845C27.7804 96.7161 27.7804 96.9793 27.5184 97.1109C27.2563 97.2425 26.8632 97.2425 26.6011 97.1109C26.339 96.9793 26.339 96.7161 26.6011 96.5845C26.8632 96.4529 27.2563 96.4529 27.5184 96.5845Z" fill="#1A3962"/>
<path d="M30.0082 95.1371C30.2703 95.2687 30.2703 95.5319 30.0082 95.6635C29.7461 95.7951 29.3529 95.7951 29.0909 95.6635C28.8288 95.5319 28.8288 95.2687 29.0909 95.1371C29.3529 95.0056 29.7461 95.0056 30.0082 95.1371Z" fill="#1A3962"/>
<path d="M32.4979 93.6898C32.7599 93.8213 32.7599 94.0845 32.4979 94.2161C32.2358 94.3477 31.8427 94.3477 31.5806 94.2161C31.3185 94.0845 31.3185 93.8213 31.5806 93.6898C31.8427 93.5582 32.2358 93.5582 32.4979 93.6898Z" fill="#1A3962"/>
<path d="M34.9876 92.2422C35.2496 92.3738 35.2496 92.637 34.9876 92.7686C34.7255 92.9001 34.3324 92.9001 34.0703 92.7686C33.8083 92.637 33.8083 92.3738 34.0703 92.2422C34.3324 92.1107 34.7255 92.1107 34.9876 92.2422Z" fill="#1A3962"/>
<path d="M20.0491 98.032C20.3112 98.1636 20.3112 98.4268 20.0491 98.5584C19.787 98.69 19.3939 98.69 19.1319 98.5584C18.8698 98.4268 18.8698 98.1636 19.1319 98.032C19.3939 97.9005 19.787 97.9005 20.0491 98.032Z" fill="#1A3962"/>
<path d="M22.5389 96.5845C22.801 96.7161 22.801 96.9793 22.5389 97.1109C22.2768 97.2425 21.8837 97.2425 21.6216 97.1109C21.3595 96.9793 21.3595 96.7161 21.6216 96.5845C21.8837 96.4529 22.2768 96.4529 22.5389 96.5845Z" fill="#1A3962"/>
<path d="M25.0287 95.1371C25.2908 95.2687 25.2908 95.5319 25.0287 95.6635C24.7666 95.7951 24.3734 95.7951 24.1114 95.6635C23.8493 95.5319 23.8493 95.2687 24.1114 95.1371C24.3734 95.0056 24.7666 95.0056 25.0287 95.1371Z" fill="#1A3962"/>
<path d="M27.5184 93.6898C27.7804 93.8213 27.7804 94.0845 27.5184 94.2161C27.2563 94.3477 26.8632 94.3477 26.6011 94.2161C26.339 94.0845 26.339 93.8213 26.6011 93.6898C26.8632 93.5582 27.2563 93.5582 27.5184 93.6898Z" fill="#1A3962"/>
<path d="M30.0082 92.2422C30.2703 92.3738 30.2703 92.637 30.0082 92.7686C29.7461 92.9001 29.3529 92.9001 29.0909 92.7686C28.8288 92.637 28.8288 92.3738 29.0909 92.2422C29.3529 92.1107 29.7461 92.1107 30.0082 92.2422Z" fill="#1A3962"/>
<path d="M32.4979 90.7949C32.7599 90.9264 32.7599 91.1896 32.4979 91.3212C32.2358 91.4528 31.8427 91.4528 31.5806 91.3212C31.3185 91.1896 31.3185 90.9264 31.5806 90.7949C31.8427 90.6633 32.2358 90.6633 32.4979 90.7949Z" fill="#1A3962"/>
<path d="M20.0491 95.1371C20.3112 95.2687 20.3112 95.5319 20.0491 95.6635C19.787 95.7951 19.3939 95.7951 19.1319 95.6635C18.8698 95.5319 18.8698 95.2687 19.1319 95.1371C19.3939 95.0056 19.787 95.0056 20.0491 95.1371Z" fill="#1A3962"/>
<path d="M21.6216 93.6898C21.8837 93.5582 22.2768 93.5582 22.5389 93.6898C22.801 93.8213 22.801 94.0845 22.5389 94.2161C22.2768 94.3477 21.8837 94.3477 21.6216 94.2161C21.3595 94.0845 21.3595 93.8213 21.6216 93.6898Z" fill="#1A3962"/>
<path d="M25.0287 92.2422C25.2908 92.3738 25.2908 92.637 25.0287 92.7686C24.7666 92.9001 24.3734 92.9001 24.1114 92.7686C23.8493 92.637 23.8493 92.3738 24.1114 92.2422C24.3734 92.1107 24.7666 92.1107 25.0287 92.2422Z" fill="#1A3962"/>
<path d="M27.5184 90.7949C27.7804 90.9264 27.7804 91.1896 27.5184 91.3212C27.2563 91.4528 26.8632 91.4528 26.6011 91.3212C26.339 91.1896 26.339 90.9264 26.6011 90.7949C26.8632 90.6633 27.2563 90.6633 27.5184 90.7949Z" fill="#1A3962"/>
<path d="M30.0082 89.3474C30.2703 89.4789 30.2703 89.7421 30.0082 89.8737C29.7461 90.0053 29.3529 90.0053 29.0909 89.8737C28.8288 89.7421 28.8288 89.4789 29.0909 89.3474C29.3529 89.2158 29.7461 89.2158 30.0082 89.3474Z" fill="#1A3962"/>
<path d="M24.1114 89.3474C24.3734 89.2158 24.7666 89.2158 25.0287 89.3474C25.2908 89.4789 25.2908 89.7421 25.0287 89.8737C24.7666 90.0053 24.3734 90.0053 24.1114 89.8737C23.8493 89.7421 23.8493 89.4789 24.1114 89.3474Z" fill="#1A3962"/>
<path d="M27.5184 87.8998C27.7804 88.0314 27.7804 88.2946 27.5184 88.4262C27.2563 88.5578 26.8632 88.5578 26.6011 88.4262C26.339 88.2946 26.339 88.0314 26.6011 87.8998C26.8632 87.7683 27.2563 87.7683 27.5184 87.8998Z" fill="#1A3962"/>
<path d="M25.0287 86.4524C25.2908 86.584 25.2908 86.8472 25.0287 86.9788C24.7666 87.1104 24.3734 87.1104 24.1114 86.9788C23.8493 86.8472 23.8493 86.584 24.1114 86.4524C24.3734 86.3209 24.7666 86.3209 25.0287 86.4524Z" fill="#1A3962"/>
<path d="M22.5389 85.1366C22.801 85.2682 22.801 85.5314 22.5389 85.663C22.2768 85.7945 21.8837 85.7945 21.6216 85.663C21.3595 85.5314 21.3595 85.2682 21.6216 85.1366C21.8837 84.8734 22.2768 84.8734 22.5389 85.1366Z" fill="#1A3962"/>
<path d="M20.0491 83.5576C20.3112 83.6891 20.3112 83.9523 20.0491 84.0839C19.787 84.2155 19.3939 84.2155 19.1319 84.0839C18.8698 83.9523 18.8698 83.6891 19.1319 83.5576C19.3939 83.426 19.787 83.426 20.0491 83.5576Z" fill="#1A3962"/>
<path d="M17.5594 82.2416C17.8215 82.3732 17.8215 82.6363 17.5594 82.7679C17.2973 82.8995 16.9042 82.8995 16.6421 82.7679C16.38 82.6363 16.38 82.3732 16.6421 82.2416C16.9042 81.9784 17.2973 81.9784 17.5594 82.2416Z" fill="#1A3962"/>
<path d="M15.0697 80.7942C15.3317 80.9258 15.3317 81.1889 15.0697 81.3205C14.8076 81.4521 14.4145 81.4521 14.1524 81.3205C13.8903 81.1889 13.8903 80.9258 14.1524 80.7942C14.4145 80.531 14.8076 80.531 15.0697 80.7942Z" fill="#1A3962"/>
<path d="M12.5796 79.3468C12.8417 79.4784 12.8417 79.7415 12.5796 79.8731C12.3176 80.0047 11.9244 80.0047 11.6624 79.8731C11.4003 79.7415 11.4003 79.4784 11.6624 79.3468C11.9244 79.0836 12.3176 79.0836 12.5796 79.3468Z" fill="#1A3962"/>
<path d="M12.5796 76.5834C12.8417 76.715 12.8417 76.9782 12.5796 77.1098C12.3176 77.2414 11.9244 77.2414 11.6624 77.1098C11.4003 76.9782 11.4003 76.715 11.6624 76.5834C11.7934 76.4518 12.3176 76.4518 12.5796 76.5834Z" fill="#1A3962"/>
<path d="M15.0697 75.136C15.3317 75.2676 15.3317 75.5308 15.0697 75.6624C14.8076 75.794 14.4145 75.794 14.1524 75.6624C13.8903 75.5308 13.8903 75.2676 14.1524 75.136C14.2834 75.0045 14.8076 75.0045 15.0697 75.136Z" fill="#1A3962"/>
<path d="M17.5594 73.8201C17.8215 73.9517 17.8215 74.2148 17.5594 74.3464C17.2973 74.478 16.9042 74.478 16.6421 74.3464C16.38 74.2148 16.38 73.9517 16.6421 73.8201C16.7732 73.5569 17.2973 73.5569 17.5594 73.8201Z" fill="#1A3962"/>
<path d="M10.0901 75.136C10.3522 75.2676 10.3522 75.5308 10.0901 75.6624C9.82803 75.794 9.43495 75.794 9.17287 75.6624C8.9108 75.5308 8.9108 75.2676 9.17287 75.136C9.43495 75.0045 9.82803 75.0045 10.0901 75.136Z" fill="#1A3962"/>
<path d="M12.5796 73.8201C12.8417 73.9517 12.8417 74.2148 12.5796 74.3464C12.3176 74.478 11.9244 74.478 11.6624 74.3464C11.4003 74.2148 11.4003 73.9517 11.6624 73.8201C11.7934 73.5569 12.3176 73.5569 12.5796 73.8201Z" fill="#1A3962"/>
<path d="M14.5453 73.0306C14.9072 73.0306 15.2005 72.8539 15.2005 72.6359C15.2005 72.4178 14.9072 72.2411 14.5453 72.2411C14.1835 72.2411 13.8901 72.4178 13.8901 72.6359C13.8901 72.8539 14.1835 73.0306 14.5453 73.0306Z" fill="#1A3962"/>
<path d="M7.60039 73.8201C7.86247 73.9517 7.86247 74.2148 7.60039 74.3464C7.33831 74.478 6.94521 74.478 6.68313 74.3464C6.42105 74.2148 6.42105 73.9517 6.68313 73.8201C6.94521 73.5569 7.33831 73.5569 7.60039 73.8201Z" fill="#1A3962"/>
<path d="M10.0901 72.3727C10.3522 72.5043 10.3522 72.7674 10.0901 72.899C9.82803 73.0306 9.43495 73.0306 9.17287 72.899C8.9108 72.7674 8.9108 72.5043 9.17287 72.3727C9.43495 72.1095 9.82803 72.1095 10.0901 72.3727Z" fill="#1A3962"/>
<path d="M12.5796 70.9252C12.8417 71.0568 12.8417 71.32 12.5796 71.4516C12.3176 71.5832 11.9244 71.5832 11.6624 71.4516C11.4003 71.32 11.4003 71.0568 11.6624 70.9252C11.7934 70.7936 12.3176 70.7936 12.5796 70.9252Z" fill="#1A3962"/>
<path d="M5.11041 72.3727C5.37248 72.5043 5.37248 72.7674 5.11041 72.899C4.84833 73.0306 4.45521 73.0306 4.19314 72.899C3.93106 72.7674 3.93106 72.5043 4.19314 72.3727C4.45521 72.1095 4.84833 72.1095 5.11041 72.3727Z" fill="#1A3962"/>
<path d="M7.60039 70.9252C7.86247 71.0568 7.86247 71.32 7.60039 71.4516C7.33831 71.5832 6.94521 71.5832 6.68313 71.4516C6.42105 71.32 6.42105 71.0568 6.68313 70.9252C6.94521 70.7936 7.33831 70.7936 7.60039 70.9252Z" fill="#1A3962"/>
<path d="M10.0901 69.4777C10.3522 69.6093 10.3522 69.8725 10.0901 70.0041C9.82803 70.1356 9.43495 70.1356 9.17287 70.0041C8.9108 69.8725 8.9108 69.6093 9.17287 69.4777C9.43495 69.3461 9.82803 69.3461 10.0901 69.4777Z" fill="#1A3962"/>
<path d="M2.09661 71.5831C2.45848 71.5831 2.75182 71.4064 2.75182 71.1883C2.75182 70.9703 2.45848 70.7936 2.09661 70.7936C1.73475 70.7936 1.44141 70.9703 1.44141 71.1883C1.44141 71.4064 1.73475 71.5831 2.09661 71.5831Z" fill="#1A3962"/>
<path d="M5.11041 69.4777C5.37248 69.6093 5.37248 69.8725 5.11041 70.0041C4.84833 70.1356 4.45521 70.1356 4.19314 70.0041C3.93106 69.8725 3.93106 69.6093 4.19314 69.4777C4.45521 69.3461 4.84833 69.3461 5.11041 69.4777Z" fill="#1A3962"/>
<path d="M7.60039 68.0302C7.86247 68.1618 7.86247 68.425 7.60039 68.5566C7.33831 68.6881 6.94521 68.6881 6.68313 68.5566C6.42105 68.425 6.42105 68.1618 6.68313 68.0302C6.94521 67.8986 7.33831 67.8986 7.60039 68.0302Z" fill="#1A3962"/>
<path d="M2.62094 68.0302C2.88302 68.1618 2.88302 68.425 2.62094 68.5566C2.35886 68.6881 1.96572 68.6881 1.70364 68.5566C1.44156 68.425 1.44156 68.1618 1.70364 68.0302C1.83468 67.8986 2.35886 67.8986 2.62094 68.0302Z" fill="#1A3962"/>
<path d="M5.1104 66.5828C5.37247 66.7144 5.37247 66.9776 5.1104 67.1092C4.84834 67.2408 4.45522 67.2408 4.19316 67.1092C3.80006 66.9776 4.84834 66.4512 5.1104 66.5828Z" fill="#1A3962"/>
<path d="M54.9056 100.927C55.1677 101.059 55.1677 101.322 54.9056 101.453C54.6435 101.585 54.2504 101.585 53.9883 101.453C53.7262 101.322 53.7262 101.059 53.9883 100.927C54.2504 100.795 54.6435 100.795 54.9056 100.927Z" fill="#1A3962"/>
<path d="M57.3955 99.4794C57.6576 99.611 57.6576 99.8742 57.3955 100.006C57.1335 100.137 56.7404 100.137 56.4783 100.006C56.2162 99.8742 56.2162 99.611 56.4783 99.4794C56.7404 99.3478 57.1335 99.3478 57.3955 99.4794Z" fill="#1A3962"/>
<path d="M59.8853 98.032C60.1473 98.1636 60.1473 98.4268 59.8853 98.5584C59.6232 98.69 59.2301 98.69 58.968 98.5584C58.706 98.4268 58.706 98.1636 58.968 98.032C59.2301 97.9005 59.6232 97.9005 59.8853 98.032Z" fill="#1A3962"/>
<path d="M62.3749 96.5845C62.637 96.7161 62.637 96.9793 62.3749 97.1109C62.1128 97.2425 61.7196 97.2425 61.4576 97.1109C61.1955 96.9793 61.1955 96.7161 61.4576 96.5845C61.7196 96.4529 62.1128 96.4529 62.3749 96.5845Z" fill="#1A3962"/>
<path d="M52.4159 99.4794C52.6779 99.611 52.6779 99.8742 52.4159 100.006C52.1538 100.137 51.7606 100.137 51.4986 100.006C51.2365 99.8742 51.2365 99.611 51.4986 99.4794C51.7606 99.3478 52.1538 99.3478 52.4159 99.4794Z" fill="#1A3962"/>
<path d="M54.3815 98.6899C54.7433 98.6899 55.0367 98.5132 55.0367 98.2951C55.0367 98.0771 54.7433 97.9004 54.3815 97.9004C54.0197 97.9004 53.7263 98.0771 53.7263 98.2951C53.7263 98.5132 54.0197 98.6899 54.3815 98.6899Z" fill="#1A3962"/>
<path d="M57.3955 96.5845C57.6576 96.7161 57.6576 96.9793 57.3955 97.1109C57.1335 97.2425 56.7404 97.2425 56.4783 97.1109C56.2162 96.9793 56.2162 96.7161 56.4783 96.5845C56.7404 96.4529 57.1335 96.4529 57.3955 96.5845Z" fill="#1A3962"/>
<path d="M59.8853 95.1371C60.1473 95.2687 60.1473 95.5319 59.8853 95.6635C59.6232 95.7951 59.2301 95.7951 58.968 95.6635C58.706 95.5319 58.706 95.2687 58.968 95.1371C59.2301 95.0056 59.6232 95.0056 59.8853 95.1371Z" fill="#1A3962"/>
<path d="M49.9261 98.032C50.1882 98.1636 50.1882 98.4268 49.9261 98.5584C49.664 98.69 49.2709 98.69 49.0088 98.5584C48.7467 98.4268 48.7467 98.1636 49.0088 98.032C49.2709 97.9005 49.664 97.9005 49.9261 98.032Z" fill="#1A3962"/>
<path d="M52.4159 96.5845C52.6779 96.7161 52.6779 96.9793 52.4159 97.1109C52.1538 97.2425 51.7606 97.2425 51.4986 97.1109C51.2365 96.9793 51.2365 96.7161 51.4986 96.5845C51.7606 96.4529 52.1538 96.4529 52.4159 96.5845Z" fill="#1A3962"/>
<path d="M54.3815 95.7951C54.7433 95.7951 55.0367 95.6184 55.0367 95.4004C55.0367 95.1824 54.7433 95.0056 54.3815 95.0056C54.0197 95.0056 53.7263 95.1824 53.7263 95.4004C53.7263 95.6184 54.0197 95.7951 54.3815 95.7951Z" fill="#1A3962"/>
<path d="M57.3955 93.6898C57.6576 93.8213 57.6576 94.0845 57.3955 94.2161C57.1335 94.3477 56.7404 94.3477 56.4783 94.2161C56.2162 94.0845 56.2162 93.8213 56.4783 93.6898C56.7404 93.5582 57.1335 93.5582 57.3955 93.6898Z" fill="#1A3962"/>
<path d="M47.4364 96.5845C47.6984 96.7161 47.6984 96.9793 47.4364 97.1109C47.1743 97.2425 46.7812 97.2425 46.5191 97.1109C46.257 96.9793 46.257 96.7161 46.5191 96.5845C46.7812 96.4529 47.1743 96.4529 47.4364 96.5845Z" fill="#1A3962"/>
<path d="M49.9261 95.1371C50.1882 95.2687 50.1882 95.5319 49.9261 95.6635C49.664 95.7951 49.2709 95.7951 49.0088 95.6635C48.7467 95.5319 48.7467 95.2687 49.0088 95.1371C49.2709 95.0056 49.664 95.0056 49.9261 95.1371Z" fill="#1A3962"/>
<path d="M52.4159 93.6898C52.6779 93.8213 52.6779 94.0845 52.4159 94.2161C52.1538 94.3477 51.7606 94.3477 51.4986 94.2161C51.2365 94.0845 51.2365 93.8213 51.4986 93.6898C51.7606 93.5582 52.1538 93.5582 52.4159 93.6898Z" fill="#1A3962"/>
<path d="M54.9056 92.2422C55.1677 92.3738 55.1677 92.637 54.9056 92.7686C54.6435 92.9001 54.2504 92.9001 53.9883 92.7686C53.7262 92.637 53.7262 92.3738 53.9883 92.2422C54.2504 92.1107 54.6435 92.1107 54.9056 92.2422Z" fill="#1A3962"/>
<path d="M57.3956 91.4527C57.1335 91.5843 56.7404 91.5843 56.4783 91.4527C56.2162 91.3211 56.2162 91.0579 56.4783 90.9263C56.7404 90.6632 57.6577 91.1895 57.3956 91.4527Z" fill="#1A3962"/>
<path d="M44.9468 95.1371C45.2089 95.2687 45.2089 95.5319 44.9468 95.6635C44.6847 95.7951 44.2916 95.7951 44.0296 95.6635C43.7675 95.5319 43.7675 95.2687 44.0296 95.1371C44.2916 95.0056 44.6847 95.0056 44.9468 95.1371Z" fill="#1A3962"/>
<path d="M47.4364 93.6898C47.6984 93.8213 47.6984 94.0845 47.4364 94.2161C47.1743 94.3477 46.7812 94.3477 46.5191 94.2161C46.257 94.0845 46.257 93.8213 46.5191 93.6898C46.7812 93.5582 47.1743 93.5582 47.4364 93.6898Z" fill="#1A3962"/>
<path d="M49.9261 92.2422C50.1882 92.3738 50.1882 92.637 49.9261 92.7686C49.664 92.9001 49.2709 92.9001 49.0088 92.7686C48.7467 92.637 48.7467 92.3738 49.0088 92.2422C49.2709 92.1107 49.664 92.1107 49.9261 92.2422Z" fill="#1A3962"/>
<path d="M52.4159 90.7949C52.6779 90.9264 52.6779 91.1896 52.4159 91.3212C52.1538 91.4528 51.7606 91.4528 51.4986 91.3212C51.2365 91.1896 51.2365 90.9264 51.4986 90.7949C51.7606 90.6633 52.1538 90.6633 52.4159 90.7949Z" fill="#1A3962"/>
<path d="M54.9057 90.0053C54.6436 90.1369 54.2504 90.1369 53.9883 90.0053C53.7262 89.8737 53.7262 89.6105 53.9883 89.4789C54.2504 89.2158 55.1677 89.7421 54.9057 90.0053Z" fill="#1A3962"/>
<path d="M42.4569 93.6898C42.719 93.8213 42.719 94.0845 42.4569 94.2161C42.1948 94.3477 41.8017 94.3477 41.5396 94.2161C41.2775 94.0845 41.2775 93.8213 41.5396 93.6898C41.8017 93.5582 42.1948 93.5582 42.4569 93.6898Z" fill="#1A3962"/>
<path d="M44.9468 92.2422C45.2089 92.3738 45.2089 92.637 44.9468 92.7686C44.6847 92.9001 44.2916 92.9001 44.0296 92.7686C43.7675 92.637 43.7675 92.3738 44.0296 92.2422C44.2916 92.1107 44.6847 92.1107 44.9468 92.2422Z" fill="#1A3962"/>
<path d="M46.9123 91.4528C47.2742 91.4528 47.5675 91.276 47.5675 91.058C47.5675 90.8399 47.2742 90.6632 46.9123 90.6632C46.5504 90.6632 46.2571 90.8399 46.2571 91.058C46.2571 91.276 46.5504 91.4528 46.9123 91.4528Z" fill="#1A3962"/>
<path d="M49.9261 89.3474C50.1882 89.4789 50.1882 89.7421 49.9261 89.8737C49.664 90.0053 49.2709 90.0053 49.0088 89.8737C48.7467 89.7421 48.7467 89.4789 49.0088 89.3474C49.2709 89.2158 49.664 89.2158 49.9261 89.3474Z" fill="#1A3962"/>
<path d="M52.4159 88.5578C52.1538 88.6894 51.7607 88.6894 51.4986 88.5578C51.2365 88.4262 51.2365 88.163 51.4986 88.0314C51.7607 87.7683 52.678 88.2946 52.4159 88.5578Z" fill="#1A3962"/>
<path d="M39.9671 92.2422C40.2292 92.3738 40.2292 92.637 39.9671 92.7686C39.705 92.9001 39.3119 92.9001 39.0498 92.7686C38.7878 92.637 38.7878 92.3738 39.0498 92.2422C39.3119 92.1107 39.705 92.1107 39.9671 92.2422Z" fill="#1A3962"/>
<path d="M42.4569 90.7949C42.719 90.9264 42.719 91.1896 42.4569 91.3212C42.1948 91.4528 41.8017 91.4528 41.5396 91.3212C41.2775 91.1896 41.2775 90.9264 41.5396 90.7949C41.8017 90.6633 42.1948 90.6633 42.4569 90.7949Z" fill="#1A3962"/>
<path d="M44.9468 89.3474C45.2089 89.4789 45.2089 89.7421 44.9468 89.8737C44.6847 90.0053 44.2916 90.0053 44.0296 89.8737C43.7675 89.7421 43.7675 89.4789 44.0296 89.3474C44.2916 89.2158 44.6847 89.2158 44.9468 89.3474Z" fill="#1A3962"/>
<path d="M47.4364 87.8998C47.6984 88.0314 47.6984 88.2946 47.4364 88.4262C47.1743 88.5578 46.7812 88.5578 46.5191 88.4262C46.257 88.2946 46.257 88.0314 46.5191 87.8998C46.7812 87.7683 47.1743 87.7683 47.4364 87.8998Z" fill="#1A3962"/>
<path d="M49.9261 87.1103C49.664 87.2419 49.2709 87.2419 49.0088 87.1103C48.7467 86.9787 48.7467 86.7155 49.0088 86.5839C49.2709 86.3208 50.1882 86.8471 49.9261 87.1103Z" fill="#1A3962"/>
<path d="M37.4774 90.7949C37.7395 90.9264 37.7395 91.1896 37.4774 91.3212C37.2153 91.4528 36.8222 91.4528 36.5601 91.3212C36.298 91.1896 36.298 90.9264 36.5601 90.7949C36.8222 90.6633 37.2153 90.6633 37.4774 90.7949Z" fill="#1A3962"/>
<path d="M39.9671 89.3474C40.2292 89.4789 40.2292 89.7421 39.9671 89.8737C39.705 90.0053 39.3119 90.0053 39.0498 89.8737C38.7878 89.7421 38.7878 89.4789 39.0498 89.3474C39.3119 89.2158 39.705 89.2158 39.9671 89.3474Z" fill="#1A3962"/>
<path d="M42.4569 87.8998C42.719 88.0314 42.719 88.2946 42.4569 88.4262C42.1948 88.5578 41.8017 88.5578 41.5396 88.4262C41.2775 88.2946 41.2775 88.0314 41.5396 87.8998C41.8017 87.7683 42.1948 87.7683 42.4569 87.8998Z" fill="#1A3962"/>
<path d="M44.9468 86.4524C45.2089 86.584 45.2089 86.8472 44.9468 86.9788C44.6847 87.1104 44.2916 87.1104 44.0296 86.9788C43.7675 86.8472 43.7675 86.584 44.0296 86.4524C44.2916 86.3209 44.6847 86.3209 44.9468 86.4524Z" fill="#1A3962"/>
<path d="M47.4363 85.6629C47.1743 85.7945 46.7812 85.7945 46.5191 85.6629C46.257 85.5313 46.257 85.2681 46.5191 85.1365C46.7812 84.8734 47.6984 85.3997 47.4363 85.6629Z" fill="#1A3962"/>
<path d="M34.9876 89.3474C35.2496 89.4789 35.2496 89.7421 34.9876 89.8737C34.7255 90.0053 34.3324 90.0053 34.0703 89.8737C33.8083 89.7421 33.8083 89.4789 34.0703 89.3474C34.3324 89.2158 34.7255 89.2158 34.9876 89.3474Z" fill="#1A3962"/>
<path d="M37.4774 87.8998C37.7395 88.0314 37.7395 88.2946 37.4774 88.4262C37.2153 88.5578 36.8222 88.5578 36.5601 88.4262C36.298 88.2946 36.298 88.0314 36.5601 87.8998C36.8222 87.7683 37.2153 87.7683 37.4774 87.8998Z" fill="#1A3962"/>
<path d="M39.9671 86.4524C40.2292 86.584 40.2292 86.8472 39.9671 86.9788C39.705 87.1104 39.3119 87.1104 39.0498 86.9788C38.7878 86.8472 38.7878 86.584 39.0498 86.4524C39.3119 86.3209 39.705 86.3209 39.9671 86.4524Z" fill="#1A3962"/>
<path d="M42.4569 85.0049C42.719 85.1365 42.719 85.3997 42.4569 85.5313C42.1948 85.6629 41.8017 85.6629 41.5396 85.5313C41.2775 85.3997 41.2775 85.1365 41.5396 85.0049C41.8017 84.8734 42.1948 84.8734 42.4569 85.0049Z" fill="#1A3962"/>
<path d="M44.9467 84.2155C44.6847 84.3471 44.2916 84.3471 44.0295 84.2155C43.7675 84.0839 43.7675 83.8207 44.0295 83.6891C44.2916 83.4259 45.2088 84.0839 44.9467 84.2155Z" fill="#1A3962"/>
<path d="M32.4979 87.8998C32.7599 88.0314 32.7599 88.2946 32.4979 88.4262C32.2358 88.5578 31.8427 88.5578 31.5806 88.4262C31.3185 88.2946 31.3185 88.0314 31.5806 87.8998C31.8427 87.7683 32.2358 87.7683 32.4979 87.8998Z" fill="#1A3962"/>
<path d="M34.9876 86.4524C35.2496 86.584 35.2496 86.8472 34.9876 86.9788C34.7255 87.1104 34.3324 87.1104 34.0703 86.9788C33.8083 86.8472 33.8083 86.584 34.0703 86.4524C34.3324 86.3209 34.7255 86.3209 34.9876 86.4524Z" fill="#1A3962"/>
<path d="M37.4774 85.0049C37.7395 85.1365 37.7395 85.3997 37.4774 85.5313C37.2153 85.6629 36.8222 85.6629 36.5601 85.5313C36.298 85.3997 36.298 85.1365 36.5601 85.0049C36.8222 84.8734 37.2153 84.8734 37.4774 85.0049Z" fill="#1A3962"/>
<path d="M39.9671 83.5576C40.2292 83.6891 40.2292 83.9523 39.9671 84.0839C39.705 84.2155 39.3119 84.2155 39.0498 84.0839C38.7878 83.9523 38.7878 83.6891 39.0498 83.5576C39.3119 83.426 39.705 83.426 39.9671 83.5576Z" fill="#1A3962"/>
<path d="M42.4568 82.768C42.1947 82.8996 41.8016 82.8996 41.5396 82.768C41.2775 82.6364 41.2775 82.3732 41.5396 82.2416C41.8016 81.9784 42.7189 82.6364 42.4568 82.768Z" fill="#1A3962"/>
<path d="M30.0082 86.4524C30.2703 86.584 30.2703 86.8472 30.0082 86.9788C29.7461 87.1104 29.3529 87.1104 29.0909 86.9788C28.8288 86.8472 28.8288 86.584 29.0909 86.4524C29.3529 86.3209 29.7461 86.3209 30.0082 86.4524Z" fill="#1A3962"/>
<path d="M32.4979 85.0049C32.7599 85.1365 32.7599 85.3997 32.4979 85.5313C32.2358 85.6629 31.8427 85.6629 31.5806 85.5313C31.3185 85.3997 31.3185 85.1365 31.5806 85.0049C31.8427 84.8734 32.2358 84.8734 32.4979 85.0049Z" fill="#1A3962"/>
<path d="M34.9876 83.5576C35.2496 83.6891 35.2496 83.9523 34.9876 84.0839C34.7255 84.2155 34.3324 84.2155 34.0703 84.0839C33.8083 83.9523 33.8083 83.6891 34.0703 83.5576C34.3324 83.426 34.7255 83.426 34.9876 83.5576Z" fill="#1A3962"/>
<path d="M37.4774 82.2416C37.7395 82.3732 37.7395 82.6363 37.4774 82.7679C37.2153 82.8995 36.8222 82.8995 36.5601 82.7679C36.298 82.6363 36.298 82.3732 36.5601 82.2416C36.8222 81.9784 37.2153 81.9784 37.4774 82.2416Z" fill="#1A3962"/>
<path d="M39.9671 81.3205C39.705 81.4521 39.3119 81.4521 39.0498 81.3205C38.7878 81.189 38.7878 80.9258 39.0498 80.7942C39.3119 80.531 40.2292 81.189 39.9671 81.3205Z" fill="#1A3962"/>
<path d="M27.5184 85.0049C27.7804 85.1365 27.7804 85.3997 27.5184 85.5313C27.2563 85.6629 26.8632 85.6629 26.6011 85.5313C26.339 85.3997 26.339 85.1365 26.6011 85.0049C26.8632 84.8734 27.2563 84.8734 27.5184 85.0049Z" fill="#1A3962"/>
<path d="M30.0082 83.5576C30.2703 83.6891 30.2703 83.9523 30.0082 84.0839C29.7461 84.2155 29.3529 84.2155 29.0909 84.0839C28.8288 83.9523 28.8288 83.6891 29.0909 83.5576C29.3529 83.426 29.7461 83.426 30.0082 83.5576Z" fill="#1A3962"/>
<path d="M32.4979 82.2416C32.7599 82.3732 32.7599 82.6363 32.4979 82.7679C32.2358 82.8995 31.8427 82.8995 31.5806 82.7679C31.3185 82.6363 31.3185 82.3732 31.5806 82.2416C31.8427 81.9784 32.2358 81.9784 32.4979 82.2416Z" fill="#1A3962"/>
<path d="M34.5944 81.4521C34.9563 81.4521 35.2496 81.2754 35.2496 81.0574C35.2496 80.8393 34.9563 80.6626 34.5944 80.6626C34.2326 80.6626 33.9392 80.8393 33.9392 81.0574C33.9392 81.2754 34.2326 81.4521 34.5944 81.4521Z" fill="#1A3962"/>
<path d="M25.0287 83.5576C25.2908 83.6891 25.2908 83.9523 25.0287 84.0839C24.7666 84.2155 24.3734 84.2155 24.1114 84.0839C23.8493 83.9523 23.8493 83.6891 24.1114 83.5576C24.3734 83.426 24.7666 83.426 25.0287 83.5576Z" fill="#1A3962"/>
<path d="M27.5184 82.2416C27.7804 82.3732 27.7804 82.6363 27.5184 82.7679C27.2563 82.8995 26.8632 82.8995 26.6011 82.7679C26.339 82.6363 26.339 82.3732 26.6011 82.2416C26.8632 81.9784 27.2563 81.9784 27.5184 82.2416Z" fill="#1A3962"/>
<path d="M30.0082 80.7942C30.2703 80.9258 30.2703 81.1889 30.0082 81.3205C29.7461 81.4521 29.3529 81.4521 29.0909 81.3205C28.8288 81.1889 28.8288 80.9258 29.0909 80.7942C29.3529 80.531 29.7461 80.531 30.0082 80.7942Z" fill="#1A3962"/>
<path d="M32.4979 79.3467C32.7599 79.4783 32.7599 79.7415 32.4979 79.8731C32.2358 80.0047 31.8427 80.0047 31.5806 79.8731C31.3185 79.7415 31.3185 79.4783 31.5806 79.3467C31.8427 79.2152 32.2358 79.2152 32.4979 79.3467Z" fill="#1A3962"/>
<path d="M22.5389 82.11C22.801 82.2416 22.801 82.5048 22.5389 82.6364C22.2768 82.768 21.8837 82.768 21.6216 82.6364C21.3595 82.5048 21.3595 82.2416 21.6216 82.11C21.8837 81.9785 22.2768 81.9785 22.5389 82.11Z" fill="#1A3962"/>
<path d="M25.0287 80.7942C25.2908 80.9257 25.2908 81.1889 25.0287 81.3205C24.7666 81.4521 24.3734 81.4521 24.1114 81.3205C23.8493 81.1889 23.8493 80.9257 24.1114 80.7942C24.3734 80.6626 24.7666 80.531 25.0287 80.7942Z" fill="#1A3962"/>
<path d="M27.5184 79.3468C27.7804 79.4784 27.7804 79.7415 27.5184 79.8731C27.2563 80.0047 26.8632 80.0047 26.6011 79.8731C26.339 79.7415 26.339 79.4784 26.6011 79.3468C26.8632 79.0836 27.2563 79.0836 27.5184 79.3468Z" fill="#1A3962"/>
<path d="M30.0082 77.8993C30.2703 78.0309 30.2703 78.294 30.0082 78.4256C29.7461 78.5572 29.3529 78.5572 29.0909 78.4256C28.8288 78.294 28.8288 78.0309 29.0909 77.8993C29.3529 77.6361 29.7461 77.6361 30.0082 77.8993Z" fill="#1A3962"/>
<path d="M20.0491 80.7942C20.3112 80.9258 20.3112 81.1889 20.0491 81.3205C19.787 81.4521 19.3939 81.4521 19.1319 81.3205C18.8698 81.1889 18.8698 80.9258 19.1319 80.7942C19.3939 80.531 19.787 80.531 20.0491 80.7942Z" fill="#1A3962"/>
<path d="M22.5389 79.3468C22.801 79.4784 22.801 79.7415 22.5389 79.8731C22.2768 80.0047 21.8837 80.0047 21.6216 79.8731C21.3595 79.7415 21.3595 79.4784 21.6216 79.3468C21.8837 79.0836 22.2768 79.0836 22.5389 79.3468Z" fill="#1A3962"/>
<path d="M25.0287 77.8993C25.2908 78.0309 25.2908 78.294 25.0287 78.4256C24.7666 78.5572 24.3734 78.5572 24.1114 78.4256C23.8493 78.294 23.8493 78.0309 24.1114 77.8993C24.3734 77.6361 24.7666 77.6361 25.0287 77.8993Z" fill="#1A3962"/>
<path d="M27.1254 77.1097C27.4873 77.1097 27.7806 76.933 27.7806 76.7149C27.7806 76.4969 27.4873 76.3202 27.1254 76.3202C26.7636 76.3202 26.4702 76.4969 26.4702 76.7149C26.4702 76.933 26.7636 77.1097 27.1254 77.1097Z" fill="#1A3962"/>
<path d="M17.5594 79.3468C17.8215 79.4784 17.8215 79.7415 17.5594 79.8731C17.2973 80.0047 16.9042 80.0047 16.6421 79.8731C16.38 79.7415 16.38 79.4784 16.6421 79.3468C16.9042 79.0836 17.2973 79.0836 17.5594 79.3468Z" fill="#1A3962"/>
<path d="M20.0491 77.8993C20.3112 78.0309 20.3112 78.294 20.0491 78.4256C19.787 78.5572 19.3939 78.5572 19.1319 78.4256C18.8698 78.294 18.8698 78.0309 19.1319 77.8993C19.3939 77.6361 19.787 77.6361 20.0491 77.8993Z" fill="#1A3962"/>
<path d="M22.5389 76.4518C22.801 76.5834 22.801 76.8466 22.5389 76.9782C22.2768 77.1098 21.8837 77.1098 21.6216 76.9782C21.3595 76.8466 21.3595 76.5834 21.6216 76.4518C21.8837 76.3203 22.2768 76.3203 22.5389 76.4518Z" fill="#1A3962"/>
<path d="M25.0287 75.0044C25.2908 75.136 25.2908 75.3992 25.0287 75.5308C24.7666 75.6624 24.3734 75.6624 24.1114 75.5308C23.8493 75.3992 23.8493 75.136 24.1114 75.0044C24.3734 74.8729 24.7666 74.8729 25.0287 75.0044C25.2908 75.136 24.7666 74.8729 25.0287 75.0044Z" fill="#1A3962"/>
<path d="M15.0697 77.8993C15.3317 78.0309 15.3317 78.294 15.0697 78.4256C14.8076 78.5572 14.4145 78.5572 14.1524 78.4256C13.8903 78.294 13.8903 78.0309 14.1524 77.8993C14.4145 77.6361 14.8076 77.6361 15.0697 77.8993Z" fill="#1A3962"/>
<path d="M17.5594 76.4518C17.8215 76.5834 17.8215 76.8466 17.5594 76.9782C17.2973 77.1098 16.9042 77.1098 16.6421 76.9782C16.38 76.8466 16.38 76.5834 16.6421 76.4518C16.9042 76.3203 17.2973 76.3203 17.5594 76.4518Z" fill="#1A3962"/>
<path d="M20.0491 75.0044C20.3112 75.136 20.3112 75.3992 20.0491 75.5308C19.787 75.6624 19.3939 75.6624 19.1319 75.5308C18.8698 75.3992 18.8698 75.136 19.1319 75.0044C19.3939 74.8729 19.787 74.8729 20.0491 75.0044Z" fill="#1A3962"/>
<path d="M69.8442 112.375C70.1063 112.507 70.1063 112.77 69.8442 112.901C69.5822 113.033 69.1891 113.033 68.927 112.901C68.665 112.77 68.665 112.507 68.927 112.375C69.1891 112.243 69.5822 112.243 69.8442 112.375Z" fill="#1A3962"/>
<path d="M67.3544 110.928C67.6165 111.059 67.6165 111.322 67.3544 111.454C67.0923 111.585 66.6991 111.585 66.437 111.454C66.175 111.322 66.175 111.059 66.437 110.928C66.6991 110.796 67.0923 110.796 67.3544 110.928Z" fill="#1A3962"/>
<path d="M59.8853 106.585C60.1473 106.717 60.1473 106.98 59.8853 107.111C59.6232 107.243 59.2301 107.243 58.968 107.111C58.706 106.98 58.706 106.717 58.968 106.585C59.2301 106.453 59.6232 106.453 59.8853 106.585Z" fill="#1A3962"/>
<path d="M57.3955 105.138C57.6576 105.269 57.6576 105.532 57.3955 105.664C57.1335 105.796 56.7404 105.796 56.4783 105.664C56.2162 105.532 56.2162 105.269 56.4783 105.138C56.7404 105.006 57.1335 105.006 57.3955 105.138Z" fill="#1A3962"/>
<path d="M54.9056 103.69C55.1677 103.822 55.1677 104.085 54.9056 104.217C54.6435 104.348 54.2504 104.348 53.9883 104.217C53.7262 104.085 53.7262 103.822 53.9883 103.69C54.2504 103.559 54.6435 103.559 54.9056 103.69Z" fill="#1A3962"/>
<path d="M64.8648 109.48C65.1269 109.612 65.1269 109.875 64.8648 110.007C64.6027 110.138 64.2096 110.138 63.9475 110.007C63.6855 109.875 63.6855 109.612 63.9475 109.48C64.2096 109.349 64.6027 109.349 64.8648 109.48Z" fill="#1A3962"/>
<path d="M62.3749 108.033C62.637 108.164 62.637 108.427 62.3749 108.559C62.1128 108.691 61.7196 108.691 61.4576 108.559C61.1955 108.427 61.1955 108.164 61.4576 108.033C61.7196 107.901 62.1128 107.901 62.3749 108.033Z" fill="#1A3962"/>
<path d="M74.8238 112.375C75.0859 112.507 75.0859 112.77 74.8238 112.901C74.5617 113.033 74.1686 113.033 73.9065 112.901C73.6444 112.77 73.6444 112.507 73.9065 112.375C74.1686 112.243 74.5617 112.243 74.8238 112.375Z" fill="#1A3962"/>
<path d="M77.3136 110.928C77.5757 111.059 77.5757 111.322 77.3136 111.454C77.0515 111.585 76.6584 111.585 76.3963 111.454C76.1342 111.322 76.1342 111.059 76.3963 110.928C76.6584 110.796 77.0515 110.796 77.3136 110.928Z" fill="#1A3962"/>
<path d="M79.8033 109.48C80.0654 109.612 80.0654 109.875 79.8033 110.007C79.5412 110.138 79.1481 110.138 78.886 110.007C78.6239 109.875 78.6239 109.612 78.886 109.48C79.1481 109.349 79.5412 109.349 79.8033 109.48Z" fill="#1A3962"/>
<path d="M72.334 110.928C72.5961 111.059 72.5961 111.322 72.334 111.454C72.0719 111.585 71.6788 111.585 71.4168 111.454C71.1547 111.322 71.1547 111.059 71.4168 110.928C71.6788 110.796 72.0719 110.796 72.334 110.928Z" fill="#1A3962"/>
<path d="M74.8238 109.48C75.0859 109.612 75.0859 109.875 74.8238 110.007C74.5617 110.138 74.1686 110.138 73.9065 110.007C73.6444 109.875 73.6444 109.612 73.9065 109.48C74.1686 109.349 74.5617 109.349 74.8238 109.48Z" fill="#1A3962"/>
<path d="M77.3136 108.033C77.5757 108.164 77.5757 108.427 77.3136 108.559C77.0515 108.691 76.6584 108.691 76.3963 108.559C76.1342 108.427 76.1342 108.164 76.3963 108.033C76.6584 107.901 77.0515 107.901 77.3136 108.033Z" fill="#1A3962"/>
<path d="M69.8442 109.48C70.1063 109.612 70.1063 109.875 69.8442 110.007C69.5822 110.138 69.1891 110.138 68.927 110.007C68.665 109.875 68.665 109.612 68.927 109.48C69.1891 109.349 69.5822 109.349 69.8442 109.48Z" fill="#1A3962"/>
<path d="M72.334 108.033C72.5961 108.164 72.5961 108.427 72.334 108.559C72.0719 108.691 71.6788 108.691 71.4168 108.559C71.1547 108.427 71.1547 108.164 71.4168 108.033C71.6788 107.901 72.0719 107.901 72.334 108.033Z" fill="#1A3962"/>
<path d="M67.3544 108.033C67.6165 108.164 67.6165 108.427 67.3544 108.559C67.0923 108.691 66.6991 108.691 66.437 108.559C66.175 108.427 66.175 108.164 66.437 108.033C66.6991 107.901 67.0923 107.901 67.3544 108.033Z" fill="#1A3962"/>
<path d="M69.8442 106.585C70.1063 106.717 70.1063 106.98 69.8442 107.111C69.5822 107.243 69.1891 107.243 68.927 107.111C68.665 106.98 68.665 106.717 68.927 106.585C69.1891 106.453 69.5822 106.453 69.8442 106.585Z" fill="#1A3962"/>
<path d="M64.8648 106.585C65.1269 106.717 65.1269 106.98 64.8648 107.111C64.6027 107.243 64.2096 107.243 63.9475 107.111C63.6855 106.98 63.6855 106.717 63.9475 106.585C64.2096 106.453 64.6027 106.453 64.8648 106.585Z" fill="#1A3962"/>
<path d="M67.3544 105.138C67.6165 105.269 67.6165 105.532 67.3544 105.664C67.0923 105.796 66.6991 105.796 66.437 105.664C66.175 105.532 66.175 105.269 66.437 105.138C66.6991 105.006 67.0923 105.006 67.3544 105.138Z" fill="#1A3962"/>
<path d="M69.8442 103.69C70.1063 103.822 70.1063 104.085 69.8442 104.217C69.5822 104.348 69.1891 104.348 68.927 104.217C68.665 104.085 68.665 103.822 68.927 103.69C69.1891 103.559 69.5822 103.559 69.8442 103.69Z" fill="#1A3962"/>
<path d="M62.3749 105.138C62.637 105.269 62.637 105.532 62.3749 105.664C62.1128 105.796 61.7196 105.796 61.4576 105.664C61.1955 105.532 61.1955 105.269 61.4576 105.138C61.7196 105.006 62.1128 105.006 62.3749 105.138Z" fill="#1A3962"/>
<path d="M64.8648 103.69C65.1269 103.822 65.1269 104.085 64.8648 104.217C64.6027 104.348 64.2096 104.348 63.9475 104.217C63.6855 104.085 63.6855 103.822 63.9475 103.69C64.2096 103.559 64.6027 103.559 64.8648 103.69Z" fill="#1A3962"/>
<path d="M67.3544 102.243C67.6165 102.374 67.6165 102.638 67.3544 102.769C67.0923 102.901 66.6991 102.901 66.437 102.769C66.175 102.638 66.175 102.374 66.437 102.243C66.6991 102.111 67.0923 102.111 67.3544 102.243Z" fill="#1A3962"/>
<path d="M59.8853 103.69C60.1473 103.822 60.1473 104.085 59.8853 104.217C59.6232 104.348 59.2301 104.348 58.968 104.217C58.706 104.085 58.706 103.822 58.968 103.69C59.2301 103.559 59.6232 103.559 59.8853 103.69Z" fill="#1A3962"/>
<path d="M62.3749 102.243C62.637 102.374 62.637 102.638 62.3749 102.769C62.1128 102.901 61.7196 102.901 61.4576 102.769C61.1955 102.638 61.1955 102.374 61.4576 102.243C61.7196 102.111 62.1128 102.111 62.3749 102.243Z" fill="#1A3962"/>
<path d="M64.8648 100.795C65.1269 100.927 65.1269 101.19 64.8648 101.322C64.6027 101.453 64.2096 101.453 63.9475 101.322C63.6855 101.19 63.6855 100.927 63.9475 100.795C64.2096 100.664 64.6027 100.664 64.8648 100.795Z" fill="#1A3962"/>
<path d="M57.3955 102.243C57.6576 102.374 57.6576 102.638 57.3955 102.769C57.1335 102.901 56.7404 102.901 56.4783 102.769C56.2162 102.638 56.2162 102.374 56.4783 102.243C56.7404 102.111 57.1335 102.111 57.3955 102.243Z" fill="#1A3962"/>
<path d="M59.8853 100.795C60.1473 100.927 60.1473 101.19 59.8853 101.322C59.6232 101.453 59.2301 101.453 58.968 101.322C58.706 101.19 58.706 100.927 58.968 100.795C59.2301 100.664 59.6232 100.664 59.8853 100.795Z" fill="#1A3962"/>
<path d="M62.3749 99.3478C62.637 99.4794 62.637 99.7426 62.3749 99.8742C62.1128 100.006 61.7196 100.006 61.4576 99.8742C61.1955 99.7426 61.1955 99.4794 61.4576 99.3478C61.7196 99.2162 62.1128 99.2162 62.3749 99.3478Z" fill="#1A3962"/>
<path d="M64.8648 98.5584C64.6027 98.69 64.2096 98.69 63.9475 98.5584C63.6855 98.4268 63.6855 98.1636 63.9475 98.032C64.2096 97.9005 64.6027 97.9005 64.8648 98.032C65.1269 98.1636 65.1269 98.4268 64.8648 98.5584Z" fill="#1A3962"/>
<path d="M75.8727 40.1343L6.81464 0.526718C5.89736 0.000371397 5.11114 0.000371397 4.58698 0.526718L1.17993 2.50052L3.66968 6.05336V60.0039C3.66968 62.2408 5.11112 64.8726 6.81464 65.7937L71.2864 102.77L74.5623 107.507L77.7073 105.533C78.3625 105.138 78.8867 104.349 78.8867 103.033V46.0557C79.0177 43.8187 77.5763 41.187 75.8727 40.1343Z" fill="#4B8EC8"/>
<path d="M59.6231 37.3706L2.22756 5.13192L1.3103 3.02654L3.80006 1.4475C4.32421 1.05274 5.11047 0.921155 6.02775 1.4475L75.0858 41.0551C76.0031 41.5814 76.9204 42.6341 77.4446 43.8184L77.5756 44.2131L73.5134 46.7133L59.6231 37.3706Z" fill="white"/>
<path d="M77.9687 46.1869L74.2996 48.4239L74.5617 49.8713L77.9687 47.7659V46.1869Z" fill="white"/>
<path d="M4.45533 0.39476C5.11053 -0.131587 6.02781 -0.131587 7.07613 0.39476L76.1342 40.0023C77.9688 41.055 79.4102 43.8183 79.4102 46.1869V103.164C79.4102 104.48 78.8861 105.532 78.0998 105.927L74.6928 108.033L71.2857 103.164L6.81404 66.3196C4.97948 65.267 3.53804 62.5036 3.53804 60.1351V6.31616L0.917236 2.50014L4.45533 0.39476ZM4.06223 6.05298V60.0035C4.06223 62.1089 5.3726 64.609 6.94508 65.5301L71.4168 102.506L74.6928 107.111L75.348 106.717L75.479 105.664L77.9688 104.085C78.3619 103.822 78.4929 103.559 78.4929 103.032V46.0553C78.4929 43.9499 77.1825 41.4498 75.61 40.5287L6.55198 0.921106C5.89678 0.526346 5.24159 0.526346 4.71743 0.921106L1.57244 2.76332L4.06223 6.05298Z" fill="#16110D"/>
<path d="M23.5869 88.821L37.6081 80.7942C38.9185 80.0047 41.2773 80.1362 42.8497 81.0573L51.3673 85.926L55.4296 87.7683V89.6105C55.2985 90.1368 55.0365 90.5316 54.5123 90.7948L37.215 100.664C36.5598 101.059 35.7736 101.19 34.9873 101.19C33.939 101.19 32.8907 100.927 32.1045 100.401L20.8351 93.9528C20.0488 93.4265 19.5247 92.9001 19.5247 92.1106V91.979V90.5316L23.5869 88.821Z" fill="#16110D"/>
<path d="M54.2504 89.0842L36.9531 98.9532C35.6427 99.6111 33.5461 99.6111 32.1046 98.69L20.8352 92.2423C19.3937 91.4527 19.2627 90.1369 20.4421 89.4789L37.7393 79.61C39.0497 78.952 41.1464 78.952 42.5878 79.8731L53.8573 86.3209C55.2987 87.1104 55.4297 88.2947 54.2504 89.0842Z" fill="#4B8EC8"/>
<path d="M22.4076 90.9263L27.125 88.163C28.6975 87.2419 30.5321 87.2419 32.1046 88.163L43.8981 94.8739L36.822 98.9531C35.5116 99.611 33.4149 99.611 31.9735 98.6899L22.9318 93.6896C21.3593 92.9001 21.0972 91.5842 22.4076 90.9263Z" fill="white"/>
<path d="M34.8565 99.7427C35.6427 99.7427 36.56 99.6111 37.0841 99.2163L54.3814 89.3474C55.0366 88.9526 55.4297 88.4262 55.4297 87.8999C55.4297 87.242 54.9056 86.584 54.1193 86.0577L42.8499 79.6099C41.2774 78.6888 39.0497 78.6888 37.6083 79.3468L20.311 89.2158C19.6558 89.6105 19.2627 90.1369 19.2627 90.6632C19.2627 91.3211 19.7869 91.9791 20.5731 92.5054L31.8425 98.9532C32.7598 99.4795 33.8082 99.7427 34.8565 99.7427ZM53.9883 88.821L36.691 98.69C35.5117 99.3479 33.5461 99.2163 32.1046 98.4268L20.8352 91.9791C20.18 91.5843 19.7869 91.1896 19.7869 90.6632C19.7869 90.2685 20.18 89.8737 20.4421 89.7421L37.7393 79.8731C38.9187 79.2152 40.8843 79.3468 42.3257 80.1363L53.5952 86.584C54.2504 86.9788 54.6435 87.3735 54.6435 87.8999C54.6435 88.2947 54.3814 88.5578 53.9883 88.821Z" fill="#16110D"/>
<path d="M1.17935 2.23696C1.83455 1.8422 2.62078 1.8422 3.53806 2.36854L72.5962 41.9761C74.4307 43.0288 75.8722 45.7921 75.8722 48.1607V105.138C75.8722 106.454 75.348 106.98 74.9549 107.243C74.6928 107.375 74.2997 107.506 74.0376 107.506C73.5134 107.506 72.7272 107.243 72.072 106.848L3.276 68.1618C1.44144 67.1091 0 64.3458 0 61.9773V5.00028C0 3.68441 0.524152 2.63172 1.17935 2.23696Z" fill="#16110D"/>
<path d="M0.393066 55.3979V62.372C0.393066 64.4774 1.83451 66.9776 3.66907 68.0303L72.334 107.375C74.1686 108.427 75.61 107.638 75.61 105.532V98.5583L0.393066 55.3979Z" fill="#4B8EC8"/>
<path d="M73.7756 108.033C74.1687 108.033 74.5618 107.901 74.8239 107.769C75.6101 107.375 76.0033 106.454 76.0033 105.401V98.2951L75.8722 98.1636L0.131104 54.74V62.2404C0.131104 64.4774 1.70356 67.1091 3.66916 68.1618L72.3341 107.506C72.7272 107.901 73.2514 108.033 73.7756 108.033ZM75.217 98.6899V105.401C75.217 106.322 74.9549 106.98 74.4308 107.243C73.9066 107.506 73.2514 107.506 72.4652 106.98L3.80021 67.7671C2.09669 66.7144 0.655255 64.3458 0.655255 62.372V56.0559L75.217 98.6899Z" fill="#16110D"/>
<path d="M71.1546 91.5843L4.84835 53.6873C4.19315 53.2926 3.80005 52.3715 3.80005 51.5819V8.02678C3.80005 7.23726 4.32419 6.8425 4.84835 7.23726L71.1546 45.1342C71.8098 45.529 72.203 46.4501 72.203 47.2396V90.7948C72.203 91.5843 71.6788 91.979 71.1546 91.5843Z" fill="white"/>
<path d="M71.548 92.1106C71.679 92.1106 71.8101 92.1106 71.9411 91.979C72.3342 91.7159 72.4652 91.3211 72.4652 90.7948V47.2396C72.4652 46.3185 71.9411 45.2658 71.1548 44.871L4.84858 6.97411C4.45546 6.71094 4.06236 6.71094 3.80028 6.97411C3.40716 7.23729 3.27612 7.63205 3.27612 8.15839V51.7136C3.27612 52.6347 3.80028 53.6874 4.58652 54.0821L70.8928 91.979C71.1549 91.979 71.2859 92.1106 71.548 92.1106ZM4.45548 7.36887C4.58652 7.36887 4.71757 7.36887 4.71757 7.50046L71.0238 45.3974C71.548 45.6606 71.9411 46.4501 71.9411 47.2396V90.7948C71.9411 91.0579 71.81 91.3211 71.679 91.3211C71.548 91.4527 71.4169 91.3211 71.2859 91.3211L4.97963 53.4242C4.45547 53.161 4.06237 52.3715 4.06237 51.582V8.0268C4.06237 7.76363 4.1934 7.50046 4.45548 7.36887C4.32444 7.36887 4.32444 7.36887 4.45548 7.36887Z" fill="#16110D"/>
<path d="M52.678 67.8986L21.4906 49.8713C17.6904 47.6343 14.6765 41.8445 14.6765 36.7126C14.6765 31.7123 17.6904 29.3438 21.4906 31.5807L52.678 49.6081C56.4782 51.8451 59.4921 57.6349 59.4921 62.7668C59.4921 67.7671 56.3472 70.1356 52.678 67.8986Z" fill="white"/>
<path d="M53.7264 66.0565C52.8091 66.0565 51.7608 65.7933 50.8435 65.1354L19.656 47.108C15.7248 44.871 12.5798 38.818 12.5798 33.6861C12.5798 30.9228 13.4971 28.8174 15.0696 27.7648C16.38 26.9752 18.0835 27.1068 19.918 28.1595L51.1056 46.1869C55.0368 48.4239 58.1817 54.4768 58.1817 59.6087C58.1817 62.372 57.2645 64.4774 55.692 65.5301C55.0368 65.9249 54.3816 66.0565 53.7264 66.0565ZM17.1662 28.1595C16.6421 28.1595 16.1179 28.2911 15.5937 28.5543C14.1523 29.3438 13.366 31.3176 13.366 33.8177C13.366 38.6864 16.38 44.4763 20.0491 46.5816L51.2366 64.609C52.8091 65.5301 54.2505 65.6617 55.2988 65.0038C56.7403 64.2143 57.5265 62.2405 57.5265 59.7403C57.5265 54.8716 54.5126 49.0818 50.8435 46.9764L19.656 28.949C18.8697 28.4227 17.9525 28.1595 17.1662 28.1595Z" fill="#16110D"/>
<path d="M54.3816 62.8984V73.8201C54.3816 74.2148 54.7747 74.7412 55.1678 74.6096L56.6093 73.9516C56.8713 73.8201 57.1334 74.0832 57.2645 74.478L58.7059 79.0835C58.8369 79.4783 59.2301 79.873 59.4922 79.873H60.6715C60.9336 79.873 61.0646 79.4783 60.9336 79.0835L59.4922 74.3464C59.3611 73.9517 59.4922 73.8201 59.7542 73.9516L61.7199 74.8728C62.113 75.0043 62.244 74.6096 61.9819 74.2148L55.0368 62.8984C54.7747 62.5036 54.3816 62.5036 54.3816 62.8984Z" fill="white"/>
<path d="M59.0989 77.3729H57.9195C57.3954 77.3729 56.8712 76.8465 56.7402 76.3202L55.2988 71.7147C55.2988 71.5831 55.1677 71.4515 55.1677 71.4515L53.8574 72.1094C53.5953 72.241 53.4642 72.241 53.2022 71.9778C52.9401 71.8462 52.678 71.3199 52.678 70.9251V60.0034C52.678 59.6087 52.9401 59.4771 53.0711 59.3455C53.3332 59.2139 53.7263 59.4771 53.9884 59.8719L60.9334 71.1883C61.1955 71.5831 61.1955 72.1094 60.9334 72.3726C60.8024 72.5042 60.5403 72.6358 60.1472 72.5042L58.4437 71.7147L59.8851 76.3202C60.0161 76.715 60.0162 77.1097 59.7541 77.2413C59.492 77.2413 59.361 77.3729 59.0989 77.3729ZM55.1677 70.662C55.2988 70.662 55.2988 70.662 55.4298 70.662C55.6919 70.7935 55.954 71.0567 56.085 71.4515L57.5264 76.057C57.6575 76.4518 57.9195 76.5834 58.0506 76.5834H59.2299C59.2299 76.5834 59.2299 76.4518 59.2299 76.3202L57.7885 71.5831C57.6575 71.1883 57.7885 70.9251 57.9195 70.7935C58.0506 70.662 58.3126 70.662 58.5747 70.7935L60.2782 71.5831V71.4515L53.4642 60.2666V70.9251C53.4642 71.0567 53.5953 71.3199 53.7263 71.3199L55.1677 70.662C55.0367 70.662 55.0367 70.662 55.1677 70.662Z" fill="#16110D"/>
<path d="M20.5731 41.8445C20.4421 41.713 20.311 41.5814 20.311 41.4498V35.7916C20.311 35.66 20.4421 35.5284 20.5731 35.66L21.7525 36.3179C23.7181 37.5022 24.5043 38.818 24.5043 41.055C24.5043 43.292 23.7181 43.6867 21.7525 42.6341L20.5731 41.8445ZM21.7525 41.8445C23.325 42.7656 23.9802 42.3709 23.9802 40.5287C23.9802 38.6865 23.325 37.6338 21.7525 36.7127L20.8352 36.3179V41.3182L21.7525 41.8445Z" fill="black"/>
<path d="M25.5526 44.7394C25.4216 44.6079 25.2905 44.4763 25.2905 44.3447V38.6865C25.2905 38.5549 25.4216 38.4233 25.5526 38.5549L28.1734 40.1339C28.3045 40.2655 28.4355 40.3971 28.4355 40.5287C28.4355 40.6603 28.3045 40.7918 28.1734 40.6603L25.8147 39.3444V41.055L28.0424 42.3709C28.1734 42.5025 28.3045 42.6341 28.3045 42.7656C28.3045 42.8972 28.1734 43.0288 28.0424 42.8972L25.8147 41.5814V44.2131L28.1734 45.529C28.3045 45.6606 28.4355 45.7921 28.4355 45.9237C28.4355 46.0553 28.3045 46.1869 28.1734 46.0553L25.5526 44.7394Z" fill="black"/>
<path d="M29.877 47.2396C29.746 47.108 29.615 46.9764 29.615 46.8448V41.1866C29.615 41.055 29.746 40.9234 29.877 41.055H30.0081C30.1391 41.1866 30.2702 41.3182 30.2702 41.4498V46.8448L32.4978 48.1607C32.6289 48.2923 32.7599 48.4238 32.7599 48.5554C32.7599 48.687 32.6289 48.8186 32.4978 48.687L29.877 47.2396Z" fill="black"/>
<path d="M33.6771 49.4766C33.546 49.345 33.415 49.2135 33.415 49.0819V43.4236C33.415 43.2921 33.546 43.1605 33.6771 43.2921H33.8081C33.9391 43.4236 34.0702 43.5552 34.0702 43.6868V49.345C34.0702 49.4766 33.9391 49.6082 33.6771 49.4766Z" fill="black"/>
<path d="M37.0841 51.4504C36.9531 51.3188 36.8221 51.1872 36.8221 51.0556L34.7254 44.0815C34.5944 43.8184 34.7254 43.8184 34.8565 43.8184H34.9875C35.1185 43.9499 35.2496 44.0815 35.2496 44.2131L37.2152 50.5293L39.0497 46.4501C39.0497 46.3185 39.1808 46.3185 39.3118 46.4501H39.4429C39.5739 46.5817 39.7049 46.7133 39.5739 46.8448L37.4773 51.3188C37.4773 51.4504 37.3462 51.4504 37.2152 51.3188L37.0841 51.4504Z" fill="black"/>
<path d="M40.6222 53.4241C40.4912 53.2925 40.3601 53.1609 40.3601 53.0294V47.3712C40.3601 47.2396 40.4912 47.108 40.6222 47.2396L43.243 48.8186C43.374 48.9502 43.5051 49.0818 43.5051 49.2134C43.5051 49.3449 43.374 49.4765 43.243 49.3449L40.8843 48.0291V49.7397L43.112 51.0556C43.243 51.1872 43.3741 51.3187 43.3741 51.4503C43.3741 51.5819 43.243 51.7135 43.112 51.5819L40.8843 50.266V52.8978L43.243 54.2136C43.374 54.3452 43.5051 54.4768 43.5051 54.6084C43.5051 54.74 43.374 54.8716 43.243 54.74L40.6222 53.4241Z" fill="black"/>
<path d="M44.6845 55.7927C44.5534 55.6611 44.4224 55.5295 44.4224 55.3979V49.7397C44.4224 49.6081 44.5534 49.4765 44.6845 49.6081L46.2569 50.5292C47.3053 51.1871 47.9605 52.3714 47.9605 53.4241C47.9605 54.3452 47.4363 54.8715 46.7811 54.6084L48.2225 57.5033C48.3536 57.7664 48.2225 57.898 48.0915 57.7664L47.9605 57.6349C47.8294 57.5033 47.6984 57.5033 47.6984 57.2401L46.2569 54.2136L45.2086 53.6873V55.7927C45.0776 55.9242 44.9465 55.9242 44.6845 55.7927ZM46.2569 53.6873C46.9121 54.082 47.4363 53.8189 47.4363 53.0293C47.4363 52.2398 47.0432 51.4503 46.2569 51.0555L45.0776 50.3976V53.0293L46.2569 53.6873Z" fill="black"/>
</svg>
