<svg width="136" height="125" viewBox="0 0 136 125" fill="none" xmlns="http://www.w3.org/2000/svg">
<path d="M64.0578 123.627C64.5834 123.92 64.5834 124.409 64.0578 124.735C63.5322 125.028 62.6781 125.028 62.1525 124.735C61.6269 124.442 61.6269 123.953 62.1525 123.627C62.6781 123.334 63.5322 123.334 64.0578 123.627Z" fill="#1A3962"/>
<path d="M59.0646 120.76C59.5902 121.053 59.5902 121.542 59.0646 121.868C58.539 122.161 57.6849 122.161 57.1593 121.868C56.6337 121.574 56.6337 121.086 57.1593 120.76C57.6849 120.466 58.539 120.466 59.0646 120.76Z" fill="#1A3962"/>
<path d="M54.0715 117.892C54.5971 118.185 54.5971 118.674 54.0715 119C53.5459 119.293 52.6918 119.293 52.1662 119C51.6406 118.707 51.6406 118.218 52.1662 117.892C52.6918 117.599 53.5459 117.599 54.0715 117.892Z" fill="#1A3962"/>
<path d="M49.0124 114.992C49.538 115.285 49.538 115.774 49.0124 116.1C48.4868 116.393 47.6327 116.393 47.1071 116.1C46.5815 115.807 46.5815 115.318 47.1071 114.992C47.6327 114.699 48.4868 114.699 49.0124 114.992Z" fill="#1A3962"/>
<path d="M44.0192 112.125C44.5448 112.418 44.5448 112.907 44.0192 113.233C43.4936 113.526 42.6395 113.526 42.1139 113.233C41.5883 112.939 41.5883 112.451 42.1139 112.125C42.6395 111.831 43.4936 111.831 44.0192 112.125Z" fill="#1A3962"/>
<path d="M39.0261 109.257C39.5517 109.55 39.5517 110.039 39.0261 110.365C38.5005 110.658 37.6464 110.658 37.1208 110.365C36.5952 110.072 36.5952 109.583 37.1208 109.257C37.6464 108.964 38.5005 108.964 39.0261 109.257Z" fill="#1A3962"/>
<path d="M34.0329 106.39C34.5585 106.683 34.5585 107.172 34.0329 107.498C33.5073 107.791 32.6532 107.791 32.1276 107.498C31.602 107.204 31.602 106.716 32.1276 106.39C32.6532 106.096 33.5073 106.096 34.0329 106.39Z" fill="#1A3962"/>
<path d="M29.0065 103.555C29.5322 103.848 29.5322 104.337 29.0065 104.663C28.4809 104.956 27.6268 104.956 27.1012 104.663C26.5756 104.369 26.5756 103.881 27.1012 103.555C27.6268 103.229 28.4809 103.229 29.0065 103.555Z" fill="#1A3962"/>
<path d="M24.0134 100.687C24.539 100.981 24.539 101.469 24.0134 101.795C23.4878 102.089 22.6337 102.089 22.1081 101.795C21.5825 101.502 21.5825 101.013 22.1081 100.687C22.6337 100.362 23.4878 100.362 24.0134 100.687Z" fill="#1A3962"/>
<path d="M72.2048 123.66C72.7304 123.367 73.5845 123.367 74.1101 123.66C74.6357 123.953 74.6357 124.442 74.1101 124.768C73.5845 125.094 72.7304 125.061 72.2048 124.768C71.6791 124.442 71.6791 123.953 72.2048 123.66Z" fill="#1A3962"/>
<path d="M79.1032 121.868C78.5776 122.161 77.7235 122.161 77.1979 121.868C76.6723 121.574 76.6723 121.086 77.1979 120.76C77.7235 120.466 78.5776 120.466 79.1032 120.76C79.6617 121.086 79.6617 121.574 79.1032 121.868Z" fill="#1A3962"/>
<path d="M84.1291 117.925C84.6547 118.218 84.6547 118.707 84.1291 119.033C83.6035 119.326 82.7494 119.326 82.2238 119.033C81.6982 118.739 81.6982 118.251 82.2238 117.925C82.7494 117.599 83.6035 117.599 84.1291 117.925Z" fill="#1A3962"/>
<path d="M89.1223 115.057C89.6479 115.351 89.6479 115.839 89.1223 116.165C88.5967 116.458 87.7426 116.458 87.217 116.165C86.6914 115.872 86.6914 115.383 87.217 115.057C87.7426 114.764 88.5967 114.764 89.1223 115.057Z" fill="#1A3962"/>
<path d="M94.1159 112.19C94.6415 112.483 94.6415 112.972 94.1159 113.298C93.5903 113.591 92.7362 113.591 92.2106 113.298C91.685 113.004 91.685 112.516 92.2106 112.19C92.7362 111.897 93.5903 111.897 94.1159 112.19Z" fill="#1A3962"/>
<path d="M99.1091 109.322C99.6347 109.616 99.6347 110.104 99.1091 110.43C98.5835 110.724 97.7294 110.724 97.2038 110.43C96.6782 110.137 96.6782 109.648 97.2038 109.322C97.7294 109.029 98.5835 109.029 99.1091 109.322Z" fill="#1A3962"/>
<path d="M103.182 107.791C103.926 107.791 104.529 107.441 104.529 107.009C104.529 106.577 103.926 106.227 103.182 106.227C102.438 106.227 101.835 106.577 101.835 107.009C101.835 107.441 102.438 107.791 103.182 107.791Z" fill="#1A3962"/>
<path d="M109.128 103.587C109.654 103.881 109.654 104.369 109.128 104.695C108.603 104.989 107.748 104.989 107.223 104.695C106.697 104.402 106.697 103.913 107.223 103.587C107.748 103.294 108.603 103.294 109.128 103.587Z" fill="#1A3962"/>
<path d="M114.122 100.72C114.647 101.013 114.647 101.502 114.122 101.828C113.596 102.121 112.742 102.121 112.216 101.828C111.691 101.535 111.691 101.046 112.216 100.72C112.742 100.427 113.596 100.427 114.122 100.72Z" fill="#1A3962"/>
<path d="M67.2113 120.792C67.7369 120.499 68.591 120.499 69.1166 120.792C69.6422 121.085 69.6422 121.574 69.1166 121.9C68.591 122.193 67.7369 122.193 67.2113 121.9C66.6857 121.574 66.6528 121.085 67.2113 120.792Z" fill="#1A3962"/>
<path d="M74.1101 117.925C74.6357 118.218 74.6357 118.707 74.1101 119.033C73.5845 119.326 72.7304 119.326 72.2048 119.033C71.6791 118.739 71.6791 118.251 72.2048 117.925C72.7304 117.599 73.5845 117.599 74.1101 117.925Z" fill="#1A3962"/>
<path d="M79.1032 115.057C79.6288 115.351 79.6288 115.839 79.1032 116.165C78.5776 116.458 77.7235 116.458 77.1979 116.165C76.6723 115.872 76.6723 115.383 77.1979 115.057C77.7235 114.764 78.5776 114.764 79.1032 115.057Z" fill="#1A3962"/>
<path d="M84.1291 112.19C84.6547 112.483 84.6547 112.972 84.1291 113.298C83.6035 113.591 82.7494 113.591 82.2238 113.298C81.6982 113.004 81.6982 112.516 82.2238 112.19C82.7494 111.897 83.6035 111.897 84.1291 112.19Z" fill="#1A3962"/>
<path d="M89.1223 109.322C89.6479 109.616 89.6479 110.104 89.1223 110.43C88.5967 110.724 87.7426 110.724 87.217 110.43C86.6914 110.137 86.6914 109.648 87.217 109.322C87.7426 109.029 88.5967 109.029 89.1223 109.322Z" fill="#1A3962"/>
<path d="M94.1159 106.455C94.6415 106.748 94.6415 107.237 94.1159 107.563C93.5903 107.856 92.7362 107.856 92.2106 107.563C91.685 107.27 91.685 106.781 92.2106 106.455C92.7362 106.162 93.5903 106.162 94.1159 106.455Z" fill="#1A3962"/>
<path d="M99.1091 103.587C99.6347 103.881 99.6347 104.369 99.1091 104.695C98.5835 104.989 97.7294 104.989 97.2038 104.695C96.6782 104.402 96.6782 103.913 97.2038 103.587C97.7294 103.294 98.5835 103.294 99.1091 103.587Z" fill="#1A3962"/>
<path d="M104.135 100.72C104.661 101.013 104.661 101.502 104.135 101.828C103.609 102.121 102.755 102.121 102.23 101.828C101.704 101.535 101.704 101.046 102.23 100.72C102.755 100.427 103.609 100.427 104.135 100.72Z" fill="#1A3962"/>
<path d="M109.128 97.8525C109.654 98.1458 109.654 98.6346 109.128 98.9604C108.603 99.2537 107.748 99.2537 107.223 98.9604C106.697 98.6672 106.697 98.1784 107.223 97.8525C107.748 97.5593 108.603 97.5593 109.128 97.8525Z" fill="#1A3962"/>
<path d="M114.122 95.0176C114.647 95.3109 114.647 95.7996 114.122 96.1255C113.596 96.4187 112.742 96.4187 112.216 96.1255C111.691 95.8322 111.691 95.3434 112.216 95.0176C112.742 94.6917 113.596 94.6917 114.122 95.0176Z" fill="#1A3962"/>
<path d="M62.1852 117.925C62.7108 117.632 63.5649 117.632 64.0905 117.925C64.6162 118.218 64.6162 118.707 64.0905 119.033C63.5649 119.326 62.7108 119.326 62.1852 119.033C61.6596 118.707 61.6596 118.218 62.1852 117.925Z" fill="#1A3962"/>
<path d="M69.1169 115.057C69.6425 115.351 69.6425 115.839 69.1169 116.165C68.5913 116.458 67.7372 116.458 67.2116 116.165C66.686 115.872 66.686 115.383 67.2116 115.057C67.7372 114.764 68.5913 114.764 69.1169 115.057Z" fill="#1A3962"/>
<path d="M74.1101 112.19C74.6357 112.483 74.6357 112.972 74.1101 113.298C73.5845 113.591 72.7304 113.591 72.2048 113.298C71.6791 113.004 71.6791 112.516 72.2048 112.19C72.7304 111.897 73.5845 111.897 74.1101 112.19Z" fill="#1A3962"/>
<path d="M79.1032 109.322C79.6288 109.616 79.6288 110.104 79.1032 110.43C78.5776 110.724 77.7235 110.724 77.1979 110.43C76.6723 110.137 76.6723 109.648 77.1979 109.322C77.7235 109.029 78.5776 109.029 79.1032 109.322Z" fill="#1A3962"/>
<path d="M84.1291 106.455C84.6547 106.748 84.6547 107.237 84.1291 107.563C83.6035 107.856 82.7494 107.856 82.2238 107.563C81.6982 107.27 81.6982 106.781 82.2238 106.455C82.7494 106.162 83.6035 106.162 84.1291 106.455Z" fill="#1A3962"/>
<path d="M88.1696 104.923C88.9135 104.923 89.5165 104.573 89.5165 104.141C89.5165 103.71 88.9135 103.359 88.1696 103.359C87.4258 103.359 86.8228 103.71 86.8228 104.141C86.8228 104.573 87.4258 104.923 88.1696 104.923Z" fill="#1A3962"/>
<path d="M94.1159 100.72C94.6415 101.013 94.6415 101.502 94.1159 101.828C93.5903 102.121 92.7362 102.121 92.2106 101.828C91.685 101.535 91.685 101.046 92.2106 100.72C92.7362 100.427 93.5903 100.427 94.1159 100.72Z" fill="#1A3962"/>
<path d="M99.1091 97.8525C99.6347 98.1458 99.6347 98.6346 99.1091 98.9604C98.5835 99.2537 97.7294 99.2537 97.2038 98.9604C96.6782 98.6672 96.6782 98.1784 97.2038 97.8525C97.7294 97.5593 98.5835 97.5593 99.1091 97.8525Z" fill="#1A3962"/>
<path d="M103.182 96.321C103.926 96.321 104.529 95.9709 104.529 95.539C104.529 95.1071 103.926 94.757 103.182 94.757C102.438 94.757 101.835 95.1071 101.835 95.539C101.835 95.9709 102.438 96.321 103.182 96.321Z" fill="#1A3962"/>
<path d="M109.128 92.1502C109.654 92.4434 109.654 92.9322 109.128 93.2581C108.603 93.5513 107.748 93.5513 107.223 93.2581C106.697 92.9648 106.697 92.476 107.223 92.1502C107.748 91.8243 108.603 91.8243 109.128 92.1502Z" fill="#1A3962"/>
<path d="M57.1921 115.057C57.7177 114.764 58.5718 114.764 59.0974 115.057C59.623 115.351 59.623 115.839 59.0974 116.165C58.5718 116.458 57.7177 116.458 57.1921 116.165C56.6665 115.839 56.6665 115.351 57.1921 115.057Z" fill="#1A3962"/>
<path d="M63.1706 113.526C63.9144 113.526 64.5174 113.176 64.5174 112.744C64.5174 112.312 63.9144 111.962 63.1706 111.962C62.4267 111.962 61.8237 112.312 61.8237 112.744C61.8237 113.176 62.4267 113.526 63.1706 113.526Z" fill="#1A3962"/>
<path d="M52.1335 112.157C52.6591 111.864 53.5132 111.864 54.0388 112.157C54.5644 112.451 54.5644 112.939 54.0388 113.265C53.5132 113.558 52.6591 113.558 52.1335 113.265C51.6079 112.972 51.6079 112.451 52.1335 112.157Z" fill="#1A3962"/>
<path d="M59.0646 109.29C59.5902 109.583 59.5902 110.072 59.0646 110.398C58.539 110.691 57.6849 110.691 57.1593 110.398C56.6337 110.104 56.6337 109.616 57.1593 109.29C57.6849 108.997 58.539 108.997 59.0646 109.29Z" fill="#1A3962"/>
<path d="M47.1398 109.29C47.6654 108.997 48.5195 108.997 49.0451 109.29C49.5707 109.583 49.5707 110.072 49.0451 110.398C48.5195 110.691 47.6654 110.691 47.1398 110.398C46.6142 110.104 46.6142 109.616 47.1398 109.29Z" fill="#1A3962"/>
<path d="M54.0715 106.422C54.5971 106.716 54.5971 107.204 54.0715 107.53C53.5459 107.823 52.6918 107.823 52.1662 107.53C51.6406 107.237 51.6406 106.748 52.1662 106.422C52.6918 106.129 53.5459 106.129 54.0715 106.422Z" fill="#1A3962"/>
<path d="M42.1466 106.422C42.6722 106.129 43.5264 106.129 44.052 106.422C44.5776 106.716 44.5776 107.204 44.052 107.53C43.5264 107.823 42.6722 107.823 42.1466 107.53C41.621 107.237 41.621 106.748 42.1466 106.422Z" fill="#1A3962"/>
<path d="M49.0783 103.555C49.6039 103.848 49.6039 104.337 49.0783 104.663C48.5527 104.956 47.6986 104.956 47.173 104.663C46.6474 104.369 46.6474 103.881 47.173 103.555C47.6658 103.262 48.5527 103.262 49.0783 103.555Z" fill="#1A3962"/>
<path d="M37.1535 103.555C37.6791 103.262 38.5332 103.262 39.0588 103.555C39.5844 103.848 39.5844 104.337 39.0588 104.663C38.5332 104.989 37.6791 104.956 37.1535 104.663C36.6279 104.369 36.6279 103.881 37.1535 103.555Z" fill="#1A3962"/>
<path d="M44.052 100.687C44.5776 100.981 44.5776 101.469 44.052 101.795C43.5264 102.089 42.6722 102.089 42.1466 101.795C41.621 101.502 41.621 101.013 42.1466 100.687C42.6722 100.394 43.5264 100.394 44.052 100.687Z" fill="#1A3962"/>
<path d="M32.1276 100.72C32.6532 100.427 33.5073 100.427 34.0329 100.72C34.5585 101.013 34.5585 101.502 34.0329 101.828C33.5073 102.121 32.6532 102.121 32.1276 101.828C31.602 101.502 31.602 101.013 32.1276 100.72Z" fill="#1A3962"/>
<path d="M39.0588 97.8525C39.5844 98.1458 39.5844 98.6346 39.0588 98.9604C38.5332 99.2537 37.6791 99.2537 37.1535 98.9604C36.6279 98.6672 36.6279 98.1784 37.1535 97.8525C37.6791 97.5267 38.5332 97.5267 39.0588 97.8525Z" fill="#1A3962"/>
<path d="M27.1344 97.8525C27.66 97.5593 28.5141 97.5593 29.0397 97.8525C29.5654 98.1458 29.5654 98.6346 29.0397 98.9604C28.5141 99.2863 27.66 99.2537 27.1344 98.9604C26.6088 98.6346 26.6088 98.1458 27.1344 97.8525Z" fill="#1A3962"/>
<path d="M33.113 96.2884C33.8568 96.2884 34.4598 95.9383 34.4598 95.5064C34.4598 95.0745 33.8568 94.7244 33.113 94.7244C32.3691 94.7244 31.7661 95.0745 31.7661 95.5064C31.7661 95.9383 32.3691 96.2884 33.113 96.2884Z" fill="#1A3962"/>
<path d="M22.1408 94.985C22.6664 94.6917 23.5205 94.6917 24.0461 94.985C24.5717 95.2782 24.5717 95.767 24.0461 96.0929C23.5205 96.3861 22.6664 96.3861 22.1408 96.0929C21.6152 95.767 21.6152 95.2782 22.1408 94.985Z" fill="#1A3962"/>
<path d="M29.0725 92.1176C29.5981 92.4108 29.5981 92.8996 29.0725 93.2255C28.5469 93.5187 27.6928 93.5187 27.1672 93.2255C26.6415 92.9322 26.6415 92.4434 27.1672 92.1176C27.6599 91.7917 28.5469 91.7917 29.0725 92.1176Z" fill="#1A3962"/>
<path d="M27.9555 47.1179L12.0889 23.168L51.9362 0.358521L67.8029 24.2758L27.9555 47.1179Z" fill="#4B8EC8"/>
<path d="M27.1014 51.6798L11.2676 27.7299L51.1149 4.92041L66.9816 28.8377L27.1014 51.6798Z" fill="white"/>
<path d="M27.857 47.4763L11.7275 23.1027L52.0348 0L68.1971 24.3735L27.857 47.4763ZM12.4831 23.2656L28.0213 46.7594L67.4087 24.2106L51.8377 0.716892L12.4831 23.2656Z" fill="#16110D"/>
<path d="M107.847 47.2481L123.681 23.2982L83.8667 0.48877L68 24.4387L107.847 47.2481Z" fill="#4B8EC8"/>
<path d="M108.636 51.6798L124.47 27.7299L84.6224 4.92041L68.7886 28.8377L108.636 51.6798Z" fill="white"/>
<path d="M107.946 47.6066L67.6387 24.5039L83.801 0.130371L124.108 23.2331L123.944 23.4612L107.946 47.6066ZM68.3614 24.341L107.749 46.8897L123.287 23.396L83.9324 0.847263L68.3614 24.341Z" fill="#16110D"/>
<path d="M28.1528 47.2482V89.5108L68.0002 112.32V70.0576L28.1528 47.2482Z" fill="#4B8EC8"/>
<path d="M68.0003 69.7644L27.8901 46.792V89.6412L68.0003 112.614L107.979 89.7063L108.11 89.6412V46.792L68.0003 69.7644ZM28.4157 89.3479V47.7043L67.7375 70.2205V111.864L28.4157 89.3479Z" fill="#16110D"/>
<path d="M107.847 47.2481L68.0002 70.0575L28.1528 47.2481L68.0002 24.4386L107.847 47.2481Z" fill="#4B8EC8"/>
<path d="M68 70.3834L27.5942 47.2481L68 24.1128L68.1314 24.178L108.406 47.2481L68 70.3834ZM28.7111 47.2481L68.0329 69.7643L107.355 47.2481L68.0329 24.7319L28.7111 47.2481Z" fill="#16110D"/>
<path d="M76.5082 101.73V94.2356L72.7305 96.3862L79.3991 81.9185L86.0676 88.7613L82.5198 90.7816V98.2761L76.5082 101.73ZM77.2309 93.0625V100.557L81.8628 97.9176V90.4231L84.9836 88.6309L79.6619 83.1567L74.3401 94.7569L77.2309 93.0625Z" fill="#4B8EC8"/>
<path d="M68 24.4387L27.5942 47.2482L67.8686 70.3183L68.2957 70.0902L68 70.3509V24.4387Z" fill="#16110D"/>
<path d="M68 70.0576L41.5884 70.9374L0.952637 48.0954L28.1526 47.2482L68 70.0576Z" fill="#4B8EC8"/>
<path d="M67.7373 73.6746L41.3257 74.5218L0.689941 51.6798L27.8899 50.8325L67.7373 73.6746Z" fill="white"/>
<path d="M41.5227 71.1981L41.457 71.1655L0 47.8347L28.2184 46.955L28.2841 46.9875L68.9527 70.2858L41.5227 71.1981ZM1.90532 48.3235L41.6541 70.6768L67.0473 69.8296L28.087 47.5089L1.90532 48.3235Z" fill="#16110D"/>
<path d="M101.507 93.421L100.817 93.8446V70.7745L101.507 70.3834V93.421Z" fill="#4B8EC8"/>
<path d="M68 70.0576L94.4116 70.9374L135.047 48.0954L107.847 47.2482L68 70.0576Z" fill="#4B8EC8"/>
<path d="M67.7373 73.6746L94.1489 74.5218L134.785 51.6798L107.585 50.8325L67.7373 73.6746Z" fill="white"/>
<path d="M94.4773 71.1981H94.4116L67.0474 70.2858L107.782 46.955H107.847L136 47.8347L94.4773 71.1981ZM68.9527 69.8296L94.3459 70.6768L134.095 48.3235L107.946 47.5089L68.9527 69.8296Z" fill="#16110D"/>
<path d="M46.7129 58.0663L67.7699 46.2705L88.2027 58.164L67.7699 70.1227L46.7129 58.0663Z" fill="#4B8EC8"/>
<path d="M49.6035 59.663L68.8209 48.9425L86.3629 59.0764L67.7697 69.9598L49.6035 59.663Z" fill="white"/>
<path d="M67.7698 70.4812L67.6055 70.3834L46.3843 57.9034L67.7369 45.9447L67.9012 46.0425L88.7939 58.2292L67.7698 70.4812ZM47.3369 58.0663L67.7698 69.7643L87.6113 58.164L67.7698 46.5964L47.3369 58.0663Z" fill="#16110D"/>
</svg>
