<svg width="80" height="113" viewBox="0 0 80 113" fill="none" xmlns="http://www.w3.org/2000/svg">
<path d="M10.0899 78.0308C10.3519 78.1624 10.3519 78.4256 10.0899 78.5572C9.82779 78.6888 9.4347 78.6888 9.17263 78.5572C8.91056 78.4256 8.91056 78.1624 9.17263 78.0308C9.4347 77.8992 9.82779 77.8992 10.0899 78.0308Z" fill="#1A3962"/>
<path d="M7.60015 76.5834C7.86223 76.715 7.86223 76.9782 7.60015 77.1098C7.33807 77.2414 6.94497 77.2414 6.68289 77.1098C6.42081 76.9782 6.42081 76.715 6.68289 76.5834C6.94497 76.4518 7.33807 76.4518 7.60015 76.5834Z" fill="#1A3962"/>
<path d="M5.11041 75.2676C5.37248 75.3992 5.37248 75.6623 5.11041 75.7939C4.84833 75.9255 4.45521 75.9255 4.19314 75.7939C3.93106 75.6623 3.93106 75.3992 4.19314 75.2676C4.45521 75.0044 4.84833 75.0044 5.11041 75.2676Z" fill="#1A3962"/>
<path d="M2.62069 73.8201C2.88277 73.9517 2.88277 74.2149 2.62069 74.3465C2.35861 74.4781 1.96548 74.4781 1.7034 74.3465C1.44132 74.2149 1.44132 73.9517 1.7034 73.8201C1.96548 73.5569 2.35861 73.5569 2.62069 73.8201Z" fill="#1A3962"/>
<path d="M52.4161 102.374C52.6782 102.506 52.6782 102.769 52.4161 102.901C52.154 103.032 51.7609 103.032 51.4988 102.901C51.2367 102.769 51.2367 102.506 51.4988 102.374C51.7609 102.243 52.154 102.243 52.4161 102.374Z" fill="#1A3962"/>
<path d="M37.4772 108.164C37.7393 108.296 37.7393 108.559 37.4772 108.691C37.2151 108.822 36.8219 108.822 36.5598 108.691C36.2978 108.559 36.2978 108.296 36.5598 108.164C36.8219 108.033 37.2151 108.033 37.4772 108.164Z" fill="#1A3962"/>
<path d="M39.9673 106.717C40.2294 106.848 40.2294 107.111 39.9673 107.243C39.7053 107.375 39.3121 107.375 39.0501 107.243C38.788 107.111 38.788 106.848 39.0501 106.717C39.3121 106.585 39.7053 106.585 39.9673 106.717Z" fill="#1A3962"/>
<path d="M42.4566 105.269C42.7187 105.401 42.7187 105.664 42.4566 105.796C42.1946 105.927 41.8014 105.927 41.5393 105.796C41.2773 105.664 41.2773 105.401 41.5393 105.269C41.8014 105.138 42.1946 105.138 42.4566 105.269Z" fill="#1A3962"/>
<path d="M44.9468 103.822C45.2089 103.953 45.2089 104.217 44.9468 104.348C44.6847 104.48 44.2916 104.48 44.0296 104.348C43.7675 104.217 43.7675 103.953 44.0296 103.822C44.2916 103.69 44.6847 103.69 44.9468 103.822Z" fill="#1A3962"/>
<path d="M47.4366 102.374C47.6987 102.506 47.6987 102.769 47.4366 102.901C47.1745 103.032 46.7814 103.032 46.5193 102.901C46.2572 102.769 46.2572 102.506 46.5193 102.374C46.7814 102.243 47.1745 102.243 47.4366 102.374Z" fill="#1A3962"/>
<path d="M49.9263 100.927C50.1884 101.059 50.1884 101.322 49.9263 101.453C49.6643 101.585 49.2711 101.585 49.0091 101.453C48.747 101.322 48.747 101.059 49.0091 100.927C49.2711 100.795 49.6643 100.795 49.9263 100.927Z" fill="#1A3962"/>
<path d="M32.4981 108.164C32.7602 108.296 32.7602 108.559 32.4981 108.691C32.236 108.822 31.8429 108.822 31.5808 108.691C31.3188 108.559 31.3188 108.296 31.5808 108.164C31.8429 108.033 32.236 108.033 32.4981 108.164Z" fill="#1A3962"/>
<path d="M34.9878 106.717C35.2499 106.848 35.2499 107.111 34.9878 107.243C34.7257 107.375 34.3327 107.375 34.0706 107.243C33.8085 107.111 33.8085 106.848 34.0706 106.717C34.3327 106.585 34.7257 106.585 34.9878 106.717Z" fill="#1A3962"/>
<path d="M37.4772 105.269C37.7393 105.401 37.7393 105.664 37.4772 105.796C37.2151 105.927 36.8219 105.927 36.5598 105.796C36.2978 105.664 36.2978 105.401 36.5598 105.269C36.8219 105.138 37.2151 105.138 37.4772 105.269Z" fill="#1A3962"/>
<path d="M39.9673 103.822C40.2294 103.953 40.2294 104.217 39.9673 104.348C39.7053 104.48 39.3121 104.48 39.0501 104.348C38.788 104.217 38.788 103.953 39.0501 103.822C39.3121 103.69 39.7053 103.69 39.9673 103.822Z" fill="#1A3962"/>
<path d="M42.4566 102.374C42.7187 102.506 42.7187 102.769 42.4566 102.901C42.1946 103.032 41.8014 103.032 41.5393 102.901C41.2773 102.769 41.2773 102.506 41.5393 102.374C41.8014 102.243 42.1946 102.243 42.4566 102.374Z" fill="#1A3962"/>
<path d="M44.9468 100.927C45.2089 101.059 45.2089 101.322 44.9468 101.453C44.6847 101.585 44.2916 101.585 44.0296 101.453C43.7675 101.322 43.7675 101.059 44.0296 100.927C44.2916 100.795 44.6847 100.795 44.9468 100.927Z" fill="#1A3962"/>
<path d="M47.4366 99.4795C47.6987 99.6111 47.6987 99.8743 47.4366 100.006C47.1745 100.137 46.7814 100.137 46.5193 100.006C46.2572 99.8743 46.2572 99.6111 46.5193 99.4795C46.7814 99.3479 47.1745 99.3479 47.4366 99.4795Z" fill="#1A3962"/>
<path d="M30.0079 106.717C30.27 106.848 30.27 107.111 30.0079 107.243C29.7458 107.375 29.3527 107.375 29.0906 107.243C28.8285 107.111 28.8285 106.848 29.0906 106.717C29.3527 106.585 29.7458 106.585 30.0079 106.717Z" fill="#1A3962"/>
<path d="M32.4981 105.269C32.7602 105.401 32.7602 105.664 32.4981 105.796C32.236 105.927 31.8429 105.927 31.5808 105.796C31.3188 105.664 31.3188 105.401 31.5808 105.269C31.8429 105.138 32.236 105.138 32.4981 105.269Z" fill="#1A3962"/>
<path d="M34.9878 103.822C35.2499 103.953 35.2499 104.217 34.9878 104.348C34.7257 104.48 34.3327 104.48 34.0706 104.348C33.8085 104.217 33.8085 103.953 34.0706 103.822C34.3327 103.69 34.7257 103.69 34.9878 103.822Z" fill="#1A3962"/>
<path d="M37.4772 102.374C37.7393 102.506 37.7393 102.769 37.4772 102.901C37.2151 103.032 36.8219 103.032 36.5598 102.901C36.2978 102.769 36.2978 102.506 36.5598 102.374C36.8219 102.243 37.2151 102.243 37.4772 102.374Z" fill="#1A3962"/>
<path d="M39.9673 100.927C40.2294 101.059 40.2294 101.322 39.9673 101.453C39.7053 101.585 39.3121 101.585 39.0501 101.453C38.788 101.322 38.788 101.059 39.0501 100.927C39.3121 100.795 39.7053 100.795 39.9673 100.927Z" fill="#1A3962"/>
<path d="M42.4566 99.4795C42.7187 99.6111 42.7187 99.8743 42.4566 100.006C42.1946 100.137 41.8014 100.137 41.5393 100.006C41.2773 99.8743 41.2773 99.6111 41.5393 99.4795C41.8014 99.3479 42.1946 99.3479 42.4566 99.4795Z" fill="#1A3962"/>
<path d="M44.9468 98.032C45.2089 98.1636 45.2089 98.4267 44.9468 98.5583C44.6847 98.6899 44.2916 98.6899 44.0296 98.5583C43.7675 98.4267 43.7675 98.1636 44.0296 98.032C44.2916 97.9004 44.6847 97.9004 44.9468 98.032Z" fill="#1A3962"/>
<path d="M27.5186 105.269C27.7807 105.401 27.7807 105.664 27.5186 105.796C27.2565 105.927 26.8634 105.927 26.6013 105.796C26.3393 105.664 26.3393 105.401 26.6013 105.269C26.8634 105.138 27.2565 105.138 27.5186 105.269Z" fill="#1A3962"/>
<path d="M30.0079 103.822C30.27 103.953 30.27 104.217 30.0079 104.348C29.7458 104.48 29.3527 104.48 29.0906 104.348C28.8285 104.217 28.8285 103.953 29.0906 103.822C29.3527 103.69 29.7458 103.69 30.0079 103.822Z" fill="#1A3962"/>
<path d="M32.4981 102.374C32.7602 102.506 32.7602 102.769 32.4981 102.901C32.236 103.032 31.8429 103.032 31.5808 102.901C31.3188 102.769 31.3188 102.506 31.5808 102.374C31.8429 102.243 32.236 102.243 32.4981 102.374Z" fill="#1A3962"/>
<path d="M34.9878 100.927C35.2499 101.059 35.2499 101.322 34.9878 101.453C34.7257 101.585 34.3327 101.585 34.0706 101.453C33.8085 101.322 33.8085 101.059 34.0706 100.927C34.3327 100.795 34.7257 100.795 34.9878 100.927Z" fill="#1A3962"/>
<path d="M37.4772 99.4795C37.7393 99.6111 37.7393 99.8743 37.4772 100.006C37.2151 100.137 36.8219 100.137 36.5598 100.006C36.2978 99.8743 36.2978 99.6111 36.5598 99.4795C36.8219 99.3479 37.2151 99.3479 37.4772 99.4795Z" fill="#1A3962"/>
<path d="M39.9673 98.032C40.2294 98.1636 40.2294 98.4267 39.9673 98.5583C39.7053 98.6899 39.3121 98.6899 39.0501 98.5583C38.788 98.4267 38.788 98.1636 39.0501 98.032C39.3121 97.9004 39.7053 97.9004 39.9673 98.032Z" fill="#1A3962"/>
<path d="M42.4566 96.5846C42.7187 96.7162 42.7187 96.9794 42.4566 97.111C42.1946 97.2425 41.8014 97.2425 41.5393 97.111C41.2773 96.9794 41.2773 96.7162 41.5393 96.5846C41.8014 96.453 42.1946 96.453 42.4566 96.5846Z" fill="#1A3962"/>
<path d="M25.0284 103.822C25.2905 103.953 25.2905 104.217 25.0284 104.348C24.7664 104.48 24.3732 104.48 24.1111 104.348C23.849 104.217 23.849 103.953 24.1111 103.822C24.3732 103.69 24.7664 103.69 25.0284 103.822Z" fill="#1A3962"/>
<path d="M27.5186 102.374C27.7807 102.506 27.7807 102.769 27.5186 102.901C27.2565 103.032 26.8634 103.032 26.6013 102.901C26.3393 102.769 26.3393 102.506 26.6013 102.374C26.8634 102.243 27.2565 102.243 27.5186 102.374Z" fill="#1A3962"/>
<path d="M30.0079 100.927C30.27 101.059 30.27 101.322 30.0079 101.453C29.7458 101.585 29.3527 101.585 29.0906 101.453C28.8285 101.322 28.8285 101.059 29.0906 100.927C29.3527 100.795 29.7458 100.795 30.0079 100.927Z" fill="#1A3962"/>
<path d="M32.4981 99.4795C32.7602 99.6111 32.7602 99.8743 32.4981 100.006C32.236 100.137 31.8429 100.137 31.5808 100.006C31.3188 99.8743 31.3188 99.6111 31.5808 99.4795C31.8429 99.3479 32.236 99.3479 32.4981 99.4795Z" fill="#1A3962"/>
<path d="M34.9878 98.032C35.2499 98.1636 35.2499 98.4267 34.9878 98.5583C34.7257 98.6899 34.3327 98.6899 34.0706 98.5583C33.8085 98.4267 33.8085 98.1636 34.0706 98.032C34.3327 97.9004 34.7257 97.9004 34.9878 98.032Z" fill="#1A3962"/>
<path d="M37.4772 96.5846C37.7393 96.7162 37.7393 96.9794 37.4772 97.111C37.2151 97.2425 36.8219 97.2425 36.5598 97.111C36.2978 96.9794 36.2978 96.7162 36.5598 96.5846C36.8219 96.453 37.2151 96.453 37.4772 96.5846Z" fill="#1A3962"/>
<path d="M39.9673 95.1371C40.2294 95.2687 40.2294 95.5319 39.9673 95.6634C39.7053 95.795 39.3121 95.795 39.0501 95.6634C38.788 95.5319 38.788 95.2687 39.0501 95.1371C39.3121 95.0055 39.7053 95.0055 39.9673 95.1371Z" fill="#1A3962"/>
<path d="M22.5387 102.374C22.8007 102.506 22.8007 102.769 22.5387 102.901C22.2766 103.032 21.8835 103.032 21.6214 102.901C21.3593 102.769 21.3593 102.506 21.6214 102.374C21.8835 102.243 22.2766 102.243 22.5387 102.374Z" fill="#1A3962"/>
<path d="M25.0284 100.927C25.2905 101.059 25.2905 101.322 25.0284 101.453C24.7664 101.585 24.3732 101.585 24.1111 101.453C23.849 101.322 23.849 101.059 24.1111 100.927C24.3732 100.795 24.7664 100.795 25.0284 100.927Z" fill="#1A3962"/>
<path d="M27.5186 99.4795C27.7807 99.6111 27.7807 99.8743 27.5186 100.006C27.2565 100.137 26.8634 100.137 26.6013 100.006C26.3393 99.8743 26.3393 99.6111 26.6013 99.4795C26.8634 99.3479 27.2565 99.3479 27.5186 99.4795Z" fill="#1A3962"/>
<path d="M30.0079 98.032C30.27 98.1636 30.27 98.4267 30.0079 98.5583C29.7458 98.6899 29.3527 98.6899 29.0906 98.5583C28.8285 98.4267 28.8285 98.1636 29.0906 98.032C29.3527 97.9004 29.7458 97.9004 30.0079 98.032Z" fill="#1A3962"/>
<path d="M32.4981 96.5846C32.7602 96.7162 32.7602 96.9794 32.4981 97.111C32.236 97.2425 31.8429 97.2425 31.5808 97.111C31.3188 96.9794 31.3188 96.7162 31.5808 96.5846C31.8429 96.453 32.236 96.453 32.4981 96.5846Z" fill="#1A3962"/>
<path d="M34.9878 95.1371C35.2499 95.2687 35.2499 95.5319 34.9878 95.6634C34.7257 95.795 34.3327 95.795 34.0706 95.6634C33.8085 95.5319 33.8085 95.2687 34.0706 95.1371C34.3327 95.0055 34.7257 95.0055 34.9878 95.1371Z" fill="#1A3962"/>
<path d="M37.4772 93.6898C37.7393 93.8213 37.7393 94.0845 37.4772 94.2161C37.2151 94.3477 36.8219 94.3477 36.5598 94.2161C36.2978 94.0845 36.2978 93.8213 36.5598 93.6898C36.8219 93.5582 37.2151 93.5582 37.4772 93.6898Z" fill="#1A3962"/>
<path d="M19.6561 101.585C20.018 101.585 20.3113 101.408 20.3113 101.19C20.3113 100.972 20.018 100.795 19.6561 100.795C19.2943 100.795 19.001 100.972 19.001 101.19C19.001 101.408 19.2943 101.585 19.6561 101.585Z" fill="#1A3962"/>
<path d="M22.5387 99.4795C22.8007 99.6111 22.8007 99.8743 22.5387 100.006C22.2766 100.137 21.8835 100.137 21.6214 100.006C21.3593 99.8743 21.3593 99.6111 21.6214 99.4795C21.8835 99.3479 22.2766 99.3479 22.5387 99.4795Z" fill="#1A3962"/>
<path d="M25.0284 98.032C25.2905 98.1636 25.2905 98.4267 25.0284 98.5583C24.7664 98.6899 24.3732 98.6899 24.1111 98.5583C23.849 98.4267 23.849 98.1636 24.1111 98.032C24.3732 97.9004 24.7664 97.9004 25.0284 98.032Z" fill="#1A3962"/>
<path d="M27.5186 96.5846C27.7807 96.7162 27.7807 96.9794 27.5186 97.111C27.2565 97.2425 26.8634 97.2425 26.6013 97.111C26.3393 96.9794 26.3393 96.7162 26.6013 96.5846C26.8634 96.453 27.2565 96.453 27.5186 96.5846Z" fill="#1A3962"/>
<path d="M30.0079 95.1371C30.27 95.2687 30.27 95.5319 30.0079 95.6634C29.7458 95.795 29.3527 95.795 29.0906 95.6634C28.8285 95.5319 28.8285 95.2687 29.0906 95.1371C29.3527 95.0055 29.7458 95.0055 30.0079 95.1371Z" fill="#1A3962"/>
<path d="M32.4981 93.6898C32.7602 93.8213 32.7602 94.0845 32.4981 94.2161C32.236 94.3477 31.8429 94.3477 31.5808 94.2161C31.3188 94.0845 31.3188 93.8213 31.5808 93.6898C31.8429 93.5582 32.236 93.5582 32.4981 93.6898Z" fill="#1A3962"/>
<path d="M34.9878 92.2422C35.2499 92.3738 35.2499 92.637 34.9878 92.7686C34.7257 92.9001 34.3327 92.9001 34.0706 92.7686C33.8085 92.637 33.8085 92.3738 34.0706 92.2422C34.3327 92.1107 34.7257 92.1107 34.9878 92.2422Z" fill="#1A3962"/>
<path d="M20.0493 98.032C20.3114 98.1636 20.3114 98.4267 20.0493 98.5583C19.7873 98.6899 19.3942 98.6899 19.1321 98.5583C18.87 98.4267 18.87 98.1636 19.1321 98.032C19.3942 97.9004 19.7873 97.9004 20.0493 98.032Z" fill="#1A3962"/>
<path d="M22.5387 96.5846C22.8007 96.7162 22.8007 96.9794 22.5387 97.111C22.2766 97.2425 21.8835 97.2425 21.6214 97.111C21.3593 96.9794 21.3593 96.7162 21.6214 96.5846C21.8835 96.453 22.2766 96.453 22.5387 96.5846Z" fill="#1A3962"/>
<path d="M25.0284 95.1371C25.2905 95.2687 25.2905 95.5319 25.0284 95.6634C24.7664 95.795 24.3732 95.795 24.1111 95.6634C23.849 95.5319 23.849 95.2687 24.1111 95.1371C24.3732 95.0055 24.7664 95.0055 25.0284 95.1371Z" fill="#1A3962"/>
<path d="M27.5186 93.6898C27.7807 93.8213 27.7807 94.0845 27.5186 94.2161C27.2565 94.3477 26.8634 94.3477 26.6013 94.2161C26.3393 94.0845 26.3393 93.8213 26.6013 93.6898C26.8634 93.5582 27.2565 93.5582 27.5186 93.6898Z" fill="#1A3962"/>
<path d="M30.0079 92.2422C30.27 92.3738 30.27 92.637 30.0079 92.7686C29.7458 92.9001 29.3527 92.9001 29.0906 92.7686C28.8285 92.637 28.8285 92.3738 29.0906 92.2422C29.3527 92.1107 29.7458 92.1107 30.0079 92.2422Z" fill="#1A3962"/>
<path d="M32.4981 90.7948C32.7602 90.9264 32.7602 91.1895 32.4981 91.3211C32.236 91.4527 31.8429 91.4527 31.5808 91.3211C31.3188 91.1895 31.3188 90.9264 31.5808 90.7948C31.8429 90.6632 32.236 90.6632 32.4981 90.7948Z" fill="#1A3962"/>
<path d="M20.0493 95.1371C20.3114 95.2687 20.3114 95.5319 20.0493 95.6634C19.7873 95.795 19.3942 95.795 19.1321 95.6634C18.87 95.5319 18.87 95.2687 19.1321 95.1371C19.3942 95.0055 19.7873 95.0055 20.0493 95.1371Z" fill="#1A3962"/>
<path d="M21.6214 93.6898C21.8835 93.5582 22.2766 93.5582 22.5387 93.6898C22.8007 93.8213 22.8007 94.0845 22.5387 94.2161C22.2766 94.3477 21.8835 94.3477 21.6214 94.2161C21.3593 94.0845 21.3593 93.8213 21.6214 93.6898Z" fill="#1A3962"/>
<path d="M25.0284 92.2422C25.2905 92.3738 25.2905 92.637 25.0284 92.7686C24.7664 92.9001 24.3732 92.9001 24.1111 92.7686C23.849 92.637 23.849 92.3738 24.1111 92.2422C24.3732 92.1107 24.7664 92.1107 25.0284 92.2422Z" fill="#1A3962"/>
<path d="M27.5186 90.7948C27.7807 90.9264 27.7807 91.1895 27.5186 91.3211C27.2565 91.4527 26.8634 91.4527 26.6013 91.3211C26.3393 91.1895 26.3393 90.9264 26.6013 90.7948C26.8634 90.6632 27.2565 90.6632 27.5186 90.7948Z" fill="#1A3962"/>
<path d="M30.0079 89.3474C30.27 89.4789 30.27 89.7421 30.0079 89.8737C29.7458 90.0053 29.3527 90.0053 29.0906 89.8737C28.8285 89.7421 28.8285 89.4789 29.0906 89.3474C29.3527 89.2158 29.7458 89.2158 30.0079 89.3474Z" fill="#1A3962"/>
<path d="M24.1111 89.3474C24.3732 89.2158 24.7664 89.2158 25.0284 89.3474C25.2905 89.4789 25.2905 89.7421 25.0284 89.8737C24.7664 90.0053 24.3732 90.0053 24.1111 89.8737C23.849 89.7421 23.849 89.4789 24.1111 89.3474Z" fill="#1A3962"/>
<path d="M27.5186 87.8998C27.7807 88.0314 27.7807 88.2946 27.5186 88.4262C27.2565 88.5578 26.8634 88.5578 26.6013 88.4262C26.3393 88.2946 26.3393 88.0314 26.6013 87.8998C26.8634 87.7683 27.2565 87.7683 27.5186 87.8998Z" fill="#1A3962"/>
<path d="M25.0284 86.4524C25.2905 86.584 25.2905 86.8472 25.0284 86.9788C24.7664 87.1104 24.3732 87.1104 24.1111 86.9788C23.849 86.8472 23.849 86.584 24.1111 86.4524C24.3732 86.3209 24.7664 86.3209 25.0284 86.4524Z" fill="#1A3962"/>
<path d="M22.5387 85.1365C22.8007 85.2681 22.8007 85.5313 22.5387 85.6629C22.2766 85.7945 21.8835 85.7945 21.6214 85.6629C21.3593 85.5313 21.3593 85.2681 21.6214 85.1365C21.8835 84.8734 22.2766 84.8734 22.5387 85.1365Z" fill="#1A3962"/>
<path d="M20.0493 83.5576C20.3114 83.6891 20.3114 83.9523 20.0493 84.0839C19.7873 84.2155 19.3942 84.2155 19.1321 84.0839C18.87 83.9523 18.87 83.6891 19.1321 83.5576C19.3942 83.426 19.7873 83.426 20.0493 83.5576Z" fill="#1A3962"/>
<path d="M17.5592 82.2416C17.8212 82.3732 17.8212 82.6364 17.5592 82.768C17.2971 82.8996 16.904 82.8996 16.6419 82.768C16.3798 82.6364 16.3798 82.3732 16.6419 82.2416C16.904 81.9785 17.2971 81.9785 17.5592 82.2416Z" fill="#1A3962"/>
<path d="M15.0694 80.7942C15.3315 80.9258 15.3315 81.1889 15.0694 81.3205C14.8073 81.4521 14.4142 81.4521 14.1521 81.3205C13.89 81.1889 13.89 80.9258 14.1521 80.7942C14.4142 80.531 14.8073 80.531 15.0694 80.7942Z" fill="#1A3962"/>
<path d="M12.5796 79.3467C12.8417 79.4783 12.8417 79.7415 12.5796 79.8731C12.3176 80.0046 11.9244 80.0046 11.6624 79.8731C11.4003 79.7415 11.4003 79.4783 11.6624 79.3467C11.9244 79.0836 12.3176 79.0836 12.5796 79.3467Z" fill="#1A3962"/>
<path d="M12.5796 76.5834C12.8417 76.715 12.8417 76.9782 12.5796 77.1098C12.3176 77.2414 11.9244 77.2414 11.6624 77.1098C11.4003 76.9782 11.4003 76.715 11.6624 76.5834C11.7934 76.4518 12.3176 76.4518 12.5796 76.5834Z" fill="#1A3962"/>
<path d="M15.0694 75.136C15.3315 75.2676 15.3315 75.5307 15.0694 75.6623C14.8073 75.7939 14.4142 75.7939 14.1521 75.6623C13.89 75.5307 13.89 75.2676 14.1521 75.136C14.2832 75.0044 14.8073 75.0044 15.0694 75.136Z" fill="#1A3962"/>
<path d="M17.5592 73.8201C17.8212 73.9517 17.8212 74.2149 17.5592 74.3465C17.2971 74.4781 16.904 74.4781 16.6419 74.3465C16.3798 74.2149 16.3798 73.9517 16.6419 73.8201C16.7729 73.5569 17.2971 73.5569 17.5592 73.8201Z" fill="#1A3962"/>
<path d="M10.0899 75.136C10.3519 75.2676 10.3519 75.5307 10.0899 75.6623C9.82779 75.7939 9.4347 75.7939 9.17263 75.6623C8.91056 75.5307 8.91056 75.2676 9.17263 75.136C9.4347 75.0044 9.82779 75.0044 10.0899 75.136Z" fill="#1A3962"/>
<path d="M12.5796 73.8201C12.8417 73.9517 12.8417 74.2149 12.5796 74.3465C12.3176 74.4781 11.9244 74.4781 11.6624 74.3465C11.4003 74.2149 11.4003 73.9517 11.6624 73.8201C11.7934 73.5569 12.3176 73.5569 12.5796 73.8201Z" fill="#1A3962"/>
<path d="M14.5453 73.0306C14.9072 73.0306 15.2005 72.8538 15.2005 72.6358C15.2005 72.4178 14.9072 72.241 14.5453 72.241C14.1835 72.241 13.8901 72.4178 13.8901 72.6358C13.8901 72.8538 14.1835 73.0306 14.5453 73.0306Z" fill="#1A3962"/>
<path d="M7.60015 73.8201C7.86223 73.9517 7.86223 74.2149 7.60015 74.3465C7.33807 74.4781 6.94497 74.4781 6.68289 74.3465C6.42081 74.2149 6.42081 73.9517 6.68289 73.8201C6.94497 73.5569 7.33807 73.5569 7.60015 73.8201Z" fill="#1A3962"/>
<path d="M10.0899 72.3726C10.3519 72.5042 10.3519 72.7674 10.0899 72.899C9.82779 73.0305 9.4347 73.0305 9.17263 72.899C8.91056 72.7674 8.91056 72.5042 9.17263 72.3726C9.4347 72.1094 9.82779 72.1094 10.0899 72.3726Z" fill="#1A3962"/>
<path d="M12.5796 70.9252C12.8417 71.0568 12.8417 71.32 12.5796 71.4516C12.3176 71.5832 11.9244 71.5832 11.6624 71.4516C11.4003 71.32 11.4003 71.0568 11.6624 70.9252C11.7934 70.7936 12.3176 70.7936 12.5796 70.9252Z" fill="#1A3962"/>
<path d="M5.11041 72.3726C5.37248 72.5042 5.37248 72.7674 5.11041 72.899C4.84833 73.0305 4.45521 73.0305 4.19314 72.899C3.93106 72.7674 3.93106 72.5042 4.19314 72.3726C4.45521 72.1094 4.84833 72.1094 5.11041 72.3726Z" fill="#1A3962"/>
<path d="M7.60015 70.9252C7.86223 71.0568 7.86223 71.32 7.60015 71.4516C7.33807 71.5832 6.94497 71.5832 6.68289 71.4516C6.42081 71.32 6.42081 71.0568 6.68289 70.9252C6.94497 70.7936 7.33807 70.7936 7.60015 70.9252Z" fill="#1A3962"/>
<path d="M10.0899 69.4777C10.3519 69.6093 10.3519 69.8725 10.0899 70.0041C9.82779 70.1356 9.4347 70.1356 9.17263 70.0041C8.91056 69.8725 8.91056 69.6093 9.17263 69.4777C9.4347 69.3461 9.82779 69.3461 10.0899 69.4777Z" fill="#1A3962"/>
<path d="M2.09661 71.5832C2.45848 71.5832 2.75182 71.4064 2.75182 71.1884C2.75182 70.9704 2.45848 70.7936 2.09661 70.7936C1.73475 70.7936 1.44141 70.9704 1.44141 71.1884C1.44141 71.4064 1.73475 71.5832 2.09661 71.5832Z" fill="#1A3962"/>
<path d="M5.11041 69.4777C5.37248 69.6093 5.37248 69.8725 5.11041 70.0041C4.84833 70.1356 4.45521 70.1356 4.19314 70.0041C3.93106 69.8725 3.93106 69.6093 4.19314 69.4777C4.45521 69.3461 4.84833 69.3461 5.11041 69.4777Z" fill="#1A3962"/>
<path d="M7.60015 68.0303C7.86223 68.1619 7.86223 68.425 7.60015 68.5566C7.33807 68.6882 6.94497 68.6882 6.68289 68.5566C6.42081 68.425 6.42081 68.1619 6.68289 68.0303C6.94497 67.8987 7.33807 67.8987 7.60015 68.0303Z" fill="#1A3962"/>
<path d="M2.62069 68.0303C2.88277 68.1619 2.88277 68.425 2.62069 68.5566C2.35861 68.6882 1.96548 68.6882 1.7034 68.5566C1.44132 68.425 1.44132 68.1619 1.7034 68.0303C1.83444 67.8987 2.35861 67.8987 2.62069 68.0303Z" fill="#1A3962"/>
<path d="M5.1104 66.5828C5.37247 66.7144 5.37247 66.9776 5.1104 67.1092C4.84834 67.2408 4.45522 67.2408 4.19316 67.1092C3.80006 66.9776 4.84834 66.4512 5.1104 66.5828Z" fill="#1A3962"/>
<path d="M54.9059 100.927C55.168 101.059 55.168 101.322 54.9059 101.453C54.6438 101.585 54.2506 101.585 53.9886 101.453C53.7265 101.322 53.7265 101.059 53.9886 100.927C54.2506 100.795 54.6438 100.795 54.9059 100.927Z" fill="#1A3962"/>
<path d="M57.3955 99.4795C57.6576 99.6111 57.6576 99.8743 57.3955 100.006C57.1335 100.137 56.7404 100.137 56.4783 100.006C56.2162 99.8743 56.2162 99.6111 56.4783 99.4795C56.7404 99.3479 57.1335 99.3479 57.3955 99.4795Z" fill="#1A3962"/>
<path d="M59.8853 98.032C60.1473 98.1636 60.1473 98.4267 59.8853 98.5583C59.6232 98.6899 59.2301 98.6899 58.968 98.5583C58.706 98.4267 58.706 98.1636 58.968 98.032C59.2301 97.9004 59.6232 97.9004 59.8853 98.032Z" fill="#1A3962"/>
<path d="M62.3751 96.5846C62.6372 96.7162 62.6372 96.9794 62.3751 97.111C62.113 97.2425 61.7199 97.2425 61.4578 97.111C61.1957 96.9794 61.1957 96.7162 61.4578 96.5846C61.7199 96.453 62.113 96.453 62.3751 96.5846Z" fill="#1A3962"/>
<path d="M52.4161 99.4795C52.6782 99.6111 52.6782 99.8743 52.4161 100.006C52.154 100.137 51.7609 100.137 51.4988 100.006C51.2367 99.8743 51.2367 99.6111 51.4988 99.4795C51.7609 99.3479 52.154 99.3479 52.4161 99.4795Z" fill="#1A3962"/>
<path d="M54.3813 98.69C54.7431 98.69 55.0364 98.5132 55.0364 98.2952C55.0364 98.0772 54.7431 97.9005 54.3813 97.9005C54.0194 97.9005 53.7261 98.0772 53.7261 98.2952C53.7261 98.5132 54.0194 98.69 54.3813 98.69Z" fill="#1A3962"/>
<path d="M57.3955 96.5846C57.6576 96.7162 57.6576 96.9794 57.3955 97.111C57.1335 97.2425 56.7404 97.2425 56.4783 97.111C56.2162 96.9794 56.2162 96.7162 56.4783 96.5846C56.7404 96.453 57.1335 96.453 57.3955 96.5846Z" fill="#1A3962"/>
<path d="M59.8853 95.1371C60.1473 95.2687 60.1473 95.5319 59.8853 95.6634C59.6232 95.795 59.2301 95.795 58.968 95.6634C58.706 95.5319 58.706 95.2687 58.968 95.1371C59.2301 95.0055 59.6232 95.0055 59.8853 95.1371Z" fill="#1A3962"/>
<path d="M49.9263 98.032C50.1884 98.1636 50.1884 98.4267 49.9263 98.5583C49.6643 98.6899 49.2711 98.6899 49.0091 98.5583C48.747 98.4267 48.747 98.1636 49.0091 98.032C49.2711 97.9004 49.6643 97.9004 49.9263 98.032Z" fill="#1A3962"/>
<path d="M52.4161 96.5846C52.6782 96.7162 52.6782 96.9794 52.4161 97.111C52.154 97.2425 51.7609 97.2425 51.4988 97.111C51.2367 96.9794 51.2367 96.7162 51.4988 96.5846C51.7609 96.453 52.154 96.453 52.4161 96.5846Z" fill="#1A3962"/>
<path d="M54.3813 95.7951C54.7431 95.7951 55.0364 95.6183 55.0364 95.4003C55.0364 95.1823 54.7431 95.0056 54.3813 95.0056C54.0194 95.0056 53.7261 95.1823 53.7261 95.4003C53.7261 95.6183 54.0194 95.7951 54.3813 95.7951Z" fill="#1A3962"/>
<path d="M57.3955 93.6898C57.6576 93.8213 57.6576 94.0845 57.3955 94.2161C57.1335 94.3477 56.7404 94.3477 56.4783 94.2161C56.2162 94.0845 56.2162 93.8213 56.4783 93.6898C56.7404 93.5582 57.1335 93.5582 57.3955 93.6898Z" fill="#1A3962"/>
<path d="M47.4366 96.5846C47.6987 96.7162 47.6987 96.9794 47.4366 97.111C47.1745 97.2425 46.7814 97.2425 46.5193 97.111C46.2572 96.9794 46.2572 96.7162 46.5193 96.5846C46.7814 96.453 47.1745 96.453 47.4366 96.5846Z" fill="#1A3962"/>
<path d="M49.9263 95.1371C50.1884 95.2687 50.1884 95.5319 49.9263 95.6634C49.6643 95.795 49.2711 95.795 49.0091 95.6634C48.747 95.5319 48.747 95.2687 49.0091 95.1371C49.2711 95.0055 49.6643 95.0055 49.9263 95.1371Z" fill="#1A3962"/>
<path d="M52.4161 93.6898C52.6782 93.8213 52.6782 94.0845 52.4161 94.2161C52.154 94.3477 51.7609 94.3477 51.4988 94.2161C51.2367 94.0845 51.2367 93.8213 51.4988 93.6898C51.7609 93.5582 52.154 93.5582 52.4161 93.6898Z" fill="#1A3962"/>
<path d="M54.9059 92.2422C55.168 92.3738 55.168 92.637 54.9059 92.7686C54.6438 92.9001 54.2506 92.9001 53.9886 92.7686C53.7265 92.637 53.7265 92.3738 53.9886 92.2422C54.2506 92.1107 54.6438 92.1107 54.9059 92.2422Z" fill="#1A3962"/>
<path d="M57.3956 91.4527C57.1335 91.5843 56.7404 91.5843 56.4783 91.4527C56.2162 91.3211 56.2162 91.0579 56.4783 90.9263C56.7404 90.6632 57.6577 91.1895 57.3956 91.4527Z" fill="#1A3962"/>
<path d="M44.9468 95.1371C45.2089 95.2687 45.2089 95.5319 44.9468 95.6634C44.6847 95.795 44.2916 95.795 44.0296 95.6634C43.7675 95.5319 43.7675 95.2687 44.0296 95.1371C44.2916 95.0055 44.6847 95.0055 44.9468 95.1371Z" fill="#1A3962"/>
<path d="M47.4366 93.6898C47.6987 93.8213 47.6987 94.0845 47.4366 94.2161C47.1745 94.3477 46.7814 94.3477 46.5193 94.2161C46.2572 94.0845 46.2572 93.8213 46.5193 93.6898C46.7814 93.5582 47.1745 93.5582 47.4366 93.6898Z" fill="#1A3962"/>
<path d="M49.9263 92.2422C50.1884 92.3738 50.1884 92.637 49.9263 92.7686C49.6643 92.9001 49.2711 92.9001 49.0091 92.7686C48.747 92.637 48.747 92.3738 49.0091 92.2422C49.2711 92.1107 49.6643 92.1107 49.9263 92.2422Z" fill="#1A3962"/>
<path d="M52.4161 90.7948C52.6782 90.9264 52.6782 91.1895 52.4161 91.3211C52.154 91.4527 51.7609 91.4527 51.4988 91.3211C51.2367 91.1895 51.2367 90.9264 51.4988 90.7948C51.7609 90.6632 52.154 90.6632 52.4161 90.7948Z" fill="#1A3962"/>
<path d="M54.9059 90.0053C54.6438 90.1369 54.2507 90.1369 53.9886 90.0053C53.7265 89.8737 53.7265 89.6105 53.9886 89.4789C54.2507 89.2158 55.168 89.7421 54.9059 90.0053Z" fill="#1A3962"/>
<path d="M42.4566 93.6898C42.7187 93.8213 42.7187 94.0845 42.4566 94.2161C42.1946 94.3477 41.8014 94.3477 41.5393 94.2161C41.2773 94.0845 41.2773 93.8213 41.5393 93.6898C41.8014 93.5582 42.1946 93.5582 42.4566 93.6898Z" fill="#1A3962"/>
<path d="M44.9468 92.2422C45.2089 92.3738 45.2089 92.637 44.9468 92.7686C44.6847 92.9001 44.2916 92.9001 44.0296 92.7686C43.7675 92.637 43.7675 92.3738 44.0296 92.2422C44.2916 92.1107 44.6847 92.1107 44.9468 92.2422Z" fill="#1A3962"/>
<path d="M46.9121 91.4528C47.2739 91.4528 47.5673 91.276 47.5673 91.058C47.5673 90.8399 47.2739 90.6632 46.9121 90.6632C46.5502 90.6632 46.2568 90.8399 46.2568 91.058C46.2568 91.276 46.5502 91.4528 46.9121 91.4528Z" fill="#1A3962"/>
<path d="M49.9263 89.3474C50.1884 89.4789 50.1884 89.7421 49.9263 89.8737C49.6643 90.0053 49.2711 90.0053 49.0091 89.8737C48.747 89.7421 48.747 89.4789 49.0091 89.3474C49.2711 89.2158 49.6643 89.2158 49.9263 89.3474Z" fill="#1A3962"/>
<path d="M52.4162 88.5577C52.1541 88.6893 51.7609 88.6893 51.4988 88.5577C51.2367 88.4261 51.2367 88.163 51.4988 88.0314C51.7609 87.7682 52.6782 88.2946 52.4162 88.5577Z" fill="#1A3962"/>
<path d="M39.9673 92.2422C40.2294 92.3738 40.2294 92.637 39.9673 92.7686C39.7053 92.9001 39.3121 92.9001 39.0501 92.7686C38.788 92.637 38.788 92.3738 39.0501 92.2422C39.3121 92.1107 39.7053 92.1107 39.9673 92.2422Z" fill="#1A3962"/>
<path d="M42.4566 90.7948C42.7187 90.9264 42.7187 91.1895 42.4566 91.3211C42.1946 91.4527 41.8014 91.4527 41.5393 91.3211C41.2773 91.1895 41.2773 90.9264 41.5393 90.7948C41.8014 90.6632 42.1946 90.6632 42.4566 90.7948Z" fill="#1A3962"/>
<path d="M44.9468 89.3474C45.2089 89.4789 45.2089 89.7421 44.9468 89.8737C44.6847 90.0053 44.2916 90.0053 44.0296 89.8737C43.7675 89.7421 43.7675 89.4789 44.0296 89.3474C44.2916 89.2158 44.6847 89.2158 44.9468 89.3474Z" fill="#1A3962"/>
<path d="M47.4366 87.8998C47.6987 88.0314 47.6987 88.2946 47.4366 88.4262C47.1745 88.5578 46.7814 88.5578 46.5193 88.4262C46.2572 88.2946 46.2572 88.0314 46.5193 87.8998C46.7814 87.7683 47.1745 87.7683 47.4366 87.8998Z" fill="#1A3962"/>
<path d="M49.9263 87.1103C49.6643 87.2419 49.2711 87.2419 49.0091 87.1103C48.747 86.9787 48.747 86.7156 49.0091 86.584C49.2711 86.3208 50.1884 86.8472 49.9263 87.1103Z" fill="#1A3962"/>
<path d="M37.4772 90.7948C37.7393 90.9264 37.7393 91.1895 37.4772 91.3211C37.2151 91.4527 36.8219 91.4527 36.5598 91.3211C36.2978 91.1895 36.2978 90.9264 36.5598 90.7948C36.8219 90.6632 37.2151 90.6632 37.4772 90.7948Z" fill="#1A3962"/>
<path d="M39.9673 89.3474C40.2294 89.4789 40.2294 89.7421 39.9673 89.8737C39.7053 90.0053 39.3121 90.0053 39.0501 89.8737C38.788 89.7421 38.788 89.4789 39.0501 89.3474C39.3121 89.2158 39.7053 89.2158 39.9673 89.3474Z" fill="#1A3962"/>
<path d="M42.4566 87.8998C42.7187 88.0314 42.7187 88.2946 42.4566 88.4262C42.1946 88.5578 41.8014 88.5578 41.5393 88.4262C41.2773 88.2946 41.2773 88.0314 41.5393 87.8998C41.8014 87.7683 42.1946 87.7683 42.4566 87.8998Z" fill="#1A3962"/>
<path d="M44.9468 86.4524C45.2089 86.584 45.2089 86.8472 44.9468 86.9788C44.6847 87.1104 44.2916 87.1104 44.0296 86.9788C43.7675 86.8472 43.7675 86.584 44.0296 86.4524C44.2916 86.3209 44.6847 86.3209 44.9468 86.4524Z" fill="#1A3962"/>
<path d="M47.4366 85.6629C47.1745 85.7945 46.7814 85.7945 46.5193 85.6629C46.2572 85.5313 46.2572 85.2681 46.5193 85.1365C46.7814 84.8734 47.6987 85.3997 47.4366 85.6629Z" fill="#1A3962"/>
<path d="M34.9878 89.3474C35.2499 89.4789 35.2499 89.7421 34.9878 89.8737C34.7257 90.0053 34.3327 90.0053 34.0706 89.8737C33.8085 89.7421 33.8085 89.4789 34.0706 89.3474C34.3327 89.2158 34.7257 89.2158 34.9878 89.3474Z" fill="#1A3962"/>
<path d="M37.4772 87.8998C37.7393 88.0314 37.7393 88.2946 37.4772 88.4262C37.2151 88.5578 36.8219 88.5578 36.5598 88.4262C36.2978 88.2946 36.2978 88.0314 36.5598 87.8998C36.8219 87.7683 37.2151 87.7683 37.4772 87.8998Z" fill="#1A3962"/>
<path d="M39.9673 86.4524C40.2294 86.584 40.2294 86.8472 39.9673 86.9788C39.7053 87.1104 39.3121 87.1104 39.0501 86.9788C38.788 86.8472 38.788 86.584 39.0501 86.4524C39.3121 86.3209 39.7053 86.3209 39.9673 86.4524Z" fill="#1A3962"/>
<path d="M42.4566 85.0049C42.7187 85.1365 42.7187 85.3997 42.4566 85.5313C42.1946 85.6629 41.8014 85.6629 41.5393 85.5313C41.2773 85.3997 41.2773 85.1365 41.5393 85.0049C41.8014 84.8734 42.1946 84.8734 42.4566 85.0049Z" fill="#1A3962"/>
<path d="M44.9467 84.2155C44.6847 84.3471 44.2916 84.3471 44.0295 84.2155C43.7675 84.0839 43.7675 83.8207 44.0295 83.6891C44.2916 83.4259 45.2088 84.0839 44.9467 84.2155Z" fill="#1A3962"/>
<path d="M32.4981 87.8998C32.7602 88.0314 32.7602 88.2946 32.4981 88.4262C32.236 88.5578 31.8429 88.5578 31.5808 88.4262C31.3188 88.2946 31.3188 88.0314 31.5808 87.8998C31.8429 87.7683 32.236 87.7683 32.4981 87.8998Z" fill="#1A3962"/>
<path d="M34.9878 86.4524C35.2499 86.584 35.2499 86.8472 34.9878 86.9788C34.7257 87.1104 34.3327 87.1104 34.0706 86.9788C33.8085 86.8472 33.8085 86.584 34.0706 86.4524C34.3327 86.3209 34.7257 86.3209 34.9878 86.4524Z" fill="#1A3962"/>
<path d="M37.4772 85.0049C37.7393 85.1365 37.7393 85.3997 37.4772 85.5313C37.2151 85.6629 36.8219 85.6629 36.5598 85.5313C36.2978 85.3997 36.2978 85.1365 36.5598 85.0049C36.8219 84.8734 37.2151 84.8734 37.4772 85.0049Z" fill="#1A3962"/>
<path d="M39.9673 83.5576C40.2294 83.6891 40.2294 83.9523 39.9673 84.0839C39.7053 84.2155 39.3121 84.2155 39.0501 84.0839C38.788 83.9523 38.788 83.6891 39.0501 83.5576C39.3121 83.426 39.7053 83.426 39.9673 83.5576Z" fill="#1A3962"/>
<path d="M42.4566 82.768C42.1945 82.8996 41.8014 82.8996 41.5393 82.768C41.2773 82.6364 41.2773 82.3732 41.5393 82.2416C41.8014 81.9784 42.7186 82.6364 42.4566 82.768Z" fill="#1A3962"/>
<path d="M30.0079 86.4524C30.27 86.584 30.27 86.8472 30.0079 86.9788C29.7458 87.1104 29.3527 87.1104 29.0906 86.9788C28.8285 86.8472 28.8285 86.584 29.0906 86.4524C29.3527 86.3209 29.7458 86.3209 30.0079 86.4524Z" fill="#1A3962"/>
<path d="M32.4981 85.0049C32.7602 85.1365 32.7602 85.3997 32.4981 85.5313C32.236 85.6629 31.8429 85.6629 31.5808 85.5313C31.3188 85.3997 31.3188 85.1365 31.5808 85.0049C31.8429 84.8734 32.236 84.8734 32.4981 85.0049Z" fill="#1A3962"/>
<path d="M34.9878 83.5576C35.2499 83.6891 35.2499 83.9523 34.9878 84.0839C34.7257 84.2155 34.3327 84.2155 34.0706 84.0839C33.8085 83.9523 33.8085 83.6891 34.0706 83.5576C34.3327 83.426 34.7257 83.426 34.9878 83.5576Z" fill="#1A3962"/>
<path d="M37.4772 82.2416C37.7393 82.3732 37.7393 82.6364 37.4772 82.768C37.2151 82.8996 36.8219 82.8996 36.5598 82.768C36.2978 82.6364 36.2978 82.3732 36.5598 82.2416C36.8219 81.9785 37.2151 81.9785 37.4772 82.2416Z" fill="#1A3962"/>
<path d="M39.9674 81.3205C39.7053 81.4521 39.3121 81.4521 39.0501 81.3205C38.788 81.189 38.788 80.9258 39.0501 80.7942C39.3121 80.531 40.2294 81.189 39.9674 81.3205Z" fill="#1A3962"/>
<path d="M27.5186 85.0049C27.7807 85.1365 27.7807 85.3997 27.5186 85.5313C27.2565 85.6629 26.8634 85.6629 26.6013 85.5313C26.3393 85.3997 26.3393 85.1365 26.6013 85.0049C26.8634 84.8734 27.2565 84.8734 27.5186 85.0049Z" fill="#1A3962"/>
<path d="M30.0079 83.5576C30.27 83.6891 30.27 83.9523 30.0079 84.0839C29.7458 84.2155 29.3527 84.2155 29.0906 84.0839C28.8285 83.9523 28.8285 83.6891 29.0906 83.5576C29.3527 83.426 29.7458 83.426 30.0079 83.5576Z" fill="#1A3962"/>
<path d="M32.4981 82.2416C32.7602 82.3732 32.7602 82.6364 32.4981 82.768C32.236 82.8996 31.8429 82.8996 31.5808 82.768C31.3188 82.6364 31.3188 82.3732 31.5808 82.2416C31.8429 81.9785 32.236 81.9785 32.4981 82.2416Z" fill="#1A3962"/>
<path d="M34.5947 81.4521C34.9565 81.4521 35.2499 81.2754 35.2499 81.0574C35.2499 80.8393 34.9565 80.6626 34.5947 80.6626C34.2328 80.6626 33.9395 80.8393 33.9395 81.0574C33.9395 81.2754 34.2328 81.4521 34.5947 81.4521Z" fill="#1A3962"/>
<path d="M25.0284 83.5576C25.2905 83.6891 25.2905 83.9523 25.0284 84.0839C24.7664 84.2155 24.3732 84.2155 24.1111 84.0839C23.849 83.9523 23.849 83.6891 24.1111 83.5576C24.3732 83.426 24.7664 83.426 25.0284 83.5576Z" fill="#1A3962"/>
<path d="M27.5186 82.2416C27.7807 82.3732 27.7807 82.6364 27.5186 82.768C27.2565 82.8996 26.8634 82.8996 26.6013 82.768C26.3393 82.6364 26.3393 82.3732 26.6013 82.2416C26.8634 81.9785 27.2565 81.9785 27.5186 82.2416Z" fill="#1A3962"/>
<path d="M30.0079 80.7942C30.27 80.9258 30.27 81.1889 30.0079 81.3205C29.7458 81.4521 29.3527 81.4521 29.0906 81.3205C28.8285 81.1889 28.8285 80.9258 29.0906 80.7942C29.3527 80.531 29.7458 80.531 30.0079 80.7942Z" fill="#1A3962"/>
<path d="M32.4981 79.3467C32.7602 79.4783 32.7602 79.7415 32.4981 79.8731C32.236 80.0047 31.8429 80.0047 31.5808 79.8731C31.3188 79.7415 31.3188 79.4783 31.5808 79.3467C31.8429 79.2152 32.236 79.2152 32.4981 79.3467Z" fill="#1A3962"/>
<path d="M22.5387 82.11C22.8007 82.2416 22.8007 82.5048 22.5387 82.6364C22.2766 82.768 21.8835 82.768 21.6214 82.6364C21.3593 82.5048 21.3593 82.2416 21.6214 82.11C21.8835 81.9785 22.2766 81.9785 22.5387 82.11Z" fill="#1A3962"/>
<path d="M25.0284 80.7942C25.2905 80.9257 25.2905 81.1889 25.0284 81.3205C24.7664 81.4521 24.3732 81.4521 24.1111 81.3205C23.849 81.1889 23.849 80.9257 24.1111 80.7942C24.3732 80.6626 24.7664 80.531 25.0284 80.7942Z" fill="#1A3962"/>
<path d="M27.5186 79.3467C27.7807 79.4783 27.7807 79.7415 27.5186 79.8731C27.2565 80.0046 26.8634 80.0046 26.6013 79.8731C26.3393 79.7415 26.3393 79.4783 26.6013 79.3467C26.8634 79.0836 27.2565 79.0836 27.5186 79.3467Z" fill="#1A3962"/>
<path d="M30.0079 77.8993C30.27 78.0309 30.27 78.2941 30.0079 78.4257C29.7458 78.5573 29.3527 78.5573 29.0906 78.4257C28.8285 78.2941 28.8285 78.0309 29.0906 77.8993C29.3527 77.6362 29.7458 77.6362 30.0079 77.8993Z" fill="#1A3962"/>
<path d="M20.0493 80.7942C20.3114 80.9258 20.3114 81.1889 20.0493 81.3205C19.7873 81.4521 19.3942 81.4521 19.1321 81.3205C18.87 81.1889 18.87 80.9258 19.1321 80.7942C19.3942 80.531 19.7873 80.531 20.0493 80.7942Z" fill="#1A3962"/>
<path d="M22.5387 79.3467C22.8007 79.4783 22.8007 79.7415 22.5387 79.8731C22.2766 80.0046 21.8835 80.0046 21.6214 79.8731C21.3593 79.7415 21.3593 79.4783 21.6214 79.3467C21.8835 79.0836 22.2766 79.0836 22.5387 79.3467Z" fill="#1A3962"/>
<path d="M25.0284 77.8993C25.2905 78.0309 25.2905 78.2941 25.0284 78.4257C24.7664 78.5573 24.3732 78.5573 24.1111 78.4257C23.849 78.2941 23.849 78.0309 24.1111 77.8993C24.3732 77.6362 24.7664 77.6362 25.0284 77.8993Z" fill="#1A3962"/>
<path d="M27.1254 77.1098C27.4873 77.1098 27.7806 76.933 27.7806 76.715C27.7806 76.497 27.4873 76.3203 27.1254 76.3203C26.7636 76.3203 26.4702 76.497 26.4702 76.715C26.4702 76.933 26.7636 77.1098 27.1254 77.1098Z" fill="#1A3962"/>
<path d="M17.5592 79.3467C17.8212 79.4783 17.8212 79.7415 17.5592 79.8731C17.2971 80.0046 16.904 80.0046 16.6419 79.8731C16.3798 79.7415 16.3798 79.4783 16.6419 79.3467C16.904 79.0836 17.2971 79.0836 17.5592 79.3467Z" fill="#1A3962"/>
<path d="M20.0493 77.8993C20.3114 78.0309 20.3114 78.2941 20.0493 78.4257C19.7873 78.5573 19.3942 78.5573 19.1321 78.4257C18.87 78.2941 18.87 78.0309 19.1321 77.8993C19.3942 77.6362 19.7873 77.6362 20.0493 77.8993Z" fill="#1A3962"/>
<path d="M22.5387 76.4518C22.8007 76.5834 22.8007 76.8466 22.5387 76.9782C22.2766 77.1098 21.8835 77.1098 21.6214 76.9782C21.3593 76.8466 21.3593 76.5834 21.6214 76.4518C21.8835 76.3203 22.2766 76.3203 22.5387 76.4518Z" fill="#1A3962"/>
<path d="M25.0284 75.0044C25.2905 75.136 25.2905 75.3992 25.0284 75.5308C24.7664 75.6624 24.3732 75.6624 24.1111 75.5308C23.849 75.3992 23.849 75.136 24.1111 75.0044C24.3732 74.8729 24.7664 74.8729 25.0284 75.0044C25.2905 75.136 24.7664 74.8729 25.0284 75.0044Z" fill="#1A3962"/>
<path d="M15.0694 77.8993C15.3315 78.0309 15.3315 78.2941 15.0694 78.4257C14.8073 78.5573 14.4142 78.5573 14.1521 78.4257C13.89 78.2941 13.89 78.0309 14.1521 77.8993C14.4142 77.6362 14.8073 77.6362 15.0694 77.8993Z" fill="#1A3962"/>
<path d="M17.5592 76.4518C17.8212 76.5834 17.8212 76.8466 17.5592 76.9782C17.2971 77.1098 16.904 77.1098 16.6419 76.9782C16.3798 76.8466 16.3798 76.5834 16.6419 76.4518C16.904 76.3203 17.2971 76.3203 17.5592 76.4518Z" fill="#1A3962"/>
<path d="M20.0493 75.0044C20.3114 75.136 20.3114 75.3992 20.0493 75.5308C19.7873 75.6624 19.3942 75.6624 19.1321 75.5308C18.87 75.3992 18.87 75.136 19.1321 75.0044C19.3942 74.8729 19.7873 74.8729 20.0493 75.0044Z" fill="#1A3962"/>
<path d="M69.8442 112.375C70.1063 112.507 70.1063 112.77 69.8442 112.901C69.5822 113.033 69.1891 113.033 68.927 112.901C68.665 112.77 68.665 112.507 68.927 112.375C69.1891 112.243 69.5822 112.243 69.8442 112.375Z" fill="#1A3962"/>
<path d="M67.3546 110.927C67.6167 111.059 67.6167 111.322 67.3546 111.454C67.0925 111.585 66.6994 111.585 66.4373 111.454C66.1752 111.322 66.1752 111.059 66.4373 110.927C66.6994 110.796 67.0925 110.796 67.3546 110.927Z" fill="#1A3962"/>
<path d="M59.8853 106.585C60.1473 106.717 60.1473 106.98 59.8853 107.111C59.6232 107.243 59.2301 107.243 58.968 107.111C58.706 106.98 58.706 106.717 58.968 106.585C59.2301 106.453 59.6232 106.453 59.8853 106.585Z" fill="#1A3962"/>
<path d="M57.3955 105.138C57.6576 105.269 57.6576 105.532 57.3955 105.664C57.1335 105.796 56.7404 105.796 56.4783 105.664C56.2162 105.532 56.2162 105.269 56.4783 105.138C56.7404 105.006 57.1335 105.006 57.3955 105.138Z" fill="#1A3962"/>
<path d="M54.9059 103.69C55.168 103.822 55.168 104.085 54.9059 104.217C54.6438 104.348 54.2506 104.348 53.9886 104.217C53.7265 104.085 53.7265 103.822 53.9886 103.69C54.2506 103.559 54.6438 103.559 54.9059 103.69Z" fill="#1A3962"/>
<path d="M64.8648 109.48C65.1269 109.612 65.1269 109.875 64.8648 110.006C64.6027 110.138 64.2096 110.138 63.9475 110.006C63.6855 109.875 63.6855 109.612 63.9475 109.48C64.2096 109.349 64.6027 109.349 64.8648 109.48Z" fill="#1A3962"/>
<path d="M62.3751 108.033C62.6372 108.164 62.6372 108.427 62.3751 108.559C62.113 108.691 61.7199 108.691 61.4578 108.559C61.1957 108.427 61.1957 108.164 61.4578 108.033C61.7199 107.901 62.113 107.901 62.3751 108.033Z" fill="#1A3962"/>
<path d="M74.8238 112.375C75.0859 112.507 75.0859 112.77 74.8238 112.901C74.5617 113.033 74.1686 113.033 73.9065 112.901C73.6444 112.77 73.6444 112.507 73.9065 112.375C74.1686 112.243 74.5617 112.243 74.8238 112.375Z" fill="#1A3962"/>
<path d="M77.3136 110.927C77.5757 111.059 77.5757 111.322 77.3136 111.454C77.0515 111.585 76.6584 111.585 76.3963 111.454C76.1342 111.322 76.1342 111.059 76.3963 110.927C76.6584 110.796 77.0515 110.796 77.3136 110.927Z" fill="#1A3962"/>
<path d="M79.8033 109.48C80.0654 109.612 80.0654 109.875 79.8033 110.006C79.5412 110.138 79.1481 110.138 78.886 110.006C78.6239 109.875 78.6239 109.612 78.886 109.48C79.1481 109.349 79.5412 109.349 79.8033 109.48Z" fill="#1A3962"/>
<path d="M72.334 110.927C72.5961 111.059 72.5961 111.322 72.334 111.454C72.0719 111.585 71.6788 111.585 71.4168 111.454C71.1547 111.322 71.1547 111.059 71.4168 110.927C71.6788 110.796 72.0719 110.796 72.334 110.927Z" fill="#1A3962"/>
<path d="M74.8238 109.48C75.0859 109.612 75.0859 109.875 74.8238 110.006C74.5617 110.138 74.1686 110.138 73.9065 110.006C73.6444 109.875 73.6444 109.612 73.9065 109.48C74.1686 109.349 74.5617 109.349 74.8238 109.48Z" fill="#1A3962"/>
<path d="M77.3136 108.033C77.5757 108.164 77.5757 108.427 77.3136 108.559C77.0515 108.691 76.6584 108.691 76.3963 108.559C76.1342 108.427 76.1342 108.164 76.3963 108.033C76.6584 107.901 77.0515 107.901 77.3136 108.033Z" fill="#1A3962"/>
<path d="M69.8442 109.48C70.1063 109.612 70.1063 109.875 69.8442 110.006C69.5822 110.138 69.1891 110.138 68.927 110.006C68.665 109.875 68.665 109.612 68.927 109.48C69.1891 109.349 69.5822 109.349 69.8442 109.48Z" fill="#1A3962"/>
<path d="M72.334 108.033C72.5961 108.164 72.5961 108.427 72.334 108.559C72.0719 108.691 71.6788 108.691 71.4168 108.559C71.1547 108.427 71.1547 108.164 71.4168 108.033C71.6788 107.901 72.0719 107.901 72.334 108.033Z" fill="#1A3962"/>
<path d="M67.3546 108.033C67.6167 108.164 67.6167 108.427 67.3546 108.559C67.0925 108.691 66.6994 108.691 66.4373 108.559C66.1752 108.427 66.1752 108.164 66.4373 108.033C66.6994 107.901 67.0925 107.901 67.3546 108.033Z" fill="#1A3962"/>
<path d="M69.8442 106.585C70.1063 106.717 70.1063 106.98 69.8442 107.111C69.5822 107.243 69.1891 107.243 68.927 107.111C68.665 106.98 68.665 106.717 68.927 106.585C69.1891 106.453 69.5822 106.453 69.8442 106.585Z" fill="#1A3962"/>
<path d="M64.8648 106.585C65.1269 106.717 65.1269 106.98 64.8648 107.111C64.6027 107.243 64.2096 107.243 63.9475 107.111C63.6855 106.98 63.6855 106.717 63.9475 106.585C64.2096 106.453 64.6027 106.453 64.8648 106.585Z" fill="#1A3962"/>
<path d="M67.3546 105.138C67.6167 105.269 67.6167 105.532 67.3546 105.664C67.0925 105.796 66.6994 105.796 66.4373 105.664C66.1752 105.532 66.1752 105.269 66.4373 105.138C66.6994 105.006 67.0925 105.006 67.3546 105.138Z" fill="#1A3962"/>
<path d="M69.8442 103.69C70.1063 103.822 70.1063 104.085 69.8442 104.217C69.5822 104.348 69.1891 104.348 68.927 104.217C68.665 104.085 68.665 103.822 68.927 103.69C69.1891 103.559 69.5822 103.559 69.8442 103.69Z" fill="#1A3962"/>
<path d="M62.3751 105.138C62.6372 105.269 62.6372 105.532 62.3751 105.664C62.113 105.796 61.7199 105.796 61.4578 105.664C61.1957 105.532 61.1957 105.269 61.4578 105.138C61.7199 105.006 62.113 105.006 62.3751 105.138Z" fill="#1A3962"/>
<path d="M64.8648 103.69C65.1269 103.822 65.1269 104.085 64.8648 104.217C64.6027 104.348 64.2096 104.348 63.9475 104.217C63.6855 104.085 63.6855 103.822 63.9475 103.69C64.2096 103.559 64.6027 103.559 64.8648 103.69Z" fill="#1A3962"/>
<path d="M67.3546 102.243C67.6167 102.374 67.6167 102.638 67.3546 102.769C67.0925 102.901 66.6994 102.901 66.4373 102.769C66.1752 102.638 66.1752 102.374 66.4373 102.243C66.6994 102.111 67.0925 102.111 67.3546 102.243Z" fill="#1A3962"/>
<path d="M59.8853 103.69C60.1473 103.822 60.1473 104.085 59.8853 104.217C59.6232 104.348 59.2301 104.348 58.968 104.217C58.706 104.085 58.706 103.822 58.968 103.69C59.2301 103.559 59.6232 103.559 59.8853 103.69Z" fill="#1A3962"/>
<path d="M62.3751 102.243C62.6372 102.374 62.6372 102.638 62.3751 102.769C62.113 102.901 61.7199 102.901 61.4578 102.769C61.1957 102.638 61.1957 102.374 61.4578 102.243C61.7199 102.111 62.113 102.111 62.3751 102.243Z" fill="#1A3962"/>
<path d="M64.8648 100.795C65.1269 100.927 65.1269 101.19 64.8648 101.322C64.6027 101.453 64.2096 101.453 63.9475 101.322C63.6855 101.19 63.6855 100.927 63.9475 100.795C64.2096 100.664 64.6027 100.664 64.8648 100.795Z" fill="#1A3962"/>
<path d="M57.3955 102.243C57.6576 102.374 57.6576 102.638 57.3955 102.769C57.1335 102.901 56.7404 102.901 56.4783 102.769C56.2162 102.638 56.2162 102.374 56.4783 102.243C56.7404 102.111 57.1335 102.111 57.3955 102.243Z" fill="#1A3962"/>
<path d="M59.8853 100.795C60.1473 100.927 60.1473 101.19 59.8853 101.322C59.6232 101.453 59.2301 101.453 58.968 101.322C58.706 101.19 58.706 100.927 58.968 100.795C59.2301 100.664 59.6232 100.664 59.8853 100.795Z" fill="#1A3962"/>
<path d="M62.3751 99.3478C62.6372 99.4794 62.6372 99.7426 62.3751 99.8742C62.113 100.006 61.7199 100.006 61.4578 99.8742C61.1957 99.7426 61.1957 99.4794 61.4578 99.3478C61.7199 99.2162 62.113 99.2162 62.3751 99.3478Z" fill="#1A3962"/>
<path d="M64.8648 98.5583C64.6027 98.6899 64.2096 98.6899 63.9475 98.5583C63.6855 98.4267 63.6855 98.1636 63.9475 98.032C64.2096 97.9004 64.6027 97.9004 64.8648 98.032C65.1269 98.1636 65.1269 98.4267 64.8648 98.5583Z" fill="#1A3962"/>
<path d="M75.873 40.1343L6.81488 0.526779C5.8976 0.000432432 5.11138 0.000432432 4.58722 0.526779L1.18018 2.50058L3.66993 6.05342V60.0039C3.66993 62.2409 5.11136 64.8726 6.81488 65.7937L71.2866 102.77L74.5626 107.507L77.7075 105.533C78.3627 105.138 78.8869 104.349 78.8869 103.033V46.0557C79.0179 43.8188 77.5765 41.187 75.873 40.1343Z" fill="#4B8EC8"/>
<path d="M59.6234 37.3706L2.2278 5.13186L1.31055 3.02648L3.8003 1.44744C4.32446 1.05268 5.11072 0.921094 6.028 1.44744L75.0861 41.055C76.0033 41.5813 76.9206 42.634 77.4448 43.8183L77.5758 44.2131L73.5136 46.7132L59.6234 37.3706Z" fill="white"/>
<path d="M77.9689 46.1869L74.2998 48.4239L74.5619 49.8713L77.9689 47.7659V46.1869Z" fill="white"/>
<path d="M4.45558 0.39476C5.11078 -0.131587 6.02806 -0.131587 7.07638 0.39476L76.1345 40.0023C77.969 41.055 79.4105 43.8183 79.4105 46.1869V103.164C79.4105 104.48 78.8863 105.532 78.1001 105.927L74.693 108.033L71.286 103.164L6.81428 66.3196C4.97972 65.267 3.53828 62.5036 3.53828 60.1351V6.31616L0.91748 2.50014L4.45558 0.39476ZM4.06247 6.05298V60.0035C4.06247 62.1089 5.37285 64.609 6.94533 65.5301L71.417 102.506L74.693 107.111L75.3482 106.717L75.4793 105.664L77.969 104.085C78.3621 103.822 78.4932 103.559 78.4932 103.032V46.0553C78.4932 43.9499 77.1828 41.4498 75.6103 40.5287L6.55222 0.921106C5.89702 0.526346 5.24183 0.526346 4.71767 0.921106L1.57268 2.76332L4.06247 6.05298Z" fill="#16110D"/>
<path d="M23.5871 88.821L37.6084 80.7942C38.9188 80.0047 41.2775 80.1363 42.85 81.0574L51.3676 85.9261L55.4298 87.7683V89.6105C55.2988 90.1369 55.0367 90.5316 54.5126 90.7948L37.2153 100.664C36.5601 101.059 35.7738 101.19 34.9876 101.19C33.9393 101.19 32.891 100.927 32.1047 100.401L20.8353 93.9529C20.0491 93.4265 19.5249 92.9002 19.5249 92.1107V91.9791V90.5316L23.5871 88.821Z" fill="#16110D"/>
<path d="M54.2504 89.0841L36.9531 98.9531C35.6427 99.6111 33.5461 99.6111 32.1046 98.69L20.8352 92.2422C19.3937 91.4527 19.2627 90.1368 20.4421 89.4789L37.7393 79.6099C39.0497 78.952 41.1464 78.952 42.5878 79.8731L53.8573 86.3208C55.2987 87.1103 55.4297 88.2946 54.2504 89.0841Z" fill="#4B8EC8"/>
<path d="M22.4079 90.9264L27.1253 88.1631C28.6977 87.242 30.5323 87.242 32.1048 88.1631L43.8984 94.874L36.8222 98.9531C35.5118 99.6111 33.4152 99.6111 31.9738 98.69L22.932 93.6897C21.3595 92.9002 21.0975 91.5843 22.4079 90.9264Z" fill="white"/>
<path d="M34.8565 99.7427C35.6427 99.7427 36.56 99.6111 37.0841 99.2163L54.3814 89.3474C55.0366 88.9526 55.4297 88.4262 55.4297 87.8999C55.4297 87.242 54.9056 86.584 54.1193 86.0577L42.8499 79.6099C41.2774 78.6888 39.0497 78.6888 37.6083 79.3468L20.311 89.2158C19.6558 89.6105 19.2627 90.1369 19.2627 90.6632C19.2627 91.3211 19.7869 91.9791 20.5731 92.5054L31.8425 98.9532C32.7598 99.4795 33.8082 99.7427 34.8565 99.7427ZM53.9883 88.821L36.691 98.69C35.5117 99.3479 33.5461 99.2163 32.1046 98.4268L20.8352 91.9791C20.18 91.5843 19.7869 91.1896 19.7869 90.6632C19.7869 90.2685 20.18 89.8737 20.4421 89.7421L37.7393 79.8731C38.9187 79.2152 40.8843 79.3468 42.3257 80.1363L53.5952 86.584C54.2504 86.9788 54.6435 87.3735 54.6435 87.8999C54.6435 88.2947 54.3814 88.5578 53.9883 88.821Z" fill="#16110D"/>
<path d="M1.17935 2.23702C1.83455 1.84226 2.62078 1.84226 3.53806 2.3686L72.5962 41.9762C74.4307 43.0289 75.8722 45.7922 75.8722 48.1607V105.138C75.8722 106.454 75.348 106.98 74.9549 107.243C74.6928 107.375 74.2997 107.506 74.0376 107.506C73.5134 107.506 72.7272 107.243 72.072 106.848L3.276 68.1619C1.44144 67.1092 0 64.3459 0 61.9773V5.00034C0 3.68447 0.524152 2.63178 1.17935 2.23702Z" fill="#16110D"/>
<path d="M0.393555 55.3979V62.372C0.393555 64.4774 1.835 66.9776 3.66956 68.0303L72.3345 107.375C74.1691 108.427 75.6105 107.638 75.6105 105.532V98.5583L0.393555 55.3979Z" fill="#4B8EC8"/>
<path d="M73.7758 108.033C74.1689 108.033 74.5621 107.901 74.8241 107.769C75.6104 107.375 76.0035 106.454 76.0035 105.401V98.2951L75.8724 98.1636L0.131348 54.74V62.2404C0.131348 64.4774 1.7038 67.1091 3.6694 68.1618L72.3344 107.506C72.7275 107.901 73.2516 108.033 73.7758 108.033ZM75.2172 98.6899V105.401C75.2172 106.322 74.9552 106.98 74.431 107.243C73.9068 107.506 73.2516 107.506 72.4654 106.98L3.80045 67.7671C2.09693 66.7144 0.6555 64.3458 0.6555 62.372V56.0559L75.2172 98.6899Z" fill="#16110D"/>
<path d="M71.1544 91.5843L4.84811 53.6873C4.19291 53.2926 3.7998 52.3715 3.7998 51.5819V8.02678C3.7998 7.23726 4.32395 6.8425 4.84811 7.23726L71.1544 45.1342C71.8096 45.529 72.2027 46.4501 72.2027 47.2396V90.7948C72.2027 91.5843 71.6785 91.979 71.1544 91.5843Z" fill="white"/>
<path d="M71.5477 92.1106C71.6788 92.1106 71.8098 92.1106 71.9408 91.979C72.334 91.7159 72.465 91.3211 72.465 90.7948V47.2396C72.465 46.3185 71.9408 45.2658 71.1546 44.871L4.84834 6.97411C4.45522 6.71094 4.06211 6.71094 3.80003 6.97411C3.40691 7.23729 3.27588 7.63205 3.27588 8.15839V51.7136C3.27588 52.6347 3.80004 53.6874 4.58628 54.0821L70.8925 91.979C71.1546 91.979 71.2857 92.1106 71.5477 92.1106ZM4.45523 7.36887C4.58627 7.36887 4.71733 7.36887 4.71733 7.50046L71.0235 45.3974C71.5477 45.6606 71.9408 46.4501 71.9408 47.2396V90.7948C71.9408 91.0579 71.8098 91.3211 71.6787 91.3211C71.5477 91.4527 71.4167 91.3211 71.2856 91.3211L4.97938 53.4242C4.45522 53.161 4.06213 52.3715 4.06213 51.582V8.0268C4.06213 7.76363 4.19315 7.50046 4.45523 7.36887C4.32419 7.36887 4.32419 7.36887 4.45523 7.36887Z" fill="#16110D"/>
<path d="M52.6783 67.8986L21.4908 49.8713C17.6907 47.6343 14.6768 41.8445 14.6768 36.7126C14.6768 31.7123 17.6907 29.3438 21.4908 31.5807L52.6783 49.6081C56.4784 51.8451 59.4924 57.6349 59.4924 62.7668C59.4924 67.7671 56.3474 70.1356 52.6783 67.8986Z" fill="white"/>
<path d="M53.7266 66.0565C52.8093 66.0565 51.761 65.7933 50.8437 65.1354L19.6562 47.108C15.725 44.871 12.5801 38.818 12.5801 33.6861C12.5801 30.9228 13.4973 28.8174 15.0698 27.7648C16.3802 26.9752 18.0837 27.1068 19.9183 28.1595L51.1058 46.1869C55.037 48.4239 58.182 54.4768 58.182 59.6087C58.182 62.372 57.2647 64.4774 55.6922 65.5301C55.037 65.9249 54.3818 66.0565 53.7266 66.0565ZM17.1665 28.1595C16.6423 28.1595 16.1181 28.2911 15.594 28.5543C14.1525 29.3438 13.3663 31.3176 13.3663 33.8177C13.3663 38.6864 16.3802 44.4763 20.0493 46.5816L51.2369 64.609C52.8093 65.5301 54.2508 65.6617 55.2991 65.0038C56.7405 64.2143 57.5268 62.2405 57.5268 59.7403C57.5268 54.8716 54.5128 49.0818 50.8437 46.9764L19.6562 28.949C18.87 28.4227 17.9527 28.1595 17.1665 28.1595Z" fill="#16110D"/>
<path d="M54.3818 62.8984V73.8201C54.3818 74.2148 54.775 74.7412 55.1681 74.6096L56.6095 73.9516C56.8716 73.8201 57.1337 74.0832 57.2647 74.478L58.7061 79.0835C58.8372 79.4783 59.2303 79.873 59.4924 79.873H60.6717C60.9338 79.873 61.0649 79.4783 60.9338 79.0835L59.4924 74.3464C59.3614 73.9517 59.4924 73.8201 59.7545 73.9516L61.7201 74.8728C62.1132 75.0043 62.2442 74.6096 61.9822 74.2148L55.037 62.8984C54.775 62.5036 54.3818 62.5036 54.3818 62.8984Z" fill="white"/>
<path d="M59.0991 77.3729H57.9198C57.3956 77.3729 56.8715 76.8466 56.7404 76.3203L55.299 71.7147C55.299 71.5831 55.168 71.4515 55.168 71.4515L53.8576 72.1095C53.5955 72.2411 53.4645 72.2411 53.2024 71.9779C52.9403 71.8463 52.6782 71.32 52.6782 70.9252V60.0035C52.6782 59.6087 52.9403 59.4772 53.0714 59.3456C53.3334 59.214 53.7265 59.4772 53.9886 59.8719L60.9337 71.1884C61.1958 71.5831 61.1958 72.1095 60.9337 72.3727C60.8026 72.5042 60.5406 72.6358 60.1474 72.5042L58.444 71.7147L59.8853 76.3203C60.0164 76.715 60.0164 77.1098 59.7543 77.2414C59.4923 77.2414 59.3612 77.3729 59.0991 77.3729ZM55.168 70.662C55.299 70.662 55.299 70.662 55.43 70.662C55.6921 70.7936 55.9542 71.0568 56.0852 71.4515L57.5267 76.0571C57.6577 76.4518 57.9198 76.5834 58.0508 76.5834H59.2302C59.2302 76.5834 59.2302 76.4518 59.2302 76.3203L57.7888 71.5831C57.6577 71.1884 57.7887 70.9252 57.9198 70.7936C58.0508 70.662 58.3129 70.662 58.575 70.7936L60.2785 71.5831V71.4515L53.4645 60.2667V70.9252C53.4645 71.0568 53.5955 71.32 53.7266 71.32L55.168 70.662C55.037 70.662 55.037 70.662 55.168 70.662Z" fill="#16110D"/>
<path d="M20.5731 41.8445C20.4421 41.713 20.311 41.5814 20.311 41.4498V35.7916C20.311 35.66 20.4421 35.5284 20.5731 35.66L21.7525 36.3179C23.7181 37.5022 24.5043 38.818 24.5043 41.055C24.5043 43.292 23.7181 43.6867 21.7525 42.6341L20.5731 41.8445ZM21.7525 41.8445C23.325 42.7656 23.9802 42.3709 23.9802 40.5287C23.9802 38.6865 23.325 37.6338 21.7525 36.7127L20.8352 36.3179V41.3182L21.7525 41.8445Z" fill="black"/>
<path d="M25.5526 44.7394C25.4216 44.6079 25.2905 44.4763 25.2905 44.3447V38.6865C25.2905 38.5549 25.4216 38.4233 25.5526 38.5549L28.1734 40.1339C28.3045 40.2655 28.4355 40.3971 28.4355 40.5287C28.4355 40.6603 28.3045 40.7918 28.1734 40.6603L25.8147 39.3444V41.055L28.0424 42.3709C28.1734 42.5025 28.3045 42.6341 28.3045 42.7656C28.3045 42.8972 28.1734 43.0288 28.0424 42.8972L25.8147 41.5814V44.2131L28.1734 45.529C28.3045 45.6606 28.4355 45.7921 28.4355 45.9237C28.4355 46.0553 28.3045 46.1869 28.1734 46.0553L25.5526 44.7394Z" fill="black"/>
<path d="M29.8773 47.2396C29.7462 47.108 29.6152 46.9764 29.6152 46.8448V41.1866C29.6152 41.055 29.7462 40.9234 29.8773 41.055H30.0083C30.1394 41.1866 30.2704 41.3182 30.2704 41.4498V46.8448L32.4981 48.1607C32.6291 48.2923 32.7602 48.4238 32.7602 48.5554C32.7602 48.687 32.6291 48.8186 32.4981 48.687L29.8773 47.2396Z" fill="black"/>
<path d="M33.6771 49.4766C33.546 49.345 33.415 49.2134 33.415 49.0818V43.4236C33.415 43.292 33.546 43.1604 33.6771 43.292H33.8081C33.9391 43.4236 34.0702 43.5552 34.0702 43.6868V49.345C34.0702 49.4766 33.9391 49.6082 33.6771 49.4766Z" fill="black"/>
<path d="M37.0839 51.4503C36.9528 51.3187 36.8218 51.1871 36.8218 51.0556L34.7252 44.0815C34.5941 43.8183 34.7252 43.8183 34.8562 43.8183H34.9872C35.1183 43.9499 35.2493 44.0815 35.2493 44.2131L37.2149 50.5292L39.0495 46.45C39.0495 46.3184 39.1806 46.3184 39.3116 46.45H39.4426C39.5737 46.5816 39.7047 46.7132 39.5737 46.8448L37.477 51.3187C37.477 51.4503 37.346 51.4503 37.2149 51.3187L37.0839 51.4503Z" fill="black"/>
<path d="M40.6224 53.4242C40.4914 53.2926 40.3604 53.161 40.3604 53.0294V47.3712C40.3604 47.2396 40.4914 47.108 40.6224 47.2396L43.2433 48.8187C43.3743 48.9502 43.5053 49.0818 43.5053 49.2134C43.5053 49.345 43.3743 49.4766 43.2433 49.345L40.8845 48.0291V49.7398L43.1122 51.0556C43.2432 51.1872 43.3743 51.3188 43.3743 51.4504C43.3743 51.582 43.2432 51.7136 43.1122 51.582L40.8845 50.2661V52.8978L43.2433 54.2137C43.3743 54.3453 43.5053 54.4769 43.5053 54.6085C43.5053 54.74 43.3743 54.8716 43.2433 54.74L40.6224 53.4242Z" fill="black"/>
<path d="M44.6845 55.7927C44.5534 55.6611 44.4224 55.5295 44.4224 55.3979V49.7397C44.4224 49.6081 44.5534 49.4765 44.6845 49.6081L46.2569 50.5292C47.3053 51.1871 47.9605 52.3714 47.9605 53.4241C47.9605 54.3452 47.4363 54.8715 46.7811 54.6084L48.2225 57.5033C48.3536 57.7664 48.2225 57.898 48.0915 57.7664L47.9605 57.6349C47.8294 57.5033 47.6984 57.5033 47.6984 57.2401L46.2569 54.2136L45.2086 53.6873V55.7927C45.0776 55.9242 44.9465 55.9242 44.6845 55.7927ZM46.2569 53.6873C46.9121 54.082 47.4363 53.8189 47.4363 53.0293C47.4363 52.2398 47.0432 51.4503 46.2569 51.0555L45.0776 50.3976V53.0293L46.2569 53.6873Z" fill="black"/>
</svg>
