<svg width="110" height="117" viewBox="0 0 110 117" fill="none" xmlns="http://www.w3.org/2000/svg">
<path d="M9.08355 101.176C9.67631 101.176 10.1568 100.894 10.1568 100.546C10.1568 100.198 9.67631 99.9163 9.08355 99.9163C8.49078 99.9163 8.01025 100.198 8.01025 100.546C8.01025 100.894 8.49078 101.176 9.08355 101.176Z" fill="#16110D"/>
<path d="M13.8217 97.8161C14.2405 98.0524 14.2405 98.4462 13.8217 98.7087C13.4028 98.945 12.7222 98.945 12.3034 98.7087C11.8845 98.4724 11.8845 98.0786 12.3034 97.8161C12.7222 97.5536 13.4028 97.5536 13.8217 97.8161Z" fill="#16110D"/>
<path d="M5.86369 97.8161C6.28254 98.0524 6.28254 98.4462 5.86369 98.7087C5.44484 98.945 4.76423 98.945 4.34539 98.7087C3.92654 98.4724 3.92654 98.0786 4.34539 97.8161C4.73806 97.5536 5.41867 97.5536 5.86369 97.8161Z" fill="#16110D"/>
<path d="M9.08355 96.5822C9.67631 96.5822 10.1568 96.3001 10.1568 95.9521C10.1568 95.6042 9.67631 95.3221 9.08355 95.3221C8.49078 95.3221 8.01025 95.6042 8.01025 95.9521C8.01025 96.3001 8.49078 96.5822 9.08355 96.5822Z" fill="#16110D"/>
<path d="M1.85835 95.5059C2.2772 95.7421 2.2772 96.1359 1.85835 96.3984C1.4395 96.6347 0.758863 96.6347 0.340015 96.3984C-0.0788331 96.1622 -0.0788331 95.7684 0.340015 95.5059C0.758863 95.2696 1.4395 95.2696 1.85835 95.5059Z" fill="#16110D"/>
<path d="M5.86369 93.1957C6.28254 93.4319 6.28254 93.8257 5.86369 94.0883C5.44484 94.3245 4.76423 94.3245 4.34539 94.0883C3.92654 93.852 3.92654 93.4582 4.34539 93.1957C4.73806 92.9594 5.41867 92.9594 5.86369 93.1957Z" fill="#16110D"/>
<path d="M1.85835 90.8854C2.2772 91.1217 2.2772 91.5155 1.85835 91.778C1.4395 92.0143 0.758863 92.0143 0.340015 91.778C-0.0788331 91.5418 -0.0788331 91.148 0.340015 90.8854C0.758863 90.6492 1.4395 90.6492 1.85835 90.8854Z" fill="#16110D"/>
<path d="M53.8739 115.93C54.2928 116.166 54.2928 116.56 53.8739 116.823C53.4551 117.059 52.7745 117.059 52.3556 116.823C51.9368 116.587 51.9368 116.193 52.3556 115.93C52.7745 115.694 53.4551 115.694 53.8739 115.93Z" fill="#16110D"/>
<path d="M57.853 113.62C58.2718 113.856 58.2718 114.25 57.853 114.513C57.4341 114.749 56.7535 114.749 56.3346 114.513C55.9158 114.276 55.9158 113.883 56.3346 113.62C56.7535 113.384 57.4341 113.384 57.853 113.62Z" fill="#16110D"/>
<path d="M61.832 111.31C62.2508 111.546 62.2508 111.94 61.832 112.202C61.4131 112.439 60.7325 112.439 60.3136 112.202C59.8948 111.966 59.8948 111.572 60.3136 111.31C60.7325 111.073 61.4131 111.073 61.832 111.31Z" fill="#16110D"/>
<path d="M65.0523 110.076C65.6451 110.076 66.1256 109.794 66.1256 109.446C66.1256 109.098 65.6451 108.816 65.0523 108.816C64.4596 108.816 63.979 109.098 63.979 109.446C63.979 109.794 64.4596 110.076 65.0523 110.076Z" fill="#16110D"/>
<path d="M69.8163 106.689C70.2352 106.926 70.2352 107.319 69.8163 107.582C69.3975 107.818 68.7169 107.818 68.298 107.582C67.8792 107.346 67.8792 106.952 68.298 106.689C68.7169 106.453 69.3975 106.453 69.8163 106.689Z" fill="#16110D"/>
<path d="M45.8896 115.93C46.3084 116.166 46.3084 116.56 45.8896 116.823C45.4707 117.059 44.7901 117.059 44.3713 116.823C43.9524 116.587 43.9524 116.193 44.3713 115.93C44.7901 115.694 45.4707 115.694 45.8896 115.93Z" fill="#16110D"/>
<path d="M49.895 113.62C50.3138 113.856 50.3138 114.25 49.895 114.513C49.4761 114.749 48.7955 114.749 48.3766 114.513C47.9578 114.276 47.9578 113.883 48.3766 113.62C48.7693 113.384 49.45 113.384 49.895 113.62Z" fill="#16110D"/>
<path d="M53.8739 111.31C54.2928 111.546 54.2928 111.94 53.8739 112.202C53.4551 112.439 52.7745 112.439 52.3556 112.202C51.9368 111.966 51.9368 111.572 52.3556 111.31C52.7745 111.073 53.4551 111.073 53.8739 111.31Z" fill="#16110D"/>
<path d="M57.853 109C58.2718 109.236 58.2718 109.63 57.853 109.892C57.4341 110.128 56.7535 110.128 56.3346 109.892C55.9158 109.656 55.9158 109.262 56.3346 109C56.7535 108.763 57.4341 108.763 57.853 109Z" fill="#16110D"/>
<path d="M61.832 106.689C62.2508 106.926 62.2508 107.319 61.832 107.582C61.4131 107.818 60.7325 107.818 60.3136 107.582C59.8948 107.346 59.8948 106.952 60.3136 106.689C60.7325 106.453 61.4131 106.453 61.832 106.689Z" fill="#16110D"/>
<path d="M65.8374 104.379C66.2562 104.615 66.2562 105.009 65.8374 105.272C65.4185 105.508 64.7379 105.508 64.319 105.272C63.9002 105.035 63.9002 104.642 64.319 104.379C64.7117 104.143 65.3923 104.143 65.8374 104.379Z" fill="#16110D"/>
<path d="M37.9316 115.93C38.3504 116.166 38.3504 116.56 37.9316 116.823C37.5127 117.059 36.8321 117.059 36.4133 116.823C35.9944 116.587 35.9944 116.193 36.4133 115.93C36.8321 115.694 37.5127 115.694 37.9316 115.93Z" fill="#16110D"/>
<path d="M41.9106 113.62C42.3294 113.856 42.3294 114.25 41.9106 114.513C41.4917 114.749 40.8111 114.749 40.3923 114.513C39.9734 114.276 39.9734 113.883 40.3923 113.62C40.8111 113.384 41.4917 113.384 41.9106 113.62Z" fill="#16110D"/>
<path d="M45.8896 111.31C46.3084 111.546 46.3084 111.94 45.8896 112.202C45.4707 112.439 44.7901 112.439 44.3713 112.202C43.9524 111.966 43.9524 111.572 44.3713 111.31C44.7901 111.073 45.4707 111.073 45.8896 111.31Z" fill="#16110D"/>
<path d="M49.1099 110.076C49.7027 110.076 50.1832 109.794 50.1832 109.446C50.1832 109.098 49.7027 108.816 49.1099 108.816C48.5171 108.816 48.0366 109.098 48.0366 109.446C48.0366 109.794 48.5171 110.076 49.1099 110.076Z" fill="#16110D"/>
<path d="M53.8739 106.689C54.2928 106.926 54.2928 107.319 53.8739 107.582C53.4551 107.818 52.7745 107.818 52.3556 107.582C51.9368 107.346 51.9368 106.952 52.3556 106.689C52.7745 106.453 53.4551 106.453 53.8739 106.689Z" fill="#16110D"/>
<path d="M57.853 104.379C58.2718 104.615 58.2718 105.009 57.853 105.272C57.4341 105.508 56.7535 105.508 56.3346 105.272C55.9158 105.035 55.9158 104.642 56.3346 104.379C56.7535 104.143 57.4341 104.143 57.853 104.379Z" fill="#16110D"/>
<path d="M61.832 102.069C62.2508 102.305 62.2508 102.699 61.832 102.962C61.4131 103.198 60.7325 103.198 60.3136 102.962C59.8948 102.725 59.8948 102.331 60.3136 102.069C60.7325 101.833 61.4131 101.833 61.832 102.069Z" fill="#16110D"/>
<path d="M33.167 114.696C33.7598 114.696 34.2403 114.414 34.2403 114.066C34.2403 113.718 33.7598 113.436 33.167 113.436C32.5743 113.436 32.0938 113.718 32.0938 114.066C32.0938 114.414 32.5743 114.696 33.167 114.696Z" fill="#16110D"/>
<path d="M37.9316 111.31C38.3504 111.546 38.3504 111.94 37.9316 112.202C37.5127 112.439 36.8321 112.439 36.4133 112.202C35.9944 111.966 35.9944 111.572 36.4133 111.31C36.8321 111.073 37.5127 111.073 37.9316 111.31Z" fill="#16110D"/>
<path d="M41.9106 109C42.3294 109.236 42.3294 109.63 41.9106 109.892C41.4917 110.128 40.8111 110.128 40.3923 109.892C39.9734 109.656 39.9734 109.262 40.3923 109C40.8111 108.763 41.4917 108.763 41.9106 109Z" fill="#16110D"/>
<path d="M45.8896 106.689C46.3084 106.926 46.3084 107.319 45.8896 107.582C45.4707 107.818 44.7901 107.818 44.3713 107.582C43.9524 107.346 43.9524 106.952 44.3713 106.689C44.7901 106.453 45.4707 106.453 45.8896 106.689Z" fill="#16110D"/>
<path d="M49.895 104.379C50.3138 104.615 50.3138 105.009 49.895 105.272C49.4761 105.508 48.7955 105.508 48.3766 105.272C47.9578 105.035 47.9578 104.642 48.3766 104.379C48.7693 104.143 49.45 104.143 49.895 104.379Z" fill="#16110D"/>
<path d="M53.8739 102.069C54.2928 102.305 54.2928 102.699 53.8739 102.962C53.4551 103.198 52.7745 103.198 52.3556 102.962C51.9368 102.725 51.9368 102.331 52.3556 102.069C52.7745 101.833 53.4551 101.833 53.8739 102.069Z" fill="#16110D"/>
<path d="M57.853 99.785C58.2718 100.021 58.2718 100.415 57.853 100.678C57.4341 100.914 56.7535 100.914 56.3346 100.678C55.9158 100.441 55.9158 100.048 56.3346 99.785C56.7535 99.5225 57.4341 99.5225 57.853 99.785Z" fill="#16110D"/>
<path d="M29.9472 111.31C30.366 111.546 30.366 111.94 29.9472 112.202C29.5283 112.439 28.8477 112.439 28.4289 112.202C28.01 111.966 28.01 111.572 28.4289 111.31C28.8477 111.073 29.5283 111.073 29.9472 111.31Z" fill="#16110D"/>
<path d="M33.9526 109C34.3714 109.236 34.3714 109.63 33.9526 109.892C33.5337 110.128 32.8531 110.128 32.4343 109.892C32.0154 109.656 32.0154 109.262 32.4343 109C32.8269 108.763 33.5076 108.763 33.9526 109Z" fill="#16110D"/>
<path d="M37.9316 106.689C38.3504 106.926 38.3504 107.319 37.9316 107.582C37.5127 107.818 36.8321 107.818 36.4133 107.582C35.9944 107.346 35.9944 106.952 36.4133 106.689C36.8321 106.453 37.5127 106.453 37.9316 106.689Z" fill="#16110D"/>
<path d="M41.9106 104.379C42.3294 104.615 42.3294 105.009 41.9106 105.272C41.4917 105.508 40.8111 105.508 40.3923 105.272C39.9734 105.035 39.9734 104.642 40.3923 104.379C40.8111 104.143 41.4917 104.143 41.9106 104.379Z" fill="#16110D"/>
<path d="M45.8896 102.069C46.3084 102.305 46.3084 102.699 45.8896 102.962C45.4707 103.198 44.7901 103.198 44.3713 102.962C43.9524 102.725 43.9524 102.331 44.3713 102.069C44.7901 101.833 45.4707 101.833 45.8896 102.069Z" fill="#16110D"/>
<path d="M49.895 99.785C50.3138 100.021 50.3138 100.415 49.895 100.678C49.4761 100.914 48.7955 100.914 48.3766 100.678C47.9578 100.441 47.9578 100.048 48.3766 99.785C48.7693 99.5225 49.45 99.5225 49.895 99.785Z" fill="#16110D"/>
<path d="M53.8739 97.4748C54.2928 97.7111 54.2928 98.1048 53.8739 98.3674C53.4551 98.6036 52.7745 98.6036 52.3556 98.3674C51.9368 98.1311 51.9368 97.7373 52.3556 97.4748C52.7745 97.2123 53.4551 97.2123 53.8739 97.4748Z" fill="#16110D"/>
<path d="M25.9423 108.973C26.3612 109.21 26.3612 109.603 25.9423 109.866C25.5235 110.102 24.8428 110.102 24.424 109.866C24.0052 109.63 24.0052 109.236 24.424 108.973C24.8428 108.737 25.5235 108.737 25.9423 108.973Z" fill="#16110D"/>
<path d="M29.9213 106.663C30.3402 106.899 30.3402 107.293 29.9213 107.556C29.5025 107.792 28.8218 107.792 28.403 107.556C27.9842 107.319 27.9842 106.926 28.403 106.663C28.8218 106.427 29.5025 106.427 29.9213 106.663Z" fill="#16110D"/>
<path d="M33.9004 104.353C34.3192 104.589 34.3192 104.983 33.9004 105.245C33.4815 105.482 32.8009 105.482 32.382 105.245C31.9632 105.009 31.9632 104.615 32.382 104.353C32.8009 104.117 33.4815 104.117 33.9004 104.353Z" fill="#16110D"/>
<path d="M36.361 102.043C36.7799 101.806 37.4605 101.806 37.8794 102.043C38.2982 102.279 38.2982 102.673 37.8794 102.935C37.4605 103.172 36.7799 103.172 36.361 102.935C35.9422 102.699 35.9422 102.305 36.361 102.043C36.7799 101.806 35.9422 102.305 36.361 102.043Z" fill="#16110D"/>
<path d="M41.1255 100.809C41.7183 100.809 42.1988 100.527 42.1988 100.179C42.1988 99.8308 41.7183 99.5487 41.1255 99.5487C40.5328 99.5487 40.0522 99.8308 40.0522 100.179C40.0522 100.527 40.5328 100.809 41.1255 100.809Z" fill="#16110D"/>
<path d="M45.8637 97.4485C46.2826 97.6848 46.2826 98.0786 45.8637 98.3411C45.4449 98.5774 44.7642 98.5774 44.3454 98.3411C43.9265 98.1048 43.9265 97.711 44.3454 97.4485C44.7642 97.186 45.4449 97.186 45.8637 97.4485Z" fill="#16110D"/>
<path d="M49.8427 95.1383C50.2615 95.3746 50.2615 95.7684 49.8427 96.0309C49.4238 96.2672 48.7432 96.2672 48.3244 96.0309C47.9055 95.7946 47.9055 95.4009 48.3244 95.1383C48.7432 94.8758 49.4238 94.8758 49.8427 95.1383Z" fill="#16110D"/>
<path d="M21.9369 106.663C22.3558 106.899 22.3558 107.293 21.9369 107.556C21.5181 107.792 20.8375 107.792 20.4186 107.556C19.9998 107.319 19.9998 106.926 20.4186 106.663C20.8375 106.427 21.5181 106.427 21.9369 106.663Z" fill="#16110D"/>
<path d="M25.1832 105.429C25.7759 105.429 26.2564 105.147 26.2564 104.799C26.2564 104.451 25.7759 104.169 25.1832 104.169C24.5904 104.169 24.1099 104.451 24.1099 104.799C24.1099 105.147 24.5904 105.429 25.1832 105.429Z" fill="#16110D"/>
<path d="M45.8636 92.8281C46.2825 93.0644 46.2825 93.4582 45.8636 93.7207C45.4448 93.957 44.7641 93.957 44.3453 93.7207C43.9264 93.4582 45.4448 92.5919 45.8636 92.8281Z" fill="#16110D"/>
<path d="M17.958 104.353C18.3768 104.589 18.3768 104.983 17.958 105.245C17.5391 105.482 16.8585 105.482 16.4396 105.245C16.0208 105.009 16.0208 104.615 16.4396 104.353C16.8585 104.117 17.5391 104.117 17.958 104.353Z" fill="#16110D"/>
<path d="M21.9369 102.043C22.3558 102.279 22.3558 102.673 21.9369 102.935C21.5181 103.172 20.8375 103.172 20.4186 102.935C19.9998 102.699 19.9998 102.305 20.4186 102.043C20.8375 101.806 21.5181 101.806 21.9369 102.043Z" fill="#16110D"/>
<path d="M13.9789 102.043C14.3978 102.279 14.3978 102.673 13.9789 102.935C13.5601 103.172 12.8795 103.172 12.4606 102.935C12.0418 102.699 12.0418 102.305 12.4606 102.043C12.8795 101.806 13.5601 101.806 13.9789 102.043Z" fill="#16110D"/>
<path d="M17.958 99.7587C18.3768 99.995 18.3768 100.389 17.958 100.651C17.5391 100.914 16.8585 100.888 16.4396 100.651C16.0208 100.415 16.0208 100.021 16.4396 99.7587C16.8585 99.4962 17.5391 99.4962 17.958 99.7587Z" fill="#16110D"/>
<path d="M72.277 104.432C72.6959 104.195 73.3765 104.195 73.7953 104.432C74.2142 104.668 74.2142 105.062 73.7953 105.324C73.3765 105.561 72.6959 105.561 72.277 105.324C71.8582 105.062 71.8582 104.668 72.277 104.432Z" fill="#16110D"/>
<path d="M77.8007 102.121C78.2196 102.358 78.2196 102.751 77.8007 103.014C77.3819 103.25 76.7012 103.25 76.2824 103.014C75.8635 102.778 75.8635 102.384 76.2824 102.121C76.7012 101.859 77.3819 101.859 77.8007 102.121Z" fill="#16110D"/>
<path d="M81.7797 99.8112C82.1986 100.048 82.1986 100.441 81.7797 100.704C81.3609 100.94 80.6803 100.94 80.2614 100.704C79.8426 100.468 79.8426 100.074 80.2614 99.8112C80.6803 99.5487 81.3609 99.5487 81.7797 99.8112Z" fill="#16110D"/>
<path d="M85.7587 97.501C86.1776 97.7373 86.1776 98.1311 85.7587 98.3936C85.3399 98.6299 84.6592 98.6299 84.2404 98.3936C83.8216 98.1573 83.8216 97.7636 84.2404 97.501C84.6592 97.2385 85.3399 97.2385 85.7587 97.501Z" fill="#16110D"/>
<path d="M88.9786 96.2672C89.5713 96.2672 90.0519 95.9851 90.0519 95.6371C90.0519 95.2891 89.5713 95.007 88.9786 95.007C88.3858 95.007 87.9053 95.2891 87.9053 95.6371C87.9053 95.9851 88.3858 96.2672 88.9786 96.2672Z" fill="#16110D"/>
<path d="M93.7431 92.8806C94.162 93.1169 94.162 93.5107 93.7431 93.7732C93.3243 94.0095 92.6436 94.0095 92.2248 93.7732C91.8059 93.5369 91.8059 93.1432 92.2248 92.8806C92.6436 92.6444 93.3243 92.6444 93.7431 92.8806Z" fill="#16110D"/>
<path d="M97.7221 90.5704C98.1409 90.8067 98.1409 91.2005 97.7221 91.463C97.3032 91.6993 96.6226 91.6993 96.2038 91.463C95.7849 91.2267 95.7849 90.8329 96.2038 90.5704C96.6226 90.3342 97.3032 90.3342 97.7221 90.5704Z" fill="#16110D"/>
<path d="M101.701 88.2602C102.12 88.4965 102.12 88.8903 101.701 89.1528C101.282 89.3891 100.602 89.3891 100.183 89.1528C99.7639 88.9165 99.7639 88.5227 100.183 88.2602C100.602 88.0239 101.282 88.0239 101.701 88.2602Z" fill="#16110D"/>
<path d="M105.706 85.95C106.125 86.1863 106.125 86.5801 105.706 86.8426C105.288 87.0789 104.607 87.0789 104.188 86.8426C103.769 86.6063 103.769 86.2125 104.188 85.95C104.581 85.7137 105.261 85.7137 105.706 85.95Z" fill="#16110D"/>
<path d="M109.686 83.6398C110.104 83.8761 110.104 84.2699 109.686 84.5324C109.267 84.7949 108.586 84.7686 108.167 84.5324C107.748 84.2961 107.748 83.9023 108.167 83.6398C108.586 83.4035 109.267 83.4035 109.686 83.6398Z" fill="#16110D"/>
<path d="M68.298 102.121C68.7169 101.885 69.3975 101.885 69.8163 102.121C70.2352 102.358 70.2352 102.752 69.8163 103.014C69.3975 103.25 68.7169 103.25 68.298 103.014C67.8792 102.752 67.8792 102.358 68.298 102.121Z" fill="#16110D"/>
<path d="M73.0362 100.861C73.629 100.861 74.1095 100.579 74.1095 100.231C74.1095 99.8833 73.629 99.6012 73.0362 99.6012C72.4434 99.6012 71.9629 99.8833 71.9629 100.231C71.9629 100.579 72.4434 100.861 73.0362 100.861Z" fill="#16110D"/>
<path d="M77.8007 97.501C78.2196 97.7373 78.2196 98.1311 77.8007 98.3936C77.3819 98.6299 76.7012 98.6299 76.2824 98.3936C75.8635 98.1573 75.8635 97.7636 76.2824 97.501C76.7012 97.2385 77.3819 97.2385 77.8007 97.501Z" fill="#16110D"/>
<path d="M81.7797 95.1908C82.1986 95.4271 82.1986 95.8209 81.7797 96.0834C81.3609 96.3197 80.6803 96.3197 80.2614 96.0834C79.8426 95.8472 79.8426 95.4534 80.2614 95.1908C80.6803 94.9546 81.3609 94.9546 81.7797 95.1908Z" fill="#16110D"/>
<path d="M85.7587 92.8806C86.1776 93.1169 86.1776 93.5107 85.7587 93.7732C85.3399 94.0357 84.6592 94.0095 84.2404 93.7732C83.8216 93.5369 83.8216 93.1432 84.2404 92.8806C84.6592 92.6444 85.3399 92.6444 85.7587 92.8806Z" fill="#16110D"/>
<path d="M89.7641 90.5704C90.1829 90.8067 90.1829 91.2005 89.7641 91.463C89.3452 91.6993 88.6646 91.6993 88.2458 91.463C87.8269 91.2267 87.8269 90.8329 88.2458 90.5704C88.6646 90.3079 89.3191 90.3341 89.7641 90.5704Z" fill="#16110D"/>
<path d="M93.7431 88.2602C94.162 88.4965 94.162 88.8903 93.7431 89.1528C93.3243 89.3891 92.6436 89.3891 92.2248 89.1528C91.8059 88.9165 91.8059 88.5227 92.2248 88.2602C92.6436 88.0239 93.3243 88.0239 93.7431 88.2602Z" fill="#16110D"/>
<path d="M97.7221 85.95C98.1409 86.1863 98.1409 86.5801 97.7221 86.8426C97.3032 87.0789 96.6226 87.0789 96.2038 86.8426C95.7849 86.6063 95.7849 86.2125 96.2038 85.95C96.6226 85.7137 97.3032 85.7137 97.7221 85.95Z" fill="#16110D"/>
<path d="M101.701 83.6398C102.12 83.8761 102.12 84.2699 101.701 84.5324C101.282 84.7687 100.602 84.7687 100.183 84.5324C99.7639 84.2961 99.7639 83.9023 100.183 83.6398C100.602 83.4035 101.282 83.4035 101.701 83.6398Z" fill="#16110D"/>
<path d="M105.706 81.3296C106.125 81.5658 106.125 81.9596 105.706 82.2221C105.288 82.4584 104.607 82.4584 104.188 82.2221C103.769 81.9859 103.769 81.5921 104.188 81.3296C104.581 81.0933 105.261 81.0933 105.706 81.3296Z" fill="#16110D"/>
<path d="M108.926 80.0957C109.519 80.0957 110 79.8136 110 79.4656C110 79.1177 109.519 78.8356 108.926 78.8356C108.334 78.8356 107.853 79.1177 107.853 79.4656C107.853 79.8136 108.334 80.0957 108.926 80.0957Z" fill="#16110D"/>
<path d="M64.319 99.8112C64.7379 99.575 65.4185 99.575 65.8374 99.8112C66.2562 100.048 66.2562 100.441 65.8374 100.704C65.4185 100.94 64.7379 100.94 64.319 100.704C63.9002 100.441 63.9002 100.048 64.319 99.8112Z" fill="#16110D"/>
<path d="M69.8163 97.501C70.2352 97.7373 70.2352 98.1311 69.8163 98.3936C69.3975 98.6299 68.7169 98.6299 68.298 98.3936C67.8792 98.1573 67.8792 97.7636 68.298 97.501C68.7169 97.2385 69.3975 97.2385 69.8163 97.501Z" fill="#16110D"/>
<path d="M73.0362 96.2672C73.629 96.2672 74.1095 95.9851 74.1095 95.6371C74.1095 95.2891 73.629 95.007 73.0362 95.007C72.4434 95.007 71.9629 95.2891 71.9629 95.6371C71.9629 95.9851 72.4434 96.2672 73.0362 96.2672Z" fill="#16110D"/>
<path d="M77.8007 92.8806C78.2196 93.1169 78.2196 93.5107 77.8007 93.7732C77.3819 94.0095 76.7012 94.0095 76.2824 93.7732C75.8635 93.5369 75.8635 93.1432 76.2824 92.8806C76.7012 92.6444 77.3819 92.6444 77.8007 92.8806Z" fill="#16110D"/>
<path d="M81.7797 90.5704C82.1986 90.8067 82.1986 91.2005 81.7797 91.463C81.3609 91.6993 80.6803 91.6993 80.2614 91.463C79.8426 91.2267 79.8426 90.8329 80.2614 90.5704C80.6803 90.3342 81.3609 90.3342 81.7797 90.5704Z" fill="#16110D"/>
<path d="M85.7587 88.2602C86.1776 88.4965 86.1776 88.8903 85.7587 89.1528C85.3399 89.3891 84.6592 89.3891 84.2404 89.1528C83.8216 88.9165 83.8216 88.5227 84.2404 88.2602C84.6592 88.0239 85.3399 88.0239 85.7587 88.2602Z" fill="#16110D"/>
<path d="M89.7641 85.95C90.1829 86.1863 90.1829 86.5801 89.7641 86.8426C89.3452 87.0789 88.6646 87.0789 88.2458 86.8426C87.8269 86.6063 87.8269 86.2125 88.2458 85.95C88.6384 85.7137 89.3191 85.7137 89.7641 85.95Z" fill="#16110D"/>
<path d="M93.7431 83.6398C94.162 83.8761 94.162 84.2699 93.7431 84.5324C93.3243 84.7687 92.6436 84.7687 92.2248 84.5324C91.8059 84.2961 91.8059 83.9023 92.2248 83.6398C92.6436 83.4035 93.3243 83.4035 93.7431 83.6398Z" fill="#16110D"/>
<path d="M97.7221 81.3296C98.1409 81.5658 98.1409 81.9596 97.7221 82.2221C97.3032 82.4584 96.6226 82.4584 96.2038 82.2221C95.7849 81.9859 95.7849 81.5921 96.2038 81.3296C96.6226 81.0933 97.3032 81.0933 97.7221 81.3296Z" fill="#16110D"/>
<path d="M101.701 79.0456C102.12 79.2819 102.12 79.6757 101.701 79.9382C101.282 80.1745 100.602 80.1745 100.183 79.9382C99.7639 79.7019 99.7639 79.3081 100.183 79.0456C100.602 78.7831 101.282 78.7831 101.701 79.0456Z" fill="#16110D"/>
<path d="M105.706 76.7354C106.125 76.9717 106.125 77.3655 105.706 77.628C105.288 77.8643 104.607 77.8643 104.188 77.628C103.769 77.3917 103.769 76.9979 104.188 76.7354C104.581 76.4729 105.261 76.4729 105.706 76.7354Z" fill="#16110D"/>
<path d="M60.3136 97.501C60.7325 97.2648 61.4131 97.2648 61.832 97.501C62.2508 97.7373 62.2508 98.1311 61.832 98.3936C61.4131 98.6299 60.7325 98.6299 60.3136 98.3936C59.8948 98.1311 59.8948 97.7373 60.3136 97.501Z" fill="#16110D"/>
<path d="M65.8374 95.1908C66.2562 95.4271 66.2562 95.8209 65.8374 96.0834C65.4185 96.3197 64.7379 96.3197 64.319 96.0834C63.9002 95.8472 63.9002 95.4534 64.319 95.1908C64.7379 94.9546 65.4185 94.9546 65.8374 95.1908Z" fill="#16110D"/>
<path d="M69.8163 92.8806C70.2352 93.1169 70.2352 93.5107 69.8163 93.7732C69.3975 94.0095 68.7169 94.0095 68.298 93.7732C67.8792 93.5369 67.8792 93.1432 68.298 92.8806C68.7169 92.6444 69.3975 92.6444 69.8163 92.8806Z" fill="#16110D"/>
<path d="M73.8217 90.5704C74.2406 90.8067 74.2406 91.2005 73.8217 91.463C73.4029 91.6993 72.7222 91.6993 72.3034 91.463C71.8845 91.2267 71.8845 90.8329 72.3034 90.5704C72.6961 90.3342 73.3767 90.3342 73.8217 90.5704Z" fill="#16110D"/>
<path d="M77.0415 89.3365C77.6343 89.3365 78.1148 89.0544 78.1148 88.7065C78.1148 88.3585 77.6343 88.0764 77.0415 88.0764C76.4488 88.0764 75.9683 88.3585 75.9683 88.7065C75.9683 89.0544 76.4488 89.3365 77.0415 89.3365Z" fill="#16110D"/>
<path d="M81.7797 85.95C82.1986 86.1863 82.1986 86.5801 81.7797 86.8426C81.3609 87.0789 80.6803 87.0789 80.2614 86.8426C79.8426 86.6063 79.8426 86.2125 80.2614 85.95C80.6803 85.7137 81.3609 85.7137 81.7797 85.95Z" fill="#16110D"/>
<path d="M85.7587 83.6398C86.1776 83.8761 86.1776 84.2699 85.7587 84.5324C85.3399 84.7687 84.6592 84.7687 84.2404 84.5324C83.8216 84.2961 83.8216 83.9023 84.2404 83.6398C84.6592 83.4035 85.3399 83.4035 85.7587 83.6398Z" fill="#16110D"/>
<path d="M88.9786 82.4059C89.5713 82.4059 90.0519 82.1238 90.0519 81.7759C90.0519 81.4279 89.5713 81.1458 88.9786 81.1458C88.3858 81.1458 87.9053 81.4279 87.9053 81.7759C87.9053 82.1238 88.3858 82.4059 88.9786 82.4059Z" fill="#16110D"/>
<path d="M93.7431 79.0456C94.162 79.2819 94.162 79.6757 93.7431 79.9382C93.3243 80.1745 92.6436 80.1745 92.2248 79.9382C91.8059 79.7019 91.8059 79.3081 92.2248 79.0456C92.6436 78.7831 93.3243 78.7831 93.7431 79.0456Z" fill="#16110D"/>
<path d="M97.7221 76.7354C98.1409 76.9717 98.1409 77.3655 97.7221 77.628C97.3032 77.8643 96.6226 77.8643 96.2038 77.628C95.7849 77.3917 95.7849 76.9979 96.2038 76.7354C96.6226 76.4729 97.3032 76.4729 97.7221 76.7354Z" fill="#16110D"/>
<path d="M101.701 74.4252C102.12 74.6615 102.12 75.0553 101.701 75.3178C101.282 75.5541 100.602 75.5541 100.183 75.3178C99.7639 75.0815 99.7639 74.6878 100.183 74.4252C100.602 74.1627 101.282 74.1627 101.701 74.4252Z" fill="#16110D"/>
<path d="M56.3346 95.1908C56.7535 94.9546 57.4341 94.9546 57.853 95.1908C58.2718 95.4271 58.2718 95.8209 57.853 96.0834C57.4341 96.3197 56.7535 96.3197 56.3346 96.0834C55.9158 95.8209 55.9158 95.4271 56.3346 95.1908Z" fill="#16110D"/>
<path d="M61.8583 92.8806C62.2772 93.1169 62.2772 93.5107 61.8583 93.7732C61.4395 94.0095 60.7589 94.0095 60.34 93.7732C59.9212 93.5369 59.9212 93.1432 60.34 92.8806C60.7589 92.6444 61.4395 92.6444 61.8583 92.8806Z" fill="#16110D"/>
<path d="M65.8374 90.5704C66.2562 90.8067 66.2562 91.2005 65.8374 91.463C65.4185 91.6993 64.7379 91.6993 64.319 91.463C63.9002 91.2267 63.9002 90.8329 64.319 90.5704C64.7379 90.3342 65.4185 90.3342 65.8374 90.5704Z" fill="#16110D"/>
<path d="M69.0572 89.3365C69.6499 89.3365 70.1305 89.0544 70.1305 88.7065C70.1305 88.3585 69.6499 88.0764 69.0572 88.0764C68.4644 88.0764 67.9839 88.3585 67.9839 88.7065C67.9839 89.0544 68.4644 89.3365 69.0572 89.3365Z" fill="#16110D"/>
<path d="M73.0362 87.0263C73.629 87.0263 74.1095 86.7442 74.1095 86.3963C74.1095 86.0483 73.629 85.7662 73.0362 85.7662C72.4434 85.7662 71.9629 86.0483 71.9629 86.3963C71.9629 86.7442 72.4434 87.0263 73.0362 87.0263Z" fill="#16110D"/>
<path d="M77.8007 83.6398C78.2196 83.8761 78.2196 84.2699 77.8007 84.5324C77.3819 84.7687 76.7012 84.7687 76.2824 84.5324C75.8635 84.2961 75.8635 83.9023 76.2824 83.6398C76.7012 83.4035 77.3819 83.4035 77.8007 83.6398Z" fill="#16110D"/>
<path d="M81.7797 81.3296C82.1986 81.5658 82.1986 81.9596 81.7797 82.2221C81.3609 82.4584 80.6803 82.4584 80.2614 82.2221C79.8426 81.9859 79.8426 81.5921 80.2614 81.3296C80.6803 81.0933 81.3609 81.0933 81.7797 81.3296Z" fill="#16110D"/>
<path d="M85.7587 79.0456C86.1776 79.2819 86.1776 79.6757 85.7587 79.9382C85.3399 80.1745 84.6592 80.1745 84.2404 79.9382C83.8216 79.7019 83.8216 79.3081 84.2404 79.0456C84.6592 78.7831 85.3399 78.7831 85.7587 79.0456Z" fill="#16110D"/>
<path d="M89.7641 76.7354C90.1829 76.9717 90.1829 77.3655 89.7641 77.628C89.3452 77.8643 88.6646 77.8643 88.2458 77.628C87.8269 77.3917 87.8269 76.9979 88.2458 76.7354C88.6384 76.4729 89.3191 76.4729 89.7641 76.7354Z" fill="#16110D"/>
<path d="M93.7431 74.4252C94.162 74.6615 94.162 75.0553 93.7431 75.3178C93.3243 75.5541 92.6436 75.5541 92.2248 75.3178C91.8059 75.0815 91.8059 74.6878 92.2248 74.4252C92.6436 74.1627 93.3243 74.1627 93.7431 74.4252Z" fill="#16110D"/>
<path d="M97.7221 72.115C98.1409 72.3513 98.1409 72.7451 97.7221 73.0076C97.3032 73.2439 96.6226 73.2439 96.2038 73.0076C95.7849 72.7713 95.7849 72.3775 96.2038 72.115C96.6226 71.8787 97.3032 71.8787 97.7221 72.115Z" fill="#16110D"/>
<path d="M52.3294 92.8544C52.7482 92.6181 53.4289 92.6181 53.8477 92.8544C54.2666 93.0906 54.2666 93.4844 53.8477 93.747C53.4289 93.9832 52.7482 93.9832 52.3294 93.747C51.9106 93.4844 51.8844 93.0906 52.3294 92.8544Z" fill="#16110D"/>
<path d="M57.8271 90.5441C58.2459 90.7804 58.2459 91.1742 57.8271 91.4367C57.4082 91.673 56.7276 91.673 56.3088 91.4367C55.8899 91.2005 55.8899 90.8067 56.3088 90.5441C56.7276 90.3079 57.4082 90.3079 57.8271 90.5441Z" fill="#16110D"/>
<path d="M61.8061 88.234C62.225 88.4702 62.225 88.864 61.8061 89.1266C61.3873 89.3628 60.7066 89.3628 60.2878 89.1266C59.8689 88.8903 59.8689 88.4965 60.2878 88.234C60.7066 87.9977 61.3873 87.9977 61.8061 88.234Z" fill="#16110D"/>
<path d="M65.811 85.9238C66.2298 86.16 66.2298 86.5538 65.811 86.8163C65.3921 87.0526 64.7115 87.0526 64.2927 86.8163C63.8738 86.5801 63.8738 86.1863 64.2927 85.9238C64.7115 85.6875 65.3921 85.6875 65.811 85.9238Z" fill="#16110D"/>
<path d="M69.7905 83.6135C70.2093 83.8498 70.2093 84.2436 69.7905 84.5061C69.3716 84.7424 68.691 84.7424 68.2721 84.5061C67.8533 84.2698 67.8533 83.8761 68.2721 83.6135C68.691 83.3773 69.3716 83.3773 69.7905 83.6135Z" fill="#16110D"/>
<path d="M73.7694 81.3296C74.1883 81.5659 74.1883 81.9596 73.7694 82.2222C73.3506 82.4584 72.67 82.4584 72.2511 82.2222C71.8323 81.9859 71.8323 81.5921 72.2511 81.3296C72.67 81.0671 73.3506 81.0671 73.7694 81.3296Z" fill="#16110D"/>
<path d="M77.7485 79.0194C78.1673 79.2556 78.1673 79.6494 77.7485 79.9119C77.3296 80.1482 76.649 80.1482 76.2302 79.9119C75.8113 79.6757 75.8113 79.2819 76.2302 79.0194C76.649 78.7568 77.3296 78.7568 77.7485 79.0194Z" fill="#16110D"/>
<path d="M81.7538 76.7092C82.1727 76.9454 82.1727 77.3392 81.7538 77.6018C81.335 77.838 80.6544 77.838 80.2355 77.6018C79.8167 77.3655 79.8167 76.9717 80.2355 76.7092C80.6544 76.4466 81.335 76.4466 81.7538 76.7092Z" fill="#16110D"/>
<path d="M85.7329 74.3989C86.1517 74.6352 86.1517 75.029 85.7329 75.2915C85.314 75.5278 84.6334 75.5278 84.2145 75.2915C83.7957 75.0553 83.7957 74.6615 84.2145 74.3989C84.6334 74.1627 85.314 74.1627 85.7329 74.3989Z" fill="#16110D"/>
<path d="M89.7119 72.0887C90.1307 72.325 90.1307 72.7188 89.7119 72.9813C89.293 73.2176 88.6124 73.2176 88.1935 72.9813C87.7747 72.7451 87.7747 72.3513 88.1935 72.0887C88.6124 71.8525 89.293 71.8525 89.7119 72.0887Z" fill="#16110D"/>
<path d="M93.6909 70.6711C93.272 70.9074 92.5914 70.9074 92.1725 70.6711C91.7537 70.4348 91.7537 70.0411 92.1725 69.7785C92.5914 69.5423 94.1359 70.4086 93.6909 70.6711Z" fill="#16110D"/>
<path d="M49.8687 90.5441C50.2875 90.7804 50.2875 91.1742 49.8687 91.4367C49.4498 91.673 48.7692 91.673 48.3503 91.4367C47.9053 91.2005 49.4236 90.3079 49.8687 90.5441Z" fill="#16110D"/>
<path d="M53.848 88.2339C54.2669 88.4702 54.2669 88.864 53.848 89.1265C53.4292 89.3628 52.7485 89.3628 52.3297 89.1265C51.9108 88.8902 53.4292 87.9977 53.848 88.2339Z" fill="#16110D"/>
<path d="M57.8271 85.9238C58.2459 86.16 58.2459 86.5538 57.8271 86.8163C57.4082 87.0526 56.7276 87.0526 56.3088 86.8163C55.8899 86.5801 55.8899 86.1863 56.3088 85.9238C56.7276 85.6875 57.4082 85.6875 57.8271 85.9238Z" fill="#16110D"/>
<path d="M61.8061 83.6135C62.225 83.8498 62.225 84.2436 61.8061 84.5061C61.3873 84.7424 60.7066 84.7424 60.2878 84.5061C59.8689 84.2698 59.8689 83.8761 60.2878 83.6135C60.7066 83.3773 61.3873 83.3773 61.8061 83.6135Z" fill="#16110D"/>
<path d="M65.811 81.3296C66.2298 81.5659 66.2298 81.9596 65.811 82.2222C65.3921 82.4584 64.7115 82.4584 64.2927 82.2222C63.8738 81.9859 63.8738 81.5921 64.2927 81.3296C64.7115 81.0671 65.3921 81.0671 65.811 81.3296Z" fill="#16110D"/>
<path d="M69.7905 79.0194C70.2093 79.2556 70.2093 79.6494 69.7905 79.9119C69.3716 80.1482 68.691 80.1482 68.2721 79.9119C67.8533 79.6757 67.8533 79.2819 68.2721 79.0194C68.691 78.7568 69.3716 78.7568 69.7905 79.0194Z" fill="#16110D"/>
<path d="M73.7694 76.7092C74.1883 76.9454 74.1883 77.3392 73.7694 77.6018C73.3506 77.838 72.67 77.838 72.2511 77.6018C71.8323 77.3655 71.8323 76.9717 72.2511 76.7092C72.67 76.4466 73.3506 76.4466 73.7694 76.7092Z" fill="#16110D"/>
<path d="M76.2302 74.3989C76.649 74.1627 77.3296 74.1627 77.7485 74.3989C78.1673 74.6352 78.1673 75.029 77.7485 75.2915C77.3296 75.5278 76.649 75.5278 76.2302 75.2915C75.8113 75.029 75.8113 74.6352 76.2302 74.3989C76.649 74.1627 75.8113 74.6352 76.2302 74.3989Z" fill="#16110D"/>
<path d="M81.7538 72.0888C82.1726 72.325 82.1726 72.7188 81.7538 72.9813C81.3349 73.2176 80.6543 73.2176 80.2355 72.9813C79.7905 72.7188 81.3349 71.8525 81.7538 72.0888Z" fill="#16110D"/>
<path d="M58.6382 89.179L66.0989 84.2436L63.5858 83.4035L58.6382 80.5683V89.179Z" fill="#4B8EC8"/>
<path d="M58.2979 89.8354V79.9645L63.7691 83.1148L66.9366 84.1386L58.2979 89.8354ZM59.0046 81.1721V88.5227L65.3136 84.3486L63.4811 83.7448L59.0046 81.1721Z" fill="#16110D"/>
<path d="M72.0417 76.3941L63.5601 83.4035L67.7485 85.8975L68.5339 85.4512C69.9998 84.6111 71.3349 84.8211 71.9632 86.0025L73.2721 88.3127C73.6909 89.1265 73.6386 87.8139 74.6595 87.2364L77.3559 87.6827L79.869 87.6564L80.8899 85.6612L83.4292 84.1911L97.9318 75.7903C99.0574 75.134 100.078 73.7689 100.497 72.325C100.838 71.1699 102.775 69.831 103.665 69.306L104.162 69.0172C105.366 68.3347 106.335 66.6283 106.335 65.2631V60.9315L72.0417 76.3941Z" fill="#4B8EC8"/>
<path d="M73.5339 88.969C73.5077 88.969 73.5077 88.969 73.5339 88.969C73.2198 88.969 73.0627 88.654 72.9842 88.5227L71.6753 86.2125C71.4397 85.7662 71.1255 85.5037 70.7329 85.3724C70.1831 85.2149 69.4763 85.3462 68.7433 85.7662L67.7747 86.3175L62.958 83.456L71.8847 76.0791L106.675 60.4064V65.2631C106.675 66.7858 105.654 68.5709 104.345 69.3322L103.848 69.621C102.775 70.2248 101.099 71.4849 100.838 72.43C100.393 73.9789 99.3192 75.4228 98.115 76.1053L81.1517 85.9237L80.1046 88.0239L77.3821 88.0764L74.7381 87.6564C74.424 87.8927 74.2407 88.2077 74.0837 88.4702C73.9528 88.7065 73.8219 88.969 73.5339 88.969ZM70.2355 84.5849C70.4711 84.5849 70.7067 84.6111 70.9161 84.6899C71.5182 84.8736 71.9894 85.2674 72.2774 85.8712L73.5077 88.0502C73.691 87.7351 73.9528 87.2889 74.4763 86.9738L74.581 86.9213L77.4083 87.3939L79.6334 87.3676L80.602 85.4774L83.246 83.9548L97.7485 75.5541C98.7957 74.9502 99.7381 73.6376 100.157 72.2988C100.602 70.8024 103.194 69.2535 103.508 69.0697L104.005 68.7809C105.078 68.1509 105.995 66.5757 105.995 65.3156V61.5353L72.2512 76.7354L64.2145 83.4035L67.8009 85.5299L68.403 85.1887C69.0313 84.7949 69.6596 84.5849 70.2355 84.5849Z" fill="#16110D"/>
<path d="M70.628 80.3058C69.5547 79.6232 68.0102 79.6757 66.3086 80.647C63.0364 82.5372 60.3662 87.1576 60.3662 90.9642C60.3662 92.6969 60.9159 93.9307 61.806 94.6133L61.8583 94.6396C62.0154 94.7446 62.1725 94.8496 62.3296 94.9283L66.7013 97.4748L70.2353 93.4319L74.895 85.7925V82.7997L70.628 80.3058Z" fill="#4B8EC8"/>
<path d="M65.5755 90.3079L61.9105 88.1815C61.8058 88.4177 61.7273 88.654 61.6226 88.864L64.9995 90.8067L70.4446 95.2433L70.1042 95.7946L69.5545 96.4247L69.5807 96.451L69.3713 96.7922L70.6802 95.2696L71.0205 94.7183L65.5755 90.3079Z" fill="white"/>
<path d="M72.2512 92.7231L75.3402 87.6827V84.6899L71.0208 82.1959C69.9475 81.5134 68.403 81.5659 66.7276 82.5372C65.0784 83.5085 63.5601 85.1624 62.4868 87.0526L72.2512 92.7231Z" fill="white"/>
<path d="M66.5704 97.7898L62.1725 95.2434C62.0154 95.1646 61.8322 95.0596 61.6489 94.9546L61.5966 94.9021L61.4918 94.7971C60.5494 94.0095 60.0259 92.6444 60.0259 90.9642C60.0259 87.0526 62.7746 82.3009 66.1254 80.3583C67.8531 79.3607 69.45 79.2294 70.7065 79.9645L70.785 80.017L75.2615 82.616V85.9238L70.5494 93.642L66.5704 97.7898ZM62.0678 94.3508C62.2248 94.4558 62.3557 94.5345 62.5128 94.6133L66.6751 97.0285L70.0259 93.1957L74.5808 85.6875V82.9835L70.6803 80.7258L70.4447 80.5683C69.4238 79.912 68.0364 80.0432 66.518 80.9096C63.3505 82.7472 60.7589 87.2364 60.7589 90.9117C60.7589 92.4344 61.2301 93.642 62.0678 94.272V94.3508Z" fill="#16110D"/>
<path d="M76.649 86.6326C76.649 90.4392 73.9788 95.0333 70.7066 96.9497C67.4343 98.8399 64.7642 97.3173 64.7642 93.5107C64.7642 89.7041 67.4343 85.1099 70.7066 83.1935C74.005 81.3033 76.649 82.826 76.649 86.6326Z" fill="#16110D"/>
<path d="M68.0626 98.1048C67.4343 98.1048 66.8584 97.9473 66.3348 97.6586C65.1044 96.9497 64.4238 95.4534 64.4238 93.4844C64.4238 89.5728 67.1725 84.8211 70.5233 82.8785C72.2249 81.9071 73.8479 81.7496 75.0783 82.4584C76.3086 83.1672 76.9893 84.6636 76.9893 86.6063C76.9893 90.5179 74.2406 95.2696 70.8636 97.2123C69.895 97.8161 68.9526 98.1048 68.0626 98.1048ZM73.3767 82.7472C72.6175 82.7472 71.7798 83.0097 70.916 83.5085C67.7484 85.3462 65.1568 89.8353 65.1568 93.5107C65.1568 95.2171 65.7065 96.4772 66.7275 97.0547C67.7222 97.6323 69.1097 97.501 70.5757 96.6347C73.7432 94.797 76.3348 90.3079 76.3348 86.6326C76.3348 84.9262 75.7851 83.666 74.7641 83.0885C74.3453 82.8522 73.8741 82.7472 73.3767 82.7472Z" fill="#16110D"/>
<path d="M68.9527 95.5059C68.5339 95.5059 68.115 95.4009 67.7747 95.1909C66.937 94.6921 66.4658 93.6945 66.4658 92.3556C66.4658 89.7304 68.3245 86.5276 70.5758 85.1887C71.7276 84.5324 72.8271 84.4274 73.691 84.8999C74.5287 85.3987 74.9999 86.3963 74.9999 87.7352C74.9999 90.3604 73.1412 93.5632 70.8899 94.9021C70.1831 95.3221 69.5286 95.5059 68.9527 95.5059ZM72.4868 85.2149C71.9894 85.2149 71.4397 85.3725 70.8637 85.7137C68.7433 86.9476 67.0418 89.9141 67.0418 92.3556C67.0418 93.4845 67.4083 94.2983 68.0627 94.6921C68.7172 95.0596 69.6072 94.9808 70.5758 94.4033C72.6962 93.1694 74.3978 90.2029 74.3978 87.7614C74.3978 86.6326 74.0313 85.8187 73.3768 85.425C73.115 85.2937 72.8271 85.2149 72.4868 85.2149Z" fill="#4B8EC8"/>
<path d="M68.9525 95.5059C68.1933 95.5059 67.5389 95.1908 67.0677 94.5608L67.0415 94.062L67.3295 94.0882C67.853 94.1145 68.4813 93.957 69.1096 93.5895C71.23 92.3818 72.9316 89.3891 72.9316 86.9476C72.9316 86.1863 72.7483 85.5562 72.4342 85.1099L72.6959 84.6374C74.1096 84.7424 74.9996 85.9238 74.9996 87.7614C74.9996 90.3867 73.141 93.6157 70.8897 94.9283C70.209 95.3221 69.5284 95.5059 68.9525 95.5059Z" fill="#4B8EC8"/>
<path d="M68.9004 93.8257L66.4658 92.3818V92.1981C66.5182 89.7828 68.0365 87.0001 70.0522 85.53L70.2093 85.425L72.5653 86.8163C72.67 86.8688 72.7486 86.9739 72.7747 87.1051C72.8009 87.2364 72.7747 87.3414 72.7224 87.4464L68.9004 93.8257ZM67.0418 92.0668L68.6909 93.0381L72.1465 87.2889L70.2355 86.16C68.5077 87.4726 67.1726 89.9666 67.0418 92.0668Z" fill="#4B8EC8"/>
<path d="M73.194 88.759C73.194 90.4129 72.0422 92.4081 70.6024 93.2481C69.1888 94.062 68.0107 93.4057 68.0107 91.7518C68.0107 90.0979 69.1626 88.1027 70.6024 87.2626C72.0422 86.4488 73.194 87.1313 73.194 88.759Z" fill="#16110D"/>
<path d="M69.4765 93.9045C69.1885 93.9045 68.9006 93.8257 68.665 93.6945C68.089 93.3532 67.7749 92.6706 67.7749 91.7518C67.7749 90.0191 69.0053 87.8927 70.4974 87.0263C71.2828 86.5801 72.0419 86.5013 72.6178 86.8426C73.1937 87.1839 73.5079 87.8664 73.5079 88.7852C73.5079 90.5179 72.2775 92.6444 70.7854 93.5107C70.3142 93.7732 69.8691 93.9045 69.4765 93.9045ZM71.7801 87.2101C71.466 87.2101 71.1257 87.3151 70.7854 87.5251C69.4503 88.3127 68.3508 90.2029 68.3508 91.7518C68.3508 92.4343 68.5602 92.9331 68.9529 93.1694C69.3456 93.4057 69.8953 93.3269 70.4712 92.9856C71.8063 92.1981 72.9058 90.3079 72.9058 88.759C72.9058 88.0764 72.6964 87.5776 72.3037 87.3414C72.1466 87.2626 71.9634 87.2101 71.7801 87.2101Z" fill="#4B8EC8"/>
<path d="M48.7696 67.7571C47.6963 67.0745 46.1518 67.127 44.4502 68.0984C41.178 69.9886 38.5078 74.609 38.5078 78.4156C38.5078 80.1482 39.0576 81.3821 39.9476 82.0646L39.9999 82.0909C40.157 82.1959 40.3141 82.3009 40.4712 82.3797L44.8429 84.9262L48.3769 80.8833L53.0366 73.2439V70.2511L48.7696 67.7571Z" fill="#FFBE2E"/>
<path d="M43.7171 77.7592L40.0521 75.6328C39.9474 75.8691 39.8689 76.1053 39.7642 76.3154L43.1411 78.2581L48.5862 82.6947L48.2458 83.246L47.6961 83.8761L47.7223 83.9023L47.5129 84.2436L48.8218 82.721L49.1621 82.1697L43.7171 77.7592Z" fill="#FBEACC"/>
<path d="M50.3928 80.1745L53.4818 75.134V72.1413L49.1624 69.6473C48.0891 68.9647 46.5446 69.0172 44.8692 69.9886C43.22 70.9599 41.7017 72.6138 40.6284 74.504L50.3928 80.1745Z" fill="#FBEACC"/>
<path d="M44.6596 85.2149L40.3141 82.6947C40.157 82.616 39.9738 82.5109 39.7905 82.4059L39.7382 82.3534L39.6334 82.2484C38.691 81.4609 38.1675 80.0957 38.1675 78.4156C38.1675 74.504 40.9162 69.7523 44.267 67.8096C45.9947 66.812 47.5916 66.6808 48.8481 67.4158L48.9266 67.4683L53.4031 70.0673V73.3751L48.6911 81.0933L44.6596 85.2149ZM40.2094 81.8021C40.3664 81.9071 40.4973 81.9859 40.6544 82.0647L44.8167 84.4799L48.1675 80.647L52.7224 73.1388V70.4349L48.8219 68.1771L48.5863 68.0196C47.5654 67.3633 46.178 67.4946 44.6596 68.3609C41.4921 70.1986 38.9005 74.6877 38.9005 78.3631C38.9005 79.8857 39.3717 81.0933 40.2094 81.7234V81.8021Z" fill="#16110D"/>
<path d="M54.7906 74.0839C54.7906 77.8905 52.1204 82.4847 48.8482 84.4011C45.5759 86.2913 42.9058 84.7686 42.9058 80.9621C42.9058 77.1555 45.5759 72.5613 48.8482 70.6449C52.1466 68.7547 54.7906 70.2773 54.7906 74.0839Z" fill="#16110D"/>
<path d="M46.2042 85.5562C45.5759 85.5562 45 85.3987 44.4764 85.1099C43.246 84.4011 42.5654 82.9047 42.5654 80.9358C42.5654 77.0242 45.3141 72.2725 48.6649 70.3298C50.3665 69.3585 51.9895 69.201 53.2199 69.9098C54.4502 70.6186 55.1309 72.115 55.1309 74.0577C55.1309 77.9693 52.3822 82.721 49.0052 84.6636C48.0366 85.2674 47.0942 85.5562 46.2042 85.5562ZM51.5183 70.1723C50.7591 70.1723 49.9214 70.4348 49.0576 70.9336C45.89 72.7713 43.2984 77.2605 43.2984 80.9358C43.2984 82.6422 43.8481 83.9023 44.8691 84.4799C45.8638 85.0574 47.2513 84.9261 48.7173 84.0598C51.8848 82.2222 54.4764 77.733 54.4764 74.0577C54.4764 72.3513 53.9267 71.0912 52.9057 70.5136C52.4869 70.3036 52.0157 70.1723 51.5183 70.1723Z" fill="#16110D"/>
<path d="M47.0943 82.9572C46.6755 82.9572 46.2566 82.8522 45.9163 82.6422C45.0786 82.1434 44.6074 81.1458 44.6074 79.807C44.6074 77.1817 46.4661 73.9789 48.7174 72.64C49.8692 71.9837 50.9687 71.8787 51.8326 72.3513C52.6703 72.8501 53.1415 73.8477 53.1415 75.1865C53.1415 77.8118 51.2828 81.0146 49.0315 82.3534C48.3247 82.7735 47.6702 82.9572 47.0943 82.9572ZM50.6284 72.6663C50.131 72.6663 49.5813 72.8238 49.0053 73.1651C46.8849 74.399 45.1834 77.3655 45.1834 79.807C45.1834 80.9358 45.5499 81.7496 46.2043 82.1434C46.8588 82.5109 47.7488 82.4322 48.7174 81.8546C50.8378 80.6208 52.5394 77.6543 52.5394 75.2128C52.5394 74.0839 52.1729 73.2701 51.5184 72.8763C51.2566 72.7451 50.9687 72.6663 50.6284 72.6663Z" fill="#FFBE2E"/>
<path d="M47.0941 82.9572C46.3349 82.9572 45.6805 82.6422 45.2093 82.0121L45.1831 81.5134L45.4711 81.5396C45.9946 81.5659 46.6229 81.4083 47.2512 81.0408C49.3716 79.8332 51.0732 76.8404 51.0732 74.399C51.0732 73.6376 50.8899 73.0076 50.5758 72.5613L50.8375 72.0887C52.2512 72.1938 53.1412 73.3751 53.1412 75.2128C53.1412 77.838 51.2826 81.0671 49.0313 82.3797C48.3506 82.7735 47.67 82.9572 47.0941 82.9572ZM46.1255 82.0909C46.78 82.5372 47.6962 82.4584 48.7171 81.8546C50.8376 80.647 52.5391 77.6543 52.5391 75.2128C52.5391 74.0052 52.1203 73.1388 51.3611 72.8238C51.5444 73.2701 51.6491 73.8214 51.6491 74.399C51.6491 77.0242 49.7904 80.2532 47.5391 81.5658C47.0679 81.8284 46.5705 82.0121 46.1255 82.0909Z" fill="#FFBE2E"/>
<path d="M47.042 81.2771L44.6074 79.8332V79.6494C44.6598 77.2342 46.1781 74.4515 48.1938 72.9813L48.3509 72.8763L50.7069 74.2677C50.8116 74.3202 50.8902 74.4252 50.9163 74.5565C50.9425 74.6877 50.9163 74.7927 50.864 74.8977L47.042 81.2771ZM45.1834 79.5182L46.8325 80.4895L50.2881 74.7402L48.3771 73.6114C46.6493 74.924 45.3142 77.418 45.1834 79.5182Z" fill="#FFBE2E"/>
<path d="M51.3356 76.2104C51.3356 77.8643 50.1838 79.8595 48.744 80.6995C47.3304 81.5134 46.1523 80.857 46.1523 79.2031C46.1523 77.5492 47.3042 75.5541 48.744 74.714C50.1838 73.9002 51.3356 74.5565 51.3356 76.2104Z" fill="#16110D"/>
<path d="M47.6181 81.3559C47.3301 81.3559 47.0422 81.2771 46.8066 81.1458C46.2306 80.8046 45.9165 80.122 45.9165 79.2032C45.9165 77.4705 47.1469 75.3441 48.639 74.4777C49.4244 74.0314 50.1835 73.9527 50.7594 74.294C51.3353 74.6353 51.6495 75.3178 51.6495 76.2366C51.6495 77.9693 50.4191 80.0957 48.927 80.9621C48.4558 81.2246 48.0107 81.3559 47.6181 81.3559ZM49.9217 74.6615C49.6076 74.6615 49.2673 74.7665 48.927 74.9765C47.5919 75.7641 46.4924 77.6543 46.4924 79.2032C46.4924 79.8857 46.7018 80.3845 47.0945 80.6208C47.4872 80.8571 48.0369 80.7783 48.6128 80.437C49.9479 79.6494 51.0474 77.7593 51.0474 76.2104C51.0474 75.5278 50.838 75.029 50.4453 74.7928C50.2882 74.714 50.105 74.6615 49.9217 74.6615Z" fill="#FFBE2E"/>
<path d="M101.885 14.4648L77.6701 0.551045C77.6177 0.524793 77.4869 0.446038 77.4869 0.446038L77.4083 0.419784C76.9895 0.262269 76.4921 0.314773 75.9162 0.603549L62.0419 8.00672C60.445 8.84679 58.9528 10.5794 58.0104 12.6009L52.9057 23.6269C47.3036 35.703 43.2984 48.0941 41.0732 60.0389L39.3193 69.4373L63.6125 83.4035L80.0261 51.0081L80.3402 50.8243C81.2827 50.273 82.068 48.9342 82.068 47.8316V46.9652L90.1047 31.1351L101.885 14.4648Z" fill="#4B8EC8"/>
<path d="M101.806 16.3287L77.5913 2.41497C77.539 2.38872 77.4081 2.30996 77.4081 2.30996L77.3295 2.28371C76.9107 2.12619 76.4133 2.17869 75.8374 2.46747L62.7746 9.50311C61.1777 10.3432 59.6856 12.0758 58.7431 14.0973L53.6384 25.1233C48.0363 37.1994 44.0311 49.5905 41.806 61.5353L39.2144 71.3012L61.7798 82.3797L63.5599 83.4035L79.9212 52.872L80.2353 52.6883C81.1777 52.137 81.9631 50.7981 81.9631 49.6955V48.8292L89.9997 32.999L101.806 16.3287Z" fill="white"/>
<path d="M63.6124 83.7973L38.9004 69.621L40.7067 59.9864C42.958 47.9628 46.937 35.6767 52.5653 23.4956L57.67 12.4696C58.6386 10.3694 60.2093 8.58427 61.8585 7.71794L75.7328 0.314779C76.5444 -0.105259 77.1465 -0.0265026 77.513 0.104759L77.6177 0.157263C77.6177 0.157263 77.7747 0.262273 77.8532 0.288525L102.382 14.3598L90.3402 31.3451L82.3821 47.0702V47.8578C82.3821 49.0917 81.5443 50.5355 80.4711 51.1656L80.2355 51.2969L63.6124 83.7973ZM39.6857 69.2535L63.4292 82.9047L79.7381 50.7456L80.1569 50.5093C80.9946 50.0368 81.7014 48.8029 81.7014 47.8316L81.7276 46.8077L89.7642 30.9775L101.361 14.5961L77.4868 0.89233C77.4082 0.839825 77.3035 0.787318 77.3035 0.787318C76.937 0.656056 76.5182 0.708563 76.0732 0.944834L62.1988 8.348C60.6805 9.16183 59.2145 10.8157 58.3245 12.7847L53.2197 23.8106C47.6177 35.9392 43.6386 48.1466 41.4135 60.1177L39.6857 69.2535Z" fill="#16110D"/>
<path d="M102.722 67.7046C101.858 67.1533 100.654 67.2058 99.3191 67.9671C96.7275 69.4635 94.6333 73.1126 94.6333 76.1316C94.6333 77.4967 95.0783 78.4681 95.7851 79.0194L95.8375 79.0456C95.9684 79.1244 96.0731 79.2031 96.2302 79.2556L99.6856 81.2771L102.487 78.0743L106.178 72.0362V69.6735L102.722 67.7046Z" fill="#4B8EC8"/>
<path d="M95.9421 73.3489L103.22 77.6018L105.706 73.5064V71.1437L102.303 69.1748C101.439 68.6235 100.235 68.676 98.9002 69.4373C97.5651 70.2249 96.3348 71.59 95.4971 73.1389C95.628 73.1914 95.785 73.2701 95.9421 73.3489Z" fill="white"/>
<path d="M99.7378 81.7234L96.0205 79.5707C95.8896 79.5182 95.7587 79.4394 95.6017 79.3344L95.5493 79.3082L95.4184 79.2032C94.6855 78.5468 94.2666 77.4705 94.2666 76.1579C94.2666 73.0601 96.4394 69.2535 99.1357 67.7046C100.418 66.9695 101.675 66.812 102.644 67.3108L102.722 67.3633C102.722 67.3633 102.748 67.3633 102.748 67.3896L102.853 67.4683L106.439 69.5423V72.22L102.696 78.3368L99.7378 81.7234ZM96.0467 78.7569C96.1776 78.8356 96.2561 78.8881 96.3347 78.9144L99.5807 80.8046L102.172 77.8118L105.759 71.905V69.8311L102.774 68.0984H102.748L102.513 67.9409C101.727 67.4421 100.654 67.5471 99.476 68.2297C96.9891 69.6735 94.9472 73.1914 94.9472 76.0791C94.9472 77.2605 95.3137 78.2056 95.9682 78.6781L96.0467 78.7569Z" fill="#16110D"/>
<path d="M107.486 72.6925C107.486 75.6853 105.392 79.3344 102.801 80.857C100.209 82.3534 98.1147 81.1458 98.1147 78.1268C98.1147 75.134 100.209 71.4849 102.801 69.9623C105.392 68.4922 107.486 69.6998 107.486 72.6925Z" fill="#16110D"/>
<path d="M100.706 81.8547C100.209 81.8547 99.7377 81.7234 99.3189 81.4871C98.3241 80.9096 97.7744 79.7282 97.7744 78.1268C97.7744 75.029 99.9472 71.2224 102.644 69.6735C104.005 68.886 105.314 68.7547 106.308 69.3323C107.303 69.9098 107.853 71.0912 107.853 72.6926C107.853 75.7903 105.68 79.5969 102.984 81.1458C102.172 81.6184 101.413 81.8547 100.706 81.8547ZM104.895 69.6998C104.319 69.6998 103.664 69.9098 102.984 70.3036C100.497 71.7475 98.455 75.2653 98.455 78.1531C98.455 79.4657 98.8739 80.437 99.6592 80.8833C100.418 81.3296 101.492 81.2246 102.617 80.542C105.104 79.0982 107.146 75.5803 107.146 72.6926C107.146 71.3799 106.727 70.4086 105.942 69.9623C105.628 69.7786 105.287 69.6998 104.895 69.6998Z" fill="#16110D"/>
<path d="M101.387 79.7807C101.047 79.7807 100.706 79.7019 100.419 79.5182C99.7379 79.1244 99.3452 78.3106 99.3452 77.2342C99.3452 75.134 100.811 72.5613 102.644 71.5112C103.586 70.9599 104.476 70.8811 105.157 71.3012C105.837 71.695 106.23 72.5088 106.23 73.5851C106.23 75.6853 104.764 78.2581 102.932 79.3082C102.408 79.6232 101.884 79.7807 101.387 79.7807ZM104.188 71.6425C103.822 71.6425 103.377 71.7737 102.932 72.0362C101.282 72.9813 99.9473 75.3178 99.9473 77.2342C99.9473 78.1005 100.209 78.7306 100.733 79.0194C101.23 79.3082 101.911 79.2294 102.67 78.8094C104.319 77.8643 105.654 75.5278 105.654 73.6114C105.654 72.7451 105.366 72.115 104.869 71.8262C104.659 71.695 104.45 71.6425 104.188 71.6425Z" fill="#4B8EC8"/>
<path d="M101.387 79.7807C100.759 79.7807 100.235 79.5182 99.8423 79.0194L99.7114 78.5206L100.104 78.5468C100.523 78.5731 100.994 78.4418 101.465 78.153C103.115 77.208 104.45 74.8715 104.45 72.9551C104.45 72.3775 104.319 71.8787 104.057 71.5374L103.795 71.1962L104.319 71.0912C105.471 71.1699 106.204 72.1413 106.204 73.6376C106.204 75.7378 104.738 78.3106 102.905 79.3607C102.408 79.6232 101.884 79.7807 101.387 79.7807Z" fill="#4B8EC8"/>
<path d="M101.361 78.4681L99.3452 77.2867V77.103C99.3976 75.1865 100.602 72.9551 102.225 71.7737L102.382 71.6687L104.267 72.7976C104.371 72.8501 104.424 72.9551 104.45 73.0601C104.476 73.1651 104.45 73.2964 104.398 73.3751L101.361 78.4681ZM99.9473 76.9455L101.151 77.6543L103.822 73.2176L102.408 72.3775C101.099 73.4276 100.052 75.3441 99.9473 76.9455Z" fill="#4B8EC8"/>
<path d="M104.764 74.399C104.764 75.7116 103.848 77.2867 102.722 77.943C101.596 78.5994 100.68 78.0743 100.68 76.7617C100.68 75.4491 101.596 73.8739 102.722 73.2176C103.848 72.5613 104.764 73.0863 104.764 74.399Z" fill="#16110D"/>
<path d="M101.806 78.5206C101.57 78.5206 101.334 78.4681 101.125 78.3368C100.654 78.048 100.392 77.4967 100.392 76.7617C100.392 75.344 101.361 73.6639 102.591 72.9551C103.219 72.5875 103.848 72.535 104.319 72.8238C104.79 73.1126 105.052 73.6639 105.052 74.399C105.052 75.8166 104.083 77.4967 102.853 78.2055C102.486 78.3893 102.146 78.5206 101.806 78.5206ZM103.638 73.2176C103.403 73.2176 103.141 73.2964 102.879 73.4539C101.832 74.0577 100.994 75.5278 100.994 76.7354C100.994 77.2605 101.151 77.628 101.439 77.8118C101.727 77.9693 102.146 77.9168 102.591 77.6805C103.638 77.0767 104.476 75.6066 104.476 74.399C104.476 73.8739 104.319 73.5064 104.031 73.3226C103.9 73.2439 103.769 73.2176 103.638 73.2176Z" fill="#4B8EC8"/>
<path d="M63.5864 83.4035L65.3404 74.0052C67.5655 62.0604 71.5969 49.6955 77.1728 37.5932L82.2775 26.5672C83.2199 24.5457 84.7383 22.8131 86.3089 21.973L100.183 14.5698C101.518 13.861 102.565 14.5173 102.565 16.0662V39.1158C102.565 39.8509 102.853 40.3759 103.351 40.5334L105.445 41.2422C105.995 41.426 106.309 42.0036 106.309 42.7911V61.7716C106.309 62.8742 105.55 64.2131 104.581 64.7644L100.707 66.9958C99.5288 67.6784 98.4555 69.1748 98.0891 70.6974L96.5184 76.893C96.2566 77.9693 95.4974 79.0457 94.6336 79.5445L80.9948 87.4464C80.1047 87.9715 79.3194 87.7352 79.0838 86.8689L78.0629 83.246C77.6964 81.9334 77.0681 80.9096 76.2566 80.2008C74.3718 78.5731 71.4398 78.7831 68.4294 80.542L63.5864 83.4035Z" fill="#16110D"/>
<path d="M80.157 88.0765C79.9738 88.0765 79.7905 88.0502 79.6334 87.9715C79.2408 87.8139 78.9267 87.4464 78.7958 86.9739L77.7748 83.351C77.4345 82.1434 76.8586 81.1721 76.0732 80.4895C74.3717 79.0194 71.5968 79.1507 68.6387 80.8833L63.6125 83.8236L63.1675 83.6136L64.9738 73.9789C67.2251 61.9554 71.2041 49.6692 76.8324 37.4881L81.9371 26.4621C82.9057 24.362 84.4764 22.5768 86.1256 21.7105L99.9999 14.3073C100.759 13.9135 101.466 13.861 102.042 14.2023C102.618 14.5436 102.932 15.2261 102.932 16.1187V39.1683C102.932 39.7458 103.141 40.1396 103.482 40.2446L105.576 40.9534C106.256 41.1897 106.675 41.8985 106.675 42.8436V61.8241C106.675 63.0579 105.838 64.5018 104.764 65.1319L100.89 67.3896C99.7905 68.0196 98.7958 69.4373 98.4293 70.8549L96.8586 77.0505C96.5706 78.2318 95.7329 79.3869 94.8167 79.912L81.178 87.8139C80.8638 87.9715 80.4973 88.0765 80.157 88.0765ZM73.1413 78.7569C74.4502 78.7569 75.6282 79.1507 76.5183 79.9382C77.4083 80.7258 78.0628 81.8021 78.4293 83.141L79.4502 86.7638C79.5026 86.9476 79.6073 87.2101 79.8691 87.2889C80.1308 87.3939 80.4711 87.3414 80.8376 87.1051L94.4764 79.2031C95.2355 78.7569 95.9423 77.7855 96.1779 76.7879L97.7486 70.5924C98.1675 68.991 99.267 67.4158 100.55 66.6808L104.424 64.4231C105.262 63.9505 105.969 62.7167 105.969 61.7453V42.7649C105.969 42.1086 105.733 41.6623 105.34 41.531L103.246 40.8222C102.592 40.6122 102.225 39.9559 102.225 39.0633V16.0137C102.225 15.3836 102.042 14.9111 101.675 14.7011C101.335 14.4911 100.864 14.5436 100.34 14.8323L86.4659 22.2355C84.9476 23.0493 83.4816 24.7032 82.5916 26.6722L77.4869 37.6982C71.8848 49.8268 67.9057 62.0341 65.6806 74.0052L64.0837 82.6422L68.2984 80.1745C69.9999 79.2557 71.6753 78.7569 73.1413 78.7569Z" fill="#16110D"/>
<path d="M99.162 20.1616C99.162 19.164 98.4814 18.7177 97.5913 19.1902L87.7746 24.4407C86.2301 25.2545 84.3714 27.7747 83.4814 29.7437L79.9736 37.2518C74.5547 48.9604 70.6542 60.9315 68.5076 72.5088L67.8008 76.2629L70.34 74.7665C72.9055 73.3751 75.1044 73.2438 77.0154 73.7426C78.6385 74.1889 79.7118 75.344 79.895 75.6066C80.1306 76.0004 80.628 76.0791 81.1516 75.7641L88.0887 71.7475C88.8217 71.3274 89.4238 70.3823 89.5809 69.4635L91.806 55.7335C91.9369 54.9197 92.3819 54.0796 92.984 53.4758L97.9317 48.4616C98.6908 47.7003 99.1882 46.5714 99.1882 45.6264V20.1616H99.162Z" fill="#4B8EC8"/>
<path d="M67.3032 76.9454L68.1671 72.43C70.3399 60.774 74.2142 48.8817 79.6592 37.0943L83.1671 29.5599C84.1095 27.5385 86.0205 24.9657 87.6174 24.0994L97.4341 18.8489C97.9577 18.5602 98.4812 18.5339 98.8739 18.7964C99.2927 19.0327 99.5022 19.5315 99.5022 20.1353V45.6264C99.5022 46.6502 98.9786 47.8578 98.1409 48.6979L93.1933 53.7121C92.6435 54.2634 92.2247 55.051 92.12 55.786L89.8948 69.516C89.7378 70.5399 89.0572 71.5637 88.2195 72.0362L81.2823 76.0528C80.5755 76.4466 79.8948 76.3416 79.5545 75.7641C79.3974 75.5278 78.3765 74.4515 76.8844 74.0577C74.8163 73.5064 72.7221 73.8214 70.4708 75.029L67.3032 76.9454ZM74.9472 73.1126C75.6802 73.1126 76.387 73.2176 77.12 73.4014C78.8215 73.8739 79.9995 75.0815 80.209 75.449C80.3922 75.7641 80.8111 75.5803 80.9681 75.4753L87.9053 71.4587C88.5336 71.0911 89.1095 70.2511 89.2142 69.4373L91.4393 55.7073C91.5702 54.8409 92.0414 53.9221 92.6959 53.2395L97.6435 48.2253C98.3242 47.5165 98.7954 46.4927 98.7954 45.6526V20.1616C98.7954 19.794 98.6906 19.5315 98.5074 19.4265C98.3242 19.3215 98.0624 19.3477 97.7482 19.5053L87.9315 24.7557C86.4655 25.5433 84.6331 28.0373 83.7954 29.9012L80.2875 37.4094C74.8687 49.1442 71.0205 60.984 68.8477 72.5875L68.2718 75.5803L70.1566 74.4777C71.832 73.5589 73.4027 73.1126 74.9472 73.1126Z" fill="#16110D"/>
<path d="M97.5915 19.1902L96.6753 19.689V44.76C96.6753 45.7051 96.1779 46.834 95.4188 47.5953L90.4711 52.6095C89.8691 53.2133 89.424 54.0796 89.2931 54.8672L87.068 68.5972C86.9109 69.4898 86.3088 70.4611 85.5758 70.8811L78.979 74.714C79.5026 75.1078 79.8167 75.4753 79.8952 75.6066C80.1308 76.0004 80.6282 76.0791 81.1518 75.7641L88.089 71.7475C88.8219 71.3274 89.424 70.3823 89.5811 69.4635L91.8062 55.7335C91.9371 54.9197 92.3821 54.0796 92.9842 53.4758L97.9319 48.4616C98.691 47.7003 99.1884 46.5715 99.1884 45.6264V20.1353C99.1622 19.1377 98.4816 18.7177 97.5915 19.1902Z" fill="#4B8EC8"/>
<path d="M97.7223 21.3954L96.806 21.8942V45.8889C96.806 46.834 96.3087 47.9628 95.5495 48.7241L90.6019 53.7383C89.9998 54.3421 89.5547 55.2085 89.4238 55.996L87.1987 69.726C87.0417 70.6186 86.4395 71.59 85.7066 72.01L79.7642 75.449C80.2877 75.8428 80.4448 76.0266 80.5495 76.1579C80.7851 76.5516 81.0469 75.8428 81.5704 75.5278L87.7746 72.22C88.5076 71.8 89.4238 70.4086 89.5547 69.516L91.5966 58.4638C91.7275 57.6499 92.1725 56.8099 92.7746 56.2061L98.0102 50.8243C98.7694 50.063 99.2668 48.9342 99.2668 47.9891V22.4193C99.2929 21.3429 98.6123 20.9229 97.7223 21.3954Z" fill="white"/>
<path d="M80.5234 76.3154C80.1307 76.3154 79.8166 76.1316 79.6071 75.7903C79.5548 75.6853 79.2668 75.3703 78.7694 75.0028L78.3506 74.6877L85.4448 70.5661C86.0731 70.1986 86.649 69.3585 86.7537 68.5447L88.9788 54.8147C89.1097 53.9484 89.581 53.0295 90.2354 52.347L95.1569 47.3328C95.8375 46.6239 96.3087 45.6001 96.3087 44.76V19.4527L97.4082 18.8752C97.9317 18.5864 98.4553 18.5602 98.848 18.8227C99.2668 19.059 99.4762 19.5578 99.4762 20.1616V45.6526C99.4762 46.6764 98.9527 47.8841 98.115 48.7241L93.1673 53.7383C92.6176 54.2896 92.1987 55.0772 92.094 55.8123L89.8689 69.5423C89.7118 70.5661 89.0312 71.59 88.1935 72.0625L81.2563 76.0791C81.0469 76.2366 80.759 76.3154 80.5234 76.3154ZM79.581 74.7665C79.8951 75.029 80.1045 75.2915 80.183 75.449C80.3663 75.7641 80.7851 75.5803 80.9422 75.4753L87.8794 71.4587C88.5077 71.0911 89.0836 70.2511 89.1883 69.4373L91.4134 55.7073C91.5443 54.8409 92.0155 53.9221 92.67 53.2395L97.6176 48.2253C98.2982 47.5165 98.7694 46.4927 98.7694 45.6526V20.1616C98.7694 19.794 98.6647 19.5315 98.4815 19.4265C98.2982 19.3215 98.0364 19.3477 97.7223 19.5052L96.9893 19.899V44.76C96.9893 45.7839 96.4658 46.9915 95.6281 47.8316L90.6804 52.8458C90.1307 53.3971 89.7118 54.1846 89.6071 54.9197L87.382 68.6497C87.2249 69.6735 86.5443 70.6974 85.7066 71.1699L79.581 74.7665Z" fill="#16110D"/>
<path d="M71.5441 74.189C71.7011 74.1365 71.8582 74.0577 72.0153 74.0052C72.1723 73.9527 72.3032 73.9002 72.4341 73.8739C72.5388 73.8477 72.6697 73.7952 72.7744 73.7689C72.9315 73.7164 73.1147 73.6902 73.2718 73.6377C73.298 73.6377 73.3242 73.6377 73.3242 73.6377C74.6592 73.3751 75.8896 73.4276 77.0153 73.7427L74.5283 72.8501C72.7221 72.3513 70.654 72.4563 68.2718 73.6639L67.7744 76.2366L70.3137 74.7402C70.6017 74.5827 70.8896 74.4515 71.1776 74.3202C71.3346 74.2677 71.4393 74.2415 71.5441 74.189Z" fill="#4B8EC8"/>
<path d="M73.1933 73.6639C74.5284 73.4014 73.8739 73.3751 75.0258 73.6639L74.5807 73.5064C72.7744 73.0076 70.7064 73.1126 68.3242 74.3202L67.9839 76.1579L70.1828 74.9765C70.4446 74.819 73.1933 73.6639 73.1933 73.6639Z" fill="white"/>
<path d="M67.3032 76.9454L67.9838 73.4276L68.1409 73.3489C70.4184 72.22 72.5388 71.9575 74.6592 72.5088L77.1723 73.4014L76.9629 74.0839C75.8111 73.7689 74.6331 73.7427 73.4289 73.9789C73.2195 74.0052 73.0624 74.0577 72.9053 74.1102C72.8006 74.1365 72.6959 74.1627 72.5912 74.2152C72.4603 74.2677 72.3294 74.294 72.1723 74.3465C72.0414 74.399 71.8844 74.4515 71.7273 74.504H71.7011L71.5964 74.5565C71.5179 74.5827 71.4655 74.609 71.387 74.6352C71.099 74.7665 70.8373 74.8978 70.5493 75.0553L67.3032 76.9454ZM68.6121 73.9002L68.298 75.5541L70.1828 74.4515C70.4969 74.294 70.7849 74.1364 71.0729 74.0052C71.1514 73.9789 71.2299 73.9264 71.3084 73.9002L71.4132 73.8477H71.4393C71.5964 73.7952 71.7535 73.7164 71.9105 73.6639C72.0676 73.6114 72.1985 73.5589 72.3556 73.5064C72.4603 73.4801 72.5912 73.4276 72.6959 73.4014C72.8791 73.3489 73.0362 73.3226 73.2194 73.2701C73.5859 73.1914 73.9263 73.1389 74.2666 73.1126C72.4603 72.6926 70.6017 72.9551 68.6121 73.9002Z" fill="#16110D"/>
<path d="M99.3191 60.1177C99.162 60.0126 98.9526 59.9601 98.7432 59.9864C98.5337 59.9864 98.2981 60.0389 98.0887 60.1702L94.4761 62.2704C94.3976 62.3229 94.2667 62.4541 94.162 62.5591C93.6908 63.0054 93.3243 63.6617 93.2196 64.2918C93.1411 64.8693 93.2981 65.3156 93.6384 65.5519C93.7955 65.6569 93.9526 65.7094 94.1358 65.7094C94.3452 65.7094 94.5808 65.6307 94.8164 65.4994L98.429 63.3992C99.0835 63.0317 99.6332 62.1653 99.7379 61.3515C99.8165 60.8265 99.6594 60.3539 99.3191 60.1177Z" fill="#4B8EC8"/>
<path d="M93.0888 14.2285L93.1935 14.176L75.7328 3.93761L64.8951 9.71313C63.2982 10.5532 61.8061 12.2859 60.8637 14.3073L55.759 25.3333C50.2354 37.2519 45.471 53.1345 43.2197 64.9219L62.1726 76.2366C64.3977 64.3705 69.2145 48.3566 74.7642 36.333L79.8689 25.307C80.8113 23.2856 82.3297 21.5529 83.9003 20.7129L94.5024 15.0686L93.0888 14.2285Z" fill="#4B8EC8"/>
<path d="M61.9371 72.1938L43.6387 61.404L43.691 61.1678C45.9423 49.2755 49.9214 37.1731 55.4449 25.202L60.5497 14.176C61.5182 12.0758 63.0889 10.2907 64.7381 9.42435L75.7591 3.54382L75.9162 3.64883L93.9266 14.2023L82.7748 20.1616C81.2565 20.9754 79.7905 22.6293 78.9004 24.5982L73.7957 35.6242C68.2198 47.6741 64.2669 59.8027 62.0156 71.7212L61.9371 72.1938ZM44.424 61.0365L61.4135 71.0649C63.691 59.2514 67.6177 47.2278 73.1413 35.2829L78.246 24.2569C79.2146 22.1568 80.7852 20.3716 82.4345 19.5053L92.4868 14.1498L75.7329 4.33139L65.0785 10.0282C63.5601 10.842 62.0942 12.4959 61.2041 14.4648L56.0994 25.4908C50.602 37.3306 46.6753 49.2755 44.424 61.0365Z" fill="#16110D"/>
<path d="M47.1463 59.5401C49.3977 47.7528 52.7223 38.6695 58.2458 26.7509L63.3505 15.7249C64.2929 13.7035 65.8112 11.9708 67.3819 11.1308L75.3139 6.79911L90.4448 15.6724L93.2458 14.176L75.7851 3.93761L64.9474 9.71313C63.3505 10.5532 61.8584 12.2859 60.916 14.3073L55.8113 25.3333C50.2877 37.2519 46.3086 49.433 44.0835 61.2203L61.7275 71.6425C61.9107 70.5924 62.1463 69.5423 62.3819 68.4922L47.1463 59.5401Z" fill="#4B8EC8"/>
<path d="M46.8061 60.774L43.6909 62.4541L61.3349 72.8763C61.5181 71.8262 61.7537 70.7761 61.9893 69.726L46.8061 60.774Z" fill="white"/>
<path d="M61.9371 72.1938L43.6387 61.404L43.691 61.1678C45.9423 49.2755 49.9214 37.1731 55.4449 25.202L60.5497 14.176C61.5182 12.0758 63.0889 10.2907 64.7381 9.42435L75.7591 3.54382L75.9162 3.64883L93.9266 14.2023L90.3926 16.0925L75.2617 7.21916L67.513 11.472C65.9947 12.2859 64.5287 13.9398 63.6387 15.9087L58.534 26.9347C53.5078 37.8294 49.8952 47.0703 47.513 59.3826L62.6963 68.3609L62.5654 69.0172C62.3821 69.9361 62.1727 70.8287 62.0156 71.7475L61.9371 72.1938ZM44.424 61.0365L61.4135 71.0649C61.5706 70.3298 61.7277 69.5685 61.8847 68.8072L61.9109 68.6497L46.7539 59.6976L46.8062 59.4614C49.1884 46.939 52.8271 37.6194 57.9319 26.5934L63.0366 15.5674C64.0051 13.4672 65.5758 11.6821 67.225 10.8157L75.314 6.37908L90.4449 15.2524L92.513 14.1498L75.7591 4.33139L65.1046 10.0282C63.5863 10.842 62.1203 12.4959 61.2303 14.4648L56.1256 25.4908C50.602 37.3306 46.6753 49.2755 44.424 61.0365Z" fill="#16110D"/>
<path d="M44.4239 61.0365L46.7538 59.7239L47.9056 55.7598L51.937 41.7935L60.1831 22.5243L63.9004 14.6486L65.2093 12.8634L67.8009 10.8945L75.2878 6.77288L75.7328 3.91136L64.0574 10.2382L62.4344 11.8133L58.1412 19.3478L52.1203 33.9441L48.3506 44.2875L44.0312 60.5902L44.4239 61.0365Z" fill="#16110D"/>
<path d="M92.0356 36.3979L80.8979 50.6258L81.4539 51.0635L92.5916 36.8356L92.0356 36.3979Z" fill="#16110D"/>
<path d="M86.3863 50.7772L80.042 58.9994L80.601 59.4332L86.9453 51.211L86.3863 50.7772Z" fill="#16110D"/>
<path d="M75.1042 59.1201L74.5283 58.6738L79.4236 52.4257L79.9995 52.872L75.1042 59.1201Z" fill="#16110D"/>
<path d="M90.7364 31.0328L88.4785 33.9611L89.0377 34.3947L91.2955 31.4663L90.7364 31.0328Z" fill="#16110D"/>
<path d="M43.4551 71.8262V80.2007L58.6383 89.179V80.5683L43.4551 71.8262Z" fill="#FFBE2E"/>
<path d="M43.3242 73.7164V79.9907L58.5075 88.969V82.4584L43.3242 73.7164Z" fill="#FBEACC"/>
<path d="M59.0048 89.8091L43.1147 80.4108V71.2487L59.0048 80.3845V89.8091ZM43.8215 79.9907L58.298 88.549V80.7783L43.8215 72.4563V79.9907Z" fill="#16110D"/>
<path d="M60.1833 93.9045L55.7068 96.4772L55.6807 15.8562L60.1571 13.2572L60.1833 93.9045Z" fill="#16110D"/>
<path d="M53.665 14.6223L55.6807 15.8562L60.1572 13.2572L58.1415 12.0233L53.665 14.6223Z" fill="#4B8EC8"/>
<path d="M53.665 15.5674L55.6807 16.8013V15.8562L59.3718 13.7297L58.1415 12.9684L53.665 15.5674Z" fill="white"/>
<path d="M53.6912 95.2433L55.7069 96.4772L55.6807 15.8562L53.665 14.6223L53.6912 95.2433Z" fill="#4B8EC8"/>
<path d="M60.4973 13.0734L58.1413 11.6295L53.2983 14.4385L53.3245 95.4533L55.6805 96.8972L60.5235 94.0882L60.4973 13.0734ZM58.1413 12.4434L59.4763 13.2572L58.4554 13.8347L55.6805 15.4361L54.3455 14.6223L58.1413 12.4434ZM54.0313 95.0596L54.0051 15.2524L55.314 16.0662V24.8082L55.3402 95.8734L54.0313 95.0596ZM56.047 24.8082V16.0662L58.9004 14.4123L59.8167 13.8872L59.8428 93.6944L56.0732 95.8734L56.047 24.8082Z" fill="#16110D"/>
<path d="M77.5394 20.5816L67.644 14.5436L67.9582 14.0448L77.8535 20.0828L77.5394 20.5816Z" fill="#16110D"/>
<path d="M72.1727 14.9373L69.5811 13.3622L69.869 12.8634L72.4606 14.4385L72.1727 14.9373Z" fill="#16110D"/>
<path d="M73.5834 15.0391L73.2788 15.5293L74.5454 16.3206L74.8499 15.8304L73.5834 15.0391Z" fill="#16110D"/>
<path d="M69.5287 39.8508L63.4292 36.018L63.7434 35.493L69.8428 39.352L69.5287 39.8508Z" fill="#16110D"/>
<path d="M67.4593 40.6325L67.1548 41.1228L68.4213 41.9139L68.7258 41.4237L67.4593 40.6325Z" fill="#16110D"/>
<path d="M44.0573 84.1123L39.5809 86.7113L39.5547 6.0903L44.0311 3.49132L44.0573 84.1123Z" fill="#16110D"/>
<path d="M37.5391 4.83019L39.5548 6.09031L44.0312 3.49133L42.0155 2.25746L37.5391 4.83019Z" fill="#4B8EC8"/>
<path d="M37.5391 5.77527L39.5548 7.03539V6.09031L43.2459 3.93761L42.0155 3.20255L37.5391 5.77527Z" fill="white"/>
<path d="M37.5653 85.4775L39.581 86.7113L39.5548 6.0903L37.5391 4.83018L37.5653 85.4775Z" fill="#4B8EC8"/>
<path d="M44.3977 3.2813L42.0417 1.83742L37.1987 4.64642L37.2249 85.6875L39.5809 87.1314L44.4239 84.3223L44.3977 3.2813ZM42.0155 2.65124L43.3506 3.46507L42.3296 4.04261L39.5548 5.64401L38.2197 4.83019L42.0155 2.65124ZM37.9317 85.2674L37.9055 5.46025L39.2144 6.27407V15.0161L39.2406 86.0813L37.9317 85.2674ZM39.9213 15.0424V6.30032L42.7746 4.64642L43.6909 4.12138L43.7171 83.9286L39.9474 86.1075L39.9213 15.0424Z" fill="#16110D"/>
<path d="M83.5862 83.8498L82.1203 84.6899C81.8061 84.8737 81.5182 84.9262 81.2826 84.8474C81.0732 84.7687 80.9684 84.5587 80.9423 84.4011L80.2616 81.9597L79.7119 82.1959L80.3925 84.5849C80.4972 85.0049 80.759 85.2937 81.0993 85.425C81.2302 85.4775 81.3873 85.5037 81.5444 85.5037C81.8323 85.5037 82.1464 85.425 82.4344 85.2412L83.6124 84.5586V83.8498H83.5862Z" fill="#4B8EC8"/>
<path d="M43.874 84.0336L44.3976 84.4011H44.4238V81.9334L43.874 81.5921V84.0336Z" fill="#FFBE2E"/>
<path d="M43.874 60.1964L44.3976 60.5902L44.4238 58.3063L43.874 57.965V60.1964Z" fill="#4B8EC8"/>
<path d="M59.9998 21.1854L60.5234 21.5792L60.4972 15.3836L59.9736 15.0424L59.9998 21.1854Z" fill="#4B8EC8"/>
<path d="M18.5601 74.2939V76.3679L55.8899 97.9473V95.9259L18.5601 74.2939Z" fill="#4B8EC8"/>
<path d="M55.8899 95.9259L18.5601 74.2939L23.0103 71.7212L60.3663 93.3269L55.8899 95.9259Z" fill="#4B8EC8"/>
<path d="M55.8898 95.9259L19.293 74.7402L23.0102 72.5876L59.7118 93.8257L55.8898 95.9259Z" fill="white"/>
<path d="M60.6282 93.4844V93.1694L60.3664 93.0119L23.1675 71.4849L23.0366 71.4062L18.5601 73.9789L18.2983 74.1364V74.4515V76.5254L55.6282 98.0786L55.89 98.2361L56.1517 98.0786L60.6282 95.5059V93.4844ZM59.8167 93.3269L58.7433 93.957L55.89 95.6109L42.6439 87.9452L19.1099 74.3202L23.0366 72.0625L59.8167 93.3269ZM18.8219 76.2104V74.7665L55.602 96.0572V97.4485L18.8219 76.2104Z" fill="#16110D"/>
<path d="M12.4604 77.5755V79.6494L49.7903 101.203V99.2074L12.4604 77.5755Z" fill="#4B8EC8"/>
<path d="M49.7903 99.2074L12.4604 77.5755L16.9107 75.0027L54.2667 96.6085L49.7903 99.2074Z" fill="#4B8EC8"/>
<path d="M49.7902 99.2075L13.1934 78.0218L16.9107 75.8691L53.6122 97.1073L49.7902 99.2075Z" fill="white"/>
<path d="M54.5285 96.766V96.451L54.2668 96.2934L17.0678 74.7665L16.9369 74.6877L12.4605 77.2605L12.1987 77.418V77.733V79.807L49.5286 101.36L49.7903 101.518L50.0521 101.36L54.5285 98.7874V96.766ZM53.717 96.6085L52.6437 97.2385L49.7903 98.8924L36.5443 91.2267L13.0102 77.6018L16.9369 75.3441L53.717 96.6085ZM12.7223 79.4919V78.048L49.5024 99.3387V100.73L12.7223 79.4919Z" fill="#16110D"/>
<path d="M6.36133 81.1196V83.1935L43.6912 104.747V102.725L6.36133 81.1196Z" fill="#4B8EC8"/>
<path d="M43.6912 102.725L6.36133 81.1196L10.8378 78.5468L48.1676 100.153L43.6912 102.725Z" fill="#4B8EC8"/>
<path d="M43.6911 102.725L7.09424 81.5396L10.8377 79.3869L47.5131 100.651L43.6911 102.725Z" fill="white"/>
<path d="M48.4295 100.31V99.995L48.1677 99.8375L10.9687 78.3106L10.8378 78.2318L6.36139 80.8045L6.09961 80.962V81.2771V83.351L43.4294 104.904L43.6912 105.062L43.953 104.904L48.4295 102.331V100.31ZM47.6179 100.153L46.5446 100.783L43.6912 102.436L30.4452 94.7708L6.91112 81.1458L10.8378 78.8881L47.6179 100.153ZM6.62317 83.036V81.5921L43.4033 102.883V104.274L6.62317 83.036Z" fill="#16110D"/>
<path d="M0.261719 84.6636V86.7376L37.5916 108.291V106.296L0.261719 84.6636Z" fill="#4B8EC8"/>
<path d="M37.5916 106.296L0.261719 84.6636L4.73817 82.0909L42.068 103.697L37.5916 106.296Z" fill="#4B8EC8"/>
<path d="M37.5915 106.296L0.994629 85.0837L4.7381 82.931L41.4135 104.195L37.5915 106.296Z" fill="white"/>
<path d="M42.3298 103.854V103.539L42.0681 103.382L4.86912 81.8546L4.73823 81.7759L0.26178 84.3486L0 84.5061V84.8211V86.8951L37.3298 108.448L37.5916 108.606L37.8534 108.448L42.3298 105.876V103.854ZM41.5183 103.697L40.445 104.327L37.5916 105.981L24.3456 98.3149L0.811528 84.6899L4.73823 82.4322L41.5183 103.697ZM0.549748 86.5801V85.1362L37.3298 106.427V107.818L0.549748 86.5801Z" fill="#16110D"/>
<path d="M18.5601 67.7834V69.8573L55.8899 91.4105V89.3891L18.5601 67.7834Z" fill="#4B8EC8"/>
<path d="M55.8899 89.3891L18.5601 67.7834L23.0103 65.1844L60.3663 86.8163L55.8899 89.3891Z" fill="#4B8EC8"/>
<path d="M55.8898 89.3891L19.293 68.2034L23.0102 66.0507L59.7118 87.2889L55.8898 89.3891Z" fill="white"/>
<path d="M60.6282 86.9739V86.6588L60.3664 86.5013L23.1675 64.9744L23.0366 64.8956L18.5601 67.4683L18.2983 67.6258V67.9409V70.0148L55.6282 91.568L55.89 91.7255L56.1517 91.568L60.6282 88.9953V86.9739ZM59.8167 86.8163L58.7433 87.4464L55.89 89.1003L42.6439 81.4346L19.1099 67.8096L23.0366 65.5519L59.8167 86.8163ZM18.8219 69.6998V68.2559L55.602 89.5466V90.938L18.8219 69.6998Z" fill="#16110D"/>
<path d="M12.4604 71.0649V73.1388L49.7903 94.692V92.6706L12.4604 71.0649Z" fill="#4B8EC8"/>
<path d="M49.7903 92.6706L12.4604 71.0649L16.9107 68.4659L54.2667 90.0979L49.7903 92.6706Z" fill="#4B8EC8"/>
<path d="M49.7902 92.6706L13.1934 71.4849L16.9107 69.3322L53.6122 90.5704L49.7902 92.6706Z" fill="white"/>
<path d="M54.5285 90.2554V89.9404L54.2668 89.7828L17.0678 68.2559L16.9369 68.1772L12.4605 70.7499L12.1987 70.9074V71.2224V73.2964L49.5286 94.8496L49.7903 95.0071L50.0521 94.8496L54.5285 92.2768V90.2554ZM53.717 90.0979L52.6437 90.7279L49.7903 92.3818L36.5443 84.7161L13.0102 71.0912L16.9369 68.8335L53.717 90.0979ZM12.7223 72.9813V71.5375L49.5024 92.8281V94.2195L12.7223 72.9813Z" fill="#16110D"/>
<path d="M6.36133 74.5827V76.6566L43.6912 98.2361V96.2147L6.36133 74.5827Z" fill="#4B8EC8"/>
<path d="M43.6912 96.2147L6.36133 74.5827L10.8378 72.01L48.1676 93.6157L43.6912 96.2147Z" fill="#4B8EC8"/>
<path d="M43.6911 96.2147L7.09424 75.029L10.8377 72.8763L47.5131 94.1145L43.6911 96.2147Z" fill="white"/>
<path d="M48.4295 93.7732V93.4582L48.1677 93.3006L10.9687 71.7737L10.8378 71.6949L6.36139 74.2677L6.09961 74.4252V74.7402V76.8142L43.4294 98.3674L43.6912 98.5249L43.953 98.3674L48.4295 95.7946V93.7732ZM47.6179 93.6157L46.5446 94.2457L43.6912 95.8996L30.4452 88.2339L6.91112 74.609L10.8378 72.3513L47.6179 93.6157ZM6.62317 76.4991V75.0552L43.4033 96.3459V97.7373L6.62317 76.4991Z" fill="#16110D"/>
<path d="M0.261719 78.153V80.227L37.5916 101.78V99.7588L0.261719 78.153Z" fill="#4B8EC8"/>
<path d="M37.5916 99.7587L0.261719 78.153L4.73817 75.5541L42.068 97.1598L37.5916 99.7587Z" fill="#4B8EC8"/>
<path d="M37.5915 99.7588L0.994629 78.5731L4.7381 76.4204L41.4135 97.6586L37.5915 99.7588Z" fill="white"/>
<path d="M42.3298 97.3435V97.0285L42.0681 96.871L4.86912 75.3441L4.73823 75.2653L0.26178 77.838L0 77.9955V78.3106V80.3845L37.3298 101.938L37.5916 102.095L37.8534 101.938L42.3298 99.365V97.3435ZM41.5183 97.1598L40.445 97.7898L37.5916 99.4437L24.3456 91.778L0.811528 78.153L4.73823 75.8954L41.5183 97.1598ZM0.549748 80.0695V78.6256L37.3298 99.9163V101.308L0.549748 80.0695Z" fill="#16110D"/>
<path d="M27.4868 100.468V95.9259L33.1413 99.2075V103.697L27.4868 100.468Z" fill="#4B8EC8"/>
<path d="M37.0422 101.465L33.4034 99.3649V99.0499L27.1992 95.4533V100.625L33.4034 104.169V103.539L37.0422 101.465ZM32.8799 103.224L27.7752 100.31V96.3984L32.8799 99.3649V103.224Z" fill="#16110D"/>
<path d="M4.21436 86.9213V82.5109L9.8688 85.8187V90.2291L4.21436 86.9213Z" fill="#4B8EC8"/>
<path d="M13.7697 87.9714L10.1309 85.8712V85.635L3.92676 82.0121V87.0788L10.1309 90.7017V90.0716L13.7697 87.9714ZM9.60737 89.7566L4.50266 86.7638V82.9835L9.60737 85.9763V89.7566Z" fill="#16110D"/>
<path d="M15.5762 93.5107V89.074L21.2306 92.3818V96.7922L15.5762 93.5107Z" fill="#4B8EC8"/>
<path d="M25.131 94.5345L21.4923 92.4343V92.198L15.2881 88.5752V93.6419L21.4923 97.2648V96.6347L25.131 94.5345ZM20.9687 96.3197L15.864 93.3269V89.5466L20.9687 92.5393V96.3197Z" fill="#16110D"/>
<path d="M41.9635 60.0914L25.1049 50.3518L8.27246 60.0914V79.5969L25.1049 89.3366V69.8836L41.9635 60.0914Z" fill="white"/>
<path d="M8.27246 79.5182L25.1049 89.2578V69.831L8.27246 60.0389V79.5182Z" fill="#4B8EC8"/>
<path d="M42.2777 59.9077L25.1049 49.958L7.9845 59.8814L7.93213 59.9077V60.3014V79.7807L24.7646 89.5203L25.1049 89.7041L25.4452 89.5203L42.1206 79.8594L42.2777 79.7544V60.2752V59.9077ZM25.1049 50.7456L33.0107 55.3135L16.8588 64.6593L8.95308 60.0914L25.1049 50.7456ZM24.7908 88.759L8.63895 79.4132V60.6952L24.7908 70.0411V88.759ZM31.9636 65.4732L25.1049 69.4373L17.1991 64.8694L33.351 55.5235L41.2567 60.0914L31.9636 65.4732Z" fill="#16110D"/>
<path d="M18.4294 69.8573L15.3142 68.0459C14.9739 67.8359 14.6074 67.8359 14.3195 67.9934C14.0053 68.1771 13.7959 68.5709 13.7959 69.096C13.7959 69.936 14.2933 70.9074 14.9477 71.2749L18.0629 73.0863C18.2462 73.1913 18.4556 73.2439 18.6127 73.2439C18.7697 73.2439 18.9006 73.2176 19.0315 73.1388C19.3456 72.9551 19.5551 72.5613 19.5551 72.0362C19.5812 71.1962 19.0838 70.2511 18.4294 69.8573ZM18.7435 72.5613C18.6388 72.6138 18.5079 72.5613 18.4294 72.5088L15.3142 70.6974C14.8692 70.4349 14.5027 69.6998 14.5027 69.096C14.5027 68.7809 14.6074 68.6234 14.686 68.5972C14.7907 68.5447 14.9215 68.5972 15.0001 68.6497L15.2095 68.781C15.2881 69.516 15.7331 70.2773 16.2566 70.5924L18.9268 72.1413C18.9006 72.3775 18.8221 72.5088 18.7435 72.5613Z" fill="#16110D"/>
<path d="M43.429 92.6706L33.0625 86.6851V74.6877L43.429 80.6733V92.6706Z" fill="#4B8EC8"/>
<path d="M53.7955 74.6877L43.429 80.6733L33.0625 74.6877L43.429 68.6759L53.7955 74.6877Z" fill="#4B8EC8"/>
<path d="M53.7957 75.8691L44.4763 81.1983L34.1099 75.2128L43.4292 69.8835L53.7957 75.8691Z" fill="white"/>
<path d="M43.4291 68.3084L33.0627 74.3202L32.7485 74.504V86.8426L43.115 92.8544L43.4291 93.0381L43.7433 92.8544L54.1098 86.8426V74.8452V74.504L43.4291 68.3084ZM43.4291 69.0172L53.1936 74.6615L48.2983 77.4967L43.4291 80.3057L41.9108 79.4132L33.6909 74.6615L43.4291 69.0172ZM33.3506 86.5013V75.2128L43.115 80.857V92.1456L33.3506 86.5013Z" fill="#16110D"/>
<path d="M40.9159 89.074L39.3452 88.1552C39.0834 87.9977 38.874 87.6039 38.874 87.2889V85.6087C38.874 85.2674 39.0834 85.1099 39.3452 85.2674L40.9159 86.1862C41.1777 86.3438 41.3871 86.7375 41.3871 87.0526V88.7327C41.3871 89.074 41.1777 89.2315 40.9159 89.074Z" fill="#16110D"/>
<path d="M42.2515 68.781L41.6494 69.1485V61.0365L42.2515 60.669V68.781Z" fill="#255086"/>
<path d="M57.042 91.0955V90.4392L59.8431 88.8378L59.8169 89.4678L57.042 91.0955Z" fill="#4B8EC8"/>
</svg>
