<svg width="69" height="104" viewBox="0 0 69 104" fill="none" xmlns="http://www.w3.org/2000/svg">
<path d="M40.8639 98.865C41.2503 99.0843 41.2503 99.4497 40.8639 99.6934C40.4775 99.9126 39.8496 99.9126 39.4632 99.6934C39.0767 99.4741 39.0767 99.1086 39.4632 98.865C39.8496 98.6457 40.4775 98.6457 40.8639 98.865Z" fill="#1A3962"/>
<path d="M44.5348 96.7455C44.9213 96.9647 44.9213 97.3302 44.5348 97.5738C44.1484 97.7931 43.5205 97.7931 43.1341 97.5738C42.7476 97.3545 42.7476 96.9891 43.1341 96.7455C43.5205 96.5018 44.1484 96.5018 44.5348 96.7455Z" fill="#1A3962"/>
<path d="M48.2299 94.6015C48.6163 94.8208 48.6163 95.1863 48.2299 95.4299C47.8435 95.6492 47.2155 95.6492 46.8291 95.4299C46.4427 95.2106 46.4427 94.8452 46.8291 94.6015C47.2155 94.3579 47.8435 94.3579 48.2299 94.6015Z" fill="#1A3962"/>
<path d="M51.9008 92.4575C52.2872 92.6768 52.2872 93.0422 51.9008 93.2859C51.5144 93.5051 50.8864 93.5051 50.5 93.2859C50.1136 93.0666 50.1136 92.7011 50.5 92.4575C50.8864 92.2139 51.5144 92.2139 51.9008 92.4575Z" fill="#1A3962"/>
<path d="M33.4736 98.8407C33.86 99.06 33.86 99.4254 33.4736 99.6691C33.0871 99.8883 32.4592 99.8883 32.0728 99.6691C31.6864 99.4498 31.6864 99.0844 32.0728 98.8407C32.4592 98.6215 33.0871 98.6215 33.4736 98.8407Z" fill="#1A3962"/>
<path d="M36.4441 97.6957C36.991 97.6957 37.4342 97.4339 37.4342 97.111C37.4342 96.788 36.991 96.5262 36.4441 96.5262C35.8972 96.5262 35.4539 96.788 35.4539 97.111C35.4539 97.4339 35.8972 97.6957 36.4441 97.6957Z" fill="#1A3962"/>
<path d="M40.1391 95.576C40.686 95.576 41.1293 95.3143 41.1293 94.9913C41.1293 94.6684 40.686 94.4066 40.1391 94.4066C39.5923 94.4066 39.1489 94.6684 39.1489 94.9913C39.1489 95.3143 39.5923 95.576 40.1391 95.576Z" fill="#1A3962"/>
<path d="M44.5107 92.4332C44.8971 92.6525 44.8971 93.018 44.5107 93.2616C44.1242 93.4808 43.4963 93.4808 43.1099 93.2616C42.7235 93.0423 42.7235 92.6769 43.1099 92.4332C43.4963 92.214 44.1242 92.214 44.5107 92.4332Z" fill="#1A3962"/>
<path d="M48.1815 90.2893C48.5679 90.5086 48.5679 90.874 48.1815 91.1177C47.7951 91.3369 47.1672 91.3369 46.7808 91.1177C46.3944 90.8984 46.3944 90.533 46.7808 90.2893C47.1672 90.0701 47.7951 90.0701 48.1815 90.2893Z" fill="#1A3962"/>
<path d="M51.8766 88.1453C52.263 88.3646 52.263 88.73 51.8766 88.9736C51.4902 89.1929 50.8623 89.1929 50.4758 88.9736C50.0894 88.7544 50.0894 88.3889 50.4758 88.1453C50.8381 87.926 51.4902 87.926 51.8766 88.1453Z" fill="#1A3962"/>
<path d="M29.8027 96.7211C30.1891 96.9403 30.1891 97.3058 29.8027 97.5494C29.4162 97.7687 28.7883 97.7687 28.4019 97.5494C28.0155 97.3301 28.0155 96.9647 28.4019 96.7211C28.7883 96.4774 29.4162 96.4774 29.8027 96.7211Z" fill="#1A3962"/>
<path d="M32.7732 95.576C33.3201 95.576 33.7633 95.3143 33.7633 94.9913C33.7633 94.6684 33.3201 94.4066 32.7732 94.4066C32.2263 94.4066 31.783 94.6684 31.783 94.9913C31.783 95.3143 32.2263 95.576 32.7732 95.576Z" fill="#1A3962"/>
<path d="M37.1686 92.4332C37.555 92.6525 37.555 93.018 37.1686 93.2616C36.7822 93.4808 36.1543 93.4808 35.7678 93.2616C35.3814 93.0423 35.3814 92.6769 35.7678 92.4332C36.1301 92.214 36.7822 92.214 37.1686 92.4332Z" fill="#1A3962"/>
<path d="M40.8395 90.2893C41.2259 90.5086 41.2259 90.874 40.8395 91.1177C40.4531 91.3369 39.8252 91.3369 39.4387 91.1177C39.0523 90.8984 39.0523 90.533 39.4387 90.2893C39.8252 90.0701 40.4531 90.0701 40.8395 90.2893Z" fill="#1A3962"/>
<path d="M44.5107 88.1453C44.8971 88.3646 44.8971 88.73 44.5107 88.9736C44.1242 89.1929 43.4963 89.1929 43.1099 88.9736C42.7235 88.7544 42.7235 88.3889 43.1099 88.1453C43.4963 87.926 44.1242 87.926 44.5107 88.1453Z" fill="#1A3962"/>
<path d="M48.1815 86.0014C48.5679 86.2206 48.5679 86.5861 48.1815 86.8297C47.7951 87.049 47.1672 87.049 46.7808 86.8297C46.3944 86.6105 46.3944 86.245 46.7808 86.0014C47.1672 85.7821 47.7951 85.7821 48.1815 86.0014Z" fill="#1A3962"/>
<path d="M26.1315 94.5771C26.5179 94.7964 26.5179 95.1618 26.1315 95.4055C25.7451 95.6247 25.1172 95.6247 24.7307 95.4055C24.3443 95.1862 24.3443 94.8208 24.7307 94.5771C25.1172 94.3335 25.7451 94.3335 26.1315 94.5771Z" fill="#1A3962"/>
<path d="M29.8027 92.4332C30.1891 92.6525 30.1891 93.018 29.8027 93.2616C29.4162 93.4808 28.7883 93.4808 28.4019 93.2616C28.0155 93.0423 28.0155 92.6769 28.4019 92.4332C28.7883 92.214 29.4162 92.214 29.8027 92.4332Z" fill="#1A3962"/>
<path d="M32.7732 91.2882C33.3201 91.2882 33.7633 91.0264 33.7633 90.7035C33.7633 90.3806 33.3201 90.1188 32.7732 90.1188C32.2263 90.1188 31.783 90.3806 31.783 90.7035C31.783 91.0264 32.2263 91.2882 32.7732 91.2882Z" fill="#1A3962"/>
<path d="M37.1686 88.1453C37.555 88.3646 37.555 88.73 37.1686 88.9736C36.7822 89.1929 36.1543 89.1929 35.7678 88.9736C35.3814 88.7544 35.3814 88.3889 35.7678 88.1453C36.1301 87.926 36.7822 87.926 37.1686 88.1453Z" fill="#1A3962"/>
<path d="M40.8395 86.0014C41.2259 86.2206 41.2259 86.5861 40.8395 86.8297C40.4531 87.049 39.8252 87.049 39.4387 86.8297C39.0523 86.6105 39.0523 86.245 39.4387 86.0014C39.8252 85.7821 40.4531 85.7821 40.8395 86.0014Z" fill="#1A3962"/>
<path d="M44.5107 83.8574C44.8971 84.0767 44.8971 84.4422 44.5107 84.6858C44.1242 84.9294 43.4963 84.9051 43.1099 84.6858C42.7235 84.4665 42.7235 84.1011 43.1099 83.8574C43.4963 83.6382 44.1242 83.6382 44.5107 83.8574Z" fill="#1A3962"/>
<path d="M48.1815 81.7134C48.5679 81.9326 48.5679 82.2981 48.1815 82.5417C47.7951 82.761 47.1672 82.761 46.7808 82.5417C46.3944 82.3224 46.3944 81.957 46.7808 81.7134C47.1672 81.4697 47.7951 81.4941 48.1815 81.7134Z" fill="#1A3962"/>
<path d="M22.4606 92.4333C22.847 92.6525 22.847 93.018 22.4606 93.2616C22.0741 93.5052 21.4463 93.4809 21.0598 93.2616C20.6734 93.0423 20.6734 92.6769 21.0598 92.4333C21.4221 92.214 22.0741 92.214 22.4606 92.4333Z" fill="#1A3962"/>
<path d="M26.1315 90.2893C26.5179 90.5086 26.5179 90.874 26.1315 91.1177C25.7451 91.3369 25.1172 91.3369 24.7307 91.1177C24.3443 90.8984 24.3443 90.533 24.7307 90.2893C25.1172 90.0701 25.7451 90.0701 26.1315 90.2893Z" fill="#1A3962"/>
<path d="M29.8027 88.1453C30.1891 88.3646 30.1891 88.73 29.8027 88.9736C29.4162 89.1929 28.7883 89.1929 28.4019 88.9736C28.0155 88.7544 28.0155 88.3889 28.4019 88.1453C28.7883 87.926 29.4162 87.926 29.8027 88.1453Z" fill="#1A3962"/>
<path d="M32.7732 87.0003C33.3201 87.0003 33.7633 86.7385 33.7633 86.4155C33.7633 86.0926 33.3201 85.8308 32.7732 85.8308C32.2263 85.8308 31.783 86.0926 31.783 86.4155C31.783 86.7385 32.2263 87.0003 32.7732 87.0003Z" fill="#1A3962"/>
<path d="M37.1686 83.8574C37.555 84.0767 37.555 84.4422 37.1686 84.6858C36.7822 84.9051 36.1543 84.9051 35.7678 84.6858C35.3814 84.4665 35.3814 84.1011 35.7678 83.8574C36.1301 83.6382 36.7822 83.6382 37.1686 83.8574Z" fill="#1A3962"/>
<path d="M40.8395 81.7135C41.2259 81.9328 41.2259 82.2982 40.8395 82.5419C40.4531 82.7611 39.8252 82.7611 39.4387 82.5419C39.0523 82.3226 39.0523 81.9572 39.4387 81.7135C39.8252 81.4943 40.4531 81.4943 40.8395 81.7135Z" fill="#1A3962"/>
<path d="M44.5107 79.5696C44.8971 79.7889 44.8971 80.1543 44.5107 80.3979C44.1242 80.6172 43.4963 80.6172 43.1099 80.3979C42.7235 80.1787 42.7235 79.8132 43.1099 79.5696C43.4963 79.3503 44.1242 79.3503 44.5107 79.5696Z" fill="#1A3962"/>
<path d="M48.1815 77.4254C48.5679 77.6447 48.5679 78.0102 48.1815 78.2538C47.7951 78.4731 47.1672 78.4731 46.7808 78.2538C46.3944 78.0345 46.3944 77.6691 46.7808 77.4254C47.1672 77.2062 47.7951 77.2062 48.1815 77.4254Z" fill="#1A3962"/>
<path d="M22.4606 88.1453C22.847 88.3646 22.847 88.73 22.4606 88.9736C22.0741 89.1929 21.4463 89.1929 21.0598 88.9736C20.6734 88.7544 20.6734 88.3889 21.0598 88.1453C21.4221 87.926 22.0741 87.926 22.4606 88.1453Z" fill="#1A3962"/>
<path d="M26.1315 86.0014C26.5179 86.2206 26.5179 86.5861 26.1315 86.8297C25.7451 87.049 25.1172 87.049 24.7307 86.8297C24.3443 86.6105 24.3443 86.245 24.7307 86.0014C25.1172 85.7821 25.7451 85.7821 26.1315 86.0014Z" fill="#1A3962"/>
<path d="M29.8027 83.8574C30.1891 84.0767 30.1891 84.4421 29.8027 84.6858C29.4162 84.905 28.7883 84.905 28.4019 84.6858C28.0155 84.4665 28.0155 84.101 28.4019 83.8574C28.7883 83.6138 29.4162 83.6382 29.8027 83.8574Z" fill="#1A3962"/>
<path d="M32.7732 82.7123C33.3201 82.7123 33.7633 82.4505 33.7633 82.1276C33.7633 81.8046 33.3201 81.5428 32.7732 81.5428C32.2263 81.5428 31.783 81.8046 31.783 82.1276C31.783 82.4505 32.2263 82.7123 32.7732 82.7123Z" fill="#1A3962"/>
<path d="M37.1686 79.5696C37.555 79.7889 37.555 80.1543 37.1686 80.3979C36.7822 80.6172 36.1543 80.6172 35.7678 80.3979C35.3814 80.1787 35.3814 79.8132 35.7678 79.5696C36.1301 79.3503 36.7822 79.3503 37.1686 79.5696Z" fill="#1A3962"/>
<path d="M40.8395 77.4254C41.2259 77.6447 41.2259 78.0102 40.8395 78.2538C40.4531 78.4731 39.8252 78.4731 39.4387 78.2538C39.0523 78.0345 39.0523 77.6691 39.4387 77.4254C39.8252 77.2062 40.4531 77.2062 40.8395 77.4254Z" fill="#1A3962"/>
<path d="M44.5107 75.306C44.8971 75.5253 44.8971 75.8907 44.5107 76.1343C44.1242 76.3536 43.4963 76.3536 43.1099 76.1343C42.7235 75.9151 42.7235 75.5496 43.1099 75.306C43.4963 75.0624 44.1242 75.0624 44.5107 75.306Z" fill="#1A3962"/>
<path d="M48.1815 73.966C47.7951 74.1852 47.1672 74.1852 46.7808 73.966C46.3944 73.7467 46.3944 73.3812 46.7808 73.1376C47.1672 72.9183 47.7951 72.9183 48.1815 73.1376V73.966Z" fill="#1A3962"/>
<path d="M22.4606 83.8574C22.847 84.0767 22.847 84.4422 22.4606 84.6858C22.0741 84.9051 21.4463 84.9051 21.0598 84.6858C20.6734 84.4665 20.6734 84.1011 21.0598 83.8574C21.4221 83.6382 22.0741 83.6382 22.4606 83.8574Z" fill="#1A3962"/>
<path d="M25.4311 82.7123C25.978 82.7123 26.4213 82.4505 26.4213 82.1276C26.4213 81.8046 25.978 81.5428 25.4311 81.5428C24.8842 81.5428 24.4409 81.8046 24.4409 82.1276C24.4409 82.4505 24.8842 82.7123 25.4311 82.7123Z" fill="#1A3962"/>
<path d="M29.8027 79.5696C30.1891 79.7889 30.1891 80.1543 29.8027 80.3979C29.4162 80.6172 28.7883 80.6172 28.4019 80.3979C28.0155 80.1787 28.0155 79.8132 28.4019 79.5696C28.7883 79.3503 29.4162 79.3503 29.8027 79.5696Z" fill="#1A3962"/>
<path d="M32.7732 78.4244C33.3201 78.4244 33.7633 78.1626 33.7633 77.8397C33.7633 77.5168 33.3201 77.255 32.7732 77.255C32.2263 77.255 31.783 77.5168 31.783 77.8397C31.783 78.1626 32.2263 78.4244 32.7732 78.4244Z" fill="#1A3962"/>
<path d="M37.1686 75.306C37.555 75.5253 37.555 75.8907 37.1686 76.1343C36.7822 76.3536 36.1543 76.3536 35.7678 76.1343C35.3814 75.9151 35.3814 75.5496 35.7678 75.306C36.1301 75.0624 36.7822 75.0624 37.1686 75.306Z" fill="#1A3962"/>
<path d="M40.8395 73.162C41.2259 73.3812 41.2259 73.7467 40.8395 73.9903C40.4531 74.2096 39.8252 74.2096 39.4387 73.9903C39.0523 73.7711 39.0523 73.4056 39.4387 73.162C39.8252 72.9183 40.4531 72.9183 40.8395 73.162Z" fill="#1A3962"/>
<path d="M44.5107 71.0179C44.8971 71.2372 44.8971 71.6026 44.5107 71.8463C44.1242 72.0655 43.4963 72.0655 43.1099 71.8463C42.7235 71.627 42.7235 71.2616 43.1099 71.0179C43.4963 70.7743 44.1242 70.7743 44.5107 71.0179Z" fill="#1A3962"/>
<path d="M18.0651 82.7123C18.612 82.7123 19.0553 82.4505 19.0553 82.1276C19.0553 81.8046 18.612 81.5428 18.0651 81.5428C17.5182 81.5428 17.075 81.8046 17.075 82.1276C17.075 82.4505 17.5182 82.7123 18.0651 82.7123Z" fill="#1A3962"/>
<path d="M22.4606 79.5696C22.847 79.7889 22.847 80.1543 22.4606 80.3979C22.0741 80.6172 21.4463 80.6172 21.0598 80.3979C20.6734 80.1787 20.6734 79.8132 21.0598 79.5696C21.4221 79.3503 22.0741 79.3503 22.4606 79.5696Z" fill="#1A3962"/>
<path d="M26.1315 77.4254C26.5179 77.6447 26.5179 78.0102 26.1315 78.2538C25.7451 78.4731 25.1172 78.4731 24.7307 78.2538C24.3443 78.0345 24.3443 77.6691 24.7307 77.4254C25.1172 77.2062 25.7451 77.2062 26.1315 77.4254Z" fill="#1A3962"/>
<path d="M29.8027 75.306C30.1891 75.5253 30.1891 75.8907 29.8027 76.1343C29.4162 76.3536 28.7883 76.3536 28.4019 76.1343C28.0155 75.9151 28.0155 75.5496 28.4019 75.306C28.7883 75.0624 29.4162 75.0624 29.8027 75.306Z" fill="#1A3962"/>
<path d="M33.4736 73.162C33.86 73.3812 33.86 73.7467 33.4736 73.9903C33.0871 74.2096 32.4592 74.2096 32.0728 73.9903C31.6864 73.7711 31.6864 73.4056 32.0728 73.162C32.4592 72.9183 33.0871 72.9183 33.4736 73.162Z" fill="#1A3962"/>
<path d="M37.1686 71.0179C37.555 71.2372 37.555 71.6026 37.1686 71.8463C36.7822 72.0655 36.1543 72.0655 35.7678 71.8463C35.3814 71.627 35.3814 71.2616 35.7678 71.0179C36.1301 70.7743 36.7822 70.7743 37.1686 71.0179Z" fill="#1A3962"/>
<path d="M40.8395 68.874C41.2259 69.0933 41.2259 69.4588 40.8395 69.7024C40.4531 69.9217 39.8252 69.9217 39.4387 69.7024C39.0523 69.4831 39.0523 69.1177 39.4387 68.874C39.8252 68.6548 40.4531 68.6548 40.8395 68.874Z" fill="#1A3962"/>
<path d="M15.0943 79.5696C15.4808 79.7889 15.4808 80.1543 15.0943 80.3979C14.7079 80.6172 14.08 80.6172 13.6936 80.3979C13.3072 80.1787 13.3072 79.8132 13.6936 79.5696C14.08 79.3503 14.7079 79.3503 15.0943 79.5696Z" fill="#1A3962"/>
<path d="M18.7655 77.4254C19.152 77.6447 19.152 78.0102 18.7655 78.2538C18.3791 78.4731 17.7512 78.4731 17.3648 78.2538C16.9783 78.0345 16.9783 77.6691 17.3648 77.4254C17.7512 77.2062 18.3791 77.2062 18.7655 77.4254Z" fill="#1A3962"/>
<path d="M22.4606 75.306C22.847 75.5253 22.847 75.8907 22.4606 76.1343C22.0741 76.3536 21.4463 76.3536 21.0598 76.1343C20.6734 75.9151 20.6734 75.5496 21.0598 75.306C21.4221 75.0624 22.0741 75.0624 22.4606 75.306Z" fill="#1A3962"/>
<path d="M26.1315 73.162C26.5179 73.3812 26.5179 73.7467 26.1315 73.9903C25.7451 74.2096 25.1172 74.2096 24.7307 73.9903C24.3443 73.7711 24.3443 73.4056 24.7307 73.162C25.1172 72.9183 25.7451 72.9183 26.1315 73.162Z" fill="#1A3962"/>
<path d="M29.8027 71.0179C30.1891 71.2372 30.1891 71.6026 29.8027 71.8463C29.4162 72.0655 28.7883 72.0655 28.4019 71.8463C28.0155 71.627 28.0155 71.2616 28.4019 71.0179C28.7883 70.7743 29.4162 70.7743 29.8027 71.0179Z" fill="#1A3962"/>
<path d="M33.4736 68.874C33.86 69.0933 33.86 69.4588 33.4736 69.7024C33.0871 69.9217 32.4592 69.9217 32.0728 69.7024C31.6864 69.4831 31.6864 69.1177 32.0728 68.874C32.4592 68.6548 33.0871 68.6548 33.4736 68.874Z" fill="#1A3962"/>
<path d="M37.1686 67.5584C36.7822 67.7777 36.1543 67.7777 35.7678 67.5584C35.3814 67.3392 35.3814 66.9737 35.7678 66.7301L37.1686 67.5584Z" fill="#1A3962"/>
<path d="M14.3698 76.2561C14.9167 76.2561 15.36 75.9943 15.36 75.6714C15.36 75.3485 14.9167 75.0867 14.3698 75.0867C13.8229 75.0867 13.3796 75.3485 13.3796 75.6714C13.3796 75.9943 13.8229 76.2561 14.3698 76.2561Z" fill="#1A3962"/>
<path d="M18.7414 73.1376C19.1278 73.3568 19.1278 73.7223 18.7414 73.9659C18.355 74.1852 17.727 74.1852 17.3406 73.9659C16.9542 73.7466 16.9542 73.3812 17.3406 73.1376C17.727 72.8939 18.355 72.8939 18.7414 73.1376Z" fill="#1A3962"/>
<path d="M22.4123 70.9937C22.7987 71.2129 22.7987 71.5784 22.4123 71.822C22.0259 72.0413 21.3979 72.0413 21.0115 71.822C20.6251 71.6028 20.6251 71.2373 21.0115 70.9937C21.3979 70.7744 22.0259 70.7744 22.4123 70.9937Z" fill="#1A3962"/>
<path d="M26.1073 68.8498C26.4938 69.069 26.4938 69.4345 26.1073 69.6781C25.7209 69.8974 25.093 69.8974 24.7066 69.6781C24.3201 69.4588 24.3201 69.0934 24.7066 68.8498C25.0688 68.6305 25.6968 68.6305 26.1073 68.8498Z" fill="#1A3962"/>
<path d="M29.7782 66.7057C30.1647 66.925 30.1647 67.2904 29.7782 67.5341C29.3918 67.7533 28.7639 67.7533 28.3775 67.5341C27.991 67.3148 27.991 66.9493 28.3775 66.7057C28.7639 66.4864 29.3918 66.4864 29.7782 66.7057Z" fill="#1A3962"/>
<path d="M11.3993 73.1376C11.7858 73.3568 11.7858 73.7223 11.3993 73.9659C11.0129 74.1852 10.385 74.1852 9.99855 73.9659C9.61214 73.7466 9.61214 73.3812 9.99855 73.1376C10.3608 72.8939 10.9888 72.8939 11.3993 73.1376Z" fill="#1A3962"/>
<path d="M15.0702 70.9937C15.4567 71.2129 15.4567 71.5784 15.0702 71.822C14.6838 72.0413 14.0559 72.0413 13.6695 71.822C13.283 71.6028 13.283 71.2373 13.6695 70.9937C14.0559 70.7744 14.6838 70.7744 15.0702 70.9937Z" fill="#1A3962"/>
<path d="M18.041 69.8486C18.5879 69.8486 19.0312 69.5868 19.0312 69.2639C19.0312 68.941 18.5879 68.6792 18.041 68.6792C17.4941 68.6792 17.0508 68.941 17.0508 69.2639C17.0508 69.5868 17.4941 69.8486 18.041 69.8486Z" fill="#1A3962"/>
<path d="M22.4123 66.7057C22.7987 66.925 22.7987 67.2904 22.4123 67.5341C22.0259 67.7533 21.3979 67.7533 21.0115 67.5341C20.6251 67.3148 20.6251 66.9493 21.0115 66.7057C21.3979 66.4864 22.0259 66.4864 22.4123 66.7057Z" fill="#1A3962"/>
<path d="M26.1073 64.5618C26.4938 64.7811 26.4938 65.1465 26.1073 65.3901C25.7209 65.6094 25.093 65.6094 24.7066 65.3901C24.3201 65.1709 24.3201 64.8054 24.7066 64.5618C25.0688 64.3425 25.6968 64.3425 26.1073 64.5618Z" fill="#1A3962"/>
<path d="M11.3993 68.8498C11.7858 69.069 11.7858 69.4345 11.3993 69.6781C11.0129 69.8974 10.385 69.8974 9.99855 69.6781C9.61214 69.4588 9.61214 69.0934 9.99855 68.8498C10.3608 68.6305 10.9888 68.6305 11.3993 68.8498Z" fill="#1A3962"/>
<path d="M14.3698 67.7047C14.9167 67.7047 15.36 67.4429 15.36 67.12C15.36 66.7971 14.9167 66.5353 14.3698 66.5353C13.8229 66.5353 13.3796 66.7971 13.3796 67.12C13.3796 67.4429 13.8229 67.7047 14.3698 67.7047Z" fill="#1A3962"/>
<path d="M18.7414 64.5618C19.1278 64.7811 19.1278 65.1465 18.7414 65.3901C18.355 65.6094 17.727 65.6094 17.3406 65.3901C16.9542 65.1709 16.9542 64.8054 17.3406 64.5618C17.727 64.3425 18.355 64.3425 18.7414 64.5618Z" fill="#1A3962"/>
<path d="M22.4123 62.4179C22.7987 62.6371 22.7987 63.0026 22.4123 63.2462C22.0259 63.4898 21.3979 63.4655 21.0115 63.2462C20.6251 63.0269 20.6251 62.6615 21.0115 62.4179C21.3979 62.1986 22.0259 62.1986 22.4123 62.4179Z" fill="#1A3962"/>
<path d="M27.4356 47.2887L2.65649 55.2067C2.65649 55.2067 20.5284 66.2432 21.4703 78.0349C22.4364 89.8267 30.6236 96.6483 35.7195 98.1101L55.8616 86.1966C55.8616 86.1966 47.2638 81.6407 45.1143 72.1147C42.989 62.5644 36.3474 54.1104 27.4356 47.2887Z" fill="#4B8EC8"/>
<path d="M25.2862 57.0826L10.554 61.7847C15.4566 66.097 20.8665 72.2365 21.3978 78.5953C22.3639 90.387 30.5511 97.2087 35.647 98.6704L48.0366 91.3372C45.9596 89.047 43.9067 85.9285 42.989 81.9086C40.8395 72.3583 34.198 63.9043 25.2862 57.0826Z" fill="white"/>
<path d="M34.9709 98.6218C29.7542 96.8189 21.736 89.9485 20.77 78.0837C19.8522 66.8036 2.46338 55.9133 2.29433 55.8158L0.941895 54.9875L27.5807 46.4847L27.8705 46.704C37.5793 54.1591 43.7861 62.8811 45.8389 71.9442C47.8918 81.0072 56.1274 85.5144 56.1998 85.5388L57.359 86.1479L35.8162 98.8898L35.5264 98.8167C35.3573 98.7436 35.1641 98.6705 34.9709 98.6218ZM4.37135 55.426C8.59781 58.2765 21.3979 67.7294 22.2191 77.9619C23.1368 89.2907 30.7928 95.7226 35.6471 97.3062L54.4609 86.1722C52.0216 84.5643 46.2012 80.0327 44.4382 72.2609C42.4819 63.6364 36.5649 55.3042 27.315 48.0927L4.37135 55.426Z" fill="#15100C"/>
<path d="M39.0041 92.5067L38.6177 92.0194C38.5694 91.9707 34.7777 87.1468 30.8894 89.0958L30.3822 89.3395L30.0199 88.9009C29.8508 88.6817 25.6485 83.7116 25.3104 75.891C25.0206 68.6552 14.4424 60.4205 14.3216 60.3474L13.1865 59.4703L14.5631 59.0561C14.9012 58.9587 15.819 58.5445 16.0605 57.8136C16.2295 57.302 16.0364 56.6198 15.4809 55.8402L14.9254 55.0362L25.5761 51.4061L25.8417 52.0639C25.89 52.2101 27.315 55.6697 30.9618 54.8413L31.3482 54.7439L31.638 55.0119C31.8312 55.2068 36.4441 59.7627 39.2456 68.3385C41.9506 76.5976 45.7906 80.6175 45.8389 80.6662L46.6359 81.4702L45.5733 81.86C45.5733 81.86 44.1484 82.4204 43.7619 83.7847C43.448 84.9298 43.9068 86.3672 45.1627 88.0239L45.6699 88.6817L39.0041 92.5067ZM34.9226 87.5122C36.9996 88.2188 38.6177 89.8267 39.3423 90.6307L43.4963 88.2431C42.3129 86.4403 41.9264 84.8079 42.337 83.3705C42.6751 82.1767 43.4963 81.4215 44.1483 80.9829C42.8925 79.4481 40.0185 75.4769 37.8449 68.8014C35.5264 61.7117 31.8554 57.4238 30.8652 56.3275C27.6772 56.8635 25.6485 54.817 24.7791 53.209L17.1715 55.8159C17.6062 56.6929 17.7028 57.5213 17.4372 58.3009C17.1715 59.0561 16.6402 59.5678 16.1088 59.9089C18.7896 62.1746 26.4938 69.1668 26.7595 75.818C27.001 81.8844 29.8026 86.1966 30.7686 87.5122C32.266 86.9519 33.6909 87.0737 34.9226 87.5122Z" fill="#15100C"/>
<path d="M29.1264 21.7562C29.1264 21.7562 28.8124 38.0552 20.915 40.5158C15.4326 42.2212 13.0175 42.3918 12.0756 42.3187C11.9307 42.3187 11.8341 42.5136 11.9548 42.6111L28.3777 56.6929C28.3777 56.6929 36.903 55.9133 43.2548 48.3607C49.6066 40.8082 51.2972 30.3808 48.9303 23.1693C46.5635 15.9578 45.9839 15.3487 44.8488 15.4462C43.7379 15.5436 29.1264 21.7562 29.1264 21.7562Z" fill="#4B8EC8"/>
<path d="M50.283 28.2125C48.7856 23.9733 48.206 23.5591 47.2641 23.6566C46.129 23.754 31.5175 29.9666 31.5175 29.9666C31.5175 29.9666 31.2035 46.2655 23.3061 48.7262C22.2193 49.0673 21.3016 49.3109 20.4563 49.5545L28.7643 56.6686C28.7643 56.6686 37.2897 55.8889 43.6414 48.3364C48.6407 42.3918 50.7419 34.7174 50.283 28.2125Z" fill="white"/>
<path d="M28.1362 57.4482L27.8947 57.2533L11.4719 43.1715C11.1821 42.9278 11.0855 42.5136 11.2304 42.1482C11.3753 41.7828 11.7376 41.5635 12.124 41.5879C12.8244 41.6366 15.0946 41.5391 20.6977 39.8093C28.0155 37.5436 28.4019 21.9025 28.4019 21.7563V21.269L28.8366 21.0741C32.2903 19.6123 43.6413 14.8128 44.8005 14.7153C46.5636 14.5692 47.2881 15.7873 49.6308 22.9257C52.2633 30.9655 49.8723 41.6122 43.8104 48.8237C37.3379 56.5224 28.7883 57.3751 28.4502 57.3995L28.1362 57.4482ZM13.5248 43.0009L28.5951 55.9134C30.1167 55.6941 37.2654 54.3298 42.6994 47.8735C48.4474 41.0519 50.7418 30.9655 48.2542 23.3886C46.0323 16.5913 45.5009 16.1284 44.9213 16.1771C44.0277 16.3233 35.3816 19.9047 29.8268 22.2435C29.7061 25.0697 28.74 38.8348 21.1083 41.198C17.4131 42.3675 15.0463 42.8304 13.5248 43.0009Z" fill="#15100C"/>
<path d="M16.6642 0.730835L1.49731 22.0242C1.49731 22.0242 22.3639 20.0995 30.1165 28.9677C37.869 37.8358 48.4955 38.3718 53.4224 36.4471L62.5032 14.7396C62.5032 14.7396 52.9152 16.2745 45.5491 9.94009C38.183 3.60568 27.8462 0.852651 16.6642 0.730835Z" fill="#4B8EC8"/>
<path d="M23.1611 9.45288L7.99414 30.7462C7.99414 30.7462 28.8608 28.8216 36.6133 37.6897C44.3658 46.5579 54.9924 47.0939 59.9192 45.1692L69.0001 23.4617C69.0001 23.4617 59.412 24.9965 52.0459 18.6621C44.6556 12.3277 34.3431 9.55033 23.1611 9.45288Z" fill="#4B8EC8"/>
<path d="M51.1041 18.7353C43.7379 12.4009 33.4012 9.64782 22.2192 9.526L13.0659 22.3654C18.983 23.0719 25.5279 24.8748 29.1748 29.0408C36.9273 37.909 47.5538 38.445 52.4807 36.5203L58.2769 22.6334C55.9101 21.9268 53.3984 20.7087 51.1041 18.7353Z" fill="white"/>
<path d="M49.7032 38.0064C44.0759 38.5181 35.937 36.7152 29.5852 29.455C22.1949 21.0254 2.05287 22.7308 1.594 22.7551L0 22.9013L16.3021 0H16.6885C28.8848 0.121816 39.0283 3.3621 46.0322 9.37979C53.0602 15.4218 62.3101 14.0331 62.4067 14.0088L63.6867 13.8139L53.9779 37.0319L53.6881 37.1537C52.6255 37.5435 51.2488 37.8603 49.7032 38.0064ZM2.99478 21.1959C8.06653 20.9279 23.9338 20.7817 30.672 28.4805C38.1347 37.0076 48.1092 37.5435 52.8911 35.8625L61.3682 15.5924C58.4701 15.7873 51.104 15.6655 45.0903 10.5005C38.4246 4.77517 28.7158 1.65669 17.0508 1.48615L2.99478 21.1959Z" fill="#15100C"/>
<path d="M46.4186 33.0364L45.8631 33.012C45.5733 32.9876 38.8109 32.5978 34.512 26.4827C30.841 21.2446 18.9103 19.6366 15.3359 19.2712C13.742 19.1007 13.5488 18.2723 13.4763 17.5171C13.428 16.9567 13.3797 16.3964 11.5442 15.7873L10.6265 15.4706L18.1858 4.50716L18.7655 4.84824C18.9104 4.92133 22.4364 6.91911 24.441 3.84936L24.7066 3.43518L25.1896 3.53264C25.4553 3.58136 31.7829 4.87261 37.9898 8.72198C39.3905 9.59905 40.6947 10.4518 41.9264 11.2557C46.0321 13.96 49.2684 16.0796 52.9394 16.5425L54.0503 16.6887L53.4707 17.6632C53.4707 17.6632 52.8669 18.7108 53.2292 19.6854C53.4707 20.3432 54.1228 20.8792 55.1613 21.2446L55.8617 21.4882L51.9975 31.7451L51.2971 31.4527C51.273 31.4527 49.1235 30.5757 47.6744 31.2335C47.1431 31.4771 46.7808 31.8913 46.5634 32.5491L46.4186 33.0364ZM14.9737 17.712C14.9737 17.712 15.0945 17.7851 15.5051 17.8338C20.287 18.321 31.8071 20.0752 35.7196 25.6543C38.9558 30.259 43.8827 31.2822 45.4525 31.5015C45.8148 30.7706 46.3703 30.2102 47.1189 29.8935C48.5197 29.2601 50.2345 29.5768 51.1763 29.8691L54.002 22.341C52.9152 21.8293 52.1907 21.0984 51.8767 20.1726C51.5627 19.3199 51.6835 18.4672 51.8526 17.8581C48.2299 17.1516 45.0661 15.0807 41.1536 12.4983C39.9219 11.6943 38.6419 10.8416 37.2411 9.98885C32.1935 6.87038 26.9044 5.45732 25.3587 5.09187C23.3783 7.65 20.4077 7.23582 18.6447 6.4562L12.8967 14.7884C14.6114 15.5924 14.8529 16.5669 14.9254 17.444C14.9495 17.5171 14.9495 17.6632 14.9737 17.712Z" fill="#15100C"/>
<path d="M27.8946 52.941L21.084 46.7528L22.0983 46.2899C22.678 46.0219 23.2093 45.559 22.6538 44.219C22.4606 43.7318 22.4606 43.1958 22.6538 42.7085C22.8712 42.1969 23.3059 41.7584 23.8373 41.5635C24.5618 41.2711 25.7693 40.6377 27.5565 39.1515C31.2516 36.1061 31.3724 31.0386 31.3724 30.9899L32.8215 31.0142C32.8215 31.2579 32.7249 36.837 28.4743 40.2966C26.9286 41.5635 25.5278 42.4649 24.3686 42.9278C24.1995 43.0009 24.0546 43.1227 24.0063 43.2932C23.958 43.3907 23.9338 43.5125 24.0063 43.683C24.5859 45.0961 24.441 46.2899 23.5957 47.0695L27.7739 50.8702C29.1022 49.6276 31.6139 48.312 34.5121 49.7495C36.0336 48.9455 42.8201 44.9499 43.5446 36.9832L44.9937 37.1294C44.1001 46.9477 35.1883 51.0894 34.8019 51.26L34.4638 51.4061L34.1498 51.2356C30.8411 49.3596 28.4742 52.2588 28.3776 52.3807L27.8946 52.941Z" fill="#15100C"/>
</svg>
