<svg width="134" height="110" viewBox="0 0 134 110" fill="none" xmlns="http://www.w3.org/2000/svg">
<path d="M25.5899 90.2699C26.0814 90.5462 26.0814 91.0066 25.5899 91.3136C25.0983 91.5898 24.2996 91.5898 23.8081 91.3136C23.3166 91.0373 23.3166 90.5768 23.8081 90.2699C24.2996 89.9936 25.0983 89.9936 25.5899 90.2699Z" fill="#1A3962"/>
<path d="M29.3684 88.8272C30.064 88.8272 30.6279 88.4974 30.6279 88.0905C30.6279 87.6836 30.064 87.3538 29.3684 87.3538C28.6728 87.3538 28.1089 87.6836 28.1089 88.0905C28.1089 88.4974 28.6728 88.8272 29.3684 88.8272Z" fill="#1A3962"/>
<path d="M34.0374 86.1259C34.733 86.1259 35.2969 85.7961 35.2969 85.3892C35.2969 84.9823 34.733 84.6525 34.0374 84.6525C33.3418 84.6525 32.7778 84.9823 32.7778 85.3892C32.7778 85.7961 33.3418 86.1259 34.0374 86.1259Z" fill="#1A3962"/>
<path d="M20.9204 87.5686C21.4119 87.8449 21.4119 88.3053 20.9204 88.6123C20.4289 88.8885 19.6302 88.8885 19.1387 88.6123C18.6471 88.336 18.6471 87.8756 19.1387 87.5686C19.5995 87.2923 20.3982 87.2923 20.9204 87.5686Z" fill="#1A3962"/>
<path d="M25.5899 84.8673C26.0814 85.1436 26.0814 85.604 25.5899 85.911C25.0983 86.1873 24.2996 86.1873 23.8081 85.911C23.3166 85.6347 23.3166 85.1743 23.8081 84.8673C24.2996 84.591 25.0983 84.591 25.5899 84.8673Z" fill="#1A3962"/>
<path d="M30.2593 82.166C30.7508 82.4423 30.7508 82.9027 30.2593 83.2097C29.7678 83.486 28.969 83.486 28.4775 83.2097C27.986 82.9334 27.986 82.473 28.4775 82.166C28.969 81.8897 29.7678 81.8897 30.2593 82.166Z" fill="#1A3962"/>
<path d="M15.3294 86.1259C16.025 86.1259 16.5888 85.7961 16.5888 85.3892C16.5888 84.9823 16.025 84.6525 15.3294 84.6525C14.6338 84.6525 14.0698 84.9823 14.0698 85.3892C14.0698 85.7961 14.6338 86.1259 15.3294 86.1259Z" fill="#1A3962"/>
<path d="M19.9988 83.4246C20.6944 83.4246 21.2583 83.0948 21.2583 82.6879C21.2583 82.281 20.6944 81.9512 19.9988 81.9512C19.3032 81.9512 18.7393 82.281 18.7393 82.6879C18.7393 83.0948 19.3032 83.4246 19.9988 83.4246Z" fill="#1A3962"/>
<path d="M24.699 80.7233C25.3946 80.7233 25.9585 80.3935 25.9585 79.9866C25.9585 79.5797 25.3946 79.2499 24.699 79.2499C24.0034 79.2499 23.4395 79.5797 23.4395 79.9866C23.4395 80.3935 24.0034 80.7233 24.699 80.7233Z" fill="#1A3962"/>
<path d="M11.5508 82.166C12.0423 82.4423 12.0423 82.9027 11.5508 83.2097C11.0593 83.486 10.2605 83.486 9.76903 83.2097C9.27751 82.9334 9.27751 82.473 9.76903 82.166C10.2605 81.8897 11.0593 81.8897 11.5508 82.166Z" fill="#1A3962"/>
<path d="M16.2202 79.4648C16.7118 79.741 16.7118 80.2014 16.2202 80.5084C15.7287 80.7847 14.93 80.7847 14.4385 80.5084C13.9469 80.2321 13.9469 79.7717 14.4385 79.4648C14.93 79.1885 15.7287 79.1885 16.2202 79.4648Z" fill="#1A3962"/>
<path d="M20.9204 76.7635C21.4119 77.0397 21.4119 77.5002 20.9204 77.8072C20.4289 78.0834 19.6302 78.0834 19.1387 77.8072C18.6471 77.5309 18.6471 77.0704 19.1387 76.7635C19.5995 76.4872 20.3982 76.4872 20.9204 76.7635Z" fill="#1A3962"/>
<path d="M6.88136 79.4648C7.37288 79.741 7.37288 80.2014 6.88136 80.5084C6.38984 80.7847 5.59111 80.7847 5.0996 80.5084C4.60808 80.2321 4.60808 79.7717 5.0996 79.4648C5.59111 79.1885 6.38984 79.1885 6.88136 79.4648Z" fill="#1A3962"/>
<path d="M11.5508 76.7635C12.0423 77.0397 12.0423 77.5002 11.5508 77.8072C11.0593 78.0834 10.2605 78.0834 9.76903 77.8072C9.27751 77.5309 9.27751 77.0704 9.76903 76.7635C10.2605 76.4872 11.0593 76.4872 11.5508 76.7635Z" fill="#1A3962"/>
<path d="M16.2202 74.0929C16.7118 74.3692 16.7118 74.8296 16.2202 75.1365C15.7287 75.4128 14.93 75.4128 14.4385 75.1365C13.9469 74.8603 13.9469 74.3999 14.4385 74.0929C14.93 73.7859 15.7287 73.7859 16.2202 74.0929Z" fill="#1A3962"/>
<path d="M2.1504 76.7635C2.64192 77.0398 2.64192 77.5002 2.1504 77.8072C1.65889 78.0834 0.860156 78.0834 0.368638 77.8072C-0.122879 77.5309 -0.122879 77.0705 0.368638 76.7635C0.860156 76.4565 1.65889 76.4565 2.1504 76.7635Z" fill="#1A3962"/>
<path d="M6.81976 74.0622C7.31128 74.3385 7.31128 74.7989 6.81976 75.1059C6.32825 75.3822 5.52959 75.3822 5.03807 75.1059C4.54655 74.8296 4.54655 74.3692 5.03807 74.0622C5.52959 73.7552 6.32825 73.7552 6.81976 74.0622Z" fill="#1A3962"/>
<path d="M11.52 71.3609C12.0115 71.6372 12.0115 72.0976 11.52 72.4046C11.0285 72.6809 10.2298 72.6809 9.73827 72.4046C9.24675 72.1283 9.24675 71.6679 9.73827 71.3609C10.2298 71.0539 11.0285 71.0539 11.52 71.3609Z" fill="#1A3962"/>
<path d="M2.1504 71.3609C2.64192 71.6372 2.64192 72.0976 2.1504 72.4046C1.65889 72.6809 0.860156 72.6809 0.368638 72.4046C-0.122879 72.1283 -0.122879 71.6679 0.368638 71.3609C0.860156 71.0539 1.65889 71.0539 2.1504 71.3609Z" fill="#1A3962"/>
<path d="M6.81976 68.6596C7.31128 68.9359 7.31128 69.3963 6.81976 69.7033C6.32825 69.9795 5.52959 69.9795 5.03807 69.7033C4.54655 69.427 4.54655 68.9666 5.03807 68.6596C5.52959 68.3833 6.32825 68.3833 6.81976 68.6596Z" fill="#1A3962"/>
<path d="M67.8911 108.749C68.3826 109.025 68.3826 109.486 67.8911 109.793C67.3996 110.069 66.6009 110.069 66.1094 109.793C65.6178 109.517 65.6178 109.056 66.1094 108.749C66.6009 108.473 67.3996 108.473 67.8911 108.749Z" fill="#1A3962"/>
<path d="M72.5913 106.048C73.0828 106.324 73.0828 106.785 72.5913 107.092C72.0998 107.368 71.3011 107.368 70.8096 107.092C70.318 106.815 70.318 106.355 70.8096 106.048C71.2704 105.772 72.0691 105.772 72.5913 106.048Z" fill="#1A3962"/>
<path d="M77.2603 103.347C77.7518 103.623 77.7518 104.083 77.2603 104.39C76.7688 104.667 75.97 104.667 75.4785 104.39C74.987 104.114 74.987 103.654 75.4785 103.347C75.97 103.07 76.7688 103.07 77.2603 103.347Z" fill="#1A3962"/>
<path d="M81.9296 100.645C82.4212 100.922 82.4212 101.382 81.9296 101.689C81.4381 101.965 80.6395 101.965 80.1479 101.689C79.6564 101.413 79.6564 100.952 80.1479 100.645C80.6395 100.369 81.4381 100.369 81.9296 100.645Z" fill="#1A3962"/>
<path d="M86.5991 97.944C87.0907 98.2203 87.0907 98.6807 86.5991 98.9877C86.1076 99.264 85.3089 99.264 84.8174 98.9877C84.3259 98.7114 84.3259 98.251 84.8174 97.944C85.3089 97.6677 86.1076 97.6677 86.5991 97.944Z" fill="#1A3962"/>
<path d="M58.5523 108.749C59.0438 109.025 59.0438 109.486 58.5523 109.793C58.0607 110.069 57.262 110.069 56.7705 109.793C56.279 109.517 56.279 109.056 56.7705 108.749C57.262 108.473 58.0607 108.473 58.5523 108.749Z" fill="#1A3962"/>
<path d="M63.2217 106.048C63.7132 106.324 63.7132 106.785 63.2217 107.092C62.7302 107.368 61.9314 107.368 61.4399 107.092C60.9484 106.815 60.9484 106.355 61.4399 106.048C61.9314 105.772 62.7302 105.772 63.2217 106.048Z" fill="#1A3962"/>
<path d="M67.8911 103.347C68.3826 103.623 68.3826 104.083 67.8911 104.39C67.3996 104.667 66.6009 104.667 66.1094 104.39C65.6178 104.114 65.6178 103.654 66.1094 103.347C66.6009 103.07 67.3996 103.07 67.8911 103.347Z" fill="#1A3962"/>
<path d="M72.5913 100.645C73.0828 100.922 73.0828 101.382 72.5913 101.689C72.0998 101.965 71.3011 101.965 70.8096 101.689C70.318 101.413 70.318 100.952 70.8096 100.645C71.2704 100.369 72.0691 100.369 72.5913 100.645Z" fill="#1A3962"/>
<path d="M77.2603 97.944C77.7518 98.2203 77.7518 98.6807 77.2603 98.9877C76.7688 99.264 75.97 99.264 75.4785 98.9877C74.987 98.7114 74.987 98.251 75.4785 97.944C75.97 97.6677 76.7688 97.6677 77.2603 97.944Z" fill="#1A3962"/>
<path d="M81.9296 95.2734C82.4212 95.5497 82.4212 96.0101 81.9296 96.3171C81.4381 96.5934 80.6395 96.5934 80.1479 96.3171C79.6564 96.0408 79.6564 95.5804 80.1479 95.2734C80.6395 94.9665 81.4381 94.9665 81.9296 95.2734Z" fill="#1A3962"/>
<path d="M52.9612 107.306C53.6568 107.306 54.2207 106.977 54.2207 106.57C54.2207 106.163 53.6568 105.833 52.9612 105.833C52.2656 105.833 51.7017 106.163 51.7017 106.57C51.7017 106.977 52.2656 107.306 52.9612 107.306Z" fill="#1A3962"/>
<path d="M58.5523 103.347C59.0438 103.623 59.0438 104.083 58.5523 104.39C58.0607 104.667 57.262 104.667 56.7705 104.39C56.279 104.114 56.279 103.654 56.7705 103.347C57.262 103.07 58.0607 103.07 58.5523 103.347Z" fill="#1A3962"/>
<path d="M63.2217 100.645C63.7132 100.922 63.7132 101.382 63.2217 101.689C62.7302 101.965 61.9314 101.965 61.4399 101.689C60.9484 101.413 60.9484 100.952 61.4399 100.645C61.9314 100.369 62.7302 100.369 63.2217 100.645Z" fill="#1A3962"/>
<path d="M67.8911 97.944C68.3826 98.2203 68.3826 98.6807 67.8911 98.9877C67.3996 99.264 66.6009 99.264 66.1094 98.9877C65.6178 98.7114 65.6178 98.251 66.1094 97.944C66.6009 97.6677 67.3996 97.6677 67.8911 97.944Z" fill="#1A3962"/>
<path d="M72.5913 95.2734C73.0828 95.5497 73.0828 96.0101 72.5913 96.3171C72.0998 96.5934 71.3011 96.5934 70.8096 96.3171C70.318 96.0408 70.318 95.5804 70.8096 95.2734C71.2704 94.9665 72.0691 94.9665 72.5913 95.2734Z" fill="#1A3962"/>
<path d="M77.2603 92.5721C77.7518 92.8484 77.7518 93.3089 77.2603 93.6158C76.7688 93.8921 75.97 93.8921 75.4785 93.6158C74.987 93.3396 74.987 92.8791 75.4785 92.5721C75.97 92.2652 76.7688 92.2652 77.2603 92.5721Z" fill="#1A3962"/>
<path d="M49.1826 103.347C49.6741 103.623 49.6741 104.083 49.1826 104.39C48.6911 104.667 47.8924 104.667 47.4009 104.39C46.9093 104.114 46.9093 103.654 47.4009 103.347C47.8924 103.07 48.6911 103.07 49.1826 103.347Z" fill="#1A3962"/>
<path d="M52.9612 101.904C53.6568 101.904 54.2207 101.574 54.2207 101.167C54.2207 100.76 53.6568 100.43 52.9612 100.43C52.2656 100.43 51.7017 100.76 51.7017 101.167C51.7017 101.574 52.2656 101.904 52.9612 101.904Z" fill="#1A3962"/>
<path d="M58.5523 97.944C59.0438 98.2203 59.0438 98.6807 58.5523 98.9877C58.0607 99.264 57.262 99.264 56.7705 98.9877C56.279 98.7114 56.279 98.251 56.7705 97.944C57.262 97.6677 58.0607 97.6677 58.5523 97.944Z" fill="#1A3962"/>
<path d="M63.2216 95.2735C63.7131 95.5497 63.7131 96.0102 63.2216 96.3171C62.7301 96.5934 61.9314 96.5934 61.4399 96.3171C60.9484 96.0102 62.7301 94.9665 63.2216 95.2735Z" fill="#1A3962"/>
<path d="M66.1094 92.5721C66.6009 92.2959 67.3996 92.2959 67.8911 92.5721C68.3826 92.8484 68.3826 93.3089 67.8911 93.6158C67.3996 93.8921 66.6009 93.8921 66.1094 93.6158C65.6178 93.3089 65.6178 92.8484 66.1094 92.5721C66.6009 92.2652 65.6178 92.8484 66.1094 92.5721Z" fill="#1A3962"/>
<path d="M70.7788 89.8708C71.2703 89.5946 72.069 89.5946 72.5605 89.8708C73.052 90.1471 73.052 90.6076 72.5605 90.9145C72.069 91.1908 71.2703 91.1908 70.7788 90.9145C70.2873 90.6076 70.2873 90.1471 70.7788 89.8708C71.2703 89.5946 70.2873 90.1471 70.7788 89.8708Z" fill="#1A3962"/>
<path d="M44.4824 100.615C44.9739 100.891 44.9739 101.351 44.4824 101.658C43.9909 101.934 43.1922 101.934 42.7007 101.658C42.2092 101.382 42.2092 100.922 42.7007 100.615C43.1922 100.338 43.9909 100.338 44.4824 100.615Z" fill="#1A3962"/>
<path d="M49.1519 97.944C49.6434 98.2203 49.6434 98.6808 49.1519 98.9877C48.6604 99.264 47.8616 99.264 47.3701 98.9877C46.8786 98.7115 46.8786 98.251 47.3701 97.944C47.8616 97.6371 48.6604 97.6371 49.1519 97.944Z" fill="#1A3962"/>
<path d="M53.8212 95.2427C54.3128 95.519 54.3128 95.9795 53.8212 96.2864C53.3297 96.5627 52.5311 96.5627 52.0395 96.2864C51.548 96.0102 51.548 95.5497 52.0395 95.2427C52.5311 94.9358 53.3297 94.9358 53.8212 95.2427Z" fill="#1A3962"/>
<path d="M38.8914 99.1719C39.587 99.1719 40.1509 98.842 40.1509 98.4351C40.1509 98.0283 39.587 97.6984 38.8914 97.6984C38.1958 97.6984 37.6318 98.0283 37.6318 98.4351C37.6318 98.842 38.1958 99.1719 38.8914 99.1719Z" fill="#1A3962"/>
<path d="M44.4824 95.2427C44.9739 95.519 44.9739 95.9795 44.4824 96.2864C43.9909 96.5627 43.1922 96.5627 42.7007 96.2864C42.2092 96.0102 42.2092 95.5497 42.7007 95.2427C43.1922 94.9358 43.9909 94.9358 44.4824 95.2427Z" fill="#1A3962"/>
<path d="M49.1519 92.5414C49.6434 92.8177 49.6434 93.2782 49.1519 93.5851C48.6604 93.8614 47.8616 93.8614 47.3701 93.5851C46.8786 93.3089 46.8786 92.8484 47.3701 92.5414C47.8616 92.2345 48.6604 92.2345 49.1519 92.5414Z" fill="#1A3962"/>
<path d="M35.1128 95.2427C35.6043 95.519 35.6043 95.9795 35.1128 96.2864C34.6213 96.5627 33.8226 96.5627 33.331 96.2864C32.8395 96.0102 32.8395 95.5497 33.331 95.2427C33.8226 94.9358 34.6213 94.9358 35.1128 95.2427Z" fill="#1A3962"/>
<path d="M39.7822 92.5414C40.2738 92.8177 40.2738 93.2782 39.7822 93.5851C39.2907 93.8614 38.492 93.8614 38.0005 93.5851C37.509 93.3089 37.509 92.8484 38.0005 92.5414C38.492 92.2345 39.2907 92.2345 39.7822 92.5414Z" fill="#1A3962"/>
<path d="M44.4824 89.8401C44.9739 90.1164 44.9739 90.5769 44.4824 90.8838C43.9909 91.1601 43.1922 91.1601 42.7007 90.8838C42.2092 90.6076 42.2092 90.1471 42.7007 89.8401C43.1922 89.5639 43.9909 89.5639 44.4824 89.8401Z" fill="#1A3962"/>
<path d="M30.4434 92.5414C30.9349 92.8177 30.9349 93.2782 30.4434 93.5851C29.9519 93.8921 29.1531 93.8614 28.6616 93.5851C28.1701 93.3089 28.1701 92.8484 28.6616 92.5414C29.1531 92.2345 29.9519 92.2345 30.4434 92.5414Z" fill="#1A3962"/>
<path d="M35.1128 89.8401C35.6043 90.1164 35.6043 90.5769 35.1128 90.8838C34.6213 91.1601 33.8226 91.1601 33.331 90.8838C32.8395 90.6076 32.8395 90.1471 33.331 89.8401C33.8226 89.5639 34.6213 89.5639 35.1128 89.8401Z" fill="#1A3962"/>
<path d="M39.7822 87.1389C40.2738 87.4152 40.2738 87.8756 39.7822 88.1825C39.2907 88.4588 38.492 88.4588 38.0005 88.1825C37.509 87.9063 37.509 87.4459 38.0005 87.1389C38.492 86.8626 39.2907 86.8626 39.7822 87.1389Z" fill="#1A3962"/>
<path d="M128.716 89.9015C129.208 90.1778 129.208 90.6382 128.716 90.9452C128.225 91.2214 127.426 91.2214 126.935 90.9452C126.443 90.6689 126.443 90.2085 126.935 89.9015C127.426 89.6253 128.225 89.6253 128.716 89.9015Z" fill="#1A3962"/>
<path d="M132.494 88.4588C133.19 88.4588 133.754 88.129 133.754 87.7221C133.754 87.3152 133.19 86.9854 132.494 86.9854C131.799 86.9854 131.235 87.3152 131.235 87.7221C131.235 88.129 131.799 88.4588 132.494 88.4588Z" fill="#1A3962"/>
<path d="M119.377 89.9015C119.869 90.1778 119.869 90.6382 119.377 90.9452C118.886 91.2214 118.087 91.2214 117.596 90.9452C117.104 90.6689 117.104 90.2085 117.596 89.9015C118.056 89.6253 118.855 89.6253 119.377 89.9015Z" fill="#1A3962"/>
<path d="M124.047 87.2002C124.538 87.4765 124.538 87.937 124.047 88.2439C123.555 88.5202 122.757 88.5202 122.265 88.2439C121.774 87.9677 121.774 87.5072 122.265 87.2002C122.757 86.924 123.555 86.924 124.047 87.2002Z" fill="#1A3962"/>
<path d="M128.716 84.4989C129.208 84.7752 129.208 85.2357 128.716 85.5426C128.225 85.8189 127.426 85.8189 126.935 85.5426C126.443 85.2664 126.443 84.8059 126.935 84.4989C127.426 84.2227 128.225 84.2227 128.716 84.4989Z" fill="#1A3962"/>
<path d="M133.386 81.7977C133.877 82.0739 133.877 82.5344 133.386 82.8413C132.894 83.1176 132.096 83.1176 131.604 82.8413C131.112 82.5651 131.112 82.1046 131.604 81.7977C132.096 81.5214 132.894 81.5214 133.386 81.7977Z" fill="#1A3962"/>
<path d="M113.786 88.4588C114.482 88.4588 115.046 88.129 115.046 87.7221C115.046 87.3152 114.482 86.9854 113.786 86.9854C113.091 86.9854 112.527 87.3152 112.527 87.7221C112.527 88.129 113.091 88.4588 113.786 88.4588Z" fill="#1A3962"/>
<path d="M119.377 84.4989C119.869 84.7752 119.869 85.2357 119.377 85.5426C118.886 85.8189 118.087 85.8189 117.596 85.5426C117.104 85.2664 117.104 84.8059 117.596 84.4989C118.056 84.2227 118.855 84.2227 119.377 84.4989Z" fill="#1A3962"/>
<path d="M124.047 81.7977C124.538 82.0739 124.538 82.5344 124.047 82.8413C123.555 83.1176 122.757 83.1176 122.265 82.8413C121.774 82.5651 121.774 82.1046 122.265 81.7977C122.757 81.5214 123.555 81.5214 124.047 81.7977Z" fill="#1A3962"/>
<path d="M89.5176 95.3041C90.0091 95.0279 90.8077 95.0279 91.2993 95.3041C91.7908 95.5804 91.7908 96.0408 91.2993 96.3478C90.8077 96.6241 90.0091 96.6241 89.5176 96.3478C89.026 96.0408 89.026 95.5804 89.5176 95.3041Z" fill="#1A3962"/>
<path d="M95.9687 93.6158C95.4772 93.8921 94.6785 93.8921 94.187 93.6158C93.6955 93.3396 93.6955 92.8791 94.187 92.5721C94.6785 92.2959 95.4772 92.2959 95.9687 92.5721C96.4603 92.8791 96.4603 93.3396 95.9687 93.6158C95.4772 93.9228 96.4603 93.3396 95.9687 93.6158Z" fill="#1A3962"/>
<path d="M100.669 89.9015C101.16 90.1778 101.16 90.6382 100.669 90.9452C100.177 91.2214 99.3787 91.2214 98.8872 90.9452C98.3957 90.6689 98.3957 90.2085 98.8872 89.9015C99.348 89.6253 100.147 89.6253 100.669 89.9015Z" fill="#1A3962"/>
<path d="M105.338 87.2002C105.83 87.4765 105.83 87.937 105.338 88.2439C104.847 88.5202 104.048 88.5202 103.557 88.2439C103.065 87.9677 103.065 87.5072 103.557 87.2002C104.048 86.924 104.847 86.924 105.338 87.2002Z" fill="#1A3962"/>
<path d="M110.008 84.4989C110.499 84.7752 110.499 85.2357 110.008 85.5426C109.516 85.8189 108.718 85.8189 108.226 85.5426C107.735 85.2664 107.735 84.8059 108.226 84.4989C108.718 84.2227 109.516 84.2227 110.008 84.4989Z" fill="#1A3962"/>
<path d="M114.677 81.7977C115.169 82.0739 115.169 82.5344 114.677 82.8413C114.186 83.1176 113.387 83.1176 112.895 82.8413C112.404 82.5651 112.404 82.1046 112.895 81.7977C113.387 81.5214 114.186 81.5214 114.677 81.7977Z" fill="#1A3962"/>
<path d="M119.377 79.0964C119.869 79.3726 119.869 79.8331 119.377 80.1401C118.886 80.4163 118.087 80.4163 117.596 80.1401C117.104 79.8638 117.104 79.4033 117.596 79.0964C118.056 78.8201 118.855 78.8201 119.377 79.0964Z" fill="#1A3962"/>
<path d="M84.8174 92.6028C85.3089 92.3266 86.1076 92.3266 86.5991 92.6028C87.0907 92.8791 87.0907 93.3396 86.5991 93.6465C86.1076 93.9228 85.3089 93.9228 84.8174 93.6465C84.3259 93.3396 84.3259 92.8791 84.8174 92.6028Z" fill="#1A3962"/>
<path d="M91.2993 89.9015C91.7908 90.1778 91.7908 90.6382 91.2993 90.9452C90.8077 91.2214 90.0091 91.2214 89.5176 90.9452C89.026 90.6689 89.026 90.2085 89.5176 89.9015C90.0091 89.6253 90.8077 89.6253 91.2993 89.9015Z" fill="#1A3962"/>
<path d="M95.9687 87.2002C96.4603 87.4765 96.4603 87.937 95.9687 88.2439C95.4772 88.5202 94.6785 88.5202 94.187 88.2439C93.6955 87.9677 93.6955 87.5072 94.187 87.2002C94.6785 86.924 95.4772 86.924 95.9687 87.2002Z" fill="#1A3962"/>
<path d="M100.669 84.4989C101.16 84.7752 101.16 85.2357 100.669 85.5426C100.177 85.8189 99.3787 85.8189 98.8872 85.5426C98.3957 85.2664 98.3957 84.8059 98.8872 84.4989C99.348 84.2227 100.147 84.2227 100.669 84.4989Z" fill="#1A3962"/>
<path d="M105.338 81.7977C105.83 82.0739 105.83 82.5344 105.338 82.8413C104.847 83.1176 104.048 83.1176 103.557 82.8413C103.065 82.5651 103.065 82.1046 103.557 81.7977C104.048 81.5214 104.847 81.5214 105.338 81.7977Z" fill="#1A3962"/>
<path d="M109.117 80.3549C109.813 80.3549 110.376 80.0251 110.376 79.6183C110.376 79.2114 109.813 78.8815 109.117 78.8815C108.421 78.8815 107.857 79.2114 107.857 79.6183C107.857 80.0251 108.421 80.3549 109.117 80.3549Z" fill="#1A3962"/>
<path d="M114.677 76.3951C115.169 76.6714 115.169 77.1318 114.677 77.4388C114.186 77.715 113.387 77.715 112.895 77.4388C112.404 77.1625 112.404 76.7021 112.895 76.3951C113.387 76.1189 114.186 76.1189 114.677 76.3951Z" fill="#1A3962"/>
<path d="M80.1479 89.9015C80.6395 89.6253 81.4381 89.6253 81.9296 89.9015C82.4212 90.1778 82.4212 90.6382 81.9296 90.9452C81.4381 91.2521 80.6395 91.2215 80.1479 90.9452C79.6564 90.6382 79.6564 90.1778 80.1479 89.9015Z" fill="#1A3962"/>
<path d="M86.6299 87.2002C87.1214 87.4765 87.1214 87.937 86.6299 88.2439C86.1384 88.5202 85.3397 88.5202 84.8481 88.2439C84.3566 87.9677 84.3566 87.5072 84.8481 87.2002C85.3397 86.924 86.1384 86.924 86.6299 87.2002Z" fill="#1A3962"/>
<path d="M91.2993 84.4989C91.7908 84.7752 91.7908 85.2357 91.2993 85.5426C90.8077 85.8189 90.0091 85.8189 89.5176 85.5426C89.026 85.2664 89.026 84.8059 89.5176 84.4989C90.0091 84.2227 90.8077 84.2227 91.2993 84.4989Z" fill="#1A3962"/>
<path d="M95.9687 81.7977C96.4603 82.0739 96.4603 82.5344 95.9687 82.8413C95.4772 83.1176 94.6785 83.1176 94.187 82.8413C93.6955 82.5651 93.6955 82.1046 94.187 81.7977C94.6785 81.5214 95.4772 81.5214 95.9687 81.7977Z" fill="#1A3962"/>
<path d="M100.669 79.0964C101.16 79.3726 101.16 79.8331 100.669 80.1401C100.177 80.4163 99.3787 80.4163 98.8872 80.1401C98.3957 79.8638 98.3957 79.4033 98.8872 79.0964C99.348 78.8201 100.147 78.8201 100.669 79.0964Z" fill="#1A3962"/>
<path d="M105.338 76.3951C105.83 76.6714 105.83 77.1318 105.338 77.4388C104.847 77.715 104.048 77.715 103.557 77.4388C103.065 77.1625 103.065 76.7021 103.557 76.3951C104.048 76.1189 104.847 76.1189 105.338 76.3951Z" fill="#1A3962"/>
<path d="M110.008 73.7245C110.499 74.0008 110.499 74.4612 110.008 74.7682C109.516 75.0444 108.718 75.0444 108.226 74.7682C107.735 74.4919 107.735 74.0315 108.226 73.7245C108.718 73.4175 109.516 73.4175 110.008 73.7245Z" fill="#1A3962"/>
<path d="M75.4785 87.2002C75.97 86.924 76.7688 86.924 77.2603 87.2002C77.7518 87.4765 77.7518 87.937 77.2603 88.2439C76.7688 88.5202 75.97 88.5202 75.4785 88.2439C74.987 87.937 74.987 87.4765 75.4785 87.2002C75.97 86.924 74.987 87.4765 75.4785 87.2002Z" fill="#1A3962"/>
<path d="M81.9605 84.499C82.4521 84.7753 82.4521 85.2357 81.9605 85.5427C81.469 85.8189 80.6703 85.8189 80.1788 85.5427C79.6565 85.2357 81.4383 84.2227 81.9605 84.499Z" fill="#1A3962"/>
<path d="M86.6302 81.7977C87.1217 82.074 87.1217 82.5344 86.6302 82.8414C86.1387 83.1177 85.3399 83.1177 84.8484 82.8414C84.3262 82.5651 86.1387 81.5214 86.6302 81.7977Z" fill="#1A3962"/>
<path d="M91.2992 79.0964C91.7907 79.3727 91.7907 79.8331 91.2992 80.1401C90.8077 80.4164 90.009 80.4164 89.5175 80.1401C89.026 79.8638 90.8077 78.8201 91.2992 79.0964Z" fill="#1A3962"/>
<path d="M95.9687 76.3951C96.4602 76.6714 96.4602 77.1318 95.9687 77.4388C95.4772 77.715 94.6785 77.715 94.187 77.4388C93.6954 77.1625 95.4772 76.1189 95.9687 76.3951Z" fill="#1A3962"/>
<path d="M98.8564 73.7245C99.3479 73.4483 100.147 73.4483 100.638 73.7245C101.13 74.0008 101.13 74.4613 100.638 74.7682C100.147 75.0445 99.3479 75.0445 98.8564 74.7682C98.3649 74.4613 98.3649 74.0008 98.8564 73.7245C99.3479 73.4176 98.3649 74.0008 98.8564 73.7245Z" fill="#1A3962"/>
<path d="M103.557 71.0232C104.048 70.747 104.847 70.747 105.338 71.0232C105.83 71.2995 105.83 71.7599 105.338 72.0669C104.847 72.3432 104.048 72.3432 103.557 72.0669C103.034 71.7599 103.034 71.2995 103.557 71.0232C104.048 70.7163 103.034 71.2995 103.557 71.0232Z" fill="#1A3962"/>
<path d="M116.951 51.93L62.1157 83.5474L7.31152 51.93L62.1157 20.3127L116.951 51.93Z" fill="#255086"/>
<path d="M7.31152 51.93V64.7918L62.1157 96.4092V83.5473L7.31152 51.93Z" fill="#4B8EC8"/>
<path d="M116.95 51.93V64.7918L62.1152 96.4092V83.5473L116.95 51.93Z" fill="#15100C"/>
<path d="M117.718 51.4696L116.92 51.0091L62.0849 19.3918L7.24992 51.0091L6.45117 51.4696V52.3905V65.2523L61.2861 96.8696L62.0849 97.3301L62.8835 96.8696L117.319 65.4671L117.718 65.2523V52.3905V51.4696ZM62.1155 21.2029L115.353 51.93L90.5621 66.2346L62.1155 82.6572L8.87809 51.93L62.1155 21.2029ZM8.07934 64.3314V53.3114L61.3169 84.0385V95.0585L8.07934 64.3314ZM116.152 64.3314L62.9143 95.0278V84.0078L116.152 53.2807V64.3314Z" fill="#140F0C"/>
<path d="M62.1153 20.3127L27.5863 40.2347C18.2474 45.6373 10.4139 39.7435 10.4139 39.7435C9.40014 49.812 19.8756 58.407 24.2685 61.538C24.76 61.9371 25.2822 62.3054 25.8659 62.6431L62.1461 83.578L116.981 51.9607L62.1153 20.3127Z" fill="#4B8EC8"/>
<path d="M26.1425 62.6431L62.4226 83.5781L111.697 55.1532L62.822 26.9431L28.2929 46.8651C20.5515 51.3468 13.8546 48.0623 11.7964 46.8037C14.469 53.6797 21.2581 59.1744 24.5758 61.538C25.0366 61.9371 25.5589 62.3054 26.1425 62.6431Z" fill="white"/>
<path d="M62.1156 84.4682L25.4361 63.3184C24.8832 63.0114 24.3302 62.6124 23.7465 62.1519C19.1693 58.8981 8.57094 50.1189 9.61541 39.6821L9.76901 38.3008L10.875 39.1296C11.1822 39.3445 18.4013 44.6243 27.1872 39.5594L62.1156 19.3918L116.889 51.0091C117.596 51.4389 117.596 52.4519 116.889 52.8816L62.1156 84.4682ZM11.1207 41.1249C11.1207 50.211 20.521 57.9158 24.6989 60.8934C25.2518 61.3232 25.7434 61.6608 26.2349 61.9678L62.1156 82.6572L115.353 51.93L62.1156 21.2029L27.9551 40.91C20.4288 45.2689 13.7626 42.5676 11.1207 41.1249Z" fill="#140F0C"/>
<path d="M67.8601 32.4685C66.5085 32.4685 65.1567 32.1615 64.1123 31.5476C62.9449 30.8723 62.3306 29.9514 62.3306 28.9077C62.3306 27.8947 62.9756 26.9431 64.1123 26.2985L76.4617 19.1769C79.1958 17.6114 83.4658 17.6114 86.1691 19.1769C87.613 20.0057 88.4117 21.1722 88.4117 22.4308C88.4117 23.6893 87.613 24.8558 86.1691 25.6846L78.2741 30.2277L77.4754 28.877L85.3705 24.3339C86.3228 23.7814 86.8143 23.1061 86.8143 22.4308C86.8143 21.7554 86.292 21.0801 85.3705 20.5276C83.1586 19.269 79.4415 19.269 77.2297 20.5276L64.8803 27.6492C64.2351 28.0175 63.8972 28.478 63.8972 28.9077C63.8972 29.3375 64.2659 29.7979 64.8803 30.1662C66.5084 31.0871 69.2118 31.0871 70.8092 30.1662L81.8991 23.7814L82.6978 25.1321L71.6079 31.5169C70.5635 32.1615 69.2118 32.4685 67.8601 32.4685Z" fill="#140F0C"/>
<path d="M61.747 87.9984L6.91211 57.087L7.68011 56.1968L62.515 87.1081L61.747 87.9984Z" fill="#140F0C"/>
<path d="M61.7164 93.0019L6.91211 61.5073L7.68011 60.6478L62.515 92.1424L61.7164 93.0019Z" fill="#140F0C"/>
<path d="M62.5146 88.4281V87.0467L116.551 56.1354L116.489 57.5168L62.5146 88.4281Z" fill="#4B8EC8"/>
<path d="M62.5146 92.6335V91.2521L116.551 60.3408L116.489 61.7222L62.5146 92.6335Z" fill="#4B8EC8"/>
<path d="M103.188 40.3268L103.311 32.6834L99.9625 32.6219C99.9318 32.5913 99.901 32.5606 99.8703 32.4992L97.0748 40.511L95.9382 40.4803L93.0812 44.348L80.5168 49.3208L63.0065 50.9784L50.2578 48.8604L38.492 38.9147C38.5535 38.5771 38.6456 38.2701 38.7071 37.9324L35.2357 31.4555C35.205 31.5169 35.1436 31.5476 35.1129 31.609L31.7029 31.5476L31.5801 40.204C31.5801 40.2961 31.5801 40.4189 31.5801 40.511V40.91L31.6415 41.5546C32.0716 46.4354 35.4508 51.3161 41.8712 55.1225C55.7566 63.4105 78.4586 63.7175 92.559 55.8592C99.0716 52.2063 102.635 47.4483 103.188 42.5983L103.219 42.4448C103.249 41.4932 103.25 41.1249 103.188 40.3268Z" fill="#4B8EC8"/>
<path d="M67.9832 62.6124C58.3064 62.6124 48.599 60.4329 41.3184 56.0741C34.8672 52.237 31.0886 47.1414 30.6278 41.7695L30.5664 41.1249L30.72 30.6881L34.6522 30.7495L35.2666 30.0128L36.0653 31.1179L39.7209 37.9325L39.6288 38.3008C39.598 38.4236 39.5673 38.5464 39.5366 38.6692L50.6572 48.0623L63.0066 50.1189L80.2711 48.4614L92.4669 43.642L95.4775 39.5901H96.4298L99.5632 30.6267L100.454 31.7011L104.325 31.7625L104.202 40.3268C104.263 41.1249 104.263 41.5547 104.202 42.629L104.171 42.8439C103.526 48.2465 99.594 53.2193 93.0506 56.8722C86.0465 60.6785 77.0148 62.6124 67.9832 62.6124ZM32.5939 32.622L32.471 41.0328L32.5325 41.5853C32.9319 46.3433 36.4032 50.8863 42.3014 54.4164C55.9103 62.5203 78.2129 62.858 92.0369 55.1532C98.0272 51.8072 101.621 47.3563 102.174 42.5983L102.236 42.3834C102.267 41.4625 102.267 41.1249 102.236 40.4189V40.3268L102.328 33.635L100.485 33.6043L97.72 41.5239L96.3683 41.4932L93.6343 45.1768L80.5476 50.3031L62.9144 51.9914L49.7971 49.812L37.4169 39.3445L37.5091 38.792C37.5398 38.5464 37.6013 38.3315 37.6627 38.0859L34.7136 32.5913L32.5939 32.622Z" fill="#16110D"/>
<path d="M34.376 32.5913C35.7277 34.4637 37.2636 36.5818 38.5846 38.3929C39.4447 34.8628 42.2402 31.4862 47.0018 28.8156C58.4603 22.4308 76.8615 22.707 88.1357 29.3988C92.7744 32.1615 95.4777 35.5995 96.2457 39.0989L100.178 32.8982C99.8092 32.4071 99.3792 31.916 98.9491 31.4248C99.8092 31.7932 100.393 32.0695 100.639 32.1922C99.5021 31.0565 90.409 17.9798 90.409 17.9798L69.6731 12.8228L50.3503 15.3399L37.6937 25.5311L36.8028 29.5523L35.3897 30.0128C34.1916 31.0564 35.1747 31.5169 34.376 32.5913Z" fill="#16110D"/>
<path d="M95.7848 41.616L95.2933 39.3445C94.5253 35.9372 91.8834 32.8061 87.644 30.2583C76.6463 23.72 58.6445 23.4437 47.4625 29.6751C43.1002 32.1001 40.3355 35.2005 39.5061 38.6385L39.0145 40.6644L37.7857 38.9761C36.4648 37.165 34.9288 35.047 33.5771 33.1745L33.1777 32.6219L33.6079 32.0694C33.7922 31.8239 33.7921 31.7318 33.7921 31.4248C33.7921 30.8109 33.8536 30.1048 34.7445 29.3374L35.0824 29.1533L35.9733 28.8463L36.8334 25.0399L49.9508 14.4497L69.7344 11.8712L91.0232 17.151L91.2383 17.4579C94.7403 22.4921 100.577 30.7495 101.345 31.5476L101.929 32.1308L101.376 32.8675L95.7848 41.616ZM66.8774 23.2595C74.7417 23.2595 82.6675 25.0399 88.5964 28.6007C92.4978 30.9336 95.1704 33.7577 96.4914 36.8888L98.949 32.9903C98.7032 32.6834 98.4574 32.4071 98.181 32.1001L94.9861 28.6621L97.5051 29.7979C94.8325 26.145 90.8696 20.4355 89.7637 18.87L69.5501 13.8357L50.6574 16.2914L38.4923 26.1143L37.5399 30.3197L35.8197 30.9029C35.6661 31.0564 35.6661 31.1485 35.6661 31.3941C35.6661 31.6704 35.666 32.0694 35.4817 32.5606C36.3726 33.7884 37.325 35.1084 38.2158 36.3362C39.5675 33.1438 42.3937 30.289 46.4794 27.9868C52.1626 24.8251 59.5046 23.2595 66.8774 23.2595Z" fill="#16110D"/>
<path d="M97.8427 60.6785L103.28 51.3161L96.9825 47.2335C96.9518 47.2028 96.9211 47.1721 96.8904 47.1721C96.2145 46.773 95.2622 46.8344 94.187 47.4177C92.0366 48.6148 90.2856 51.5617 90.2549 54.0174C90.2241 55.0918 90.5621 55.8899 91.115 56.3503C91.2072 56.4424 91.3301 56.5038 91.4222 56.5652L97.8427 60.6785Z" fill="#4B8EC8"/>
<path d="M87.2752 25.9608C98.1808 32.4685 98.0271 42.7211 86.9373 48.9218C75.8474 55.0918 58.0606 54.8462 47.155 48.3386C36.2495 41.8309 36.4031 31.5783 47.493 25.3776C58.5829 19.2076 76.4004 19.4839 87.2752 25.9608Z" fill="#4B8EC8"/>
<path d="M42.3631 16.9975C28.232 24.8864 28.0476 37.9631 41.933 46.2511C55.8184 54.5392 78.5204 54.8462 92.6208 46.9879C106.752 39.0989 106.936 26.0222 93.0509 17.7341C79.1962 9.4461 56.4943 9.10847 42.3631 16.9975ZM87.8899 44.1331C76.4314 50.5179 58.0302 50.2417 46.756 43.5499C35.4818 36.8581 35.6355 26.2064 47.094 19.8215C58.5525 13.4367 76.9536 13.7129 88.2278 20.4048C99.502 27.1273 99.3484 37.7482 87.8899 44.1331Z" fill="white"/>
<path d="M68.1063 53.6183C58.4296 53.6183 48.7222 51.4389 41.4416 47.08C34.4067 42.9053 30.5975 37.3492 30.6896 31.4555C30.7818 25.5618 34.7446 20.1285 41.9024 16.1686C56.2485 8.15688 79.442 8.49455 93.5731 16.9054C100.608 21.0801 104.417 26.6361 104.325 32.5299C104.233 38.4236 100.27 43.8568 93.1123 47.8167C86.1697 51.6844 77.1687 53.6183 68.1063 53.6183ZM66.9083 12.2395C58.1839 12.2395 49.5208 14.0813 42.8546 17.8263C36.342 21.4484 32.7171 26.2985 32.6249 31.4862C32.5635 36.6432 36.0348 41.616 42.4553 45.4224C56.0642 53.5262 78.3668 53.8639 92.1907 46.1591C98.7034 42.5369 102.328 37.6869 102.42 32.4992C102.482 27.3422 99.0106 22.3693 92.5901 18.563C85.5553 14.3576 76.1857 12.2395 66.9083 12.2395ZM67.9835 49.6892C60.1192 49.6892 52.1935 47.9088 46.2646 44.348C40.52 40.91 37.3865 36.3669 37.448 31.5169C37.5094 26.6668 40.7657 22.2158 46.6332 18.962C58.3375 12.4237 77.2302 12.6999 88.7194 19.5759C94.464 23.0139 97.5974 27.557 97.536 32.4071C97.4745 37.2571 94.2183 41.7081 88.3508 44.9619C82.6983 48.1237 75.3563 49.6892 67.9835 49.6892ZM67.0005 16.138C59.9656 16.138 52.9615 17.6421 47.5548 20.6503C42.3324 23.5665 39.414 27.4343 39.3526 31.5783C39.2912 35.6916 42.0867 39.6514 47.2476 42.7211C58.2453 49.2594 76.2471 49.5357 87.4292 43.3043C92.6515 40.3881 95.5699 36.5204 95.6314 32.3764C95.6928 28.2631 92.8973 24.3032 87.7364 21.2336C82.0839 17.857 74.5268 16.138 67.0005 16.138Z" fill="#16110D"/>
<path d="M67.9218 31.2406C71.8232 33.5735 71.7617 37.2264 67.7989 39.4366C63.836 41.6467 57.477 41.5546 53.6063 39.2217C49.7049 36.8887 49.7664 33.2359 53.7292 31.0257C57.6614 28.8156 64.0204 28.9076 67.9218 31.2406Z" fill="white"/>
<path d="M60.9175 37.165C58.0913 37.165 55.2651 36.5204 53.1147 35.2004C50.9336 33.9112 49.7355 32.1308 49.7662 30.2276C49.7969 28.3244 51.0258 26.6054 53.2683 25.3469C57.5691 22.9525 64.2045 23.0446 68.4131 25.5617C70.5942 26.851 71.7924 28.6314 71.7616 30.5346C71.7309 32.4378 70.5021 34.1568 68.2595 35.4153C66.1706 36.5818 63.5594 37.165 60.9175 37.165ZM60.5796 25.531C58.2756 25.531 55.9409 26.0222 54.1899 27.0045C52.5925 27.8947 51.7015 29.0305 51.6708 30.2276C51.6401 31.4248 52.5003 32.5912 54.0977 33.5428C57.7227 35.6916 63.6516 35.7837 67.3379 33.727C68.9354 32.8368 69.8263 31.7011 69.857 30.5039C69.8878 29.3067 69.0275 28.1402 67.4301 27.1887C65.5562 26.1143 63.0679 25.531 60.5796 25.531Z" fill="#16110D"/>
<path d="M91.4839 50.1189L97.6586 53.9867L102.389 50.7328L95.7539 46.6809L91.4839 50.1189Z" fill="#FFEECC"/>
<path d="M98.1501 62.0292L90.9003 57.3326C90.7774 57.2712 90.6238 57.1791 90.5009 57.0564C89.7022 56.381 89.2721 55.3066 89.3028 53.956C89.3335 51.1626 91.2996 47.9088 93.7265 46.5582C95.0475 45.8214 96.3377 45.7294 97.3515 46.3126L97.5357 46.4354L104.571 51.0091L98.1501 62.0292ZM95.8462 47.8474C95.4775 47.8474 95.0782 47.9702 94.6481 48.2158C92.8049 49.2288 91.2382 51.8687 91.2075 53.9867C91.2075 54.7234 91.3918 55.276 91.7297 55.5829L91.9755 55.7364L97.5357 59.3586L102.021 51.6538L96.4913 48.0623C96.2763 47.9088 96.0612 47.8474 95.8462 47.8474Z" fill="#16110D"/>
<path d="M103.28 51.3161C102.604 50.9477 101.683 51.0091 100.638 51.5923C98.4879 52.7895 96.7369 55.7364 96.7061 58.1921C96.6754 59.4199 97.1055 60.3101 97.8121 60.7092L104.325 67.8308L112.65 54.6927L103.28 51.3161Z" fill="#4B8EC8"/>
<path d="M98.1499 53.9867L106.198 58.3149L111.697 54.1402L101.99 51.0092L98.1499 53.9867Z" fill="#FFEECC"/>
<path d="M104.571 69.2735L97.198 61.4152C96.3071 60.9241 95.7234 59.6962 95.7541 58.1614C95.7848 55.368 97.7509 52.1142 100.178 50.7636C101.437 50.0576 102.697 49.9655 103.68 50.4566L114.063 54.263L104.571 69.2735ZM102.328 52.0528C101.99 52.0528 101.56 52.1756 101.13 52.4212C99.2869 53.4341 97.7202 56.0741 97.6895 58.1921C97.6895 59.0209 97.9045 59.6349 98.3346 59.8497L104.171 66.3574L111.298 55.1225L102.881 52.1449C102.697 52.0835 102.512 52.0528 102.328 52.0528Z" fill="#16110D"/>
<path d="M118.702 60.6785C118.579 60.5864 118.456 60.525 118.303 60.4636L113.48 55.0611C112.466 54.4164 111.022 54.4471 109.425 55.3373C106.291 57.087 103.711 61.3845 103.68 64.976C103.649 66.695 104.202 67.9228 105.154 68.5368C105.339 68.6596 105.554 68.7517 105.769 68.8437L112.374 70.839C112.374 70.839 112.619 70.9925 112.773 71.0539L120.115 74.7068L125.43 65.283L118.702 60.6785Z" fill="#4B8EC8"/>
<path d="M106.199 58.3149L120.115 67.5545L124.323 64.4849L112.681 54.6927L107.09 57.0563L106.199 58.3149Z" fill="#FFEECC"/>
<path d="M120.514 75.9347L105.339 69.6726C105.154 69.6112 104.878 69.4884 104.632 69.3042C103.373 68.4754 102.728 66.9099 102.728 64.9453C102.789 61.0162 105.523 56.4117 108.964 54.5086C110.807 53.4649 112.65 53.4035 114.002 54.263L126.689 64.9453L120.514 75.9347ZM111.913 55.5522C111.329 55.5522 110.653 55.7671 109.916 56.1662C107.12 57.7317 104.694 61.7529 104.663 64.976C104.632 66.296 105.032 67.2783 105.707 67.7387C105.83 67.8308 105.953 67.8922 106.107 67.9229L119.746 73.4176L124.201 65.5286L112.957 55.8285C112.65 55.6443 112.312 55.5522 111.913 55.5522Z" fill="#16110D"/>
<path d="M131.665 69.3042L125.552 65.3136C125.521 65.283 125.491 65.2523 125.429 65.2523C124.753 64.8532 123.801 64.9146 122.757 65.4979C120.606 66.695 118.855 69.6419 118.825 72.0976C118.794 73.4482 119.316 74.3384 120.115 74.7068L126.412 78.8201L131.665 69.3042Z" fill="#4B8EC8"/>
<path d="M120.453 67.8001L127.027 72.1897L130.713 68.6596L124.17 65.0067L120.453 67.8001Z" fill="#FFEECC"/>
<path d="M126.105 79.7103L119.592 75.4742C118.517 75.0138 117.841 73.7552 117.872 72.0669C117.903 69.2735 119.869 66.0197 122.296 64.6691C123.617 63.9323 124.907 63.8403 125.921 64.4235L126.105 64.5463L132.956 69.028L126.105 79.7103ZM124.415 65.9583C124.047 65.9583 123.647 66.0811 123.217 66.3267C121.374 67.3397 119.808 69.9796 119.777 72.0976C119.777 72.9878 120.022 73.6017 120.483 73.8166L126.044 77.4388L130.375 69.6419L124.999 66.1425C124.846 65.989 124.63 65.9583 124.415 65.9583Z" fill="#16110D"/>
<path d="M132.434 68.5982C131.42 67.9843 130.099 68.0764 128.747 68.8131C126.29 70.1637 124.354 73.4175 124.323 76.2109C124.293 77.7457 124.846 78.9429 125.89 79.5568C126.351 79.8331 126.873 79.9559 127.426 79.9559C128.102 79.9559 128.839 79.741 129.577 79.342C132.034 77.9913 133.97 74.7375 134 71.9441C134 70.4093 133.447 69.2121 132.434 68.5982Z" fill="#16110D"/>
<path d="M87.7053 26.5134C83.0666 26.5134 78.4278 25.439 74.8643 23.3209C71.2087 21.1415 69.2119 18.1639 69.2733 14.9408C69.3348 11.7177 71.393 8.80153 75.1101 6.74486C82.145 2.81572 93.0812 2.96919 99.9932 7.11321C103.649 9.29265 105.646 12.2702 105.584 15.4933C105.523 18.7165 103.465 21.6326 99.7474 23.6893C96.3682 25.5618 92.0368 26.5134 87.7053 26.5134ZM87.1523 7.75782C83.4352 7.75782 79.7488 8.52527 76.9841 10.0908C74.5265 11.4721 73.1441 13.2218 73.1133 15.0022C73.0826 16.7826 74.4036 18.563 76.8305 20.0364C82.4829 23.413 92.1289 23.5665 97.9042 20.3434C100.362 18.962 101.744 17.2123 101.775 15.4319C101.806 13.6515 100.485 11.8405 98.0578 10.3977C95.1087 8.61735 91.1151 7.75782 87.1523 7.75782Z" fill="#16110D"/>
<path d="M87.7053 22.6149C83.0666 22.6149 78.4278 21.5405 74.8643 19.4225C71.2087 17.243 69.2119 14.2655 69.2733 11.0424C69.3348 7.81926 71.393 4.90307 75.1101 2.84641C82.145 -1.08274 93.0812 -0.929231 99.9932 3.21479C103.649 5.39424 105.646 8.37177 105.584 11.5949C105.523 14.818 103.465 17.7342 99.7474 19.7909C96.3682 21.6634 92.0368 22.6149 87.7053 22.6149ZM87.1523 3.85941C83.4352 3.85941 79.7488 4.62681 76.9841 6.19233C74.5265 7.57367 73.1441 9.32337 73.1133 11.1038C73.0826 12.8842 74.4036 14.6646 76.8305 16.138C82.4829 19.5146 92.1289 19.6681 97.9042 16.445C100.362 15.0636 101.744 13.3139 101.775 11.5335C101.806 9.75313 100.485 7.94203 98.0578 6.49929C95.1087 4.7189 91.1151 3.85941 87.1523 3.85941Z" fill="white"/>
</svg>
