<svg width="26" height="26" viewBox="0 0 26 26" fill="none" xmlns="http://www.w3.org/2000/svg">
<g clip-path="url(#clip0)">
<path d="M21.5746 14.1136C21.1543 13.5828 21.2745 13.3466 21.5746 12.8721C21.58 12.8667 25.0499 8.07188 25.4074 6.44579L25.4096 6.44471C25.5873 5.85213 25.4096 5.41663 24.5505 5.41663H21.7078C20.9842 5.41663 20.6505 5.79038 20.4718 6.20854C20.4718 6.20854 19.0244 9.67304 16.9769 11.9188C16.3161 12.5677 16.0106 12.7757 15.6498 12.7757C15.4722 12.7757 15.1959 12.5677 15.1959 11.9751V6.44471C15.1959 5.73404 14.9933 5.41663 14.3943 5.41663H9.92442C9.4705 5.41663 9.20075 5.74813 9.20075 6.05688C9.20075 6.73071 10.2245 6.88563 10.3307 8.78146V12.8949C10.3307 13.7962 10.1671 13.962 9.80417 13.962C8.83783 13.962 6.49242 10.4834 5.1025 6.50213C4.82192 5.72971 4.54783 5.41771 3.81875 5.41771H0.975C0.163583 5.41771 0 5.79146 0 6.20963C0 6.94846 0.966333 10.622 4.49367 15.4754C6.8445 18.7882 10.1552 20.5833 13.1668 20.5833C14.9771 20.5833 15.1981 20.1846 15.1981 19.4989C15.1981 16.3334 15.0345 16.0344 15.9413 16.0344C16.3616 16.0344 17.0853 16.2424 18.7753 17.8403C20.7068 19.735 21.0243 20.5833 22.1054 20.5833H24.9481C25.7584 20.5833 26.169 20.1846 25.9328 19.3981C25.3923 17.7439 21.7393 14.3411 21.5746 14.1136Z" fill="#4B729F"/>
</g>
<defs>
<clipPath id="clip0">
<rect width="26" height="26" fill="white"/>
</clipPath>
</defs>
</svg>
