<svg width="20" height="20" viewBox="0 0 20 20" fill="none" xmlns="http://www.w3.org/2000/svg">
<path d="M14.199 0H11.3575C8.47858 0 5.57366 2.12586 5.57366 6.87523C5.57366 9.33531 6.61628 11.2513 8.52753 12.3409L5.0294 18.6726C4.86355 18.9721 4.85921 19.3114 5.01776 19.5804C5.17257 19.8431 5.45565 20 5.77472 20H7.54429C7.94628 20 8.25972 19.8057 8.41003 19.4653L11.6899 13.05H11.9293V19.2004C11.9293 19.6339 12.295 20 12.728 20H14.2738C14.7593 20 15.0983 19.661 15.0983 19.1756V0.875117C15.0983 0.359883 14.7286 0 14.199 0ZM11.9293 10.2002H11.507C9.86972 10.2002 8.89226 8.86375 8.89226 6.62512C8.89226 3.84156 10.127 2.8498 11.2826 2.8498H11.9293V10.2002Z" fill="#D7143A"/>
</svg>
