<svg width="102" height="22" viewBox="0 0 102 22" fill="none" xmlns="http://www.w3.org/2000/svg">
<path d="M46.982 0.572266C49.4294 0.572266 50.7205 1.86975 50.7205 4.27391V7.00245C50.7205 7.26958 50.5856 7.42222 50.2966 7.42222H47.5987C47.3289 7.42222 47.1747 7.26958 47.1747 7.00245V4.99898C47.1747 4.33116 46.8278 3.96862 46.1341 3.96862H44.9008C44.2456 3.96862 43.8602 4.33116 43.8602 4.99898V8.54798L50.0461 10.5515C50.4893 10.7232 50.7205 11.0094 50.7205 11.5055V17.4586C50.7205 19.8819 49.4101 21.1603 46.982 21.1603H44.0721C41.644 21.1603 40.3336 19.8628 40.3336 17.4586V14.7683C40.3336 14.4821 40.4878 14.3485 40.7576 14.3485H43.4555C43.7445 14.3485 43.8794 14.4821 43.8794 14.7683V16.7527C43.8794 17.4396 44.2648 17.783 44.9201 17.783H46.1726C46.8471 17.783 47.2133 17.4396 47.2133 16.7527V13.3181L41.0466 11.3147C40.5841 11.162 40.3529 10.8567 40.3529 10.3606V4.27391C40.3529 1.85067 41.6826 0.572266 44.0914 0.572266H46.982Z" fill="black"/>
<path d="M60.2596 0.572266H54.0159C53.7461 0.572266 53.5919 0.724911 53.5919 0.99204V20.7787C53.5919 21.0458 53.7461 21.1985 54.0159 21.1985H56.7138C57.0028 21.1985 57.1377 21.0458 57.1377 20.7787V14.2913H60.2596C62.707 14.2913 63.9981 12.9747 63.9981 10.5896V4.27391C64.0174 1.86975 62.707 0.572266 60.2596 0.572266ZM60.4716 9.84547C60.4716 10.4942 60.1247 10.8758 59.431 10.8758H57.1377V3.96862H59.431C60.1247 3.96862 60.4716 4.33116 60.4716 4.99898V9.84547Z" fill="black"/>
<path d="M37.0576 0.572266C37.3274 0.572266 37.4816 0.724911 37.4816 0.99204V20.7787C37.4816 21.0458 37.3274 21.1985 37.0576 21.1985H34.3597C34.0707 21.1985 33.9358 21.0458 33.9358 20.7787V0.99204C33.9358 0.724911 34.0707 0.572266 34.3597 0.572266H37.0576Z" fill="black"/>
<path d="M78.4704 20.7405L74.1538 0.934798C74.096 0.667669 73.9418 0.572266 73.7105 0.572266H70.0877C69.8564 0.572266 69.7022 0.667669 69.6444 0.934798L65.3278 20.7405C65.2507 21.0267 65.3856 21.1794 65.6747 21.1794H68.4496C68.6809 21.1794 68.8158 21.0458 68.8736 20.8168L69.5673 17.058H74.1923L74.9246 20.8168C74.9824 21.0458 75.098 21.1794 75.3486 21.1794H78.1043C78.4319 21.1794 78.5282 21.0267 78.4704 20.7405ZM70.2225 14.0814L71.8798 5.09438L73.5371 14.0814H70.2225Z" fill="black"/>
<path d="M101.345 3.56793C101.345 3.83506 101.248 4.00678 100.921 4.00678H94.4266V9.15856H99.3985C99.6683 9.15856 99.8225 9.31121 99.8225 9.59742V12.1542C99.8225 12.4404 99.6683 12.5931 99.3985 12.5931H94.4266V17.8021H100.94C101.248 17.8021 101.364 17.9357 101.364 18.2219V20.7978C101.364 21.0649 101.268 21.2175 100.94 21.2175H91.3626C91.1313 21.2175 90.9772 21.0649 90.9772 20.7978V0.99204C90.9772 0.724911 91.1313 0.572266 91.3626 0.572266H100.94C101.248 0.572266 101.364 0.724911 101.364 0.99204V3.56793H101.345Z" fill="black"/>
<path d="M88.472 0.572266H78.8944C78.6632 0.572266 78.4705 0.763072 78.4705 0.99204V3.56793C78.4705 3.7969 78.6632 3.9877 78.8944 3.9877H81.9199V14.9018C81.9199 15.0545 82.0355 15.169 82.1897 15.169H83.0183H83.2881H83.3267H83.3845H84.5793H84.9454H85.4657V3.96862H88.4912C88.7803 3.96862 88.9152 3.81598 88.9152 3.54885V0.99204C88.8767 0.724911 88.761 0.572266 88.472 0.572266Z" fill="black"/>
<path d="M85.2151 17.7832H82.1511C82.0547 17.7832 81.9584 17.8595 81.9584 17.974V21.0078C81.9584 21.1032 82.0355 21.1986 82.1511 21.1986H85.2151C85.3115 21.1986 85.4078 21.1223 85.4078 21.0078V17.974C85.4078 17.8595 85.3115 17.7832 85.2151 17.7832Z" fill="#FF0000"/>
<path d="M17.6134 9.17773H14.5494C14.453 9.17773 14.3567 9.25406 14.3567 9.36854V12.4024C14.3567 12.4978 14.4338 12.5932 14.5494 12.5932H17.6134C17.7098 12.5932 17.8061 12.5168 17.8061 12.4024V9.36854C17.8061 9.25406 17.7098 9.17773 17.6134 9.17773Z" fill="#FF0000"/>
<path d="M27.2102 0.572266H21.0629C20.7738 0.572266 20.6389 0.724911 20.6389 0.99204V9.17764H24.1847V4.04495C24.1847 4.00678 24.2233 3.96862 24.2618 3.96862H26.5743C27.2488 3.96862 27.6149 4.33116 27.6149 5.01806V16.7336C27.6149 17.4205 27.2488 17.7639 26.5743 17.7639H24.2618C24.2233 17.7639 24.1847 17.7258 24.1847 17.6876V12.574H20.6389V20.6833C20.6389 20.9504 20.8702 21.1794 21.14 21.1794H27.2295C29.3493 21.1794 31.0644 19.4812 31.0644 17.3823V4.3884C31.0644 2.28953 29.3493 0.572266 27.2102 0.572266Z" fill="black"/>
<path d="M2.19692 13.5664C1.92713 13.5282 1.67661 13.4328 1.42609 13.3183C0.905777 13.0703 0.635986 12.5169 0.635986 11.6201V5.18994H1.71515V6.9072V7.5941C1.71515 7.80399 1.69588 8.03296 1.69588 8.28101C1.73442 8.0902 1.90785 7.93756 2.19692 7.82307C2.50525 7.70859 2.94847 7.65135 3.5266 7.65135C5.12607 7.65135 5.93544 8.18561 5.93544 9.2732V11.6392C5.93544 11.9827 5.87763 12.2689 5.78127 12.536C5.68492 12.784 5.55002 12.9939 5.39586 13.1275C5.26096 13.2611 5.04899 13.3755 4.79847 13.4519C4.54795 13.5282 4.29743 13.5854 4.04691 13.6045C3.81566 13.6236 3.54587 13.6427 3.23754 13.6427C2.79431 13.6236 2.44744 13.6045 2.19692 13.5664ZM4.20107 12.8413C4.41305 12.784 4.58649 12.6696 4.68284 12.5169C4.77919 12.3643 4.81774 12.1162 4.81774 11.7919V9.52125C4.81774 9.19688 4.77919 8.94883 4.68284 8.79619C4.58649 8.62446 4.43232 8.52906 4.20107 8.47182C3.98909 8.41457 3.66149 8.39549 3.23754 8.39549C2.85212 8.39549 2.54379 8.43365 2.33181 8.4909C2.11983 8.54814 1.96567 8.66262 1.86931 8.83435C1.77296 9.00607 1.73442 9.23504 1.73442 9.52125V11.7728C1.73442 12.0971 1.77296 12.3452 1.86931 12.4978C1.96567 12.6505 2.11983 12.765 2.33181 12.8222C2.54379 12.8794 2.85212 12.9176 3.27608 12.9176C3.66149 12.9367 3.98909 12.8985 4.20107 12.8413Z" fill="black"/>
<path d="M9.09586 13.6043L6.84119 7.74658H8.0167L9.63544 12.4404H9.65471L11.1193 7.74658H12.2177L9.30784 15.9894H8.17087L9.09586 13.6043Z" fill="black"/>
</svg>
