<svg width="26" height="14" viewBox="0 0 26 14" fill="none" xmlns="http://www.w3.org/2000/svg">
<path d="M11.734 8.8V10.68L10.054 10.96H10.014V14H7.19398V10.96L1.73398 10.96C1.13398 10.96 0.680651 10.7267 0.373985 10.26C0.0806512 9.79333 0.0473179 9.28 0.273985 8.72L3.85398 0.199999L6.73398 0.199999L3.45398 8.14C3.36065 8.36667 3.35398 8.53333 3.43398 8.64C3.51398 8.74667 3.65398 8.8 3.85398 8.8H7.19398L7.19398 5.08L7.69399 2.88L10.014 2.88L10.014 8.8H11.734ZM18.2288 7.92L17.0488 7.92C17.1422 8.45333 17.1888 8.89333 17.1888 9.24L17.1888 14L14.1488 14L14.1488 0.199999L17.1888 0.199999V4.1C17.1888 4.68667 17.1422 5.23333 17.0488 5.74L18.2288 5.74L21.7288 0.199999L25.0288 0.199999L21.4688 5.7C21.2422 6.1 20.9088 6.46667 20.4688 6.8V6.88C20.9488 7.21333 21.3355 7.62 21.6288 8.1L25.2688 14H21.8688L18.2288 7.92Z" fill="white"/>
</svg>
