<svg width="28" height="17" viewBox="0 0 28 17" fill="none" xmlns="http://www.w3.org/2000/svg">
<path d="M26.6113 1.88672C26.7578 1.30078 26.6113 0.8125 25.7324 0.8125H22.8516C22.1191 0.8125 21.7773 1.20312 21.582 1.64258C21.582 1.64258 20.1172 5.20703 18.0664 7.55078C17.3828 8.18555 17.0898 8.42969 16.6992 8.42969C16.5527 8.42969 16.2598 8.18555 16.2598 7.59961V1.88672C16.2598 1.1543 16.0645 0.8125 15.4297 0.8125H10.9375C10.4492 0.8125 10.2051 1.1543 10.2051 1.49609C10.2051 2.17969 11.2305 2.32617 11.3281 4.2793V8.52734C11.3281 9.45508 11.1816 9.65039 10.791 9.65039C9.81445 9.65039 7.4707 6.03711 6.05469 1.93555C5.76172 1.1543 5.46875 0.8125 4.73633 0.8125H1.85547C1.07422 0.8125 0.878906 1.20312 0.878906 1.64258C0.878906 2.42383 1.85547 6.18359 5.41992 11.2129C7.8125 14.6309 11.1816 16.4375 14.209 16.4375C16.0156 16.4375 16.2598 16.0469 16.2598 15.3633C16.2598 12.0918 16.1133 11.75 16.9922 11.75C17.4316 11.75 18.1641 11.9941 19.873 13.6543C21.8262 15.6074 22.168 16.4375 23.2422 16.4375H26.123C26.9531 16.4375 27.3438 16.0469 27.0996 15.2168C26.5625 13.5566 22.9004 10.041 22.7051 9.79688C22.2656 9.25977 22.4121 9.01562 22.7051 8.52734C22.7051 8.52734 26.2207 3.54688 26.6113 1.88672Z" fill="#333333"/>
</svg>
