<svg width="16" height="26" viewBox="0 0 16 26" fill="none" xmlns="http://www.w3.org/2000/svg">
<path d="M13.4277 16.4336C14.9902 15.4082 15.7227 14.8223 15.0879 13.5527C14.7461 12.8691 13.7207 12.2832 12.4512 13.3086C12.4512 13.3086 10.6445 14.7246 7.8125 14.7246C4.93164 14.7246 3.17383 13.3086 3.17383 13.3086C1.85547 12.2344 0.878906 12.8691 0.488281 13.5527C-0.0976562 14.8223 0.585938 15.4082 2.14844 16.4336C3.51562 17.3125 5.37109 17.6543 6.5918 17.752L5.56641 18.7773C4.15039 20.1934 2.83203 21.5605 1.85547 22.4883C0.488281 23.8555 2.68555 26.0527 4.10156 24.7344L7.8125 20.9746C9.22852 22.4395 10.5957 23.8066 11.5234 24.7344C12.8906 26.1016 15.1367 23.9043 13.7695 22.4883L10.0586 18.7773L9.0332 17.752C10.2539 17.6543 12.0605 17.3125 13.4277 16.4336ZM1.46484 6.47266C1.46484 9.98828 4.29688 12.8203 7.8125 12.8203C11.2793 12.8203 14.1113 9.98828 14.1113 6.47266C14.1113 2.95703 11.2793 0.125 7.8125 0.125C4.29688 0.125 1.46484 2.95703 1.46484 6.47266ZM4.6875 6.47266C4.6875 4.76367 6.05469 3.34766 7.8125 3.34766C9.52148 3.34766 10.8887 4.76367 10.8887 6.47266C10.8887 8.18164 9.52148 9.59766 7.8125 9.59766C6.05469 9.59766 4.6875 8.18164 4.6875 6.47266Z" fill="#333333"/>
</svg>
