<svg width="19" height="26" viewBox="0 0 19 26" fill="none" xmlns="http://www.w3.org/2000/svg">
<path d="M8.39844 24.6367C8.83789 25.3203 9.86328 25.3203 10.3027 24.6367C17.4316 14.3828 18.75 13.3086 18.75 9.5C18.75 4.32422 14.5508 0.125 9.375 0.125C4.15039 0.125 0 4.32422 0 9.5C0 13.3086 1.26953 14.3828 8.39844 24.6367ZM9.375 13.4062C7.17773 13.4062 5.46875 11.6973 5.46875 9.5C5.46875 7.35156 7.17773 5.59375 9.375 5.59375C11.5234 5.59375 13.2812 7.35156 13.2812 9.5C13.2812 11.6973 11.5234 13.4062 9.375 13.4062Z" fill="#333333"/>
</svg>
