<svg width="26" height="26" viewBox="0 0 26 26" fill="none" xmlns="http://www.w3.org/2000/svg">
<path d="M25.2585 18.3725L19.5709 15.935C19.328 15.8314 19.0579 15.8096 18.8015 15.8728C18.545 15.936 18.3161 16.0808 18.149 16.2854L15.6302 19.3628C11.6772 17.499 8.49595 14.3177 6.63215 10.3647L9.70954 7.84589C9.91454 7.67916 10.0596 7.45018 10.1229 7.19362C10.1861 6.93705 10.164 6.66688 10.0599 6.42399L7.6224 0.736389C7.5082 0.47456 7.30621 0.260786 7.05128 0.131928C6.79634 0.00306986 6.50443 -0.0327954 6.22589 0.0305166L0.944548 1.24929C0.675996 1.3113 0.436394 1.46251 0.264847 1.67824C0.0932996 1.89396 -6.18633e-05 2.16146 3.07547e-08 2.43708C3.07547e-08 15.4627 10.5576 26 23.5629 26C23.8386 26.0002 24.1062 25.9069 24.3221 25.7353C24.5379 25.5638 24.6892 25.3241 24.7512 25.0555L25.97 19.7741C26.0329 19.4942 25.9963 19.2011 25.8664 18.9453C25.7366 18.6895 25.5216 18.487 25.2585 18.3725V18.3725Z" fill="#333333"/>
</svg>
