<svg width="577" height="351" viewBox="0 0 577 351" fill="none" xmlns="http://www.w3.org/2000/svg">
<path d="M480.722 228.194C476.284 228.266 471.917 229.009 467.718 230.183C459.296 232.509 451.258 236.248 444.203 240.035C440.7 241.929 437.317 243.775 434.414 245.597C431.414 247.347 428.751 249.001 426.568 250.463C424.312 251.853 422.537 253.052 421.337 253.891C420.137 254.778 419.441 255.257 419.441 255.257C423.832 260.123 428.271 263.695 432.782 266.068C437.269 268.417 441.804 269.544 446.315 269.688C455.385 270 464.191 266.044 471.653 260.387C479.043 254.634 485.017 247.203 488.761 241.09C490.608 238.022 492.048 235.361 492.936 233.467C493.775 231.502 494.135 230.327 494.015 230.255C489.552 228.649 485.137 228.098 480.722 228.194Z" fill="#2C2D2F"/>
<path d="M503.968 179.892C500.273 179.436 496.77 179.772 493.387 180.611C490.004 181.426 486.765 182.744 483.741 184.35C477.839 187.634 472.2 191.877 467.689 196.096C462.842 200.219 459.099 204.366 456.172 207.315C454.756 208.825 453.653 210.096 452.909 210.982L452.645 211.294L452.741 211.078C457.276 201.634 460.995 191.614 463.802 181.282C464.546 178.693 465.194 175.984 465.77 173.18C473.544 175.793 479.782 175.481 484.845 173.012C487.436 171.742 489.692 169.944 491.683 167.834C493.603 165.677 495.091 163.184 496.362 160.595C499.05 155.393 500.033 149.712 500.561 145.445C500.825 143.288 500.969 141.49 500.849 140.219C500.801 138.949 500.705 138.23 500.609 138.23C494.515 138.757 489.668 141.514 485.301 145.062C483.142 146.835 481.222 148.825 479.494 150.863C478.607 151.893 477.839 152.948 476.999 154.003C476.159 155.034 475.367 156.088 474.624 157.119C473.136 159.181 471.864 161.218 470.761 163.112C469.633 164.982 468.529 166.684 467.713 168.146C467.065 169.297 466.586 170.207 466.202 170.998C467.473 164.55 468.409 157.623 469.009 149.88L469.369 141.921C469.369 140.219 469.345 138.541 469.297 136.84C469.273 135.905 469.249 134.946 469.249 134.011L469.225 133.268C475.439 133.675 480.118 132.261 483.525 129.528C487.005 126.7 488.972 122.553 490.076 118.262C490.364 117.207 490.58 116.128 490.772 115.05C490.916 113.995 490.964 112.964 491.012 111.957C491.06 109.944 490.988 108.05 490.844 106.444C490.58 103.184 490.052 101.05 489.908 101.098C485.277 102.393 481.726 105.198 478.991 108.53C477.599 110.207 476.423 112.005 475.439 113.851C474.936 114.762 474.456 115.697 474.048 116.632C473.64 117.543 473.136 118.502 472.752 119.388C471.144 123.08 470.113 126.532 469.489 129.049L469.153 130.295L469.129 129.96L468.049 118.094C467.137 111.238 465.77 104.335 464.066 97.3829C468.793 96.6638 472.104 94.842 474.264 92.325C475.415 90.9586 476.351 89.3765 476.855 87.7944C477.383 86.1884 477.671 84.4864 477.791 82.8084C478.007 79.4285 477.527 76.1444 476.975 73.7233C476.351 71.3022 475.583 69.84 475.487 69.864C472.008 71.4221 469.681 73.987 467.929 76.8875C466.154 79.836 465.05 83.12 464.378 86.1884C464.042 87.6985 463.826 89.1608 463.658 90.5032C463.586 91.1983 463.514 91.8216 463.466 92.4448C463.418 93.0441 463.346 93.6194 463.274 94.1468V94.3146C461.811 88.8252 460.083 83.3358 458.116 77.8703L458.14 77.2471C458.116 74.3945 457.852 70.3674 456.94 65.7649C455.908 61.1864 453.917 56.1764 451.013 51.2383C447.894 46.4441 443.503 41.9135 437.984 38.3898C437.913 45.1257 439.304 50.9267 441.224 56.0565C442.927 61.2823 445.543 65.693 448.014 69.4804C450.341 73.2918 452.813 76.3362 454.708 78.4696L454.78 78.5415C456.748 83.959 458.452 89.3526 459.891 94.7461L459.123 93.6194L457.9 92.1572C457.012 91.1264 455.98 90.0717 454.876 89.0649C452.621 87.0513 449.91 85.1816 446.886 84.1508C443.791 83.12 440.288 82.9283 436.641 84.007C436.521 84.0549 436.953 85.3733 437.817 87.2191C438.584 89.0889 439.88 91.462 441.824 93.6194C442.783 94.6742 443.935 95.7049 445.231 96.5919C446.574 97.4548 447.894 98.2219 449.526 98.7253C452.525 99.6602 456.268 99.7081 460.779 98.1979C462.483 105.006 463.802 111.766 464.69 118.478L465.77 130.128L465.794 130.535L465.29 129.313C464.21 126.939 462.579 123.823 460.347 120.851C459.771 120.108 459.219 119.365 458.523 118.645C457.828 117.95 457.108 117.255 456.34 116.608C454.828 115.313 453.173 114.163 451.373 113.228C447.774 111.382 443.623 110.519 438.872 111.19C438.728 111.214 438.824 112.868 439.472 115.194C439.784 116.368 440.24 117.71 440.888 119.125C441.2 119.82 441.584 120.563 441.968 121.282C442.303 122.025 442.687 122.768 443.143 123.488C444.919 126.436 447.606 129.289 451.397 131.278C454.924 133.148 459.651 134.203 465.866 133.388V134.059C465.89 135.018 465.914 135.977 465.938 136.935C465.962 138.589 466.01 140.243 466.01 141.826L465.626 149.664C465.074 157.215 464.138 163.999 462.914 170.303C462.818 169.44 462.698 168.434 462.507 167.211C462.219 165.605 461.931 163.735 461.307 161.722C460.659 159.708 459.867 157.575 458.859 155.441C458.38 154.386 457.828 153.332 457.228 152.277C456.652 151.246 455.884 150.215 455.116 149.233C453.581 147.267 451.829 145.469 449.838 143.911C445.951 140.819 440.744 138.853 434.697 138.589C434.457 138.565 434.481 140.507 434.577 143.36C434.721 146.188 435.561 150 436.905 153.883C437.625 155.849 438.68 157.862 439.976 159.828C441.2 161.746 442.783 163.663 444.799 165.389C448.782 168.769 454.42 171.622 462.483 172.485C461.907 175.193 461.283 177.854 460.563 180.371C457.78 190.535 454.133 200.363 449.718 209.616L449.598 209.832L449.67 209.448C449.838 208.298 450.054 206.668 450.222 204.678C450.653 200.723 450.413 195.209 449.334 189.648C447.942 183.991 445.735 178.286 441.56 173.587C439.544 171.238 437.169 169.177 434.409 167.499C431.626 165.797 428.363 164.454 424.764 163.519C424.644 163.495 424.452 163.999 424.236 164.958C423.948 165.869 423.636 167.211 423.42 168.865C423.108 172.173 422.7 176.584 423.516 181.546C423.828 184.015 424.452 186.604 425.508 189.288C426.443 191.925 427.763 194.61 429.707 197.271C433.546 202.497 439.328 207.602 448.974 211.054C444.607 219.804 439.52 228.362 433.786 236.512C431.122 240.251 428.339 243.847 425.508 247.395C425.747 246.747 426.011 246.076 426.275 245.333C427.067 242.912 427.907 240.036 428.603 236.871C429.179 233.611 429.754 230.183 429.85 226.492C430.066 219.205 428.843 211.366 425.22 204.462C423.42 201.01 421.093 197.798 418.141 194.922C415.19 192.045 411.591 189.48 407.416 187.299C407.296 187.251 406.864 187.802 406.36 188.833C405.784 189.864 405.017 191.398 404.321 193.292C402.929 197.127 401.273 202.425 400.746 208.705C400.074 214.914 400.506 222.177 403.433 229.848C404.921 233.659 407.104 237.638 410.271 241.57C413.127 245.141 416.846 248.689 421.62 252.045C412.143 263.096 401.753 272.972 390.5 281.506C389.756 282.057 389.636 283.112 390.188 283.855C390.716 284.55 391.652 284.718 392.372 284.31L392.54 284.19C409.096 271.63 423.9 256.24 436.521 238.453C442.375 230.159 447.558 221.458 451.997 212.541C460.515 218.126 468.313 219.756 475.127 218.198C478.559 217.431 481.846 215.921 484.821 213.883C487.676 211.821 490.292 209.233 492.643 206.428C497.106 200.723 500.345 194.107 501.953 188.857C502.817 186.244 503.417 184.015 503.753 182.433C504.04 180.851 504.088 179.892 503.968 179.892Z" fill="#2C2D2F"/>
<path d="M88.0081 228.194C92.471 228.266 96.8379 229.009 101.037 230.183C109.459 232.509 117.497 236.248 124.551 240.035C128.054 241.929 131.438 243.775 134.341 245.597C137.34 247.347 140.003 249.001 142.187 250.463C144.418 251.853 146.194 253.052 147.418 253.891C148.617 254.778 149.313 255.257 149.313 255.257C144.898 260.123 140.459 263.695 135.972 266.068C131.485 268.417 126.951 269.544 122.416 269.688C113.37 270 104.564 266.044 97.0779 260.387C89.7116 254.634 83.7371 247.203 79.994 241.09C78.1465 238.022 76.7068 235.361 75.819 233.467C74.9792 231.502 74.6193 230.327 74.7393 230.255C79.1782 228.649 83.6171 228.098 88.0081 228.194Z" fill="#2C2D2F"/>
<path d="M70.8994 179.892C74.6185 179.436 78.1217 179.772 81.4808 180.611C84.888 181.426 88.1272 182.744 91.1265 184.35C97.053 187.634 102.692 191.877 107.203 196.096C112.025 200.219 115.792 204.366 118.72 207.315C120.135 208.825 121.239 210.096 121.983 210.982L122.247 211.294L122.127 211.078C117.616 201.634 113.897 191.614 111.09 181.282C110.346 178.693 109.698 175.984 109.098 173.18C101.324 175.793 95.1095 175.481 90.0468 173.012C87.4554 171.742 85.1759 169.944 83.2084 167.834C81.2889 165.677 79.8013 163.184 78.5056 160.595C75.8422 155.393 74.8585 149.712 74.3066 145.445C74.0427 143.288 73.9227 141.49 74.0187 140.219C74.0906 138.949 74.1866 138.23 74.2826 138.23C80.3771 138.757 85.2239 141.514 89.5909 145.062C91.7263 146.835 93.6699 148.825 95.3975 150.863C96.2852 151.893 97.053 152.948 97.8928 154.003C98.7326 155.034 99.5244 156.088 100.268 157.119C101.756 159.181 103.028 161.218 104.131 163.112C105.259 164.982 106.363 166.684 107.155 168.146C107.802 169.297 108.282 170.207 108.69 170.998C107.419 164.55 106.459 157.623 105.883 149.88L105.499 141.921C105.499 140.219 105.547 138.541 105.595 136.84C105.619 135.905 105.643 134.946 105.643 134.011L105.667 133.268C99.4525 133.675 94.7736 132.261 91.3664 129.528C87.8873 126.7 85.9198 122.553 84.792 118.262C84.5281 117.207 84.2882 116.128 84.1202 115.05C83.9762 113.995 83.9282 112.964 83.8803 111.957C83.8323 109.944 83.9042 108.05 84.0482 106.444C84.3122 103.184 84.84 101.05 84.984 101.098C89.6149 102.393 93.166 105.198 95.9013 108.53C97.293 110.207 98.4447 112.005 99.4525 113.851C99.9564 114.762 100.412 115.697 100.844 116.632C101.252 117.543 101.732 118.502 102.116 119.388C103.747 123.08 104.779 126.532 105.403 129.049L105.739 130.295V129.96L106.843 118.094C107.754 111.238 109.098 104.335 110.826 97.3829C106.099 96.6638 102.788 94.842 100.628 92.325C99.4765 90.9586 98.5407 89.3765 98.0368 87.7944C97.4849 86.1884 97.221 84.4864 97.101 82.8084C96.8851 79.4285 97.365 76.1444 97.9168 73.7233C98.5167 71.3022 99.2845 69.84 99.3805 69.864C102.884 71.4221 105.211 73.987 106.939 76.8875C108.738 79.836 109.842 83.12 110.514 86.1884C110.85 87.6985 111.066 89.1608 111.234 90.5032C111.306 91.1983 111.354 91.8216 111.402 92.4448C111.474 93.0441 111.546 93.6194 111.594 94.1468L111.618 94.3146C113.081 88.8252 114.809 83.3358 116.752 77.8703V77.2471C116.776 74.3945 117.016 70.3674 117.928 65.7649C118.984 61.1864 120.975 56.1764 123.879 51.2383C126.998 46.4441 131.389 41.9135 136.907 38.3898C136.979 45.1257 135.588 50.9267 133.668 56.0565C131.965 61.2823 129.349 65.693 126.878 69.4804C124.55 73.2918 122.079 76.3362 120.183 78.4696L120.111 78.5415C118.144 83.959 116.44 89.3526 115.001 94.7461L115.745 93.6194L116.992 92.1572C117.88 91.1264 118.888 90.0717 120.015 89.0649C122.271 87.0513 124.958 85.1816 128.006 84.1508C131.077 83.12 134.604 82.9283 138.251 84.007C138.371 84.0549 137.939 85.3733 137.075 87.2191C136.284 89.0889 135.012 91.462 133.068 93.6194C132.109 94.6742 130.957 95.7049 129.661 96.5919C128.317 97.4548 126.998 98.2219 125.366 98.7253C122.367 99.6602 118.624 99.7081 114.089 98.1979C112.409 105.006 111.066 111.766 110.178 118.478L109.098 130.128V130.535L109.578 129.313C110.682 126.939 112.313 123.823 114.545 120.851C115.121 120.108 115.673 119.365 116.368 118.645C117.04 117.95 117.784 117.255 118.528 116.608C120.063 115.313 121.719 114.163 123.519 113.228C127.118 111.382 131.269 110.519 136.02 111.19C136.14 111.214 136.068 112.868 135.42 115.194C135.084 116.368 134.628 117.71 134.004 119.125C133.692 119.82 133.308 120.563 132.924 121.282C132.588 122.025 132.181 122.768 131.749 123.488C129.973 126.436 127.262 129.289 123.471 131.278C119.943 133.148 115.217 134.203 109.026 133.388V134.059C109.002 135.018 108.978 135.977 108.954 136.935C108.93 138.589 108.882 140.243 108.882 141.826L109.242 149.664C109.818 157.215 110.754 163.999 111.977 170.303C112.073 169.44 112.193 168.434 112.385 167.211C112.673 165.605 112.961 163.735 113.585 161.722C114.233 159.708 115.025 157.575 116.008 155.441C116.512 154.386 117.064 153.332 117.64 152.277C118.24 151.246 119.008 150.215 119.776 149.233C121.311 147.267 123.063 145.469 125.054 143.911C128.941 140.819 134.148 138.853 140.195 138.589C140.41 138.565 140.41 140.507 140.315 143.36C140.171 146.188 139.331 150 137.987 153.883C137.267 155.849 136.212 157.862 134.916 159.828C133.692 161.746 132.109 163.663 130.069 165.389C126.11 168.769 120.471 171.622 112.409 172.485C112.985 175.193 113.609 177.854 114.329 180.371C117.112 190.535 120.735 200.363 125.174 209.616L125.294 209.832L125.222 209.448C125.054 208.298 124.838 206.668 124.67 204.678C124.238 200.723 124.478 195.209 125.558 189.648C126.95 183.991 129.157 178.286 133.332 173.587C135.348 171.238 137.723 169.177 140.482 167.499C143.266 165.797 146.529 164.454 150.128 163.519C150.248 163.495 150.44 163.999 150.656 164.958C150.944 165.869 151.256 167.211 151.472 168.865C151.784 172.173 152.192 176.584 151.352 181.546C151.064 184.015 150.44 186.604 149.384 189.288C148.425 191.925 147.105 194.61 145.185 197.271C141.346 202.497 135.564 207.602 125.918 211.054C130.261 219.804 135.372 228.362 141.106 236.512C143.77 240.251 146.553 243.847 149.384 247.395C149.144 246.747 148.88 246.076 148.617 245.333C147.825 242.912 146.985 240.036 146.289 236.871C145.713 233.611 145.137 230.183 145.041 226.492C144.825 219.205 146.049 211.366 149.648 204.462C151.472 201.01 153.799 197.798 156.727 194.922C159.702 192.045 163.301 189.48 167.476 187.299C167.596 187.251 168.004 187.802 168.532 188.833C169.108 189.864 169.851 191.398 170.547 193.292C171.939 197.127 173.618 202.425 174.146 208.705C174.818 214.914 174.386 222.177 171.459 229.848C169.971 233.659 167.788 237.638 164.621 241.57C161.765 245.141 158.046 248.689 153.271 252.045C162.749 263.096 173.139 272.972 184.368 281.506C185.112 282.057 185.256 283.112 184.704 283.855C184.176 284.55 183.24 284.718 182.52 284.31L182.328 284.19C165.796 271.63 150.992 256.24 138.371 238.453C132.516 230.159 127.334 221.458 122.895 212.541C114.377 218.126 106.579 219.756 99.7644 218.198C96.3092 217.431 93.046 215.921 90.0707 213.883C87.1915 211.821 84.5761 209.233 82.2487 206.428C77.7857 200.723 74.5465 194.107 72.9389 188.857C72.0751 186.244 71.4753 184.015 71.1394 182.433C70.8514 180.851 70.8034 179.892 70.8994 179.892Z" fill="#2C2D2F"/>
<path d="M214.89 130.223L215.922 130.415C217.649 130.415 219.065 129.025 219.065 127.299C219.065 126.628 218.849 126.029 218.489 125.525H219.185C220.001 125.525 220.649 124.878 220.649 124.063V122.768H199.918V124.063C199.918 124.878 200.566 125.525 201.381 125.525H202.077C201.717 126.029 201.525 126.628 201.525 127.299C201.525 129.025 202.917 130.415 204.645 130.415L205.676 130.223L202.485 215.681H202.341C201.501 215.681 200.781 216.376 200.781 217.215V218.917H200.278C199.15 218.917 198.214 219.852 198.214 220.978V224.358H222.352V220.978C222.352 219.852 221.416 218.917 220.289 218.917H219.785V217.215C219.785 216.376 219.089 215.681 218.225 215.681H218.081" fill="#2C2D2F"/>
<path d="M241.524 215.681C240.66 215.681 239.965 216.376 239.965 217.215V218.917H239.437C238.309 218.917 237.373 219.852 237.373 220.978V224.358H261.511V220.978C261.511 219.852 260.6 218.917 259.448 218.917H258.944V217.215C258.944 216.376 258.248 215.681 257.384 215.681H257.264L254.049 130.223L255.105 130.415C256.809 130.415 258.224 129.025 258.224 127.299C258.224 126.628 258.008 126.029 257.648 125.525H258.368C259.16 125.525 259.808 124.878 259.808 124.063V122.768H239.077V124.063C239.077 124.878 239.725 125.525 240.541 125.525H241.236C240.9 126.029 240.684 126.628 240.684 127.299C240.684 129.025 242.076 130.415 243.804 130.415L244.835 130.223L241.644 215.681H241.524Z" fill="#2C2D2F"/>
<path d="M293.209 130.223L294.265 130.415C295.992 130.415 297.384 129.025 297.384 127.299C297.384 126.628 297.168 126.029 296.832 125.525H297.528C298.32 125.525 298.967 124.878 298.967 124.063V122.768H278.26V124.063C278.26 124.878 278.908 125.525 279.7 125.525H280.396C280.06 126.029 279.844 126.628 279.844 127.299C279.844 129.025 281.236 130.415 282.963 130.415L283.995 130.223L280.804 215.681H280.684C279.82 215.681 279.124 216.376 279.124 217.215V218.917H278.596C277.469 218.917 276.557 219.852 276.557 220.978V224.358H300.671V220.978C300.671 219.852 299.759 218.917 298.608 218.917H298.104V217.215C298.104 216.376 297.408 215.681 296.544 215.681H296.424" fill="#2C2D2F"/>
<path d="M319.842 215.681C318.978 215.681 318.282 216.376 318.282 217.215V218.917H317.779C316.627 218.917 315.715 219.852 315.715 220.978V224.358H339.853V220.978C339.853 219.852 338.917 218.917 337.79 218.917H337.262V217.215C337.262 216.376 336.566 215.681 335.702 215.681H335.582L332.367 130.223L333.423 130.415C335.15 130.415 336.542 129.025 336.542 127.299C336.542 126.628 336.326 126.029 335.99 125.525H336.686C337.478 125.525 338.15 124.878 338.15 124.063V122.768H317.419V124.063C317.419 124.878 318.067 125.525 318.858 125.525H319.554C319.218 126.029 319.002 126.628 319.002 127.299C319.002 129.025 320.418 130.415 322.122 130.415L323.177 130.223L319.962 215.681H319.842Z" fill="#2C2D2F"/>
<path d="M359 215.681C358.136 215.681 357.441 216.376 357.441 217.215V218.917H356.937C355.809 218.917 354.873 219.852 354.873 220.978V224.358H379.011V220.978C379.011 219.852 378.076 218.917 376.948 218.917H376.42V217.215C376.42 216.376 375.724 215.681 374.86 215.681H374.74L371.549 130.223L372.581 130.415C374.309 130.415 375.7 129.025 375.7 127.299C375.7 126.628 375.508 126.029 375.148 125.525H375.844C376.636 125.525 377.308 124.878 377.308 124.063V122.768H356.577V124.063C356.577 124.878 357.225 125.525 358.041 125.525H358.736C358.376 126.029 358.16 126.628 358.16 127.299C358.16 129.025 359.576 130.415 361.28 130.415L362.335 130.223L359.144 215.681H359Z" fill="#2C2D2F"/>
<path d="M388.705 246.508V243.559C388.705 242.672 387.985 241.929 387.073 241.929H385.226V240.083C385.226 239.172 384.482 238.453 383.594 238.453H381.771V236.224C381.771 235.217 380.955 234.402 379.947 234.402H196.32C195.312 234.402 194.496 235.217 194.496 236.224V238.453H192.673C191.785 238.453 191.041 239.172 191.041 240.083V241.929H189.193C188.282 241.929 187.562 242.672 187.562 243.559V246.508" fill="#2C2D2F"/>
<path d="M339.853 110.975H383.595C384.483 110.975 385.226 110.255 385.226 109.345V102.728L384.602 101.506L383.595 101.122H376.564V97.1432L376.085 95.9686L374.717 95.3214H363.776L334.023 77.6306L291.793 52.5568L219.787 95.3214H205.03C204.022 95.3214 203.207 96.1604 203.207 97.1672V101.122H196.152C195.265 101.122 194.521 101.842 194.521 102.752V109.345C194.521 110.255 195.265 110.975 196.152 110.975" fill="#2C2D2F"/>
<path d="M292.009 0.778931L296.375 9.6243L306.141 11.0386L299.087 17.9183L300.742 27.6506L292.009 23.0482L283.275 27.6506L284.93 17.9183L277.876 11.0386L287.642 9.6243L292.009 0.778931Z" fill="#2C2D2F"/>
<path d="M333.854 9.2887L338.22 18.1341L347.986 19.5484L340.932 26.4281L342.587 36.1604L333.854 31.5819L325.12 36.1604L326.799 26.4281L319.721 19.5484L329.487 18.1341L333.854 9.2887Z" fill="#2C2D2F"/>
<path d="M375.532 24.0311L379.899 32.8765L389.665 34.2908L382.61 41.1705L384.266 50.9028L375.532 46.3004L366.798 50.9028L368.478 41.1705L361.4 34.2908L371.165 32.8765L375.532 24.0311Z" fill="#2C2D2F"/>
<path d="M250.163 9.2887L245.796 18.1341L236.031 19.5484L243.085 26.4281L241.429 36.1604L250.163 31.5819L258.897 36.1604L257.217 26.4281L264.296 19.5484L254.53 18.1341L250.163 9.2887Z" fill="#2C2D2F"/>
<path d="M208.484 24.0311L204.117 32.8765L194.352 34.2908L201.406 41.1705L199.75 50.9028L208.484 46.3004L217.218 50.9028L215.539 41.1705L222.617 34.2908L212.851 32.8765L208.484 24.0311Z" fill="#2C2D2F"/>
<path d="M0 338.293H5.58968L9.45946 327.677H28.9312L32.8624 338.293H38.4521L21.8673 294.723H16.5233L0 338.293ZM11.1794 323.013L19.1032 301.167H19.226L27.2727 323.013H11.1794Z" fill="#2C2D2F"/>
<path d="M75.8465 333.875H70.6254V308.408H51.0922C51.0308 313.195 50.7851 318.104 49.9251 322.768C49.2495 326.757 48.021 330.561 46.0554 333.875H41.3256V346.517H45.5025L45.8097 338.293H71.3011L71.6082 346.517H75.8465V333.875ZM51.2151 333.875C52.7507 331.052 53.8563 327.8 54.5934 324.241C55.4534 320.374 55.6991 316.386 55.8219 312.826H65.6499V333.875H51.2151Z" fill="#2C2D2F"/>
<path d="M82.2534 338.293H96.6269C104.796 338.293 107.868 334.918 107.868 329.948C107.868 325.836 105.104 323.381 101.418 322.645V322.584C104.735 321.54 106.332 319.209 106.332 315.711C106.332 310.863 102.708 308.408 96.1969 308.408H82.2534V338.293ZM87.106 321.05V312.642H95.9512C99.2682 312.642 101.418 313.747 101.418 316.693C101.418 319.638 99.5139 321.05 95.7669 321.05H87.106ZM87.106 334.059V325.038H96.5655C100.558 325.038 102.769 326.511 102.769 329.518C102.769 332.648 100.681 334.059 96.2583 334.059H87.106Z" fill="#2C2D2F"/>
<path d="M128.58 338.662C137.426 338.662 143.998 332.464 143.998 323.381C143.998 314.299 137.426 308.04 128.58 308.04C119.305 308.04 113.101 314.79 113.101 323.381C113.101 331.973 119.305 338.662 128.58 338.662ZM128.58 334.121C122.376 334.121 118.2 329.334 118.2 323.381C118.2 317.429 122.315 312.581 128.58 312.581C134.354 312.581 138.9 316.999 138.9 323.381C138.9 329.764 134.293 334.121 128.58 334.121Z" fill="#2C2D2F"/>
<path d="M151.417 338.293H156.392V330.439L162.166 324.302L172.485 338.293H178.382L165.729 321.295L177.707 308.408H171.564L156.515 324.732H156.392V308.408H151.417V338.293Z" fill="#2C2D2F"/>
<path d="M195.501 338.662C200.354 338.662 204.039 336.452 206.189 332.893H206.25V338.293H211.042V308.408H206.066V313.686L205.943 313.747C203.793 310.126 199.924 308.04 195.501 308.04C187.024 308.04 180.943 314.729 180.943 323.566C180.943 332.648 187.27 338.662 195.501 338.662ZM196.238 334.121C190.096 334.121 185.98 329.579 185.98 323.566C185.98 316.938 190.587 312.581 196.238 312.581C202.135 312.581 206.25 317.429 206.25 323.566C206.25 329.886 201.766 334.121 196.238 334.121Z" fill="#2C2D2F"/>
<path d="M226.921 338.293H231.896V312.826H241.909V308.408H216.909V312.826H226.921V338.293Z" fill="#2C2D2F"/>
<path d="M265.586 338.293H280.205C290.402 338.293 295.439 333.752 295.439 324.854C295.439 317.061 290.893 312.09 280.267 312.09H270.93V299.571H291.999V294.723H265.586V338.293ZM270.93 333.446V316.815H280.267C286.716 316.815 289.91 319.822 289.91 325.1C289.91 330.254 287.023 333.446 280.205 333.446H270.93Z" fill="#2C2D2F"/>
<path d="M315.712 338.662C320.564 338.662 324.25 336.452 326.4 332.893H326.461V338.293H331.252V308.408H326.277V313.686L326.154 313.747C324.004 310.126 320.134 308.04 315.712 308.04C307.235 308.04 301.154 314.729 301.154 323.566C301.154 332.648 307.481 338.662 315.712 338.662ZM316.449 334.121C310.306 334.121 306.191 329.579 306.191 323.566C306.191 316.938 310.798 312.581 316.449 312.581C322.346 312.581 326.461 317.429 326.461 323.566C326.461 329.886 321.977 334.121 316.449 334.121Z" fill="#2C2D2F"/>
<path d="M340.191 338.293H345.166V330.439L350.94 324.302L361.259 338.293H367.156L354.503 321.295L366.481 308.408H360.338L345.289 324.732H345.166V308.408H340.191V338.293Z" fill="#2C2D2F"/>
<path d="M376.937 350.444H382.096L399.05 308.408H393.829L384.799 331.114H384.676L374.971 308.408H369.566L382.281 337.127L376.937 350.444Z" fill="#2C2D2F"/>
<path d="M405.155 338.293H409.946V316.877H410.069L419.59 333.077H422.968L432.55 316.815H432.673V338.293H437.464V308.408H432.673L421.371 327.554H421.248L410.007 308.408H405.155V338.293Z" fill="#2C2D2F"/>
<path d="M473.382 322.829C473.382 314.299 467.792 308.04 459.623 308.04C451.085 308.04 444.881 314.361 444.881 323.381C444.881 332.525 451.146 338.662 459.991 338.662C466.011 338.662 469.758 336.391 472.338 333.077L468.836 330.132C466.994 332.402 464.168 334.121 460.175 334.121C454.524 334.121 450.593 330.439 449.917 324.854H473.259C473.259 324.486 473.382 323.627 473.382 322.829ZM459.561 312.581C464.475 312.581 467.669 315.895 468.406 320.804H450.04C450.962 315.711 454.77 312.581 459.561 312.581Z" fill="#2C2D2F"/>
<path d="M480.677 338.293H485.652V325.836H501.807V338.293H506.782V308.408H501.807V321.54H485.652V308.408H480.677V338.293Z" fill="#2C2D2F"/>
<path d="M516.128 338.293H521.103V330.439L526.877 324.302L537.197 338.293H543.094L530.44 321.295L542.418 308.408H536.275L521.226 324.732H521.103V308.408H516.128V338.293Z" fill="#2C2D2F"/>
<path d="M561.195 338.662C570.04 338.662 576.613 332.464 576.613 323.381C576.613 314.299 570.04 308.04 561.195 308.04C551.92 308.04 545.716 314.79 545.716 323.381C545.716 331.973 551.92 338.662 561.195 338.662ZM561.195 334.121C554.991 334.121 550.814 329.334 550.814 323.381C550.814 317.429 554.93 312.581 561.195 312.581C566.969 312.581 571.515 316.999 571.515 323.381C571.515 329.764 566.908 334.121 561.195 334.121Z" fill="#2C2D2F"/>
</svg>
