<svg width="625" height="351" viewBox="0 0 625 351" fill="none" xmlns="http://www.w3.org/2000/svg">
<path d="M504.357 228.194C499.918 228.266 495.551 229.009 491.352 230.183C482.93 232.508 474.892 236.248 467.838 240.035C464.335 241.929 460.952 243.775 458.048 245.597C455.049 247.347 452.386 249.001 450.202 250.463C447.947 251.853 446.171 253.052 444.971 253.891C443.772 254.778 443.076 255.257 443.076 255.257C447.467 260.123 451.906 263.695 456.417 266.068C460.904 268.417 465.438 269.544 469.949 269.688C479.019 269.999 487.825 266.044 495.287 260.387C502.677 254.634 508.652 247.203 512.395 241.09C514.243 238.022 515.682 235.361 516.57 233.467C517.41 231.502 517.77 230.327 517.65 230.255C513.187 228.649 508.772 228.098 504.357 228.194Z" fill="#2C2D2F"/>
<path d="M527.603 179.892C523.908 179.436 520.405 179.772 517.021 180.611C513.638 181.426 510.399 182.744 507.376 184.35C501.473 187.634 495.835 191.877 491.324 196.096C486.477 200.219 482.734 204.366 479.807 207.315C478.391 208.825 477.287 210.096 476.543 210.982L476.279 211.294L476.375 211.078C480.91 201.634 484.629 191.614 487.437 181.282C488.18 178.693 488.828 175.984 489.404 173.18C497.178 175.793 503.417 175.481 508.48 173.012C511.071 171.742 513.326 169.944 515.318 167.834C517.237 165.677 518.725 163.184 519.997 160.595C522.684 155.393 523.668 149.712 524.196 145.445C524.46 143.288 524.604 141.49 524.484 140.219C524.436 138.949 524.34 138.23 524.244 138.23C518.149 138.757 513.302 141.514 508.935 145.062C506.776 146.835 504.856 148.825 503.129 150.863C502.241 151.893 501.473 152.948 500.633 154.003C499.794 155.034 499.002 156.088 498.258 157.119C496.77 159.181 495.499 161.218 494.395 163.112C493.267 164.982 492.164 166.684 491.348 168.146C490.7 169.297 490.22 170.207 489.836 170.998C491.108 164.55 492.044 157.623 492.643 149.88L493.003 141.921C493.003 140.219 492.979 138.541 492.931 136.84C492.907 135.905 492.883 134.946 492.883 134.011L492.859 133.268C499.074 133.675 503.753 132.261 507.16 129.528C510.639 126.7 512.607 122.553 513.71 118.262C513.998 117.207 514.214 116.128 514.406 115.05C514.55 113.995 514.598 112.964 514.646 111.957C514.694 109.944 514.622 108.05 514.478 106.444C514.214 103.184 513.686 101.05 513.542 101.098C508.911 102.393 505.36 105.198 502.625 108.53C501.233 110.207 500.058 112.005 499.074 113.851C498.57 114.762 498.09 115.697 497.682 116.632C497.274 117.543 496.77 118.502 496.386 119.388C494.779 123.08 493.747 126.532 493.123 129.049L492.787 130.295L492.763 129.96L491.684 118.094C490.772 111.238 489.404 104.335 487.701 97.3829C492.427 96.6638 495.739 94.842 497.898 92.325C499.05 90.9586 499.986 89.3765 500.489 87.7944C501.017 86.1884 501.305 84.4864 501.425 82.8084C501.641 79.4285 501.161 76.1444 500.609 73.7233C499.986 71.3022 499.218 69.84 499.122 69.864C495.643 71.4221 493.315 73.987 491.564 76.8875C489.788 79.836 488.684 83.12 488.013 86.1884C487.677 87.6985 487.461 89.1608 487.293 90.5032C487.221 91.1983 487.149 91.8216 487.101 92.4448C487.053 93.0441 486.981 93.6194 486.909 94.1468V94.3146C485.445 88.8252 483.718 83.3358 481.75 77.8703L481.774 77.2471C481.75 74.3945 481.486 70.3674 480.574 65.7649C479.543 61.1864 477.551 56.1764 474.648 51.2383C471.529 46.4441 467.138 41.9135 461.619 38.3898C461.547 45.1257 462.939 50.9267 464.858 56.0565C466.562 61.2823 469.177 65.693 471.649 69.4804C473.976 73.2918 476.447 76.3362 478.343 78.4696L478.415 78.5415C480.382 83.959 482.086 89.3526 483.526 94.7461L482.758 93.6194L481.534 92.1572C480.646 91.1264 479.615 90.0717 478.511 89.0649C476.255 87.0513 473.544 85.1816 470.521 84.1508C467.426 83.12 463.922 82.9283 460.275 84.007C460.155 84.0549 460.587 85.3733 461.451 87.2191C462.219 89.0889 463.514 91.462 465.458 93.6194C466.418 94.6742 467.57 95.7049 468.865 96.5919C470.209 97.4548 471.529 98.2219 473.16 98.7253C476.159 99.6602 479.903 99.7081 484.413 98.1979C486.117 105.006 487.437 111.766 488.324 118.478L489.404 130.128L489.428 130.535L488.924 129.313C487.845 126.939 486.213 123.823 483.982 120.851C483.406 120.108 482.854 119.365 482.158 118.645C481.462 117.95 480.742 117.255 479.974 116.608C478.463 115.313 476.807 114.163 475.008 113.228C471.409 111.382 467.258 110.519 462.507 111.19C462.363 111.214 462.459 112.868 463.107 115.194C463.419 116.368 463.874 117.71 464.522 119.125C464.834 119.82 465.218 120.563 465.602 121.282C465.938 122.025 466.322 122.768 466.778 123.488C468.553 126.436 471.241 129.289 475.032 131.278C478.559 133.148 483.286 134.203 489.5 133.388V134.059C489.524 135.018 489.548 135.977 489.572 136.935C489.596 138.589 489.644 140.243 489.644 141.826L489.26 149.664C488.708 157.215 487.773 163.999 486.549 170.303C486.453 169.44 486.333 168.434 486.141 167.211C485.853 165.605 485.565 163.735 484.941 161.722C484.293 159.708 483.502 157.575 482.494 155.441C482.014 154.386 481.462 153.332 480.862 152.277C480.286 151.246 479.519 150.215 478.751 149.233C477.215 147.267 475.464 145.469 473.472 143.911C469.585 140.819 464.378 138.853 458.332 138.589C458.092 138.565 458.116 140.507 458.212 143.36C458.356 146.188 459.196 150 460.539 153.883C461.259 155.849 462.315 157.862 463.61 159.828C464.834 161.746 466.418 163.663 468.433 165.389C472.416 168.769 478.055 171.622 486.117 172.485C485.541 175.193 484.917 177.854 484.197 180.371C481.414 190.535 477.767 200.363 473.352 209.616L473.232 209.832L473.304 209.448C473.472 208.298 473.688 206.668 473.856 204.678C474.288 200.723 474.048 195.209 472.968 189.648C471.577 183.991 469.369 178.286 465.194 173.587C463.179 171.238 460.803 169.177 458.044 167.499C455.26 165.797 451.997 164.454 448.398 163.519C448.278 163.495 448.086 163.999 447.87 164.958C447.582 165.869 447.27 167.211 447.054 168.865C446.743 172.173 446.335 176.584 447.15 181.546C447.462 184.015 448.086 186.604 449.142 189.288C450.078 191.925 451.397 194.61 453.341 197.271C457.18 202.497 462.963 207.602 472.608 211.054C468.241 219.804 463.155 228.362 457.42 236.512C454.757 240.251 451.973 243.847 449.142 247.395C449.382 246.747 449.646 246.076 449.91 245.333C450.702 242.912 451.541 240.036 452.237 236.871C452.813 233.611 453.389 230.183 453.485 226.492C453.701 219.205 452.477 211.366 448.854 204.462C447.054 201.01 444.727 197.798 441.776 194.922C438.824 192.045 435.225 189.48 431.05 187.299C430.93 187.251 430.499 187.802 429.995 188.833C429.419 189.864 428.651 191.398 427.955 193.292C426.563 197.127 424.908 202.425 424.38 208.705C423.708 214.914 424.14 222.177 427.067 229.848C428.555 233.659 430.738 237.638 433.906 241.57C436.761 245.141 440.48 248.689 445.255 252.045C435.777 263.096 425.388 272.972 414.135 281.506C413.391 282.057 413.271 283.112 413.823 283.855C414.35 284.55 415.286 284.718 416.006 284.31L416.174 284.19C432.73 271.63 447.534 256.24 460.155 238.453C466.01 230.159 471.193 221.458 475.632 212.541C484.149 218.126 491.948 219.756 498.762 218.198C502.193 217.431 505.48 215.921 508.456 213.883C511.311 211.821 513.926 209.233 516.278 206.428C520.741 200.723 523.98 194.107 525.587 188.857C526.451 186.244 527.051 184.015 527.387 182.433C527.675 180.851 527.723 179.892 527.603 179.892Z" fill="#2C2D2F"/>
<path d="M111.643 228.194C116.105 228.266 120.472 229.009 124.671 230.183C133.093 232.508 141.131 236.248 148.186 240.035C151.689 241.929 155.072 243.775 157.975 245.597C160.975 247.347 163.638 249.001 165.821 250.463C168.053 251.853 169.828 253.052 171.052 253.891C172.252 254.778 172.948 255.257 172.948 255.257C168.533 260.123 164.094 263.695 159.607 266.068C155.12 268.417 150.585 269.544 146.05 269.688C137.004 269.999 128.198 266.044 120.712 260.387C113.346 254.634 107.372 247.203 103.628 241.09C101.781 238.022 100.341 235.361 99.4535 233.467C98.6137 231.502 98.2538 230.327 98.3738 230.255C102.813 228.649 107.252 228.098 111.643 228.194Z" fill="#2C2D2F"/>
<path d="M94.5339 179.892C98.253 179.436 101.756 179.772 105.115 180.611C108.522 181.426 111.762 182.744 114.761 184.35C120.688 187.634 126.326 191.877 130.837 196.096C135.66 200.219 139.427 204.366 142.354 207.315C143.77 208.825 144.874 210.096 145.617 210.982L145.881 211.294L145.761 211.078C141.251 201.634 137.531 191.614 134.724 181.282C133.98 178.693 133.332 175.984 132.733 173.18C124.958 175.793 118.744 175.481 113.681 173.012C111.09 171.742 108.81 169.944 106.843 167.834C104.923 165.677 103.436 163.184 102.14 160.595C99.4767 155.393 98.4929 149.712 97.941 145.445C97.6771 143.288 97.5571 141.49 97.6531 140.219C97.7251 138.949 97.8211 138.23 97.9171 138.23C104.012 138.757 108.858 141.514 113.225 145.062C115.361 146.835 117.304 148.825 119.032 150.863C119.92 151.893 120.688 152.948 121.527 154.003C122.367 155.034 123.159 156.088 123.903 157.119C125.39 159.181 126.662 161.218 127.766 163.112C128.894 164.982 129.997 166.684 130.789 168.146C131.437 169.297 131.917 170.207 132.325 170.998C131.053 164.55 130.093 157.623 129.517 149.88L129.133 141.921C129.133 140.219 129.181 138.541 129.229 136.84C129.253 135.905 129.277 134.946 129.277 134.011L129.301 133.268C123.087 133.675 118.408 132.261 115.001 129.528C111.522 126.7 109.554 122.553 108.426 118.262C108.163 117.207 107.923 116.128 107.755 115.05C107.611 113.995 107.563 112.964 107.515 111.957C107.467 109.944 107.539 108.05 107.683 106.444C107.947 103.184 108.474 101.05 108.618 101.098C113.249 102.393 116.8 105.198 119.536 108.53C120.927 110.207 122.079 112.005 123.087 113.851C123.591 114.762 124.047 115.697 124.479 116.632C124.886 117.543 125.366 118.502 125.75 119.388C127.382 123.08 128.414 126.532 129.037 129.049L129.373 130.295V129.96L130.477 118.094C131.389 111.238 132.733 104.335 134.46 97.3829C129.733 96.6638 126.422 94.842 124.263 92.325C123.111 90.9586 122.175 89.3765 121.671 87.7944C121.119 86.1884 120.855 84.4864 120.736 82.8084C120.52 79.4285 120.999 76.1444 121.551 73.7233C122.151 71.3022 122.919 69.84 123.015 69.864C126.518 71.4221 128.846 73.987 130.573 76.8875C132.373 79.836 133.476 83.12 134.148 86.1884C134.484 87.6985 134.7 89.1608 134.868 90.5032C134.94 91.1983 134.988 91.8216 135.036 92.4448C135.108 93.0441 135.18 93.6194 135.228 94.1468L135.252 94.3146C136.716 88.8252 138.443 83.3358 140.387 77.8703V77.2471C140.411 74.3945 140.651 70.3674 141.562 65.7649C142.618 61.1864 144.61 56.1764 147.513 51.2383C150.632 46.4441 155.023 41.9135 160.542 38.3898C160.614 45.1257 159.222 50.9267 157.303 56.0565C155.599 61.2823 152.984 65.693 150.512 69.4804C148.185 73.2918 145.713 76.3362 143.818 78.4696L143.746 78.5415C141.778 83.959 140.075 89.3526 138.635 94.7461L139.379 93.6194L140.627 92.1572C141.514 91.1264 142.522 90.0717 143.65 89.0649C145.905 87.0513 148.593 85.1816 151.64 84.1508C154.711 83.12 158.238 82.9283 161.885 84.007C162.005 84.0549 161.574 85.3733 160.71 87.2191C159.918 89.0889 158.646 91.462 156.703 93.6194C155.743 94.6742 154.591 95.7049 153.296 96.5919C151.952 97.4548 150.632 98.2219 149.001 98.7253C146.001 99.6602 142.258 99.7081 137.723 98.1979C136.044 105.006 134.7 111.766 133.812 118.478L132.733 130.128V130.535L133.212 129.313C134.316 126.939 135.948 123.823 138.179 120.851C138.755 120.108 139.307 119.365 140.003 118.645C140.675 117.95 141.418 117.255 142.162 116.608C143.698 115.313 145.354 114.163 147.153 113.228C150.752 111.382 154.903 110.519 159.654 111.19C159.774 111.214 159.702 112.868 159.054 115.194C158.718 116.368 158.262 117.71 157.639 119.125C157.327 119.82 156.943 120.563 156.559 121.282C156.223 122.025 155.815 122.768 155.383 123.488C153.607 126.436 150.896 129.289 147.105 131.278C143.578 133.148 138.851 134.203 132.661 133.388V134.059C132.637 135.018 132.613 135.977 132.589 136.935C132.565 138.589 132.517 140.243 132.517 141.826L132.877 149.664C133.452 157.215 134.388 163.999 135.612 170.303C135.708 169.44 135.828 168.434 136.02 167.211C136.308 165.605 136.596 163.735 137.219 161.722C137.867 159.708 138.659 157.575 139.643 155.441C140.147 154.386 140.699 153.332 141.275 152.277C141.874 151.246 142.642 150.215 143.41 149.233C144.946 147.267 146.697 145.469 148.689 143.911C152.576 140.819 157.782 138.853 163.829 138.589C164.045 138.565 164.045 140.507 163.949 143.36C163.805 146.188 162.965 150 161.622 153.883C160.902 155.849 159.846 157.862 158.55 159.828C157.327 161.746 155.743 163.663 153.703 165.389C149.744 168.769 144.106 171.622 136.044 172.485C136.62 175.193 137.243 177.854 137.963 180.371C140.747 190.535 144.37 200.363 148.809 209.616L148.929 209.832L148.857 209.448C148.689 208.298 148.473 206.668 148.305 204.678C147.873 200.723 148.113 195.209 149.193 189.648C150.584 183.991 152.792 178.286 156.967 173.587C158.982 171.238 161.358 169.177 164.117 167.499C166.9 165.797 170.163 164.454 173.763 163.519C173.883 163.495 174.075 163.999 174.29 164.958C174.578 165.869 174.89 167.211 175.106 168.865C175.418 172.173 175.826 176.584 174.986 181.546C174.698 184.015 174.075 186.604 173.019 189.288C172.059 191.925 170.739 194.61 168.82 197.271C164.981 202.497 159.198 207.602 149.552 211.054C153.895 219.804 159.006 228.362 164.741 236.512C167.404 240.251 170.187 243.847 173.019 247.395C172.779 246.747 172.515 246.076 172.251 245.333C171.459 242.912 170.619 240.036 169.924 236.871C169.348 233.611 168.772 230.183 168.676 226.492C168.46 219.205 169.684 211.366 173.283 204.462C175.106 201.01 177.434 197.798 180.361 194.922C183.336 192.045 186.935 189.48 191.11 187.299C191.23 187.251 191.638 187.802 192.166 188.833C192.742 189.864 193.486 191.398 194.182 193.292C195.573 197.127 197.253 202.425 197.781 208.705C198.453 214.914 198.021 222.177 195.093 229.848C193.606 233.659 191.422 237.638 188.255 241.57C185.4 245.141 181.681 248.689 176.906 252.045C186.384 263.096 196.773 272.972 208.002 281.506C208.746 282.057 208.89 283.112 208.338 283.855C207.81 284.55 206.875 284.718 206.155 284.31L205.963 284.19C189.431 271.63 174.626 256.24 162.005 238.453C156.151 230.159 150.968 221.458 146.529 212.541C138.011 218.126 130.213 219.756 123.399 218.198C119.944 217.431 116.68 215.921 113.705 213.883C110.826 211.821 108.211 209.233 105.883 206.428C101.42 200.723 98.181 194.107 96.5734 188.857C95.7096 186.244 95.1097 184.015 94.7738 182.433C94.4859 180.851 94.4379 179.892 94.5339 179.892Z" fill="#2C2D2F"/>
<path d="M238.525 130.223L239.557 130.415C241.284 130.415 242.7 129.025 242.7 127.299C242.7 126.628 242.484 126.028 242.124 125.525H242.82C243.636 125.525 244.284 124.878 244.284 124.063V122.768H223.553V124.063C223.553 124.878 224.2 125.525 225.016 125.525H225.712C225.352 126.028 225.16 126.628 225.16 127.299C225.16 129.025 226.552 130.415 228.279 130.415L229.311 130.223L226.12 215.681H225.976C225.136 215.681 224.416 216.376 224.416 217.215V218.917H223.912C222.785 218.917 221.849 219.852 221.849 220.978V224.358H245.987V220.978C245.987 219.852 245.051 218.917 243.924 218.917H243.42V217.215C243.42 216.376 242.724 215.681 241.86 215.681H241.716" fill="#2C2D2F"/>
<path d="M265.159 215.681C264.295 215.681 263.6 216.376 263.6 217.215V218.917H263.072C261.944 218.917 261.008 219.852 261.008 220.978V224.358H285.146V220.978C285.146 219.852 284.234 218.917 283.083 218.917H282.579V217.215C282.579 216.376 281.883 215.681 281.019 215.681H280.899L277.684 130.223L278.74 130.415C280.443 130.415 281.859 129.025 281.859 127.299C281.859 126.628 281.643 126.028 281.283 125.525H282.003C282.795 125.525 283.443 124.878 283.443 124.063V122.768H262.712V124.063C262.712 124.878 263.36 125.525 264.175 125.525H264.871C264.535 126.028 264.319 126.628 264.319 127.299C264.319 129.025 265.711 130.415 267.439 130.415L268.47 130.223L265.279 215.681H265.159Z" fill="#2C2D2F"/>
<path d="M316.844 130.223L317.899 130.415C319.627 130.415 321.019 129.025 321.019 127.299C321.019 126.628 320.803 126.028 320.467 125.525H321.163C321.954 125.525 322.602 124.878 322.602 124.063V122.768H301.895V124.063C301.895 124.878 302.543 125.525 303.335 125.525H304.031C303.695 126.028 303.479 126.628 303.479 127.299C303.479 129.025 304.871 130.415 306.598 130.415L307.63 130.223L304.439 215.681H304.319C303.455 215.681 302.759 216.376 302.759 217.215V218.917H302.231C301.104 218.917 300.192 219.852 300.192 220.978V224.358H324.306V220.978C324.306 219.852 323.394 218.917 322.242 218.917H321.739V217.215C321.739 216.376 321.043 215.681 320.179 215.681H320.059" fill="#2C2D2F"/>
<path d="M343.477 215.681C342.613 215.681 341.917 216.376 341.917 217.215V218.917H341.413C340.262 218.917 339.35 219.852 339.35 220.978V224.358H363.488V220.978C363.488 219.852 362.552 218.917 361.425 218.917H360.897V217.215C360.897 216.376 360.201 215.681 359.337 215.681H359.217L356.002 130.223L357.058 130.415C358.785 130.415 360.177 129.025 360.177 127.299C360.177 126.628 359.961 126.028 359.625 125.525H360.321C361.113 125.525 361.784 124.878 361.784 124.063V122.768H341.054V124.063C341.054 124.878 341.701 125.525 342.493 125.525H343.189C342.853 126.028 342.637 126.628 342.637 127.299C342.637 129.025 344.053 130.415 345.756 130.415L346.812 130.223L343.597 215.681H343.477Z" fill="#2C2D2F"/>
<path d="M382.635 215.681C381.771 215.681 381.076 216.376 381.076 217.215V218.917H380.572C379.444 218.917 378.508 219.852 378.508 220.978V224.358H402.646V220.978C402.646 219.852 401.711 218.917 400.583 218.917H400.055V217.215C400.055 216.376 399.359 215.681 398.495 215.681H398.375L395.184 130.223L396.216 130.415C397.943 130.415 399.335 129.025 399.335 127.299C399.335 126.628 399.143 126.028 398.783 125.525H399.479C400.271 125.525 400.943 124.878 400.943 124.063V122.768H380.212V124.063C380.212 124.878 380.86 125.525 381.675 125.525H382.371C382.011 126.028 381.795 126.628 381.795 127.299C381.795 129.025 383.211 130.415 384.915 130.415L385.97 130.223L382.779 215.681H382.635Z" fill="#2C2D2F"/>
<path d="M412.34 246.508V243.559C412.34 242.672 411.62 241.929 410.708 241.929H408.861V240.083C408.861 239.172 408.117 238.453 407.229 238.453H405.405V236.224C405.405 235.217 404.59 234.402 403.582 234.402H219.954C218.947 234.402 218.131 235.217 218.131 236.224V238.453H216.307C215.42 238.453 214.676 239.172 214.676 240.083V241.929H212.828C211.916 241.929 211.197 242.672 211.197 243.559V246.508" fill="#2C2D2F"/>
<path d="M363.488 110.974H407.23C408.117 110.974 408.861 110.255 408.861 109.344V102.728L408.237 101.506L407.23 101.122H400.199V97.1431L399.719 95.9685L398.352 95.3213H387.41L357.658 77.6305L315.428 52.5566L243.421 95.3213H228.665C227.657 95.3213 226.841 96.1603 226.841 97.167V101.122H219.787C218.899 101.122 218.156 101.841 218.156 102.752V109.344C218.156 110.255 218.899 110.974 219.787 110.974" fill="#2C2D2F"/>
<path d="M315.643 0.778931L320.01 9.6243L329.776 11.0386L322.722 17.9183L324.377 27.6506L315.643 23.0482L306.909 27.6506L308.565 17.9183L301.511 11.0386L311.276 9.6243L315.643 0.778931Z" fill="#2C2D2F"/>
<path d="M357.488 9.28845L361.855 18.1338L371.621 19.5481L364.567 26.4279L366.222 36.1602L357.488 31.5817L348.754 36.1602L350.434 26.4279L343.356 19.5481L353.121 18.1338L357.488 9.28845Z" fill="#2C2D2F"/>
<path d="M399.167 24.031L403.534 32.8764L413.3 34.2907L406.245 41.1704L407.901 50.9027L399.167 46.3003L390.433 50.9027L392.113 41.1704L385.035 34.2907L394.8 32.8764L399.167 24.031Z" fill="#2C2D2F"/>
<path d="M273.798 9.28845L269.431 18.1338L259.665 19.5481L266.72 26.4279L265.064 36.1602L273.798 31.5817L282.532 36.1602L280.852 26.4279L287.93 19.5481L278.165 18.1338L273.798 9.28845Z" fill="#2C2D2F"/>
<path d="M232.119 24.031L227.752 32.8764L217.987 34.2907L225.041 41.1704L223.385 50.9027L232.119 46.3003L240.853 50.9027L239.174 41.1704L246.252 34.2907L236.486 32.8764L232.119 24.031Z" fill="#2C2D2F"/>
<path d="M0 338.293H5.58968L9.45946 327.677H28.9312L32.8624 338.293H38.4521L21.8673 294.723H16.5233L0 338.293ZM11.1794 323.013L19.1032 301.167H19.226L27.2727 323.013H11.1794Z" fill="#2C2D2F"/>
<path d="M75.8465 333.875H70.6254V308.408H51.0922C51.0308 313.195 50.7851 318.104 49.9251 322.768C49.2495 326.757 48.021 330.561 46.0554 333.875H41.3256V346.517H45.5025L45.8097 338.293H71.3011L71.6082 346.517H75.8465V333.875ZM51.2151 333.875C52.7507 331.052 53.8563 327.8 54.5934 324.241C55.4534 320.374 55.6991 316.386 55.8219 312.826H65.65V333.875H51.2151Z" fill="#2C2D2F"/>
<path d="M82.2534 338.293H96.6269C104.796 338.293 107.868 334.918 107.868 329.948C107.868 325.836 105.104 323.381 101.418 322.645V322.584C104.735 321.54 106.332 319.209 106.332 315.711C106.332 310.863 102.708 308.408 96.1969 308.408H82.2534V338.293ZM87.106 321.05V312.642H95.9512C99.2682 312.642 101.418 313.747 101.418 316.693C101.418 319.638 99.5139 321.05 95.767 321.05H87.106ZM87.106 334.059V325.038H96.5655C100.558 325.038 102.769 326.511 102.769 329.518C102.769 332.648 100.681 334.059 96.2583 334.059H87.106Z" fill="#2C2D2F"/>
<path d="M128.58 338.662C137.426 338.662 143.998 332.464 143.998 323.381C143.998 314.299 137.426 308.04 128.58 308.04C119.305 308.04 113.101 314.79 113.101 323.381C113.101 331.973 119.305 338.662 128.58 338.662ZM128.58 334.121C122.376 334.121 118.2 329.334 118.2 323.381C118.2 317.429 122.315 312.581 128.58 312.581C134.354 312.581 138.9 316.999 138.9 323.381C138.9 329.764 134.293 334.121 128.58 334.121Z" fill="#2C2D2F"/>
<path d="M151.417 338.293H156.392V330.439L162.166 324.302L172.485 338.293H178.382L165.729 321.295L177.707 308.408H171.564L156.515 324.732H156.392V308.408H151.417V338.293Z" fill="#2C2D2F"/>
<path d="M195.501 338.662C200.354 338.662 204.039 336.452 206.189 332.893H206.25V338.293H211.042V308.408H206.066V313.686L205.943 313.747C203.793 310.126 199.924 308.04 195.501 308.04C187.024 308.04 180.943 314.729 180.943 323.566C180.943 332.648 187.27 338.662 195.501 338.662ZM196.238 334.121C190.096 334.121 185.98 329.579 185.98 323.566C185.98 316.938 190.587 312.581 196.238 312.581C202.135 312.581 206.25 317.429 206.25 323.566C206.25 329.886 201.766 334.121 196.238 334.121Z" fill="#2C2D2F"/>
<path d="M226.921 338.293H231.896V312.826H241.909V308.408H216.909V312.826H226.921V338.293Z" fill="#2C2D2F"/>
<path d="M265.586 338.293H270.93V326.204L277.257 318.779L291.446 338.293H298.141L280.82 314.606L297.711 294.723H290.832L271.053 318.595H270.93V294.723H265.586V338.293Z" fill="#2C2D2F"/>
<path d="M314.872 338.662C319.725 338.662 323.41 336.452 325.56 332.893H325.621V338.293H330.413V308.408H325.437V313.686L325.314 313.747C323.164 310.126 319.295 308.04 314.872 308.04C306.395 308.04 300.314 314.729 300.314 323.566C300.314 332.648 306.641 338.662 314.872 338.662ZM315.609 334.121C309.467 334.121 305.351 329.579 305.351 323.566C305.351 316.938 309.958 312.581 315.609 312.581C321.506 312.581 325.621 317.429 325.621 323.566C325.621 329.886 321.137 334.121 315.609 334.121Z" fill="#2C2D2F"/>
<path d="M339.351 350.444H344.326V333.139H344.388C346.599 336.575 350.285 338.662 355.014 338.662C363.245 338.662 369.572 332.648 369.572 323.566C369.572 314.729 363.491 308.04 355.014 308.04C350.469 308.04 346.66 310.126 344.388 313.686H344.326V308.408H339.351V350.444ZM354.339 334.121C348.626 334.121 344.081 329.886 344.081 323.566C344.081 317.429 348.196 312.581 354.277 312.581C359.928 312.581 364.535 316.938 364.535 323.566C364.535 329.579 360.358 334.121 354.339 334.121Z" fill="#2C2D2F"/>
<path d="M377.082 338.293H381.873L398.703 316.079H398.826V338.293H403.802V308.408H399.072L382.18 331.114H382.057V308.408H377.082V338.293Z" fill="#2C2D2F"/>
<path d="M413.133 338.293H417.924V316.877H418.047L427.568 333.077H430.946L440.529 316.815H440.651V338.293H445.443V308.408H440.651L429.349 327.554H429.226L417.986 308.408H413.133V338.293Z" fill="#2C2D2F"/>
<path d="M454.763 338.293H459.738V312.826H475.217V338.293H480.193V308.408H454.763V338.293Z" fill="#2C2D2F"/>
<path d="M489.554 338.293H494.346L511.176 316.079H511.299V338.293H516.274V308.408H511.545L494.653 331.114H494.53V308.408H489.554V338.293Z" fill="#2C2D2F"/>
<path d="M556.81 333.875H551.588V308.408H532.055C531.994 313.195 531.748 318.104 530.888 322.768C530.213 326.757 528.984 330.561 527.018 333.875H522.289V346.517H526.466L526.773 338.293H552.264L552.571 346.517H556.81V333.875ZM532.178 333.875C533.714 331.052 534.819 327.8 535.556 324.241C536.416 320.374 536.662 316.386 536.785 312.826H546.613V333.875H532.178Z" fill="#2C2D2F"/>
<path d="M563.216 338.293H568.008L584.838 316.079H584.961V338.293H589.936V308.408H585.207L568.315 331.114H568.192V308.408H563.216V338.293Z" fill="#2C2D2F"/>
<path d="M612.29 338.662C618.125 338.662 622.118 336.452 624.636 333.446L621.196 330.316C619.354 332.586 616.221 334.121 612.658 334.121C606.577 334.121 602.462 329.764 602.462 323.381C602.462 317.061 606.577 312.581 612.72 312.581C616.282 312.581 619.231 314.177 621.135 316.386L624.513 313.379C621.565 309.881 616.958 308.04 612.474 308.04C603.567 308.04 597.364 314.361 597.364 323.381C597.364 332.464 603.567 338.662 612.29 338.662Z" fill="#2C2D2F"/>
</svg>
