<svg width="514" height="356" viewBox="0 0 514 356" fill="none" xmlns="http://www.w3.org/2000/svg">
<path d="M454.566 231.25C450.067 231.323 445.642 232.076 441.387 233.266C432.851 235.623 424.705 239.412 417.556 243.251C414.006 245.17 410.578 247.04 407.635 248.887C404.596 250.66 401.897 252.336 399.684 253.818C397.398 255.227 395.599 256.442 394.383 257.292C393.167 258.191 392.462 258.677 392.462 258.677C396.912 263.608 401.41 267.228 405.982 269.633C410.529 272.014 415.125 273.155 419.696 273.301C428.888 273.617 437.812 269.609 445.374 263.875C452.864 258.045 458.919 250.514 462.712 244.319C464.584 241.21 466.043 238.513 466.943 236.594C467.794 234.602 468.159 233.412 468.037 233.339C463.514 231.711 459.04 231.153 454.566 231.25Z" fill="#2C2D2F"/>
<path d="M478.13 182.299C474.385 181.838 470.835 182.178 467.406 183.028C463.978 183.854 460.695 185.19 457.631 186.818C451.649 190.146 445.935 194.446 441.364 198.721C436.452 202.9 432.658 207.103 429.692 210.091C428.257 211.621 427.139 212.909 426.385 213.807L426.117 214.123L426.214 213.905C430.81 204.333 434.579 194.179 437.424 183.708C438.178 181.085 438.835 178.34 439.418 175.497C447.297 178.145 453.619 177.829 458.75 175.327C461.376 174.04 463.662 172.218 465.68 170.08C467.625 167.893 469.133 165.367 470.422 162.743C473.145 157.472 474.142 151.714 474.677 147.39C474.945 145.204 475.09 143.382 474.969 142.094C474.92 140.807 474.823 140.078 474.726 140.078C468.549 140.612 463.637 143.406 459.212 147.001C457.023 148.799 455.078 150.815 453.327 152.88C452.428 153.925 451.649 154.994 450.798 156.063C449.947 157.107 449.145 158.176 448.391 159.221C446.883 161.31 445.595 163.375 444.476 165.294C443.333 167.189 442.215 168.914 441.388 170.396C440.731 171.562 440.245 172.485 439.856 173.287C441.145 166.752 442.093 159.731 442.701 151.884L443.066 143.819C443.066 142.094 443.041 140.394 442.993 138.669C442.968 137.721 442.944 136.75 442.944 135.802L442.92 135.049C449.218 135.462 453.959 134.029 457.412 131.259C460.938 128.393 462.932 124.19 464.051 119.842C464.343 118.773 464.561 117.68 464.756 116.586C464.902 115.517 464.951 114.473 464.999 113.453C465.048 111.412 464.975 109.493 464.829 107.865C464.561 104.561 464.026 102.399 463.881 102.448C459.188 103.76 455.589 106.602 452.817 109.979C451.406 111.679 450.215 113.501 449.218 115.372C448.707 116.295 448.221 117.242 447.807 118.19C447.394 119.113 446.883 120.085 446.494 120.983C444.865 124.725 443.82 128.223 443.187 130.774L442.847 132.037L442.823 131.697L441.728 119.672C440.804 112.724 439.418 105.727 437.692 98.6824C442.482 97.9536 445.838 96.1073 448.026 93.5565C449.193 92.1718 450.142 90.5685 450.652 88.9651C451.187 87.3375 451.479 85.6127 451.601 83.9121C451.82 80.4868 451.333 77.1586 450.774 74.705C450.142 72.2514 449.364 70.7696 449.266 70.7938C445.741 72.3729 443.382 74.9723 441.607 77.9117C439.807 80.8998 438.689 84.2279 438.008 87.3375C437.667 88.8679 437.449 90.3498 437.278 91.7102C437.205 92.4147 437.133 93.0463 437.084 93.678C437.035 94.2853 436.962 94.8683 436.889 95.4028V95.5728C435.406 90.0097 433.655 84.4466 431.661 78.9078L431.686 78.2761C431.661 75.3853 431.394 71.304 430.47 66.6397C429.424 61.9997 427.406 56.9225 424.464 51.9181C421.303 47.0595 416.853 42.4681 411.26 38.897C411.187 45.7233 412.597 51.6023 414.543 56.801C416.269 62.0969 418.92 66.5668 421.424 70.4052C423.783 74.2678 426.287 77.353 428.208 79.5151L428.281 79.588C430.275 85.0782 432.002 90.5442 433.461 96.0101L432.683 94.8683L431.443 93.3865C430.543 92.3419 429.497 91.2729 428.379 90.2526C426.093 88.212 423.345 86.3172 420.281 85.2726C417.144 84.228 413.594 84.0336 409.898 85.1268C409.777 85.1754 410.214 86.5115 411.09 88.3821C411.868 90.2769 413.181 92.682 415.151 94.8683C416.123 95.9372 417.29 96.9818 418.603 97.8807C419.965 98.7552 421.303 99.5326 422.956 100.043C425.996 100.99 429.789 101.039 434.36 99.5083C436.087 106.408 437.424 113.258 438.324 120.06L439.418 131.867L439.443 132.28L438.932 131.041C437.838 128.636 436.184 125.478 433.923 122.465C433.339 121.712 432.78 120.959 432.075 120.23C431.37 119.526 430.64 118.821 429.862 118.165C428.33 116.854 426.652 115.688 424.828 114.74C421.181 112.87 416.974 111.995 412.16 112.675C412.014 112.699 412.111 114.376 412.768 116.732C413.084 117.923 413.546 119.283 414.202 120.716C414.518 121.421 414.907 122.174 415.296 122.903C415.637 123.656 416.026 124.409 416.488 125.138C418.287 128.126 421.011 131.017 424.853 133.033C428.427 134.928 433.218 135.997 439.516 135.171V135.851C439.54 136.823 439.564 137.794 439.588 138.766C439.613 140.442 439.661 142.118 439.661 143.722L439.272 151.666C438.713 159.318 437.765 166.193 436.525 172.582C436.427 171.707 436.306 170.687 436.111 169.448C435.819 167.821 435.528 165.926 434.895 163.885C434.239 161.844 433.436 159.682 432.415 157.52C431.929 156.451 431.37 155.383 430.762 154.314C430.178 153.269 429.4 152.224 428.622 151.228C427.066 149.236 425.29 147.414 423.272 145.835C419.333 142.701 414.056 140.709 407.929 140.442C407.685 140.418 407.71 142.386 407.807 145.277C407.953 148.143 408.804 152.006 410.166 155.941C410.895 157.933 411.965 159.974 413.278 161.966C414.518 163.909 416.123 165.853 418.166 167.602C422.202 171.027 427.917 173.918 436.087 174.793C435.503 177.538 434.871 180.234 434.142 182.785C431.321 193.085 427.625 203.046 423.151 212.423L423.029 212.641L423.102 212.253C423.272 211.087 423.491 209.435 423.661 207.418C424.099 203.41 423.856 197.823 422.762 192.187C421.351 186.453 419.114 180.672 414.883 175.91C412.84 173.529 410.433 171.44 407.637 169.74C404.816 168.015 401.509 166.655 397.862 165.707C397.74 165.683 397.545 166.193 397.327 167.165C397.035 168.088 396.719 169.448 396.5 171.124C396.184 174.477 395.77 178.947 396.597 183.976C396.913 186.478 397.545 189.101 398.615 191.822C399.564 194.494 400.901 197.215 402.871 199.912C406.761 205.208 412.622 210.382 422.397 213.88C417.971 222.747 412.816 231.42 407.005 239.68C404.305 243.469 401.485 247.113 398.615 250.709C398.859 250.053 399.126 249.373 399.393 248.62C400.196 246.166 401.047 243.251 401.752 240.044C402.336 236.74 402.919 233.266 403.017 229.525C403.235 222.14 401.995 214.196 398.324 207.2C396.5 203.702 394.141 200.446 391.15 197.531C388.159 194.616 384.512 192.017 380.281 189.806C380.159 189.757 379.722 190.316 379.211 191.361C378.627 192.405 377.849 193.96 377.144 195.879C375.734 199.766 374.056 205.135 373.521 211.5C372.84 217.792 373.278 225.152 376.244 232.926C377.752 236.789 379.965 240.821 383.174 244.806C386.068 248.425 389.837 252.021 394.676 255.422C385.071 266.621 374.542 276.63 363.138 285.278C362.384 285.837 362.262 286.906 362.822 287.659C363.357 288.363 364.305 288.533 365.034 288.12L365.205 287.999C381.983 275.269 396.986 259.673 409.777 241.647C415.71 233.242 420.962 224.424 425.461 215.387C434.093 221.047 441.996 222.699 448.902 221.12C452.379 220.342 455.71 218.812 458.726 216.747C461.619 214.658 464.27 212.034 466.653 209.192C471.176 203.41 474.458 196.705 476.087 191.385C476.963 188.737 477.571 186.478 477.911 184.874C478.203 183.271 478.252 182.299 478.13 182.299Z" fill="#2C2D2F"/>
<path d="M56.584 231.25C61.1069 231.323 65.5325 232.076 69.7878 233.266C78.3229 235.623 86.4689 239.412 93.6179 243.251C97.1681 245.17 100.597 247.04 103.539 248.887C106.579 250.66 109.278 252.336 111.49 253.818C113.752 255.227 115.551 256.442 116.791 257.292C118.007 258.191 118.712 258.677 118.712 258.677C114.238 263.608 109.74 267.228 105.192 269.633C100.645 272.014 96.0495 273.155 91.4537 273.301C82.2864 273.617 73.3623 269.609 65.7756 263.875C58.3105 258.045 52.2557 250.514 48.4623 244.319C46.59 241.21 45.131 238.513 44.2313 236.594C43.3802 234.602 43.0155 233.412 43.1371 233.339C47.6356 231.711 52.1341 231.153 56.584 231.25Z" fill="#2C2D2F"/>
<path d="M39.2457 182.299C43.0148 181.838 46.565 182.178 49.9692 183.028C53.4222 183.854 56.7049 185.19 59.7444 186.818C65.7506 190.146 71.4649 194.446 76.0364 198.721C80.924 202.9 84.7417 207.103 87.7083 210.091C89.143 211.621 90.2615 212.909 91.0153 213.807L91.2828 214.123L91.1612 213.905C86.5897 204.333 82.8207 194.179 79.9757 183.708C79.2219 181.085 78.5653 178.34 77.9574 175.497C70.0789 178.145 63.781 177.829 58.6502 175.327C56.024 174.04 53.714 172.218 51.72 170.08C49.7747 167.893 48.2671 165.367 46.954 162.743C44.2549 157.472 43.2579 151.714 42.6986 147.39C42.4312 145.204 42.3096 143.382 42.4069 142.094C42.4798 140.807 42.5771 140.078 42.6743 140.078C48.8507 140.612 53.7626 143.406 58.1882 147.001C60.3523 148.799 62.322 150.815 64.0728 152.88C64.9725 153.925 65.7506 154.994 66.6017 156.063C67.4527 157.107 68.2552 158.176 69.009 159.221C70.5166 161.31 71.8054 163.375 72.9239 165.294C74.0668 167.189 75.1853 168.914 75.9878 170.396C76.6443 171.562 77.1307 172.485 77.544 173.287C76.2553 166.752 75.2826 159.731 74.699 151.884L74.31 143.819C74.31 142.094 74.3586 140.394 74.4072 138.669C74.4315 137.721 74.4559 136.75 74.4559 135.802L74.4802 135.049C68.1822 135.462 63.4405 134.029 59.9876 131.259C56.4617 128.393 54.4678 124.19 53.3249 119.842C53.0574 118.773 52.8143 117.68 52.6441 116.586C52.4982 115.517 52.4495 114.473 52.4009 113.453C52.3523 111.412 52.4252 109.493 52.5711 107.865C52.8386 104.561 53.3735 102.399 53.5194 102.448C58.2125 103.76 61.8113 106.602 64.5834 109.979C65.9938 111.679 67.1609 113.501 68.1822 115.372C68.6929 116.295 69.1549 117.242 69.5926 118.19C70.006 119.113 70.4923 120.085 70.8813 120.983C72.5349 124.725 73.5805 128.223 74.2127 130.774L74.5531 132.037V131.697L75.6717 119.672C76.5957 112.724 77.9574 105.727 79.7082 98.6824C74.9179 97.9536 71.5622 96.1073 69.3737 93.5565C68.2065 92.1718 67.2582 90.5685 66.7476 88.9651C66.1883 87.3375 65.9208 85.6127 65.7992 83.9121C65.5804 80.4868 66.0667 77.1586 66.626 74.705C67.2339 72.2514 68.012 70.7696 68.1093 70.7938C71.6595 72.3729 74.0182 74.9723 75.7689 77.9117C77.5927 80.8998 78.7112 84.2279 79.3921 87.3375C79.7325 88.8679 79.9514 90.3498 80.1216 91.7102C80.1945 92.4147 80.2432 93.0463 80.2918 93.678C80.3647 94.2853 80.4377 94.8683 80.4863 95.4028L80.5106 95.5728C81.9939 90.0097 83.7447 84.4466 85.7143 78.9078V78.2761C85.7387 75.3853 85.9818 71.304 86.9058 66.6397C87.9758 61.9997 89.994 56.9225 92.9363 51.9181C96.0974 47.0595 100.547 42.4681 106.14 38.897C106.213 45.7233 104.803 51.6023 102.857 56.801C101.131 62.0969 98.4805 66.5668 95.9759 70.4052C93.6172 74.2678 91.1126 77.353 89.1916 79.5151L89.1186 79.588C87.1247 85.0782 85.3982 90.5442 83.9393 96.0101L84.6931 94.8683L85.9575 93.3865C86.8572 92.3419 87.8785 91.2729 89.0214 90.2526C91.3071 88.212 94.0305 86.3172 97.1187 85.2726C100.231 84.228 103.806 84.0336 107.502 85.1268C107.623 85.1754 107.186 86.5115 106.31 88.3821C105.508 90.2769 104.219 92.682 102.249 94.8683C101.277 95.9372 100.11 96.9818 98.7966 97.8807C97.4348 98.7552 96.0974 99.5326 94.4439 100.043C91.4044 100.99 87.611 101.039 83.0152 99.5083C81.3131 106.408 79.9514 113.258 79.0517 120.06L77.9574 131.867V132.28L78.4437 131.041C79.5623 128.636 81.2158 125.478 83.4772 122.465C84.0608 121.712 84.6201 120.959 85.3253 120.23C86.0061 119.526 86.7599 118.821 87.5138 118.165C89.07 116.854 90.7478 115.688 92.5716 114.74C96.219 112.87 100.426 111.995 105.24 112.675C105.362 112.699 105.289 114.376 104.632 116.732C104.292 117.923 103.83 119.283 103.198 120.716C102.882 121.421 102.493 122.174 102.104 122.903C101.763 123.656 101.35 124.409 100.912 125.138C99.1127 128.126 96.3649 131.017 92.5229 133.033C88.9484 134.928 84.1581 135.997 77.8845 135.171V135.851C77.8602 136.823 77.8358 137.794 77.8115 138.766C77.7872 140.442 77.7386 142.118 77.7386 143.722L78.1033 151.666C78.6869 159.318 79.6352 166.193 80.8754 172.582C80.9726 171.707 81.0942 170.687 81.2888 169.448C81.5806 167.821 81.8724 165.926 82.5046 163.885C83.1611 161.844 83.9636 159.682 84.9605 157.52C85.4712 156.451 86.0305 155.383 86.6141 154.314C87.222 153.269 88.0001 152.224 88.7782 151.228C90.3345 149.236 92.1096 147.414 94.1278 145.835C98.0671 142.701 103.344 140.709 109.471 140.442C109.69 140.418 109.69 142.386 109.593 145.277C109.447 148.143 108.596 152.006 107.234 155.941C106.505 157.933 105.435 159.974 104.122 161.966C102.882 163.909 101.277 165.853 99.2099 167.602C95.1977 171.027 89.4834 173.918 81.3131 174.793C81.8967 177.538 82.5289 180.234 83.2584 182.785C86.0791 193.085 89.7509 203.046 94.2494 212.423L94.371 212.641L94.298 212.253C94.1278 211.087 93.909 209.435 93.7388 207.418C93.3011 203.41 93.5442 197.823 94.6385 192.187C96.0488 186.453 98.2859 180.672 102.517 175.91C104.56 173.529 106.967 171.44 109.763 169.74C112.584 168.015 115.891 166.655 119.538 165.707C119.66 165.683 119.855 166.193 120.073 167.165C120.365 168.088 120.681 169.448 120.9 171.124C121.216 174.477 121.63 178.947 120.779 183.976C120.487 186.478 119.855 189.101 118.785 191.822C117.812 194.494 116.475 197.215 114.529 199.912C110.639 205.208 104.778 210.382 95.0032 213.88C99.4045 222.747 104.584 231.42 110.395 239.68C113.095 243.469 115.915 247.113 118.785 250.709C118.541 250.053 118.274 249.373 118.007 248.62C117.204 246.166 116.353 243.251 115.648 240.044C115.064 236.74 114.481 233.266 114.383 229.525C114.165 222.14 115.405 214.196 119.052 207.2C120.9 203.702 123.259 200.446 126.225 197.531C129.241 194.616 132.888 192.017 137.119 189.806C137.241 189.757 137.654 190.316 138.189 191.361C138.773 192.405 139.527 193.96 140.232 195.879C141.642 199.766 143.344 205.135 143.879 211.5C144.56 217.792 144.122 225.152 141.156 232.926C139.648 236.789 137.435 240.821 134.226 244.806C131.332 248.425 127.563 252.021 122.724 255.422C132.329 266.621 142.858 276.63 154.238 285.278C154.992 285.837 155.138 286.906 154.578 287.659C154.043 288.363 153.095 288.533 152.366 288.12L152.171 287.999C135.417 275.269 120.414 259.673 107.623 241.647C101.69 233.242 96.4379 224.424 91.9393 215.387C83.307 221.047 75.4042 222.699 68.4983 221.12C64.9968 220.342 61.6898 218.812 58.6745 216.747C55.7566 214.658 53.1061 212.034 50.7474 209.192C46.2245 203.41 42.9418 196.705 41.3126 191.385C40.4372 188.737 39.8293 186.478 39.4889 184.874C39.1971 183.271 39.1485 182.299 39.2457 182.299Z" fill="#2C2D2F"/>
<path d="M185.172 131.964L186.218 132.158C187.969 132.158 189.403 130.749 189.403 129C189.403 128.32 189.185 127.713 188.82 127.202H189.525C190.352 127.202 191.008 126.546 191.008 125.721V124.409H169.999V125.721C169.999 126.546 170.655 127.202 171.482 127.202H172.187C171.823 127.713 171.628 128.32 171.628 129C171.628 130.749 173.038 132.158 174.789 132.158L175.835 131.964L172.601 218.569H172.455C171.604 218.569 170.874 219.273 170.874 220.124V221.848H170.364C169.221 221.848 168.272 222.796 168.272 223.938V227.363H192.735V223.938C192.735 222.796 191.786 221.848 190.644 221.848H190.133V220.124C190.133 219.273 189.428 218.569 188.552 218.569H188.406" fill="#2C2D2F"/>
<path d="M212.164 218.569C211.288 218.569 210.583 219.273 210.583 220.124V221.848H210.048C208.905 221.848 207.957 222.796 207.957 223.938V227.363H232.419V223.938C232.419 222.796 231.495 221.848 230.328 221.848H229.817V220.124C229.817 219.273 229.112 218.569 228.237 218.569H228.115L224.857 131.964L225.927 132.158C227.653 132.158 229.088 130.749 229.088 129C229.088 128.32 228.869 127.713 228.504 127.202H229.234C230.036 127.202 230.693 126.546 230.693 125.721V124.409H209.683V125.721C209.683 126.546 210.34 127.202 211.167 127.202H211.872C211.532 127.713 211.313 128.32 211.313 129C211.313 130.749 212.723 132.158 214.474 132.158L215.519 131.964L212.285 218.569H212.164Z" fill="#2C2D2F"/>
<path d="M264.54 131.964L265.61 132.158C267.36 132.158 268.771 130.749 268.771 129C268.771 128.32 268.552 127.713 268.211 127.202H268.917C269.719 127.202 270.376 126.546 270.376 125.721V124.409H249.391V125.721C249.391 126.546 250.047 127.202 250.85 127.202H251.555C251.214 127.713 250.995 128.32 250.995 129C250.995 130.749 252.406 132.158 254.157 132.158L255.202 131.964L251.968 218.569H251.846C250.971 218.569 250.266 219.273 250.266 220.124V221.848H249.731C248.588 221.848 247.664 222.796 247.664 223.938V227.363H272.102V223.938C272.102 222.796 271.178 221.848 270.011 221.848H269.5V220.124C269.5 219.273 268.795 218.569 267.92 218.569H267.798" fill="#2C2D2F"/>
<path d="M291.531 218.569C290.656 218.569 289.95 219.273 289.95 220.124V221.848H289.44C288.273 221.848 287.349 222.796 287.349 223.938V227.363H311.811V223.938C311.811 222.796 310.863 221.848 309.72 221.848H309.185V220.124C309.185 219.273 308.48 218.569 307.604 218.569H307.483L304.224 131.964L305.294 132.158C307.045 132.158 308.455 130.749 308.455 129C308.455 128.32 308.236 127.713 307.896 127.202H308.601C309.404 127.202 310.084 126.546 310.084 125.721V124.409H289.075V125.721C289.075 126.546 289.732 127.202 290.534 127.202H291.239C290.899 127.713 290.68 128.32 290.68 129C290.68 130.749 292.115 132.158 293.841 132.158L294.911 131.964L291.653 218.569H291.531Z" fill="#2C2D2F"/>
<path d="M331.216 218.569C330.34 218.569 329.635 219.273 329.635 220.124V221.848H329.124C327.982 221.848 327.033 222.796 327.033 223.938V227.363H351.495V223.938C351.495 222.796 350.547 221.848 349.404 221.848H348.869V220.124C348.869 219.273 348.164 218.569 347.289 218.569H347.167L343.933 131.964L344.979 132.158C346.729 132.158 348.14 130.749 348.14 129C348.14 128.32 347.945 127.713 347.581 127.202H348.286C349.088 127.202 349.769 126.546 349.769 125.721V124.409H328.76V125.721C328.76 126.546 329.416 127.202 330.243 127.202H330.948C330.583 127.713 330.365 128.32 330.365 129C330.365 130.749 331.799 132.158 333.526 132.158L334.596 131.964L331.362 218.569H331.216Z" fill="#2C2D2F"/>
<path d="M361.32 249.81V246.822C361.32 245.923 360.59 245.17 359.666 245.17H357.794V243.299C357.794 242.376 357.04 241.647 356.141 241.647H354.292V239.388C354.292 238.368 353.466 237.542 352.444 237.542H166.351C165.33 237.542 164.503 238.368 164.503 239.388V241.647H162.655C161.755 241.647 161.001 242.376 161.001 243.299V245.17H159.129C158.205 245.17 157.476 245.923 157.476 246.822V249.81" fill="#2C2D2F"/>
<path d="M311.813 112.456H356.142C357.041 112.456 357.795 111.728 357.795 110.804V104.1L357.163 102.861L356.142 102.472H349.017V98.4392L348.53 97.2489L347.144 96.593H336.056L305.904 78.6646L263.107 53.254L190.133 96.593H175.179C174.158 96.593 173.331 97.4432 173.331 98.4635V102.472H166.182C165.282 102.472 164.528 103.201 164.528 104.124V110.804C164.528 111.728 165.282 112.456 166.182 112.456" fill="#2C2D2F"/>
<path d="M263.324 0.780884L267.75 9.74505L277.647 11.1783L270.498 18.1505L272.175 28.0135L263.324 23.3492L254.473 28.0135L256.151 18.1505L249.002 11.1783L258.899 9.74505L263.324 0.780884Z" fill="#2C2D2F"/>
<path d="M305.733 9.40491L310.158 18.3691L320.055 19.8024L312.906 26.7745L314.584 36.6375L305.733 31.9975L296.881 36.6375L298.583 26.7745L291.41 19.8024L301.307 18.3691L305.733 9.40491Z" fill="#2C2D2F"/>
<path d="M347.971 24.345L352.396 33.3091L362.293 34.7424L355.144 41.7146L356.822 51.5776L347.971 46.9133L339.12 51.5776L340.822 41.7146L333.648 34.7424L343.545 33.3091L347.971 24.345Z" fill="#2C2D2F"/>
<path d="M220.917 9.40491L216.491 18.3691L206.595 19.8024L213.744 26.7745L212.066 36.6375L220.917 31.9975L229.768 36.6375L228.066 26.7745L235.239 19.8024L225.343 18.3691L220.917 9.40491Z" fill="#2C2D2F"/>
<path d="M178.68 24.345L174.254 33.3091L164.357 34.7424L171.506 41.7146L169.829 51.5776L178.68 46.9133L187.531 51.5776L185.829 41.7146L193.002 34.7424L183.105 33.3091L178.68 24.345Z" fill="#2C2D2F"/>
<path d="M0.179688 342.828H5.84443L9.76618 332.069H29.4994L33.4834 342.828H39.1482L22.3407 298.673H16.9249L0.179688 342.828ZM11.5092 327.342L19.5394 305.203H19.6639L27.8187 327.342H11.5092Z" fill="#2C2D2F"/>
<path d="M77.0448 338.35H71.7535V312.541H51.958C51.8958 317.392 51.6468 322.367 50.7753 327.094C50.0905 331.136 48.8455 334.992 46.8535 338.35H42.0603V351.161H46.2933L46.6045 342.828H72.4383L72.7495 351.161H77.0448V338.35ZM52.0825 338.35C53.6388 335.489 54.7593 332.193 55.5063 328.586C56.3778 324.668 56.6268 320.626 56.7513 317.019H66.7113V338.35H52.0825Z" fill="#2C2D2F"/>
<path d="M83.5377 342.828H98.1042C106.383 342.828 109.496 339.407 109.496 334.37C109.496 330.203 106.695 327.716 102.96 326.969V326.907C106.321 325.85 107.94 323.487 107.94 319.942C107.94 315.029 104.267 312.541 97.6685 312.541H83.5377V342.828ZM88.4555 325.352V316.832H97.4195C100.781 316.832 102.96 317.952 102.96 320.937C102.96 323.922 101.03 325.352 97.2327 325.352H88.4555ZM88.4555 338.537V329.395H98.042C102.088 329.395 104.329 330.887 104.329 333.935C104.329 337.106 102.213 338.537 97.7307 338.537H88.4555Z" fill="#2C2D2F"/>
<path d="M130.487 343.201C139.451 343.201 146.112 336.92 146.112 327.716C146.112 318.511 139.451 312.168 130.487 312.168C121.087 312.168 114.8 319.009 114.8 327.716C114.8 336.422 121.087 343.201 130.487 343.201ZM130.487 338.599C124.2 338.599 119.967 333.748 119.967 327.716C119.967 321.683 124.137 316.77 130.487 316.77C136.338 316.77 140.945 321.248 140.945 327.716C140.945 334.183 136.276 338.599 130.487 338.599Z" fill="#2C2D2F"/>
<path d="M153.63 342.828H158.672V334.868L164.523 328.648L174.981 342.828H180.957L168.134 325.601L180.273 312.541H174.048L158.796 329.084H158.672V312.541H153.63V342.828Z" fill="#2C2D2F"/>
<path d="M198.306 343.201C203.224 343.201 206.959 340.962 209.138 337.355H209.2V342.828H214.055V312.541H209.013V317.89L208.889 317.952C206.71 314.283 202.788 312.168 198.306 312.168C189.716 312.168 183.553 318.947 183.553 327.902C183.553 337.106 189.965 343.201 198.306 343.201ZM199.053 338.599C192.828 338.599 188.658 333.997 188.658 327.902C188.658 321.186 193.326 316.77 199.053 316.77C205.029 316.77 209.2 321.683 209.2 327.902C209.2 334.308 204.656 338.599 199.053 338.599Z" fill="#2C2D2F"/>
<path d="M230.148 342.828H235.19V317.019H245.337V312.541H220.001V317.019H230.148V342.828Z" fill="#2C2D2F"/>
<path d="M269.332 342.828H274.748V303.586H296.473V298.673H269.332V342.828Z" fill="#2C2D2F"/>
<path d="M313.285 343.201C322.249 343.201 328.91 336.92 328.91 327.716C328.91 318.511 322.249 312.168 313.285 312.168C303.886 312.168 297.598 319.009 297.598 327.716C297.598 336.422 303.886 343.201 313.285 343.201ZM313.285 338.599C306.998 338.599 302.765 333.748 302.765 327.716C302.765 321.683 306.936 316.77 313.285 316.77C319.137 316.77 323.743 321.248 323.743 327.716C323.743 334.183 319.075 338.599 313.285 338.599Z" fill="#2C2D2F"/>
<path d="M336.428 355.142H341.47V337.604H341.533C343.774 341.087 347.509 343.201 352.302 343.201C360.643 343.201 367.055 337.106 367.055 327.902C367.055 318.947 360.892 312.168 352.302 312.168C347.695 312.168 343.836 314.283 341.533 317.89H341.47V312.541H336.428V355.142ZM351.617 338.599C345.828 338.599 341.221 334.308 341.221 327.902C341.221 321.683 345.392 316.77 351.555 316.77C357.282 316.77 361.951 321.186 361.951 327.902C361.951 333.997 357.718 338.599 351.617 338.599Z" fill="#2C2D2F"/>
<path d="M388.423 343.201C397.387 343.201 404.048 336.92 404.048 327.716C404.048 318.511 397.387 312.168 388.423 312.168C379.023 312.168 372.736 319.009 372.736 327.716C372.736 336.422 379.023 343.201 388.423 343.201ZM388.423 338.599C382.136 338.599 377.903 333.748 377.903 327.716C377.903 321.683 382.074 316.77 388.423 316.77C394.275 316.77 398.881 321.248 398.881 327.716C398.881 334.183 394.212 338.599 388.423 338.599Z" fill="#2C2D2F"/>
<path d="M426.63 343.201C434.785 343.201 441.57 336.733 441.57 327.591C441.57 318.636 435.096 312.417 427.315 312.417C421.277 312.417 417.48 315.588 415.488 319.569L415.363 319.506C416.048 310.551 417.106 305.141 427.066 303.337L439.205 301.16L437.773 296.683L426.07 298.735C412.686 301.098 410.819 310.302 410.819 323.487C410.757 334.868 415.55 343.201 426.63 343.201ZM426.444 338.661C419.285 338.661 415.986 332.442 415.986 327.156C416.048 322.367 419.721 316.957 426.257 316.957C431.922 316.957 436.466 321.434 436.466 327.591C436.466 334.121 431.735 338.661 426.444 338.661Z" fill="#2C2D2F"/>
<path d="M475.907 327.156C475.907 318.511 470.242 312.168 461.963 312.168C453.31 312.168 447.023 318.574 447.023 327.716C447.023 336.982 453.372 343.201 462.336 343.201C468.437 343.201 472.234 340.9 474.848 337.542L471.3 334.557C469.433 336.858 466.569 338.599 462.523 338.599C456.796 338.599 452.812 334.868 452.127 329.208H475.782C475.782 328.835 475.907 327.964 475.907 327.156ZM461.9 316.77C466.88 316.77 470.117 320.128 470.864 325.104H452.252C453.185 319.942 457.045 316.77 461.9 316.77Z" fill="#2C2D2F"/>
<path d="M513.802 338.35H508.261V312.541H503.219V338.35H488.341V312.541H483.299V342.828H509.195L509.506 351.161H513.802V338.35Z" fill="#2C2D2F"/>
</svg>
