<svg width="525" height="351" viewBox="0 0 525 351" fill="none" xmlns="http://www.w3.org/2000/svg">
<path d="M455.996 230.777C451.507 230.85 447.09 231.601 442.844 232.789C434.326 235.141 426.197 238.923 419.062 242.753C415.519 244.668 412.098 246.535 409.161 248.378C406.128 250.147 403.435 251.82 401.226 253.299C398.945 254.705 397.149 255.917 395.936 256.766C394.723 257.663 394.019 258.148 394.019 258.148C398.46 263.069 402.949 266.682 407.511 269.082C412.049 271.458 416.636 272.597 421.198 272.742C430.371 273.058 439.276 269.057 446.823 263.336C454.298 257.517 460.34 250.002 464.126 243.82C465.994 240.717 467.45 238.026 468.348 236.11C469.197 234.123 469.561 232.935 469.44 232.862C464.926 231.238 460.461 230.68 455.996 230.777Z" fill="#2C2D2F"/>
<path d="M479.511 181.926C475.774 181.466 472.231 181.805 468.81 182.654C465.388 183.478 462.112 184.811 459.055 186.436C453.085 189.757 447.382 194.048 442.82 198.315C437.918 202.485 434.133 206.679 431.172 209.661C429.74 211.188 428.624 212.473 427.872 213.37L427.605 213.685L427.702 213.467C432.288 203.915 436.05 193.781 438.889 183.332C439.641 180.714 440.296 177.975 440.879 175.138C448.741 177.781 455.051 177.465 460.171 174.968C462.792 173.684 465.073 171.865 467.087 169.732C469.028 167.55 470.533 165.029 471.819 162.41C474.537 157.149 475.532 151.404 476.066 147.088C476.332 144.906 476.478 143.088 476.357 141.803C476.308 140.518 476.211 139.791 476.114 139.791C469.95 140.324 465.048 143.112 460.632 146.7C458.448 148.495 456.507 150.507 454.759 152.567C453.861 153.61 453.085 154.677 452.236 155.743C451.386 156.786 450.585 157.853 449.833 158.895C448.329 160.98 447.043 163.041 445.926 164.956C444.786 166.847 443.669 168.568 442.844 170.047C442.189 171.211 441.704 172.132 441.316 172.932C442.602 166.41 443.548 159.404 444.155 151.573L444.519 143.525C444.519 141.803 444.495 140.106 444.446 138.385C444.422 137.439 444.397 136.47 444.397 135.524L444.373 134.773C450.658 135.185 455.39 133.754 458.836 130.991C462.355 128.13 464.345 123.936 465.461 119.596C465.752 118.53 465.971 117.439 466.165 116.348C466.31 115.281 466.359 114.238 466.407 113.22C466.456 111.184 466.383 109.269 466.238 107.644C465.971 104.347 465.437 102.189 465.291 102.238C460.608 103.547 457.016 106.384 454.25 109.753C452.842 111.45 451.653 113.269 450.658 115.135C450.149 116.057 449.663 117.002 449.251 117.948C448.838 118.869 448.329 119.839 447.94 120.736C446.315 124.469 445.271 127.96 444.64 130.506L444.3 131.766L444.276 131.427L443.184 119.427C442.262 112.493 440.879 105.511 439.156 98.4802C443.936 97.7529 447.285 95.9104 449.469 93.3648C450.634 91.9829 451.58 90.3828 452.09 88.7828C452.624 87.1585 452.915 85.4372 453.036 83.7401C453.255 80.3218 452.769 77.0004 452.211 74.5518C451.58 72.1032 450.804 70.6244 450.707 70.6486C447.188 72.2244 444.834 74.8185 443.063 77.752C441.267 80.7339 440.151 84.0553 439.471 87.1584C439.132 88.6858 438.913 90.1646 438.743 91.5223C438.671 92.2253 438.598 92.8557 438.549 93.486C438.501 94.0921 438.428 94.6739 438.355 95.2073V95.377C436.875 89.8252 435.128 84.2735 433.138 78.7459L433.162 78.1156C433.138 75.2306 432.871 71.1577 431.949 66.503C430.905 61.8725 428.891 56.8056 425.955 51.8114C422.8 46.9627 418.359 42.3807 412.778 38.8169C412.705 45.6293 414.113 51.4963 416.054 56.6844C417.777 61.9694 420.422 66.4303 422.921 70.2607C425.275 74.1154 427.775 77.1944 429.692 79.352L429.765 79.4248C431.754 84.9038 433.477 90.3586 434.933 95.8134L434.157 94.6739L432.919 93.1951C432.021 92.1526 430.978 91.0859 429.862 90.0677C427.581 88.0312 424.838 86.1402 421.781 85.0977C418.65 84.0553 415.108 83.8613 411.419 84.9523C411.298 85.0008 411.734 86.3342 412.608 88.2009C413.385 90.0919 414.695 92.492 416.661 94.6739C417.631 95.7406 418.796 96.7831 420.106 97.6801C421.465 98.5529 422.8 99.3287 424.45 99.8378C427.484 100.783 431.269 100.832 435.831 99.3044C437.554 106.19 438.889 113.026 439.787 119.814L440.879 131.597L440.903 132.009L440.393 130.773C439.301 128.372 437.651 125.221 435.395 122.215C434.812 121.463 434.254 120.711 433.55 119.984C432.846 119.281 432.118 118.578 431.342 117.923C429.813 116.614 428.139 115.451 426.319 114.505C422.679 112.638 418.481 111.766 413.676 112.444C413.53 112.469 413.627 114.141 414.282 116.493C414.598 117.681 415.059 119.039 415.714 120.469C416.03 121.172 416.418 121.924 416.806 122.651C417.146 123.402 417.534 124.154 417.995 124.881C419.791 127.863 422.509 130.748 426.343 132.76C429.91 134.651 434.691 135.718 440.976 134.894V135.573C441 136.542 441.024 137.512 441.049 138.482C441.073 140.155 441.121 141.828 441.121 143.428L440.733 151.355C440.175 158.992 439.229 165.853 437.991 172.229C437.894 171.356 437.773 170.338 437.579 169.102C437.287 167.477 436.996 165.586 436.365 163.55C435.71 161.513 434.909 159.356 433.89 157.198C433.405 156.131 432.846 155.065 432.24 153.998C431.657 152.955 430.881 151.913 430.104 150.919C428.551 148.931 426.78 147.113 424.766 145.537C420.834 142.409 415.569 140.421 409.453 140.155C409.211 140.131 409.235 142.094 409.332 144.979C409.478 147.84 410.327 151.695 411.686 155.622C412.414 157.61 413.482 159.647 414.792 161.634C416.03 163.574 417.631 165.513 419.67 167.259C423.698 170.677 429.401 173.562 437.554 174.435C436.972 177.175 436.341 179.866 435.613 182.411C432.798 192.69 429.109 202.63 424.644 211.988L424.523 212.206L424.596 211.819C424.766 210.655 424.984 209.006 425.154 206.994C425.591 202.994 425.348 197.418 424.256 191.793C422.849 186.072 420.616 180.302 416.394 175.55C414.355 173.174 411.953 171.089 409.162 169.392C406.347 167.671 403.047 166.313 399.407 165.368C399.286 165.344 399.091 165.853 398.873 166.823C398.582 167.744 398.266 169.102 398.048 170.774C397.733 174.12 397.32 178.581 398.145 183.599C398.461 186.096 399.091 188.714 400.159 191.43C401.106 194.097 402.44 196.812 404.406 199.503C408.289 204.788 414.137 209.952 423.892 213.443C419.476 222.292 414.331 230.947 408.531 239.189C405.838 242.971 403.023 246.608 400.159 250.196C400.402 249.541 400.669 248.863 400.936 248.111C401.737 245.662 402.586 242.753 403.29 239.553C403.872 236.256 404.454 232.789 404.551 229.056C404.77 221.686 403.532 213.758 399.868 206.776C398.048 203.285 395.694 200.036 392.709 197.127C389.725 194.218 386.085 191.624 381.862 189.418C381.741 189.369 381.304 189.927 380.794 190.969C380.212 192.012 379.435 193.563 378.732 195.478C377.324 199.357 375.65 204.715 375.116 211.067C374.436 217.346 374.873 224.692 377.834 232.45C379.338 236.304 381.547 240.329 384.75 244.305C387.638 247.917 391.399 251.505 396.228 254.899C386.643 266.076 376.135 276.064 364.754 284.695C364.002 285.252 363.88 286.319 364.439 287.07C364.972 287.773 365.919 287.943 366.647 287.531L366.817 287.41C383.561 274.706 398.533 259.142 411.298 241.153C417.219 232.765 422.46 223.965 426.95 214.946C435.564 220.595 443.451 222.243 450.343 220.667C453.813 219.892 457.137 218.364 460.147 216.304C463.034 214.219 465.679 211.6 468.058 208.764C472.571 202.994 475.847 196.303 477.473 190.993C478.347 188.351 478.953 186.096 479.293 184.496C479.584 182.896 479.633 181.926 479.511 181.926Z" fill="#2C2D2F"/>
<path d="M58.8285 230.777C63.3421 230.85 67.7586 231.601 72.0053 232.789C80.5229 235.141 88.6523 238.923 95.7867 242.753C99.3296 244.668 102.751 246.535 105.688 248.378C108.721 250.147 111.414 251.82 113.623 253.299C115.88 254.705 117.675 255.917 118.913 256.766C120.126 257.663 120.83 258.148 120.83 258.148C116.365 263.069 111.876 266.682 107.338 269.082C102.8 271.458 98.2134 272.597 93.627 272.742C84.4784 273.058 75.5725 269.057 68.0013 263.336C60.5514 257.517 54.509 250.002 50.7234 243.82C48.8549 240.717 47.3989 238.026 46.501 236.11C45.6516 234.123 45.2876 232.935 45.409 232.862C49.8983 231.238 54.3877 230.68 58.8285 230.777Z" fill="#2C2D2F"/>
<path d="M41.5235 181.926C45.2848 181.466 48.8277 181.805 52.2251 182.654C55.671 183.478 58.947 184.811 61.9803 186.436C67.9742 189.757 73.6769 194.048 78.239 198.315C83.1166 202.485 86.9265 206.679 89.887 209.661C91.3188 211.188 92.435 212.473 93.1873 213.37L93.4543 213.685L93.3329 213.467C88.7708 203.915 85.0094 193.781 82.1702 183.332C81.418 180.714 80.7628 177.975 80.1561 175.138C72.2937 177.781 66.0086 177.465 60.8883 174.968C58.2675 173.684 55.9622 171.865 53.9723 169.732C52.031 167.55 50.5264 165.029 49.216 162.41C46.5224 157.149 45.5275 151.404 44.9693 147.088C44.7024 144.906 44.5811 143.088 44.6781 141.803C44.7509 140.518 44.848 139.791 44.9451 139.791C51.1088 140.324 56.0107 143.112 60.4272 146.7C62.587 148.495 64.5526 150.507 66.2998 152.567C67.1977 153.61 67.9742 154.677 68.8235 155.743C69.6729 156.786 70.4737 157.853 71.2259 158.895C72.7305 160.98 74.0166 163.041 75.1329 164.956C76.2734 166.847 77.3897 168.568 78.1905 170.047C78.8457 171.211 79.331 172.132 79.7436 172.932C78.4574 166.41 77.4867 159.404 76.9043 151.573L76.5161 143.525C76.5161 141.803 76.5646 140.106 76.6131 138.385C76.6374 137.439 76.6617 136.47 76.6617 135.524L76.6859 134.773C70.4009 135.185 65.6689 133.754 62.223 130.991C58.7043 128.13 56.7144 123.936 55.5739 119.596C55.307 118.53 55.0643 117.439 54.8944 116.348C54.7488 115.281 54.7003 114.238 54.6518 113.22C54.6032 111.184 54.676 109.269 54.8216 107.644C55.0886 104.347 55.6224 102.189 55.768 102.238C60.4515 103.547 64.043 106.384 66.8094 109.753C68.2169 111.45 69.3817 113.269 70.4009 115.135C70.9105 116.057 71.3715 117.002 71.8083 117.948C72.2209 118.869 72.7062 119.839 73.0945 120.736C74.7446 124.469 75.7881 127.96 76.419 130.506L76.7587 131.766V131.427L77.875 119.427C78.7972 112.493 80.1561 105.511 81.9033 98.4802C77.1227 97.7529 73.7739 95.9104 71.5899 93.3648C70.4251 91.9829 69.4787 90.3828 68.9691 88.7828C68.411 87.1585 68.1441 85.4372 68.0227 83.7401C67.8043 80.3218 68.2897 77.0004 68.8478 74.5518C69.4545 72.1032 70.231 70.6244 70.3281 70.6486C73.871 72.2244 76.2249 74.8185 77.9721 77.752C79.7921 80.7339 80.9084 84.0553 81.5878 87.1584C81.9276 88.6858 82.146 90.1646 82.3158 91.5223C82.3886 92.2253 82.4372 92.8557 82.4857 93.486C82.5585 94.0921 82.6313 94.6739 82.6798 95.2073L82.7041 95.377C84.1844 89.8252 85.9316 84.2735 87.8972 78.7459V78.1156C87.9214 75.2306 88.1641 71.1577 89.0862 66.503C90.154 61.8725 92.1681 56.8056 95.1044 51.8114C98.2591 46.9627 102.7 42.3807 108.281 38.8169C108.354 45.6293 106.947 51.4963 105.005 56.6844C103.282 61.9694 100.637 66.4303 98.1377 70.2607C95.7839 74.1154 93.2844 77.1944 91.3673 79.352L91.2945 79.4248C89.3046 84.9038 87.5817 90.3586 86.1257 95.8134L86.878 94.6739L88.1398 93.1951C89.0377 92.1526 90.0569 91.0859 91.1974 90.0677C93.4785 88.0312 96.1964 86.1402 99.2783 85.0977C102.384 84.0553 105.952 83.8613 109.64 84.9523C109.761 85.0008 109.325 86.3342 108.451 88.2009C107.65 90.0919 106.364 92.492 104.399 94.6739C103.428 95.7406 102.263 96.7831 100.953 97.6801C99.5937 98.5529 98.2591 99.3287 96.6089 99.8378C93.5756 100.783 89.79 100.832 85.2036 99.3044C83.5049 106.19 82.146 113.026 81.2481 119.814L80.1561 131.597V132.009L80.6414 130.773C81.7577 128.372 83.4078 125.221 85.6646 122.215C86.247 121.463 86.8052 120.711 87.5089 119.984C88.1884 119.281 88.9406 118.578 89.6929 117.923C91.246 116.614 92.9204 115.451 94.7404 114.505C98.3804 112.638 102.579 111.766 107.383 112.444C107.505 112.469 107.432 114.141 106.777 116.493C106.437 117.681 105.976 119.039 105.345 120.469C105.029 121.172 104.641 121.924 104.253 122.651C103.913 123.402 103.501 124.154 103.064 124.881C101.268 127.863 98.526 130.748 94.6919 132.76C91.1246 134.651 86.3441 135.718 80.0833 134.894V135.573C80.059 136.542 80.0348 137.512 80.0105 138.482C79.9862 140.155 79.9377 141.828 79.9377 143.428L80.3017 151.355C80.8841 158.992 81.8305 165.853 83.0681 172.229C83.1652 171.356 83.2865 170.338 83.4806 169.102C83.7718 167.477 84.063 165.586 84.694 163.55C85.3492 161.513 86.15 159.356 87.1449 157.198C87.6545 156.131 88.2126 155.065 88.795 153.998C89.4017 152.955 90.1782 151.913 90.9548 150.919C92.5079 148.931 94.2793 147.113 96.2935 145.537C100.225 142.409 105.491 140.421 111.606 140.155C111.824 140.131 111.824 142.094 111.727 144.979C111.582 147.84 110.732 151.695 109.373 155.622C108.645 157.61 107.577 159.647 106.267 161.634C105.029 163.574 103.428 165.513 101.365 167.259C97.3612 170.677 91.6585 173.562 83.5049 174.435C84.0873 177.175 84.7182 179.866 85.4462 182.411C88.2612 192.69 91.9254 202.63 96.4148 211.988L96.5361 212.206L96.4633 211.819C96.2935 210.655 96.0751 209.006 95.9052 206.994C95.4684 202.994 95.7111 197.418 96.8031 191.793C98.2105 186.072 100.443 180.302 104.665 175.55C106.704 173.174 109.106 171.089 111.897 169.392C114.712 167.671 118.012 166.313 121.652 165.368C121.774 165.344 121.968 165.853 122.186 166.823C122.477 167.744 122.793 169.102 123.011 170.774C123.327 174.12 123.739 178.581 122.89 183.599C122.599 186.096 121.968 188.714 120.9 191.43C119.929 194.097 118.595 196.812 116.653 199.503C112.771 204.788 106.922 209.952 97.1671 213.443C101.559 222.292 106.728 230.947 112.528 239.189C115.222 242.971 118.036 246.608 120.9 250.196C120.657 249.541 120.39 248.863 120.123 248.111C119.323 245.662 118.473 242.753 117.77 239.553C117.187 236.256 116.605 232.789 116.508 229.056C116.289 221.686 117.527 213.758 121.167 206.776C123.011 203.285 125.365 200.036 128.326 197.127C131.335 194.218 134.975 191.624 139.197 189.418C139.318 189.369 139.731 189.927 140.265 190.969C140.847 192.012 141.599 193.563 142.303 195.478C143.711 199.357 145.409 204.715 145.943 211.067C146.623 217.346 146.186 224.692 143.225 232.45C141.721 236.304 139.513 240.329 136.309 244.305C133.422 247.917 129.66 251.505 124.831 254.899C134.416 266.076 144.924 276.064 156.281 284.695C157.033 285.252 157.179 286.319 156.621 287.07C156.087 287.773 155.14 287.943 154.412 287.531L154.218 287.41C137.498 274.706 122.526 259.142 109.761 241.153C103.84 232.765 98.5988 223.965 94.1095 214.946C85.4948 220.595 77.6081 222.243 70.7163 220.667C67.2219 219.892 63.9216 218.364 60.9126 216.304C58.0006 214.219 55.3555 211.6 53.0016 208.764C48.488 202.994 45.212 196.303 43.5861 190.993C42.7125 188.351 42.1059 186.096 41.7661 184.496C41.4749 182.896 41.4264 181.926 41.5235 181.926Z" fill="#2C2D2F"/>
<path d="M187.149 131.694L188.192 131.888C189.939 131.888 191.371 130.482 191.371 128.736C191.371 128.057 191.153 127.451 190.789 126.942H191.492C192.317 126.942 192.973 126.287 192.973 125.463V124.154H172.006V125.463C172.006 126.287 172.661 126.942 173.486 126.942H174.19C173.826 127.451 173.632 128.057 173.632 128.736C173.632 130.482 175.039 131.888 176.787 131.888L177.83 131.694L174.603 218.122H174.457C173.608 218.122 172.88 218.825 172.88 219.673V221.395H172.37C171.23 221.395 170.283 222.34 170.283 223.48V226.898H194.696V223.48C194.696 222.34 193.749 221.395 192.609 221.395H192.099V219.673C192.099 218.825 191.395 218.122 190.522 218.122H190.376" fill="#2C2D2F"/>
<path d="M214.087 218.122C213.213 218.122 212.509 218.825 212.509 219.673V221.395H211.976C210.835 221.395 209.889 222.34 209.889 223.48V226.898H234.301V223.48C234.301 222.34 233.379 221.395 232.214 221.395H231.704V219.673C231.704 218.825 231.001 218.122 230.127 218.122H230.006L226.754 131.694L227.822 131.888C229.545 131.888 230.976 130.482 230.976 128.736C230.976 128.057 230.758 127.451 230.394 126.942H231.122C231.923 126.942 232.578 126.287 232.578 125.463V124.154H211.612V125.463C211.612 126.287 212.267 126.942 213.092 126.942H213.796C213.456 127.451 213.237 128.057 213.237 128.736C213.237 130.482 214.645 131.888 216.392 131.888L217.436 131.694L214.208 218.122H214.087Z" fill="#2C2D2F"/>
<path d="M266.355 131.694L267.423 131.888C269.17 131.888 270.577 130.482 270.577 128.736C270.577 128.057 270.359 127.451 270.019 126.942H270.723C271.524 126.942 272.179 126.287 272.179 125.463V124.154H251.237V125.463C251.237 126.287 251.892 126.942 252.693 126.942H253.396C253.057 127.451 252.838 128.057 252.838 128.736C252.838 130.482 254.246 131.888 255.993 131.888L257.036 131.694L253.809 218.122H253.688C252.814 218.122 252.11 218.825 252.11 219.673V221.395H251.576C250.436 221.395 249.514 222.34 249.514 223.48V226.898H273.902V223.48C273.902 222.34 272.98 221.395 271.815 221.395H271.305V219.673C271.305 218.825 270.601 218.122 269.728 218.122H269.607" fill="#2C2D2F"/>
<path d="M293.293 218.122C292.419 218.122 291.716 218.825 291.716 219.673V221.395H291.206C290.041 221.395 289.119 222.34 289.119 223.48V226.898H313.531V223.48C313.531 222.34 312.585 221.395 311.445 221.395H310.911V219.673C310.911 218.825 310.207 218.122 309.333 218.122H309.212L305.96 131.694L307.028 131.888C308.775 131.888 310.183 130.482 310.183 128.736C310.183 128.057 309.964 127.451 309.625 126.942H310.328C311.129 126.942 311.809 126.287 311.809 125.463V124.154H290.842V125.463C290.842 126.287 291.497 126.942 292.298 126.942H293.002C292.662 127.451 292.444 128.057 292.444 128.736C292.444 130.482 293.875 131.888 295.598 131.888L296.666 131.694L293.414 218.122H293.293Z" fill="#2C2D2F"/>
<path d="M332.896 218.122C332.022 218.122 331.318 218.825 331.318 219.673V221.395H330.809C329.668 221.395 328.722 222.34 328.722 223.48V226.898H353.134V223.48C353.134 222.34 352.188 221.395 351.047 221.395H350.513V219.673C350.513 218.825 349.809 218.122 348.936 218.122H348.815L345.587 131.694L346.631 131.888C348.378 131.888 349.785 130.482 349.785 128.736C349.785 128.057 349.591 127.451 349.227 126.942H349.931C350.732 126.942 351.411 126.287 351.411 125.463V124.154H330.445V125.463C330.445 126.287 331.1 126.942 331.925 126.942H332.629C332.265 127.451 332.046 128.057 332.046 128.736C332.046 130.482 333.478 131.888 335.201 131.888L336.269 131.694L333.041 218.122H332.896Z" fill="#2C2D2F"/>
<path d="M362.938 249.299V246.317C362.938 245.42 362.21 244.668 361.288 244.668H359.419V242.802C359.419 241.88 358.667 241.153 357.769 241.153H355.925V238.899C355.925 237.88 355.1 237.056 354.08 237.056H168.367C167.348 237.056 166.523 237.88 166.523 238.899V241.153H164.679C163.781 241.153 163.028 241.88 163.028 242.802V244.668H161.16C160.238 244.668 159.51 245.42 159.51 246.317V249.299" fill="#2C2D2F"/>
<path d="M313.529 112.226H357.768C358.666 112.226 359.418 111.499 359.418 110.578V103.886L358.787 102.65L357.768 102.262H350.658V98.2376L350.172 97.0496L348.789 96.3951H337.723L307.633 78.5034L264.923 53.1447L192.099 96.3951H177.175C176.156 96.3951 175.33 97.2436 175.33 98.2618V102.262H168.196C167.298 102.262 166.546 102.989 166.546 103.911V110.578C166.546 111.499 167.298 112.226 168.196 112.226" fill="#2C2D2F"/>
<path d="M265.142 0.778931L269.559 9.72478L279.435 11.1552L272.301 18.113L273.975 27.9559L265.142 23.3011L256.309 27.9559L257.984 18.113L250.849 11.1552L260.726 9.72478L265.142 0.778931Z" fill="#2C2D2F"/>
<path d="M307.464 9.38538L311.881 18.3312L321.757 19.7616L314.623 26.7195L316.297 36.5623L307.464 31.9318L298.631 36.5623L300.33 26.7195L293.171 19.7616L303.047 18.3312L307.464 9.38538Z" fill="#2C2D2F"/>
<path d="M349.616 24.2949L354.033 33.2408L363.909 34.6711L356.775 41.629L358.449 51.4719L349.616 46.8171L340.783 51.4719L342.482 41.629L335.323 34.6711L345.2 33.2408L349.616 24.2949Z" fill="#2C2D2F"/>
<path d="M222.821 9.38538L218.405 18.3312L208.528 19.7616L215.663 26.7195L213.988 36.5623L222.821 31.9318L231.655 36.5623L229.956 26.7195L237.115 19.7616L227.238 18.3312L222.821 9.38538Z" fill="#2C2D2F"/>
<path d="M180.671 24.2949L176.254 33.2408L166.378 34.6711L173.512 41.629L171.838 51.4719L180.671 46.8171L189.504 51.4719L187.805 41.629L194.964 34.6711L185.088 33.2408L180.671 24.2949Z" fill="#2C2D2F"/>
<path d="M0 342.127H5.65318L9.56691 331.39H29.2598L33.2357 342.127H38.8889L22.1157 298.062H16.711L0 342.127ZM11.3064 326.674L19.3202 304.579H19.4444L27.5825 326.674H11.3064Z" fill="#2C2D2F"/>
<path d="M76.7081 337.659H71.4277V311.903H51.6726C51.6105 316.744 51.362 321.709 50.4923 326.425C49.8089 330.46 48.5665 334.307 46.5785 337.659H41.7951V350.444H46.0194L46.33 342.127H72.111L72.4216 350.444H76.7081V337.659ZM51.7968 337.659C53.3499 334.804 54.4681 331.515 55.2136 327.915C56.0833 324.005 56.3318 319.971 56.4561 316.371H66.3957V337.659H51.7968Z" fill="#2C2D2F"/>
<path d="M83.1878 342.127H97.7245C105.987 342.127 109.093 338.714 109.093 333.687C109.093 329.529 106.297 327.046 102.57 326.301V326.239C105.925 325.184 107.54 322.826 107.54 319.288C107.54 314.385 103.875 311.903 97.2897 311.903H83.1878V342.127ZM88.0955 324.688V316.185H97.0412C100.396 316.185 102.57 317.302 102.57 320.281C102.57 323.26 100.644 324.688 96.8548 324.688H88.0955ZM88.0955 337.845V328.722H97.6624C101.7 328.722 103.937 330.211 103.937 333.252C103.937 336.418 101.825 337.845 97.3518 337.845H88.0955Z" fill="#2C2D2F"/>
<path d="M130.041 342.5C138.987 342.5 145.634 336.231 145.634 327.046C145.634 317.861 138.987 311.53 130.041 311.53C120.66 311.53 114.386 318.357 114.386 327.046C114.386 335.735 120.66 342.5 130.041 342.5ZM130.041 337.907C123.767 337.907 119.542 333.066 119.542 327.046C119.542 321.026 123.704 316.123 130.041 316.123C135.881 316.123 140.478 320.591 140.478 327.046C140.478 333.501 135.818 337.907 130.041 337.907Z" fill="#2C2D2F"/>
<path d="M153.137 342.127H158.169V334.183L164.008 327.977L174.445 342.127H180.409L167.611 324.936L179.725 311.903H173.513L158.293 328.411H158.169V311.903H153.137V342.127Z" fill="#2C2D2F"/>
<path d="M197.722 342.5C202.63 342.5 206.357 340.266 208.531 336.666H208.593V342.127H213.439V311.903H208.407V317.24L208.283 317.302C206.108 313.64 202.195 311.53 197.722 311.53C189.149 311.53 182.999 318.295 182.999 327.232C182.999 336.418 189.397 342.5 197.722 342.5ZM198.467 337.907C192.255 337.907 188.093 333.314 188.093 327.232C188.093 320.529 192.752 316.123 198.467 316.123C204.431 316.123 208.593 321.026 208.593 327.232C208.593 333.625 204.058 337.907 198.467 337.907Z" fill="#2C2D2F"/>
<path d="M229.499 342.127H234.531V316.371H244.657V311.903H219.373V316.371H229.499V342.127Z" fill="#2C2D2F"/>
<path d="M268.603 342.127H274.008V329.901L280.406 322.391L294.757 342.127H301.528L284.01 318.171L301.093 298.062H294.136L274.132 322.205H274.008V298.062H268.603V342.127Z" fill="#2C2D2F"/>
<path d="M319.443 342.5C328.388 342.5 335.036 336.231 335.036 327.046C335.036 317.861 328.388 311.53 319.443 311.53C310.062 311.53 303.788 318.357 303.788 327.046C303.788 335.735 310.062 342.5 319.443 342.5ZM319.443 337.907C313.168 337.907 308.944 333.066 308.944 327.046C308.944 321.026 313.106 316.123 319.443 316.123C325.282 316.123 329.879 320.591 329.879 327.046C329.879 333.501 325.22 337.907 319.443 337.907Z" fill="#2C2D2F"/>
<path d="M337.364 342.127H343.017L352.708 328.039L357.616 333.314V342.127H362.461V333.376L367.183 328.039L376.936 342.127H382.776L370.786 325.308L382.092 311.903H376.191L362.524 328.163H362.461V311.903H357.616V327.977H357.492L343.638 311.903H337.55L349.167 325.37L337.364 342.127Z" fill="#2C2D2F"/>
<path d="M414.088 326.487C414.088 317.861 408.435 311.53 400.173 311.53C391.538 311.53 385.263 317.923 385.263 327.046C385.263 336.293 391.6 342.5 400.546 342.5C406.634 342.5 410.423 340.203 413.032 336.852L409.491 333.873C407.628 336.169 404.77 337.907 400.732 337.907C395.017 337.907 391.041 334.183 390.357 328.536H413.964C413.964 328.163 414.088 327.294 414.088 326.487ZM400.111 316.123C405.081 316.123 408.311 319.474 409.056 324.439H390.482C391.414 319.288 395.265 316.123 400.111 316.123Z" fill="#2C2D2F"/>
<path d="M421.466 342.127H426.312V320.467H426.436L436.065 336.852H439.482L449.173 320.405H449.297V342.127H454.143V311.903H449.297L437.866 331.266H437.742L426.374 311.903H421.466V342.127Z" fill="#2C2D2F"/>
<path d="M474.13 311.903C466.178 311.903 462.326 315.813 462.326 321.833C462.326 326.301 464.811 329.591 469.47 330.77L461.208 342.127H466.923L474.751 331.266H482.454V342.127H487.486V311.903H474.13ZM482.454 326.922H473.819C469.284 326.922 467.42 324.874 467.42 321.833C467.42 318.171 469.595 316.247 474.067 316.247H482.454V326.922Z" fill="#2C2D2F"/>
<path d="M496.935 342.127H501.967V334.183L507.807 327.977L518.244 342.127H524.207L511.41 324.936L523.524 311.903H517.312L502.092 328.411H501.967V311.903H496.935V342.127Z" fill="#2C2D2F"/>
</svg>
