<svg width="24" height="25" viewBox="0 0 24 25" fill="none" xmlns="http://www.w3.org/2000/svg">
<path d="M12 0.214462C5.373 0.214462 0 5.64508 0 12.3431C0 19.0412 5.373 24.4718 12 24.4718C18.627 24.4718 24 19.0412 24 12.3431C24 5.64508 18.627 0.214462 12 0.214462ZM19.753 18.7158C19.492 18.1235 18.964 17.7141 17.882 17.4614C15.589 16.9268 13.454 16.4578 14.489 14.4849C17.634 8.47915 15.322 5.26808 12 5.26808C8.612 5.26808 6.356 8.60246 9.511 14.4849C10.577 16.4699 8.363 16.9379 6.118 17.4614C5.034 17.7141 4.51 18.1265 4.251 18.7208C2.846 16.9793 2 14.7598 2 12.3431C2 6.77001 6.486 2.23591 12 2.23591C17.514 2.23591 22 6.77001 22 12.3431C22 14.7578 21.155 16.9753 19.753 18.7158Z" fill="#2F3640"/>
</svg>
