<svg width="30" height="25" viewBox="0 0 30 25" fill="none" xmlns="http://www.w3.org/2000/svg">
<path d="M21.25 12.8063V9.945C19.7875 9.42375 18.8663 9.27875 18.4 8.15625C17.9338 7.03125 18.4875 6.26625 19.15 4.875L17.1275 2.85125C15.7462 3.5075 14.9738 4.06875 13.845 3.60125C12.72 3.13375 12.5738 2.205 12.0563 0.75H9.19375C8.67875 2.1975 8.53125 3.13375 7.405 3.6H7.40375C6.27875 4.0675 5.51625 3.5125 4.1225 2.85L2.10125 4.87375C2.76 6.26125 3.3175 7.02875 2.85125 8.155C2.3825 9.28125 1.4475 9.42875 0 9.94375V12.805C1.44375 13.32 2.38375 13.4688 2.85 14.5938C3.32 15.7288 2.74875 16.5113 2.1 17.875L4.1225 19.8988C5.50625 19.2425 6.2775 18.6812 7.40375 19.1488H7.405C8.53 19.615 8.6775 20.5463 9.19375 21.9988H12.055C12.57 20.5513 12.7175 19.6175 13.8513 19.1462H13.8525C14.97 18.6812 15.7288 19.235 17.1263 19.8988L19.1488 17.875C18.4925 16.4913 17.9312 15.7212 18.3975 14.5938C18.865 13.47 19.805 13.32 21.25 12.8063ZM10.625 14.9175C8.67 14.9175 7.08375 13.3313 7.08375 11.375C7.08375 9.41875 8.67 7.8325 10.625 7.8325C12.58 7.8325 14.1663 9.41875 14.1663 11.375C14.1663 13.3313 12.58 14.9175 10.625 14.9175ZM30 20.1737V18.8275C29.3125 18.5825 28.8787 18.5138 28.6588 17.9862C28.4387 17.4562 28.7 17.0975 29.0112 16.4413L28.0588 15.4888C27.4088 15.7988 27.045 16.0613 26.515 15.8425C25.985 15.6238 25.9163 15.1863 25.6725 14.5013H24.3275C24.085 15.1825 24.015 15.6225 23.485 15.8425C22.955 16.0625 22.5962 15.8013 21.9412 15.4888L20.9888 16.4413C21.2987 17.095 21.5613 17.4562 21.3412 17.9862C21.1213 18.5162 20.6812 18.585 20 18.8275V20.1737C20.68 20.415 21.1213 20.4862 21.3412 21.015C21.5625 21.5487 21.2938 21.9175 20.9888 22.56L21.9412 23.5125C22.5925 23.2025 22.9562 22.94 23.485 23.1588C24.015 23.3775 24.0837 23.8162 24.3275 24.5H25.6725C25.915 23.8188 25.985 23.3787 26.5175 23.1575H26.5187C27.045 22.9388 27.4013 23.2 28.0588 23.5125L29.0112 22.56C28.7025 21.9088 28.4387 21.545 28.6588 21.0162C28.8787 20.4875 29.32 20.415 30 20.1737ZM25 21.1663C24.08 21.1663 23.3337 20.42 23.3337 19.5C23.3337 18.58 24.08 17.8337 25 17.8337C25.92 17.8337 26.6663 18.58 26.6663 19.5C26.6663 20.42 25.92 21.1663 25 21.1663Z" fill="white"/>
</svg>
