<svg width="20" height="30" viewBox="0 0 20 30" fill="none" xmlns="http://www.w3.org/2000/svg">
<path d="M10 0C6.065 0 2.5 3.19125 2.5 7.1275C2.5 11.0625 5.7525 15.7613 10 22.5C14.2475 15.7613 17.5 11.0625 17.5 7.1275C17.5 3.19125 13.9362 0 10 0ZM10 10C8.61875 10 7.5 8.88125 7.5 7.5C7.5 6.11875 8.61875 5 10 5C11.3813 5 12.5 6.11875 12.5 7.5C12.5 8.88125 11.3813 10 10 10ZM20 25C20 27.7612 15.5238 30 10 30C4.47625 30 0 27.7612 0 25C0 22.9975 2.36 21.275 5.76 20.4762L7.2025 22.7563C6.70125 22.8412 6.195 22.925 5.73 23.0588C1.59 24.245 1.41375 25.695 5.70375 26.9362C8.31375 27.69 11.675 27.6925 14.2963 26.935C18.82 25.6263 18.2512 24.0913 13.9612 22.9762C13.5912 22.88 13.185 22.8287 12.7913 22.7625L14.2362 20.4775C17.64 21.275 20 22.9975 20 25Z" fill="white"/>
</svg>
