<svg width="40" height="21" viewBox="0 0 40 21" fill="none" xmlns="http://www.w3.org/2000/svg">
<path d="M29.995 20.5007H10.0033L10 19.4513C10 17.3304 10.1667 16.1057 12.6467 15.5263C15.4533 14.871 18.22 14.2864 16.8883 11.8051C12.945 4.45539 15.765 0.286133 19.9983 0.286133C24.15 0.286133 27.0417 4.30042 23.1083 11.8068C21.8167 14.273 24.485 14.8592 27.35 15.5279C29.8333 16.1074 29.9983 17.3338 29.9983 19.458L29.995 20.5007ZM38.0133 16.7711C35.8633 16.2691 33.8633 15.8295 34.8317 13.9798C37.78 8.35007 35.6133 5.33978 32.4983 5.33978C30.39 5.33978 28.7517 6.71606 28.7517 9.25468C28.7517 15.8295 32.5317 12.2363 32.495 20.5007H39.9967L40 19.7208C40 18.1272 39.8767 17.2058 38.0133 16.7711ZM0.00333333 20.5007H7.505C7.47 12.2363 11.2483 15.8312 11.2483 9.25468C11.2483 6.71606 9.61 5.33978 7.50167 5.33978C4.38667 5.33978 2.22 8.35007 5.17 13.9798C6.13833 15.8312 4.13833 16.2691 1.98833 16.7711C0.123333 17.2058 0 18.1272 0 19.7208L0.00333333 20.5007Z" fill="white"/>
</svg>
