<svg xmlns="http://www.w3.org/2000/svg" viewBox="0 0 46.29 46.29"><defs><style>.cls-1{fill:#fe7d90;}.cls-2{fill:#fff;}</style></defs><title>Ресурс 2</title><g id="Слой_2" data-name="Слой 2"><g id="Layer_1" data-name="Layer 1"><path class="cls-1" d="M46,26.56A23.14,23.14,0,1,1,26.56.26,23.15,23.15,0,0,1,46,26.56Z"/><path class="cls-2" d="M19.33,34.88a2.36,2.36,0,0,1-.67-.59L11,24.2a2.46,2.46,0,0,1,3.91-3l6,7.85L33.35,16.61a2.46,2.46,0,0,1,3.47,3.48L22.35,34.53a2.44,2.44,0,0,1-1.9.71A2.32,2.32,0,0,1,19.33,34.88Z"/></g></g></svg>