<svg width="48" height="48" viewBox="0 0 48 48" fill="none" xmlns="http://www.w3.org/2000/svg">
<g clip-path="url(#clip0)">
<path d="M48 27.3319C47.9996 27.0847 47.8627 26.8477 47.6484 26.724L36.33 20.1893L36.3593 8.66647C36.3593 8.41855 36.2227 8.17978 36.0077 8.056L24.3289 1.31296C24.111 1.18698 23.8418 1.18735 23.6239 1.31406L12.0238 8.05527C11.8066 8.16403 11.6719 8.42697 11.6711 8.66318L11.6419 20.1805L0.38306 26.7236C0.165897 26.832 0.0311309 27.0953 0.0303985 27.3311L2.97835e-06 39.255C-0.000729444 39.5066 0.13367 39.7398 0.351566 39.8655L12.0304 46.6085C12.2227 46.7528 12.5358 46.7239 12.7354 46.6074L18.1058 43.4862C18.4417 43.291 18.5555 42.8607 18.3604 42.5249C18.1655 42.1894 17.7349 42.0752 17.3994 42.2704L13.088 44.7756L13.1144 34.4811L23.309 28.5565L23.2826 38.8514L20.3855 40.5349C20.0497 40.7301 19.9358 41.1604 20.1306 41.4962C20.3258 41.832 20.7561 41.9459 21.0919 41.7507L23.9861 40.0691L35.3119 46.6081C35.5045 46.7524 35.8176 46.7235 36.0169 46.6074L47.6199 39.8644C47.8359 39.7387 47.9692 39.508 47.9696 39.2583L47.9799 35.2369C47.981 34.8484 47.6668 34.5331 47.2786 34.532C47.2782 34.532 47.2775 34.532 47.2767 34.532C46.8893 34.532 46.5747 34.8454 46.5736 35.2332L46.5645 38.851L36.3699 44.7756L36.3962 34.4807L46.5908 28.5565L46.5817 31.9967C46.5809 32.3852 46.8948 32.7005 47.283 32.7016H47.2848C47.6726 32.7016 47.9872 32.3882 47.9879 32.0003L48 27.3348C48 27.3337 48 27.3326 48 27.3319ZM23.3489 15.8131L23.3225 26.1153L13.0481 20.1831L13.0745 9.88083L23.3489 15.8131ZM12.3377 21.4026L22.6124 27.3348L12.4113 33.263L2.13648 27.3311L12.3377 21.4026ZM24.7152 28.5492L34.99 34.4811L34.9636 44.7833L24.6889 38.8514L24.7152 28.5492ZM35.6928 33.2634L25.4202 27.3322L35.6217 21.404L45.8943 27.3348L35.6928 33.2634ZM23.9784 2.73459L34.2532 8.66684L28.764 11.8565C28.4282 12.0517 28.3143 12.482 28.5095 12.8178C28.7044 13.1537 29.135 13.2675 29.4708 13.0724L34.9497 9.88852L34.9237 20.1805L24.7291 26.1051L24.7555 15.8127L26.6173 14.7306C26.9531 14.5357 27.067 14.1054 26.8718 13.7696C26.6766 13.4338 26.2463 13.3196 25.9109 13.5147L24.052 14.5951L13.7772 8.66281L23.9784 2.73459ZM1.43372 28.5492L11.7081 34.4811L11.6818 44.7833L1.40735 38.8514L1.43372 28.5492Z" fill="#5ECA66"/>
</g>
<defs>
<clipPath id="clip0">
</clipPath>
</defs>
</svg>
