<svg width="17" height="17" viewBox="0 0 17 17" fill="none" xmlns="http://www.w3.org/2000/svg">
<g clip-path="url(#clip0)">
<path d="M15.0841 0H1.66594C0.676756 0 -0.125 0.805227 -0.125 1.79094V15.2091C-0.125 16.1982 0.680227 17 1.66594 17H15.0841C16.0732 17 16.875 16.1948 16.875 15.2091V1.79094C16.875 0.805227 16.0698 0 15.0841 0ZM16.0247 15.2091C16.0247 15.7262 15.6012 16.1497 15.0841 16.1497H1.66594C1.14879 16.1497 0.725347 15.7262 0.725347 15.2091V1.79094C0.725347 1.27379 1.14879 0.850347 1.66594 0.850347H15.0841C15.6012 0.850347 16.0247 1.27379 16.0247 1.79094V15.2091Z" fill="#626791"/>
<path d="M11.5853 8.07651H8.79825V5.28946C8.79825 5.05344 8.60736 4.86255 8.37134 4.86255C8.13533 4.86255 7.94443 5.05344 7.94443 5.28946V8.07651H5.15738C4.92136 8.07651 4.73047 8.26741 4.73047 8.49995C4.73047 8.73597 4.92136 8.92686 5.15738 8.92686H7.94443V11.7139C7.94443 11.9499 8.13533 12.1408 8.37134 12.1408C8.60736 12.1408 8.79825 11.9499 8.79825 11.7139V8.92686H11.5853C11.8213 8.92686 12.0122 8.73597 12.0122 8.49995C12.0122 8.26394 11.8213 8.07651 11.5853 8.07651Z" fill="#626791"/>
</g>
<defs>
<clipPath id="clip0">
<rect width="17" height="17" fill="white"/>
</clipPath>
</defs>
</svg>
