<svg width="22" height="21" viewBox="0 0 22 21" xmlns="http://www.w3.org/2000/svg">
<g clip-path="url(#clip0)">
<path d="M19.6549 0H3.07952C1.85759 0 0.867188 0.994692 0.867188 2.21233V18.7877C0.867188 20.0096 1.86188 21 3.07952 21H19.6549C20.8768 21 21.8672 20.0053 21.8672 18.7877V2.21233C21.8672 0.994692 20.8725 0 19.6549 0ZM20.8168 18.7877C20.8168 19.4265 20.2937 19.9496 19.6549 19.9496H3.07952C2.44069 19.9496 1.91762 19.4265 1.91762 18.7877V2.21233C1.91762 1.5735 2.44069 1.05043 3.07952 1.05043H19.6549C20.2937 1.05043 20.8168 1.5735 20.8168 2.21233V18.7877Z" fill="#fff"/>
<path d="M15.3331 9.97703H11.8903V6.53419C11.8903 6.24265 11.6545 6.00684 11.3629 6.00684C11.0714 6.00684 10.8355 6.24265 10.8355 6.53419V9.97703H7.39271C7.10117 9.97703 6.86536 10.2128 6.86536 10.5001C6.86536 10.7916 7.10117 11.0275 7.39271 11.0275H10.8355V14.4703C10.8355 14.7618 11.0714 14.9976 11.3629 14.9976C11.6545 14.9976 11.8903 14.7618 11.8903 14.4703V11.0275H15.3331C15.6246 11.0275 15.8605 10.7916 15.8605 10.5001C15.8605 10.2086 15.6246 9.97703 15.3331 9.97703Z" fill="#fff"/>
</g>
<defs>
<clipPath id="clip0">
</clipPath>
</defs>
</svg>
