<svg width="40" height="46" viewBox="0 0 40 46" fill="none" xmlns="http://www.w3.org/2000/svg">
<path d="M-4.64013e-07 35.3847L-1.54671e-06 10.6154L20 6.01609e-05L40 10.6154L40 35.3847L20 46.0001L-4.64013e-07 35.3847Z" fill="#009A61"/>
<path d="M27.3878 24.072H21.9744L22.931 26.2503H25.7527L27.3878 24.072ZM30 19.9843H20.1798L21.1365 22.1626H28.3667L30 19.9843Z" fill="white"/>
<path d="M20.1529 14L12.5278 30.6683H15.431L20.1492 19.9176L24.8748 30.6849H27.7799L20.1529 14Z" fill="white"/>
<path d="M10 19.9843L11.5962 22.1626L21.1365 22.1626L20.1798 19.9843L10 19.9843ZM12.9031 24.072L14.5012 26.2503H22.931L21.9744 24.072H12.9031Z" fill="white"/>
</svg>
