<svg width="28" height="14" viewBox="0 0 28 14" fill="none" xmlns="http://www.w3.org/2000/svg">
<path d="M27.2035 1.57302H5.27204V6.78684H8.15446C8.44599 6.78684 8.71416 6.94402 8.85382 7.19678C8.99348 7.44953 8.98206 7.75734 8.82408 7.99934L5.14512 13.6394C4.99856 13.8642 4.74632 14 4.4755 14C4.20468 14 3.95257 13.8642 3.80587 13.6394L0.126918 7.99947C-0.0309296 7.75747 -0.0423467 7.44966 0.0971807 7.19691C0.236708 6.94415 0.50501 6.78697 0.796543 6.78697H3.67896V0.786575C3.67896 0.352254 4.03554 0 4.4755 0H27.2035C27.6433 0 28 0.352254 28 0.786575C28 1.2209 27.6434 1.57302 27.2035 1.57302ZM4.4755 11.7609L6.69387 8.36012H2.25713L4.4755 11.7609Z" fill="#7E88F4"/>
</svg>
