<svg width="54" height="54" viewBox="0 0 54 54" fill="none" xmlns="http://www.w3.org/2000/svg">
<g clip-path="url(#clip0)">
<path d="M53.3365 16.8302L35.4862 5.34539C35.1299 5.1161 34.6553 5.21925 34.4261 5.57542C34.1969 5.93169 34.2998 6.4063 34.6561 6.63559L52.2455 17.9525H48.1451L28.1222 5.06991C27.4406 4.63137 26.5596 4.63147 25.8778 5.06991L5.85497 17.9525H1.75455L26.9991 1.70903L30.5744 4.00931C30.9307 4.23849 31.4052 4.13556 31.6345 3.77928C31.8637 3.42301 31.7608 2.9484 31.4045 2.71911L27.8292 0.41883C27.3255 0.0947242 26.6746 0.0947242 26.1709 0.41883L0.663469 16.8302C0.120304 17.1797 -0.122274 17.8309 0.0598706 18.4506C0.242015 19.0704 0.798364 19.4868 1.44426 19.4868H5.31328V22.1309V24.4466C5.31328 25.0571 5.74633 25.5684 6.32135 25.6894V27.0395C6.32135 27.7398 6.89109 28.3096 7.59141 28.3096H7.69688V37.7081C7.69688 38.1318 8.04028 38.4752 8.46395 38.4752C8.88762 38.4752 9.23103 38.1318 9.23103 37.7081V27.5425C9.23103 27.1188 8.88762 26.7754 8.46395 26.7754H7.85561V25.7165H13.2886V26.7752H12.6803C12.2566 26.7752 11.9132 27.1186 11.9132 27.5423V44.4907C11.9132 44.9144 12.2566 45.2578 12.6803 45.2578H13.2886V46.409H7.85561V45.2578H8.46395C8.88762 45.2578 9.23103 44.9144 9.23103 44.4907V42.5301C9.23103 42.1064 8.88762 41.763 8.46395 41.763C8.04028 41.763 7.69688 42.1064 7.69688 42.5301V43.7236H7.59141C6.89109 43.7236 6.32135 44.2933 6.32135 44.9936V46.3437C5.74623 46.4647 5.31328 46.976 5.31328 47.5866V49.135H2.59598C1.74801 49.135 1.05813 49.8249 1.05813 50.6729V52.2865C1.05813 53.1344 1.74801 53.8243 2.59598 53.8243H51.404C52.252 53.8243 52.9419 53.1344 52.9419 52.2865V50.6729C52.9419 49.8249 52.252 49.135 51.404 49.135H48.6867V47.5866C48.6867 46.976 48.2537 46.4647 47.6787 46.3437V44.9936C47.6787 44.2933 47.1089 43.7236 46.4086 43.7236H46.3031V28.3094H46.4086C47.1089 28.3094 47.6787 27.7396 47.6787 27.0393V25.6892C48.2538 25.5682 48.6867 25.0569 48.6867 24.4463V22.1307V19.4866H52.5558C53.2017 19.4866 53.758 19.0702 53.9401 18.4504C54.1223 17.8309 53.8797 17.1796 53.3365 16.8302ZM26.7079 6.36011C26.8854 6.24589 27.1147 6.24599 27.2922 6.36011L45.3097 17.9526H8.69039L26.7079 6.36011ZM6.84743 19.4867H47.1525V21.3637H38.9362H31.4917H22.5083H15.0638H6.84743V19.4867ZM31.2508 46.3439V44.9938C31.2508 44.2935 30.6811 43.7239 29.9808 43.7239H29.8753V28.3096H29.9808C30.6811 28.3096 31.2508 27.7398 31.2508 27.0395V25.6894C31.8259 25.5684 32.2589 25.0571 32.2589 24.4466V22.898H38.1692V24.4466C38.1692 25.0571 38.6022 25.5684 39.1772 25.6894V27.0395C39.1772 27.7398 39.747 28.3096 40.4473 28.3096H40.5528V43.7239H40.4473C39.747 43.7239 39.1772 44.2935 39.1772 44.9938V46.3439C38.6022 46.4649 38.1692 46.9762 38.1692 47.5868V49.1353H32.2589V47.5868C32.2589 46.9762 31.8258 46.4649 31.2508 46.3439ZM14.8228 46.3439V44.9938C14.8228 44.2935 14.253 43.7239 13.5527 43.7239H13.4473V28.3096H13.5527C14.253 28.3096 14.8228 27.7398 14.8228 27.0395V25.6894C15.3978 25.5684 15.8309 25.0571 15.8309 24.4466V22.898H21.7412V24.4466C21.7412 25.0571 22.1743 25.5684 22.7493 25.6894V27.0395C22.7493 27.7398 23.319 28.3096 24.0194 28.3096H24.1248V43.7239H24.0194C23.319 43.7239 22.7493 44.2935 22.7493 44.9938V46.3439C22.1743 46.4649 21.7412 46.9762 21.7412 47.5868V49.1353H15.8309V47.5868C15.8309 46.9762 15.3978 46.4649 14.8228 46.3439ZM29.1082 45.2578H29.7166V46.409H24.2836V45.2578H24.8919C25.3156 45.2578 25.659 44.9144 25.659 44.4907V27.5424C25.659 27.1187 25.3156 26.7752 24.8919 26.7752H24.2836V25.7165H29.7166V26.7752H29.1082C28.6846 26.7752 28.3412 27.1186 28.3412 27.5423V44.4907C28.3412 44.9144 28.6846 45.2578 29.1082 45.2578ZM23.5164 24.1824H23.513H23.2754V22.898H30.7246V24.1824H30.4836C30.4831 24.1824 30.4825 24.1825 30.482 24.1825C30.4814 24.1825 30.4808 24.1824 30.4803 24.1824H23.5164ZM23.2754 47.9054C23.3503 47.9297 23.43 47.9434 23.513 47.9434H30.4802C30.5657 47.9434 30.6478 47.9287 30.7246 47.9029V49.1352H23.2754V47.9054ZM7.08853 24.1824H6.84753V22.898H14.2968V24.1824H14.2967H14.0557H7.08853ZM6.84743 47.9041C6.92326 47.9292 7.00416 47.9434 7.08843 47.9434H14.0557C14.14 47.9434 14.2209 47.9292 14.2967 47.9041V49.1352H6.84743V47.9041ZM51.4077 50.673L51.4056 52.2901C51.4056 52.2901 51.4052 52.2903 51.404 52.2903L2.59228 52.2867L2.59598 50.6694L51.4077 50.673ZM46.9094 47.9432C46.9945 47.9432 47.076 47.9288 47.1526 47.9033V49.1352H39.7033V47.9049C39.7785 47.9295 39.8587 47.9432 39.9422 47.9432H46.9094ZM41.3197 26.7753H40.7114V25.7165H46.1444V26.7752H45.5361C45.1124 26.7752 44.769 27.1186 44.769 27.5423V44.4907C44.769 44.9144 45.1124 45.2579 45.5361 45.2579H46.1444V46.4091H40.7114V45.2579H41.3197C41.7434 45.2579 42.0868 44.9145 42.0868 44.4908V27.5424C42.0868 27.1187 41.7434 26.7753 41.3197 26.7753ZM47.1527 24.1824H46.9116C46.9113 24.1824 46.9109 24.1825 46.9105 24.1825C46.9102 24.1825 46.9098 24.1824 46.9095 24.1824H39.9444H39.9423H39.7034V22.898H47.1527V24.1824Z" fill="#FCC501"/>
<path d="M27.3245 11.9354V9.54061C28.1503 9.59957 28.4571 9.97704 28.7401 9.97704C29.0941 9.97704 29.2593 9.5288 29.2593 9.30468C29.2593 8.72671 28.1267 8.47896 27.3245 8.45534V8.13682C27.3245 7.99518 27.1477 7.86545 26.9707 7.86545C26.7701 7.86545 26.6285 7.99528 26.6285 8.13682V8.47896C25.5078 8.59688 24.3871 9.18676 24.3871 10.6731C24.3871 12.1831 25.5669 12.6079 26.6285 12.9853V15.7574C25.4252 15.6631 25.1067 14.8373 24.7174 14.8373C24.4226 14.8373 24.1748 15.2265 24.1748 15.5097C24.1748 16.0878 25.1657 16.8782 26.6285 16.9018V17.2676C26.6285 17.4092 26.7701 17.539 26.9707 17.539C27.1476 17.539 27.3245 17.4091 27.3245 17.2676V16.8665C28.5986 16.6896 29.4716 15.8874 29.4716 14.4364C29.4716 12.832 28.3508 12.3129 27.3245 11.9354ZM26.6994 11.7113C26.0741 11.4753 25.5669 11.2276 25.5669 10.5551C25.5669 9.94171 26.0388 9.64682 26.6994 9.56424V11.7113ZM27.2539 15.734V13.2448C27.8318 13.4925 28.2919 13.8229 28.292 14.5661C28.292 15.2385 27.8909 15.616 27.2539 15.734Z" fill="#FCC501"/>
</g>
<defs>
<clipPath id="clip0">
<rect width="54" height="54" fill="white"/>
</clipPath>
</defs>
</svg>
