<svg width="40" height="46" viewBox="0 0 40 46" fill="none" xmlns="http://www.w3.org/2000/svg">
<path d="M-4.64013e-07 35.3846L-1.54671e-06 10.6154L20 -8.74228e-07L40 10.6154L40 35.3846L20 46L-4.64013e-07 35.3846Z" fill="#20C873"/>
<g clip-path="url(#clip0)">
<path d="M17.2834 13.0046H9.98627V20.3527C10.9271 16.7842 13.7247 13.9695 17.2834 13.0046Z" fill="white"/>
<path d="M30.0137 20.3527V13.0046H22.7165C26.2752 13.9695 29.0728 16.7842 30.0137 20.3527Z" fill="white"/>
<path d="M22.7165 32.9953H30.0137V25.6472C29.0728 29.2157 26.2752 32.0305 22.7165 32.9953Z" fill="white"/>
<path d="M9.98627 25.6472V32.9953H17.2834C13.7247 32.0305 10.9271 29.2157 9.98627 25.6472Z" fill="white"/>
<path d="M23.9879 23.3532L23.9831 23.3444L23.9823 23.3429C23.9795 23.3341 23.9773 23.3248 23.9741 23.3153L23.9737 23.3145L23.9733 23.3138L23.9728 23.313L23.9724 23.3123L23.972 23.3116L23.9716 23.3108L23.9708 23.3093C23.871 22.9756 23.6732 22.6795 23.403 22.4597L23.4026 22.4589C23.3946 22.4528 23.3862 22.446 23.3782 22.44L23.3672 22.4317L23.3592 22.4257L23.3557 22.4228L23.3481 22.4174L23.3447 22.4146L23.3371 22.4092L23.3337 22.4063L23.3257 22.4003L23.3215 22.3977L23.3135 22.3917L23.3093 22.3891L23.3007 22.3834L23.2965 22.3809L23.2914 22.3733L23.2868 22.3701L23.2782 22.3644L23.2737 22.3612L23.265 22.3554L23.2605 22.3522L23.2518 22.3465L23.2473 22.3433L23.2381 22.3368L23.2336 22.3336L23.2237 22.3276L23.2192 22.3244L23.2094 22.3183L23.2048 22.3151L23.1949 22.309L23.1904 22.3058L23.1805 22.2998L23.1752 22.297L23.1654 22.2909L23.1601 22.2881L23.1495 22.2825L23.1442 22.2797L23.1332 22.2733L23.128 22.2705L23.117 22.2642L23.1117 22.2614L23.1007 22.255L23.095 22.2515L23.084 22.2451L23.0783 22.2416L23.0666 22.2356L23.0609 22.2321L23.0492 22.2261L23.0413 22.2218L23.0408 22.221C23.0352 22.2175 23.0291 22.2151 23.0234 22.2115C22.7803 22.0866 22.5179 22.0036 22.2471 21.9662C22.323 21.8846 22.3926 21.7972 22.4551 21.705L22.4651 21.6901L22.4658 21.6897L22.4704 21.6825L22.4765 21.6727L22.4797 21.6681L22.4857 21.6583L22.4889 21.6537L22.495 21.6439L22.4982 21.6393L22.5043 21.6295L22.5075 21.6249L22.5135 21.6151L22.5167 21.6105L22.522 21.601L22.5252 21.5965L22.5305 21.587L22.533 21.5828L22.5383 21.5733L22.5409 21.5691L22.5461 21.5597L22.5487 21.5555L22.5532 21.5464L22.5558 21.5422L22.5603 21.5332L22.5629 21.529L22.5674 21.5199L22.5699 21.5157L22.5749 21.5074L22.5774 21.5032L22.5825 21.4949L22.585 21.4907L22.5894 21.4828L22.5919 21.4786L22.5962 21.4706L22.598 21.4669L22.6023 21.4589L22.604 21.4551L22.6084 21.4472L22.6101 21.4434L22.6145 21.4355L22.6162 21.4317L22.6197 21.4241L22.6214 21.4203L22.6249 21.4127L22.6267 21.4089L22.6302 21.4013L22.6319 21.3976L22.6358 21.3889L22.641 21.3776C22.6449 21.369 22.648 21.3607 22.6518 21.352L22.6526 21.3516C22.769 21.0644 22.7964 20.7488 22.7309 20.4459L22.7305 20.4452L22.7297 20.4437L22.7293 20.443L22.7289 20.4422L22.7285 20.4415L22.7281 20.4407L22.7277 20.44L22.7273 20.4393C22.7255 20.4308 22.7238 20.4223 22.7213 20.4141V20.4123L22.7209 20.4115L22.7205 20.4108L22.7201 20.4101L22.7205 20.4108L22.717 20.4042C22.7144 20.3924 22.7119 20.3805 22.7081 20.3684C22.7055 20.3566 22.7018 20.3444 22.6985 20.3329L22.6941 20.3248L22.6933 20.3234C22.6908 20.3153 22.6884 20.3071 22.6859 20.299L22.6855 20.2983L22.6851 20.2975L22.6847 20.2968L22.6843 20.2961L22.6839 20.2954L22.6834 20.2946L22.6831 20.2939C22.5944 19.9969 22.4184 19.7335 22.178 19.538L22.1776 19.5372C22.1707 19.5314 22.1631 19.5261 22.1562 19.5204L22.1467 19.5132L22.1391 19.5076L22.1357 19.5047L22.1292 19.4997L22.1258 19.4968L22.1193 19.4917L22.1159 19.4888L22.1086 19.4842L22.1052 19.4813L22.0976 19.476L22.0942 19.4731L22.0865 19.4678L22.0831 19.4649L22.0755 19.4595L22.0713 19.457L22.0637 19.4516L22.0595 19.4491L22.0519 19.4437L22.0477 19.4412L22.0394 19.4363L22.0352 19.4337L22.0268 19.4288L22.0227 19.4262L22.0143 19.4213L22.0101 19.4187L22.0018 19.4137L21.9976 19.4111L21.989 19.4054L21.9848 19.4029L21.976 19.3972L21.9718 19.3947L21.9624 19.3893L21.9582 19.3868L21.9487 19.3815L21.9442 19.3783L21.9347 19.373L21.9301 19.3698L21.9207 19.3645L21.9161 19.3613L21.9063 19.3552L21.901 19.3524L21.8911 19.3464L21.8859 19.3436L21.8752 19.3379L21.87 19.3351L21.8594 19.3295L21.8517 19.326L21.8513 19.3253L21.8354 19.3168C21.3711 19.0755 20.7812 19.0029 20.1877 19.1551L20.0334 19.1948L19.6421 17.6754L18.7372 17.9074L19.1256 19.4221L18.4017 19.6078L18.0121 18.098L17.1073 18.33L17.4965 19.8446L15.6303 20.3249L15.8786 21.29L16.6305 21.0969C16.6897 21.0816 16.7513 21.0782 16.8118 21.0867C16.8723 21.0953 16.9306 21.1156 16.9832 21.1467C17.0358 21.1778 17.0818 21.2189 17.1186 21.2677C17.1553 21.3166 17.1821 21.3721 17.1973 21.4313L17.1975 21.4322L18.2414 25.4934C18.2618 25.5731 18.2498 25.6577 18.2079 25.7286C18.166 25.7995 18.0978 25.8509 18.018 25.8715L17.3592 26.041L17.3979 27.1888L19.2617 26.7098L19.656 28.2217L20.5605 27.9889L20.1709 26.4736L20.8948 26.2879L21.2844 27.8031L22.1888 27.5704L21.798 26.0491C21.9513 26.0091 22.0831 25.975 22.1743 25.9514C22.8431 25.7793 23.384 25.3871 23.7113 24.8983L23.7223 24.8819L23.7231 24.8815L23.7284 24.8739L23.7355 24.8625L23.7391 24.8568L23.7462 24.8455L23.7497 24.8398L23.7561 24.8288L23.7596 24.8231L23.7659 24.8121L23.7688 24.8068L23.7751 24.7958L23.7779 24.7905L23.7843 24.7795L23.7871 24.7742L23.7927 24.7636L23.7955 24.7583L23.8011 24.7478L23.8039 24.7424L23.81 24.7326L23.8128 24.7273L23.8188 24.7175L23.8217 24.7122L23.8269 24.7027L23.8298 24.6974L23.835 24.688L23.8378 24.6827L23.8431 24.6732L23.8453 24.6683L23.8506 24.6588L23.8527 24.6539L23.8573 24.6449L23.8598 24.6407L23.8644 24.6316L23.8669 24.6274L23.8715 24.6184L23.874 24.6142L23.8786 24.6051L23.8811 24.6009L23.8857 24.5919L23.8882 24.5877L23.8928 24.5786L23.8953 24.5744L23.8991 24.5658L23.9017 24.5616L23.9055 24.553L23.9073 24.5492L23.9115 24.5394L23.9171 24.5269C23.9212 24.5171 23.9258 24.508 23.9292 24.4986L23.9296 24.4975C24.0605 24.1745 24.0913 23.8195 24.018 23.4788L24.0175 23.478L24.0171 23.4773L24.0167 23.4766L24.0163 23.4758L24.0159 23.4751L24.0155 23.4743L24.0151 23.4736L24.0147 23.4729L24.0082 23.4452V23.4433L24.0078 23.4426L24.0074 23.4418L24.007 23.4411L24.0066 23.4404L24.0062 23.4396L24.0058 23.4389L24.0054 23.4382L24.005 23.4374L24.0046 23.4367L24.0042 23.436L24.0038 23.4352L24.0034 23.4345L24.003 23.4338L24.0014 23.4308C23.9981 23.4176 23.9954 23.4039 23.9912 23.3909C23.9906 23.3829 23.9887 23.3688 23.9879 23.3532ZM18.6711 20.6365C18.8255 20.5968 19.4638 20.4365 19.6743 20.3817C20.0089 20.296 20.3385 20.3293 20.5962 20.4533L20.6048 20.4571L20.6086 20.4589L20.6139 20.4617L20.6164 20.4631L20.6217 20.4659L20.6242 20.4673L20.6295 20.4701L20.6321 20.4715L20.6374 20.4743L20.6399 20.4757L20.6452 20.4785L20.6477 20.4799L20.653 20.4827L20.6556 20.4841L20.6609 20.4869L20.6634 20.4883L20.6687 20.4912L20.6712 20.4925L20.6765 20.4954L20.679 20.4968L20.6836 20.5L20.6861 20.5014L20.6907 20.5046L20.6932 20.506L20.6978 20.5092L20.7003 20.5106L20.7045 20.5132L20.707 20.5146L20.7112 20.5171L20.7138 20.5185L20.7179 20.521L20.7205 20.5224L20.7247 20.525L20.7272 20.5264L20.7314 20.5289L20.7333 20.5307L20.7375 20.5333L20.739 20.5343L20.7432 20.5368L20.7447 20.5379L20.7489 20.5404L20.7504 20.5415L20.7546 20.544L20.7561 20.5451L20.7596 20.548L20.7611 20.549L20.7653 20.5516L20.771 20.5551C20.7752 20.5576 20.779 20.5612 20.7831 20.5637C20.915 20.6632 21.0118 20.802 21.0598 20.96L21.061 20.9621C21.0622 20.9662 21.0638 20.971 21.065 20.9751L21.0655 20.9758L21.0678 20.9802C21.0695 20.9868 21.0715 20.9923 21.0733 20.999C21.0751 21.0058 21.0763 21.0127 21.0769 21.0197L21.0792 21.024L21.0796 21.0248C21.0803 21.0293 21.0814 21.0337 21.083 21.038L21.0842 21.0402C21.1181 21.2018 21.1001 21.3699 21.0327 21.5207L21.0267 21.5342L21.0236 21.5407L21.0211 21.5449L21.0204 21.5472L21.0186 21.5509L21.0179 21.5532L21.0154 21.5574L21.0147 21.5596L21.0122 21.5638L21.0115 21.566L21.009 21.5702L21.0083 21.5724L21.0057 21.5766L21.005 21.5788L21.0025 21.583L21.0018 21.5853L20.9993 21.5895L20.9978 21.592L20.9953 21.5962L20.9939 21.5987L20.9913 21.6029L20.9899 21.6055L20.9874 21.6097L20.986 21.6122L20.9828 21.6167L20.9814 21.6193L20.9782 21.6238L20.9768 21.6264L20.9736 21.6309L20.9722 21.6335L20.9689 21.638L20.9675 21.6405L20.9643 21.6451L20.9629 21.6476L20.9597 21.6522L20.9583 21.6548L20.9551 21.6593L20.9537 21.6618L20.9505 21.6664L20.9491 21.6689L20.9451 21.6739L20.9437 21.6764L20.9397 21.6814L20.9383 21.6839L20.9344 21.6888L20.933 21.6914L20.929 21.6963L20.9262 21.6998L20.9208 21.7074C20.7544 21.9406 20.4817 22.1289 20.1471 22.2146C19.9362 22.2685 19.2995 22.4355 19.1453 22.4752L18.6711 20.6365ZM22.2081 23.75L22.2105 23.7543L22.2109 23.7551C22.2118 23.7601 22.213 23.7643 22.2139 23.7695L22.2143 23.7702L22.2147 23.771L22.2152 23.7717L22.2156 23.7724C22.2513 23.9506 22.2256 24.1355 22.1428 24.2972L22.1347 24.3119L22.1308 24.3188L22.128 24.324L22.1266 24.3266L22.1241 24.3308L22.1227 24.3333L22.1201 24.3375L22.1187 24.34L22.1155 24.3446L22.1141 24.3471L22.1109 24.3517L22.1095 24.3542L22.1063 24.3588L22.1049 24.3613L22.1017 24.3658L22.1003 24.3684L22.097 24.3729L22.0957 24.3755L22.0924 24.38L22.091 24.3826L22.0878 24.3871L22.0864 24.3897L22.0832 24.3942L22.0818 24.3968L22.0786 24.4013L22.0772 24.4038L22.0732 24.4088L22.0718 24.4113L22.0679 24.4163L22.0665 24.4188L22.0629 24.4245L22.0615 24.4271L22.0579 24.4328L22.0565 24.4353L22.053 24.441L22.0508 24.444L22.0473 24.4497L22.0451 24.4528L22.0408 24.4588L22.0387 24.4619L22.0344 24.468L22.0322 24.471L22.0279 24.4771L22.0257 24.4801L22.0214 24.4862L22.0192 24.4892L22.0149 24.4953L22.0113 24.4991L22.0045 24.5075C21.8024 24.7656 21.4764 24.9779 21.0804 25.0795C20.8308 25.144 20.0763 25.3413 19.8927 25.3882L19.3791 23.3897C19.5623 23.3422 20.3188 23.1522 20.5685 23.0877C20.9644 22.9862 21.3531 23.0149 21.6536 23.1432L21.6634 23.1473L21.6683 23.1495L21.6755 23.1522L21.6788 23.1532L21.6853 23.1564L21.6887 23.1574L21.6952 23.1605L21.6985 23.1615L21.705 23.1647L21.7075 23.1661L21.714 23.1692L21.7165 23.1706L21.723 23.1738L21.7256 23.1752L21.732 23.1783L21.7346 23.1798L21.7399 23.1825L21.7424 23.184L21.7477 23.1868L21.7502 23.1882L21.7555 23.191L21.7581 23.1924L21.7633 23.1952L21.7659 23.1966L21.7712 23.1994L21.7737 23.2008L21.779 23.2036L21.7815 23.205L21.7868 23.2078L21.7894 23.2092L21.7947 23.212L21.7972 23.2134L21.8025 23.2162L21.805 23.2176L21.8096 23.2208L21.8121 23.2223L21.8167 23.2255L21.8192 23.2269L21.8238 23.2301L21.8263 23.2315L21.8309 23.2347L21.8334 23.2361L21.838 23.2393L21.8405 23.2407L21.8447 23.2433L21.8472 23.2447L21.8518 23.2479L21.8579 23.2522C21.8624 23.2554 21.8677 23.2583 21.8723 23.2615C22.0236 23.3635 22.1359 23.5138 22.1908 23.6878L22.1923 23.6907C22.1939 23.6955 22.1952 23.6996 22.1968 23.7044L22.1972 23.7051L22.1996 23.7094C22.2013 23.7161 22.203 23.7227 22.2051 23.7301C22.2088 23.7317 22.2094 23.7399 22.2082 23.75L22.2081 23.75Z" fill="white"/>
</g>
<defs>
<clipPath id="clip0">
<rect x="10" y="13" width="20" height="20" fill="white"/>
</clipPath>
</defs>
</svg>
