<svg width="40" height="46" viewBox="0 0 40 46" fill="none" xmlns="http://www.w3.org/2000/svg">
<path d="M-4.64013e-07 35.3846L-1.54671e-06 10.6154L20 -8.74228e-07L40 10.6154L40 35.3846L20 46L-4.64013e-07 35.3846Z" fill="#F7971A"/>
<g clip-path="url(#clip0)">
<path d="M26.6566 23.4925C26.1919 22.8917 25.4908 22.479 24.5531 22.2547C25.7471 21.6456 26.2719 20.612 26.1278 19.1534C26.0796 18.6246 25.9335 18.1662 25.689 17.7777C25.4443 17.389 25.1141 17.0766 24.6972 16.8403C24.2805 16.6036 23.8274 16.4235 23.3389 16.2993C22.8502 16.1751 22.2892 16.085 21.6561 16.0289V13H19.8053V15.9448C19.4848 15.9448 18.996 15.9528 18.339 15.9688V13H16.488V16.0289C16.2234 16.037 15.8349 16.041 15.3221 16.041L12.774 16.0289V18.0001H14.1081C14.7171 18.0001 15.0736 18.2727 15.1778 18.8175V22.2671C15.258 22.2671 15.3221 22.2712 15.3702 22.2792H15.1778V27.1109C15.1138 27.5194 14.8814 27.7239 14.4807 27.7239H13.1468L12.7741 29.9235H15.178C15.3303 29.9235 15.5505 29.9255 15.8391 29.9292C16.1275 29.9332 16.3438 29.9352 16.488 29.9352V33.0001H18.3394V29.9713C18.6759 29.9795 19.1646 29.9834 19.8057 29.9834V33.0001H21.6565V29.9352C22.3137 29.9032 22.8966 29.8434 23.4052 29.755C23.9141 29.6665 24.401 29.5285 24.8656 29.3401C25.3302 29.1519 25.7188 28.9174 26.0313 28.6369C26.3439 28.3567 26.6021 28 26.8068 27.5672C27.0108 27.1344 27.1412 26.6336 27.1971 26.0646C27.3017 24.9511 27.1213 24.0936 26.6566 23.4925ZM18.375 18.132C18.4311 18.132 18.5894 18.13 18.8498 18.1259C19.1104 18.1218 19.3266 18.1179 19.4989 18.1138C19.6712 18.1099 19.9036 18.1199 20.1962 18.1439C20.4886 18.168 20.735 18.2001 20.9353 18.2401C21.1355 18.2801 21.3561 18.3462 21.5963 18.4384C21.8368 18.5304 22.029 18.6427 22.1731 18.7748C22.3174 18.907 22.4396 19.0754 22.5396 19.2797C22.6399 19.484 22.69 19.7184 22.69 19.9828C22.69 20.2072 22.654 20.4116 22.5819 20.596C22.51 20.7802 22.4016 20.9345 22.2575 21.0587C22.1134 21.1829 21.9649 21.2912 21.8126 21.3833C21.6605 21.4754 21.466 21.5495 21.2297 21.6056C20.9935 21.6617 20.7872 21.7058 20.611 21.7378C20.4347 21.7698 20.2144 21.7919 19.9499 21.8039C19.6854 21.8158 19.485 21.824 19.3489 21.828C19.2126 21.8319 19.0263 21.8319 18.7899 21.828C18.5534 21.824 18.4153 21.8219 18.3752 21.8219V18.132H18.375V18.132ZM23.4294 26.3171C23.3531 26.5015 23.2551 26.6619 23.135 26.7982C23.0146 26.9342 22.8563 27.0545 22.6601 27.1585C22.4639 27.2628 22.2734 27.3468 22.0893 27.4109C21.9049 27.4753 21.6824 27.5311 21.4223 27.5793C21.1615 27.6274 20.9333 27.6613 20.7368 27.6815C20.5405 27.7015 20.3063 27.7175 20.0337 27.7296C19.7614 27.7414 19.5489 27.7475 19.3967 27.7475C19.2444 27.7475 19.0521 27.7453 18.8197 27.7414C18.5872 27.7377 18.4391 27.7356 18.3749 27.7356V23.6729C18.439 23.6729 18.6293 23.669 18.9459 23.6608C19.2625 23.6527 19.5208 23.649 19.7211 23.649C19.9214 23.649 20.198 23.6608 20.5507 23.685C20.9031 23.7089 21.1996 23.7448 21.4401 23.7929C21.6804 23.841 21.9427 23.9151 22.2274 24.0153C22.5117 24.1154 22.7422 24.2376 22.9186 24.3818C23.0949 24.5263 23.243 24.7103 23.3632 24.9348C23.4836 25.1591 23.5437 25.4155 23.5437 25.7041C23.5437 25.9287 23.5056 26.1327 23.4294 26.3171Z" fill="white"/>
</g>
<defs>
<clipPath id="clip0">
<rect x="10" y="13" width="20" height="20" fill="white"/>
</clipPath>
</defs>
</svg>
