<svg width="28" height="15" viewBox="0 0 28 15" fill="none" xmlns="http://www.w3.org/2000/svg">
<path d="M27.2035 1.57302L5.27204 1.57302L5.27204 7.78684H8.15446C8.44599 7.78684 8.71416 7.94402 8.85382 8.19678C8.99348 8.44953 8.98206 8.75734 8.82408 8.99934L5.14512 14.6394C4.99856 14.8642 4.74632 15 4.4755 15C4.20468 15 3.95257 14.8642 3.80587 14.6394L0.126918 8.99948C-0.0309296 8.75747 -0.0423467 8.44966 0.0971807 8.19691C0.236708 7.94415 0.50501 7.78697 0.796543 7.78697L3.67896 7.78697L3.67896 0.786575C3.67896 0.352254 4.03554 0 4.4755 0L27.2035 0C27.6433 0 28 0.352254 28 0.786575C28 1.2209 27.6434 1.57302 27.2035 1.57302ZM4.4755 12.7609L6.69387 9.36012H2.25713L4.4755 12.7609Z" fill="url(#paint0_linear)"/>
<defs>
<linearGradient id="paint0_linear" x1="4" y1="23.5" x2="28" y2="23.5" gradientUnits="userSpaceOnUse">
<stop stop-color="#00D2D5"/>
<stop offset="1" stop-color="#00D2D5" stop-opacity="0"/>
</linearGradient>
</defs>
</svg>
