<svg width="14" height="14" viewBox="0 0 14 14" fill="none" xmlns="http://www.w3.org/2000/svg">
<path d="M7 0C3.14017 0 0 3.14017 0 7C0 10.8598 3.14017 14 7 14C10.8598 14 14 10.8598 14 7C14 3.14017 10.8598 0 7 0ZM7 13C3.69161 13 1 10.3084 1 7C1 3.69161 3.69161 1 7 1C10.3084 1 13 3.69161 13 7C13 10.3084 10.3084 13 7 13Z" fill="#FB4C4B"/>
<path d="M9.14474 4.85489C8.94947 4.65961 8.63291 4.65961 8.43763 4.85489L6.99963 6.29289L5.56158 4.85483C5.3663 4.65955 5.04974 4.65955 4.85447 4.85483C4.65919 5.05011 4.65919 5.36667 4.85447 5.56194L6.29252 7L4.85447 8.43805C4.65919 8.63333 4.65919 8.94989 4.85447 9.14517C4.95208 9.24278 5.08008 9.29161 5.20802 9.29161C5.33597 9.29161 5.46391 9.24278 5.56158 9.14517L6.99963 7.70711L8.43769 9.14517C8.5353 9.24278 8.6633 9.29161 8.79124 9.29161C8.91919 9.29161 9.04713 9.24278 9.1448 9.14517C9.34008 8.94989 9.34008 8.63333 9.1448 8.43805L7.70674 7L9.1448 5.56194C9.34002 5.36672 9.34002 5.05011 9.14474 4.85489Z" fill="#FB4C4B"/>
</svg>
