<svg width="156" height="155" viewBox="0 0 156 155" fill="none" xmlns="http://www.w3.org/2000/svg">
<path d="M155.382 77.5213C155.382 120.248 120.745 154.885 78.0183 154.885C35.2914 154.885 0.654297 120.248 0.654297 77.5213C0.654297 64.8655 3.69318 52.9195 9.08105 42.3732C21.8831 17.3141 47.9471 0.157211 78.0183 0.157211C108.09 0.157211 134.154 17.3141 146.956 42.3732C152.344 52.9195 155.382 64.8655 155.382 77.5213Z" fill="white"/>
<g clip-path="url(#clip0)">
<path d="M64.3335 37C53.0117 37 43.8335 46.1782 43.8335 57.5V72.5333C43.8395 77.8143 48.1192 82.094 53.4002 82.1H54.7668V79.3667H53.4002C49.6282 79.3622 46.5713 76.3053 46.5668 72.5333V57.5C46.5668 47.6877 54.5212 39.7333 64.3335 39.7333C74.1458 39.7333 82.1002 47.6877 82.1002 57.5V72.5333C82.0957 76.3053 79.0388 79.3622 75.2668 79.3667H73.9002V82.1H75.2668C80.5478 82.094 84.8275 77.8143 84.8335 72.5333V57.5C84.8335 46.1782 75.6553 37 64.3335 37Z" fill="#FCC501"/>
<path d="M48.2629 101.41L49.2619 99.8366L46.9536 98.3715L45.9546 99.9459C42.9331 104.707 43.1574 110.838 46.519 115.366V119H49.2524V114.9C49.2525 114.59 49.147 114.288 48.9531 114.046C46.0475 110.414 45.7703 105.337 48.2629 101.41Z" fill="#FCC501"/>
<path d="M112.167 37H94.4002C90.6282 37.0044 87.5713 40.0613 87.5669 43.8333V57.5C87.5713 61.272 90.6282 64.3289 94.4002 64.3333H97.1336V69.8C97.1334 70.3526 97.4662 70.8511 97.9768 71.0628C98.1427 71.132 98.3205 71.1672 98.5002 71.1667C98.8627 71.1667 99.2102 71.0225 99.4665 70.7662L105.899 64.3333H112.167C115.939 64.3289 118.996 61.272 119 57.5V43.8333C118.996 40.0613 115.939 37.0044 112.167 37ZM116.267 57.5C116.267 59.7644 114.431 61.6 112.167 61.6H105.334C104.971 61.6 104.624 61.7442 104.367 62.0004L99.8669 66.5009V62.9667C99.8669 62.2119 99.255 61.6 98.5002 61.6H94.4002C92.1358 61.6 90.3002 59.7644 90.3002 57.5V43.8333C90.3002 41.5689 92.1358 39.7333 94.4002 39.7333H112.167C114.431 39.7333 116.267 41.5689 116.267 43.8333V57.5Z" fill="#FCC501"/>
<path d="M103.967 43.8333H94.3999V46.5667H103.967V43.8333Z" fill="#FCC501"/>
<path d="M112.167 43.8333H106.7V46.5667H112.167V43.8333Z" fill="#FCC501"/>
<path d="M112.167 49.3H94.3999V52.0333H112.167V49.3Z" fill="#FCC501"/>
<path d="M103.967 54.7667H94.3999V57.5H103.967V54.7667Z" fill="#FCC501"/>
<path d="M82.7121 99.9459L81.7131 98.3715L79.4048 99.8366L80.4038 101.411C82.8966 105.338 82.6194 110.414 79.7137 114.046C79.5198 114.288 79.4142 114.59 79.4144 114.9V119H82.1477V115.366C85.5093 110.838 85.7337 104.707 82.7121 99.9459Z" fill="#FCC501"/>
<path d="M117.633 83.4667H105.333C100.206 83.4726 95.9946 87.5204 95.7858 92.6438L91.6667 100.059V94.4C91.6607 89.119 87.381 84.8393 82.1 84.8333H77.1048L77.0679 84.8046L77.0433 84.8333H73.9C72.3903 84.8333 71.1667 83.6096 71.1667 82.1V78.8842C75.3895 76.4461 77.9935 71.9428 78 67.0667V56.1333C77.998 53.8689 77.4345 51.6404 76.36 49.6471C76.0158 49.013 75.2378 48.7555 74.5833 49.0595L51.4511 59.9436C50.9721 60.1691 50.6665 60.651 50.6667 61.1804V67.0667C50.6732 71.9428 53.2772 76.4461 57.5 78.8842V82.1C57.5 83.6096 56.2763 84.8333 54.7667 84.8333H46.5667C41.2857 84.8393 37.006 89.119 37 94.4V119H39.7333V94.4C39.7378 90.628 42.7947 87.5711 46.5667 87.5667H50.9154L63.2222 104.762C63.4751 105.116 63.881 105.328 64.3156 105.333H64.3333C64.7635 105.333 65.1685 105.131 65.4267 104.787L78.41 87.5667H82.1C85.872 87.5711 88.9289 90.628 88.9333 94.4V105.333C88.934 106.088 89.5465 106.699 90.3012 106.699C90.797 106.698 91.2536 106.43 91.4945 105.996L97.9369 94.4H105.772L92.447 119H95.5562L108.887 94.4H109.433C114.714 94.394 118.994 90.1143 119 84.8333C119 84.0786 118.388 83.4667 117.633 83.4667ZM53.4 67.0667V62.0483L74.5027 52.1181C75.0075 53.3966 75.2667 54.7588 75.2667 56.1333V67.0667C75.2667 73.1049 70.3716 78 64.3333 78C58.2951 78 53.4 73.1049 53.4 67.0667ZM64.362 101.66L60.1445 95.7667H68.8037L64.362 101.66ZM70.8715 93.0333H58.1833L54.2706 87.5667H54.7667C57.7858 87.5667 60.2333 85.1191 60.2333 82.1V80.1033C62.9021 80.9433 65.7646 80.9433 68.4333 80.1033V82.1C68.4333 85.1191 70.8809 87.5667 73.9 87.5667H74.9933L70.8715 93.0333ZM109.433 91.6667H98.6367C99.2901 88.4869 102.087 86.2036 105.333 86.2H116.13C115.477 89.3797 112.68 91.6631 109.433 91.6667Z" fill="#FCC501"/>
</g>
<defs>
<clipPath id="clip0">
<rect width="82" height="82" fill="white" transform="translate(37 37)"/>
</clipPath>
</defs>
</svg>
