<svg width="40" height="46" viewBox="0 0 40 46" fill="none" xmlns="http://www.w3.org/2000/svg">
<path d="M-4.64013e-07 35.3846L-1.54671e-06 10.6154L20 -8.74228e-07L40 10.6154L40 35.3846L20 46L-4.64013e-07 35.3846Z" fill="#008EE4"/>
<g clip-path="url(#clip0)">
<path d="M27.0269 27.533L29.2088 20.0458L29.2503 19.8517C29.2626 19.7488 29.2689 19.6453 29.2693 19.5416C29.2693 18.1494 28.1406 17.0207 26.7483 17.0207H14.3112V19.5416H26.7319L24.5891 26.9091L24.5425 27.1045H11.7903V29.6254H24.5425C25.7695 29.6255 26.8183 28.7421 27.0269 27.533Z" fill="white"/>
<path d="M16.8322 22.0626H9.26932V24.5836H16.8322V22.0626Z" fill="white"/>
</g>
<defs>
<clipPath id="clip0">
<rect x="10" y="13" width="20" height="20" fill="white"/>
</clipPath>
</defs>
</svg>
