<svg width="40" height="46" viewBox="0 0 40 46" fill="none" xmlns="http://www.w3.org/2000/svg">
<path d="M-4.64013e-07 35.3846L-1.54671e-06 10.6154L20 -8.74228e-07L40 10.6154L40 35.3846L20 46L-4.64013e-07 35.3846Z" fill="#CDAF23"/>
<path d="M13.5787 33V13H17.6567C20.7351 13 23.1939 13.7796 25.033 15.3388C27.3118 17.2379 28.4513 19.7966 28.4513 23.015C28.4513 26.1334 27.2819 28.6922 24.943 30.6912C23.9835 31.5107 22.954 32.1004 21.8546 32.4603C20.7551 32.8201 19.3458 33 17.6267 33H13.5787ZM15.7976 15.099V30.901H17.7466C20.1254 30.901 22.0345 30.3013 23.4738 29.1019C25.2729 27.5827 26.1724 25.5537 26.1724 23.015C26.1724 20.6162 25.4028 18.6972 23.8636 17.2579C22.3243 15.8186 20.2854 15.099 17.7466 15.099H15.7976Z" fill="white"/>
<path d="M11 22.0964H19.1777V24.8223H11V22.0964Z" fill="white"/>
</svg>
