<svg width="20" height="20" viewBox="0 0 20 20" fill="none" xmlns="http://www.w3.org/2000/svg">
<path d="M19.375 13.75C19.0299 13.75 18.75 14.03 18.75 14.375V18.75H1.25002V14.375C1.25002 14.03 0.969998 13.75 0.625036 13.75C0.280074 13.75 0 14.03 0 14.375V19.375C0 19.72 0.280022 19.9999 0.624984 19.9999H19.375C19.72 19.9999 19.9999 19.7199 19.9999 19.375V14.375C20 14.03 19.72 13.75 19.375 13.75Z" fill="#5ECA66"/>
<path d="M9.54382 14.8168C9.78695 15.0575 10.1938 15.06 10.4369 14.8168L14.8113 10.5043C15.0582 10.26 15.0575 9.86435 14.8113 9.62059C14.565 9.37621 14.1651 9.37621 13.9188 9.62059L10.6219 12.8706V0.624984C10.6219 0.27997 10.3394 0 9.99066 0C9.6419 0 9.35939 0.280022 9.35939 0.624984V12.8706L6.06251 9.62059C5.81563 9.37621 5.41627 9.37621 5.17002 9.62059C4.92314 9.86498 4.92314 10.2606 5.17002 10.5043L9.54382 14.8168Z" fill="#5ECA66"/>
</svg>
