<svg width="20" height="20" viewBox="0 0 20 20" fill="none" xmlns="http://www.w3.org/2000/svg">
<path d="M13.6661 2.42959C13.2444 2.24533 12.7531 2.43787 12.5689 2.85963C12.3846 3.28139 12.5771 3.77264 12.9989 3.9569C15.7103 5.14144 17.5 7.82322 17.5 10.8333C17.5 14.9753 14.1417 18.3334 9.99996 18.3334C5.85766 18.3334 2.4999 14.9756 2.4999 10.8333C2.4999 7.82389 4.28898 5.14211 6.99962 3.95679C7.42131 3.77241 7.61369 3.28108 7.42928 2.8594C7.2449 2.43771 6.75357 2.24533 6.33188 2.42974C3.01979 3.878 0.833244 7.1556 0.833244 10.8333C0.833244 15.8961 4.93722 20 10 20C15.0622 20 19.1668 15.8958 19.1668 10.8333C19.1668 7.15474 16.9793 3.87698 13.6661 2.42959Z" fill="white" fill-opacity="0.6"/>
<path d="M9.99965 9.16675C10.4599 9.16675 10.833 8.79366 10.833 8.33342V0.833366C10.833 0.373089 10.4599 0 9.99965 0C9.53941 0 9.16632 0.373089 9.16632 0.833327V8.33339C9.16632 8.79362 9.53941 9.16675 9.99965 9.16675Z" fill="white" fill-opacity="0.6"/>
</svg>
