<svg width="156" height="155" viewBox="0 0 156 155" fill="none" xmlns="http://www.w3.org/2000/svg">
<path d="M155.382 77.5213C155.382 120.248 120.745 154.885 78.0183 154.885C35.2914 154.885 0.654297 120.248 0.654297 77.5213C0.654297 64.8655 3.69318 52.9195 9.08105 42.3731C21.8831 17.3141 47.9471 0.157211 78.0183 0.157211C108.09 0.157211 134.154 17.3141 146.956 42.3731C152.344 52.9195 155.382 64.8655 155.382 77.5213Z" fill="white"/>
<path d="M89.4141 88.0898C88.5297 88.0898 87.8125 88.8069 87.8125 89.6914V100.742C87.8125 105.158 84.2202 108.75 79.8047 108.75H62.5129C61.6287 108.75 60.912 109.466 60.9114 110.35L60.9091 113.535L57.0865 109.712C56.8391 109.144 56.2728 108.75 55.6177 108.75H45.2109C40.7954 108.75 37.2031 105.158 37.2031 100.742V76.0781C37.2031 71.6626 40.7954 68.0703 45.2109 68.0703H61.3867C62.2711 68.0703 62.9883 67.3533 62.9883 66.4688C62.9883 65.5842 62.2711 64.8672 61.3867 64.8672H45.2109C39.0292 64.8672 34 69.8964 34 76.0781V100.742C34 106.924 39.0292 111.953 45.2109 111.953H54.7976L61.3753 118.531C61.6817 118.837 62.0912 119 62.5081 119C62.7143 119 62.9223 118.96 63.1201 118.878C63.7186 118.631 64.1089 118.047 64.1094 117.4L64.1132 111.953H79.8047C85.9864 111.953 91.0156 106.924 91.0156 100.742V89.6914C91.0156 88.8069 90.2984 88.0898 89.4141 88.0898Z" fill="#FCC501"/>
<path d="M92.7221 37H88.6687C75.8331 37 65.3906 47.4425 65.3906 60.2781C65.3906 73.1136 75.8331 83.556 88.6685 83.556H92.7219C94.7253 83.556 96.7082 83.3015 98.6301 82.7986L104.618 88.783C104.924 89.0891 105.334 89.2518 105.75 89.2518C105.957 89.2518 106.165 89.2119 106.363 89.1297C106.961 88.8818 107.352 88.2979 107.352 87.6502V78.3842C109.887 76.3312 111.993 73.7378 113.47 70.8405C115.149 67.55 116 63.9963 116 60.2781C116 47.4425 105.557 37 92.7221 37ZM104.786 76.324C104.385 76.6265 104.148 77.1002 104.148 77.6033V83.7853L100.229 79.8682C99.9243 79.5636 99.5153 79.3994 99.097 79.3994C98.94 79.3994 98.7814 79.4227 98.6267 79.4702C96.7204 80.0561 94.7338 80.353 92.7221 80.353H88.6687C77.5992 80.353 68.5938 71.3474 68.5938 60.2781C68.5938 49.2087 77.5993 40.2031 88.6687 40.2031H92.7221C103.791 40.2031 112.797 49.2087 112.797 60.2781C112.797 66.6412 109.877 72.4898 104.786 76.324Z" fill="#FCC501"/>
<path d="M97.9076 54.5245C97.6765 51.1716 94.9737 48.4688 91.6207 48.2377C89.7199 48.1072 87.906 48.7483 86.5176 50.0444C85.1483 51.3226 84.363 53.1295 84.363 55.0019C84.363 55.8864 85.0802 56.6034 85.9646 56.6034C86.849 56.6034 87.5662 55.8864 87.5662 55.0019C87.5662 53.9995 87.9701 53.0704 88.7033 52.3861C89.4358 51.7023 90.3932 51.3639 91.4006 51.4334C93.1668 51.5552 94.5905 52.9788 94.7122 54.7448C94.8352 56.5285 93.6649 58.1048 91.9298 58.493C90.5239 58.8075 89.5422 60.0292 89.5422 61.4637V65.3115C89.5422 66.196 90.2593 66.913 91.1437 66.913C92.0283 66.913 92.7453 66.196 92.7451 65.3115V61.5917C95.9723 60.812 98.1374 57.8591 97.9076 54.5245Z" fill="#FCC501"/>
<path d="M92.2761 70.5143C91.9782 70.2164 91.565 70.045 91.1438 70.045C90.7226 70.045 90.3094 70.2164 90.0115 70.5143C89.7136 70.8122 89.5422 71.2254 89.5422 71.6466C89.5422 72.0694 89.7138 72.4826 90.0115 72.7805C90.3094 73.0784 90.7226 73.2482 91.1438 73.2482C91.565 73.2482 91.9782 73.0784 92.2761 72.7805C92.574 72.481 92.7454 72.0694 92.7454 71.6466C92.7454 71.2254 92.5738 70.8122 92.2761 70.5143Z" fill="#FCC501"/>
<path d="M78.043 86.6484H44.25C43.3656 86.6484 42.6484 87.3655 42.6484 88.25C42.6484 89.1345 43.3656 89.8516 44.25 89.8516H78.043C78.9275 89.8516 79.6445 89.1345 79.6445 88.25C79.6445 87.3655 78.9274 86.6484 78.043 86.6484Z" fill="#FCC501"/>
<path d="M79.1751 96.0864C78.8774 95.7886 78.4642 95.6172 78.043 95.6172C77.6218 95.6172 77.2086 95.7886 76.9107 96.0864C76.6126 96.3843 76.4414 96.7975 76.4414 97.2188C76.4414 97.64 76.6128 98.0532 76.9107 98.3511C77.2086 98.6489 77.6218 98.8203 78.043 98.8203C78.4642 98.8203 78.8774 98.6489 79.1751 98.3511C79.4732 98.0532 79.6445 97.6416 79.6445 97.2188C79.6445 96.7975 79.473 96.3843 79.1751 96.0864Z" fill="#FCC501"/>
<path d="M71.7435 95.6172H44.25C43.3656 95.6172 42.6484 96.3342 42.6484 97.2188C42.6484 98.1033 43.3656 98.8203 44.25 98.8203H71.7435C72.6281 98.8203 73.3451 98.1033 73.3451 97.2188C73.3451 96.3342 72.6279 95.6172 71.7435 95.6172Z" fill="#FCC501"/>
<path d="M67.6328 77.6797H44.25C43.3656 77.6797 42.6484 78.3967 42.6484 79.2812C42.6484 80.1658 43.3656 80.8828 44.25 80.8828H67.6328C68.5174 80.8828 69.2344 80.1658 69.2344 79.2812C69.2344 78.3967 68.5172 77.6797 67.6328 77.6797Z" fill="#FCC501"/>
</svg>
