<svg width="20" height="20" viewBox="0 0 20 20" fill="none" xmlns="http://www.w3.org/2000/svg">
<g clip-path="url(#clip0)">
<path d="M5.06461 20C3.96169 20 2.92478 19.5705 2.14493 18.7906C0.535023 17.1807 0.535023 14.5612 2.14493 12.9513L11.4093 3.68691C12.5024 2.5938 14.2811 2.5938 15.3742 3.68691C16.4673 4.78003 16.4673 6.5587 15.3742 7.65182L8.55969 14.4663C8.28895 14.7371 7.84991 14.7371 7.57913 14.4663C7.30835 14.1955 7.30835 13.7565 7.57913 13.4857L14.3936 6.67121C14.946 6.11878 14.946 5.2199 14.3936 4.66747C14.126 4.39983 13.7702 4.25247 13.3917 4.25247C13.0133 4.25247 12.6574 4.39983 12.3899 4.66747L3.12549 13.9318C2.05627 15.0011 2.05627 16.7409 3.12549 17.8101C3.64348 18.328 4.33214 18.6133 5.06461 18.6133C5.79708 18.6133 6.48578 18.328 7.00373 17.8101L16.4855 8.32827C17.2538 7.55997 17.6769 6.5385 17.6769 5.45195C17.6769 4.3654 17.2538 3.34393 16.4855 2.57563C14.8995 0.989574 12.3189 0.98962 10.7328 2.57563L3.70094 9.60748C3.4302 9.87827 2.99116 9.87827 2.72038 9.60748C2.4496 9.3367 2.4496 8.89771 2.72038 8.62692L9.75228 1.59502C11.879 -0.531674 15.3394 -0.531674 17.4661 1.59502C18.4963 2.62523 19.0637 3.995 19.0637 5.45195C19.0637 6.9089 18.4963 8.27862 17.4661 9.30888L7.98429 18.7906C7.20443 19.5705 6.16753 20 5.06461 20Z" fill="#626791"/>
</g>
<defs>
<clipPath id="clip0">
<rect width="20" height="20" fill="white"/>
</clipPath>
</defs>
</svg>
