<svg width="52" height="60" viewBox="0 0 52 60" fill="none" xmlns="http://www.w3.org/2000/svg">
<path d="M-6.05235e-07 46.1538L-2.01745e-06 13.8462L26 6.4929e-06L52 13.8462L52 46.1538L26 60L-6.05235e-07 46.1538Z" fill="#FCC501"/>
<path d="M39.6964 22.4095L35.5482 18.3007C35.1432 17.8998 34.4867 17.8998 34.0818 18.3007L21.3333 30.9279L17.9182 27.5454C17.5133 27.1444 16.8568 27.1444 16.4518 27.5454L12.3036 31.6541C11.8988 32.0552 11.8988 32.7054 12.3036 33.1066L20.6001 41.324C20.7945 41.5166 21.0582 41.625 21.3333 41.625C21.6083 41.625 21.872 41.5166 22.0665 41.324L39.6964 23.8619C40.1012 23.4608 40.1012 22.8106 39.6964 22.4095ZM21.3333 39.1454L14.5074 32.3803L17.185 29.724L20.6073 33.1066C21.0123 33.5076 21.6687 33.5076 22.0737 33.1066L34.815 20.4794L37.5009 23.1357L21.3333 39.1454Z" fill="white"/>
</svg>
