<svg width="84" height="84" viewBox="0 0 84 84" fill="none" xmlns="http://www.w3.org/2000/svg">
<path d="M43.657 38.8994H30.1711C29.1539 38.8994 28.4648 39.7525 28.4648 40.6057V80.4728C28.4648 81.5064 29.318 82.1791 30.1711 82.1791H43.657C44.5102 82.1791 45.3633 81.49 45.3633 80.4728V40.6057C45.3633 39.5885 44.5102 38.8994 43.657 38.8994ZM41.9508 78.7666H31.8773V42.3283H41.9508V78.7666Z" fill="#5ECA66"/>
<path d="M17.0132 44.7236H3.52729C2.51011 44.7236 1.82104 45.5768 1.82104 46.4299V80.4893C1.82104 81.5229 2.67417 82.1955 3.52729 82.1955H17.0132C17.8664 82.1955 18.7195 81.5064 18.7195 80.4893V46.4299C18.7195 45.3963 17.8664 44.7236 17.0132 44.7236ZM15.307 78.7666H5.23355V48.1361H15.307V78.7666Z" fill="#5ECA66"/>
<path d="M81.8999 25.8891L65.0015 2.44453C64.3124 1.59141 62.9507 1.59141 62.278 2.44453L45.3796 25.8891C44.6905 26.857 44.953 28.4484 46.7413 28.4484H55.1085V80.4727C55.1085 81.5062 55.9616 82.1789 56.8148 82.1789H70.3007C71.1538 82.1789 72.0069 81.4898 72.171 80.4727V28.4648H80.5382C82.2116 28.4648 82.5726 26.7586 81.8999 25.8891ZM70.2843 25.0359C69.2671 25.0359 68.578 25.8891 68.578 26.7422V78.7664H58.5046H58.3405V26.7422C58.3405 25.7086 57.4874 25.0359 56.6343 25.0359H49.8093L63.4593 6.21797L77.1093 25.0359H70.2843Z" fill="#5ECA66"/>
</svg>
