<svg width="16" height="16" viewBox="0 0 16 16" fill="none" xmlns="http://www.w3.org/2000/svg">
<g clip-path="url(#clip0)">
<path d="M13.5182 14.9021H12.5774V13.2158C12.5774 11.5098 11.6412 9.94162 9.94112 8.80007C9.72973 8.65812 9.59834 8.35164 9.59834 7.99996C9.59834 7.64828 9.72973 7.34191 9.94123 7.19985C11.6412 6.05841 12.5774 4.49024 12.5775 2.78422V1.09797H13.5182C13.8213 1.09797 14.0671 0.852204 14.0671 0.548957C14.0671 0.245711 13.8213 0 13.5182 0H2.48206C2.17892 0 1.93311 0.245711 1.93311 0.548903C1.93311 0.85215 2.17892 1.09791 2.48206 1.09791H3.42283V2.78427C3.42283 4.4903 4.35896 6.05846 6.05911 7.19991C6.2705 7.34197 6.40189 7.64834 6.40189 8.00001C6.40189 8.35175 6.2705 8.65817 6.059 8.80023C4.35896 9.94168 3.42283 11.5098 3.42283 13.2159V14.9021H2.48206C2.17892 14.9021 1.93311 15.1479 1.93311 15.4511C1.93311 15.7544 2.17892 16.0001 2.48206 16.0001H13.5181C13.8213 16.0001 14.067 15.7544 14.067 15.4511C14.0671 15.1479 13.8213 14.9021 13.5182 14.9021ZM4.52079 13.2158C4.52079 11.4232 5.86792 10.251 6.67104 9.7118C7.18999 9.36341 7.49986 8.72346 7.49986 8.00001C7.49986 7.27662 7.18999 6.63667 6.67104 6.28833C5.86792 5.74918 4.52079 4.57692 4.52079 2.78433V1.09797H11.4794L11.4793 2.78433C11.4793 4.57692 10.1322 5.74918 9.32919 6.28823C8.81013 6.63673 8.50026 7.27667 8.50026 8.00001C8.50026 8.72352 8.81013 9.36336 9.32908 9.7118C10.1322 10.251 11.4793 11.4232 11.4794 13.2158V14.9021H4.52079V13.2158Z" fill="#FCC501"/>
</g>
<defs>
<clipPath id="clip0">
<rect width="16" height="16" fill="white"/>
</clipPath>
</defs>
</svg>
