<svg width="43" height="48" viewBox="0 0 43 48" fill="none" xmlns="http://www.w3.org/2000/svg">
<g filter="url(#filter0_d)">
<path d="M8 28.6155L8 11.3847L21.5 4.00012L35 11.3847L35 28.6155L21.5 36.0001L8 28.6155Z" fill="#00DFE2"/>
</g>
<g clip-path="url(#clip0)">
<path d="M27.9076 14.1059C27.7702 13.9687 27.626 13.8421 27.4792 13.7295L27.4512 13.708C27.4334 13.6911 27.4144 13.6751 27.3945 13.6605C26.7992 13.2222 26.1462 13 25.4535 13C24.3726 13 23.2483 13.5518 22.2021 14.5957C22.1919 14.6059 22.1821 14.6165 22.1727 14.6274L22.1267 14.6805L22.0735 14.7266C22.0626 14.7359 22.0521 14.7457 22.042 14.7558C20.9981 15.8014 20.4463 16.9257 20.4463 18.0072C20.4463 18.4694 20.5543 18.9298 20.7672 19.3756C20.7782 19.3987 20.7907 19.421 20.8046 19.4424C20.8489 19.5105 21.011 19.7573 21.1841 19.9883L18.7722 22.4002C18.5433 22.629 18.5433 23 18.7722 23.2288C18.8866 23.3432 19.0365 23.4004 19.1865 23.4004C19.3365 23.4004 19.4864 23.3432 19.6009 23.2288L21.0094 21.8202C21.0701 21.925 21.1299 22.0353 21.1796 22.1343C21.3151 22.4196 21.3838 22.7084 21.3838 22.9928C21.3838 23.7525 20.9557 24.5849 20.1455 25.4013L20.0765 25.4609C20.0551 25.4795 20.035 25.4995 20.0164 25.521L19.957 25.5897C19.1401 26.4 18.3075 26.8282 17.5484 26.8282C17.126 26.8282 16.7204 26.6924 16.3422 26.4247C16.3302 26.4138 16.3177 26.4033 16.3047 26.3934L16.2358 26.3405C16.1292 26.2589 16.0238 26.1661 15.9224 26.0649C15.425 25.5682 15.1729 25.0257 15.1729 24.4526C15.1729 23.6928 15.601 22.8603 16.4113 22.044L16.4802 21.9843C16.5015 21.9658 16.5215 21.9459 16.5399 21.9246L16.5994 21.8558C17.3738 21.0876 18.1587 20.659 18.8702 20.6161C19.1932 20.5967 19.4393 20.319 19.4198 19.996C19.4003 19.673 19.1225 19.4267 18.7997 19.4464C17.7794 19.5079 16.7556 20.0444 15.7568 21.0411C15.7467 21.0512 15.7369 21.0617 15.7276 21.0725L15.6814 21.1258L15.628 21.1721C15.6172 21.1813 15.6068 21.191 15.5968 21.2011C14.5528 22.2466 14.001 23.371 14.001 24.4526C14.001 25.3481 14.3689 26.1696 15.0944 26.8941C15.2317 27.0313 15.3759 27.1579 15.5227 27.2705L15.5507 27.292C15.5685 27.3089 15.5875 27.3249 15.6075 27.3395C16.2027 27.7778 16.8557 28 17.5485 28C18.6293 28 19.7536 27.4482 20.7998 26.4043C20.81 26.3941 20.8198 26.3835 20.8293 26.3726L20.8752 26.3195L20.9285 26.2734C20.9393 26.2641 20.9498 26.2543 20.9599 26.2442C22.0038 25.1986 22.5557 24.0743 22.5557 22.9928C22.5557 22.5306 22.4477 22.0702 22.2348 21.6244C22.2332 21.6213 22.2317 21.6181 22.2301 21.6149C22.1903 21.5353 22.0406 21.242 21.8615 20.9682L24.2298 18.5999C24.4586 18.3711 24.4586 18 24.2298 17.7712C24.0009 17.5424 23.6299 17.5424 23.4011 17.7712L22.023 19.1494C21.9462 19.0414 21.8692 18.9285 21.8089 18.8369C21.6823 18.5611 21.6181 18.2821 21.6181 18.0072C21.6181 17.2475 22.0462 16.4151 22.8565 15.5987L22.9254 15.5391C22.9469 15.5205 22.967 15.5005 22.9856 15.479L23.0449 15.4103C23.8618 14.6 24.6944 14.1719 25.4535 14.1719C25.8759 14.1719 26.2815 14.3076 26.6597 14.5753C26.6717 14.5863 26.6842 14.5967 26.6972 14.6066L26.7661 14.6595C26.8727 14.7412 26.9781 14.8339 27.0795 14.9352C27.5769 15.4318 27.829 15.9743 27.829 16.5474C27.829 17.3072 27.401 18.1397 26.5906 18.9561L26.5217 19.0158C26.5004 19.0342 26.4804 19.0542 26.462 19.0755L26.4025 19.1442C25.6493 19.8909 24.8543 20.3093 24.1024 20.3546C23.7794 20.3741 23.5333 20.6518 23.5528 20.9748C23.5716 21.2858 23.8296 21.5255 24.1371 21.5255C24.1489 21.5255 24.1609 21.5251 24.1729 21.5244C25.2197 21.4613 26.282 20.92 27.2451 19.959C27.2552 19.9488 27.265 19.9384 27.2743 19.9276L27.3205 19.8742L27.3739 19.828C27.3847 19.8187 27.3951 19.809 27.4051 19.7989C28.4491 18.7534 29.0009 17.6291 29.0009 16.5474C29.0009 15.6519 28.6331 14.8304 27.9076 14.1059Z" fill="white"/>
</g>
<defs>
<filter id="filter0_d" x="0" y="0.00012207" width="43" height="48" filterUnits="userSpaceOnUse" color-interpolation-filters="sRGB">
<feFlood flood-opacity="0" result="BackgroundImageFix"/>
<feColorMatrix in="SourceAlpha" type="matrix" values="0 0 0 0 0 0 0 0 0 0 0 0 0 0 0 0 0 0 127 0"/>
<feOffset dy="4"/>
<feGaussianBlur stdDeviation="4"/>
<feColorMatrix type="matrix" values="0 0 0 0 0 0 0 0 0 0.87451 0 0 0 0 0.886275 0 0 0 0.2 0"/>
<feBlend mode="normal" in2="BackgroundImageFix" result="effect1_dropShadow"/>
<feBlend mode="normal" in="SourceGraphic" in2="effect1_dropShadow" result="shape"/>
</filter>
<clipPath id="clip0">
<rect x="14" y="13" width="15" height="15" fill="white"/>
</clipPath>
</defs>
</svg>
