<svg width="27" height="32" viewBox="0 0 27 32" fill="none" xmlns="http://www.w3.org/2000/svg">
<path d="M-3.22792e-07 24.6154L-1.07597e-06 7.38462L13.5 1.31724e-06L27 7.38462L27 24.6154L13.5 32L-3.22792e-07 24.6154Z" fill="#00DFE2"/>
<path d="M21 15.5C21 11.3548 17.6456 8 13.5 8C9.35484 8 6 11.3544 6 15.5C6 19.6084 9.32634 23 13.5 23C17.6565 23 21 19.6273 21 15.5ZM13.5 8.87891C17.1509 8.87891 20.1211 11.8491 20.1211 15.5C20.1211 16.8355 19.7239 18.1192 18.9872 19.2065C16.0291 16.0246 10.9762 16.0189 8.01279 19.2065C7.27613 18.1192 6.87891 16.8355 6.87891 15.5C6.87891 11.8491 9.84911 8.87891 13.5 8.87891ZM8.56096 19.9092C11.191 16.9591 15.8096 16.9598 18.4389 19.9092C15.8 22.8615 11.201 22.8624 8.56096 19.9092Z" fill="white"/>
<path d="M13.5 15.9395C14.9539 15.9395 16.1367 14.7566 16.1367 13.3027V12.4238C16.1367 10.97 14.9539 9.78711 13.5 9.78711C12.0461 9.78711 10.8633 10.97 10.8633 12.4238V13.3027C10.8633 14.7566 12.0461 15.9395 13.5 15.9395ZM11.7422 12.4238C11.7422 11.4545 12.5307 10.666 13.5 10.666C14.4693 10.666 15.2578 11.4545 15.2578 12.4238V13.3027C15.2578 14.272 14.4693 15.0605 13.5 15.0605C12.5307 15.0605 11.7422 14.272 11.7422 13.3027V12.4238Z" fill="white"/>
</svg>
