<svg width="27" height="32" viewBox="0 0 27 32" fill="none" xmlns="http://www.w3.org/2000/svg">
<path d="M-3.22792e-07 24.6154L-1.07597e-06 7.38462L13.5 1.31724e-06L27 7.38462L27 24.6154L13.5 32L-3.22792e-07 24.6154Z" fill="#00DFE2"/>
<g clip-path="url(#clip0)">
<path d="M19.1688 9.79236H7.83426C6.82247 9.79236 6 10.6148 6 11.6266V19.3734C6 20.3852 6.82247 21.2076 7.83426 21.2076H19.1657C20.1775 21.2076 21 20.3852 21 19.3734V11.6297C21.0031 10.6179 20.1806 9.79236 19.1688 9.79236ZM20.1651 19.3734C20.1651 19.9227 19.7182 20.3696 19.1688 20.3696H7.83426C7.28492 20.3696 6.83799 19.9227 6.83799 19.3734V11.6297C6.83799 11.0804 7.28492 10.6335 7.83426 10.6335H19.1657C19.7151 10.6335 20.162 11.0804 20.162 11.6297V19.3734H20.1651Z" fill="white"/>
<path d="M15.4601 15.4038L19.1286 12.1139C19.2993 11.9588 19.3148 11.695 19.1596 11.5211C19.0044 11.3504 18.7406 11.3349 18.5668 11.4901L13.5079 16.0308L12.5209 15.1493C12.5178 15.1462 12.5147 15.1431 12.5147 15.14C12.493 15.1183 12.4712 15.0997 12.4464 15.081L8.43027 11.487C8.25647 11.3318 7.99265 11.3473 7.83747 11.5211C7.68229 11.695 7.69781 11.9588 7.87161 12.1139L11.5836 15.4318L7.88713 18.8923C7.71953 19.0506 7.71022 19.3144 7.86851 19.4851C7.95231 19.572 8.06404 19.6186 8.17577 19.6186C8.27819 19.6186 8.38061 19.5814 8.46131 19.5069L12.2136 15.9966L13.2316 16.906C13.3123 16.9774 13.4116 17.0115 13.511 17.0115C13.6103 17.0115 13.7127 16.9743 13.7903 16.9029L14.8362 15.9656L18.5668 19.51C18.6475 19.5876 18.7531 19.6248 18.8555 19.6248C18.9672 19.6248 19.0758 19.5814 19.1596 19.4945C19.3179 19.3269 19.3117 19.0599 19.1441 18.9017L15.4601 15.4038Z" fill="white"/>
</g>
<defs>
<clipPath id="clip0">
<rect width="15" height="15" fill="white" transform="translate(6 8)"/>
</clipPath>
</defs>
</svg>
