<svg width="27" height="32" viewBox="0 0 27 32" fill="none" xmlns="http://www.w3.org/2000/svg">
<path d="M-3.22792e-07 24.6154L-1.07597e-06 7.38462L13.5 1.31724e-06L27 7.38462L27 24.6154L13.5 32L-3.22792e-07 24.6154Z" fill="#00DFE2"/>
<g clip-path="url(#clip0)">
<path d="M20.0284 8.97165C18.7372 7.67726 16.6374 7.67726 15.3462 8.97165L6.76164 17.553C6.69452 17.6201 6.65297 17.7064 6.64019 17.7991L6.00418 22.5101C5.985 22.6443 6.03294 22.7785 6.12563 22.8712C6.20553 22.9511 6.31739 22.9991 6.42925 22.9991C6.44843 22.9991 6.4676 22.9991 6.48678 22.9959L9.32487 22.6123C9.56137 22.5804 9.72757 22.3631 9.69561 22.1265C9.66365 21.89 9.44632 21.7238 9.20981 21.7558L6.93423 22.0626L7.37848 18.7771L10.8366 22.2352C10.9165 22.3151 11.0284 22.3631 11.1402 22.3631C11.2521 22.3631 11.3639 22.3183 11.4438 22.2352L20.0284 13.6538C20.6548 13.0274 21 12.1965 21 11.3112C21 10.4258 20.6548 9.59488 20.0284 8.97165ZM15.5124 10.0263L16.9538 11.4678L9.12032 19.3012L7.6789 17.8598L15.5124 10.0263ZM11.1434 21.3211L9.73396 19.9117L17.5675 12.0782L18.9769 13.4877L11.1434 21.3211ZM19.5778 12.8708L16.1292 9.42229C16.5671 9.06114 17.1136 8.86299 17.6889 8.86299C18.3441 8.86299 18.9577 9.11867 19.4212 9.5789C19.8846 10.0391 20.1371 10.656 20.1371 11.3112C20.1371 11.8896 19.9389 12.433 19.5778 12.8708Z" fill="white"/>
</g>
<defs>
<clipPath id="clip0">
<rect width="15" height="15" fill="white" transform="translate(6 8)"/>
</clipPath>
</defs>
</svg>
