<svg width="14" height="14" viewBox="0 0 14 14" fill="none" xmlns="http://www.w3.org/2000/svg">
<path d="M10.0356 4.14293L5.38206 8.79642L3.9649 7.37931C3.76962 7.18403 3.45306 7.18403 3.25779 7.37931C3.06251 7.57459 3.06251 7.89114 3.25779 8.08642L5.02851 9.85714C5.12612 9.95481 5.25406 10.0036 5.38206 10.0036C5.51001 10.0036 5.63801 9.95475 5.73562 9.85714L10.7427 4.84998C10.938 4.6547 10.938 4.33815 10.7427 4.14287C10.5475 3.94765 10.2308 3.94765 10.0356 4.14293Z" fill="#5ECA66"/>
<path d="M7 0C3.14017 0 0 3.14017 0 7C0 10.8598 3.14017 14 7 14C10.8598 14 14 10.8598 14 7C14 3.14017 10.8598 0 7 0ZM7 13C3.69161 13 1 10.3084 1 7C1 3.69161 3.69161 1 7 1C10.3084 1 13 3.69161 13 7C13 10.3084 10.3084 13 7 13Z" fill="#5ECA66"/>
</svg>
