<svg width="52" height="52" viewBox="0 0 52 52" fill="none" xmlns="http://www.w3.org/2000/svg">
<path d="M26.0002 0C25.1589 0 24.4768 0.682094 24.4768 1.52344V11.3141C24.4768 12.1554 25.1589 12.8375 26.0002 12.8375C26.8416 12.8375 27.5237 12.1554 27.5237 11.3141V1.52344C27.5237 0.682094 26.8416 0 26.0002 0Z" fill="white"/>
<path d="M26.0002 39.1626C25.1589 39.1626 24.4768 39.8447 24.4768 40.686V50.4766C24.4768 51.3179 25.1589 52 26.0002 52C26.8416 52 27.5237 51.3179 27.5237 50.4766V40.686C27.5237 39.8446 26.8416 39.1626 26.0002 39.1626Z" fill="white"/>
<path d="M19.9763 12.5197L15.081 4.0408C14.6603 3.31209 13.7286 3.06245 13 3.48323C12.2714 3.9039 12.0217 4.83563 12.4424 5.56424L17.3377 14.0432C17.6198 14.532 18.1319 14.8051 18.6584 14.8051C18.9169 14.8051 19.1788 14.7393 19.4187 14.6008C20.1473 14.1801 20.397 13.2484 19.9763 12.5197Z" fill="white"/>
<path d="M39.5577 46.4356L34.6625 37.9568C34.2419 37.2281 33.3101 36.9785 32.5815 37.3992C31.8529 37.8199 31.6033 38.7516 32.0239 39.4803L36.9191 47.959C37.2013 48.4478 37.7134 48.7209 38.2399 48.7209C38.4984 48.7209 38.7603 48.6551 39.0002 48.5166C39.7288 48.0959 39.9784 47.1642 39.5577 46.4356Z" fill="white"/>
<path d="M14.0432 17.3379L5.56418 12.4425C4.83536 12.0216 3.90383 12.2714 3.48316 13.0001C3.06249 13.7287 3.31213 14.6604 4.04074 15.0811L12.5198 19.9766C12.7597 20.1151 13.0216 20.1809 13.2801 20.1809C13.8066 20.1809 14.3187 19.9077 14.6008 19.4189C15.0215 18.6903 14.7718 17.7586 14.0432 17.3379Z" fill="white"/>
<path d="M47.959 36.9189L39.4802 32.0237C38.7514 31.603 37.8197 31.8527 37.3992 32.5814C36.9785 33.3101 37.2281 34.2418 37.9568 34.6624L46.4356 39.5576C46.6756 39.6961 46.9374 39.7619 47.1959 39.7619C47.7224 39.7619 48.2346 39.4887 48.5166 39C48.9373 38.2712 48.6876 37.3395 47.959 36.9189Z" fill="white"/>
<path d="M11.3142 24.4768H1.52344C0.682094 24.4768 0 25.1589 0 26.0003C0 26.8416 0.682094 27.5237 1.52344 27.5237H11.3142C12.1555 27.5237 12.8376 26.8416 12.8376 26.0003C12.8376 25.1589 12.1555 24.4768 11.3142 24.4768Z" fill="white"/>
<path d="M50.4765 24.4768H40.686C39.8447 24.4768 39.1626 25.1589 39.1626 26.0003C39.1626 26.8416 39.8447 27.5237 40.686 27.5237H50.4765C51.3178 27.5237 51.9999 26.8416 51.9999 26.0003C51.9999 25.1589 51.3178 24.4768 50.4765 24.4768Z" fill="white"/>
<path d="M14.6011 32.5813C14.1804 31.8526 13.2488 31.603 12.52 32.0238L4.04098 36.9191C3.31237 37.3397 3.06273 38.2715 3.4834 39.0001C3.76554 39.4889 4.27762 39.762 4.80412 39.762C5.0626 39.762 5.32453 39.6962 5.56442 39.5577L14.0435 34.6624C14.7721 34.2417 15.0217 33.3099 14.6011 32.5813Z" fill="white"/>
<path d="M48.5164 13.0002C48.0957 12.2715 47.1641 12.022 46.4353 12.4427L37.9565 17.338C37.2279 17.7585 36.9783 18.6903 37.3989 19.4189C37.6811 19.9077 38.1931 20.1809 38.7196 20.1809C38.978 20.1809 39.2401 20.1151 39.4799 19.9766L47.9588 15.0813C48.6874 14.6606 48.937 13.7288 48.5164 13.0002Z" fill="white"/>
<path d="M19.4187 37.3993C18.6901 36.9784 17.7583 37.2282 17.3377 37.9569L12.4424 46.4358C12.0217 47.1644 12.2714 48.0962 13 48.5168C13.2399 48.6554 13.5018 48.7212 13.7603 48.7212C14.2868 48.7212 14.7989 48.448 15.081 47.9592L19.9763 39.4803C20.397 38.7517 20.1473 37.82 19.4187 37.3993Z" fill="white"/>
<path d="M39 3.48352C38.2713 3.06264 37.3395 3.31238 36.919 4.04109L32.0238 12.5198C31.603 13.2484 31.8526 14.1802 32.5813 14.6009C32.8212 14.7394 33.0832 14.8052 33.3416 14.8052C33.8681 14.8052 34.3802 14.532 34.6623 14.0433L39.5576 5.56453C39.9782 4.83592 39.7286 3.90419 39 3.48352Z" fill="white"/>
</svg>
