<svg width="18" height="18" viewBox="0 0 18 18" fill="none" xmlns="http://www.w3.org/2000/svg">
<path d="M0.597656 16.3898L4.73906 12.2484C3.7125 10.9969 3.09375 9.39375 3.09375 7.64648C3.09375 3.63867 6.3457 0.386719 10.3535 0.386719C14.3648 0.386719 17.6133 3.63867 17.6133 7.64648C17.6133 11.6543 14.3648 14.9062 10.3535 14.9062C8.60625 14.9062 7.00664 14.291 5.75508 13.2645L1.61367 17.4023C1.33242 17.6836 0.878906 17.6836 0.597656 17.4023C0.316406 17.1246 0.316406 16.6676 0.597656 16.3898ZM10.3535 13.4613C13.5633 13.4613 16.1719 10.8527 16.1719 7.64648C16.1719 4.44023 13.5633 1.82812 10.3535 1.82812C7.14727 1.82812 4.53516 4.44023 4.53516 7.64648C4.53516 10.8527 7.14727 13.4613 10.3535 13.4613Z" fill="#626791"/>
</svg>
