<svg width="24" height="24" viewBox="0 0 24 24" fill="none" xmlns="http://www.w3.org/2000/svg">
<path d="M23.0625 18.2178C23.5803 18.2178 24 17.798 24 17.2803V2.81311C24 1.89937 23.554 1.03978 22.8069 0.513605C22.0598 -0.0125201 21.1002 -0.142786 20.24 0.164949C20.2135 0.174417 20.1874 0.185105 20.1619 0.196917L12.6513 3.67457C10.9978 4.44014 9.23555 4.83375 7.41352 4.84434L3.747 4.86572C1.68066 4.8674 0 6.549 0 8.61576V11.0533C0 12.7162 1.09903 14.1479 2.625 14.6296V21.1495C2.625 21.9124 2.93869 22.6578 3.48563 23.1943C4.01587 23.7145 4.70728 23.9991 5.43806 23.9991C5.45597 23.9991 5.47402 23.9989 5.49197 23.9985C6.23189 23.9844 6.92517 23.6856 7.44413 23.1572C7.96383 22.6281 8.25 21.9283 8.25 21.1865V14.8C9.83236 14.9193 11.3966 15.3381 12.8229 16.0289L20.1384 19.5721C20.1672 19.5861 20.1968 19.5985 20.2268 19.6095C21.0882 19.9226 22.0507 19.7955 22.8012 19.2697C23.5518 18.7438 24 17.8827 24 16.9661C24 16.4483 23.5803 16.0286 23.0625 16.0286C22.5447 16.0286 22.125 16.4483 22.125 16.9661C22.125 17.2762 21.9794 17.556 21.7254 17.734C21.4824 17.9042 21.1856 17.9493 20.9053 17.8602L13.6402 14.3414C11.9606 13.5279 10.1144 13.0429 8.25 12.9205V6.69154C10.0492 6.58026 11.7912 6.13907 13.4391 5.37614L20.905 1.91915C21.1864 1.82986 21.4842 1.87542 21.7273 2.0467C21.9801 2.22468 22.125 2.50406 22.125 2.8132V17.2804C22.125 17.798 22.5447 18.2178 23.0625 18.2178ZM6.375 21.1865C6.375 21.6937 5.96283 22.1141 5.45611 22.1238C5.21367 22.1284 4.97953 22.0333 4.79869 21.8558C4.60889 21.6696 4.5 21.4122 4.5 21.1495V13.8587C4.5 13.3652 4.11736 12.9562 3.62489 12.9233C2.64366 12.8579 1.875 12.0364 1.875 11.0533V8.61576C1.875 7.58189 2.71613 6.74076 3.75 6.74076H3.75548L6.375 6.72548V21.1865Z" fill="white"/>
</svg>
