<svg width="20" height="20" viewBox="0 0 20 20" fill="none" xmlns="http://www.w3.org/2000/svg">
<path d="M7.07031 18.8281H4.72656V20H15.2734V18.8281H12.9297V16.4453H20V0H0V16.4453H7.07031V18.8281ZM11.7578 18.8281H8.24219V16.4453H11.7578V18.8281ZM18.8281 1.17188V11.7578H1.17188V1.17188H18.8281ZM1.17188 12.9297H18.8281V15.2734H1.17188V12.9297Z" fill="#00DFE2"/>
<path d="M17.6172 9.41406H16.4453V2.34375H15.2734V9.41406H14.1016V3.51562H12.9297V9.41406H11.7578V4.6875H10.5859V9.41406H9.41406V3.51562H8.24219V9.41406H7.07031V4.6875H5.89844V9.41406H4.72656V5.85938H3.55469V9.41406H2.38281V10.5859H17.6172V9.41406Z" fill="#00DFE2"/>
<path d="M9.41406 13.5156H10.5859V14.6875H9.41406V13.5156Z" fill="#00DFE2"/>
</svg>
