<svg width="20" height="20" viewBox="0 0 20 20" fill="none" xmlns="http://www.w3.org/2000/svg">
<path d="M18.6679 5.01004C17.8227 3.54477 16.6102 2.30797 15.1616 1.43336L14.8569 1.93801C15.468 2.30695 16.0261 2.73543 16.5262 3.21352L15.3872 4.35254C14.0513 3.07762 12.2651 2.27117 10.2948 2.19762V0.594336C11.6043 0.633984 12.8639 0.937891 14.0434 1.49988L14.297 0.967734C12.9495 0.325586 11.5037 0 10 0C7.32887 0 4.81766 1.04016 2.92895 2.92895C1.0402 4.8177 0 7.32891 0 10C0 12.6711 1.04016 15.1823 2.92895 17.0711C4.8177 18.9598 7.32891 20 10 20C12.6711 20 15.1823 18.9598 17.0711 17.0711C18.9598 15.1823 20 12.6711 20 10C20 8.24613 19.5394 6.52063 18.6679 5.01004ZM16.9393 3.63402C18.452 5.27355 19.3361 7.40676 19.4059 9.70523H17.8024C17.7318 7.81367 16.9855 6.09203 15.798 4.77539L16.9393 3.63402ZM9.70523 0.59457V2.19762C7.77426 2.26965 6.02055 3.04602 4.69383 4.27699L3.56098 3.1441C5.17879 1.62371 7.3327 0.66793 9.70523 0.59457ZM3.1441 3.56094L4.27703 4.69383C3.04605 6.02059 2.26969 7.77426 2.19766 9.70523H0.59457C0.66793 7.3327 1.62371 5.17875 3.1441 3.56094ZM0.59457 10.2948H2.19758C2.27109 12.2651 3.07758 14.0513 4.3525 15.3872L3.22027 16.5194C1.65563 14.8929 0.66918 12.7068 0.59457 10.2948ZM9.70523 19.4054C7.37215 19.3333 5.25039 18.4079 3.64199 16.9314L4.77543 15.7979C6.09207 16.9855 7.81371 17.7318 9.70527 17.8023V19.4054H9.70523ZM2.78102 10C2.78102 6.01941 6.01945 2.78102 10 2.78102C13.9805 2.78102 17.219 6.01945 17.219 10C17.219 13.9806 13.9805 17.219 10 17.219C6.01945 17.219 2.78102 13.9806 2.78102 10ZM10.2948 19.4054V17.8024C12.2257 17.7304 13.9795 16.954 15.3062 15.723L16.4391 16.8559C14.8212 18.3762 12.6673 19.3321 10.2948 19.4054ZM16.8559 16.439L15.723 15.3061C16.9539 13.9794 17.7303 12.2257 17.8023 10.2948H19.4054C19.3321 12.6673 18.3762 14.8212 16.8559 16.439Z" fill="#00DFE2"/>
<path d="M9.99992 5.3222C7.42059 5.3222 5.32219 7.42064 5.32219 9.99998C5.32219 11.2312 5.79684 12.3936 6.65867 13.2732L7.07973 12.8606C6.32645 12.0919 5.91164 11.076 5.91164 9.99998C5.91164 7.74572 7.74563 5.91174 9.99988 5.91174C12.2541 5.91174 14.0881 7.74572 14.0881 9.99998C14.0881 12.2542 12.2541 14.0882 9.99988 14.0882C9.15895 14.0882 8.35117 13.8348 7.66391 13.3552L7.3266 13.8387C8.11328 14.3876 9.0377 14.6777 9.99988 14.6777C12.5792 14.6777 14.6777 12.5793 14.6777 9.99994C14.6777 7.42064 12.5793 5.3222 9.99992 5.3222Z" fill="#00DFE2"/>
<path d="M10.3133 3.75671H9.68715V4.34621H10.3133V3.75671Z" fill="#00DFE2"/>
<path d="M10.3133 15.6537H9.68715V16.2432H10.3133V15.6537Z" fill="#00DFE2"/>
<path d="M4.3648 9.7052H3.73863V10.2947H4.3648V9.7052Z" fill="#00DFE2"/>
<path d="M5.93012 5.32239H5.30399V5.91188H5.93012V5.32239Z" fill="#00DFE2"/>
<path d="M15.0093 5.63525H14.3831V6.22475H15.0093V5.63525Z" fill="#00DFE2"/>
<path d="M15.0093 13.7751H14.3831V14.3646H15.0093V13.7751Z" fill="#00DFE2"/>
<path d="M5.61687 13.7751H4.99074V14.3646H5.61687V13.7751Z" fill="#00DFE2"/>
<path d="M16.2614 9.7052H15.6352V10.2947H16.2614V9.7052Z" fill="#00DFE2"/>
<path d="M7.20066 10H7.79016C7.79016 8.78147 8.78148 7.79018 9.99996 7.79018V7.20068C8.45645 7.20064 7.20066 8.45643 7.20066 10Z" fill="#00DFE2"/>
<path d="M10 12.7993C11.5436 12.7993 12.7993 11.5436 12.7993 10H12.2098C12.2098 11.2185 11.2185 12.2098 10 12.2098V12.7993H10Z" fill="#00DFE2"/>
</svg>
