<svg width="20" height="20" viewBox="0 0 20 20" fill="none" xmlns="http://www.w3.org/2000/svg">
<g clip-path="url(#clip0)">
<path d="M18.7891 15.399H20V9.53964H18.7891V6.02402H14.9303L10 1.09375L8.24219 2.85156L6.48438 1.09375L1.55411 6.02402H0V18.9146H18.7891V15.399ZM18.8281 14.2271H15.8594C14.8901 14.2271 14.1016 13.4386 14.1016 12.4693C14.1016 11.5001 14.8901 10.7115 15.8594 10.7115H18.8281V14.2271ZM17.6172 9.53964H16.4453V7.19589H17.6172V9.53964ZM13.2729 6.02402H6.72714L10 2.75101L13.2729 6.02402ZM6.48438 2.75101L7.41348 3.68027L5.06973 6.02402H3.21152L6.48438 2.75101ZM1.17188 7.19589H15.2734V9.59854C13.9378 9.87076 12.9297 11.0544 12.9297 12.4693C12.9297 13.8841 13.9378 15.0677 15.2734 15.34V17.7428H1.17188V7.19589ZM16.4453 17.7428V15.399H17.6172V17.7428H16.4453Z" fill="#00DFE2"/>
<path d="M15.2734 11.8834H16.4453V13.0553H15.2734V11.8834Z" fill="#00DFE2"/>
</g>
<defs>
<clipPath id="clip0">
<rect width="20" height="20" fill="white"/>
</clipPath>
</defs>
</svg>
