<svg width="20" height="20" viewBox="0 0 20 20" fill="none" xmlns="http://www.w3.org/2000/svg">
<path d="M17 1.895V0H16.3333V1.69333C16.2229 1.67646 16.1117 1.66771 16 1.66667H15.3333V0H14.6667V1.66667H13.6667V0H13V1.66667H12V0H11.3333V1.66667H10.3333V0H9.66667V1.66667H8.66667V0H8V1.66667H7V0H6.33333V1.66667H5.33333V0H4.66667V1.66667H4C3.88833 1.66771 3.77708 1.67646 3.66667 1.69333V0H3V1.895C2.51615 2.12615 2.12615 2.51615 1.895 3H0V3.66667H1.69333C1.67646 3.77708 1.66771 3.88833 1.66667 4V4.66667H0V5.33333H1.66667V6.33333H0V7H1.66667V8H0V8.66667H1.66667V9.66667H0V10.3333H1.66667V11.3333H0V12H1.66667V13H0V13.6667H1.66667V14.6667H0V15.3333H1.66667V16C1.66771 16.1117 1.67646 16.2229 1.69333 16.3333H0V17H1.895C2.12615 17.4839 2.51615 17.8739 3 18.105V20H3.66667V18.3067C3.77708 18.3235 3.88833 18.3323 4 18.3333H4.66667V20H5.33333V18.3333H6.33333V20H7V18.3333H8V20H8.66667V18.3333H9.66667V20H10.3333V18.3333H11.3333V20H12V18.3333H13V20H13.6667V18.3333H14.6667V20H15.3333V18.3333H16C16.1117 18.3323 16.2229 18.3235 16.3333 18.3067V20H17V18.105C17.4839 17.8739 17.8739 17.4839 18.105 17H20V16.3333H18.3067C18.3235 16.2229 18.3323 16.1117 18.3333 16V15.3333H20V14.6667H18.3333V13.6667H20V13H18.3333V12H20V11.3333H18.3333V10.3333H20V9.66667H18.3333V8.66667H20V8H18.3333V7H20V6.33333H18.3333V5.33333H20V4.66667H18.3333V4C18.3323 3.88833 18.3235 3.77708 18.3067 3.66667H20V3H18.105C17.8739 2.51615 17.4839 2.12615 17 1.895ZM17.6667 16C17.6655 16.92 16.92 17.6655 16 17.6667H4C3.08 17.6655 2.33448 16.92 2.33333 16V4C2.33448 3.08 3.08 2.33448 4 2.33333H16C16.92 2.33448 17.6655 3.08 17.6667 4V16Z" fill="#00DFE2"/>
<path d="M15.6667 3.33331H4.33333C3.78114 3.33331 3.33333 3.78113 3.33333 4.33331V15.6666C3.33333 16.2188 3.78114 16.6666 4.33333 16.6666H15.6667C16.2189 16.6666 16.6667 16.2188 16.6667 15.6666V4.33331C16.6667 3.78113 16.2189 3.33331 15.6667 3.33331ZM16 15.6666C16 15.8508 15.8508 16 15.6667 16H4.33333C4.14917 16 4 15.8508 4 15.6666V4.33331C4 4.14915 4.14917 3.99998 4.33333 3.99998H15.6667C15.8508 3.99998 16 4.14915 16 4.33331V15.6666Z" fill="#00DFE2"/>
<path d="M14.6667 4.66669H15.3333V5.33334H14.6667V4.66669Z" fill="#00DFE2"/>
<path d="M4.66667 14.6667H5.33332V15.3334H4.66667V14.6667Z" fill="#00DFE2"/>
<path d="M4.66667 5.33335V6.33335H5.33333V5.33335H6.33333V4.66669H5.33333C4.96511 4.66669 4.66667 4.96512 4.66667 5.33335Z" fill="#00DFE2"/>
<path d="M14.6667 14.6667H13.6667V15.3334H15.3333V13.6667H14.6667V14.6667Z" fill="#00DFE2"/>
</svg>
