<svg width="20" height="20" viewBox="0 0 20 20" fill="none" xmlns="http://www.w3.org/2000/svg">
<path d="M16.7875 1.34772H3.19302C1.77167 1.34772 0.615242 2.50391 0.615242 3.92549V12.245C0.615242 13.6634 1.76663 14.8177 3.18387 14.8228V18.5981L8.6094 14.8228H16.7875C18.2088 14.8228 19.3652 13.6663 19.3652 12.245V3.92549C19.3652 2.50391 18.2088 1.34772 16.7875 1.34772ZM18.2666 12.245C18.2666 13.0605 17.6031 13.7241 16.7875 13.7241H8.2647L4.2825 16.4952V13.7241H3.19302C2.3774 13.7241 1.71387 13.0605 1.71387 12.245V3.92549C1.71387 3.10976 2.3774 2.44635 3.19302 2.44635H16.7875C17.6031 2.44635 18.2666 3.10976 18.2666 3.92549V12.245Z" fill="#00DFE2"/>
<path d="M5.63358 5.22964H14.3469V6.32827H5.63358V5.22964Z" fill="#00DFE2"/>
<path d="M5.63358 7.57339H14.3469V8.67202H5.63358V7.57339Z" fill="#00DFE2"/>
<path d="M5.63358 9.91714H14.3469V11.0158H5.63358V9.91714Z" fill="#00DFE2"/>
</svg>
