<svg width="20" height="20" viewBox="0 0 20 20" fill="none" xmlns="http://www.w3.org/2000/svg">
<g clip-path="url(#clip0)">
<path d="M16.0439 1.50987H13.6015L14.2033 0.908136C14.4112 0.700182 14.4112 0.363918 14.2033 0.155965C13.9953 -0.0519883 13.6591 -0.0519883 13.4511 0.155965L11.9468 1.66473C11.845 1.7665 11.7919 1.89923 11.7919 2.04082C11.7919 2.1824 11.8494 2.31514 11.9468 2.4169L13.4555 3.92567C13.5573 4.02743 13.6945 4.08053 13.8316 4.08053C13.9688 4.08053 14.1015 4.02743 14.2077 3.92567C14.4157 3.71771 14.4157 3.38145 14.2077 3.1735L13.606 2.57176H16.0483C17.6367 2.57176 18.9243 3.86372 18.9243 5.44771V7.23079C18.9243 7.52281 19.1632 7.76174 19.4552 7.76174C19.7472 7.76174 19.9861 7.52281 19.9861 7.23079V5.44771C19.9861 3.27526 18.2163 1.50987 16.0439 1.50987Z" fill="#00DFE2"/>
<path d="M19.4154 10.2174H10.6946C10.4026 10.2174 10.1637 10.4563 10.1637 10.7483V19.4691C10.1637 19.7611 10.4026 20 10.6946 20H19.4154C19.7074 20 19.9463 19.7611 19.9463 19.4691V10.7483C19.9463 10.4519 19.7074 10.2174 19.4154 10.2174ZM18.8844 18.9381H11.2256V11.2793H18.8844V18.9381Z" fill="#00DFE2"/>
<path d="M6.54442 16.0755C6.33647 15.8675 6.0002 15.8675 5.79225 16.0755C5.5843 16.2834 5.5843 16.6197 5.79225 16.8276L6.39399 17.4294H3.95164C2.36324 17.4294 1.0757 16.1374 1.0757 14.5534V12.7703C1.0757 12.4783 0.836773 12.2394 0.544753 12.2394C0.252734 12.2394 0.0138092 12.4783 0.0138092 12.7703V14.5534C0.0138092 16.7259 1.7792 18.4912 3.95164 18.4912H6.39399L5.79225 19.093C5.5843 19.3009 5.5843 19.6372 5.79225 19.8452C5.89402 19.9469 6.03118 20 6.16834 20C6.3055 20 6.43823 19.9469 6.54442 19.8452L8.05319 18.3364C8.26114 18.1284 8.26114 17.7922 8.05319 17.5842L6.54442 16.0755Z" fill="#00DFE2"/>
<path d="M0.584579 1.06299C0.726164 1.06299 0.863324 1.00547 0.960664 0.908128C1.058 0.810788 1.11552 0.673628 1.11552 0.532043C1.11552 0.394882 1.058 0.253297 0.960664 0.155957C0.863324 0.0586176 0.726164 0.00109863 0.584579 0.00109863C0.442994 0.00109863 0.305833 0.0586176 0.208493 0.155957C0.111154 0.253297 0.0536346 0.390458 0.0536346 0.532043C0.0536346 0.673628 0.111154 0.810788 0.208493 0.908128C0.310258 1.00547 0.442994 1.06299 0.584579 1.06299Z" fill="#00DFE2"/>
<path d="M4.94717 1.06299C5.23919 1.06299 5.47812 0.824062 5.47812 0.532043C5.47812 0.240023 5.23919 0.00109863 4.94717 0.00109863C4.65515 0.00109863 4.41622 0.240023 4.41622 0.532043C4.41622 0.824062 4.65072 1.06299 4.94717 1.06299Z" fill="#00DFE2"/>
<path d="M2.76587 1.06299C3.05789 1.06299 3.29682 0.824062 3.29682 0.532043C3.29682 0.240023 3.05789 0.00109863 2.76587 0.00109863C2.47385 0.00109863 2.23493 0.240023 2.23493 0.532043C2.23493 0.824062 2.47385 1.06299 2.76587 1.06299Z" fill="#00DFE2"/>
<path d="M7.12403 1.06299C7.41605 1.06299 7.65498 0.824062 7.65498 0.532043C7.65498 0.240023 7.41605 0.00109863 7.12403 0.00109863C6.83201 0.00109863 6.59309 0.240023 6.59309 0.532043C6.59309 0.824062 6.83201 1.06299 7.12403 1.06299Z" fill="#00DFE2"/>
<path d="M9.30533 0.00109863C9.16817 0.00109863 9.02659 0.0586176 8.92925 0.155957C8.83191 0.253297 8.77439 0.390458 8.77439 0.532043C8.77439 0.673628 8.83191 0.810788 8.92925 0.908128C9.02659 1.00547 9.16375 1.06299 9.30533 1.06299C9.44692 1.06299 9.58408 1.00547 9.68142 0.908128C9.77876 0.810788 9.83628 0.673628 9.83628 0.532043C9.83628 0.390458 9.77876 0.253297 9.68142 0.155957C9.58408 0.0586176 9.44692 0.00109863 9.30533 0.00109863Z" fill="#00DFE2"/>
<path d="M9.30533 6.54501C9.01331 6.54501 8.77439 6.78394 8.77439 7.07596C8.77439 7.36798 9.01331 7.6069 9.30533 7.6069C9.59735 7.6069 9.83628 7.36798 9.83628 7.07596C9.83628 6.77951 9.60178 6.54501 9.30533 6.54501Z" fill="#00DFE2"/>
<path d="M9.30533 4.36371C9.01331 4.36371 8.77439 4.60263 8.77439 4.89465C8.77439 5.18667 9.01331 5.4256 9.30533 5.4256C9.59735 5.4256 9.83628 5.18667 9.83628 4.89465C9.83628 4.59821 9.60178 4.36371 9.30533 4.36371Z" fill="#00DFE2"/>
<path d="M9.30533 2.1824C9.01331 2.1824 8.77439 2.42133 8.77439 2.71335C8.77439 3.00536 9.01331 3.24429 9.30533 3.24429C9.59735 3.24429 9.83628 3.00536 9.83628 2.71335C9.83628 2.42133 9.60178 2.1824 9.30533 2.1824Z" fill="#00DFE2"/>
<path d="M9.30533 8.72186C9.16375 8.72186 9.02659 8.77938 8.92925 8.87672C8.83191 8.97406 8.77439 9.11122 8.77439 9.25281C8.77439 9.38997 8.83191 9.53155 8.92925 9.62889C9.02659 9.72623 9.16375 9.78375 9.30533 9.78375C9.44692 9.78375 9.58408 9.72623 9.68142 9.62889C9.77876 9.53155 9.83628 9.39439 9.83628 9.25281C9.83628 9.11122 9.77876 8.97406 9.68142 8.87672C9.58412 8.77938 9.44692 8.72186 9.30533 8.72186Z" fill="#00DFE2"/>
<path d="M7.12403 9.78375C7.41605 9.78375 7.65498 9.54483 7.65498 9.25281C7.65498 8.96079 7.41605 8.72186 7.12403 8.72186C6.83201 8.72186 6.59309 8.96079 6.59309 9.25281C6.59309 9.54925 6.83201 9.78375 7.12403 9.78375Z" fill="#00DFE2"/>
<path d="M4.94717 9.78375C5.23919 9.78375 5.47812 9.54483 5.47812 9.25281C5.47812 8.96079 5.23919 8.72186 4.94717 8.72186C4.65515 8.72186 4.41622 8.96079 4.41622 9.25281C4.41622 9.54925 4.65072 9.78375 4.94717 9.78375Z" fill="#00DFE2"/>
<path d="M2.76587 9.78375C3.05789 9.78375 3.29682 9.54483 3.29682 9.25281C3.29682 8.96079 3.05789 8.72186 2.76587 8.72186C2.47385 8.72186 2.23493 8.96079 2.23493 9.25281C2.23493 9.54925 2.47385 9.78375 2.76587 9.78375Z" fill="#00DFE2"/>
<path d="M0.584579 9.78375C0.726164 9.78375 0.863324 9.72623 0.960664 9.62889C1.058 9.53155 1.11552 9.39439 1.11552 9.25281C1.11552 9.11122 1.058 8.97406 0.960664 8.87672C0.863324 8.77938 0.726164 8.72186 0.584579 8.72186C0.442994 8.72186 0.305833 8.77938 0.208493 8.87672C0.111154 8.97406 0.0536346 9.11122 0.0536346 9.25281C0.0536346 9.38997 0.111154 9.53155 0.208493 9.62889C0.310258 9.72623 0.442994 9.78375 0.584579 9.78375Z" fill="#00DFE2"/>
<path d="M0.584579 7.6069C0.876598 7.6069 1.11552 7.36798 1.11552 7.07596C1.11552 6.78394 0.876598 6.54501 0.584579 6.54501C0.29256 6.54501 0.0536346 6.78394 0.0536346 7.07596C0.0536346 7.36798 0.29256 7.6069 0.584579 7.6069Z" fill="#00DFE2"/>
<path d="M0.584579 5.4256C0.876598 5.4256 1.11552 5.18667 1.11552 4.89465C1.11552 4.60263 0.876598 4.36371 0.584579 4.36371C0.29256 4.36371 0.0536346 4.60263 0.0536346 4.89465C0.0536346 5.18667 0.29256 5.4256 0.584579 5.4256Z" fill="#00DFE2"/>
<path d="M0.584579 3.24429C0.876598 3.24429 1.11552 3.00536 1.11552 2.71335C1.11552 2.42133 0.876598 2.1824 0.584579 2.1824C0.29256 2.1824 0.0536346 2.42133 0.0536346 2.71335C0.0536346 3.00536 0.29256 3.24429 0.584579 3.24429Z" fill="#00DFE2"/>
</g>
<defs>
<clipPath id="clip0">
<rect width="20" height="20" fill="white"/>
</clipPath>
</defs>
</svg>
