<svg width="20" height="20" viewBox="0 0 20 20" fill="none" xmlns="http://www.w3.org/2000/svg">
<path d="M18.7891 0H15.2734V18.8281H14.1016V3.55469H10.5859V18.8281H9.41406V7.07031H5.89844V18.8281H4.72656V10.625H1.21094V18.8281H0V20H20V18.8281H18.7891V0ZM17.6172 1.17188V16.4844H16.4453V1.17188H17.6172ZM16.4453 17.6562H17.6172V18.8281H16.4453V17.6562ZM12.9297 4.72656V15.3125H11.7578V4.72656H12.9297ZM11.7578 16.4844H12.9297V18.8281H11.7578V16.4844ZM8.24219 8.24219V14.1406H7.07031V8.24219H8.24219ZM7.07031 15.3125H8.24219V18.8281H7.07031V15.3125ZM3.55469 11.7969V12.9688H2.38281V11.7969H3.55469ZM2.38281 14.1406H3.55469V18.8281H2.38281V14.1406Z" fill="#00DFE2"/>
</svg>
