<svg width="40" height="46" viewBox="0 0 40 46" fill="none" xmlns="http://www.w3.org/2000/svg">
<path d="M6.05711e-05 35.3849L5.94884e-05 10.6156L20.0001 0.000243266L40.0001 10.6156L40.0001 35.3849L20.0001 46.0002L6.05711e-05 35.3849Z" fill="#F26822"/>
<g clip-path="url(#clip0)">
<path d="M20.0001 13C14.4789 13 9.99426 17.4837 10.0013 22.9998C10.0027 24.1034 10.1787 25.1649 10.509 26.1579H13.5008V17.7456L20.0001 24.2448L26.499 17.7456V26.1581H29.4915C29.8223 25.1651 29.9974 24.1036 29.9993 22.9999C30.0088 17.4781 25.5218 13.0013 20.0001 13.0013V13Z" fill="white"/>
<path d="M18.5053 25.7388L15.669 22.9024V28.1958H13.5006L11.4543 28.1961C13.2095 31.0757 16.3815 33.0019 19.9999 33.0019C23.6183 33.0019 26.7905 31.0752 28.546 28.1957H24.3302V22.9024L21.4938 25.7388L19.9996 27.2329L18.5054 25.7388H18.5053Z" fill="white"/>
</g>
<defs>
<clipPath id="clip0">
<rect x="10" y="13" width="20" height="20.0021" fill="white"/>
</clipPath>
</defs>
</svg>
