<svg width="156" height="155" viewBox="0 0 156 155" fill="none" xmlns="http://www.w3.org/2000/svg">
<path d="M155.382 77.5213C155.382 120.248 120.745 154.885 78.0183 154.885C35.2914 154.885 0.654297 120.248 0.654297 77.5213C0.654297 64.8655 3.69318 52.9195 9.08105 42.3731C21.8831 17.3141 47.9471 0.157211 78.0183 0.157211C108.09 0.157211 134.154 17.3141 146.956 42.3731C152.344 52.9195 155.382 64.8655 155.382 77.5213Z" fill="white"/>
<path d="M103.415 74.9554V61.6591C103.415 60.2252 102.249 59.0588 100.816 59.0588H92.0686V40.2404C92.0688 38.4536 90.6157 37 88.8294 37H54.6308C54.2093 37 53.7954 37.1717 53.4977 37.4699L39.952 51.0244C39.6538 51.3223 39.4824 51.7358 39.4824 52.1573V105.105C39.4824 106.892 40.9355 108.345 42.7217 108.345H73.8798C78.0053 114.75 85.1966 119 93.3617 119C106.13 119 116.518 108.604 116.518 95.8254C116.518 86.652 111.162 78.7069 103.415 74.9554ZM100.212 62.2618V73.6905C98.0463 73.018 95.7455 72.6554 93.3615 72.6554C92.9277 72.6554 92.4967 72.6686 92.0686 72.6921V62.2618H100.212ZM53.0292 42.4698V50.514C53.0292 50.525 53.0097 50.5467 52.9918 50.5467L44.9518 50.5527L53.0292 42.4698ZM42.7217 105.142C42.7054 105.142 42.6855 105.121 42.6855 105.105V53.7576L52.993 53.7498C54.7793 53.7498 56.2324 52.2983 56.2324 50.514V40.2031H88.8293C88.8475 40.2031 88.8655 40.2215 88.8655 40.2403V73.0951C87.3219 73.4002 85.8326 73.8582 84.4149 74.4545V61.9587C84.4149 61.0744 83.6979 60.3572 82.8133 60.3572H72.9639C72.0793 60.3572 71.3623 61.0744 71.3623 61.9587C71.3623 62.8431 72.0793 63.5603 72.9639 63.5603H81.2118V76.1079C79.1647 77.3749 77.3286 78.9516 75.7695 80.7726H50.3391V63.5603H58.587C59.4715 63.5603 60.1885 62.8431 60.1885 61.9587C60.1885 61.0744 59.4715 60.3572 58.587 60.3572H48.7375C47.853 60.3572 47.136 61.0744 47.136 61.9587V82.3742C47.136 83.2586 47.853 83.9758 48.7375 83.9758H73.4668C71.3942 87.4452 70.201 91.4983 70.201 95.8254C70.201 99.1377 70.9006 102.289 72.1573 105.142H42.7217ZM93.3617 115.797C82.3572 115.797 73.4043 106.838 73.4043 95.8254C73.4043 84.8156 82.3572 75.8586 93.3617 75.8586C104.364 75.8586 113.314 84.8156 113.314 95.8254C113.314 106.838 104.364 115.797 93.3617 115.797Z" fill="#FCC501"/>
<path d="M61.9849 48.0296H83.1173C84.0019 48.0296 84.7189 47.3125 84.7189 46.4281C84.7189 45.5437 84.0019 44.8265 83.1173 44.8265H61.9849C61.1003 44.8265 60.3833 45.5437 60.3833 46.4281C60.3833 47.3125 61.1003 48.0296 61.9849 48.0296Z" fill="#FCC501"/>
<path d="M61.9849 55.7927H83.1173C84.0019 55.7927 84.7189 55.0756 84.7189 54.1912C84.7189 53.3068 84.0019 52.5896 83.1173 52.5896H61.9849C61.1003 52.5896 60.3833 53.3068 60.3833 54.1912C60.3833 55.0756 61.1003 55.7927 61.9849 55.7927Z" fill="#FCC501"/>
<path d="M64.4988 88.177H48.4385C47.5539 88.177 46.8369 88.8942 46.8369 89.7785C46.8369 90.6629 47.5539 91.3801 48.4385 91.3801H64.4988C65.3833 91.3801 66.1004 90.6629 66.1004 89.7785C66.1004 88.8942 65.3833 88.177 64.4988 88.177Z" fill="#FCC501"/>
<path d="M64.4983 95.9444H57.8701C56.9856 95.9444 56.2686 96.6616 56.2686 97.5459C56.2686 98.4303 56.9856 99.1475 57.8701 99.1475H64.4983C65.3829 99.1475 66.0999 98.4303 66.0999 97.5459C66.0999 96.6616 65.3829 95.9444 64.4983 95.9444Z" fill="#FCC501"/>
<path d="M52.0905 95.9444H48.4385C47.5539 95.9444 46.8369 96.6616 46.8369 97.5459C46.8369 98.4303 47.5539 99.1475 48.4385 99.1475H52.0905C52.9751 99.1475 53.6921 98.4303 53.6921 97.5459C53.6921 96.6616 52.9751 95.9444 52.0905 95.9444Z" fill="#FCC501"/>
<path d="M93.3617 94.1921C90.2396 94.1921 87.6997 96.7333 87.6997 99.8568V106.771C87.6997 109.892 90.2396 112.431 93.3617 112.431C96.4812 112.431 99.0192 109.892 99.0192 106.771V99.8568C99.0191 96.7333 96.4812 94.1921 93.3617 94.1921ZM95.8159 106.771C95.8159 108.126 94.7149 109.228 93.3615 109.228C92.0057 109.228 90.9027 108.126 90.9027 106.771V99.8568C90.9027 98.4993 92.0057 97.3952 93.3615 97.3952C94.7149 97.3952 95.8159 98.4995 95.8159 99.8568V106.771Z" fill="#FCC501"/>
<path d="M93.3617 79.2199C90.2396 79.2199 87.6997 81.759 87.6997 84.88C87.6997 88.001 90.2396 90.5402 93.3617 90.5402C96.4812 90.5402 99.0192 88.0011 99.0192 84.88C99.0192 81.7589 96.4812 79.2199 93.3617 79.2199ZM93.3617 87.3371C92.0058 87.3371 90.9028 86.2349 90.9028 84.88C90.9028 83.5252 92.0058 82.423 93.3617 82.423C94.715 82.423 95.8161 83.5252 95.8161 84.88C95.8159 86.2349 94.715 87.3371 93.3617 87.3371Z" fill="#FCC501"/>
<path d="M65.7776 60.3572H65.7685C64.8839 60.3572 64.1714 61.0744 64.1714 61.9588C64.1714 62.8431 64.8929 63.5603 65.7774 63.5603C66.662 63.5603 67.379 62.8431 67.379 61.9588C67.379 61.0744 66.6621 60.3572 65.7776 60.3572Z" fill="#FCC501"/>
</svg>
