<svg width="70" height="76" viewBox="0 0 70 76" fill="none" xmlns="http://www.w3.org/2000/svg">
<g filter="url(#filter0_d)">
<path d="M15 42.3846L15 17.6154L35 7L55 17.6154L55 42.3846L35 53L15 42.3846Z" fill="url(#paint0_linear)"/>
</g>
<path d="M24 39.3977L44.3977 19L46 20.6023L25.6023 41L24 39.3977Z" fill="white"/>
<path d="M27.6342 26.0336C29.5091 26.0336 31.0338 24.5089 31.0338 22.634C31.0338 20.7591 29.5091 19.2344 27.6342 19.2344C25.7593 19.2344 24.2346 20.7591 24.2346 22.634C24.2346 24.5089 25.7593 26.0336 27.6342 26.0336Z" fill="white"/>
<path d="M42.3658 33.9658C40.4909 33.9658 38.9662 35.4905 38.9662 37.3654C38.9662 39.2403 40.4909 40.765 42.3658 40.765C44.2407 40.765 45.7654 39.2403 45.7654 37.3654C45.7654 35.4905 44.2407 33.9658 42.3658 33.9658Z" fill="white"/>
<defs>
<filter id="filter0_d" x="0" y="0" width="70" height="76" filterUnits="userSpaceOnUse" color-interpolation-filters="sRGB">
<feFlood flood-opacity="0" result="BackgroundImageFix"/>
<feColorMatrix in="SourceAlpha" type="matrix" values="0 0 0 0 0 0 0 0 0 0 0 0 0 0 0 0 0 0 127 0"/>
<feOffset dy="8"/>
<feGaussianBlur stdDeviation="7.5"/>
<feColorMatrix type="matrix" values="0 0 0 0 0.119236 0 0 0 0 0.838353 0 0 0 0 0.841667 0 0 0 0.22 0"/>
<feBlend mode="normal" in2="BackgroundImageFix" result="effect1_dropShadow"/>
<feBlend mode="normal" in="SourceGraphic" in2="effect1_dropShadow" result="shape"/>
</filter>
<linearGradient id="paint0_linear" x1="55" y1="39.0212" x2="15" y2="39.0211" gradientUnits="userSpaceOnUse">
<stop stop-color="#00DFE2"/>
<stop offset="1" stop-color="#47F0E9"/>
</linearGradient>
</defs>
</svg>
