<svg width="413" height="217" viewBox="0 0 413 217" fill="none" xmlns="http://www.w3.org/2000/svg">
<path d="M391.973 171.745C405.422 153.193 412.531 131.24 412.531 108.266C412.531 90.1012 407.938 72.1263 399.252 56.2812L393.454 59.4603C401.609 74.3323 405.92 91.2093 405.92 108.266C405.92 129.84 399.246 150.447 386.621 167.865L391.973 171.745Z" fill="#9292F7"/>
<path d="M365.206 152.349C365.553 151.873 365.893 151.393 366.225 150.911L360.78 147.162C360.478 147.597 360.174 148.031 359.861 148.462L365.206 152.349ZM368.723 147.044C369.517 145.727 370.27 144.388 370.983 143.03L365.125 139.963C364.477 141.203 363.788 142.427 363.062 143.63L368.723 147.044ZM372.995 138.878C373.622 137.473 374.205 136.052 374.743 134.612L368.549 132.297C368.059 133.61 367.527 134.905 366.956 136.188L372.995 138.878ZM376.222 130.246C376.671 128.776 377.075 127.291 377.429 125.793L370.998 124.265C370.673 125.627 370.305 126.979 369.898 128.318L376.222 130.246ZM378.36 121.273C378.621 119.764 378.837 118.245 379.008 116.715L372.435 115.981C372.281 117.38 372.082 118.768 371.843 120.148L378.36 121.273ZM379.377 112.122C379.441 110.844 379.474 109.557 379.474 108.266L379.469 107.517L372.858 107.577L372.863 108.266C372.863 109.445 372.835 110.618 372.774 111.785L379.377 112.122ZM372.687 103.38L379.282 102.907C379.172 101.372 379.017 99.8437 378.815 98.3227L372.258 99.1947C372.444 100.584 372.587 101.979 372.687 103.38ZM371.577 95.0397L378.068 93.7807C377.775 92.2697 377.433 90.7677 377.044 89.2807L370.648 90.9467C370.998 92.2997 371.31 93.6667 371.577 95.0397ZM369.466 86.9087L375.75 84.8557C375.272 83.3967 374.752 81.9497 374.186 80.5217L368.04 82.9537C368.553 84.2567 369.031 85.5767 369.466 86.9087ZM366.375 79.1027L372.354 76.2837C371.7 74.8927 371.004 73.5247 370.266 72.1777L364.467 75.3517C365.141 76.5817 365.776 77.8327 366.375 79.1027Z" fill="#47F0E9"/>
<path d="M304.266 216.531C335.957 216.531 365.954 202.709 386.567 178.609L356.419 152.825C343.356 168.102 324.347 176.861 304.267 176.861C281.12 176.861 259.684 165.299 246.93 145.934L213.798 167.755C233.915 198.297 267.734 216.531 304.266 216.531Z" fill="#EBEBFC"/>
<path d="M361.842 70.96C349.114 51.366 327.589 39.669 304.266 39.669C290.34 39.669 277.369 43.8407 266.539 51H212.417C231.567 20.3965 265.58 0 304.266 0C341.073 0 375.033 18.449 395.107 49.348L361.842 70.96Z" fill="#EBEBFC"/>
<g clip-path="url(#clip0)">
<path d="M326.005 110.68L317.354 99.6673C320.426 96.518 322.281 92.381 322.589 87.9924H335.985V89.4584C332.884 90.0956 330.657 92.8233 330.654 95.9889C330.655 99.6691 333.639 102.652 337.319 102.651C340.999 102.651 343.982 99.6665 343.981 95.9862C343.981 92.8201 341.752 90.0916 338.65 89.4584V86.6596C338.65 85.9236 338.054 85.3269 337.317 85.3269H322.589C322.329 81.6343 320.969 78.1042 318.684 75.1913L320.544 73.3321H336.23C336.966 75.4141 339.25 76.5051 341.332 75.7689C343.414 75.0329 344.505 72.7484 343.769 70.6666C343.033 68.5849 340.749 67.4937 338.667 68.2297C337.528 68.6322 336.633 69.528 336.23 70.6665H319.992C319.638 70.6665 319.3 70.8071 319.05 71.057L316.897 73.2094C309.491 66.0765 297.704 66.2982 290.571 73.7046C287.54 76.8526 285.712 80.9668 285.408 85.3267H274.213L269.856 75.5272C271.804 74.5021 272.552 72.0925 271.527 70.1449C270.502 68.1972 268.092 67.4494 266.145 68.4743C264.197 69.4992 263.449 71.9088 264.474 73.8564C265.013 74.88 265.97 75.6191 267.096 75.8815L272.127 87.2019C272.342 87.6829 272.819 87.9926 273.345 87.9922H285.408C285.715 92.3303 287.534 96.4232 290.549 99.5578L279.298 110.809C272.023 109.719 265.241 114.733 264.151 122.008C263.061 129.283 268.075 136.064 275.35 137.154C275.57 137.187 275.79 137.214 276.011 137.236V143.968C276.011 144.704 276.608 145.3 277.344 145.3H289.584C290.32 147.382 292.604 148.473 294.686 147.737C296.768 147.001 297.859 144.717 297.123 142.635C296.387 140.553 294.102 139.462 292.02 140.198C290.882 140.601 289.986 141.496 289.584 142.635H278.676V137.236C285.996 136.506 291.339 129.981 290.609 122.661C290.115 117.708 286.901 113.443 282.275 111.605L292.537 101.342C299.22 106.604 308.627 106.642 315.352 101.434L322.747 110.846C312.537 112.27 305.415 121.701 306.839 131.911C308.263 142.121 317.694 149.243 327.904 147.819C338.113 146.394 345.236 136.963 343.811 126.754C342.561 117.786 335.054 111.009 326.005 110.68ZM341.316 95.9889C341.316 98.1971 339.526 99.9872 337.317 99.9872C335.109 99.9872 333.319 98.1971 333.319 95.9889C333.319 93.7807 335.109 91.9907 337.317 91.9907C339.526 91.9907 341.316 93.7807 341.316 95.9889ZM339.983 70.6666C340.719 70.6666 341.316 71.2634 341.316 71.9994C341.316 72.7354 340.719 73.3321 339.983 73.3321C339.247 73.3321 338.65 72.7354 338.65 71.9994C338.65 71.2634 339.247 70.6666 339.983 70.6666ZM268.014 73.3321C267.278 73.3321 266.682 72.7354 266.682 71.9994C266.682 71.2634 267.278 70.6666 268.014 70.6666C268.751 70.6666 269.347 71.2634 269.347 71.9994C269.347 72.7354 268.751 73.3321 268.014 73.3321ZM293.337 142.635C294.073 142.635 294.669 143.232 294.669 143.968C294.669 144.704 294.073 145.301 293.337 145.301C292.601 145.301 292.004 144.704 292.004 143.968C292.004 143.232 292.601 142.635 293.337 142.635ZM282.675 133.197C279.381 135.12 275.306 135.12 272.013 133.197V130.64C272.013 127.696 274.4 125.309 277.344 125.309C280.288 125.309 282.675 127.696 282.675 130.64V133.197ZM274.678 119.978C274.678 118.506 275.872 117.313 277.344 117.313C278.816 117.313 280.009 118.506 280.009 119.978C280.009 121.451 278.816 122.644 277.344 122.644C275.872 122.644 274.678 121.45 274.678 119.978ZM285.34 116.901C287.063 118.855 288.011 121.372 288.006 123.977C288.005 126.567 287.057 129.067 285.34 131.006V130.64C285.339 127.727 283.752 125.044 281.199 123.639C283.232 121.51 283.154 118.135 281.024 116.102C278.894 114.069 275.52 114.148 273.487 116.278C271.52 118.338 271.52 121.579 273.487 123.639C270.935 125.045 269.349 127.727 269.347 130.64V131.005C265.452 126.589 265.875 119.851 270.291 115.957C274.708 112.062 281.445 112.485 285.34 116.901ZM313.328 99.6193C307.764 103.659 300.233 103.659 294.669 99.6193V96.3887C294.669 93.9598 296.639 91.9907 299.068 91.9907H302.026L300.092 96.8259C299.894 97.3212 300.011 97.8871 300.388 98.2639L303.054 100.929C303.574 101.45 304.418 101.45 304.938 100.929L307.604 98.2639C307.981 97.8869 308.098 97.3212 307.9 96.8259L305.967 91.9907H308.93C311.359 91.9907 313.328 93.9598 313.328 96.3887V99.6193ZM304.189 77.9768C304.14 78.0601 304.099 78.1484 304.068 78.2405C303.394 80.2623 299.753 81.0286 297.409 81.2512C297.766 76.7848 299.868 74.6647 303.999 74.6647C307.781 74.6647 309.863 76.4533 310.459 80.185L306.018 77.5195C305.387 77.141 304.568 77.3457 304.189 77.9768ZM305.837 80.521L310.6 83.3797C310.065 86.6423 306.045 89.3251 303.999 89.3251C301.026 88.8189 298.553 86.7576 297.52 83.9248C299.802 83.7369 303.921 83.0452 305.837 80.521ZM305.1 97.0005L303.999 98.1026L302.898 97.0005L303.999 94.2457L305.1 97.0005ZM309.814 89.3865C311.893 87.7503 313.172 85.3024 313.328 82.6614C313.328 73.8493 308.254 71.9994 303.999 71.9994C299.743 71.9994 294.669 73.8493 294.669 82.6614C294.824 85.3039 296.104 87.7535 298.184 89.3905C294.651 89.8258 291.999 92.8291 292.004 96.3887V97.199C286.162 90.5746 286.796 80.4682 293.42 74.6259C300.045 68.7836 310.151 69.4177 315.993 76.0421C321.324 82.087 321.324 91.154 315.993 97.1989V96.3886C316.001 92.8276 313.348 89.8218 309.814 89.3865ZM334.652 142.267C329.088 146.307 321.557 146.307 315.993 142.267V139.037C315.993 136.608 317.963 134.639 320.392 134.639H323.35L321.416 139.474C321.218 139.969 321.335 140.535 321.712 140.912L324.378 143.577C324.898 144.098 325.742 144.098 326.262 143.577L328.928 140.912C329.305 140.535 329.422 139.969 329.224 139.474L327.291 134.639H330.254C332.683 134.639 334.652 136.608 334.652 139.037V142.267ZM327.161 123.169V123.168L331.924 126.026C331.389 129.29 327.369 131.973 325.323 131.973C322.35 131.467 319.877 129.406 318.844 126.573C321.126 126.385 325.245 125.693 327.161 123.169ZM318.732 123.899C319.089 119.433 321.191 117.313 325.323 117.313C329.105 117.313 331.187 119.101 331.783 122.833L327.342 120.168C326.711 119.789 325.892 119.994 325.513 120.625C325.463 120.708 325.423 120.797 325.392 120.889C324.718 122.91 321.077 123.677 318.732 123.899ZM326.424 139.648L325.323 140.751L324.222 139.648L325.323 136.894L326.424 139.648ZM337.317 139.851V139.037C337.325 135.475 334.672 132.47 331.138 132.034C333.217 130.398 334.496 127.95 334.652 125.309C334.652 116.497 329.578 114.647 325.323 114.647C321.067 114.647 315.993 116.497 315.993 125.309C316.148 127.952 317.428 130.401 319.508 132.038C315.975 132.474 313.323 135.477 313.328 139.037V139.847C307.499 133.217 308.149 123.118 314.778 117.289C321.408 111.46 331.508 112.11 337.336 118.739C339.904 121.661 341.319 125.418 341.316 129.307C341.315 133.192 339.893 136.942 337.317 139.851Z" fill="#FCC501"/>
</g>
<path d="M119.164 72.0284C121.98 69.4258 125.713 68.1244 130.364 68.1244C135.014 68.1244 138.748 69.4258 141.564 72.0284C144.678 74.8444 146.236 78.4711 146.236 82.9084C146.236 87.3031 144.678 90.9084 141.564 93.7244C138.748 96.3271 135.014 97.6284 130.364 97.6284C125.713 97.6284 121.98 96.3271 119.164 93.7244C116.049 90.9084 114.492 87.3031 114.492 82.9084C114.492 78.4711 116.049 74.8444 119.164 72.0284ZM124.796 88.4124C126.289 89.9484 128.145 90.7164 130.364 90.7164C132.582 90.7164 134.438 89.9484 135.932 88.4124C137.425 86.8764 138.172 85.0418 138.172 82.9084C138.172 80.7324 137.425 78.8764 135.932 77.3404C134.438 75.8044 132.582 75.0364 130.364 75.0364C128.145 75.0364 126.289 75.8044 124.796 77.3404C123.302 78.8764 122.556 80.7324 122.556 82.9084C122.556 85.0418 123.302 86.8764 124.796 88.4124ZM167.378 75.6764H160.211V96.7324H152.403V75.6764H149.459V69.0204H152.403V61.4044C152.403 56.8818 153.619 53.6178 156.051 51.6124C157.885 50.0764 160.168 49.3084 162.899 49.3084C164.52 49.3084 166.013 49.6284 167.378 50.2684V57.3724C166.355 56.6044 165.181 56.2204 163.859 56.2204C162.621 56.2204 161.683 56.6898 161.043 57.6284C160.488 58.5244 160.211 60.1244 160.211 62.4284V69.0204H167.378V75.6764ZM188.628 75.6764H181.461V96.7324H173.653V75.6764H170.709V69.0204H173.653V61.4044C173.653 56.8818 174.869 53.6178 177.301 51.6124C179.135 50.0764 181.418 49.3084 184.149 49.3084C185.77 49.3084 187.263 49.6284 188.628 50.2684V57.3724C187.605 56.6044 186.431 56.2204 185.109 56.2204C183.871 56.2204 182.933 56.6898 182.293 57.6284C181.738 58.5244 181.461 60.1244 181.461 62.4284V69.0204H188.628V75.6764ZM212.244 87.8364L219.412 88.9884C219.113 89.7564 218.708 90.5244 218.196 91.2924C217.727 92.0178 216.98 92.9351 215.956 94.0444C214.932 95.1111 213.545 95.9858 211.796 96.6684C210.047 97.3084 208.041 97.6284 205.78 97.6284C201.428 97.6284 197.887 96.3271 195.156 93.7244C192.255 90.9938 190.804 87.3884 190.804 82.9084C190.804 78.4711 192.212 74.8444 195.028 72.0284C197.673 69.4258 201.151 68.1244 205.46 68.1244C210.153 68.1244 213.759 69.6391 216.276 72.6684C218.495 75.3138 219.604 78.9404 219.604 83.5484V84.1884H198.868C198.868 86.0658 199.316 87.6231 200.212 88.8604C201.492 90.6098 203.348 91.4844 205.78 91.4844C208.681 91.4844 210.836 90.2684 212.244 87.8364ZM199.124 79.1964H212.244C211.945 77.4044 211.156 76.0391 209.876 75.1004C208.639 74.1191 207.231 73.6284 205.652 73.6284C204.116 73.6284 202.708 74.1191 201.428 75.1004C200.191 76.0818 199.423 77.4471 199.124 79.1964ZM225.65 96.7324V69.0204H233.458V73.1804C234.396 71.3884 235.548 70.1084 236.914 69.3404C238.194 68.5298 239.73 68.1244 241.522 68.1244C242.546 68.1244 243.655 68.3378 244.85 68.7644L243.826 76.0604C242.844 75.3778 241.628 75.0364 240.178 75.0364C237.916 75.0364 236.188 75.7831 234.994 77.2764C233.97 78.5564 233.458 80.6044 233.458 83.4204V96.7324H225.65Z" fill="#2C315B"/>
<path d="M14.3955 118.72V121.24H6.11547V128.332H14.1075V130.852H6.11547V142.732H3.45147V118.72H14.3955ZM39.1128 139.6C36.7128 141.976 33.7608 143.164 30.2568 143.164C26.7528 143.164 23.7888 141.976 21.3648 139.6C18.9648 137.224 17.7648 134.272 17.7648 130.744C17.7648 127.192 18.9768 124.24 21.4008 121.888C23.8248 119.512 26.7768 118.324 30.2568 118.324C33.7368 118.324 36.6888 119.512 39.1128 121.888C41.5368 124.24 42.7488 127.192 42.7488 130.744C42.7488 134.272 41.5368 137.224 39.1128 139.6ZM37.1688 123.724C35.2728 121.804 32.9688 120.844 30.2568 120.844C27.5448 120.844 25.2408 121.804 23.3448 123.724C21.4488 125.644 20.5008 127.984 20.5008 130.744C20.5008 133.504 21.4488 135.844 23.3448 137.764C25.2408 139.684 27.5448 140.644 30.2568 140.644C32.9688 140.644 35.2728 139.684 37.1688 137.764C39.0648 135.844 40.0128 133.504 40.0128 130.744C40.0128 127.984 39.0648 125.644 37.1688 123.724ZM47.6429 118.72H51.4949C54.0869 118.72 56.0309 119.164 57.3269 120.052C59.0789 121.228 59.9549 123.004 59.9549 125.38C59.9549 127.228 59.3909 128.764 58.2629 129.988C57.1589 131.212 55.7069 131.884 53.9069 132.004L61.5389 142.732H58.2989L50.9909 132.22H50.3069V142.732H47.6429V118.72ZM50.3069 121.24V129.844H51.9989C53.6549 129.844 54.9509 129.46 55.8869 128.692C56.8229 127.924 57.2909 126.844 57.2909 125.452C57.2909 123.82 56.6549 122.644 55.3829 121.924C54.5669 121.468 53.4149 121.24 51.9269 121.24H50.3069ZM74.1155 118.72H78.4715C81.2075 118.72 83.2235 119.284 84.5195 120.412C85.9835 121.66 86.7155 123.376 86.7155 125.56C86.7155 127.432 86.0795 129.028 84.8075 130.348C83.5595 131.644 81.6635 132.292 79.1195 132.292H76.7795V142.732H74.1155V118.72ZM76.7795 121.24V129.772H78.9755C80.5595 129.772 81.7955 129.388 82.6835 128.62C83.5955 127.852 84.0515 126.784 84.0515 125.416C84.0515 122.632 82.2875 121.24 78.7595 121.24H76.7795ZM104.726 142.732L101.918 135.964H91.6942L88.8142 142.732H85.8622L96.9142 117.568L107.678 142.732H104.726ZM92.7382 133.444H100.874L96.8422 123.832L92.7382 133.444ZM111.065 118.72H114.917C117.509 118.72 119.453 119.164 120.749 120.052C122.501 121.228 123.377 123.004 123.377 125.38C123.377 127.228 122.813 128.764 121.685 129.988C120.581 131.212 119.129 131.884 117.329 132.004L124.961 142.732H121.721L114.413 132.22H113.729V142.732H111.065V118.72ZM113.729 121.24V129.844H115.421C117.077 129.844 118.373 129.46 119.309 128.692C120.245 127.924 120.713 126.844 120.713 125.452C120.713 123.82 120.077 122.644 118.805 121.924C117.989 121.468 116.837 121.24 115.349 121.24H113.729ZM140.871 121.24H135.039V142.732H132.375V121.24H126.543V118.72H140.871V121.24ZM147.127 142.732H144.463V117.712L163.183 137.332V118.72H165.847V143.812L147.127 124.192V142.732ZM184.482 118.72V121.24H174.69V128.368H184.194V130.888H174.69V140.212H184.482V142.732H172.026V118.72H184.482ZM189.393 118.72H193.245C195.837 118.72 197.781 119.164 199.077 120.052C200.829 121.228 201.705 123.004 201.705 125.38C201.705 127.228 201.141 128.764 200.013 129.988C198.909 131.212 197.457 131.884 195.657 132.004L203.289 142.732H200.049L192.741 132.22H192.057V142.732H189.393V118.72ZM192.057 121.24V129.844H193.749C195.405 129.844 196.701 129.46 197.637 128.692C198.573 127.924 199.041 126.844 199.041 125.452C199.041 123.82 198.405 122.644 197.133 121.924C196.317 121.468 195.165 121.24 193.677 121.24H192.057ZM220.315 122.068L218.191 123.472C217.807 122.728 217.339 122.128 216.787 121.672C216.067 121.12 215.167 120.844 214.087 120.844C212.887 120.844 211.915 121.192 211.171 121.888C210.427 122.56 210.055 123.448 210.055 124.552C210.055 125.368 210.355 126.064 210.955 126.64C211.435 127.12 212.275 127.624 213.475 128.152L215.779 129.16C217.483 129.904 218.719 130.66 219.487 131.428C220.639 132.58 221.215 134.032 221.215 135.784C221.215 137.968 220.495 139.744 219.055 141.112C217.615 142.48 215.803 143.164 213.619 143.164C211.459 143.164 209.719 142.516 208.399 141.22C207.319 140.164 206.575 138.748 206.167 136.972L208.759 136.252C208.927 137.452 209.407 138.472 210.199 139.312C211.087 140.2 212.239 140.644 213.655 140.644C215.191 140.644 216.379 140.188 217.219 139.276C218.059 138.34 218.479 137.212 218.479 135.892C218.479 134.74 218.083 133.804 217.291 133.084C216.835 132.652 215.875 132.1 214.411 131.428L212.251 130.42C210.787 129.748 209.719 129.088 209.047 128.44C207.943 127.384 207.391 126.076 207.391 124.516C207.391 122.668 208.015 121.18 209.263 120.052C210.535 118.9 212.155 118.324 214.123 118.324C215.611 118.324 216.895 118.684 217.975 119.404C218.959 120.052 219.739 120.94 220.315 122.068Z" fill="#FCC501"/>
<defs>
<clipPath id="clip0">
</clipPath>
</defs>
</svg>
