<svg width="20" height="20" viewBox="0 0 20 20" fill="none" xmlns="http://www.w3.org/2000/svg">
<g clip-path="url(#clip0)">
<path d="M18.9763 7.90149L17.5725 7.66335C17.4263 7.19124 17.2382 6.73584 17.0085 6.30133L17.8357 5.14404C18.1866 4.65104 18.1323 3.97839 17.702 3.55224L16.457 2.30721C16.223 2.07324 15.9138 1.94373 15.5838 1.94373C15.3247 1.94373 15.0782 2.02311 14.8693 2.17351L13.7079 3.00075C13.2567 2.76261 12.7845 2.56624 12.2957 2.42001L12.0618 1.03293C11.9615 0.435484 11.4476 0.000976562 10.8418 0.000976562H9.08288C8.47707 0.000976562 7.96318 0.435484 7.86291 1.03293L7.62059 2.45344C7.15266 2.59966 6.69726 2.79185 6.26276 3.02582L5.11382 2.19858C4.90492 2.04817 4.65424 1.96879 4.39521 1.96879C4.06515 1.96879 3.7518 2.09831 3.52202 2.33228L2.27281 3.57731C1.84666 4.00346 1.78817 4.67611 2.13911 5.16911L2.9747 6.34311C2.74492 6.7818 2.56109 7.2372 2.41904 7.7093L1.03196 7.94327C0.434507 8.04354 0 8.55743 0 9.16323V10.9222C0 11.528 0.434507 12.0418 1.03196 12.1421L2.45246 12.3844C2.59869 12.8524 2.79087 13.3078 3.02484 13.7423L2.20178 14.887C1.85083 15.38 1.90515 16.0527 2.33548 16.4788L3.58051 17.7239C3.81447 17.9578 4.12364 18.0873 4.4537 18.0873C4.71273 18.0873 4.95923 18.008 5.16813 17.8576L6.34214 17.022C6.76411 17.2434 7.20697 17.4231 7.66237 17.5651L7.89634 18.9689C7.99661 19.5663 8.5105 20.0008 9.1163 20.0008H10.8794C11.4852 20.0008 11.9991 19.5663 12.0994 18.9689L12.3375 17.5651C12.8096 17.4189 13.265 17.2309 13.6995 17.0011L14.8568 17.8283C15.0657 17.9787 15.3164 18.0581 15.5754 18.0581C15.9055 18.0581 16.2146 17.9286 16.4486 17.6946L17.6936 16.4496C18.1198 16.0234 18.1783 15.3508 17.8273 14.8578L17.0001 13.6963C17.2299 13.2576 17.4221 12.8022 17.5641 12.3343L18.9679 12.1003C19.5654 12.0001 19.9999 11.4862 19.9999 10.8804V9.12145C20.0082 8.51565 19.5737 8.00176 18.9763 7.90149ZM18.8802 10.8804C18.8802 10.9347 18.8426 10.9806 18.7883 10.989L17.0335 11.2815C16.8121 11.3191 16.6366 11.482 16.5823 11.6951C16.4235 12.3092 16.1812 12.8983 15.8553 13.4456C15.7425 13.6378 15.7509 13.876 15.8804 14.0598L16.9124 15.5137C16.9416 15.5555 16.9374 15.6182 16.8998 15.6558L15.6548 16.9008C15.6256 16.9301 15.5963 16.9342 15.5754 16.9342C15.5504 16.9342 15.5295 16.9259 15.5127 16.9133L14.063 15.8814C13.8833 15.7519 13.641 15.7435 13.4488 15.8563C12.9015 16.1822 12.3124 16.4245 11.6983 16.5833C11.481 16.6376 11.3181 16.8172 11.2847 17.0345L10.988 18.7892C10.9797 18.8436 10.9337 18.8812 10.8794 18.8812H9.12048C9.06616 18.8812 9.02021 18.8436 9.01185 18.7892L8.71939 17.0345C8.68179 16.8131 8.51885 16.6376 8.30578 16.5833C7.70833 16.4287 7.13177 16.1906 6.59281 15.8814C6.50508 15.8313 6.40481 15.8062 6.30871 15.8062C6.19591 15.8062 6.07893 15.8396 5.98283 15.9106L4.52055 16.9509C4.49966 16.9635 4.47877 16.9718 4.45788 16.9718C4.44117 16.9718 4.40774 16.9677 4.3785 16.9384L3.13347 15.6934C3.09587 15.6558 3.09169 15.5973 3.12093 15.5513L4.14871 14.1099C4.27823 13.9261 4.28658 13.6838 4.17378 13.4916C3.8479 12.9485 3.59722 12.3594 3.43846 11.7452C3.37997 11.5321 3.20449 11.3692 2.98724 11.3316L1.21996 11.0308C1.16565 11.0224 1.12805 10.9765 1.12805 10.9222V9.16323C1.12805 9.10892 1.16565 9.06296 1.21996 9.05461L2.96217 8.76215C3.1836 8.72455 3.36325 8.56161 3.41757 8.34435C3.57215 7.73019 3.8103 7.13692 4.132 6.58961C4.2448 6.39743 4.23227 6.15928 4.10275 5.97963L3.06244 4.51735C3.0332 4.47557 3.03737 4.4129 3.07498 4.3753L4.32001 3.13027C4.34925 3.10102 4.3785 3.09684 4.39939 3.09684C4.42446 3.09684 4.44535 3.1052 4.46206 3.11773L5.90345 4.14551C6.08728 4.27502 6.3296 4.28338 6.52179 4.17058C7.06492 3.8447 7.65402 3.59402 8.26817 3.43526C8.48125 3.37676 8.64419 3.20129 8.68179 2.98404L8.9826 1.21676C8.99096 1.16245 9.03692 1.12485 9.09123 1.12485H10.8502C10.9045 1.12485 10.9504 1.16245 10.9588 1.21676L11.2512 2.95897C11.2888 3.1804 11.4518 3.36005 11.669 3.41437C12.2999 3.57313 12.9015 3.81963 13.4614 4.14969C13.6536 4.26249 13.8917 4.25414 14.0755 4.12462L15.5169 3.08849C15.5378 3.07595 15.5587 3.0676 15.5796 3.0676C15.5963 3.0676 15.6297 3.07177 15.659 3.10102L16.904 4.34605C16.9416 4.38365 16.9458 4.44214 16.9165 4.4881L15.8846 5.93785C15.7551 6.1175 15.7467 6.35982 15.8595 6.55201C16.1854 7.09932 16.4277 7.68841 16.5865 8.30257C16.6408 8.51983 16.8204 8.68277 17.0377 8.71619L18.7924 9.01283C18.8468 9.02118 18.8844 9.06714 18.8844 9.12145V10.8804H18.8802Z" fill="#626791"/>
<path d="M10.0024 5.68207C7.62092 5.68207 5.68652 7.61646 5.68652 9.9979C5.68652 12.3793 7.62092 14.3137 10.0024 14.3137C12.3838 14.3137 14.3182 12.3793 14.3182 9.9979C14.3182 7.61646 12.3838 5.68207 10.0024 5.68207ZM10.0024 13.1857C8.24343 13.1857 6.81457 11.7568 6.81457 9.9979C6.81457 8.23898 8.24343 6.81012 10.0024 6.81012C11.7613 6.81012 13.1901 8.23898 13.1901 9.9979C13.1901 11.7568 11.7613 13.1857 10.0024 13.1857Z" fill="#626791"/>
</g>
<defs>
<clipPath id="clip0">
<rect width="20" height="20" fill="white"/>
</clipPath>
</defs>
</svg>
