<svg width="176" height="178" viewBox="0 0 176 178" fill="none" xmlns="http://www.w3.org/2000/svg">
<path d="M85.5119 160.085C50.4133 158.845 21.5668 131.722 18.1736 96.8945L85.5119 160.085Z" fill="#9292F7"/>
<path d="M84.9159 177.884C41.0086 176.333 4.69033 142.25 0.438348 98.6044L35.9089 95.2265C38.4358 121.162 60.0169 141.414 86.1083 142.336L84.9159 177.884Z" fill="#9292F7"/>
<path d="M91.5752 177.814L91.2972 171.042C92.3834 170.998 93.4672 170.933 94.5457 170.846L95.0932 177.604C93.9239 177.697 92.7515 177.768 91.5752 177.814ZM98.6005 177.254L97.7882 170.524C98.866 170.395 99.9399 170.244 101.009 170.073L102.093 176.765C100.935 176.951 99.7684 177.115 98.6005 177.254ZM105.562 176.137L104.213 169.493C105.277 169.277 106.336 169.042 107.39 168.785L109.004 175.371C107.864 175.649 106.716 175.906 105.562 176.137ZM112.417 174.465L110.531 167.952C111.575 167.651 112.613 167.331 113.643 166.99L115.784 173.424C114.671 173.793 113.547 174.141 112.417 174.465ZM119.111 172.245L116.708 165.903C117.722 165.521 118.73 165.117 119.728 164.692L122.385 170.931C121.302 171.392 120.212 171.828 119.111 172.245ZM125.607 169.485L122.694 163.362C123.673 162.896 124.644 162.415 125.605 161.909L128.763 167.91C127.723 168.459 126.669 168.984 125.607 169.485ZM131.854 166.21L128.453 160.341C129.392 159.799 130.32 159.238 131.238 158.658L134.874 164.384C133.879 165.015 132.871 165.622 131.854 166.21ZM137.815 162.44L133.954 156.863C134.845 156.246 135.725 155.614 136.593 154.96L140.679 160.376C139.736 161.084 138.783 161.773 137.815 162.44ZM143.452 158.2L139.157 152.951C139.995 152.266 140.822 151.562 141.636 150.842L146.141 155.915C145.257 156.696 144.36 157.459 143.452 158.2ZM148.73 153.526L144.031 148.634C144.812 147.884 145.581 147.116 146.338 146.334L151.227 151.036C150.41 151.886 149.578 152.716 148.73 153.526ZM153.625 148.451L148.551 143.946C149.275 143.133 149.981 142.306 150.669 141.47L155.912 145.779C155.168 146.682 154.406 147.574 153.625 148.451ZM158.097 143.014L152.685 138.921C153.342 138.054 153.98 137.176 154.599 136.289L160.168 140.168C159.499 141.127 158.807 142.076 158.097 143.014ZM162.127 137.235L156.402 133.588C156.988 132.672 157.553 131.746 158.099 130.81L163.961 134.229C163.37 135.241 162.757 136.243 162.127 137.235ZM165.677 131.147L159.678 127.971C160.185 127.014 160.675 126.046 161.142 125.071L167.263 127.998C166.756 129.057 166.228 130.108 165.677 131.147ZM168.72 124.792L162.488 122.106C162.916 121.113 163.322 120.11 163.709 119.1L170.05 121.522C169.631 122.62 169.188 123.71 168.72 124.792ZM171.244 118.203L164.81 116.041C165.156 115.013 165.48 113.978 165.786 112.937L172.299 114.841C171.97 115.969 171.616 117.09 171.244 118.203ZM173.216 111.436L166.629 109.797C166.889 108.747 167.13 107.692 167.35 106.629L173.996 107.995C173.76 109.149 173.5 110.296 173.216 111.436ZM174.637 104.53L167.941 103.43C168.116 102.36 168.268 101.287 168.402 100.21L175.138 101.039C174.994 102.208 174.828 103.372 174.637 104.53ZM175.496 97.5308L168.734 96.9724C168.822 95.8937 168.889 94.8088 168.936 93.7193L175.715 94.0163C175.665 95.1911 175.591 96.3629 175.496 97.5308ZM0.0700663 92.4051C0.0473253 91.5908 0.0376942 90.778 0.0380446 89.9691L0.0454253 88.8749L6.8311 88.9797L6.82376 89.9777C6.82343 90.7259 6.83312 91.4748 6.85281 92.2268L0.0700663 92.4051ZM175.794 90.4832L169.009 90.4746L169.009 90.2715C169.009 89.5134 168.998 88.7537 168.978 87.9924L168.952 87.2088L175.735 86.9698L175.762 87.8072C175.784 88.64 175.796 89.4605 175.795 90.2801L175.795 90.4832L175.794 90.4832ZM6.93719 85.7234L0.160886 85.3588C0.222209 84.1824 0.307389 83.0107 0.417204 81.8443L7.17262 82.4795C7.07362 83.5559 6.99539 84.6377 6.93719 85.7234ZM168.771 83.9653C168.687 82.8794 168.584 81.7974 168.461 80.7208L175.203 79.9512C175.335 81.114 175.447 82.2783 175.538 83.4502L168.771 83.9653Z" fill="#E8E9FB"/>
<path d="M175.264 87.8635C175.264 136.113 136.15 175.227 87.9001 175.227C39.6506 175.227 0.536621 136.113 0.536621 87.8635C0.536621 73.571 3.96833 60.0816 10.0523 48.1727C24.5097 19.8735 53.9428 0.5 87.9001 0.5C121.857 0.5 151.291 19.8735 165.748 48.1727C171.832 60.0816 175.264 73.571 175.264 87.8635Z" stroke="url(#paint0_linear)"/>
<circle cx="4.18068" cy="69.3513" r="1.9341" fill="#FCC501"/>
<circle cx="169.961" cy="69.3513" r="1.9341" fill="#FCC501"/>
<defs>
<linearGradient id="paint0_linear" x1="87.9001" y1="0" x2="87.9001" y2="54.2751" gradientUnits="userSpaceOnUse">
<stop stop-color="#582BDE"/>
<stop offset="1" stop-color="#582BDE" stop-opacity="0"/>
</linearGradient>
</defs>
</svg>
