<svg width="24" height="24" viewBox="0 0 24 24" fill="none" xmlns="http://www.w3.org/2000/svg">
<path d="M22.9043 15.5742C20.8868 14.4142 18.5915 13.7542 16.214 13.5775C16.701 13.7954 17.1909 14.0083 17.6521 14.2734C18.1883 14.582 18.6182 15.0274 18.9344 15.5442C20.0645 15.858 21.1511 16.2964 22.1579 16.8749C22.3688 16.9965 22.5 17.2404 22.5 17.5122V21H19.5V22.5H23.25C23.6645 22.5 24 22.1645 24 21.75V17.5122C24 16.7043 23.5796 15.9617 22.9043 15.5742Z" fill="white"/>
<path d="M16.9043 15.5742C12.1831 12.8599 5.81693 12.8599 1.09568 15.5742C0.41966 15.9631 0 16.7051 0 17.5122V21.75C0 22.1646 0.33544 22.5 0.750005 22.5H17.25C17.6645 22.5 18 22.1646 18 21.75V17.5115C18 16.7051 17.5803 15.9631 16.9043 15.5742ZM16.5 21H1.50005V17.5122C1.50005 17.2405 1.63117 16.9966 1.84281 16.875C6.11135 14.4214 11.8887 14.4214 16.1572 16.875C16.3689 16.9966 16.5 17.2405 16.5 17.5115V21Z" fill="white"/>
<path d="M14.6265 3.03528C14.7509 3.02226 14.8742 3.00005 15 3.00005C17.0677 3.00005 18.75 4.68244 18.75 6.75004C18.75 8.81764 17.0676 10.5 15 10.5C14.8742 10.5 14.751 10.4777 14.6266 10.4647C14.3083 10.9452 13.9188 11.3675 13.4915 11.7514C13.98 11.9018 14.484 12 15 12C17.8946 12 20.25 9.64455 20.25 6.74999C20.25 3.85544 17.8946 1.5 15 1.5C14.4839 1.5 13.9799 1.59815 13.4915 1.74856C13.9187 2.1326 14.3083 2.55475 14.6265 3.03528Z" fill="white"/>
<path d="M9.00005 12C11.8945 12 14.25 9.64456 14.25 6.75C14.25 3.85545 11.8946 1.5 9.00005 1.5C6.1055 1.5 3.75006 3.85545 3.75006 6.75C3.75006 9.64456 6.10554 12 9.00005 12ZM9.00005 3.00001C11.0677 3.00001 12.75 4.6824 12.75 6.75C12.75 8.81761 11.0676 10.5 9.00005 10.5C6.93245 10.5 5.25007 8.81761 5.25007 6.75C5.25007 4.6824 6.93245 3.00001 9.00005 3.00001Z" fill="white"/>
</svg>
