<svg width="40" height="46" viewBox="0 0 40 46" fill="none" xmlns="http://www.w3.org/2000/svg">
<path d="M-4.64013e-07 35.3846L-1.54671e-06 10.6154L20 -8.74228e-07L40 10.6154L40 35.3846L20 46L-4.64013e-07 35.3846Z" fill="#01ABE8"/>
<path d="M15.6171 33C15.4457 33 15.3 32.94 15.18 32.82C15.06 32.7 15 32.5543 15 32.3829V15.6429C15 15.4543 15.0514 15.3 15.1543 15.18C15.2743 15.06 15.4286 15 15.6171 15H22.5086C24.5829 15 26.2114 15.4886 27.3943 16.4657C28.5771 17.4429 29.1686 18.8657 29.1686 20.7343C29.1686 22.5857 28.5771 23.9914 27.3943 24.9514C26.2114 25.8943 24.5829 26.3657 22.5086 26.3657H18.7286V32.3829C18.7286 32.5714 18.6686 32.7257 18.5486 32.8457C18.4286 32.9486 18.2743 33 18.0857 33H15.6171ZM22.38 23.4857C23.3743 23.4857 24.1286 23.2543 24.6429 22.7914C25.1743 22.3114 25.44 21.6171 25.44 20.7086C25.44 19.8171 25.1829 19.1229 24.6686 18.6257C24.1714 18.1286 23.4086 17.88 22.38 17.88H18.6771V23.4857H22.38Z" fill="white"/>
</svg>
