<svg width="15" height="15" viewBox="0 0 15 15" fill="none" xmlns="http://www.w3.org/2000/svg">
<path d="M13.9022 6.61898H8.78712V1.504C8.78712 0.945746 8.33453 0.493164 7.77626 0.493164C7.21799 0.493164 6.7654 0.945823 6.7654 1.504V6.61929H1.65051C1.09232 6.61929 0.639648 7.07195 0.639648 7.63012C0.639648 8.18838 1.09232 8.64096 1.65051 8.64096H6.76517V13.7558C6.76517 14.314 7.21776 14.7665 7.77603 14.7665C8.33422 14.7665 8.78689 14.314 8.78689 13.7558V8.64073H13.9022C14.4604 8.64073 14.913 8.18807 14.913 7.62989C14.913 7.07164 14.4604 6.61898 13.9022 6.61898Z" fill="#FCC501"/>
</svg>
