<svg width="18" height="18" viewBox="0 0 18 18" fill="none" xmlns="http://www.w3.org/2000/svg">
<g clip-path="url(#clip0)">
<path d="M15.5542 1.82855L9.69531 0.100651C9.24046 -0.0335402 8.75941 -0.0335402 8.30442 0.100651L2.4456 1.82851C2.01304 1.95606 1.71094 2.36007 1.71094 2.81106V7.66312C1.71094 9.90862 2.37936 12.0708 3.64397 13.916C4.87859 15.7175 6.59678 17.1035 8.6126 17.9238C8.73748 17.9746 8.86868 18 8.99988 18C9.13109 18 9.26229 17.9746 9.38713 17.9238C11.403 17.1035 13.1211 15.7176 14.3558 13.916C15.6203 12.0708 16.2888 9.90862 16.2888 7.66312V2.81109C16.2888 2.36011 15.9867 1.95606 15.5542 1.82855ZM15.4693 7.66308C15.4693 9.74247 14.8505 11.7445 13.6798 13.4526C12.5362 15.1214 10.945 16.405 9.07828 17.1647C9.02773 17.1853 8.97207 17.1853 8.92152 17.1647C7.05476 16.405 5.46355 15.1214 4.31995 13.4526C3.14929 11.7445 2.53047 9.7425 2.53047 7.66308V2.81106C2.53047 2.72088 2.5909 2.64009 2.67742 2.61457L8.53628 0.886675C8.68794 0.841921 8.84393 0.819597 8.99992 0.819597C9.15587 0.819597 9.31186 0.841956 9.46352 0.88671L15.3225 2.61457C15.4089 2.64006 15.4693 2.72085 15.4693 2.81106V7.66308Z" fill="white"/>
<path d="M13.5404 3.64061L9.17376 2.35283C9.06006 2.31933 8.9399 2.31926 8.82613 2.35283L4.45962 3.64061C4.2001 3.71718 4.0188 3.95961 4.0188 4.23018V7.66308C4.0188 9.47707 4.56752 11.217 5.60554 12.6947C6.41034 13.8406 7.48573 14.7866 8.71539 15.4306C8.80448 15.4773 8.90221 15.5006 8.99998 15.5006C9.09772 15.5006 9.19545 15.4773 9.28457 15.4306C10.5142 14.7866 11.5896 13.8405 12.3944 12.6947C13.4324 11.217 13.9812 9.47707 13.9812 7.66308V4.23018C13.9811 3.95954 13.7999 3.71714 13.5404 3.64061ZM13.1617 7.66308C13.1617 9.30758 12.6645 10.8846 11.7239 12.2237C11.0147 13.2332 10.0746 14.0715 8.99998 14.6537C7.92533 14.0715 6.98521 13.2332 6.27608 12.2237C5.33547 10.8846 4.83829 9.30758 4.83829 7.66308V4.38335L8.99998 3.15598L13.1617 4.38335V7.66308Z" fill="white"/>
</g>
<defs>
<clipPath id="clip0">
<rect width="18" height="18" fill="white"/>
</clipPath>
</defs>
</svg>
