<svg width="16" height="16" viewBox="0 0 16 16" fill="none" xmlns="http://www.w3.org/2000/svg">
<g clip-path="url(#clip0)">
<path d="M8 0C3.58177 0 0 3.58177 0 8C0 12.4182 3.58177 16 8 16C8.24102 16 8.48112 15.9892 8.72005 15.9677C8.94219 15.9478 9.16237 15.9173 9.38086 15.8792L9.46484 15.8643C13.527 15.1063 16.3435 11.3793 15.9635 7.26445C15.5836 3.14961 12.1323 0.00130208 8 0V0ZM7.35729 15.4384H7.33841C7.13099 15.4201 6.92513 15.3923 6.72109 15.3568C6.70937 15.3547 6.69766 15.3534 6.6862 15.3512C6.48672 15.3155 6.28932 15.2712 6.09388 15.2195L6.04661 15.2074C5.85599 15.1557 5.66745 15.0957 5.48164 15.029C5.46237 15.0221 5.44297 15.016 5.4237 15.0089C5.24154 14.9419 5.06263 14.8669 4.88646 14.7858C4.86458 14.776 4.84271 14.7667 4.82083 14.7563C4.64805 14.6763 4.47865 14.5862 4.3125 14.4914C4.28906 14.4781 4.26536 14.4648 4.24193 14.4517C4.07839 14.3563 3.91862 14.2539 3.76185 14.1458C3.73815 14.1293 3.71419 14.1133 3.69062 14.0967C3.53659 13.9875 3.38646 13.8715 3.24023 13.7501L3.2 13.715V11.4667C3.20195 9.8474 4.51406 8.53529 6.13333 8.53333H9.86667C11.4859 8.53529 12.798 9.8474 12.8 11.4667V13.7152L12.7646 13.7448C12.6155 13.8693 12.4625 13.987 12.3053 14.0982C12.2845 14.1128 12.2634 14.1267 12.2427 14.141C12.0841 14.2512 11.9216 14.3548 11.7552 14.4522C11.7344 14.4643 11.713 14.4758 11.6923 14.4878C11.5237 14.5837 11.3522 14.6743 11.1773 14.756C11.1573 14.7654 11.1371 14.7741 11.1168 14.7827C10.9392 14.8646 10.7587 14.94 10.5753 15.0074C10.557 15.0142 10.5387 15.0201 10.5219 15.0264C10.3352 15.0934 10.1458 15.1539 9.95417 15.2059L9.9082 15.2173C9.7125 15.269 9.51497 15.3135 9.31523 15.3493C9.30378 15.3514 9.29232 15.3529 9.28086 15.3547C9.07656 15.3904 8.87044 15.4181 8.66289 15.4366H8.64401C8.43073 15.4549 8.21732 15.4648 8.0013 15.4648C7.78529 15.4648 7.57018 15.4568 7.35729 15.4384ZM13.3333 13.2208V11.4667C13.3311 9.553 11.7803 8.00221 9.86667 8H6.13333C4.21966 8.00221 2.66888 9.553 2.66667 11.4667V13.2206C-0.205469 10.2892 -0.173437 5.58932 2.73828 2.69727C5.65 -0.194661 10.35 -0.194661 13.2617 2.69727C16.1734 5.58932 16.2055 10.2892 13.3333 13.2206V13.2208Z" fill="#47F0E9"/>
<path d="M7.99967 2.13334C6.52689 2.13334 5.33301 3.32722 5.33301 4.8C5.33301 6.27279 6.52689 7.46667 7.99967 7.46667C9.47246 7.46667 10.6663 6.27279 10.6663 4.8C10.6648 3.32787 9.47181 2.1349 7.99967 2.13334ZM7.99967 6.93333C6.82142 6.93333 5.86634 5.97826 5.86634 4.8C5.86634 3.62175 6.82142 2.66667 7.99967 2.66667C9.17793 2.66667 10.133 3.62175 10.133 4.8C10.1317 5.97761 9.17728 6.93203 7.99967 6.93333Z" fill="#47F0E9"/>
</g>
<defs>
<clipPath id="clip0">
<rect width="16" height="16" fill="white"/>
</clipPath>
</defs>
</svg>
