<svg width="16" height="16" viewBox="0 0 16 16" fill="none" xmlns="http://www.w3.org/2000/svg">
<g clip-path="url(#clip0)">
<path d="M15.0312 12.3192H16V7.63171H15.0312V4.81921H11.9442L8 0.875L6.59375 2.28125L5.1875 0.875L1.24329 4.81921H0V15.1317H15.0312V12.3192ZM15.0625 11.3817H12.6875C11.9121 11.3817 11.2812 10.7509 11.2812 9.97546C11.2812 9.20007 11.9121 8.56921 12.6875 8.56921H15.0625V11.3817ZM14.0938 7.63171H13.1562V5.75671H14.0938V7.63171ZM10.6183 4.81921H5.38171L8 2.20081L10.6183 4.81921ZM5.1875 2.20081L5.93079 2.94421L4.05579 4.81921H2.56921L5.1875 2.20081ZM0.9375 5.75671H12.2188V7.67883C11.1503 7.89661 10.3438 8.84351 10.3438 9.97546C10.3438 11.1073 11.1503 12.0542 12.2188 12.272V14.1942H0.9375V5.75671ZM13.1562 14.1942V12.3192H14.0938V14.1942H13.1562Z" fill="#FCC501"/>
<path d="M12.2188 9.50671H13.1562V10.4442H12.2188V9.50671Z" fill="#FCC501"/>
</g>
<defs>
<clipPath id="clip0">
<rect width="16" height="16" fill="white"/>
</clipPath>
</defs>
</svg>
