<svg width="43" height="48" viewBox="0 0 43 48" fill="none" xmlns="http://www.w3.org/2000/svg">
<g filter="url(#filter0_d)">
<path d="M8 28.6154L8 11.3846L21.5 4L35 11.3846L35 28.6154L21.5 36L8 28.6154Z" fill="#00DFE2"/>
</g>
<g clip-path="url(#clip0)">
<path d="M27.9076 13.1059C27.7702 12.9687 27.626 12.8421 27.4792 12.7295L27.4512 12.708C27.4334 12.6911 27.4144 12.6751 27.3945 12.6605C26.7992 12.2222 26.1462 12 25.4535 12C24.3726 12 23.2483 12.5518 22.2021 13.5957C22.1919 13.6059 22.1821 13.6165 22.1727 13.6274L22.1267 13.6805L22.0735 13.7266C22.0626 13.7359 22.0521 13.7457 22.042 13.7558C20.9981 14.8014 20.4463 15.9257 20.4463 17.0072C20.4463 17.4694 20.5543 17.9298 20.7672 18.3756C20.7782 18.3987 20.7907 18.421 20.8046 18.4424C20.8489 18.5105 21.011 18.7573 21.1841 18.9883L18.7722 21.4002C18.5433 21.629 18.5433 22 18.7722 22.2288C18.8866 22.3432 19.0365 22.4004 19.1865 22.4004C19.3365 22.4004 19.4864 22.3432 19.6009 22.2288L21.0094 20.8202C21.0701 20.925 21.1299 21.0353 21.1796 21.1343C21.3151 21.4196 21.3838 21.7084 21.3838 21.9928C21.3838 22.7525 20.9557 23.5849 20.1455 24.4013L20.0765 24.4609C20.0551 24.4795 20.035 24.4995 20.0164 24.521L19.957 24.5897C19.1401 25.4 18.3075 25.8282 17.5484 25.8282C17.126 25.8282 16.7204 25.6924 16.3422 25.4247C16.3302 25.4138 16.3177 25.4033 16.3047 25.3934L16.2358 25.3405C16.1292 25.2589 16.0238 25.1661 15.9224 25.0649C15.425 24.5682 15.1729 24.0257 15.1729 23.4526C15.1729 22.6928 15.601 21.8603 16.4113 21.044L16.4802 20.9843C16.5015 20.9658 16.5215 20.9459 16.5399 20.9246L16.5994 20.8558C17.3738 20.0876 18.1587 19.659 18.8702 19.6161C19.1932 19.5967 19.4393 19.319 19.4198 18.996C19.4003 18.673 19.1225 18.4267 18.7997 18.4464C17.7794 18.5079 16.7556 19.0444 15.7568 20.0411C15.7467 20.0512 15.7369 20.0617 15.7276 20.0725L15.6814 20.1258L15.628 20.1721C15.6172 20.1813 15.6068 20.191 15.5968 20.2011C14.5528 21.2466 14.001 22.371 14.001 23.4526C14.001 24.3481 14.3689 25.1696 15.0944 25.8941C15.2317 26.0313 15.3759 26.1579 15.5227 26.2705L15.5507 26.292C15.5685 26.3089 15.5875 26.3249 15.6075 26.3395C16.2027 26.7778 16.8557 27 17.5485 27C18.6293 27 19.7536 26.4482 20.7998 25.4043C20.81 25.3941 20.8198 25.3835 20.8293 25.3726L20.8752 25.3195L20.9285 25.2734C20.9393 25.2641 20.9498 25.2543 20.9599 25.2442C22.0038 24.1986 22.5557 23.0743 22.5557 21.9928C22.5557 21.5306 22.4477 21.0702 22.2348 20.6244C22.2332 20.6213 22.2317 20.6181 22.2301 20.6149C22.1903 20.5353 22.0406 20.242 21.8615 19.9682L24.2298 17.5999C24.4586 17.3711 24.4586 17 24.2298 16.7712C24.0009 16.5424 23.6299 16.5424 23.4011 16.7712L22.023 18.1494C21.9462 18.0414 21.8692 17.9285 21.8089 17.8369C21.6823 17.5611 21.6181 17.2821 21.6181 17.0072C21.6181 16.2475 22.0462 15.4151 22.8565 14.5987L22.9254 14.5391C22.9469 14.5205 22.967 14.5005 22.9856 14.479L23.0449 14.4103C23.8618 13.6 24.6944 13.1719 25.4535 13.1719C25.8759 13.1719 26.2815 13.3076 26.6597 13.5753C26.6717 13.5863 26.6842 13.5967 26.6972 13.6066L26.7661 13.6595C26.8727 13.7412 26.9781 13.8339 27.0795 13.9352C27.5769 14.4318 27.829 14.9743 27.829 15.5474C27.829 16.3072 27.401 17.1397 26.5906 17.9561L26.5217 18.0158C26.5004 18.0342 26.4804 18.0542 26.462 18.0755L26.4025 18.1442C25.6493 18.8909 24.8543 19.3093 24.1024 19.3546C23.7794 19.3741 23.5333 19.6518 23.5528 19.9748C23.5716 20.2858 23.8296 20.5255 24.1371 20.5255C24.1489 20.5255 24.1609 20.5251 24.1729 20.5244C25.2197 20.4613 26.282 19.92 27.2451 18.959C27.2552 18.9488 27.265 18.9384 27.2743 18.9276L27.3205 18.8742L27.3739 18.828C27.3847 18.8187 27.3951 18.809 27.4051 18.7989C28.4491 17.7534 29.0009 16.6291 29.0009 15.5474C29.0009 14.6519 28.6331 13.8304 27.9076 13.1059Z" fill="white"/>
</g>
<defs>
<filter id="filter0_d" x="0" y="0" width="43" height="48" filterUnits="userSpaceOnUse" color-interpolation-filters="sRGB">
<feFlood flood-opacity="0" result="BackgroundImageFix"/>
<feColorMatrix in="SourceAlpha" type="matrix" values="0 0 0 0 0 0 0 0 0 0 0 0 0 0 0 0 0 0 127 0"/>
<feOffset dy="4"/>
<feGaussianBlur stdDeviation="4"/>
<feColorMatrix type="matrix" values="0 0 0 0 0 0 0 0 0 0.87451 0 0 0 0 0.886275 0 0 0 0.2 0"/>
<feBlend mode="normal" in2="BackgroundImageFix" result="effect1_dropShadow"/>
<feBlend mode="normal" in="SourceGraphic" in2="effect1_dropShadow" result="shape"/>
</filter>
<clipPath id="clip0">
<rect x="14" y="12" width="15" height="15" fill="white"/>
</clipPath>
</defs>
</svg>
