<svg width="18" height="18" viewBox="0 0 18 18" fill="none" xmlns="http://www.w3.org/2000/svg">
<g clip-path="url(#clip0)">
<path d="M18 14.4844C18 14.8727 17.6852 15.1875 17.2969 15.1875H15.1875V17.2969C15.1875 17.6852 14.8727 18 14.4844 18C14.096 18 13.7812 17.6852 13.7812 17.2969V15.1875H11.6719C11.2835 15.1875 10.9688 14.8727 10.9688 14.4844C10.9688 14.096 11.2835 13.7812 11.6719 13.7812H13.7812V11.6719C13.7812 11.2835 14.096 10.9688 14.4844 10.9688C14.8727 10.9688 15.1875 11.2835 15.1875 11.6719V13.7812H17.2969C17.6852 13.7812 18 14.096 18 14.4844ZM12.375 17.2969C12.375 17.6852 12.0602 18 11.6719 18H2.10938C0.946198 18 0 17.0538 0 15.8906V14.5898C0 13.3764 0.520477 12.2234 1.42781 11.4262C2.16238 10.7806 3.56918 9.82384 5.83072 9.32657C4.59476 8.37447 3.79688 6.88033 3.79688 5.20312C3.79688 2.33418 6.13106 0 9 0C11.8689 0 14.2031 2.33418 14.2031 5.20312C14.2031 8.07207 11.8689 10.4062 9 10.4062C5.13625 10.4062 3.06642 11.8582 2.35602 12.4825C1.75246 13.0129 1.40625 13.7808 1.40625 14.5898V15.8906C1.40625 16.2783 1.72169 16.5938 2.10938 16.5938H11.6719C12.0602 16.5938 12.375 16.9085 12.375 17.2969ZM9 9C11.0936 9 12.7969 7.29671 12.7969 5.20312C12.7969 3.10954 11.0936 1.40625 9 1.40625C6.90642 1.40625 5.20312 3.10954 5.20312 5.20312C5.20312 7.29671 6.90642 9 9 9Z" fill="white"/>
</g>
<defs>
<clipPath id="clip0">
<rect width="18" height="18" fill="white"/>
</clipPath>
</defs>
</svg>
