<svg width="105" height="120" viewBox="0 0 105 120" fill="none" xmlns="http://www.w3.org/2000/svg">
<path d="M-1.21047e-06 92.3077L-4.0349e-06 27.6923L52.5 -2.29485e-06L105 27.6923L105 92.3077L52.5 120L-1.21047e-06 92.3077Z" fill="#00DFE2"/>
<path d="M39.1875 63.0625C38.9722 63.0625 38.765 63.1478 38.6131 63.3006L34.7886 67.125H33.3505C33.0141 66.1817 32.1204 65.5 31.0625 65.5C29.7186 65.5 28.625 66.5936 28.625 67.9375C28.625 69.2814 29.7186 70.375 31.0625 70.375C32.1204 70.375 33.0141 69.6933 33.3505 68.75H35.125C35.3403 68.75 35.5475 68.6647 35.6994 68.5119L39.5239 64.6875H52.1875V69.0344L45.3576 72.0699C45.0643 72.2007 44.875 72.4916 44.875 72.8125V79.3125C44.875 79.6334 45.0643 79.9243 45.3576 80.0551L52.6701 83.3051C52.7749 83.3514 52.8879 83.375 53 83.375C53.1121 83.375 53.2251 83.3514 53.3299 83.3051L60.6424 80.0551C60.9357 79.9243 61.125 79.6334 61.125 79.3125V72.8125C61.125 72.4916 60.9357 72.2007 60.6424 72.0699L53.8125 69.0344V64.6875H56.25V65.5C56.25 67.7401 58.0724 69.5625 60.3125 69.5625C60.761 69.5625 61.125 69.1985 61.125 68.75V64.6875H66.4761L70.3006 68.5119C70.4525 68.6647 70.6597 68.75 70.875 68.75H72.6495C72.9859 69.6933 73.8796 70.375 74.9375 70.375C76.2814 70.375 77.375 69.2814 77.375 67.9375C77.375 66.5936 76.2814 65.5 74.9375 65.5C73.8796 65.5 72.9859 66.1817 72.6495 67.125H71.2114L67.3869 63.3006C67.235 63.1478 67.0278 63.0625 66.8125 63.0625H64.3409C64.7114 62.5912 64.9616 62.0363 65.0876 61.4375H72.6503C72.9867 62.3808 73.8804 63.0625 74.9383 63.0625C76.2822 63.0625 77.3758 61.9689 77.3758 60.625C77.3758 59.2811 76.2822 58.1875 74.9383 58.1875C73.8804 58.1875 72.9867 58.8692 72.6503 59.8125H65.0819C64.9779 59.3079 64.7853 58.8294 64.5009 58.3979L70.6369 52.2619C70.7897 52.11 70.875 51.9028 70.875 51.6875V49.25H76.5625C77.011 49.25 77.375 48.886 77.375 48.4375V40.3125C77.375 40.0972 77.2897 39.89 77.1369 39.7381L72.2619 34.8631C72.11 34.7103 71.9028 34.625 71.6875 34.625H63.5625C63.114 34.625 62.75 34.989 62.75 35.4375V48.4375C62.75 48.886 63.114 49.25 63.5625 49.25H69.25V51.3511L63.3553 57.2458C62.9231 56.9606 62.4453 56.7494 61.9375 56.6454C61.9586 55.8044 61.6678 54.7986 60.5132 53.657C59.7348 52.8884 58.7533 52.4659 57.7751 52.5016C57.3079 52.513 56.8504 52.604 56.4206 52.7689C55.8324 51.8378 54.8874 51.1894 53.8125 50.9668V49.25H59.5C59.9485 49.25 60.3125 48.886 60.3125 48.4375V40.3125C60.3125 40.0972 60.2272 39.89 60.0744 39.7381L55.1994 34.8631C55.0475 34.7103 54.8403 34.625 54.625 34.625H46.5C46.0515 34.625 45.6875 34.989 45.6875 35.4375V48.4375C45.6875 48.886 46.0515 49.25 46.5 49.25H52.1875V50.966C51.1126 51.1886 50.1676 51.8378 49.5794 52.7681C49.1496 52.6032 48.6921 52.5122 48.2249 52.5008C47.2475 52.4781 46.2652 52.8876 45.4876 53.6562C44.3322 54.7978 44.0414 55.8036 44.0625 56.6446C43.5539 56.7486 43.0769 56.9598 42.6447 57.245L36.75 51.3511V49.25H42.4375C42.886 49.25 43.25 48.886 43.25 48.4375V40.3125C43.25 40.0972 43.1647 39.89 43.0119 39.7381L38.1369 34.8631C37.985 34.7103 37.7778 34.625 37.5625 34.625H29.4375C28.989 34.625 28.625 34.989 28.625 35.4375V48.4375C28.625 48.886 28.989 49.25 29.4375 49.25H35.125V51.6875C35.125 51.9028 35.2103 52.11 35.3631 52.2619L41.4991 58.3979C41.2147 58.8294 41.0221 59.3079 40.9181 59.8125H33.3505C33.0141 58.8692 32.1204 58.1875 31.0625 58.1875C29.7186 58.1875 28.625 59.2811 28.625 60.625C28.625 61.9689 29.7186 63.0625 31.0625 63.0625C32.1204 63.0625 33.0141 62.3808 33.3505 61.4375H40.9132C41.0392 62.0355 41.2894 62.5912 41.6599 63.0625H39.1875ZM31.0625 68.75C30.6148 68.75 30.25 68.3852 30.25 67.9375C30.25 67.4898 30.6148 67.125 31.0625 67.125C31.5102 67.125 31.875 67.4898 31.875 67.9375C31.875 68.3852 31.5102 68.75 31.0625 68.75ZM46.5 74.0629L52.1875 76.5906V81.3129L46.5 78.7852V74.0629ZM53.8125 81.3121V76.5906L59.5 74.0629V78.7852L53.8125 81.3121ZM58.3121 72.8125L53 75.1736L47.6879 72.8125L52.1875 70.8129V72.8125H53.8125V70.8129L58.3121 72.8125ZM74.9375 67.125C75.3852 67.125 75.75 67.4898 75.75 67.9375C75.75 68.3852 75.3852 68.75 74.9375 68.75C74.4898 68.75 74.125 68.3852 74.125 67.9375C74.125 67.4898 74.4898 67.125 74.9375 67.125ZM72.5 37.3989L74.6011 39.5H72.5V37.3989ZM64.375 36.25H70.875V40.3125C70.875 40.761 71.239 41.125 71.6875 41.125H75.75V47.625H64.375V36.25ZM55.4375 37.3989L57.5386 39.5H55.4375V37.3989ZM47.3125 36.25H53.8125V40.3125C53.8125 40.761 54.1765 41.125 54.625 41.125H58.6875V47.625H47.3125V36.25ZM38.375 37.3989L40.4761 39.5H38.375V37.3989ZM30.25 36.25H36.75V40.3125C36.75 40.761 37.114 41.125 37.5625 41.125H41.625V47.625H30.25V36.25ZM74.9375 59.8125C75.3852 59.8125 75.75 60.1773 75.75 60.625C75.75 61.0727 75.3852 61.4375 74.9375 61.4375C74.4898 61.4375 74.125 61.0727 74.125 60.625C74.125 60.1773 74.4898 59.8125 74.9375 59.8125ZM44.8246 58.1859C44.8522 58.1899 44.9335 58.1981 44.9611 58.1989C45.2138 58.207 45.4657 58.0973 45.6266 57.8958C45.7874 57.6951 45.8443 57.4294 45.7793 57.1808C45.6176 56.5674 45.551 55.8792 46.6292 54.8132C47.0907 54.3566 47.6278 54.1193 48.1851 54.1258C48.6523 54.1372 49.1033 54.2818 49.4884 54.5426C49.698 54.684 49.9613 54.7222 50.1993 54.6409C50.439 54.5621 50.6275 54.3761 50.7112 54.138C51.0541 53.1581 51.9738 52.5 53 52.5C54.0262 52.5 54.9459 53.1581 55.2888 54.138C55.3725 54.3761 55.561 54.5621 55.8007 54.6409C56.0404 54.7222 56.3028 54.684 56.5116 54.5426C56.8976 54.2818 57.3485 54.1372 57.8149 54.1258C58.3568 54.1315 58.9093 54.3574 59.3716 54.8132C60.4498 55.8792 60.3832 56.5674 60.2215 57.1808C60.1557 57.4303 60.2126 57.6951 60.3743 57.8958C60.5359 58.0973 60.7821 58.2062 61.0397 58.1989C61.0852 58.1973 61.1299 58.1916 61.125 58.1875C61.8099 58.1875 62.4673 58.4784 62.9287 58.9854C63.3968 59.4997 63.6177 60.1684 63.5511 60.8663C63.4333 62.0981 62.3064 63.0625 60.9852 63.0625H60.3125C59.864 63.0625 59.5 63.4265 59.5 63.875V67.7986C58.5543 67.463 57.875 66.5595 57.875 65.5V63.875C57.875 63.4265 57.511 63.0625 57.0625 63.0625V61.7739L58.4494 60.3869C58.6022 60.235 58.6875 60.0278 58.6875 59.8125V57.375H57.0625V59.4761L55.6756 60.8631C55.5228 61.015 55.4375 61.2222 55.4375 61.4375V63.0625H53.8125V55.75H52.1875V63.0625H50.5625V61.4375C50.5625 61.2222 50.4772 61.015 50.3244 60.8631L48.9375 59.4761V57.375H47.3125V59.8125C47.3125 60.0278 47.3978 60.235 47.5506 60.3869L48.9375 61.7739V63.0625H45.0148C43.6936 63.0625 42.5667 62.0981 42.4489 60.8671C42.3822 60.1684 42.6033 59.4997 43.0713 58.9854C43.5328 58.4784 44.1901 58.1875 44.8246 58.1859ZM31.0625 61.4375C30.6148 61.4375 30.25 61.0727 30.25 60.625C30.25 60.1773 30.6148 59.8125 31.0625 59.8125C31.5102 59.8125 31.875 60.1773 31.875 60.625C31.875 61.0727 31.5102 61.4375 31.0625 61.4375Z" fill="white"/>
<path d="M63.5625 75.25H65.1875V76.875H63.5625V75.25Z" fill="white"/>
<path d="M66.8125 75.25H68.4375V76.875H66.8125V75.25Z" fill="white"/>
<path d="M66.8125 78.5H68.4375V80.125H66.8125V78.5Z" fill="white"/>
<path d="M66.8125 72H68.4375V73.625H66.8125V72Z" fill="white"/>
<path d="M40.8125 75.25H42.4375V76.875H40.8125V75.25Z" fill="white"/>
<path d="M37.5625 75.25H39.1875V76.875H37.5625V75.25Z" fill="white"/>
<path d="M37.5625 78.5H39.1875V80.125H37.5625V78.5Z" fill="white"/>
<path d="M37.5625 72H39.1875V73.625H37.5625V72Z" fill="white"/>
</svg>
