<svg width="40" height="46" viewBox="0 0 40 46" fill="none" xmlns="http://www.w3.org/2000/svg">
<path d="M-4.64013e-07 35.3846L-1.54671e-06 10.6154L20 -8.74228e-07L40 10.6154L40 35.3846L20 46L-4.64013e-07 35.3846Z" fill="#1172E5"/>
<g clip-path="url(#clip0)">
<path d="M27.0703 14H29.9631L23.9448 20.2423C21.7663 22.5019 18.2342 22.5019 16.0557 20.2423L10.0374 14H12.9301L17.502 18.7421C18.8817 20.1732 21.1186 20.1732 22.4985 18.7421L27.0703 14Z" fill="white"/>
<path d="M12.8927 31.3585H10L16.0554 25.0777C18.2339 22.8181 21.766 22.8181 23.9446 25.0777L30 31.3585H27.1073L22.4982 26.5779C21.1184 25.1468 18.8815 25.1468 17.5018 26.5779L12.8927 31.3585Z" fill="white"/>
</g>
<defs>
<clipPath id="clip0">
<rect x="10" y="14" width="20" height="17.3585" fill="white"/>
</clipPath>
</defs>
</svg>
