<svg width="18" height="18" viewBox="0 0 18 18" fill="none" xmlns="http://www.w3.org/2000/svg">
<g clip-path="url(#clip0)">
<path d="M16.928 7.39455L2.40519 1.36845C1.79337 1.11455 1.1022 1.22625 0.601363 1.65979C0.100527 2.09341 -0.108934 2.76148 0.0547531 3.40337L1.48189 8.99996L0.0547531 14.5966C-0.108934 15.2384 0.100491 15.9065 0.601327 16.3401C1.10311 16.7746 1.79446 16.8849 2.40519 16.6315L16.928 10.6054C17.5892 10.331 18 9.71585 18 8.99996C18 8.28407 17.5892 7.66891 16.928 7.39455ZM16.5238 9.63119L2.00097 15.6573C1.75674 15.7586 1.49162 15.7158 1.29169 15.5427C1.09179 15.3696 1.01146 15.1134 1.07678 14.8571L2.43589 9.5273H7.67645C7.96772 9.5273 8.20383 9.29119 8.20383 8.99992C8.20383 8.70865 7.96772 8.47255 7.67645 8.47255H2.43592L1.07678 3.14279C1.01146 2.88657 1.09179 2.63028 1.29169 2.45721C1.49159 2.28413 1.75663 2.24131 2.00093 2.34263L16.5238 8.36873C16.9149 8.53101 16.9453 8.89291 16.9453 8.99996C16.9453 9.10701 16.9149 9.46891 16.5238 9.63119Z" fill="#582BDE"/>
</g>
<defs>
<clipPath id="clip0">
<rect width="18" height="18" fill="white"/>
</clipPath>
</defs>
</svg>
