<svg width="34" height="44" viewBox="0 0 34 44" fill="none" xmlns="http://www.w3.org/2000/svg">
<path d="M30.1956 11.7441H28.8628C26.4794 8.03619 21.5413 6.96258 17.8335 9.34612C17.7547 9.3968 17.6767 9.44885 17.5996 9.50227C18.3932 5.11996 15.4839 0.924033 11.1016 0.130464C6.71921 -0.663196 2.52329 2.24616 1.72972 6.62847C1.399 8.45478 1.70846 10.3393 2.60576 11.964C1.13463 12.4714 0.145239 13.8534 0.138916 15.4095V40.3345C0.141299 42.3579 1.78104 43.9976 3.80436 44H30.1956C32.2189 43.9976 33.8586 42.3579 33.861 40.3345V15.4095C33.8585 13.3861 32.2189 11.7464 30.1956 11.7441ZM22.1212 9.54314C24.4805 9.54104 26.6612 10.7997 27.8394 12.8436C28.4208 13.8459 28.7277 14.9838 28.7294 16.1425C28.7304 16.8919 28.6022 17.6359 28.3504 18.3418H26.7625C27.8646 16.0377 27.098 13.2736 24.9664 11.8664C23.2424 10.7468 21.0208 10.7468 19.2967 11.8664C17.1652 13.2736 16.3986 16.0377 17.5007 18.3418H15.9128C15.661 17.6359 15.5328 16.8919 15.5338 16.1425C15.5305 12.5012 18.4798 9.54644 22.1212 9.54314ZM25.2055 18.1079C25.1531 18.188 25.0976 18.2661 25.0389 18.3418H19.2241C18.7376 17.7113 18.4713 16.9388 18.4661 16.1425C18.4655 14.9132 19.082 13.7657 20.1074 13.0877C21.3385 12.2887 22.9245 12.2887 24.1556 13.0877C25.8319 14.1841 26.3019 16.4317 25.2055 18.1079ZM9.66907 1.48081C13.313 1.48081 16.2669 4.43471 16.2669 8.07862C16.2669 11.7224 13.313 14.6764 9.66907 14.6764C6.02525 14.6764 3.07127 11.7224 3.07127 8.07862C3.07567 4.43654 6.027 1.48521 9.66907 1.48081ZM1.60509 15.4095C1.6094 14.3222 2.40764 13.4012 3.48327 13.2425C6.13705 16.4332 10.7826 17.0812 14.2084 14.7387C14.1197 15.2016 14.0726 15.6714 14.0676 16.1426C14.07 16.8869 14.1764 17.6271 14.3836 18.3419H3.80436C2.58972 18.3419 1.60509 17.3572 1.60509 16.1426V15.4095ZM11.1353 32.2705C10.7304 32.2705 10.4022 31.9423 10.4022 31.5375C10.4022 31.1326 10.7304 30.8044 11.1353 30.8044C11.5401 30.8044 11.8683 31.1326 11.8683 31.5375C11.8683 31.9423 11.5401 32.2705 11.1353 32.2705ZM32.3948 31.5375H19.9323C18.7177 31.5375 17.7331 30.5528 17.7331 29.3382C17.7331 28.1236 18.7177 27.1389 19.9323 27.1389H32.3948V31.5375ZM32.3948 25.6727H19.9323C17.908 25.6727 16.2669 27.3139 16.2669 29.3382C16.2669 31.3625 17.908 33.0036 19.9323 33.0036H32.3948V40.3345C32.3948 41.5492 31.4102 42.5338 30.1956 42.5338H15.5338V39.2349L17.9772 37.4022H19.3341C19.739 38.5473 20.9956 39.1475 22.1407 38.7425C23.2858 38.3377 23.886 37.0811 23.481 35.936C23.0761 34.7909 21.8196 34.1907 20.6745 34.5956C20.0481 34.817 19.5555 35.3098 19.3341 35.936H17.7331C17.5744 35.936 17.4201 35.9874 17.2932 36.0826L14.3608 38.2819C14.1763 38.4203 14.0676 38.6376 14.0676 38.8684V42.5338H11.8683V33.6018C13.0135 33.197 13.6136 31.9404 13.2087 30.7953C12.8038 29.6502 11.5472 29.05 10.4022 29.4549C9.25699 29.8598 8.65686 31.1164 9.0618 32.2615C9.28319 32.8878 9.77592 33.3804 10.4022 33.6018V42.5338H8.2029V36.6691C8.2029 36.4746 8.12555 36.2882 7.9881 36.1508L6.00363 34.1663V30.6695C7.14881 30.2646 7.74893 29.008 7.34399 27.8629C6.93914 26.7178 5.68254 26.1176 4.53745 26.5226C3.39237 26.9275 2.79215 28.184 3.19709 29.3291C3.41848 29.9555 3.91121 30.4481 4.53745 30.6695V34.4698C4.53745 34.6643 4.61479 34.8507 4.75225 34.9881L6.73672 36.9726V42.5338H3.80436C2.58972 42.5338 1.60509 41.5492 1.60509 40.3345V19.0559C2.23583 19.541 3.00859 19.8054 3.80436 19.808H30.1956C30.9913 19.8054 31.7641 19.541 32.3948 19.0559V25.6727ZM20.6654 36.6691C20.6654 36.2642 20.9937 35.936 21.3985 35.936C21.8033 35.936 22.1316 36.2642 22.1316 36.6691C22.1316 37.0739 21.8033 37.4022 21.3985 37.4022C20.9937 37.4022 20.6654 37.0739 20.6654 36.6691ZM5.27054 29.3382C4.86569 29.3382 4.53745 29.01 4.53745 28.6051C4.53745 28.2003 4.86569 27.872 5.27054 27.872C5.67539 27.872 6.00363 28.2003 6.00363 28.6051C6.00363 29.01 5.67539 29.3382 5.27054 29.3382ZM32.3948 16.1426C32.3948 17.3572 31.4102 18.3419 30.1956 18.3419H29.8796C30.3742 16.6517 30.2862 14.8443 29.6296 13.2102H30.1956C31.4102 13.2102 32.3948 14.1949 32.3948 15.4095V16.1426Z" fill="#CDCDF8"/>
<path d="M9.66908 2.94702C6.83496 2.94702 4.53746 5.24452 4.53746 8.07864C4.54066 10.9114 6.83633 13.2071 9.66908 13.2103C12.5032 13.2103 14.8007 10.9128 14.8007 8.07864C14.8007 5.24452 12.5032 2.94702 9.66908 2.94702ZM9.66908 11.7441C7.64474 11.7441 6.00363 10.103 6.00363 8.07864C6.00602 6.05531 7.64575 4.41558 9.66908 4.41319C11.6934 4.41319 13.3345 6.05431 13.3345 8.07864C13.3345 10.103 11.6934 11.7441 9.66908 11.7441Z" fill="#CDCDF8"/>
<path d="M20.6654 0.0146244H19.1992V1.4808H20.6654V0.0146244Z" fill="#CDCDF8"/>
<path d="M20.6654 2.94702H19.1992V6.61246H20.6654V2.94702Z" fill="#CDCDF8"/>
<path d="M23.5977 0.0146244H22.1316V1.4808H23.5977V0.0146244Z" fill="#CDCDF8"/>
<path d="M23.5977 2.94702H22.1316V6.61246H23.5977V2.94702Z" fill="#CDCDF8"/>
</svg>
