<svg width="40" height="46" viewBox="0 0 40 46" fill="none" xmlns="http://www.w3.org/2000/svg">
<path d="M-4.64013e-07 35.3846L-1.54671e-06 10.6154L20 -8.74228e-07L40 10.6154L40 35.3846L20 46L-4.64013e-07 35.3846Z" fill="#2E2E2E"/>
<g clip-path="url(#clip0)">
<path d="M27.1772 16.2136L24.769 17.4405L13.1401 23.3637C13.1008 23.0638 13.081 22.7616 13.0809 22.4592C13.0825 21.2523 13.3993 20.0667 14.0001 19.02C14.6009 17.9732 15.4647 17.1016 16.5059 16.4914C17.5472 15.8812 18.7298 15.5536 19.9367 15.5411C21.1435 15.5286 22.3327 15.8316 23.3864 16.4201L24.7648 15.7177L24.9704 15.6128C23.7077 14.6963 22.2162 14.1468 20.6607 14.025C19.1052 13.9032 17.5463 14.2138 16.1563 14.9225C14.7663 15.6313 13.5993 16.7105 12.7844 18.041C11.9694 19.3715 11.5382 20.9014 11.5383 22.4617C11.5383 22.6772 11.5465 22.8918 11.5629 23.1056C11.5858 23.4084 11.5186 23.7112 11.3699 23.9759C11.2211 24.2406 10.9974 24.4553 10.7269 24.5932L10 24.9638V26.6925L12.14 25.6018L12.833 25.2481L13.5158 24.9004L25.7751 18.6539L27.1526 17.9525L30 16.5013V14.7734L27.1772 16.2136Z" fill="white"/>
<path d="M30 18.2308L14.2122 26.2694L12.8347 26.9726L10 28.417V30.144L12.8152 28.7098L15.2234 27.4828L26.8641 21.5512C26.9035 21.8531 26.9232 22.1572 26.9233 22.4617C26.9226 23.67 26.6058 24.857 26.0045 25.9051C25.4031 26.9531 24.5381 27.8256 23.4954 28.436C22.4526 29.0464 21.2683 29.3734 20.06 29.3846C18.8518 29.3959 17.6616 29.0909 16.6077 28.4999L16.5231 28.5448L15.0288 29.3063C16.2912 30.2228 17.7824 30.7725 19.3377 30.8946C20.8929 31.0167 22.4516 30.7065 23.8416 29.9983C25.2316 29.29 26.3988 28.2113 27.2141 26.8813C28.0294 25.5512 28.4612 24.0217 28.4617 22.4617C28.4617 22.2442 28.4532 22.0267 28.4371 21.8118C28.4143 21.5092 28.4813 21.2065 28.6299 20.9418C28.7785 20.6772 29.002 20.4623 29.2723 20.3243L30 19.9536V18.2308Z" fill="white"/>
</g>
<defs>
<clipPath id="clip0">
<rect x="10" y="14" width="20" height="16.9233" fill="white"/>
</clipPath>
</defs>
</svg>
