<svg width="44" height="44" viewBox="0 0 44 44" fill="none" xmlns="http://www.w3.org/2000/svg">
<path d="M5.13335 21.2668V18.3335H3.66668V21.2668H2.20001V22.7335H3.66668V25.6668H5.13335V22.7335H6.60001V21.2668H5.13335Z" fill="#00DFE2"/>
<path d="M13.2 11.7331H12.4667V8.7998H11V11.7331H10.2667C9.86113 11.7331 9.53333 12.0609 9.53333 12.4665V21.2665C9.53333 21.672 9.86113 21.9998 10.2667 21.9998H13.2C13.6055 21.9998 13.9333 21.672 13.9333 21.2665V12.4665C13.9333 12.0609 13.6055 11.7331 13.2 11.7331ZM12.4667 20.5331H11V13.1998H12.4667V20.5331Z" fill="#00DFE2"/>
<path d="M42.5333 8.80003H41.8V5.8667H40.3333V8.80003H39.6C39.1944 8.80003 38.8666 9.12783 38.8666 9.53337V21.2667C38.8666 21.6722 39.1944 22 39.6 22H42.5333C42.9388 22 43.2666 21.6722 43.2666 21.2667V9.53337C43.2666 9.12783 42.9388 8.80003 42.5333 8.80003ZM41.8 20.5334H40.3333V10.2667H41.8V20.5334Z" fill="#00DFE2"/>
<path d="M20.5333 5.1333H17.6C17.1944 5.1333 16.8666 5.4611 16.8666 5.86663V14.6666C16.8666 15.0722 17.1944 15.4 17.6 15.4H18.3333V18.3333H19.8V15.4H20.5333C20.9388 15.4 21.2666 15.0722 21.2666 14.6666V5.86663C21.2666 5.4611 20.9388 5.1333 20.5333 5.1333ZM19.8 13.9333H18.3333V6.59997H19.8V13.9333Z" fill="#00DFE2"/>
<path d="M27.8667 0H24.9333C24.5278 0 24.2 0.3278 24.2 0.733333V9.53333C24.2 9.93887 24.5278 10.2667 24.9333 10.2667H25.6667V20.5333H27.1333V10.2667H27.8667C28.2722 10.2667 28.6 9.93887 28.6 9.53333V0.733333C28.6 0.3278 28.2722 0 27.8667 0ZM27.1333 8.8H25.6667V1.46667H27.1333V8.8Z" fill="#00DFE2"/>
<path d="M35.2 10.2668H34.4667V6.6001H33V10.2668H32.2667C31.8611 10.2668 31.5333 10.5946 31.5333 11.0001V16.8668C31.5333 17.2723 31.8611 17.6001 32.2667 17.6001H33V25.6668H34.4667V17.6001H35.2C35.6055 17.6001 35.9333 17.2723 35.9333 16.8668V11.0001C35.9333 10.5946 35.6055 10.2668 35.2 10.2668ZM34.4667 16.1334H33V11.7334H34.4667V16.1334Z" fill="#00DFE2"/>
<path d="M21.2667 23.4668C15.6053 23.4668 11 28.0721 11 33.7335C11 39.3948 15.6053 44.0001 21.2667 44.0001C26.928 44.0001 31.5333 39.3948 31.5333 33.7335C31.5333 28.0721 26.928 23.4668 21.2667 23.4668ZM21.2667 42.5335C16.4142 42.5335 12.4667 38.5859 12.4667 33.7335C12.4667 28.881 16.4142 24.9335 21.2667 24.9335C26.1191 24.9335 30.0667 28.881 30.0667 33.7335C30.0667 38.5859 26.1191 42.5335 21.2667 42.5335Z" fill="#00DFE2"/>
<path d="M24.2 32.2667V31.9C24.2 30.6108 23.2408 29.5504 22 29.3708V27.8667H20.5333V29.3708C19.2925 29.5504 18.3333 30.6108 18.3333 31.9C18.3333 33.3154 19.4846 34.4667 20.9 34.4667H21.6333C22.2398 34.4667 22.7333 34.9602 22.7333 35.5667C22.7333 36.1732 22.2398 36.6667 21.6333 36.6667H20.9C20.2935 36.6667 19.8 36.1732 19.8 35.5667V35.2H18.3333V35.5667C18.3333 36.8559 19.2925 37.9163 20.5333 38.096V39.6H22V38.096C23.2408 37.9163 24.2 36.8559 24.2 35.5667C24.2 34.1514 23.0486 33 21.6333 33H20.9C20.2935 33 19.8 32.5065 19.8 31.9C19.8 31.2936 20.2935 30.8 20.9 30.8H21.6333C22.2398 30.8 22.7333 31.2936 22.7333 31.9V32.2667H24.2Z" fill="#00DFE2"/>
<path d="M15.4 33H13.9333V34.4667H15.4V33Z" fill="#00DFE2"/>
<path d="M28.6 33H27.1334V34.4667H28.6V33Z" fill="#00DFE2"/>
<path d="M2.2 33H0.733337V34.4667H2.2V33Z" fill="#00DFE2"/>
<path d="M2.2 35.9331H0.733337V37.3998H2.2V35.9331Z" fill="#00DFE2"/>
<path d="M2.2 30.0669H0.733337V31.5336H2.2V30.0669Z" fill="#00DFE2"/>
<path d="M5.13335 33H3.66669V34.4667H5.13335V33Z" fill="#00DFE2"/>
<path d="M41.8 33H40.3333V34.4667H41.8V33Z" fill="#00DFE2"/>
<path d="M41.8 30.0669H40.3333V31.5336H41.8V30.0669Z" fill="#00DFE2"/>
<path d="M41.8 35.9331H40.3333V37.3998H41.8V35.9331Z" fill="#00DFE2"/>
<path d="M38.8667 33H37.4V34.4667H38.8667V33Z" fill="#00DFE2"/>
</svg>
