<svg width="44" height="44" viewBox="0 0 44 44" fill="none" xmlns="http://www.w3.org/2000/svg">
<path d="M41.0659 0.73291H2.93408C1.3163 0.73291 0 2.0493 0 3.66699V27.8662C0 28.271 0.328539 28.5995 0.733305 28.5995H43.2666C43.6714 28.5995 43.9999 28.271 43.9999 27.8662V3.66699C44 2.0493 42.6837 0.73291 41.0659 0.73291ZM42.5333 27.1329H1.4667V3.66699C1.4667 2.85737 2.12523 2.19961 2.93408 2.19961H41.0659C41.8748 2.19961 42.5333 2.85737 42.5333 3.66699V27.1329Z" fill="#00DFE2"/>
<path d="M43.2667 27.1333H0.733305C0.328539 27.1333 0 27.4618 0 27.8666V31.5325C0 33.1503 1.3163 34.4666 2.93408 34.4666H41.0659C42.6837 34.4666 44 33.1503 44 31.5325V27.8666C44 27.4618 43.6715 27.1333 43.2667 27.1333ZM42.5333 31.5326C42.5333 32.3422 41.8748 33 41.0659 33H2.93408C2.12523 33 1.4667 32.3422 1.4667 31.5326V28.6H42.5334V31.5326H42.5333Z" fill="#00DFE2"/>
<path d="M24.2 30.0664H19.8C19.3952 30.0664 19.0667 30.3949 19.0667 30.7997C19.0667 31.2045 19.3952 31.533 19.8 31.533H24.2C24.6047 31.533 24.9333 31.2045 24.9333 30.7997C24.9333 30.3949 24.6047 30.0664 24.2 30.0664Z" fill="#00DFE2"/>
<path d="M40.3333 3.6665H3.66665C3.26189 3.6665 2.93335 3.99504 2.93335 4.39981V27.8665C2.93335 28.2713 3.26189 28.5998 3.66665 28.5998H40.3334C40.7381 28.5998 41.0667 28.2713 41.0667 27.8665V4.39981C41.0667 3.99504 40.7381 3.6665 40.3333 3.6665ZM39.6 27.1331H4.39996V5.13311H39.6V27.1331Z" fill="#00DFE2"/>
<path d="M31.5333 38.8667H12.4667C11.2538 38.8667 10.2667 39.8538 10.2667 41.0667C10.2667 42.2796 11.2538 43.2667 12.4667 43.2667H31.5334C32.7463 43.2667 33.7334 42.2796 33.7334 41.0667C33.7334 39.8538 32.7463 38.8667 31.5333 38.8667ZM31.5333 41.8H12.4667C12.062 41.8 11.7334 41.4708 11.7334 41.0667C11.7334 40.6626 12.062 40.3334 12.4667 40.3334H31.5334C31.9382 40.3334 32.2667 40.6626 32.2667 41.0667C32.2667 41.4708 31.9382 41.8 31.5333 41.8Z" fill="#00DFE2"/>
<path d="M30.0667 38.8666C27.6334 38.8666 26.4 37.1396 26.4 33.7333C26.4 33.3285 26.0714 33 25.6667 33H18.3334C17.9286 33 17.6001 33.3285 17.6001 33.7333C17.6001 37.1396 16.3666 38.8666 13.9334 38.8666C13.5286 38.8666 13.2001 39.1951 13.2001 39.5999C13.2001 40.0047 13.5286 40.3332 13.9334 40.3332H30.0667C30.4714 40.3332 30.8 40.0047 30.8 39.5999C30.8 39.1951 30.4714 38.8666 30.0667 38.8666ZM17.5054 38.8666C18.4081 37.8664 18.9398 36.3769 19.0468 34.4666H24.9538C25.0601 36.3769 25.5918 37.8664 26.4953 38.8666H17.5054Z" fill="#00DFE2"/>
<path d="M35.0416 22.3404L33.2714 20.5701L34.2562 19.5853C34.4388 19.4027 34.5121 19.1372 34.449 18.8871C34.386 18.6371 34.196 18.4391 33.9489 18.3643L26.6156 16.1643C26.3567 16.0865 26.0774 16.1577 25.8867 16.3484C25.6953 16.5391 25.6249 16.8192 25.7026 17.0773L27.9026 24.4106C27.9767 24.6585 28.1754 24.8484 28.4254 24.9115C28.6747 24.9731 28.941 24.9011 29.1236 24.7186L30.1605 23.6809L31.9307 25.4519C32.0679 25.5898 32.2549 25.6668 32.4492 25.6668C32.6435 25.6668 32.8305 25.5898 32.9677 25.4519L35.0415 23.3773C35.3283 23.0906 35.3283 22.6271 35.0416 22.3404ZM32.4492 23.8965L30.8374 22.2839C30.6504 22.0969 30.4054 22.0038 30.1605 22.0038C29.9148 22.0038 29.6699 22.0976 29.4837 22.2831L28.9542 22.8126L27.4985 17.9601L32.351 19.4158L31.7833 19.9835C31.6271 20.1404 31.5414 20.3487 31.5414 20.5701C31.5414 20.7924 31.6279 21.0021 31.7848 21.1575L33.4861 22.8588L32.4492 23.8965Z" fill="#00DFE2"/>
<path d="M30.8001 6.6001H10.2668C9.86199 6.6001 9.53345 6.92864 9.53345 7.3334V11.0001C9.53345 11.4049 9.86199 11.7334 10.2668 11.7334H30.8001C31.2048 11.7334 31.5334 11.4049 31.5334 11.0001V7.3334C31.5334 6.92864 31.2048 6.6001 30.8001 6.6001ZM30.0668 10.2668H11.0001V8.06679H30.0668V10.2668Z" fill="#00DFE2"/>
<path d="M19.0667 14.6665H13.2C12.7952 14.6665 12.4667 14.995 12.4667 15.3998V18.3331C12.4667 18.7379 12.7952 19.0664 13.2 19.0664H19.0667C19.4714 19.0664 19.8 18.7379 19.8 18.3331V15.3998C19.8 14.995 19.4714 14.6665 19.0667 14.6665ZM18.3333 17.5998H13.9333V16.1331H18.3333V17.5998Z" fill="#00DFE2"/>
<path d="M30.8001 6.6001H10.2668C9.86199 6.6001 9.53345 6.92864 9.53345 7.3334V21.2667C9.53345 21.6715 9.86199 22 10.2668 22H27.7245C27.957 22 28.1748 21.8908 28.3127 21.7045C28.4513 21.5182 28.4938 21.2777 28.4271 21.0555L27.4987 17.9601L30.5897 18.8878C30.8119 18.9546 31.0525 18.912 31.2379 18.7734C31.4241 18.6356 31.5334 18.417 31.5334 18.1852V7.3334C31.5334 6.92864 31.2048 6.6001 30.8001 6.6001ZM30.0668 17.1997L26.6149 16.1643C26.3561 16.0865 26.0767 16.1576 25.886 16.3483C25.6946 16.5397 25.6242 16.8191 25.7019 17.078L26.7388 20.5335H11.0001V8.06679H30.0668V17.1997Z" fill="#00DFE2"/>
</svg>
