<svg width="44" height="44" viewBox="0 0 44 44" fill="none" xmlns="http://www.w3.org/2000/svg">
<g clip-path="url(#clip0)">
<path d="M21.9999 0.00165692H25.6665C33.2567 0.0102504 39.4076 6.16115 39.4161 13.7513V15.2922L43.8856 23.3916C43.9601 23.5273 43.9992 23.6795 43.9993 23.8343C44.0009 23.8864 44.0009 23.9386 43.9993 23.9906C43.9562 25.4662 42.725 26.6275 41.2494 26.5842C40.5827 26.6213 39.9432 26.8608 39.4161 27.2708V30.2507C39.4182 30.3208 39.4182 30.3909 39.4161 30.461C39.3581 32.4279 37.7165 33.9754 35.7496 33.9173H30.2497C30.1976 33.9189 30.1455 33.9189 30.0934 33.9173C28.6178 33.8742 27.4566 32.643 27.4998 31.1674V25.6676H29.333V31.1674C29.3277 31.2219 29.3277 31.2768 29.333 31.3313C29.3783 31.7923 29.7887 32.1293 30.2497 32.0841H35.7496C35.8227 32.0887 35.8961 32.0887 35.9692 32.0841C36.921 32.0234 37.6435 31.2027 37.5828 30.2508V26.8336C37.5827 26.5711 37.6952 26.3211 37.8917 26.1471C38.8111 25.3 40.0005 24.8055 41.2494 24.7511C41.2534 24.7516 41.2576 24.752 41.2616 24.7524C41.7036 24.7993 42.0999 24.479 42.1468 24.0369L37.6965 15.9705C37.6221 15.8348 37.583 15.6825 37.5828 15.5277V13.7513C37.5752 7.1732 32.2445 1.84247 25.6664 1.83491H22.0108C21.9551 1.82898 21.8988 1.82864 21.8429 1.83388C21.3797 1.87745 21.0396 2.28831 21.0832 2.7515V7.33468H19.2499V2.75158C19.2484 2.69951 19.2484 2.64734 19.2499 2.59527C19.2931 1.11967 20.5243 -0.0415685 21.9999 0.00165692Z" fill="#00DFE2"/>
<path d="M6.41657 27.5002H16.4997V29.3334H6.41666C6.36217 29.3281 6.30726 29.3281 6.25278 29.3334C5.79174 29.3787 5.4547 29.7891 5.49999 30.2501V31.9826C5.63198 32.5298 6.51565 35.75 9.16658 35.75C9.67282 35.75 10.0833 36.1604 10.0833 36.6666V42.1665H27.4994V39.4166H29.3326V43.0832C29.3326 43.5894 28.9222 43.9998 28.416 43.9998H9.1665C8.66025 43.9998 8.24983 43.5894 8.24983 43.0832V37.5026C5.3844 36.9609 4.01864 33.9378 3.68495 32.2668C3.67266 32.2064 3.66656 32.145 3.66665 32.0835V30.2502C3.6651 30.1981 3.6651 30.146 3.66665 30.0939C3.70979 28.6182 4.94098 27.457 6.41657 27.5002Z" fill="#00DFE2"/>
<path d="M0.916616 11.0008H3.2275C3.32452 10.7285 3.43554 10.4614 3.56024 10.2006L1.92498 8.56535C1.56714 8.20743 1.56714 7.62719 1.92498 7.26919L4.51816 4.67601C4.87608 4.31818 5.45631 4.31818 5.81432 4.67601L7.44958 6.31127C7.71048 6.18709 7.97756 6.07641 8.24981 5.97947V3.66765C8.24981 3.1614 8.66023 2.75098 9.16648 2.75098H12.833C13.3392 2.75098 13.7497 3.1614 13.7497 3.66765V5.97939C14.2488 6.15564 14.7295 6.38002 15.1851 6.64942L14.2538 8.22788C13.7384 7.92444 13.183 7.69457 12.6039 7.54495C12.1992 7.44046 11.9165 7.07558 11.9164 6.65767V4.58432H10.0831V6.65776C10.0837 7.07549 9.80171 7.44071 9.39747 7.54599C8.81835 7.6956 8.26295 7.92548 7.74752 8.22891C7.38727 8.44177 6.92864 8.38368 6.63285 8.08772L5.16619 6.62107L3.86917 7.91534L5.33583 9.38199C5.63205 9.67752 5.69048 10.1362 5.47788 10.4967C5.17384 11.012 4.94337 11.5674 4.79315 12.1466C4.68874 12.5509 4.32429 12.8336 3.90673 12.8341H1.83329V14.6665H3.90492C4.32248 14.667 4.68694 14.9496 4.79135 15.354C4.94156 15.9332 5.17204 16.4886 5.47608 17.0039C5.68868 17.3643 5.63025 17.823 5.33403 18.1186L3.86737 19.5852L5.16353 20.8814L6.63019 19.4147C6.92598 19.1188 7.38461 19.0607 7.74485 19.2736C8.26029 19.577 8.81569 19.8069 9.39481 19.9565C9.79948 20.061 10.0822 20.4259 10.0823 20.8438V22.9172H11.9155V20.8447C11.9156 20.4268 12.1984 20.0618 12.603 19.9574C13.1821 19.8078 13.7375 19.5779 14.253 19.2745C14.6132 19.0616 15.0719 19.1197 15.3676 19.4157L16.8341 20.8822L18.1303 19.586L16.6636 18.1194C16.3674 17.8238 16.3089 17.3651 16.5216 17.0047C16.8256 16.4893 17.0561 15.9339 17.2063 15.3547C17.3107 14.9504 17.6752 14.6678 18.0927 14.6673H21.0828V16.5005H18.771C18.6743 16.7728 18.5636 17.0399 18.4392 17.3007L20.0745 18.936C20.4323 19.2939 20.4323 19.8742 20.0745 20.2322L17.4813 22.8253C17.1234 23.1832 16.5432 23.1832 16.1851 22.8253L14.5499 21.1901C14.289 21.3143 14.0219 21.4249 13.7497 21.5219V23.8336C13.7497 24.3399 13.3392 24.7503 12.833 24.7503H9.16639C8.66015 24.7503 8.24972 24.3399 8.24972 23.8336V21.5227C7.97748 21.4258 7.71039 21.315 7.44949 21.1909L5.81423 22.8253C5.45631 23.1832 4.87608 23.1832 4.51807 22.8253L1.92489 20.2322C1.56706 19.8742 1.56706 19.294 1.92489 18.936L3.5611 17.3007C3.43641 17.0399 3.32538 16.7728 3.22836 16.5005H0.916616C0.410372 16.5005 -5.34058e-05 16.0901 -5.34058e-05 15.5838V11.9174C3.24249e-05 11.4112 0.410372 11.0008 0.916616 11.0008Z" fill="#00DFE2"/>
<path d="M10.9997 10.084C13.0246 10.084 14.6663 11.7256 14.6663 13.7506C14.6663 15.7756 13.0247 17.4172 10.9997 17.4172C8.97469 17.4172 7.33307 15.7756 7.33307 13.7506C7.33307 11.7256 8.9746 10.084 10.9997 10.084ZM10.9997 15.5838C12.0122 15.5838 12.8329 14.7631 12.8329 13.7506C12.8329 12.7381 12.0122 11.9173 10.9997 11.9173C9.98718 11.9173 9.16641 12.7381 9.16641 13.7506C9.16633 14.7631 9.98709 15.5838 10.9997 15.5838Z" fill="#00DFE2"/>
<path d="M30.2492 14.6675V15.5841H32.9991V14.6675H34.8324V15.5841C34.8329 15.6095 34.8329 15.6348 34.8324 15.6601C34.8114 16.6516 33.9906 17.4384 32.9991 17.4174H30.2492C30.2238 17.4179 30.1986 17.4179 30.1732 17.4174C29.1817 17.3964 28.395 16.5757 28.4159 15.5841V14.6675H30.2492Z" fill="#00DFE2"/>
<path d="M18.3328 25.667C19.8516 25.667 21.0828 26.8982 21.0828 28.4169C21.0828 29.9356 19.8516 31.1668 18.3328 31.1668C16.8141 31.1668 15.5829 29.9356 15.5829 28.4169C15.5829 26.8982 16.8141 25.667 18.3328 25.667ZM18.3328 29.3336C18.8391 29.3336 19.2495 28.9232 19.2495 28.4169C19.2495 27.9107 18.8391 27.5002 18.3328 27.5002C17.8266 27.5002 17.4162 27.9107 17.4162 28.4169C17.4162 28.9232 17.8266 29.3336 18.3328 29.3336Z" fill="#00DFE2"/>
<path d="M28.4158 21.084C29.9346 21.084 31.1658 22.3152 31.1658 23.8339C31.1658 25.3526 29.9346 26.5838 28.4158 26.5838C26.8971 26.5838 25.6659 25.3526 25.6659 23.8339C25.6659 22.3152 26.8971 21.084 28.4158 21.084ZM28.4158 24.7506C28.9221 24.7506 29.3325 24.3401 29.3325 23.8339C29.3325 23.3277 28.9221 22.9172 28.4158 22.9172C27.9096 22.9172 27.4992 23.3277 27.4992 23.8339C27.4993 24.3401 27.9096 24.7506 28.4158 24.7506Z" fill="#00DFE2"/>
<path d="M20.1661 6.41748C21.6848 6.41748 22.916 7.64867 22.916 9.16741C22.916 10.6861 21.6848 11.9173 20.1661 11.9173C18.6474 11.9173 17.4162 10.6861 17.4162 9.16741C17.4162 7.64867 18.6474 6.41748 20.1661 6.41748ZM20.1661 10.0841C20.6723 10.0841 21.0828 9.67365 21.0828 9.16741C21.0828 8.66116 20.6723 8.25074 20.1661 8.25074C19.6599 8.25074 19.2494 8.66116 19.2494 9.16741C19.2494 9.67365 19.6599 10.0841 20.1661 10.0841Z" fill="#00DFE2"/>
<path d="M22.9161 14.6675H24.7494V16.5007H22.9161V14.6675Z" fill="#00DFE2"/>
<path d="M22.9161 18.334H24.7494V20.1672H22.9161V18.334Z" fill="#00DFE2"/>
<path d="M27.4994 35.75H29.3326V37.5833H27.4994V35.75Z" fill="#00DFE2"/>
</g>
<defs>
<clipPath id="clip0">
</clipPath>
</defs>
</svg>
