<svg width="54" height="54" viewBox="0 0 54 54" fill="none" xmlns="http://www.w3.org/2000/svg">
<g clip-path="url(#clip0)">
<path d="M9.49754 41.7603C8.74155 41.7603 8.0148 41.949 7.37004 42.3033C3.97362 37.9494 2.10938 32.5408 2.10938 27C2.10938 13.2751 13.2751 2.10938 27 2.10938C28.6686 2.10938 30.3363 2.27541 31.957 2.60294C32.5272 2.71829 33.0842 2.34915 33.1996 1.77814C33.3149 1.20712 32.9458 0.65094 32.3748 0.535172C30.6168 0.180038 28.8086 0 27 0C19.7882 0 13.0077 2.80852 7.9081 7.9081C2.80852 13.0077 0 19.7882 0 27C0 33.0665 2.05994 38.9868 5.81026 43.7329C5.32741 44.4543 5.06786 45.3021 5.06786 46.19C5.06786 47.3732 5.52887 48.4856 6.36562 49.3219C7.20195 50.1586 8.31432 50.6196 9.49754 50.6196C10.6808 50.6196 11.7931 50.1586 12.6299 49.3219C13.4666 48.4856 13.9272 47.3728 13.9272 46.1895C13.9272 45.0067 13.4666 43.894 12.6299 43.0576C11.7931 42.2209 10.6808 41.7603 9.49754 41.7603ZM11.1381 47.8305C10.7001 48.2688 10.1172 48.5103 9.49754 48.5103C8.87792 48.5103 8.29537 48.2688 7.85701 47.8305C7.41866 47.3921 7.17723 46.8096 7.17723 46.19C7.17723 45.5699 7.41866 44.9874 7.85701 44.549C8.29495 44.1107 8.87792 43.8696 9.49754 43.8696C10.1172 43.8696 10.6997 44.1111 11.1381 44.549C11.5764 44.9874 11.8179 45.5699 11.8179 46.19C11.8179 46.8096 11.5764 47.3921 11.1381 47.8305Z" fill="#FCC501"/>
<path d="M48.1891 10.2659C49.3357 8.54587 49.1516 6.19424 47.635 4.67772C46.7983 3.84138 45.6859 3.38037 44.5027 3.38037C43.3195 3.38037 42.2071 3.84138 41.3703 4.67772C40.5336 5.51447 40.073 6.62683 40.073 7.81006C40.073 8.99329 40.5336 10.1057 41.3703 10.9424C42.2071 11.7791 43.3195 12.2397 44.5027 12.2397C45.2587 12.2397 45.9854 12.0511 46.6302 11.6967C50.0266 16.051 51.8909 21.4592 51.8909 27C51.8909 40.725 40.7252 51.8906 27.0002 51.8906C25.3482 51.8906 23.6961 51.7279 22.0906 51.4066C21.5196 51.2924 20.9638 51.6628 20.8493 52.2338C20.7351 52.8053 21.1055 53.3606 21.6765 53.4751C23.418 53.8233 25.2093 54 27.0002 54C34.2121 54 40.9926 51.1915 46.0921 46.0919C51.1917 40.9923 54.0002 34.2119 54.0002 27C54.0002 20.9331 51.9399 15.0124 48.1891 10.2659ZM42.8622 9.451C42.4238 9.01265 42.1824 8.4301 42.1824 7.81006C42.1824 7.19043 42.4238 6.60788 42.8622 6.16953C43.3001 5.73117 43.8831 5.48975 44.5027 5.48975C45.1223 5.48975 45.7053 5.73117 46.1436 6.16953C47.0479 7.07425 47.0479 8.54628 46.1436 9.451C45.7053 9.88895 45.1223 10.1304 44.5027 10.1304C43.8826 10.1304 43.3001 9.88895 42.8622 9.451Z" fill="#FCC501"/>
<path d="M22.6475 45.1406C22.6475 45.7232 23.12 46.1953 23.7022 46.1953H30.2968C30.8794 46.1953 31.3515 45.7232 31.3515 45.1406V43.0959C32.7383 42.7227 34.064 42.1731 35.3099 41.4554L36.7535 42.899C36.9512 43.0968 37.2195 43.208 37.4996 43.208C37.7789 43.208 38.0475 43.0968 38.2453 42.8986L42.9065 38.2341C43.3181 37.8221 43.3181 37.1543 42.9065 36.7427L41.4646 35.3007C42.1823 34.0549 42.7318 32.7291 43.1051 31.3423H45.142C45.7245 31.3423 46.1967 30.8702 46.1967 30.2877V23.693C46.1967 23.1104 45.7245 22.6383 45.142 22.6383H43.1047C42.7314 21.252 42.1823 19.9262 41.4646 18.6803L42.8987 17.2462C43.0965 17.0484 43.2077 16.7798 43.2077 16.5001C43.2073 16.2204 43.096 15.9517 42.8983 15.754L38.2334 11.0928C37.8218 10.6812 37.1539 10.6812 36.742 11.0932L35.3099 12.5257C34.064 11.808 32.7383 11.2584 31.3515 10.8851V8.85938C31.3515 8.27682 30.8794 7.80469 30.2968 7.80469H23.7022C23.12 7.80469 22.6475 8.27682 22.6475 8.85938V10.8855C21.2611 11.2584 19.9353 11.808 18.6895 12.5257L17.257 11.0932C16.8454 10.6816 16.1776 10.6812 15.7656 11.0928L11.1011 15.7544C10.9029 15.9521 10.7917 16.2204 10.7917 16.5001C10.7917 16.7798 10.9029 17.0484 11.1007 17.2462L12.5348 18.6803C11.8171 19.9262 11.2675 21.2515 10.8943 22.6383H8.86113C8.27858 22.6383 7.80644 23.1104 7.80644 23.6926L7.80274 30.2872C7.80232 30.567 7.91356 30.8356 8.11131 31.0334C8.30907 31.2311 8.57727 31.3423 8.85742 31.3423H10.8943C11.2675 32.7291 11.8171 34.0549 12.5348 35.3007L11.0929 36.7427C10.6813 37.1543 10.6809 37.8221 11.0929 38.2341L15.7541 42.8986C15.9518 43.0963 16.22 43.208 16.4998 43.208H16.5002C16.7799 43.208 17.0481 43.0968 17.2459 42.899L18.6891 41.4554C19.9353 42.1731 21.2611 42.7227 22.6475 43.0959V45.1406ZM19.1027 39.2373C18.6854 38.9674 18.1362 39.0259 17.7844 39.3773L16.5002 40.6615L13.33 37.4888L14.6129 36.2054C14.9643 35.854 15.0228 35.3048 14.753 34.8875C13.7967 33.4076 13.1244 31.7856 12.7552 30.066C12.6506 29.5803 12.2213 29.233 11.724 29.233H9.91252L9.91499 24.7477H11.724C12.2213 24.7477 12.6506 24.4008 12.7552 23.9146C13.1244 22.1954 13.7967 20.5734 14.753 19.0936C15.0228 18.6762 14.9643 18.127 14.6129 17.7756L13.3382 16.5005L16.5109 13.3303L17.7844 14.6041C18.1362 14.9556 18.685 15.0136 19.1027 14.7442C20.5822 13.788 22.2042 13.1156 23.9238 12.7465C24.4095 12.6418 24.7568 12.2121 24.7568 11.7153V9.91406H29.2421V11.7149C29.2421 12.2121 29.589 12.6418 30.0752 12.7461C31.7944 13.1156 33.4168 13.7876 34.8963 14.7438C35.3136 15.0136 35.8628 14.9556 36.2142 14.6037L37.4881 13.3303L40.6608 16.5005L39.3861 17.7752C39.0343 18.127 38.9762 18.6762 39.246 19.0936C40.2022 20.5734 40.8742 22.1954 41.2437 23.9146C41.348 24.4008 41.7777 24.7477 42.2749 24.7477H44.0873V29.233H42.2749C41.7777 29.233 41.3484 29.5803 41.2437 30.066C40.8746 31.7852 40.2022 33.4076 39.246 34.8871C38.9762 35.3048 39.0347 35.854 39.3861 36.2054L40.669 37.4884L37.4988 40.6611L36.2146 39.3773C35.8628 39.0255 35.3136 38.9674 34.8963 39.2373C33.4164 40.1935 31.7944 40.8654 30.0752 41.235C29.589 41.3396 29.2421 41.7689 29.2421 42.2662V44.0859H24.7568V42.2662C24.7568 41.7693 24.4095 41.3396 23.9238 41.235C22.2046 40.8658 20.5826 40.1935 19.1027 39.2373Z" fill="#FCC501"/>
<path d="M35.7147 27C35.7147 22.1946 31.8053 18.2852 26.9999 18.2852C22.1945 18.2852 18.2852 22.1946 18.2852 27C18.2852 31.8054 22.1945 35.7148 26.9999 35.7148C31.8053 35.7148 35.7147 31.8054 35.7147 27ZM20.3945 27C20.3945 23.3576 23.3575 20.3946 26.9999 20.3946C30.6423 20.3946 33.6053 23.358 33.6053 27C33.6053 30.642 30.6423 33.6054 26.9999 33.6054C23.3575 33.6054 20.3945 30.6424 20.3945 27Z" fill="#FCC501"/>
<path d="M36.7114 3.98885C36.9891 3.98885 37.261 3.87596 37.4571 3.67985C37.6532 3.48251 37.7661 3.2106 37.7661 2.93292C37.7661 2.65689 37.6536 2.38457 37.4571 2.18723C37.261 1.99112 36.9891 1.87823 36.7114 1.87823C36.4329 1.87823 36.1622 1.99112 35.9661 2.18723C35.7696 2.38457 35.6567 2.65565 35.6567 2.93292C35.6567 3.21143 35.7696 3.48251 35.9661 3.67985C36.1622 3.87596 36.4329 3.98885 36.7114 3.98885Z" fill="#FCC501"/>
<path d="M17.335 50.0301C17.0577 50.0301 16.7854 50.143 16.5893 50.3391C16.3932 50.5352 16.2803 50.8075 16.2803 51.0848C16.2803 51.3633 16.3932 51.6344 16.5893 51.8305C16.7854 52.0266 17.0577 52.1395 17.335 52.1395C17.6122 52.1395 17.8845 52.0266 18.0807 51.8305C18.2768 51.6344 18.3896 51.362 18.3896 51.0848C18.3896 50.8075 18.2768 50.5352 18.0807 50.3391C17.8845 50.143 17.6122 50.0301 17.335 50.0301Z" fill="#FCC501"/>
</g>
<defs>
<clipPath id="clip0">
<rect width="54" height="54" fill="white"/>
</clipPath>
</defs>
</svg>
