<svg width="42" height="42" viewBox="0 0 42 42" fill="none" xmlns="http://www.w3.org/2000/svg">
<path d="M38.8733 32.8386C38.2365 29.8139 35.8547 27.5317 32.8063 27.0236L25.7415 25.8456V24.8254C30.4963 22.932 33.8706 18.2924 33.8706 12.871C33.8706 5.77364 28.0969 0 20.9996 0C13.9023 0 8.12862 5.77364 8.12862 12.871C8.12862 18.2924 11.5028 22.932 16.2577 24.8254V25.8456L9.19217 27.0236C6.14378 27.5317 3.76265 29.8139 3.1252 32.8386L1.19727 42H40.8026L38.8733 32.8386ZM28.2351 27.6346L26.0985 34.0451L21.9907 30.4507L25.2965 27.1449L28.2351 27.6346ZM20.9996 29.526L17.6125 26.1389V25.2745C18.6937 25.5705 19.8256 25.7419 20.9996 25.7419C22.1736 25.7419 23.3055 25.5705 24.3867 25.2745V26.1389L20.9996 29.526ZM9.48346 12.871C9.48346 6.52084 14.6495 1.35484 20.9996 1.35484C27.3497 1.35484 32.5157 6.52084 32.5157 12.871C32.5157 19.2211 27.3497 24.3871 20.9996 24.3871C14.6495 24.3871 9.48346 19.2211 9.48346 12.871ZM16.7027 27.1449L20.0085 30.4507L15.9007 34.0451L13.7641 27.6346L16.7027 27.1449ZM17.7791 40.6452H8.20788L8.80197 35.3003L7.45594 35.1506L6.84491 40.6452H2.86643L4.45159 33.1177C4.9732 30.6431 6.92146 28.7754 9.41572 28.3602L12.4113 27.8609L15.2598 36.4072L17.3178 34.6066L18.9009 36.7188L17.7791 40.6452ZM19.1875 40.6452L20.3886 36.4431L18.3394 33.7118L20.9691 31.4113L20.9996 31.4417L21.0301 31.4113L23.6591 33.7118L21.6099 36.4431L22.811 40.6452H19.1875ZM34.5439 35.1513L33.1979 35.301L33.7913 40.6452H24.22L23.0982 36.7182L24.6814 34.606L26.7394 36.4065L29.5879 27.8602L32.5835 28.3595C35.0784 28.7754 37.0266 30.6424 37.5476 33.1177L39.1327 40.6452H35.1543L34.5439 35.1513Z" fill="#00DFE2"/>
<path d="M20.6611 4.06451C18.6065 4.06451 16.9353 5.73638 16.9353 7.79032V8.12903H18.2901V7.79032C18.2901 6.4829 19.3537 5.41935 20.6611 5.41935C21.9685 5.41935 23.0321 6.4829 23.0321 7.79032V8.22116C23.0321 8.85455 22.7855 9.44932 22.3377 9.89845L20.3224 11.9131V15.5806H21.6772V12.474L23.2963 10.8556C24.0001 10.1511 24.3869 9.21561 24.3869 8.22048V7.79032C24.3869 5.73638 22.7157 4.06451 20.6611 4.06451Z" fill="#00DFE2"/>
<path d="M20.9998 17.6129C19.8793 17.6129 18.9675 18.5247 18.9675 19.6452C18.9675 20.7656 19.8793 21.6774 20.9998 21.6774C22.1202 21.6774 23.032 20.7656 23.032 19.6452C23.032 18.5247 22.1202 17.6129 20.9998 17.6129ZM20.9998 20.3226C20.6265 20.3226 20.3224 20.0191 20.3224 19.6452C20.3224 19.2712 20.6265 18.9678 20.9998 18.9678C21.373 18.9678 21.6772 19.2712 21.6772 19.6452C21.6772 20.0191 21.373 20.3226 20.9998 20.3226Z" fill="#00DFE2"/>
</svg>
