<svg width="42" height="42" viewBox="0 0 42 42" fill="none" xmlns="http://www.w3.org/2000/svg">
<path d="M21.0125 25.6134C20.2601 25.6134 19.6483 25.0016 19.6483 24.2492C19.64 23.4968 20.2518 22.885 21.0042 22.885C21.7565 22.885 22.3684 23.4968 22.3684 24.2492H23.7325C23.7325 22.9842 22.8561 21.9177 21.6821 21.6118V20.661H20.318V21.6118C19.144 21.9177 18.2676 22.976 18.2676 24.2492C18.2676 25.7539 19.4912 26.9775 20.9959 26.9775C21.7483 26.9775 22.3601 27.5894 22.3601 28.3417C22.3601 29.0941 21.7483 29.7059 20.9959 29.7059C20.2436 29.7059 19.6317 29.0941 19.6317 28.3417H18.2758C18.2758 29.6067 19.1522 30.6732 20.3262 30.9791V31.9299H21.6904V30.9791C22.8644 30.6732 23.7408 29.6149 23.7408 28.3417C23.7408 26.837 22.5172 25.6134 21.0125 25.6134Z" fill="#00DFE2"/>
<path d="M21.0041 18.1063C16.4899 18.1063 12.8108 21.7854 12.8108 26.2996C12.8108 30.8138 16.4899 34.4929 21.0041 34.4929C25.5183 34.4929 29.1974 30.8138 29.1974 26.2996C29.1974 21.7854 25.5183 18.1063 21.0041 18.1063ZM21.0041 33.1205C17.2423 33.1205 14.175 30.0614 14.175 26.2913C14.175 22.5295 17.2423 19.4622 21.0041 19.4622C24.7659 19.4622 27.8332 22.5213 27.8332 26.2913C27.8332 30.0614 24.7659 33.1205 21.0041 33.1205Z" fill="#00DFE2"/>
<path d="M28.2879 11.9303C28.8419 11.426 29.1974 10.715 29.1974 9.90472C29.1974 8.85472 28.5938 7.95354 27.7257 7.49055L29.4537 0L24.4434 1.67008L21.0041 0.297638L17.5647 1.67008L12.5545 0L14.2824 7.49882C13.4143 7.95354 12.8108 8.85472 12.8108 9.91299C12.8108 10.715 13.1663 11.4343 13.7202 11.9386C8.86706 15.6591 5.29541 22.7858 5.29541 29.0362C5.30368 37.0311 11.3143 42 21.0041 42C30.6938 42 36.7045 37.0311 36.7045 29.028C36.7045 22.7776 33.1411 15.6508 28.2879 11.9303ZM17.6143 3.1252L21.0041 1.76929L24.3938 3.1252L27.5769 2.06693L26.3946 7.17638H15.6135L14.4312 2.06693L17.6143 3.1252ZM15.5391 8.54055H26.4608C27.2131 8.54055 27.8249 9.15236 27.8249 9.90472C27.8249 10.6571 27.2131 11.2689 26.4608 11.2689H15.5391C14.7867 11.2689 14.1749 10.6571 14.1749 9.90472C14.1749 9.15236 14.7867 8.54055 15.5391 8.54055ZM21.0041 40.6358C14.0757 40.6358 6.66785 37.585 6.66785 29.028C6.66785 22.9346 10.2726 15.9319 15.0927 12.6C15.1257 12.6083 15.4234 12.6413 15.5391 12.6413H26.4608C26.5848 12.6413 26.8742 12.6083 26.9072 12.6C31.7273 15.9402 35.332 22.9346 35.332 29.028C35.3403 37.585 27.9324 40.6358 21.0041 40.6358Z" fill="#00DFE2"/>
</svg>
