<svg width="42" height="42" viewBox="0 0 42 42" fill="none" xmlns="http://www.w3.org/2000/svg">
<path d="M32.5524 22.4069L28.0106 16.6253C29.6234 14.9719 30.5972 12.8 30.759 10.496H37.7917V11.2657C36.1637 11.6002 34.9947 13.0322 34.9929 14.6942C34.9933 16.6263 36.5599 18.1923 38.4921 18.1919C40.4242 18.1916 41.9902 16.6249 41.9898 14.6928C41.9895 13.0306 40.8197 11.5981 39.1911 11.2657V9.79631C39.1911 9.40991 38.8778 9.09662 38.4914 9.09662H30.759C30.6223 7.15803 29.9082 5.30472 28.7089 3.77545L29.685 2.79937H37.9204C38.3068 3.89238 39.5062 4.46517 40.5991 4.07868C41.6921 3.69227 42.2649 2.49291 41.8784 1.39999C41.4919 0.307066 40.2927 -0.265808 39.1998 0.120598C38.602 0.331905 38.1318 0.802187 37.9205 1.3999H29.3954C29.2098 1.3999 29.0319 1.47372 28.9007 1.60491L27.7707 2.73492C23.8824 -1.00984 17.6944 -0.893433 13.9496 2.99494C12.358 4.64762 11.3984 6.80757 11.2391 9.09653H5.36164L3.07425 3.95177C4.09677 3.41362 4.48947 2.14857 3.9514 1.12606C3.41334 0.103543 2.14821 -0.289073 1.12569 0.248992C0.103262 0.787056 -0.289441 2.0521 0.248624 3.07462C0.531388 3.61198 1.03377 4.00005 1.62518 4.1378L4.26653 10.081C4.379 10.3335 4.62967 10.4961 4.90605 10.4959H11.239C11.4001 12.7734 12.3552 14.9222 13.9377 16.5679L8.03088 22.4747C4.21152 21.9024 0.651385 24.5347 0.0791229 28.354C-0.493139 32.1734 2.13911 35.7335 5.95848 36.3058C6.07375 36.3231 6.18946 36.3374 6.30544 36.3489V39.8831C6.30544 40.2695 6.61873 40.5827 7.00513 40.5827H13.4311C13.8175 41.6758 15.0169 42.2485 16.1098 41.862C17.2027 41.4756 17.7756 40.2763 17.3891 39.1834C17.0026 38.0904 15.8033 37.5176 14.7104 37.9041C14.1126 38.1154 13.6424 38.5856 13.4311 39.1834H7.70483V36.3489C11.5477 35.9658 14.3525 32.5399 13.9694 28.697C13.7102 26.0966 12.0225 23.8576 9.594 22.8924L14.9816 17.5047C18.4903 20.2673 23.4289 20.2872 26.9597 17.553L30.8416 22.4943C25.4815 23.242 21.7424 28.1933 22.4901 33.5533C23.2379 38.9134 28.1892 42.6524 33.5492 41.9047C38.9093 41.157 42.6483 36.2057 41.9006 30.8457C41.244 26.1377 37.3028 22.58 32.5524 22.4069ZM40.5904 14.6942C40.5904 15.8535 39.6507 16.7932 38.4914 16.7932C37.3321 16.7932 36.3923 15.8535 36.3923 14.6942C36.3923 13.5349 37.3321 12.5951 38.4914 12.5951C39.6507 12.5951 40.5904 13.5349 40.5904 14.6942ZM39.8907 1.39999C40.2772 1.39999 40.5904 1.71328 40.5904 2.09968C40.5904 2.48609 40.2772 2.79937 39.8907 2.79937C39.5043 2.79937 39.1911 2.48609 39.1911 2.09968C39.1911 1.71328 39.5043 1.39999 39.8907 1.39999ZM2.10727 2.79937C1.72087 2.79937 1.40758 2.48609 1.40758 2.09968C1.40758 1.71328 1.72087 1.39999 2.10727 1.39999C2.49368 1.39999 2.80697 1.71328 2.80697 2.09968C2.80697 2.48609 2.49368 2.79937 2.10727 2.79937ZM15.4015 39.1834C15.7879 39.1834 16.1012 39.4967 16.1012 39.8831C16.1012 40.2695 15.7879 40.5828 15.4015 40.5828C15.0151 40.5828 14.7018 40.2695 14.7018 39.8831C14.7018 39.4967 15.0151 39.1834 15.4015 39.1834ZM9.80391 34.2282C8.0747 35.2381 5.93556 35.2381 4.20636 34.2282V32.8862C4.20636 31.3405 5.45942 30.0874 7.00513 30.0874C8.55084 30.0874 9.80391 31.3405 9.80391 32.8862V34.2282ZM5.60574 27.2887C5.60574 26.5158 6.23223 25.8893 7.00513 25.8893C7.77803 25.8893 8.40452 26.5158 8.40452 27.2887C8.40452 28.0616 7.77803 28.688 7.00513 28.688C6.23223 28.688 5.60574 28.0615 5.60574 27.2887ZM11.2033 25.6731C12.1078 26.6987 12.6057 28.0201 12.6027 29.3877C12.6024 30.7474 12.1047 32.06 11.2033 33.0779V32.8862C11.2024 31.3565 10.3695 29.9483 9.02935 29.2107C10.0966 28.0926 10.0554 26.321 8.93725 25.2537C7.81914 24.1865 6.04751 24.2277 4.98022 25.3458C3.94791 26.4272 3.94791 28.1292 4.98022 29.2106C3.6403 29.9484 2.80775 31.3565 2.80697 32.8861V33.0778C0.762199 30.7592 0.984177 27.222 3.3027 25.1772C5.62131 23.1325 9.15853 23.3545 11.2033 25.6731ZM25.8969 16.6001C22.9759 18.7207 19.0221 18.7207 16.1012 16.6001V14.9041C16.1012 13.6289 17.135 12.5951 18.4101 12.5951H19.9635L18.9482 15.1336C18.8442 15.3936 18.9054 15.6907 19.1035 15.8885L20.5029 17.2879C20.7762 17.5611 21.2191 17.5611 21.4923 17.2879L22.8917 15.8885C23.0899 15.6906 23.151 15.3936 23.047 15.1336L22.0325 12.5951H23.5879C24.8631 12.5951 25.8969 13.6289 25.8969 14.9041V16.6001ZM21.0992 5.23781C21.0729 5.28154 21.0516 5.32789 21.0355 5.37626C20.6814 6.43769 18.77 6.84002 17.5392 6.95687C17.7269 4.61202 18.8303 3.49898 20.9991 3.49898C22.9848 3.49898 24.0778 4.43797 24.3905 6.39711L22.0591 4.99773C21.7277 4.79901 21.2979 4.9065 21.0992 5.23781ZM21.9639 6.57352L24.4646 8.07437C24.184 9.78722 22.073 11.1957 20.999 11.1957C19.4384 10.9299 18.1402 9.84774 17.5978 8.36054C18.7957 8.26188 20.9584 7.89874 21.9639 6.57352ZM21.577 15.2252L20.999 15.8039L20.4211 15.2252L20.999 13.779L21.577 15.2252ZM24.0518 11.2279C25.1433 10.3689 25.8149 9.08376 25.8969 7.69723C25.8969 3.07086 23.2331 2.09968 20.999 2.09968C18.7649 2.09968 16.1012 3.07086 16.1012 7.69723C16.1825 9.08455 16.8542 10.3706 17.9462 11.23C16.0915 11.4585 14.6991 13.0353 14.7018 14.9041V15.3295C11.6346 11.8517 11.9674 6.5458 15.4454 3.4786C18.9233 0.411408 24.2291 0.744287 27.2963 4.22211C30.095 7.39566 30.095 12.1559 27.2963 15.3294V14.904C27.3 13.0345 25.9073 11.4564 24.0518 11.2279ZM37.092 38.9903C34.171 41.1109 30.2172 41.1109 27.2963 38.9903V37.2943C27.2963 36.0191 28.3301 34.9853 29.6052 34.9853H31.1586L30.1433 37.5238C30.0393 37.7838 30.1005 38.0808 30.2986 38.2787L31.698 39.6781C31.9713 39.9513 32.4142 39.9513 32.6874 39.6781L34.0868 38.2787C34.285 38.0808 34.3461 37.7838 34.2421 37.5238L33.2276 34.9853H34.783C36.0582 34.9853 37.092 36.0191 37.092 37.2943V38.9903ZM33.159 28.9637V28.963L35.6597 30.4639C35.3791 32.1774 33.2681 33.5859 32.1941 33.5859C30.6335 33.3201 29.3353 32.2379 28.7929 30.7507C29.9908 30.6521 32.1535 30.2889 33.159 28.9637ZM28.7341 29.3472C28.9216 27.0025 30.0251 25.8893 32.1941 25.8893C34.1798 25.8893 35.2728 26.8283 35.5855 28.7874L33.2542 27.388C32.9228 27.1892 32.493 27.2967 32.2942 27.6281C32.2679 27.6718 32.2466 27.7182 32.2305 27.7665C31.8765 28.828 29.9649 29.2303 28.7341 29.3472ZM32.7721 37.6154L32.1941 38.1941L31.6162 37.6154L32.1941 36.1692L32.7721 37.6154ZM38.4914 37.7217V37.2942C38.4951 35.4246 37.1024 33.8466 35.2469 33.618C36.3384 32.759 37.01 31.4739 37.092 30.0873C37.092 25.461 34.4282 24.4898 32.1941 24.4898C29.96 24.4898 27.2963 25.461 27.2963 30.0873C27.3776 31.4747 28.0493 32.7607 29.1413 33.6201C27.2866 33.8486 25.8942 35.4254 25.8969 37.2942V37.7196C22.8368 34.2391 23.1778 28.9368 26.6583 25.8768C30.1389 22.8167 35.4411 23.1577 38.5012 26.6382C39.8495 28.1718 40.5923 30.1444 40.5904 32.1863C40.59 34.2259 39.8434 36.1948 38.4914 37.7217Z" fill="#00DFE2"/>
</svg>
