<svg width="42" height="42" viewBox="0 0 42 42" fill="none" xmlns="http://www.w3.org/2000/svg">
<g clip-path="url(#clip0)">
<path d="M41.9867 38.5873L39.3749 25.528V3.2814C39.3749 2.91899 39.0811 2.62515 38.7186 2.62515H3.28149C2.91908 2.62515 2.62525 2.91899 2.62525 3.2814V25.528L0.0133975 38.5873C-0.0591175 38.9424 0.169994 39.2891 0.525103 39.3615C0.568333 39.3703 0.612384 39.3748 0.656516 39.3748H41.3436C41.706 39.3749 41.9999 39.0811 42 38.7187C42 38.6746 41.9956 38.6306 41.9867 38.5873ZM3.93773 3.93764H38.0624V24.9374H3.93773V3.93764ZM1.45713 38.0623L3.81961 26.2499H38.1805L40.543 38.0623H1.45713Z" fill="#00DFE2"/>
<path d="M38.7848 35.9623L37.2098 28.0874C37.1474 27.7818 36.8786 27.5623 36.5667 27.5624H5.43316C5.12128 27.5623 4.85239 27.7818 4.79004 28.0874L3.21506 35.9623C3.14254 36.3174 3.37165 36.6641 3.72676 36.7365C3.76999 36.7454 3.81404 36.7498 3.85818 36.7498H38.1417C38.5041 36.7499 38.798 36.4561 38.7981 36.0937C38.7981 36.0496 38.7936 36.0056 38.7848 35.9623ZM21.6562 28.8749H28.2757L28.4542 30.8436H21.6562V28.8749ZM11.8191 35.4373H4.65945L5.31569 32.1561H12.1078L11.8125 35.3783C11.8125 35.3986 11.8191 35.417 11.8191 35.4373ZM12.2273 30.8436H5.57819L5.97194 28.8749H12.4064L12.2273 30.8436ZM20.3437 35.4373H13.125L13.4236 32.1561H20.3437V35.4373ZM20.3437 30.8436H13.5456L13.7241 28.8749H20.3437V30.8436ZM21.6562 35.4373V32.1561H28.5736L28.8748 35.4373H21.6562ZM29.5967 28.8749H36.0279L36.4223 30.8436H29.7726L29.5967 28.8749ZM30.1781 35.4373C30.1781 35.417 30.1867 35.3986 30.1847 35.3783L29.892 32.1561H36.6841L37.3404 35.4373H30.1781Z" fill="#00DFE2"/>
<path d="M36.0937 5.25012H5.90649C5.54408 5.25012 5.25024 5.54396 5.25024 5.90637V22.9687C5.25024 23.3311 5.54408 23.6249 5.90649 23.6249H36.0937C36.4561 23.6249 36.7499 23.3311 36.7499 22.9687V5.90637C36.7499 5.54396 36.4561 5.25012 36.0937 5.25012ZM35.4375 22.3125H6.56273V6.56261H35.4375V22.3125Z" fill="#00DFE2"/>
</g>
<defs>
<clipPath id="clip0">
<rect width="42" height="42" fill="white"/>
</clipPath>
</defs>
</svg>
