<svg width="32" height="32" viewBox="0 0 32 32" fill="none" xmlns="http://www.w3.org/2000/svg">
<path d="M0.565214 15.4288L7.93865 18.1808L10.7926 27.3592C10.9752 27.947 11.6941 28.1643 12.1712 27.7742L16.2813 24.4236C16.7121 24.0725 17.3257 24.055 17.776 24.3819L25.1891 29.764C25.6995 30.1349 26.4226 29.8553 26.5506 29.2385L31.9811 3.11681C32.1208 2.4431 31.4589 1.88107 30.8174 2.12918L0.556574 13.8029C-0.190199 14.0909 -0.183692 15.1482 0.565214 15.4288ZM10.3327 16.7158L24.7431 7.84043C25.0021 7.68139 25.2686 8.03158 25.0462 8.23787L13.1534 19.2928C12.7353 19.6819 12.4657 20.2027 12.3893 20.7679L11.9842 23.7701C11.9305 24.171 11.3675 24.2108 11.2568 23.8228L9.69876 18.3482C9.52031 17.7237 9.78036 17.0568 10.3327 16.7158Z" fill="white"/>
</svg>
