<svg width="54" height="54" viewBox="0 0 54 54" fill="none" xmlns="http://www.w3.org/2000/svg">
<g clip-path="url(#clip0)">
<path d="M40.6335 12.8587L18.4251 26.5369C17.1683 27.3127 16.5736 28.8451 16.9785 30.2624L19.3798 38.6999C19.5849 39.4193 20.2251 39.8975 20.9617 39.8975C21.0028 39.8975 21.0442 39.896 21.0858 39.8929C21.8732 39.8358 22.4963 39.2493 22.601 38.4675L23.2254 33.841C23.3096 33.2186 23.6095 32.6395 24.0693 32.2115L42.396 15.1758C42.9498 14.6623 43.023 13.8214 42.5667 13.2199C42.1096 12.6179 41.279 12.4622 40.6335 12.8587ZM22.6039 30.6364C21.7804 31.4029 21.2439 32.4387 21.0933 33.5531L20.7905 35.7973L19.0474 29.6725C18.9057 29.1764 19.1143 28.6398 19.5541 28.3684L35.8235 18.3481L22.6039 30.6364Z" fill="#FCC501"/>
<path d="M53.1215 3.94265C52.4276 3.35455 51.4701 3.19266 50.6221 3.52024L1.5905 22.4352C0.619447 22.8097 -0.00492773 23.724 2.93009e-05 24.7645C0.0050918 25.8059 0.638643 26.7151 1.61539 27.0811L13.0682 31.3557L17.5358 45.7231C17.7811 46.513 18.4003 47.1267 19.192 47.3649C19.9832 47.6028 20.8377 47.4327 21.4764 46.9103L28.1357 41.4815C28.4555 41.2208 28.9122 41.2079 29.2461 41.4504L41.2572 50.1706C41.6893 50.4847 42.1992 50.6464 42.7151 50.6464C43.0173 50.6464 43.3214 50.5909 43.6134 50.4781C44.4029 50.1728 44.9771 49.496 45.149 48.6679L53.9481 6.34238C54.1329 5.45116 53.8162 4.53169 53.1215 3.94265ZM51.8417 5.90521L43.0427 48.2307C43.0108 48.3836 42.9007 48.4472 42.8378 48.4715C42.7746 48.496 42.6496 48.5231 42.5218 48.4301L30.5102 39.7094C29.9733 39.3196 29.342 39.1261 28.7118 39.1261C28.0243 39.1261 27.3378 39.3565 26.7767 39.8136L20.116 45.2437C19.9974 45.3407 19.8743 45.3234 19.8117 45.3045C19.7486 45.2855 19.6361 45.2318 19.5903 45.0845L14.966 30.2128C14.8672 29.895 14.6268 29.6408 14.315 29.5244L2.36907 25.0659C2.19019 24.999 2.15212 24.8594 2.15159 24.7541C2.15106 24.6496 2.18777 24.5107 2.36495 24.4424L51.3966 5.52752C51.3968 5.52742 51.3972 5.52731 51.3975 5.52721C51.5567 5.46572 51.6745 5.53638 51.7307 5.58384C51.787 5.63183 51.8766 5.7373 51.8417 5.90521Z" fill="#FCC501"/>
<path d="M45.0858 26.5931C44.5051 26.467 43.9324 26.8356 43.8064 27.4162L43.6429 28.1692C43.5168 28.7498 43.8853 29.3226 44.466 29.4487C44.5428 29.4653 44.6195 29.4733 44.6952 29.4733C45.1904 29.4733 45.636 29.1293 45.7455 28.6257L45.909 27.8726C46.0349 27.292 45.6663 26.7192 45.0858 26.5931Z" fill="#FCC501"/>
<path d="M44.0104 31.548C43.429 31.422 42.8568 31.7905 42.7308 32.3711L40.2566 43.7671C40.1306 44.3477 40.4991 44.9205 41.0796 45.0465C41.1566 45.0632 41.2333 45.0712 41.3089 45.0712C41.8042 45.0712 42.2497 44.7272 42.3592 44.2236L44.8333 32.8275C44.9594 32.2469 44.5909 31.6741 44.0104 31.548Z" fill="#FCC501"/>
</g>
<defs>
<clipPath id="clip0">
<rect width="54" height="54" fill="white"/>
</clipPath>
</defs>
</svg>
