<svg width="76" height="88" viewBox="0 0 76 88" fill="none" xmlns="http://www.w3.org/2000/svg">
<g filter="url(#filter0_d)">
<path d="M8 58.7008L8 20.4102L38 3.99998L68 20.4102L68 58.7008L38 75.1111L8 58.7008Z" fill="#00DFE2"/>
</g>
<g clip-path="url(#clip0)">
<path d="M34.27 34.6676C33.0918 34.6676 32.1367 35.6227 32.1367 36.8008C32.1367 37.979 33.0918 38.9341 34.27 38.9341C35.4481 38.9341 36.4032 37.979 36.4032 36.8008C36.4032 35.6227 35.4482 34.6676 34.27 34.6676ZM34.27 37.8675C33.6809 37.8675 33.2033 37.39 33.2033 36.8008C33.2033 36.2117 33.6809 35.7342 34.27 35.7342C34.8591 35.7342 35.3366 36.2117 35.3366 36.8008C35.3366 37.39 34.8591 37.8675 34.27 37.8675Z" fill="white"/>
<path d="M40.7639 24.0366C35.8797 23.6669 31.2621 26.3066 29.1026 30.703C28.3437 32.241 24.8494 42.0753 24.7011 42.4934C24.6052 42.7718 24.753 43.0754 25.0315 43.1714C25.0869 43.1905 25.145 43.2003 25.2035 43.2005H28.4034V42.1339H25.9597C26.7954 39.7932 29.4422 32.4207 30.0587 31.1701C32.0268 27.1637 36.2356 24.759 40.6865 25.0979C41.1811 25.1337 41.6725 25.2039 42.1574 25.308L42.3814 24.268C41.8483 24.1534 41.3078 24.0761 40.7639 24.0366Z" fill="white"/>
<path d="M50.4394 38.7986C50.3419 39.166 50.2253 39.5281 50.0901 39.8834C48.5 43.8943 47.657 48.1622 47.6027 52.4764V52.8001H35.3366V50.6669H37.4608C38.65 50.6629 39.6942 49.8754 40.0249 48.7331L41.7155 42.8134L40.6905 42.5201L38.9994 48.4398C38.8008 49.1252 38.1743 49.5977 37.4608 49.6003H32.1367V50.6669H34.27V53.3335C34.27 53.628 34.5087 53.8668 34.8033 53.8668H48.136C48.4305 53.8668 48.6693 53.628 48.6693 53.3335V52.4764C48.724 48.2922 49.5431 44.1533 51.0863 40.2636C51.2352 39.8733 51.3635 39.4755 51.4708 39.0717L50.4394 38.7986Z" fill="white"/>
<path d="M31.3368 44.2672H24.6705C23.1985 44.2689 22.0056 45.4618 22.0039 46.9337V55.4667C22.0039 55.7612 22.2427 56 22.5372 56H29.2036C30.2345 55.9993 31.0696 55.163 31.0688 54.1321C31.0685 53.6309 30.8666 53.1509 30.5086 52.8001C31.245 52.0812 31.259 50.9014 30.5401 50.1651C30.5297 50.1545 30.5193 50.144 30.5086 50.1336C31.0777 49.5766 31.2308 48.72 30.8899 48.0004H31.3368C32.3677 48.0004 33.2034 47.1647 33.2034 46.1338C33.2034 45.1029 32.3677 44.2672 31.3368 44.2672ZM31.3368 46.9337H26.2704C25.9759 46.9337 25.7371 47.1725 25.7371 47.467C25.7371 47.7616 25.9759 48.0004 26.2704 48.0004H29.2036C29.6454 48.0004 30.0036 48.3585 30.0036 48.8003C30.0036 49.2421 29.6454 49.6003 29.2036 49.6003H26.2704C25.9759 49.6003 25.7371 49.8391 25.7371 50.1336C25.7371 50.4281 25.9759 50.6669 26.2704 50.6669H29.2036C29.6454 50.6669 30.0036 51.0251 30.0036 51.4669C30.0036 51.9086 29.6454 52.2668 29.2036 52.2668H26.2704C25.9759 52.2668 25.7371 52.5056 25.7371 52.8001C25.7371 53.0947 25.9759 53.3335 26.2704 53.3335H29.2036C29.6454 53.3335 30.0036 53.6916 30.0036 54.1334C30.0036 54.5752 29.6454 54.9334 29.2036 54.9334H23.0705V46.9337C23.0705 46.0501 23.7868 45.3338 24.6705 45.3338H31.3368C31.7786 45.3338 32.1368 45.692 32.1368 46.1338C32.1368 46.5755 31.7787 46.9337 31.3368 46.9337Z" fill="white"/>
<path d="M53.5361 28.0012C52.7749 26.7201 51.2866 26.0607 49.8264 26.3576C49.2084 24.5402 47.2342 23.568 45.4169 24.186C44.3951 24.5334 43.5928 25.3358 43.2454 26.3576C41.7851 26.06 40.2964 26.7196 39.5357 28.0012C38.794 29.2834 38.9602 30.8971 39.9479 32.0011C38.9602 33.105 38.794 34.7187 39.5357 36.0009C40.2973 37.2814 41.7855 37.94 43.2454 37.6424C43.8634 39.4597 45.8376 40.4319 47.6549 39.814C48.6767 39.4665 49.479 38.6642 49.8265 37.6424C51.2864 37.9405 52.775 37.2818 53.5362 36.0009C54.2779 34.7187 54.1117 33.105 53.124 32.0011C54.1115 30.8971 54.2779 29.2834 53.5361 28.0012ZM52.6157 35.4676C52.0062 36.4903 50.7445 36.9196 49.6377 36.4809C49.3639 36.3721 49.0539 36.5059 48.9451 36.7796C48.9297 36.8185 48.9189 36.8591 48.9129 36.9006C48.7098 38.213 47.4813 39.1124 46.1689 38.9094C45.133 38.7492 44.3203 37.9365 44.1601 36.9006C44.1224 36.6382 43.8978 36.4432 43.6326 36.443C43.565 36.4431 43.4981 36.4559 43.4353 36.4809C42.3282 36.9198 41.0662 36.4905 40.4562 35.4676C39.8679 34.4473 40.1232 33.1493 41.0541 32.4277C41.2871 32.2475 41.3299 31.9125 41.1496 31.6795C41.122 31.6437 41.0898 31.6117 41.0541 31.584C40.1179 30.8615 39.8622 29.557 40.4562 28.5345C41.0666 27.5124 42.3278 27.0834 43.4348 27.5212C43.7085 27.63 44.0186 27.4962 44.1273 27.2225C44.1428 27.1836 44.1536 27.143 44.1596 27.1015C44.3626 25.7891 45.5912 24.8897 46.9036 25.0927C47.9394 25.2529 48.7522 26.0656 48.9123 27.1015C48.9543 27.3931 49.2246 27.5954 49.5161 27.5535C49.5576 27.5476 49.5982 27.5367 49.6371 27.5212C50.7441 27.0827 52.0058 27.5119 52.6157 28.5345C53.2056 29.5555 52.9502 30.8552 52.0178 31.5771C51.7848 31.7573 51.742 32.0922 51.9223 32.3252C51.95 32.361 51.9821 32.3931 52.0178 32.4208C52.9524 33.143 53.208 34.4456 52.6157 35.4676Z" fill="white"/>
<path d="M47.0695 31.4677H46.0029V32.5344H47.0695V31.4677Z" fill="white"/>
<path d="M44.9358 31.4677H43.8691V32.5344H44.9358V31.4677Z" fill="white"/>
<path d="M49.2024 31.4677H48.1357V32.5344H49.2024V31.4677Z" fill="white"/>
</g>
<defs>
<filter id="filter0_d" x="0" y="-3.05176e-05" width="76" height="87.1111" filterUnits="userSpaceOnUse" color-interpolation-filters="sRGB">
<feFlood flood-opacity="0" result="BackgroundImageFix"/>
<feColorMatrix in="SourceAlpha" type="matrix" values="0 0 0 0 0 0 0 0 0 0 0 0 0 0 0 0 0 0 127 0"/>
<feOffset dy="4"/>
<feGaussianBlur stdDeviation="4"/>
<feColorMatrix type="matrix" values="0 0 0 0 0 0 0 0 0 0.87451 0 0 0 0 0.886275 0 0 0 0.2 0"/>
<feBlend mode="normal" in2="BackgroundImageFix" result="effect1_dropShadow"/>
<feBlend mode="normal" in="SourceGraphic" in2="effect1_dropShadow" result="shape"/>
</filter>
<clipPath id="clip0">
<rect x="22" y="24" width="32" height="32" fill="white"/>
</clipPath>
</defs>
</svg>
