<svg width="18" height="18" viewBox="0 0 18 18" fill="none" xmlns="http://www.w3.org/2000/svg">
<path d="M15.8906 2.10938V1.58203C15.8906 0.709699 15.1809 0 14.3086 0C13.4363 0 12.7266 0.709699 12.7266 1.58203V2.10938H5.27344V1.58203C5.27344 0.709699 4.56374 0 3.69141 0C2.81907 0 2.10938 0.709699 2.10938 1.58203V2.10938H0V18H18V2.10938H15.8906ZM13.7812 1.58203C13.7812 1.29125 14.0178 1.05469 14.3086 1.05469C14.5994 1.05469 14.8359 1.29125 14.8359 1.58203V3.69141H13.7812V1.58203ZM3.16406 1.58203C3.16406 1.29125 3.40063 1.05469 3.69141 1.05469C3.98218 1.05469 4.21875 1.29125 4.21875 1.58203V3.69141H3.16406V1.58203ZM2.10938 3.16406V4.74609H5.27344V3.16406H12.7266V4.74609H15.8906V3.16406H16.9453V5.80078H1.05469V3.16406H2.10938ZM1.05469 16.9453V6.85547H16.9453V16.9453H1.05469Z" fill="#626791"/>
<path d="M2.10938 15.8906H15.8906V7.91016H2.10938V15.8906ZM3.16406 8.96484H14.8359V14.8359H3.16406V8.96484Z" fill="#626791"/>
</svg>
