<svg width="105" height="120" viewBox="0 0 105 120" fill="none" xmlns="http://www.w3.org/2000/svg">
<path d="M-1.21047e-06 92.3077L-4.0349e-06 27.6923L52.5 -1.34117e-06L105 27.6923L105 92.3077L52.5 120L-1.21047e-06 92.3077Z" fill="#00DFE2"/>
<g clip-path="url(#clip0)">
<path d="M64.1194 58.3764L66.3666 60.6236L77.5225 49.4676C78.1405 48.8459 78.1405 47.8421 77.5225 47.2204L66.3666 36.0645L64.1194 38.3275L72.5661 46.7583H27.002V49.9457H72.5661L64.1194 58.3764Z" fill="white"/>
<path d="M78 69.0701H32.4358L40.8825 60.6394L38.6194 58.3763L27.4635 69.5323C26.8455 70.1539 26.8455 71.1578 27.4635 71.7794L38.6194 82.9354L40.8666 80.6882L32.4358 72.2575H78V69.0701Z" fill="white"/>
</g>
<defs>
<clipPath id="clip0">
<rect x="27" y="34" width="51" height="51" fill="white"/>
</clipPath>
</defs>
</svg>
