<svg width="40" height="46" viewBox="0 0 40 46" fill="none" xmlns="http://www.w3.org/2000/svg">
<path d="M-4.64013e-07 35.3846L-1.54671e-06 10.6154L20 -8.74228e-07L40 10.6154L40 35.3846L20 46L-4.64013e-07 35.3846Z" fill="#E61127"/>
<g clip-path="url(#clip0)">
<path d="M29.2334 20.025C28.2959 19.1593 26.999 17.8375 25.9428 16.9L25.8803 16.8562C25.7763 16.7727 25.659 16.7072 25.5334 16.6625C22.9865 16.1875 11.1334 13.9718 10.9021 14C10.8374 14.009 10.7754 14.0325 10.7209 14.0687L10.6615 14.1156C10.5884 14.1898 10.5329 14.2795 10.499 14.3781L10.4834 14.4187V14.6406V14.675C11.8178 18.3906 17.0865 30.5625 18.124 33.4187C18.1865 33.6125 18.3053 33.9812 18.5271 34H18.5771C18.6959 34 19.2021 33.3312 19.2021 33.3312C19.2021 33.3312 28.2521 22.3562 29.1678 21.1875C29.2863 21.0435 29.3909 20.8886 29.4803 20.725C29.5031 20.5969 29.4923 20.4651 29.4491 20.3424C29.4058 20.2198 29.3315 20.1104 29.2334 20.025ZM21.524 21.3031L25.3865 18.1L27.6521 20.1875L21.524 21.3031ZM20.024 21.0937L13.374 15.6437L24.1334 17.6281L20.024 21.0937ZM20.624 22.5218L27.4303 21.425L19.649 30.8L20.624 22.5218ZM12.4709 16.1875L19.4678 22.125L18.4553 30.8062L12.4709 16.1875Z" fill="white"/>
</g>
<defs>
<clipPath id="clip0">
<rect x="10" y="14" width="20" height="20" fill="white"/>
</clipPath>
</defs>
</svg>
