<svg width="105" height="120" viewBox="0 0 105 120" fill="none" xmlns="http://www.w3.org/2000/svg">
<path d="M-1.21047e-06 92.3077L-4.0349e-06 27.6923L52.5 -2.29485e-06L105 27.6923L105 92.3077L52.5 120L-1.21047e-06 92.3077Z" fill="#00DFE2"/>
<g clip-path="url(#clip0)">
<path d="M53 34C38.6408 34 27 45.6408 27 60C27 74.3592 38.6408 86 53 86C53.7833 86 54.5636 85.9649 55.3402 85.8951C56.0621 85.8303 56.7777 85.7313 57.4878 85.6073L57.7607 85.5591C70.9626 83.0953 80.1163 70.9827 78.8815 57.6095C77.6467 44.2362 66.4299 34.0042 53 34V34ZM50.9112 84.1748H50.8498C50.1757 84.1152 49.5067 84.025 48.8436 83.9095C48.8055 83.9027 48.7674 83.8985 48.7301 83.8913C48.0818 83.7754 47.4403 83.6315 46.8051 83.4635L46.6515 83.4241C46.032 83.2561 45.4192 83.061 44.8153 82.8444C44.7527 82.8219 44.6896 82.8021 44.627 82.7788C44.035 82.5613 43.4535 82.3175 42.881 82.0539C42.8099 82.0221 42.7388 81.9917 42.6677 81.9578C42.1062 81.698 41.5556 81.4051 41.0156 81.0971C40.9395 81.0539 40.8624 81.0107 40.7863 80.968C40.2548 80.6578 39.7355 80.3252 39.226 79.974C39.149 79.9202 39.0711 79.8682 38.9945 79.8144C38.4939 79.4594 38.006 79.0823 37.5308 78.6879L37.4 78.5737V71.2667C37.4063 66.004 41.6707 61.7397 46.9333 61.7333H59.0667C64.3293 61.7397 68.5937 66.004 68.6 71.2667V78.5745L68.4849 78.6706C68.0004 79.0751 67.5031 79.4577 66.9924 79.8191C66.9246 79.8665 66.8561 79.9118 66.7888 79.9583C66.2734 80.3163 65.7452 80.6532 65.2044 80.9697C65.1367 81.009 65.0673 81.0463 65 81.0852C64.452 81.3971 63.8947 81.6916 63.3264 81.957C63.2612 81.9874 63.1956 82.0158 63.1296 82.0437C62.5524 82.3099 61.9659 82.5549 61.3696 82.7741C61.3104 82.7961 61.2507 82.8152 61.1961 82.8359C60.5893 83.0534 59.974 83.2502 59.351 83.419L59.2017 83.4563C58.5656 83.6243 57.9237 83.769 57.2745 83.8854C57.2373 83.8922 57.2 83.8968 57.1628 83.9027C56.4988 84.0187 55.8289 84.1088 55.1544 84.1689H55.093C54.3999 84.2286 53.7063 84.2607 53.0042 84.2607C52.3022 84.2607 51.6031 84.2345 50.9112 84.1748ZM70.3333 76.9677V71.2667C70.3261 65.0472 65.2861 60.0072 59.0667 60H46.9333C40.7139 60.0072 35.6739 65.0472 35.6667 71.2667V76.9669C26.3322 67.4399 26.4363 52.1653 35.8994 42.7661C45.3625 33.3674 60.6375 33.3674 70.1006 42.7661C79.5637 52.1653 79.6678 67.4399 70.3333 76.9669V76.9677Z" fill="white"/>
<path d="M53.0007 40.9333C48.2141 40.9333 44.334 44.8135 44.334 49.6C44.334 54.3866 48.2141 58.2667 53.0007 58.2667C57.7872 58.2667 61.6673 54.3866 61.6673 49.6C61.6622 44.8156 57.7851 40.9384 53.0007 40.9333ZM53.0007 56.5333C49.1713 56.5333 46.0673 53.4293 46.0673 49.6C46.0673 45.7707 49.1713 42.6667 53.0007 42.6667C56.83 42.6667 59.934 45.7707 59.934 49.6C59.9298 53.4272 56.8279 56.5291 53.0007 56.5333Z" fill="white"/>
</g>
<defs>
<clipPath id="clip0">
<rect x="27" y="34" width="52" height="52" fill="white"/>
</clipPath>
</defs>
</svg>
