<svg width="32" height="32" viewBox="0 0 32 32" fill="none" xmlns="http://www.w3.org/2000/svg">
<g clip-path="url(#clip0)">
<path d="M16 0C7.16354 0 0 7.16354 0 16C0 24.8365 7.16354 32 16 32C16.482 32 16.9622 31.9784 17.4401 31.9354C17.8844 31.8956 18.3247 31.8346 18.7617 31.7583L18.9297 31.7286C27.0539 30.2125 32.687 22.7586 31.9271 14.5289C31.1672 6.29922 24.2646 0.00260417 16 0V0ZM14.7146 30.8768H14.6768C14.262 30.8401 13.8503 30.7846 13.4422 30.7135C13.4187 30.7094 13.3953 30.7068 13.3724 30.7023C12.9734 30.631 12.5786 30.5424 12.1878 30.4391L12.0932 30.4148C11.712 30.3115 11.3349 30.1914 10.9633 30.0581C10.9247 30.0443 10.8859 30.032 10.8474 30.0177C10.4831 29.8839 10.1253 29.7339 9.77292 29.5716C9.72917 29.5521 9.68542 29.5333 9.64167 29.5125C9.29609 29.3526 8.95729 29.1724 8.625 28.9828C8.57812 28.9563 8.53073 28.9297 8.48385 28.9034C8.15677 28.7125 7.83724 28.5078 7.5237 28.2917C7.4763 28.2586 7.42838 28.2266 7.38125 28.1935C7.07318 27.975 6.77292 27.743 6.48047 27.5003L6.4 27.4299V22.9333C6.40391 19.6948 9.02812 17.0706 12.2667 17.0667H19.7333C22.9719 17.0706 25.5961 19.6948 25.6 22.9333V27.4305L25.5292 27.4896C25.231 27.7385 24.925 27.974 24.6107 28.1964C24.569 28.2255 24.5268 28.2534 24.4854 28.282C24.1682 28.5023 23.8432 28.7096 23.5104 28.9044C23.4687 28.9286 23.426 28.9516 23.3846 28.9755C23.0474 29.1674 22.7044 29.3487 22.3547 29.512C22.3146 29.5307 22.2742 29.5482 22.2336 29.5654C21.8784 29.7292 21.5174 29.8799 21.1505 30.0148C21.1141 30.0284 21.0773 30.0401 21.0437 30.0529C20.6703 30.1867 20.2917 30.3078 19.9083 30.4117L19.8164 30.4346C19.425 30.538 19.0299 30.6271 18.6305 30.6987C18.6076 30.7029 18.5846 30.7057 18.5617 30.7094C18.1531 30.7807 17.7409 30.8362 17.3258 30.8732H17.288C16.8615 30.9099 16.4346 30.9297 16.0026 30.9297C15.5706 30.9297 15.1404 30.9135 14.7146 30.8768ZM26.6667 26.4417V22.9333C26.6622 19.106 23.5607 16.0044 19.7333 16H12.2667C8.43932 16.0044 5.33776 19.106 5.33333 22.9333V26.4411C-0.410937 20.5784 -0.346875 11.1786 5.47656 5.39453C11.3 -0.389323 20.7 -0.389323 26.5234 5.39453C32.3469 11.1786 32.4109 20.5784 26.6667 26.4411V26.4417Z" fill="#FCC501"/>
<path d="M16 4.26667C13.0544 4.26667 10.6666 6.65443 10.6666 9.6C10.6666 12.5456 13.0544 14.9333 16 14.9333C18.9455 14.9333 21.3333 12.5456 21.3333 9.6C21.3302 6.65573 18.9442 4.26979 16 4.26667ZM16 13.8667C13.6434 13.8667 11.7333 11.9565 11.7333 9.6C11.7333 7.24349 13.6434 5.33333 16 5.33333C18.3565 5.33333 20.2666 7.24349 20.2666 9.6C20.264 11.9552 18.3552 13.8641 16 13.8667Z" fill="#FCC501"/>
</g>
<defs>
<clipPath id="clip0">
<rect width="32" height="32" fill="white"/>
</clipPath>
</defs>
</svg>
