<svg width="52" height="46" viewBox="0 0 52 46" fill="none" xmlns="http://www.w3.org/2000/svg">
<g filter="url(#filter0_d)">
<path d="M15.2308 2H36.7692L46 19L36.7692 36H15.2308L6 19L15.2308 2Z" fill="url(#paint0_linear)"/>
</g>
<g clip-path="url(#clip0)">
<path d="M32.9152 22.6799C32.8958 22.6382 32.8777 22.6035 32.861 22.5758C32.5834 22.0758 32.0529 21.4621 31.2698 20.7346L31.2533 20.7179L31.245 20.7097L31.2366 20.7014H31.2282C30.8728 20.3626 30.6478 20.1348 30.5535 20.0182C30.3811 19.796 30.3425 19.5711 30.4367 19.3433C30.5033 19.1711 30.7534 18.8076 31.1865 18.2521C31.4143 17.9577 31.5947 17.7218 31.7279 17.5441C32.6888 16.2666 33.1053 15.4504 32.9775 15.0949L32.9279 15.0118C32.8946 14.9618 32.8085 14.916 32.6698 14.8743C32.5308 14.8327 32.3531 14.8258 32.1365 14.8535L29.7373 14.8701C29.6985 14.8563 29.643 14.8576 29.5707 14.8743C29.4985 14.891 29.4623 14.8994 29.4623 14.8994L29.4206 14.9202L29.3874 14.9453C29.3597 14.9619 29.3291 14.991 29.2958 15.0327C29.2626 15.0742 29.2348 15.1229 29.2127 15.1785C28.9515 15.8505 28.6545 16.4753 28.3212 17.0528C28.1157 17.3972 27.927 17.6957 27.7546 17.9484C27.5825 18.201 27.4381 18.3871 27.3215 18.5064C27.2048 18.6259 27.0995 18.7215 27.0049 18.7938C26.9105 18.8661 26.8384 18.8967 26.7884 18.8855C26.7384 18.8743 26.6913 18.8632 26.6467 18.8521C26.569 18.8021 26.5065 18.7341 26.4593 18.648C26.412 18.562 26.3801 18.4536 26.3635 18.3231C26.3469 18.1925 26.3371 18.0802 26.3343 17.9857C26.3317 17.8914 26.3329 17.758 26.3385 17.5858C26.3443 17.4136 26.3469 17.297 26.3469 17.2359C26.3469 17.0249 26.351 16.7958 26.3593 16.5486C26.3677 16.3015 26.3745 16.1057 26.3802 15.9614C26.3858 15.817 26.3885 15.6643 26.3885 15.5032C26.3885 15.3421 26.3787 15.2158 26.3593 15.1241C26.3401 15.0326 26.3108 14.9437 26.272 14.8575C26.2331 14.7715 26.1761 14.7049 26.1013 14.6576C26.0263 14.6104 25.9331 14.5729 25.8222 14.5451C25.5278 14.4785 25.153 14.4425 24.6975 14.4369C23.6646 14.4258 23.0008 14.4925 22.7065 14.6369C22.5899 14.6979 22.4843 14.7812 22.39 14.8867C22.29 15.0089 22.276 15.0756 22.3482 15.0866C22.6815 15.1365 22.9174 15.2559 23.0563 15.4448L23.1063 15.5448C23.1452 15.617 23.1841 15.7448 23.223 15.928C23.2618 16.1113 23.2869 16.314 23.2979 16.536C23.3256 16.9415 23.3256 17.2886 23.2979 17.5773C23.2701 17.8662 23.2439 18.0911 23.2188 18.2521C23.1937 18.4132 23.1563 18.5437 23.1063 18.6437C23.0563 18.7436 23.023 18.8047 23.0063 18.8269C22.9896 18.8491 22.9757 18.863 22.9647 18.8685C22.8925 18.8962 22.8175 18.9103 22.7398 18.9103C22.6619 18.9103 22.5676 18.8714 22.4565 18.7936C22.3455 18.7158 22.2303 18.6089 22.1109 18.4728C21.9914 18.3367 21.8567 18.1465 21.7067 17.9022C21.5568 17.6578 21.4013 17.3691 21.2403 17.0359L21.107 16.7942C21.0237 16.6387 20.9099 16.4124 20.7655 16.1153C20.621 15.8181 20.4933 15.5307 20.3823 15.253C20.3379 15.1364 20.2712 15.0476 20.1824 14.9865L20.1407 14.9614C20.113 14.9392 20.0685 14.9157 20.0074 14.8906C19.9463 14.8655 19.8825 14.8476 19.8158 14.8365L17.5333 14.8531C17.3 14.8531 17.1417 14.9059 17.0584 15.0115L17.0251 15.0614C17.0084 15.0892 17 15.1336 17 15.1947C17 15.2558 17.0167 15.3308 17.05 15.4196C17.3832 16.2027 17.7456 16.958 18.1371 17.6855C18.5286 18.4131 18.8688 18.9991 19.1575 19.4431C19.4463 19.8875 19.7407 20.3069 20.0406 20.7011C20.3405 21.0954 20.539 21.3481 20.6362 21.4591C20.7334 21.5704 20.8098 21.6535 20.8653 21.709L21.0736 21.9089C21.2069 22.0423 21.4026 22.2019 21.6609 22.3879C21.9192 22.574 22.2052 22.7573 22.519 22.9379C22.8328 23.1183 23.1979 23.2655 23.6145 23.3793C24.031 23.4932 24.4364 23.5389 24.8307 23.5169H25.7888C25.9831 23.5001 26.1303 23.439 26.2303 23.3336L26.2635 23.2918C26.2858 23.2587 26.3066 23.2072 26.3259 23.1379C26.3454 23.0684 26.3551 22.992 26.3551 22.9088C26.3494 22.67 26.3675 22.4548 26.4091 22.2632C26.4506 22.0717 26.4979 21.9273 26.5509 21.8301C26.6038 21.7329 26.6635 21.6509 26.7299 21.5844C26.7965 21.5178 26.8439 21.4775 26.8718 21.4636C26.8994 21.4496 26.9215 21.4401 26.9382 21.4344C27.0715 21.39 27.2283 21.433 27.409 21.5637C27.5895 21.6942 27.7588 21.8553 27.9172 22.0469C28.0755 22.2386 28.2657 22.4536 28.4878 22.6924C28.71 22.9312 28.9044 23.1088 29.0709 23.2256L29.2375 23.3256C29.3487 23.3923 29.4931 23.4534 29.6708 23.5089C29.8483 23.5644 30.0037 23.5783 30.1372 23.5505L32.2698 23.5173C32.4807 23.5173 32.6448 23.4823 32.7612 23.413C32.8779 23.3436 32.9472 23.2671 32.9695 23.184C32.9918 23.1007 32.993 23.0062 32.9738 22.9006C32.954 22.7952 32.9346 22.7215 32.9152 22.6799Z" fill="white"/>
</g>
<defs>
<filter id="filter0_d" x="0" y="0" width="52" height="46" filterUnits="userSpaceOnUse" color-interpolation-filters="sRGB">
<feFlood flood-opacity="0" result="BackgroundImageFix"/>
<feColorMatrix in="SourceAlpha" type="matrix" values="0 0 0 0 0 0 0 0 0 0 0 0 0 0 0 0 0 0 127 0"/>
<feOffset dy="4"/>
<feGaussianBlur stdDeviation="3"/>
<feColorMatrix type="matrix" values="0 0 0 0 0.345589 0 0 0 0 0.405067 0 0 0 0 0.778451 0 0 0 0.3 0"/>
<feBlend mode="normal" in2="BackgroundImageFix" result="effect1_dropShadow"/>
<feBlend mode="normal" in="SourceGraphic" in2="effect1_dropShadow" result="shape"/>
</filter>
<linearGradient id="paint0_linear" x1="27.5" y1="36" x2="27.5" y2="2" gradientUnits="userSpaceOnUse">
<stop stop-color="#687DF0"/>
<stop offset="1" stop-color="#9292F7"/>
</linearGradient>
<clipPath id="clip0">
<rect width="16" height="16" fill="white" transform="translate(17 11)"/>
</clipPath>
</defs>
</svg>
