<svg width="20" height="20" viewBox="0 0 20 20" fill="none" xmlns="http://www.w3.org/2000/svg">
<path d="M19.375 13.7487C19.0299 13.7487 18.75 14.0287 18.75 14.3736V18.7486H1.25002V14.3736C1.25002 14.0286 0.969998 13.7487 0.625036 13.7487C0.280074 13.7487 0 14.0287 0 14.3736V19.3736C0 19.7186 0.280022 19.9986 0.624984 19.9986H19.375C19.72 19.9986 19.9999 19.7186 19.9999 19.3736V14.3736C20 14.0281 19.72 13.7487 19.375 13.7487Z" fill="white"/>
<path d="M6.0818 5.3774L9.37869 2.12738V14.373C9.37869 14.718 9.66121 14.998 10.01 14.998C10.3587 14.998 10.6412 14.718 10.6412 14.373V2.12743L13.9381 5.37745C14.1844 5.62183 14.5843 5.62183 14.8306 5.37745C15.0769 5.13307 15.0775 4.73745 14.8306 4.49369L10.4562 0.181826C10.2125 -0.0600634 9.80246 -0.0575697 9.56312 0.181826L5.18932 4.49364C4.94244 4.73802 4.94307 5.13364 5.18932 5.3774C5.43557 5.62178 5.83555 5.62178 6.0818 5.3774Z" fill="white"/>
</svg>
