<svg width="266" height="73" viewBox="0 0 266 73" fill="none" xmlns="http://www.w3.org/2000/svg">
<path d="M16.4506 2.1023H16.908V33.9831C16.9155 37.8683 18.4468 41.5922 21.1665 44.3389C23.8861 47.0857 27.5724 48.6314 31.4178 48.6375H265.766V49.0996H31.4178C27.4492 49.0935 23.6449 47.4975 20.8391 44.6616C18.0333 41.8257 16.4551 37.9813 16.4506 33.9715V2.1023Z" fill="url(#paint0_linear)"/>
<path d="M7.18326 8.06913H7.64062V34.3932C7.6467 40.3935 10.0085 46.1464 14.2079 50.3892C18.4073 54.6321 24.1012 57.0185 30.04 57.0246H265.766V57.4867H30.04C23.975 57.4867 18.1584 55.0524 13.8698 50.7194C9.58112 46.3863 7.17184 40.5095 7.17184 34.3816L7.18326 8.06913Z" fill="url(#paint1_linear)"/>
<path d="M16.6794 7.62939e-06C16.9227 -0.00112915 17.1609 0.0707245 17.3638 0.206474C17.5666 0.342224 17.7251 0.535744 17.8189 0.762543C17.9128 0.989342 17.938 1.2392 17.8912 1.48045C17.8445 1.72171 17.7279 1.9435 17.5562 2.11774C17.3846 2.29198 17.1656 2.41083 16.927 2.45921C16.6884 2.50759 16.441 2.48335 16.2161 2.38953C15.9912 2.29572 15.7989 2.13656 15.6636 1.93224C15.5283 1.72791 15.4561 1.48761 15.4561 1.24177C15.4561 0.913437 15.5848 0.598465 15.814 0.365753C16.0433 0.133049 16.3544 0.00154114 16.6794 7.62939e-06ZM16.6794 2.01569C16.8325 2.01683 16.9825 1.97193 17.1103 1.8867C17.2381 1.80146 17.3379 1.67976 17.397 1.53706C17.4561 1.39435 17.4719 1.23708 17.4423 1.0853C17.4127 0.933517 17.3391 0.79406 17.2308 0.684669C17.1225 0.575279 16.9845 0.500916 16.8343 0.471016C16.684 0.441109 16.5284 0.457031 16.3872 0.516754C16.2459 0.576485 16.1255 0.677322 16.0411 0.806427C15.9567 0.935532 15.9123 1.08707 15.9134 1.24177C15.9134 1.44703 15.9941 1.64387 16.1378 1.78901C16.2814 1.93415 16.4763 2.01569 16.6794 2.01569Z" fill="url(#paint2_linear)"/>
<path d="M7.41211 6.03623C7.65405 6.03623 7.8905 6.10873 8.09167 6.24454C8.29285 6.38035 8.44971 6.57337 8.5423 6.79922C8.63489 7.02505 8.65909 7.27358 8.61188 7.51334C8.5647 7.7531 8.44821 7.97331 8.27713 8.14617C8.10605 8.31902 7.88803 8.43675 7.65073 8.48444C7.41345 8.53214 7.16748 8.50764 6.94397 8.41409C6.72043 8.32054 6.52939 8.16212 6.39496 7.95887C6.26056 7.75562 6.18878 7.51667 6.18878 7.27222C6.18878 6.94442 6.31769 6.63004 6.54709 6.39825C6.77649 6.16646 7.08768 6.03623 7.41211 6.03623ZM7.41211 8.04615C7.5636 8.04615 7.71167 8.00076 7.83762 7.91572C7.96359 7.83068 8.0618 7.7098 8.11978 7.56838C8.17776 7.42696 8.19293 7.27135 8.16339 7.12122C8.13382 6.97109 8.06082 6.8332 7.9537 6.72496C7.84659 6.61673 7.71011 6.54301 7.56152 6.51315C7.41293 6.48329 7.25891 6.49863 7.11896 6.55721C6.979 6.61578 6.85938 6.71497 6.77521 6.84223C6.69104 6.96951 6.64612 7.11915 6.64612 7.27222C6.64612 7.37385 6.66589 7.47448 6.70441 7.56838C6.74289 7.66228 6.79932 7.7476 6.87045 7.81947C6.94159 7.89133 7.02603 7.94833 7.11896 7.98722C7.21188 8.02612 7.31152 8.04615 7.41211 8.04615Z" fill="url(#paint3_linear)"/>
<path d="M13.9894 71.9834H265.668V71.5213H13.9894V71.9834Z" fill="url(#paint4_linear)"/>
<path d="M2.12076 64.4307H266V63.9686H2.12076V64.4307Z" fill="url(#paint5_linear)"/>
<path d="M13.0862 70.5165C13.3295 70.5154 13.5677 70.5872 13.7706 70.723C13.9734 70.8587 14.1319 71.0523 14.2258 71.2791C14.3197 71.5059 14.3448 71.7557 14.298 71.9969C14.2512 72.2382 14.1347 72.46 13.963 72.6343C13.7914 72.8085 13.5724 72.9273 13.3338 72.9757C13.0953 73.0241 12.8478 72.9998 12.6229 72.906C12.398 72.8122 12.2057 72.6531 12.0704 72.4487C11.9351 72.2444 11.8629 72.0041 11.8629 71.7583C11.8622 71.5955 11.8933 71.4341 11.9544 71.2835C12.0155 71.1329 12.1055 70.9959 12.2192 70.8806C12.3328 70.7652 12.468 70.6736 12.6168 70.6112C12.7656 70.5487 12.9251 70.5165 13.0862 70.5165ZM13.0862 72.5322C13.2393 72.5333 13.3893 72.4884 13.5171 72.4032C13.6449 72.318 13.7446 72.1963 13.8038 72.0535C13.8629 71.9108 13.8787 71.7536 13.8491 71.6018C13.8195 71.45 13.7459 71.3106 13.6376 71.2012C13.5293 71.0918 13.3913 71.0174 13.2411 70.9875C13.0909 70.9576 12.9352 70.9735 12.794 71.0333C12.6527 71.093 12.5322 71.1938 12.4479 71.3229C12.3635 71.452 12.3191 71.6036 12.3202 71.7583C12.3217 71.9631 12.4029 72.159 12.5462 72.3038C12.6896 72.4487 12.8835 72.5307 13.0862 72.5322Z" fill="url(#paint6_linear)"/>
<path d="M1.22333 62.9638C1.46664 62.9627 1.7048 63.0345 1.90765 63.1703C2.1105 63.306 2.26898 63.4996 2.36288 63.7264C2.45676 63.9532 2.4819 64.203 2.43512 64.4443C2.38837 64.6855 2.27176 64.9073 2.1001 65.0816C1.92844 65.2558 1.70947 65.3747 1.47092 65.423C1.23236 65.4714 0.984955 65.4472 0.76004 65.3534C0.535126 65.2595 0.342865 65.1004 0.20755 64.8961C0.0722656 64.6917 3.05176e-05 64.4514 0 64.2056C-0.000732422 64.0428 0.030365 63.8814 0.0914917 63.7308C0.152649 63.5802 0.242584 63.4433 0.356262 63.3279C0.46994 63.2125 0.605072 63.1209 0.753876 63.0585C0.902649 62.996 1.06219 62.9638 1.22333 62.9638ZM1.22333 64.9795C1.37643 64.9806 1.5264 64.9358 1.65417 64.8505C1.78195 64.7653 1.88177 64.6436 1.94089 64.5009C2.00003 64.3582 2.01578 64.2009 1.98618 64.0491C1.95657 63.8973 1.88297 63.7579 1.77469 63.6485C1.66641 63.5391 1.52838 63.4647 1.37817 63.4348C1.22794 63.4049 1.0723 63.4209 0.931061 63.4806C0.789825 63.5403 0.669373 63.6411 0.584991 63.7702C0.500641 63.8994 0.456207 64.0509 0.457336 64.2056C0.458832 64.4104 0.540009 64.6064 0.68335 64.7512C0.82666 64.896 1.02066 64.978 1.22333 64.9795Z" fill="url(#paint7_linear)"/>
<defs>
<linearGradient id="paint0_linear" x1="-8.18313" y1="66.0393" x2="123.601" y2="66.0393" gradientUnits="userSpaceOnUse">
<stop stop-color="#7979D3"/>
<stop offset="1" stop-color="#7979D3" stop-opacity="0"/>
</linearGradient>
<linearGradient id="paint1_linear" x1="-8.18313" y1="66.0393" x2="123.601" y2="66.0393" gradientUnits="userSpaceOnUse">
<stop stop-color="#7979D3"/>
<stop offset="1" stop-color="#7979D3" stop-opacity="0"/>
</linearGradient>
<linearGradient id="paint2_linear" x1="-8.18313" y1="66.0393" x2="123.601" y2="66.0393" gradientUnits="userSpaceOnUse">
<stop stop-color="#7979D3"/>
<stop offset="1" stop-color="#7979D3" stop-opacity="0"/>
</linearGradient>
<linearGradient id="paint3_linear" x1="-8.18313" y1="66.0393" x2="123.601" y2="66.0393" gradientUnits="userSpaceOnUse">
<stop stop-color="#7979D3"/>
<stop offset="1" stop-color="#7979D3" stop-opacity="0"/>
</linearGradient>
<linearGradient id="paint4_linear" x1="-8.18313" y1="66.0393" x2="123.601" y2="66.0393" gradientUnits="userSpaceOnUse">
<stop stop-color="#7979D3"/>
<stop offset="1" stop-color="#7979D3" stop-opacity="0"/>
</linearGradient>
<linearGradient id="paint5_linear" x1="-8.18313" y1="66.0393" x2="123.601" y2="66.0393" gradientUnits="userSpaceOnUse">
<stop stop-color="#7979D3"/>
<stop offset="1" stop-color="#7979D3" stop-opacity="0"/>
</linearGradient>
<linearGradient id="paint6_linear" x1="-8.18313" y1="66.0393" x2="123.601" y2="66.0393" gradientUnits="userSpaceOnUse">
<stop stop-color="#7979D3"/>
<stop offset="1" stop-color="#7979D3" stop-opacity="0"/>
</linearGradient>
<linearGradient id="paint7_linear" x1="-8.18313" y1="66.0393" x2="123.601" y2="66.0393" gradientUnits="userSpaceOnUse">
<stop stop-color="#7979D3"/>
<stop offset="1" stop-color="#7979D3" stop-opacity="0"/>
</linearGradient>
</defs>
</svg>
