<svg width="70" height="16" viewBox="0 0 70 16" fill="none" xmlns="http://www.w3.org/2000/svg">
<path d="M1.35356 15V1.66H3.95356V12.76H8.23356V1.66H10.8336V12.76H15.1136V1.66H17.7136V15H1.35356ZM32.0281 15L30.8481 12.2H25.4681L24.2881 15H21.4681L27.2081 1.66H29.2481L34.8281 15H32.0281ZM26.2881 10.08H30.0881L28.1881 5.28L26.2881 10.08ZM45.6656 1.66V3.9H41.1856V15H38.5856V1.66H45.6656ZM48.9765 11.52V9.28H54.1765V11.52H48.9765ZM66.7836 1.66V10.4H68.3436V12.48H66.7836V15H64.3436V12.48H57.8236V11.32L64.4436 1.66H66.7836ZM60.9036 10.4H64.3436V5.32L60.9036 10.4Z" fill="#ECFBFF"/>
<path d="M1.35356 15H0.353557V16H1.35356V15ZM1.35356 1.66V0.659999H0.353557V1.66H1.35356ZM3.95356 1.66H4.95356V0.659999H3.95356V1.66ZM3.95356 12.76H2.95356V13.76H3.95356V12.76ZM8.23356 12.76V13.76H9.23356V12.76H8.23356ZM8.23356 1.66V0.659999H7.23356V1.66H8.23356ZM10.8336 1.66H11.8336V0.659999H10.8336V1.66ZM10.8336 12.76H9.83356V13.76H10.8336V12.76ZM15.1136 12.76V13.76H16.1136V12.76H15.1136ZM15.1136 1.66V0.659999H14.1136V1.66H15.1136ZM17.7136 1.66H18.7136V0.659999H17.7136V1.66ZM17.7136 15V16H18.7136V15H17.7136ZM2.35356 15V1.66H0.353557V15H2.35356ZM1.35356 2.66H3.95356V0.659999H1.35356V2.66ZM2.95356 1.66V12.76H4.95356V1.66H2.95356ZM3.95356 13.76H8.23356V11.76H3.95356V13.76ZM9.23356 12.76V1.66H7.23356V12.76H9.23356ZM8.23356 2.66H10.8336V0.659999H8.23356V2.66ZM9.83356 1.66V12.76H11.8336V1.66H9.83356ZM10.8336 13.76H15.1136V11.76H10.8336V13.76ZM16.1136 12.76V1.66H14.1136V12.76H16.1136ZM15.1136 2.66H17.7136V0.659999H15.1136V2.66ZM16.7136 1.66V15H18.7136V1.66H16.7136ZM17.7136 14H1.35356V16H17.7136V14ZM32.0281 15L31.1066 15.3884L31.3643 16H32.0281V15ZM30.8481 12.2L31.7696 11.8116L31.5118 11.2H30.8481V12.2ZM25.4681 12.2V11.2H24.8043L24.5466 11.8116L25.4681 12.2ZM24.2881 15V16H24.9518L25.2096 15.3884L24.2881 15ZM21.4681 15L20.5495 14.6048L19.9492 16H21.4681V15ZM27.2081 1.66V0.659999H26.5497L26.2895 1.26475L27.2081 1.66ZM29.2481 1.66L30.1706 1.27411L29.9138 0.659999H29.2481V1.66ZM34.8281 15V16H36.3303L35.7506 14.6141L34.8281 15ZM26.2881 10.08L25.3583 9.71195L24.8168 11.08H26.2881V10.08ZM30.0881 10.08V11.08H31.5594L31.0179 9.71195L30.0881 10.08ZM28.1881 5.28L29.1179 4.91195L28.1881 2.56297L27.2583 4.91195L28.1881 5.28ZM32.9496 14.6116L31.7696 11.8116L29.9266 12.5884L31.1066 15.3884L32.9496 14.6116ZM30.8481 11.2H25.4681V13.2H30.8481V11.2ZM24.5466 11.8116L23.3666 14.6116L25.2096 15.3884L26.3896 12.5884L24.5466 11.8116ZM24.2881 14H21.4681V16H24.2881V14ZM22.3867 15.3952L28.1267 2.05525L26.2895 1.26475L20.5495 14.6048L22.3867 15.3952ZM27.2081 2.66H29.2481V0.659999H27.2081V2.66ZM28.3255 2.04589L33.9055 15.3859L35.7506 14.6141L30.1706 1.27411L28.3255 2.04589ZM34.8281 14H32.0281V16H34.8281V14ZM26.2881 11.08H30.0881V9.08H26.2881V11.08ZM31.0179 9.71195L29.1179 4.91195L27.2583 5.64805L29.1583 10.448L31.0179 9.71195ZM27.2583 4.91195L25.3583 9.71195L27.2179 10.448L29.1179 5.64805L27.2583 4.91195ZM45.6656 1.66H46.6656V0.659999H45.6656V1.66ZM45.6656 3.9V4.9H46.6656V3.9H45.6656ZM41.1856 3.9V2.9H40.1856V3.9H41.1856ZM41.1856 15V16H42.1856V15H41.1856ZM38.5856 15H37.5856V16H38.5856V15ZM38.5856 1.66V0.659999H37.5856V1.66H38.5856ZM44.6656 1.66V3.9H46.6656V1.66H44.6656ZM45.6656 2.9H41.1856V4.9H45.6656V2.9ZM40.1856 3.9V15H42.1856V3.9H40.1856ZM41.1856 14H38.5856V16H41.1856V14ZM39.5856 15V1.66H37.5856V15H39.5856ZM38.5856 2.66H45.6656V0.659999H38.5856V2.66ZM48.9765 11.52H47.9765V12.52H48.9765V11.52ZM48.9765 9.28V8.28H47.9765V9.28H48.9765ZM54.1765 9.28H55.1765V8.28H54.1765V9.28ZM54.1765 11.52V12.52H55.1765V11.52H54.1765ZM49.9765 11.52V9.28H47.9765V11.52H49.9765ZM48.9765 10.28H54.1765V8.28H48.9765V10.28ZM53.1765 9.28V11.52H55.1765V9.28H53.1765ZM54.1765 10.52H48.9765V12.52H54.1765V10.52ZM66.7836 1.66H67.7836V0.659999H66.7836V1.66ZM66.7836 10.4H65.7836V11.4H66.7836V10.4ZM68.3436 10.4H69.3436V9.4H68.3436V10.4ZM68.3436 12.48V13.48H69.3436V12.48H68.3436ZM66.7836 12.48V11.48H65.7836V12.48H66.7836ZM66.7836 15V16H67.7836V15H66.7836ZM64.3436 15H63.3436V16H64.3436V15ZM64.3436 12.48H65.3436V11.48H64.3436V12.48ZM57.8236 12.48H56.8236V13.48H57.8236V12.48ZM57.8236 11.32L56.9987 10.7547L56.8236 11.0102V11.32H57.8236ZM64.4436 1.66V0.659999H63.9166L63.6187 1.0947L64.4436 1.66ZM60.9036 10.4L60.0755 9.8393L59.0187 11.4H60.9036V10.4ZM64.3436 10.4V11.4H65.3436V10.4H64.3436ZM64.3436 5.32H65.3436V2.05978L63.5155 4.7593L64.3436 5.32ZM65.7836 1.66V10.4H67.7836V1.66H65.7836ZM66.7836 11.4H68.3436V9.4H66.7836V11.4ZM67.3436 10.4V12.48H69.3436V10.4H67.3436ZM68.3436 11.48H66.7836V13.48H68.3436V11.48ZM65.7836 12.48V15H67.7836V12.48H65.7836ZM66.7836 14H64.3436V16H66.7836V14ZM65.3436 15V12.48H63.3436V15H65.3436ZM64.3436 11.48H57.8236V13.48H64.3436V11.48ZM58.8236 12.48V11.32H56.8236V12.48H58.8236ZM58.6484 11.8853L65.2684 2.2253L63.6187 1.0947L56.9987 10.7547L58.6484 11.8853ZM64.4436 2.66H66.7836V0.659999H64.4436V2.66ZM60.9036 11.4H64.3436V9.4H60.9036V11.4ZM65.3436 10.4V5.32H63.3436V10.4H65.3436ZM63.5155 4.7593L60.0755 9.8393L61.7316 10.9607L65.1716 5.8807L63.5155 4.7593Z" fill="#3FA2D8"/>
</svg>
