<svg width="69" height="16" viewBox="0 0 69 16" fill="none" xmlns="http://www.w3.org/2000/svg">
<path d="M1.52 15V1.66H4.12V12.76H8.4V1.66H11V12.76H15.28V1.66H17.88V15H1.52ZM32.1945 15L31.0145 12.2H25.6345L24.4545 15H21.6345L27.3745 1.66H29.4145L34.9945 15H32.1945ZM26.4545 10.08H30.2545L28.3545 5.28L26.4545 10.08ZM45.832 1.66V3.9H41.352V15H38.752V1.66H45.832ZM49.143 11.52V9.28H54.343V11.52H49.143ZM57.91 15L61.83 10.54C63.11 9.04667 63.87 8.12 64.11 7.76C64.63 6.98667 64.89 6.27333 64.89 5.62C64.89 5.02 64.6967 4.53333 64.31 4.16C63.9367 3.78667 63.47 3.6 62.91 3.6C62.27 3.6 61.7633 3.82 61.39 4.26C61.0167 4.68667 60.8167 5.20667 60.79 5.82H58.11C58.1633 4.47333 58.6233 3.39333 59.49 2.58C60.3567 1.76667 61.4567 1.36 62.79 1.36C64.2567 1.36 65.4033 1.78 66.23 2.62C67.07 3.46 67.49 4.45333 67.49 5.6C67.49 6.24 67.3433 6.88 67.05 7.52C66.7567 8.16 66.4767 8.64667 66.21 8.98C65.9433 9.3 65.5633 9.72667 65.07 10.26L62.77 12.76H67.59V15H57.91Z" fill="#ECFBFF"/>
<path d="M1.52 15H0.52V16H1.52V15ZM1.52 1.66V0.659999H0.52V1.66H1.52ZM4.12 1.66H5.12V0.659999H4.12V1.66ZM4.12 12.76H3.12V13.76H4.12V12.76ZM8.4 12.76V13.76H9.4V12.76H8.4ZM8.4 1.66V0.659999H7.4V1.66H8.4ZM11 1.66H12V0.659999H11V1.66ZM11 12.76H10V13.76H11V12.76ZM15.28 12.76V13.76H16.28V12.76H15.28ZM15.28 1.66V0.659999H14.28V1.66H15.28ZM17.88 1.66H18.88V0.659999H17.88V1.66ZM17.88 15V16H18.88V15H17.88ZM2.52 15V1.66H0.52V15H2.52ZM1.52 2.66H4.12V0.659999H1.52V2.66ZM3.12 1.66V12.76H5.12V1.66H3.12ZM4.12 13.76H8.4V11.76H4.12V13.76ZM9.4 12.76V1.66H7.4V12.76H9.4ZM8.4 2.66H11V0.659999H8.4V2.66ZM10 1.66V12.76H12V1.66H10ZM11 13.76H15.28V11.76H11V13.76ZM16.28 12.76V1.66H14.28V12.76H16.28ZM15.28 2.66H17.88V0.659999H15.28V2.66ZM16.88 1.66V15H18.88V1.66H16.88ZM17.88 14H1.52V16H17.88V14ZM32.1945 15L31.273 15.3884L31.5308 16H32.1945V15ZM31.0145 12.2L31.936 11.8116L31.6783 11.2H31.0145V12.2ZM25.6345 12.2V11.2H24.9708L24.713 11.8116L25.6345 12.2ZM24.4545 15V16H25.1183L25.376 15.3884L24.4545 15ZM21.6345 15L20.716 14.6048L20.1156 16H21.6345V15ZM27.3745 1.66V0.659999H26.7162L26.456 1.26475L27.3745 1.66ZM29.4145 1.66L30.3371 1.27411L30.0802 0.659999H29.4145V1.66ZM34.9945 15V16H36.4968L35.9171 14.6141L34.9945 15ZM26.4545 10.08L25.5247 9.71195L24.9832 11.08H26.4545V10.08ZM30.2545 10.08V11.08H31.7259L31.1843 9.71195L30.2545 10.08ZM28.3545 5.28L29.2843 4.91195L28.3545 2.56297L27.4247 4.91195L28.3545 5.28ZM33.116 14.6116L31.936 11.8116L30.093 12.5884L31.273 15.3884L33.116 14.6116ZM31.0145 11.2H25.6345V13.2H31.0145V11.2ZM24.713 11.8116L23.533 14.6116L25.376 15.3884L26.556 12.5884L24.713 11.8116ZM24.4545 14H21.6345V16H24.4545V14ZM22.5531 15.3952L28.2931 2.05525L26.456 1.26475L20.716 14.6048L22.5531 15.3952ZM27.3745 2.66H29.4145V0.659999H27.3745V2.66ZM28.492 2.04589L34.072 15.3859L35.9171 14.6141L30.3371 1.27411L28.492 2.04589ZM34.9945 14H32.1945V16H34.9945V14ZM26.4545 11.08H30.2545V9.08H26.4545V11.08ZM31.1843 9.71195L29.2843 4.91195L27.4247 5.64805L29.3247 10.448L31.1843 9.71195ZM27.4247 4.91195L25.5247 9.71195L27.3843 10.448L29.2843 5.64805L27.4247 4.91195ZM45.832 1.66H46.832V0.659999H45.832V1.66ZM45.832 3.9V4.9H46.832V3.9H45.832ZM41.352 3.9V2.9H40.352V3.9H41.352ZM41.352 15V16H42.352V15H41.352ZM38.752 15H37.752V16H38.752V15ZM38.752 1.66V0.659999H37.752V1.66H38.752ZM44.832 1.66V3.9H46.832V1.66H44.832ZM45.832 2.9H41.352V4.9H45.832V2.9ZM40.352 3.9V15H42.352V3.9H40.352ZM41.352 14H38.752V16H41.352V14ZM39.752 15V1.66H37.752V15H39.752ZM38.752 2.66H45.832V0.659999H38.752V2.66ZM49.143 11.52H48.143V12.52H49.143V11.52ZM49.143 9.28V8.28H48.143V9.28H49.143ZM54.343 9.28H55.343V8.28H54.343V9.28ZM54.343 11.52V12.52H55.343V11.52H54.343ZM50.143 11.52V9.28H48.143V11.52H50.143ZM49.143 10.28H54.343V8.28H49.143V10.28ZM53.343 9.28V11.52H55.343V9.28H53.343ZM54.343 10.52H49.143V12.52H54.343V10.52ZM57.91 15L57.1589 14.3398L55.6997 16H57.91V15ZM61.83 10.54L62.5812 11.2002L62.5893 11.1908L61.83 10.54ZM64.11 7.76L63.2802 7.202L63.278 7.2053L64.11 7.76ZM64.31 4.16L63.6029 4.86711L63.6091 4.87331L63.6154 4.8794L64.31 4.16ZM61.39 4.26L62.1426 4.9185L62.1476 4.91278L62.1525 4.90698L61.39 4.26ZM60.79 5.82V6.82H61.7475L61.7891 5.86344L60.79 5.82ZM58.11 5.82L57.1108 5.78043L57.0696 6.82H58.11V5.82ZM59.49 2.58L58.8057 1.85081L58.8057 1.85081L59.49 2.58ZM66.23 2.62L65.5172 3.32145L65.5229 3.32711L66.23 2.62ZM67.05 7.52L67.9591 7.93666L67.9591 7.93665L67.05 7.52ZM66.21 8.98L66.9782 9.62018L66.9846 9.6125L66.9909 9.60469L66.21 8.98ZM65.07 10.26L64.3359 9.58096L64.3341 9.58294L65.07 10.26ZM62.77 12.76L62.0341 12.0829L60.4912 13.76H62.77V12.76ZM67.59 12.76H68.59V11.76H67.59V12.76ZM67.59 15V16H68.59V15H67.59ZM58.6611 15.6602L62.5811 11.2002L61.0789 9.87983L57.1589 14.3398L58.6611 15.6602ZM62.5893 11.1908C63.8512 9.71855 64.6603 8.73734 64.942 8.3147L63.278 7.2053C63.0797 7.50266 62.3688 8.37478 61.0707 9.88921L62.5893 11.1908ZM64.9398 8.318C65.5255 7.44704 65.89 6.54015 65.89 5.62H63.89C63.89 6.00651 63.7345 6.52629 63.2802 7.202L64.9398 8.318ZM65.89 5.62C65.89 4.78341 65.6101 4.0252 65.0046 3.4406L63.6154 4.8794C63.7833 5.04147 63.89 5.25659 63.89 5.62H65.89ZM65.0171 3.45289C64.444 2.87976 63.7174 2.6 62.91 2.6V4.6C63.2226 4.6 63.4294 4.69357 63.6029 4.86711L65.0171 3.45289ZM62.91 2.6C62.0124 2.6 61.213 2.92296 60.6275 3.61302L62.1525 4.90698C62.3137 4.71704 62.5276 4.6 62.91 4.6V2.6ZM60.6374 3.6015C60.1017 4.21377 59.8266 4.95626 59.7909 5.77656L61.7891 5.86344C61.8067 5.45707 61.9317 5.15956 62.1426 4.9185L60.6374 3.6015ZM60.79 4.82H58.11V6.82H60.79V4.82ZM59.1092 5.85957C59.1537 4.73703 59.5252 3.91834 60.1743 3.30919L58.8057 1.85081C57.7215 2.86832 57.173 4.20963 57.1108 5.78043L59.1092 5.85957ZM60.1743 3.30919C60.8325 2.69148 61.6774 2.36 62.79 2.36V0.359999C61.2359 0.359999 59.8808 0.84185 58.8057 1.85081L60.1743 3.30919ZM62.79 2.36C64.0582 2.36 64.9223 2.71684 65.5173 3.32143L66.9427 1.91857C65.8844 0.843158 64.4552 0.359999 62.79 0.359999V2.36ZM65.5229 3.32711C66.1829 3.98711 66.49 4.72902 66.49 5.6H68.49C68.49 4.17764 67.9571 2.93289 66.9371 1.91289L65.5229 3.32711ZM66.49 5.6C66.49 6.08234 66.3804 6.58087 66.1409 7.10334L67.9591 7.93665C68.3063 7.17913 68.49 6.39766 68.49 5.6H66.49ZM66.1409 7.10334C65.8627 7.71036 65.6225 8.11357 65.4291 8.3553L66.9909 9.60469C67.3308 9.17976 67.6506 8.60964 67.9591 7.93666L66.1409 7.10334ZM65.4418 8.33982C65.1913 8.64036 64.8247 9.05248 64.3359 9.58096L65.8041 10.939C66.3019 10.4009 66.6953 9.95964 66.9782 9.62018L65.4418 8.33982ZM64.3341 9.58294L62.0341 12.0829L63.5059 13.4371L65.8059 10.9371L64.3341 9.58294ZM62.77 13.76H67.59V11.76H62.77V13.76ZM66.59 12.76V15H68.59V12.76H66.59ZM67.59 14H57.91V16H67.59V14Z" fill="#3FA2D8"/>
</svg>
