<svg width="69" height="17" viewBox="0 0 69 17" fill="none" xmlns="http://www.w3.org/2000/svg">
<path d="M1.43675 15V1.66H4.03675V12.76H8.31675V1.66H10.9167V12.76H15.1967V1.66H17.7967V15H1.43675ZM32.1113 15L30.9313 12.2H25.5513L24.3713 15H21.5513L27.2913 1.66H29.3313L34.9113 15H32.1113ZM26.3713 10.08H30.1713L28.2713 5.28L26.3713 10.08ZM45.7488 1.66V3.9H41.2688V15H38.6688V1.66H45.7488ZM49.0597 11.52V9.28H54.2597V11.52H49.0597ZM60.9267 5.14H58.4867C58.6067 3.95333 59.0667 3.02667 59.8667 2.36C60.6667 1.69333 61.6534 1.36 62.8267 1.36C64.1067 1.36 65.1201 1.69333 65.8667 2.36C66.6267 3.02667 67.0067 3.92 67.0067 5.04C67.0067 6.33333 66.4934 7.26667 65.4667 7.84C66.8267 8.4 67.5067 9.46 67.5067 11.02C67.5067 12.3533 67.0534 13.4 66.1467 14.16C65.2534 14.92 64.1201 15.3 62.7467 15.3C61.4401 15.3 60.3401 14.9267 59.4467 14.18C58.5534 13.42 58.0534 12.4133 57.9467 11.16H60.5467C60.6267 11.7333 60.8601 12.1933 61.2467 12.54C61.6334 12.8867 62.1401 13.06 62.7667 13.06C63.4601 13.06 63.9867 12.8533 64.3467 12.44C64.7201 12.0133 64.9067 11.5133 64.9067 10.94C64.9067 10.38 64.7201 9.89333 64.3467 9.48C63.9867 9.06667 63.4334 8.86 62.6867 8.86H62.3467V6.98H62.7067C63.3067 6.98 63.7601 6.80667 64.0667 6.46C64.3734 6.1 64.5267 5.66667 64.5267 5.16C64.5267 4.62667 64.3667 4.2 64.0467 3.88C63.7267 3.56 63.3001 3.4 62.7667 3.4C62.2734 3.4 61.8467 3.55333 61.4867 3.86C61.1401 4.16667 60.9534 4.59333 60.9267 5.14Z" fill="#ECFBFF"/>
<path d="M1.43675 15H0.436748V16H1.43675V15ZM1.43675 1.66V0.659999H0.436748V1.66H1.43675ZM4.03675 1.66H5.03675V0.659999H4.03675V1.66ZM4.03675 12.76H3.03675V13.76H4.03675V12.76ZM8.31675 12.76V13.76H9.31675V12.76H8.31675ZM8.31675 1.66V0.659999H7.31675V1.66H8.31675ZM10.9167 1.66H11.9167V0.659999H10.9167V1.66ZM10.9167 12.76H9.91675V13.76H10.9167V12.76ZM15.1967 12.76V13.76H16.1967V12.76H15.1967ZM15.1967 1.66V0.659999H14.1967V1.66H15.1967ZM17.7967 1.66H18.7967V0.659999H17.7967V1.66ZM17.7967 15V16H18.7967V15H17.7967ZM2.43675 15V1.66H0.436748V15H2.43675ZM1.43675 2.66H4.03675V0.659999H1.43675V2.66ZM3.03675 1.66V12.76H5.03675V1.66H3.03675ZM4.03675 13.76H8.31675V11.76H4.03675V13.76ZM9.31675 12.76V1.66H7.31675V12.76H9.31675ZM8.31675 2.66H10.9167V0.659999H8.31675V2.66ZM9.91675 1.66V12.76H11.9167V1.66H9.91675ZM10.9167 13.76H15.1967V11.76H10.9167V13.76ZM16.1967 12.76V1.66H14.1967V12.76H16.1967ZM15.1967 2.66H17.7967V0.659999H15.1967V2.66ZM16.7967 1.66V15H18.7967V1.66H16.7967ZM17.7967 14H1.43675V16H17.7967V14ZM32.1113 15L31.1898 15.3884L31.4475 16H32.1113V15ZM30.9313 12.2L31.8528 11.8116L31.595 11.2H30.9313V12.2ZM25.5513 12.2V11.2H24.8875L24.6298 11.8116L25.5513 12.2ZM24.3713 15V16H25.035L25.2928 15.3884L24.3713 15ZM21.5513 15L20.6327 14.6048L20.0324 16H21.5513V15ZM27.2913 1.66V0.659999H26.6329L26.3727 1.26475L27.2913 1.66ZM29.3313 1.66L30.2538 1.27411L29.9969 0.659999H29.3313V1.66ZM34.9113 15V16H36.4135L35.8338 14.6141L34.9113 15ZM26.3713 10.08L25.4415 9.71195L24.9 11.08H26.3713V10.08ZM30.1713 10.08V11.08H31.6426L31.1011 9.71195L30.1713 10.08ZM28.2713 5.28L29.2011 4.91195L28.2713 2.56297L27.3415 4.91195L28.2713 5.28ZM33.0328 14.6116L31.8528 11.8116L30.0098 12.5884L31.1898 15.3884L33.0328 14.6116ZM30.9313 11.2H25.5513V13.2H30.9313V11.2ZM24.6298 11.8116L23.4498 14.6116L25.2928 15.3884L26.4728 12.5884L24.6298 11.8116ZM24.3713 14H21.5513V16H24.3713V14ZM22.4699 15.3952L28.2099 2.05525L26.3727 1.26475L20.6327 14.6048L22.4699 15.3952ZM27.2913 2.66H29.3313V0.659999H27.2913V2.66ZM28.4087 2.04589L33.9887 15.3859L35.8338 14.6141L30.2538 1.27411L28.4087 2.04589ZM34.9113 14H32.1113V16H34.9113V14ZM26.3713 11.08H30.1713V9.08H26.3713V11.08ZM31.1011 9.71195L29.2011 4.91195L27.3415 5.64805L29.2415 10.448L31.1011 9.71195ZM27.3415 4.91195L25.4415 9.71195L27.3011 10.448L29.2011 5.64805L27.3415 4.91195ZM45.7488 1.66H46.7488V0.659999H45.7488V1.66ZM45.7488 3.9V4.9H46.7488V3.9H45.7488ZM41.2688 3.9V2.9H40.2688V3.9H41.2688ZM41.2688 15V16H42.2688V15H41.2688ZM38.6688 15H37.6688V16H38.6688V15ZM38.6688 1.66V0.659999H37.6688V1.66H38.6688ZM44.7488 1.66V3.9H46.7488V1.66H44.7488ZM45.7488 2.9H41.2688V4.9H45.7488V2.9ZM40.2688 3.9V15H42.2688V3.9H40.2688ZM41.2688 14H38.6688V16H41.2688V14ZM39.6688 15V1.66H37.6688V15H39.6688ZM38.6688 2.66H45.7488V0.659999H38.6688V2.66ZM49.0597 11.52H48.0597V12.52H49.0597V11.52ZM49.0597 9.28V8.28H48.0597V9.28H49.0597ZM54.2597 9.28H55.2597V8.28H54.2597V9.28ZM54.2597 11.52V12.52H55.2597V11.52H54.2597ZM50.0597 11.52V9.28H48.0597V11.52H50.0597ZM49.0597 10.28H54.2597V8.28H49.0597V10.28ZM53.2597 9.28V11.52H55.2597V9.28H53.2597ZM54.2597 10.52H49.0597V12.52H54.2597V10.52ZM60.9267 5.14V6.14H61.8792L61.9256 5.18872L60.9267 5.14ZM58.4867 5.14L57.4918 5.03939L57.3805 6.14H58.4867V5.14ZM65.8667 2.36L65.2007 3.10597L65.2073 3.11176L65.8667 2.36ZM65.4668 7.84L64.9792 6.96691L63.1715 7.97637L65.086 8.76468L65.4668 7.84ZM66.1467 14.16L65.5043 13.3936L65.4988 13.3983L66.1467 14.16ZM59.4467 14.18L58.7987 14.9417L58.8054 14.9473L59.4467 14.18ZM57.9467 11.16V10.16H56.858L56.9503 11.2448L57.9467 11.16ZM60.5467 11.16L61.5372 11.0218L61.4169 10.16H60.5467V11.16ZM61.2467 12.54L60.5792 13.2846L61.2467 12.54ZM64.3467 12.44L63.5942 11.7815L63.5927 11.7832L64.3467 12.44ZM64.3467 9.48L63.5927 10.1368L63.5986 10.1436L63.6046 10.1503L64.3467 9.48ZM62.3467 8.86H61.3467V9.86H62.3467V8.86ZM62.3467 6.98V5.98H61.3467V6.98H62.3467ZM64.0667 6.46L64.8157 7.12257L64.8219 7.11558L64.828 7.10847L64.0667 6.46ZM64.0467 3.88L64.7539 3.17289V3.17289L64.0467 3.88ZM61.4867 3.86L60.8383 3.09876L60.8312 3.10481L60.8242 3.111L61.4867 3.86ZM60.9267 4.14H58.4867V6.14H60.9267V4.14ZM59.4817 5.24061C59.5795 4.27337 59.9375 3.60271 60.5069 3.12822L59.2266 1.59178C58.196 2.45062 57.634 3.6333 57.4918 5.03939L59.4817 5.24061ZM60.5069 3.12822C61.1044 2.63031 61.8559 2.36 62.8267 2.36V0.359999C61.451 0.359999 60.2291 0.756352 59.2266 1.59178L60.5069 3.12822ZM62.8267 2.36C63.9317 2.36 64.6839 2.64449 65.2007 3.10594L66.5328 1.61406C65.5563 0.742177 64.2818 0.359999 62.8267 0.359999V2.36ZM65.2073 3.11176C65.726 3.56676 66.0067 4.17314 66.0067 5.04H68.0067C68.0067 3.66686 67.5275 2.48658 66.5262 1.60824L65.2073 3.11176ZM66.0067 5.04C66.0067 6.01511 65.6527 6.5908 64.9792 6.96691L65.9543 8.71309C67.3341 7.94254 68.0067 6.65155 68.0067 5.04H66.0067ZM65.086 8.76468C65.6093 8.98015 65.9433 9.26494 66.1551 9.59495C66.3695 9.92924 66.5067 10.3857 66.5067 11.02H68.5067C68.5067 10.0943 68.304 9.24076 67.8384 8.51505C67.3701 7.78506 66.6842 7.25985 65.8475 6.91532L65.086 8.76468ZM66.5067 11.02C66.5067 12.0998 66.1539 12.8492 65.5043 13.3936L66.7891 14.9264C67.9529 13.9508 68.5067 12.6069 68.5067 11.02H66.5067ZM65.4988 13.3983C64.8164 13.9789 63.9254 14.3 62.7467 14.3V16.3C64.3148 16.3 65.6905 15.8611 66.7947 14.9217L65.4988 13.3983ZM62.7467 14.3C61.644 14.3 60.7794 13.9906 60.0881 13.4127L58.8054 14.9473C59.9007 15.8628 61.2361 16.3 62.7467 16.3V14.3ZM60.0947 13.4183C59.4178 12.8424 59.0292 12.0868 58.9431 11.0752L56.9503 11.2448C57.0776 12.7398 57.6891 13.9976 58.7988 14.9417L60.0947 13.4183ZM57.9467 12.16H60.5467V10.16H57.9467V12.16ZM59.5563 11.2982C59.665 12.0768 59.9963 12.762 60.5792 13.2846L61.9143 11.7954C61.7239 11.6247 61.5885 11.3899 61.5372 11.0218L59.5563 11.2982ZM60.5792 13.2846C61.1856 13.8282 61.9472 14.06 62.7667 14.06V12.06C62.3329 12.06 62.0812 11.9451 61.9143 11.7954L60.5792 13.2846ZM62.7667 14.06C63.6668 14.06 64.5028 13.7835 65.1008 13.0968L63.5927 11.7832C63.4707 11.9232 63.2533 12.06 62.7667 12.06V14.06ZM65.0993 13.0985C65.6341 12.4873 65.9067 11.7525 65.9067 10.94H63.9067C63.9067 11.2741 63.806 11.5394 63.5942 11.7815L65.0993 13.0985ZM65.9067 10.94C65.9067 10.1338 65.6292 9.40794 65.0889 8.80971L63.6046 10.1503C63.811 10.3787 63.9067 10.6262 63.9067 10.94H65.9067ZM65.1008 8.82322C64.4891 8.12081 63.6128 7.86 62.6867 7.86V9.86C63.2541 9.86 63.4844 10.0125 63.5927 10.1368L65.1008 8.82322ZM62.6867 7.86H62.3467V9.86H62.6867V7.86ZM63.3467 8.86V6.98H61.3467V8.86H63.3467ZM62.3467 7.98H62.7067V5.98H62.3467V7.98ZM62.7067 7.98C63.5029 7.98 64.2667 7.74328 64.8157 7.12257L63.3178 5.79743C63.2535 5.87005 63.1106 5.98 62.7067 5.98V7.98ZM64.828 7.10847C65.3003 6.55406 65.5267 5.88599 65.5267 5.16H63.5267C63.5267 5.44734 63.4466 5.64594 63.3055 5.81153L64.828 7.10847ZM65.5267 5.16C65.5267 4.41241 65.2946 3.71363 64.7539 3.17289L63.3396 4.5871C63.4389 4.68637 63.5267 4.84092 63.5267 5.16H65.5267ZM64.7539 3.17289C64.2131 2.63216 63.5143 2.4 62.7667 2.4V4.4C63.0858 4.4 63.2404 4.48784 63.3396 4.58711L64.7539 3.17289ZM62.7667 2.4C62.0469 2.4 61.3875 2.63088 60.8383 3.09876L62.1352 4.62124C62.306 4.47578 62.4999 4.4 62.7667 4.4V2.4ZM60.8242 3.111C60.2391 3.6286 59.9651 4.32845 59.9279 5.09128L61.9256 5.18872C61.9417 4.85822 62.0411 4.70473 62.1493 4.609L60.8242 3.111Z" fill="#3FA2D8"/>
</svg>
