<svg width="66" height="16" viewBox="0 0 66 16" fill="none" xmlns="http://www.w3.org/2000/svg">
<path d="M1.52 15V1.66H4.12V12.76H8.4V1.66H11V12.76H15.28V1.66H17.88V15H1.52ZM32.1945 15L31.0145 12.2H25.6345L24.4545 15H21.6345L27.3745 1.66H29.4145L34.9945 15H32.1945ZM26.4545 10.08H30.2545L28.3545 5.28L26.4545 10.08ZM45.832 1.66V3.9H41.352V15H38.752V1.66H45.832ZM49.143 11.52V9.28H54.343V11.52H49.143ZM62.11 15V3.9H60.19V1.66H64.71V15H62.11Z" fill="#ECFBFF"/>
<path d="M1.52 15H0.52V16H1.52V15ZM1.52 1.66V0.659999H0.52V1.66H1.52ZM4.12 1.66H5.12V0.659999H4.12V1.66ZM4.12 12.76H3.12V13.76H4.12V12.76ZM8.4 12.76V13.76H9.4V12.76H8.4ZM8.4 1.66V0.659999H7.4V1.66H8.4ZM11 1.66H12V0.659999H11V1.66ZM11 12.76H10V13.76H11V12.76ZM15.28 12.76V13.76H16.28V12.76H15.28ZM15.28 1.66V0.659999H14.28V1.66H15.28ZM17.88 1.66H18.88V0.659999H17.88V1.66ZM17.88 15V16H18.88V15H17.88ZM2.52 15V1.66H0.52V15H2.52ZM1.52 2.66H4.12V0.659999H1.52V2.66ZM3.12 1.66V12.76H5.12V1.66H3.12ZM4.12 13.76H8.4V11.76H4.12V13.76ZM9.4 12.76V1.66H7.4V12.76H9.4ZM8.4 2.66H11V0.659999H8.4V2.66ZM10 1.66V12.76H12V1.66H10ZM11 13.76H15.28V11.76H11V13.76ZM16.28 12.76V1.66H14.28V12.76H16.28ZM15.28 2.66H17.88V0.659999H15.28V2.66ZM16.88 1.66V15H18.88V1.66H16.88ZM17.88 14H1.52V16H17.88V14ZM32.1945 15L31.273 15.3884L31.5308 16H32.1945V15ZM31.0145 12.2L31.936 11.8116L31.6783 11.2H31.0145V12.2ZM25.6345 12.2V11.2H24.9708L24.713 11.8116L25.6345 12.2ZM24.4545 15V16H25.1183L25.376 15.3884L24.4545 15ZM21.6345 15L20.716 14.6048L20.1156 16H21.6345V15ZM27.3745 1.66V0.659999H26.7162L26.456 1.26475L27.3745 1.66ZM29.4145 1.66L30.3371 1.27411L30.0802 0.659999H29.4145V1.66ZM34.9945 15V16H36.4968L35.9171 14.6141L34.9945 15ZM26.4545 10.08L25.5247 9.71195L24.9832 11.08H26.4545V10.08ZM30.2545 10.08V11.08H31.7259L31.1843 9.71195L30.2545 10.08ZM28.3545 5.28L29.2843 4.91195L28.3545 2.56297L27.4247 4.91195L28.3545 5.28ZM33.116 14.6116L31.936 11.8116L30.093 12.5884L31.273 15.3884L33.116 14.6116ZM31.0145 11.2H25.6345V13.2H31.0145V11.2ZM24.713 11.8116L23.533 14.6116L25.376 15.3884L26.556 12.5884L24.713 11.8116ZM24.4545 14H21.6345V16H24.4545V14ZM22.5531 15.3952L28.2931 2.05525L26.456 1.26475L20.716 14.6048L22.5531 15.3952ZM27.3745 2.66H29.4145V0.659999H27.3745V2.66ZM28.492 2.04589L34.072 15.3859L35.9171 14.6141L30.3371 1.27411L28.492 2.04589ZM34.9945 14H32.1945V16H34.9945V14ZM26.4545 11.08H30.2545V9.08H26.4545V11.08ZM31.1843 9.71195L29.2843 4.91195L27.4247 5.64805L29.3247 10.448L31.1843 9.71195ZM27.4247 4.91195L25.5247 9.71195L27.3843 10.448L29.2843 5.64805L27.4247 4.91195ZM45.832 1.66H46.832V0.659999H45.832V1.66ZM45.832 3.9V4.9H46.832V3.9H45.832ZM41.352 3.9V2.9H40.352V3.9H41.352ZM41.352 15V16H42.352V15H41.352ZM38.752 15H37.752V16H38.752V15ZM38.752 1.66V0.659999H37.752V1.66H38.752ZM44.832 1.66V3.9H46.832V1.66H44.832ZM45.832 2.9H41.352V4.9H45.832V2.9ZM40.352 3.9V15H42.352V3.9H40.352ZM41.352 14H38.752V16H41.352V14ZM39.752 15V1.66H37.752V15H39.752ZM38.752 2.66H45.832V0.659999H38.752V2.66ZM49.143 11.52H48.143V12.52H49.143V11.52ZM49.143 9.28V8.28H48.143V9.28H49.143ZM54.343 9.28H55.343V8.28H54.343V9.28ZM54.343 11.52V12.52H55.343V11.52H54.343ZM50.143 11.52V9.28H48.143V11.52H50.143ZM49.143 10.28H54.343V8.28H49.143V10.28ZM53.343 9.28V11.52H55.343V9.28H53.343ZM54.343 10.52H49.143V12.52H54.343V10.52ZM62.11 15H61.11V16H62.11V15ZM62.11 3.9H63.11V2.9H62.11V3.9ZM60.19 3.9H59.19V4.9H60.19V3.9ZM60.19 1.66V0.659999H59.19V1.66H60.19ZM64.71 1.66H65.71V0.659999H64.71V1.66ZM64.71 15V16H65.71V15H64.71ZM63.11 15V3.9H61.11V15H63.11ZM62.11 2.9H60.19V4.9H62.11V2.9ZM61.19 3.9V1.66H59.19V3.9H61.19ZM60.19 2.66H64.71V0.659999H60.19V2.66ZM63.71 1.66V15H65.71V1.66H63.71ZM64.71 14H62.11V16H64.71V14Z" fill="#3FA2D8"/>
</svg>
