<svg width="61" height="61" viewBox="0 0 61 61" fill="none" xmlns="http://www.w3.org/2000/svg">
<path d="M29.3137 54.1489C17.281 53.7484 7.38952 44.4527 6.22327 32.4926L29.3137 54.1489Z" fill="#00DFE2"/>
<path d="M29.1107 60.254C14.0584 59.753 1.60494 48.073 0.143555 33.0852L12.3032 31.8994C13.1717 40.8055 20.5718 47.746 29.5164 48.0437L29.1107 60.254Z" fill="#00DFE2"/>
<path d="M31.4031 60.2432L31.3067 57.9184C31.6792 57.9028 32.0509 57.8798 32.4207 57.8495L32.6095 60.1693C32.2085 60.2018 31.8065 60.2269 31.4031 60.2432ZM33.8122 60.0479L33.5326 57.7378C33.9022 57.6929 34.2704 57.6407 34.6371 57.5815L35.0098 59.8784C34.6125 59.9426 34.2126 59.9996 33.8122 60.0479ZM36.1993 59.6614L35.7358 57.3809C36.1006 57.3065 36.4636 57.2252 36.8249 57.1365L37.3795 59.3966C36.9886 59.4927 36.5948 59.5814 36.1993 59.6614ZM38.5498 59.0844L37.902 56.8493C38.2599 56.7453 38.6158 56.6349 38.969 56.5174L39.7041 58.7254C39.3224 58.8526 38.9373 58.9724 38.5498 59.0844ZM40.8448 58.3191L40.0199 56.1431C40.3675 56.0114 40.7131 55.8723 41.0552 55.726L41.9675 57.8666C41.5961 58.0253 41.2223 58.1758 40.8448 58.3191ZM43.0722 57.369L42.0723 55.268C42.4078 55.1078 42.741 54.942 43.0704 54.7681L44.1543 56.8268C43.7976 57.0158 43.4363 57.1964 43.0722 57.369ZM45.2139 56.2419L44.0468 54.2285C44.3686 54.0421 44.6867 53.8489 45.0014 53.6496L46.2492 55.6136C45.9081 55.8306 45.5626 56.0396 45.2139 56.2419ZM47.2574 54.9449L45.9324 53.0319C46.2381 52.8199 46.5399 52.6024 46.8371 52.3775L48.2393 54.2351C47.916 54.4785 47.5894 54.7155 47.2574 54.9449ZM49.1899 53.487L47.7161 51.6866C48.0036 51.4512 48.2871 51.2091 48.5662 50.9618L50.1115 52.7014C49.8084 52.9698 49.5012 53.232 49.1899 53.487ZM50.9992 51.8799L49.3871 50.2026C49.6548 49.9447 49.9183 49.6809 50.1777 49.4119L51.8551 51.0241C51.575 51.3163 51.2896 51.6014 50.9992 51.8799ZM52.6771 50.1355L50.9361 48.5912C51.1845 48.3117 51.4264 48.0276 51.6624 47.7402L53.4608 49.2174C53.2058 49.5276 52.9445 49.8343 52.6771 50.1355ZM54.2097 48.2671L52.3532 46.8643C52.5784 46.5665 52.7969 46.2648 53.0092 45.9599L54.9193 47.2893C54.6902 47.6187 54.4529 47.9448 54.2097 48.2671ZM55.5906 46.2814L53.6272 45.0318C53.8278 44.7171 54.0215 44.399 54.2084 44.0772L56.2194 45.2488C56.0167 45.5961 55.8068 45.9404 55.5906 46.2814ZM56.8073 44.1897L54.7496 43.1021C54.9233 42.7732 55.0912 42.4408 55.2511 42.1058L57.3508 43.1079C57.1771 43.4719 56.996 43.8328 56.8073 44.1897ZM57.8497 42.0066L55.7123 41.0874C55.8591 40.7461 55.9982 40.4016 56.1304 40.0547L58.3053 40.8836C58.1617 41.2608 58.0102 41.6352 57.8497 42.0066ZM58.7143 39.7438L56.5077 39.0041C56.6262 38.6511 56.7371 38.2956 56.8419 37.9381L59.0757 38.5888C58.9629 38.9764 58.8418 39.3615 58.7143 39.7438ZM59.3895 37.4194L57.1304 36.8598C57.2196 36.4992 57.302 36.1367 57.3772 35.7719L59.6567 36.2379C59.5759 36.6344 59.4867 37.0282 59.3895 37.4194ZM59.8757 35.0481L57.5794 34.6733C57.6393 34.3061 57.6913 33.9376 57.737 33.5677L60.0471 33.8494C59.998 34.2509 59.9412 34.6506 59.8757 35.0481ZM60.1696 32.6449L57.8505 32.4561C57.8803 32.0857 57.9033 31.7133 57.9191 31.3392L60.244 31.4382C60.2268 31.8416 60.2018 32.2439 60.1696 32.6449ZM0.0113428 30.9615C0.00342347 30.6819 0 30.4029 0 30.1252L0.00236846 29.7495L2.32934 29.7825L2.32697 30.1252C2.32697 30.382 2.3304 30.6391 2.33726 30.8973L0.0113428 30.9615ZM60.2707 30.2252H57.9437V30.1555C57.9437 29.8953 57.9397 29.6344 57.9329 29.3731L57.9239 29.1041L60.2498 29.0191L60.2591 29.3066C60.267 29.5925 60.2709 29.8741 60.2709 30.1555V30.2252H60.2707ZM2.36523 28.6646L0.0414399 28.5424C0.0622942 28.1385 0.0913301 27.7362 0.128815 27.3357L2.44549 27.5509C2.4117 27.9204 2.38503 28.2919 2.36523 28.6646ZM57.8613 27.9907C57.8323 27.6179 57.797 27.2465 57.7544 26.8769L60.0664 26.6098C60.1118 27.0089 60.1503 27.4086 60.1817 27.8109L57.8613 27.9907ZM2.57061 26.4419L0.264236 26.1328C0.318087 25.7321 0.3796 25.3342 0.448234 24.938L2.74114 25.3382C2.67673 25.7038 2.62024 26.0721 2.57061 26.4419ZM57.6034 25.7722C57.5454 25.4034 57.4807 25.0365 57.4086 24.6722L59.6912 24.2211C59.7691 24.616 59.8396 25.0125 59.9022 25.4113L57.6034 25.7722ZM2.9547 24.2432L0.681052 23.7501C0.766317 23.3547 0.860032 22.9629 0.9614 22.573L3.2134 23.1577C3.11995 23.5173 3.03443 23.8784 2.9547 24.2432ZM57.1692 23.582C57.0829 23.22 56.9884 22.8605 56.8875 22.5026L59.1258 21.8685C59.2361 22.256 59.3386 22.6467 59.4325 23.04L57.1692 23.582ZM3.51724 22.0799L1.29005 21.4049C1.40752 21.0161 1.53319 20.632 1.66623 20.2503L3.86358 21.0166C3.74109 21.3685 3.62573 21.723 3.51724 22.0799ZM56.5613 21.4345C56.4459 21.081 56.3234 20.7307 56.193 20.3831L58.3724 19.5676C58.5139 19.9462 58.648 20.3274 58.7737 20.712L56.5613 21.4345ZM4.25294 19.9676L2.08833 19.1144C2.23669 18.7374 2.39296 18.3642 2.55584 17.9951L4.68429 18.9359C4.53382 19.2762 4.38995 19.6196 4.25294 19.9676ZM55.7817 19.3454C55.6368 19.0027 55.4858 18.6617 55.3277 18.3248L57.4342 17.3365C57.6058 17.7018 57.7697 18.0698 57.9258 18.442L55.7817 19.3454ZM5.1568 17.9233L3.06847 16.8962C3.24692 16.5337 3.43197 16.1747 3.62388 15.8202L5.6705 16.9279C5.49311 17.2563 5.32153 17.5881 5.1568 17.9233ZM54.8333 17.3257C54.6617 16.9949 54.4832 16.6678 54.2982 16.3439L56.3184 15.1893C56.5185 15.5393 56.7115 15.8933 56.8978 16.2508L54.8333 17.3257ZM6.22222 15.9575L4.22338 14.7667C4.42954 14.419 4.64336 14.0769 4.86273 13.7393L6.81381 15.0074C6.61028 15.32 6.41361 15.6373 6.22222 15.9575ZM53.724 15.3865C53.5268 15.0724 53.3225 14.7611 53.1116 14.4544L55.031 13.1374C55.2599 13.4716 55.4816 13.809 55.6957 14.1511L53.724 15.3865ZM7.4418 14.084L5.54327 12.7385C5.77689 12.4091 6.0171 12.0841 6.26313 11.7647L8.10624 13.1862C7.87843 13.4806 7.65721 13.7791 7.4418 14.084ZM52.4617 13.546C52.2394 13.2475 52.0105 12.9539 51.7753 12.6636L53.5831 11.1977C53.8378 11.5118 54.0846 11.8304 54.3261 12.1528L52.4617 13.546ZM8.80552 12.3148L7.02023 10.8218C7.27919 10.5116 7.54396 10.207 7.8156 9.90868L9.53832 11.473C9.28833 11.7489 9.04415 12.0295 8.80552 12.3148ZM51.0544 11.8101C50.8089 11.5303 50.5573 11.2555 50.2994 10.9852L51.9857 9.38073C52.2642 9.67374 52.5364 9.97099 52.8022 10.2727L51.0544 11.8101ZM10.306 10.6592L8.64475 9.02963C8.92694 8.74163 9.21574 8.45918 9.50928 8.18306L11.1034 9.87859C10.8326 10.1331 10.5668 10.3936 10.306 10.6592ZM49.5154 10.1933L49.2501 9.93931C49.0682 9.76667 48.8829 9.5956 48.6953 9.42771L50.2487 7.69523C50.4523 7.87763 50.6532 8.06295 50.8519 8.25143L51.131 8.51858L49.5154 10.1933ZM11.9318 9.12969L10.4071 7.37291C10.7109 7.10893 11.02 6.85077 11.3344 6.59919L12.79 8.41483C12.4994 8.6474 12.2129 8.88577 11.9318 9.12969ZM47.8484 8.69702C47.5617 8.45944 47.2708 8.22768 46.9751 8.00145L48.3885 6.1528C48.7079 6.39698 49.0236 6.64802 49.3346 6.90619L47.8484 8.69702ZM13.6746 7.7343L12.2929 5.86296C12.6168 5.62327 12.9463 5.39017 13.2802 5.1642L14.5845 7.09125C14.2767 7.30032 13.9732 7.51388 13.6746 7.7343ZM46.0747 7.34123C45.7704 7.12662 45.4623 6.91914 45.1498 6.71878L46.4097 4.76218C46.7484 4.98022 47.0837 5.20512 47.4144 5.43822L46.0747 7.34123ZM15.5214 6.48462L14.2934 4.50743C14.6352 4.29493 14.9818 4.08928 15.3334 3.89103L16.4788 5.91655C16.1555 6.09922 15.836 6.28901 15.5214 6.48462ZM44.1997 6.13221C43.8782 5.94373 43.554 5.7608 43.2261 5.58525L44.3248 3.53414C44.6801 3.72447 45.0317 3.92219 45.3791 4.12677L44.1997 6.13221ZM17.4592 5.38674L16.3957 3.31742C16.7531 3.13342 17.115 2.95629 17.4796 2.78682L18.4602 4.89732C18.1229 5.05386 17.7892 5.21753 17.4592 5.38674ZM42.2312 5.07789C41.8965 4.91554 41.5591 4.76032 41.2181 4.61196L42.1465 2.47797C42.5168 2.63926 42.884 2.8074 43.247 2.98427L42.2312 5.07789ZM19.4792 4.44935L18.5848 2.30058C18.9563 2.14615 19.3319 1.99831 19.712 1.85814L20.5177 4.0415C20.1682 4.17033 19.8224 4.30627 19.4792 4.44935ZM40.187 4.18749C39.8401 4.05287 39.4898 3.92563 39.1376 3.80525L39.89 1.60314C40.2717 1.73328 40.6502 1.87135 41.0269 2.01733L40.187 4.18749ZM21.5723 3.67563L20.8551 1.46192C21.2381 1.33758 21.6243 1.22117 22.0142 1.11214L22.6403 3.35331C22.2811 3.45389 21.9252 3.56133 21.5723 3.67563ZM38.0746 3.46657C37.7177 3.36097 37.3587 3.26198 36.9981 3.17038L37.5686 0.914417C37.9598 1.01315 38.3486 1.12007 38.7361 1.2349L38.0746 3.46657ZM23.7213 3.07456L23.1862 0.809883C23.5775 0.716699 23.9716 0.632225 24.3689 0.554879L24.8121 2.83934C24.4462 2.91035 24.0819 2.98903 23.7213 3.07456ZM35.9113 2.91881C35.5465 2.84278 35.1806 2.77336 34.8132 2.71159L35.1996 0.416816C35.598 0.483866 35.9945 0.558843 36.3886 0.641997L35.9113 2.91881ZM25.9126 2.64822L25.5605 0.347132C25.9575 0.286945 26.3579 0.233628 26.7602 0.188751L27.0184 2.50146C26.6478 2.54264 26.2793 2.59173 25.9126 2.64822ZM33.7092 2.54897C33.3407 2.50172 32.9701 2.46266 32.5973 2.43045L32.7985 0.112461C33.2005 0.147306 33.6018 0.189809 34.0014 0.240229L33.7092 2.54897ZM28.1305 2.39957L27.9648 0.0781429C28.3652 0.0498973 28.7667 0.0285152 29.1714 0.0155802L29.2464 2.34176C28.8726 2.35337 28.5006 2.37291 28.1305 2.39957ZM31.4825 2.35628C31.1117 2.33938 30.7389 2.32961 30.3657 2.32697L30.3804 0C30.7856 0.00290376 31.189 0.0137256 31.5908 0.0316761L31.4825 2.35628Z" fill="#00DFE2"/>
<path d="M30.6896 50.3725L30.626 48.0466C31.5391 48.0207 32.4532 47.9278 33.3428 47.7675L33.7544 50.0583C32.7502 50.2384 31.7191 50.3445 30.6896 50.3725ZM36.7397 49.2822L35.9832 47.0812C36.8427 46.7863 37.684 46.4223 38.4854 45.9994L39.5714 48.0571C38.6647 48.5357 37.7117 48.948 36.7397 49.2822ZM42.1803 46.4131L40.7915 44.5452C41.5172 44.0066 42.2115 43.4045 42.8545 42.7556L44.5065 44.3942C43.7816 45.1259 42.9986 45.8046 42.1803 46.4131ZM46.5067 42.0498L44.6274 40.6771C45.1654 39.9408 45.6487 39.1603 46.064 38.358L48.1309 39.4285C47.661 40.3358 47.1143 41.218 46.5067 42.0498ZM49.3347 36.5878L47.1281 35.8479C47.4169 34.9889 47.6404 34.0987 47.7943 33.2039L50.0875 33.5969C49.9143 34.6095 49.6609 35.6161 49.3347 36.5878ZM9.89817 30.6916C9.89263 30.5036 9.89026 30.3154 9.89026 30.128C9.89026 29.3725 9.93275 28.6088 10.0172 27.8575L12.3297 28.1165C12.2552 28.7822 12.2172 29.4585 12.2172 30.1277C12.2172 30.2924 12.2196 30.4582 12.2238 30.6243L9.89817 30.6916ZM50.3768 30.5303L48.0499 30.4859C48.0522 30.3735 48.0533 30.2616 48.0533 30.1491C48.0533 29.9815 48.0509 29.8136 48.0467 29.646C48.029 29.0145 47.9783 28.3794 47.8968 27.758L50.2044 27.4547C50.2966 28.1558 50.3531 28.8704 50.3726 29.5808C50.3781 29.7695 50.3805 29.9598 50.3805 30.1494C50.38 30.2764 50.379 30.4028 50.3768 30.5303ZM12.8415 25.4389L10.5961 24.8284C10.8651 23.8398 11.2133 22.8628 11.6315 21.9241L13.7573 22.8707C13.3877 23.7012 13.0791 24.5649 12.8415 25.4389ZM47.3353 25.0879C47.0808 24.2146 46.7572 23.3567 46.3728 22.5365L48.4807 21.5503C48.9146 22.4774 49.2811 23.4488 49.5691 24.4364L47.3353 25.0879ZM15.0531 20.4719L13.0965 19.2128C13.6512 18.3503 14.2763 17.5238 14.9539 16.7549L16.699 18.2939C16.0988 18.9754 15.5447 19.7082 15.0531 20.4719ZM45.03 20.1639C44.5255 19.4129 43.9564 18.6925 43.3392 18.0222L45.0516 16.446C45.7482 17.2028 46.3905 18.0169 46.9615 18.8656L45.03 20.1639ZM18.6535 16.3892L17.1607 14.604C17.9485 13.9451 18.7919 13.3416 19.6672 12.8105L20.8739 14.8006C20.0983 15.2705 19.3518 15.8051 18.6535 16.3892ZM41.3446 16.1551C40.6345 15.5841 39.8768 15.0649 39.0942 14.6119L40.2601 12.5972C41.1453 13.1096 42.0008 13.6961 42.8025 14.3413L41.3446 16.1551ZM23.3085 13.5679L22.42 11.4172C23.37 11.0252 24.3568 10.7037 25.353 10.4616L25.9032 12.7226C25.0212 12.9361 24.1485 13.2212 23.3085 13.5679ZM36.6362 13.4303C35.792 13.1019 34.9138 12.8361 34.0255 12.6394L34.5279 10.3671C35.5323 10.5899 36.5246 10.8903 37.4794 11.2615L36.6362 13.4303ZM28.595 12.2831L28.3949 9.96454C28.7869 9.93049 29.182 9.90912 29.5804 9.8975C30.2131 9.88061 30.8504 9.89248 31.476 9.93419L31.3247 12.2554C30.7696 12.2202 30.2063 12.2089 29.6443 12.2237C29.2916 12.234 28.9416 12.2532 28.595 12.2831Z" fill="#00DFE2"/>
</svg>
