<svg width="25" height="25" viewBox="0 0 25 25" fill="none" xmlns="http://www.w3.org/2000/svg">
<path d="M22.1623 11.4814C19.9191 11.4814 18.094 13.3066 18.094 15.5498V16.2928C17.1933 15.9709 15.4511 15.5498 12.5 15.5498C9.54892 15.5498 7.80716 15.9709 6.90602 16.2928V15.5498C6.90602 13.3066 5.08085 11.4814 2.83767 11.4814C1.43562 11.4814 0.294952 12.6221 0.294952 14.0242C0.294952 15.0529 0.909273 15.976 1.86076 16.3721C2.14554 16.4911 2.32913 16.7672 2.32913 17.0754L2.83767 19.1096C2.83767 20.9353 4.2204 22.4431 5.99369 22.645C5.57618 22.8443 5.28529 23.2675 5.28529 23.7597C5.28529 24.4452 5.84062 24.9996 6.52512 24.9996C7.20962 24.9996 7.76495 24.4442 7.76495 23.7597C7.76495 23.2847 7.4944 22.8779 7.10181 22.6684H17.8997C17.5071 22.8764 17.2366 23.2842 17.2366 23.7597C17.2366 24.4452 17.7919 24.9996 18.4764 24.9996C19.1609 24.9996 19.7162 24.4442 19.7162 23.7597C19.7162 23.2664 19.4258 22.8433 19.0073 22.645C20.7791 22.4431 22.1618 20.9353 22.1618 19.1096L22.6704 17.0754C22.6704 16.7672 22.8539 16.4921 23.1387 16.3721C24.0902 15.9765 24.7045 15.0529 24.7045 14.0242C24.705 12.6221 23.5644 11.4814 22.1623 11.4814Z" fill="white"/>
<path d="M8.30453 14.3608C9.36281 14.1675 10.7405 14.0241 12.5 14.0241C14.2596 14.0241 15.6372 14.1675 16.6955 14.3608C17.0952 12.5198 18.4057 11.0176 20.1287 10.3428V7.62815C20.1287 3.41538 16.7133 0 12.5 0C8.28724 0 4.87186 3.41538 4.87186 7.62815V10.3433C6.59429 11.0181 7.90481 12.5203 8.30453 14.3608Z" fill="white"/>
</svg>
