<svg width="22" height="22" viewBox="0 0 22 22" fill="none" xmlns="http://www.w3.org/2000/svg">
<g clip-path="url(#clip0)">
<path d="M21.7004 10.2766L15.1536 3.72976C14.7541 3.33032 14.1063 3.33032 13.7069 3.72976C13.3074 4.12928 13.3074 4.77692 13.7069 5.17644L18.5074 9.97699H1.02294C0.458033 9.97699 0 10.435 0 10.9999C0 11.5648 0.458033 12.0229 1.02294 12.0229H18.5074L13.707 16.8234C13.3075 17.223 13.3075 17.8706 13.707 18.2701C13.9067 18.4697 14.1686 18.5697 14.4304 18.5697C14.6922 18.5697 14.954 18.4697 15.1537 18.2701L21.7004 11.7233C22.0999 11.3238 22.0999 10.6761 21.7004 10.2766Z" fill="#8BC34A"/>
</g>
<defs>
<clipPath id="clip0">
<rect width="22" height="22" fill="white"/>
</clipPath>
</defs>
</svg>
