<svg width="21" height="21" viewBox="0 0 21 21" fill="none" xmlns="http://www.w3.org/2000/svg">
<g opacity="0.4" clip-path="url(#clip0)">
<path d="M5.20247 0.64027L5.20185 0.639645C5.20091 0.639021 5.19997 0.638396 5.19872 0.63777C5.13778 0.584021 5.06435 0.544645 4.98685 0.513082C4.9631 0.503082 4.9406 0.496521 4.91653 0.489332C4.85685 0.471208 4.79497 0.459958 4.73028 0.456208C4.70653 0.454334 4.68403 0.450582 4.65966 0.451207C4.64716 0.451207 4.63591 0.448081 4.62372 0.448707C4.54903 0.453082 4.47685 0.468081 4.40903 0.491208C4.40185 0.493083 4.39622 0.498082 4.38903 0.500582C4.31435 0.528082 4.2481 0.567456 4.18747 0.614018C4.17903 0.620581 4.16778 0.622769 4.15935 0.629645L0.363722 3.85182C0.0730973 4.09838 0.0674723 4.50307 0.35216 4.7562C0.636535 5.0087 1.10278 5.01339 1.39403 4.7662L3.4406 3.02933C3.10435 5.56714 3.63841 8.06183 3.66466 8.17964C5.0606 15.8815 12.1731 21.3318 19.5197 20.3297C19.8834 20.28 20.1422 20.0084 20.1422 19.6987C20.1422 19.6656 20.1393 19.6325 20.1337 19.5987C20.0703 19.25 19.6934 19.0119 19.2912 19.0662C12.7475 19.959 6.3906 14.9862 5.11685 7.9609C5.10935 7.92871 4.55622 5.35121 4.93747 2.92433L6.52903 5.60465C6.71591 5.91871 7.16028 6.04153 7.52185 5.87996C7.88403 5.71871 8.02435 5.33371 7.83966 5.01871L5.33091 0.793707C5.29622 0.736521 5.25278 0.685271 5.20247 0.64027Z" fill="white"/>
</g>
<defs>
<clipPath id="clip0">
<rect width="20" height="20" fill="white" transform="matrix(1.19249e-08 1 1 1.92683e-06 0.142151 0.448639)"/>
</clipPath>
</defs>
</svg>
