<svg width="22" height="22" viewBox="0 0 22 22" fill="none" xmlns="http://www.w3.org/2000/svg">
<g clip-path="url(#clip0)">
<path d="M21.7004 10.2767L15.1536 3.72982C14.7541 3.33038 14.1063 3.33038 13.7069 3.72982C13.3074 4.12934 13.3074 4.77698 13.7069 5.1765L18.5074 9.97705H1.02294C0.458033 9.97705 0 10.4351 0 11C0 11.5648 0.458033 12.0229 1.02294 12.0229H18.5074L13.707 16.8235C13.3075 17.223 13.3075 17.8707 13.707 18.2702C13.9067 18.4698 14.1686 18.5698 14.4304 18.5698C14.6922 18.5698 14.954 18.4698 15.1537 18.2702L21.7004 11.7233C22.0999 11.3238 22.0999 10.6762 21.7004 10.2767Z" fill="white"/>
</g>
<defs>
<clipPath id="clip0">
<rect width="22" height="22" fill="white"/>
</clipPath>
</defs>
</svg>
