<svg width="27" height="27" viewBox="0 0 27 27" fill="none" xmlns="http://www.w3.org/2000/svg">
<g clip-path="url(#clip0)">
<path d="M5.79749 25.2499C6.9868 25.014 7.80082 23.9398 8.26425 22.831H7.63529C7.36706 22.831 7.10151 22.8257 6.83901 22.8137C6.56638 23.3714 6.15252 23.8539 5.53458 23.9504C5.34383 23.7853 5.0986 23.6822 4.82638 23.6822C4.22571 23.6822 3.73886 24.1691 3.73886 24.7697C3.73886 25.3703 4.22576 25.8572 4.82638 25.8572C5.25394 25.8572 5.61998 25.6085 5.79749 25.2499Z" fill="white"/>
<path d="M22.7588 25.8573C23.3595 25.8573 23.8463 25.3704 23.8463 24.7698C23.8463 24.1692 23.3594 23.6823 22.7588 23.6823C22.5189 23.6823 22.2989 23.7623 22.1193 23.8943C21.5917 23.7185 21.2128 23.2551 20.9494 22.739C20.5466 22.809 20.1885 22.8311 19.9199 22.8311H19.8486H19.8074H19.4467C19.8265 23.8735 20.5294 24.8857 21.7603 25.1991C21.9267 25.586 22.3109 25.8573 22.7588 25.8573Z" fill="white"/>
<path d="M20.9781 5.09828L18.7553 2.875C18.3472 2.97901 17.0959 3.78594 16.7219 4.17633L19.6799 7.13437C20.0677 6.76342 20.8661 5.52449 20.9781 5.09828Z" fill="white"/>
<path d="M16.755 5.93088C16.8117 5.93088 16.8684 5.90917 16.9118 5.86626L17.2247 5.55331C17.2446 5.53341 17.2584 5.5104 17.269 5.48647C17.3053 5.40505 17.2911 5.3072 17.2247 5.24041C17.1583 5.17357 17.06 5.15982 16.9786 5.19611C16.9547 5.20671 16.9317 5.22092 16.9118 5.24041L16.5984 5.55289C16.5121 5.63922 16.5121 5.77952 16.5984 5.86584C16.6417 5.90917 16.6984 5.93088 16.755 5.93088Z" fill="white"/>
<path d="M15.8159 6.86952C15.8725 6.86952 15.9291 6.84786 15.9725 6.8049L16.2855 6.49195C16.3718 6.40563 16.3718 6.26533 16.2855 6.179C16.1992 6.09268 16.0589 6.09268 15.9725 6.179L15.6596 6.49195C15.5733 6.57828 15.5733 6.71858 15.6596 6.8049C15.703 6.84827 15.7592 6.86952 15.8159 6.86952Z" fill="white"/>
<path d="M14.877 7.80892C14.9337 7.80892 14.9903 7.78721 15.0337 7.7443L15.3466 7.4314C15.433 7.34508 15.433 7.20478 15.3466 7.11846C15.2604 7.03213 15.12 7.03213 15.0337 7.11846L14.7207 7.4314C14.6345 7.51768 14.6345 7.65802 14.7207 7.7443C14.7637 7.78721 14.8204 7.80892 14.877 7.80892Z" fill="white"/>
<path d="M17.8944 6.11201C17.9307 6.03054 17.9169 5.93227 17.8501 5.86589C17.7833 5.79906 17.6854 5.78531 17.604 5.8216C17.5801 5.8322 17.5571 5.84641 17.5372 5.86589L17.2243 6.17926C17.138 6.26559 17.138 6.40588 17.2243 6.49221C17.2677 6.53563 17.3243 6.55683 17.381 6.55683C17.4377 6.55683 17.4943 6.53512 17.5377 6.49221L17.8506 6.17884C17.87 6.15936 17.8837 6.13635 17.8944 6.11201Z" fill="white"/>
<path d="M16.9113 6.80498C16.825 6.71865 16.6847 6.71865 16.5983 6.80498L16.2854 7.11793C16.1991 7.20425 16.1991 7.34455 16.2854 7.43088C16.3288 7.47425 16.3854 7.49549 16.4421 7.49549C16.4988 7.49549 16.5554 7.47383 16.5988 7.43088L16.9118 7.11793C16.9976 7.0316 16.9976 6.89126 16.9113 6.80498Z" fill="white"/>
<path d="M15.9725 7.7437C15.8862 7.65737 15.7459 7.65737 15.6596 7.7437L15.3466 8.05707C15.2603 8.14339 15.2603 8.28369 15.3466 8.37002C15.39 8.41339 15.4466 8.43464 15.5033 8.43464C15.56 8.43464 15.6166 8.41297 15.66 8.37002L15.973 8.05665C16.0589 7.97032 16.0589 7.83003 15.9725 7.7437Z" fill="white"/>
<path d="M18.0068 7.1826C18.0635 7.1826 18.1201 7.16094 18.1635 7.11798L18.4764 6.80503C18.4963 6.78513 18.5101 6.76208 18.5207 6.73819C18.557 6.65677 18.5428 6.55892 18.4764 6.49208C18.41 6.42524 18.3118 6.41154 18.2303 6.44783C18.2064 6.45843 18.183 6.4726 18.1635 6.49208L17.8506 6.80503C17.7643 6.89136 17.7643 7.03165 17.8506 7.11798C17.8935 7.16135 17.9502 7.1826 18.0068 7.1826Z" fill="white"/>
<path d="M17.068 8.12191C17.1247 8.12191 17.1813 8.10025 17.2247 8.0573L17.5377 7.74435C17.6239 7.65802 17.6239 7.51772 17.5377 7.43144C17.4513 7.34512 17.311 7.34512 17.2247 7.43144L16.9118 7.74435C16.8254 7.83067 16.8254 7.97097 16.9118 8.0573C16.9547 8.10025 17.0114 8.12191 17.068 8.12191Z" fill="white"/>
<path d="M16.1287 9.06067C16.1854 9.06067 16.242 9.03901 16.2854 8.99606L16.5984 8.68311C16.6847 8.59679 16.6847 8.45649 16.5984 8.37016C16.5121 8.28384 16.3718 8.28384 16.2854 8.37016L15.9725 8.68311C15.8862 8.76944 15.8862 8.90973 15.9725 8.99606C16.0159 9.03901 16.0725 9.06067 16.1287 9.06067Z" fill="white"/>
<path d="M26.1148 11.7655H25.4509H24.7869V1.58518C24.7869 1.34087 24.5891 1.14258 24.3443 1.14258H22.4216C22.3105 1.14258 22.2033 1.18419 22.1215 1.25941L20.5307 2.72408C20.1691 2.63248 19.7565 2.75593 19.502 2.85952L21.022 4.37992C21.1318 4.09664 21.2336 3.70977 21.1472 3.36012L22.5946 2.02782H23.9017V11.7655H1.54919H0.885247C0.396174 11.7655 0 12.1617 0 12.6508V13.536C0 14.0251 0.396174 14.4213 0.885247 14.4213H0.983931H1.17871H1.43588C1.50318 14.7639 1.58993 15.1578 1.69972 15.6119L2.31937 18.5811C3.18647 21.7901 4.94234 22.3111 7.02314 22.3784C7.22454 22.3846 7.42816 22.3885 7.63529 22.3885H8.43245L19.3028 22.389C19.3024 22.3868 19.3019 22.385 19.3011 22.3828C19.3015 22.3846 19.302 22.3868 19.3028 22.3885H19.9198C20.1708 22.3885 20.4585 22.3726 20.767 22.327C22.1281 22.1265 23.896 21.3502 24.7219 18.8148L25.7288 14.4213H25.9908H26.1148C26.1387 14.4213 26.1608 14.416 26.1843 14.4142C26.6402 14.3784 27 14.0013 27 13.5361V12.6508C27 12.1617 26.6039 11.7655 26.1148 11.7655ZM19.0594 21.015C19.0594 21.0177 19.0598 21.0208 19.0603 21.0234C19.0598 21.0208 19.0594 21.0177 19.0594 21.015Z" fill="white"/>
</g>
<defs>
<clipPath id="clip0">
<rect width="27" height="27" fill="white"/>
</clipPath>
</defs>
</svg>
