<svg width="23" height="23" viewBox="0 0 23 23" fill="none" xmlns="http://www.w3.org/2000/svg">
<path d="M6.13333 2.29999L4.6 0.766655C1.97143 2.73808 0.219048 5.80475 0 9.30951H2.19048C2.40952 6.35237 3.83333 3.83332 6.13333 2.29999ZM20.8095 9.30951H23C22.781 5.80475 21.1381 2.73808 18.5095 0.766655L16.9762 2.29999C19.1667 3.83332 20.5905 6.35237 20.8095 9.30951ZM18.619 9.85713C18.619 6.46189 16.319 3.7238 13.1429 2.95713V2.19046C13.1429 1.31427 12.3762 0.547607 11.5 0.547607C10.6238 0.547607 9.85714 1.31427 9.85714 2.19046V2.95713C6.68095 3.7238 4.38095 6.46189 4.38095 9.85713V15.8809L2.19048 18.0714V19.1667H20.8095V18.0714L18.619 15.8809V9.85713ZM11.5 22.4524C11.6095 22.4524 11.8286 22.4524 11.9381 22.4524C12.7048 22.3428 13.2524 21.7952 13.4714 21.1381C13.581 20.919 13.6905 20.5905 13.6905 20.2619H9.30952C9.30952 21.4667 10.2952 22.4524 11.5 22.4524Z" fill="white"/>
</svg>
