<svg width="26" height="26" viewBox="0 0 26 26" fill="none" xmlns="http://www.w3.org/2000/svg">
<g clip-path="url(#clip0)">
<path d="M14.7035 19.6855H6.04356C5.70223 19.6855 5.4256 19.9622 5.4256 20.3035V24.6334C5.4256 24.9748 5.70223 25.2514 6.04356 25.2514H14.7035C15.0448 25.2514 15.3214 24.9748 15.3214 24.6334V20.3036C15.3214 19.9623 15.0448 19.6855 14.7035 19.6855Z" fill="white"/>
<path d="M25.382 19.6855H16.722C16.3807 19.6855 16.1041 19.9622 16.1041 20.3035V24.6334C16.1041 24.9748 16.3807 25.2514 16.722 25.2514H25.382C25.7234 25.2514 26 24.9748 26 24.6334V20.3036C26 19.9623 25.7234 19.6855 25.382 19.6855Z" fill="white"/>
<path d="M6.04356 12.6268H14.7035C15.0448 12.6268 15.3214 12.3502 15.3214 12.0088V7.679C15.3214 7.33767 15.0448 7.06104 14.7035 7.06104H6.04356C5.70223 7.06104 5.4256 7.33767 5.4256 7.679V12.0088C5.4256 12.3501 5.70223 12.6268 6.04356 12.6268Z" fill="white"/>
<path d="M25.382 7.06055H16.722C16.3807 7.06055 16.1041 7.33718 16.1041 7.67851V12.0083C16.1041 12.3497 16.3807 12.6263 16.722 12.6263H25.382C25.7234 12.6263 26 12.3497 26 12.0083V7.67851C26 7.33727 25.7234 7.06055 25.382 7.06055Z" fill="white"/>
<path d="M11.2499 6.31429H19.9099C20.2512 6.31429 20.5278 6.03765 20.5278 5.69633V1.36649C20.5278 1.02517 20.2512 0.748535 19.9099 0.748535H11.2499C10.9085 0.748535 10.6319 1.02517 10.6319 1.36649V5.69633C10.6319 6.03757 10.9085 6.31429 11.2499 6.31429Z" fill="white"/>
<path d="M10.811 13.991V18.321C10.811 18.6623 11.0876 18.939 11.429 18.939H20.0889C20.4302 18.939 20.7068 18.6623 20.7068 18.321V13.991C20.7068 13.6497 20.4302 13.373 20.0889 13.373H11.429C11.0876 13.373 10.811 13.6497 10.811 13.991Z" fill="white"/>
<path d="M9.89593 18.321V13.991C9.89593 13.6497 9.6193 13.373 9.27797 13.373H0.61796C0.276633 13.373 0 13.6497 0 13.991V18.321C0 18.6623 0.276633 18.939 0.61796 18.939H9.27797C9.6193 18.9391 9.89593 18.6623 9.89593 18.321Z" fill="white"/>
</g>
<defs>
<clipPath id="clip0">
<rect width="26" height="26" fill="white"/>
</clipPath>
</defs>
</svg>
