<svg width="57" height="57" viewBox="0 0 57 57" fill="none" xmlns="http://www.w3.org/2000/svg">
<path d="M41.4464 5.65082H3.20971C1.43981 5.65082 0 7.09063 0 8.86041V31.8003C0 33.5701 1.43981 35.01 3.20971 35.01H5.6891V43.55C5.6891 44.0937 6.01663 44.5841 6.51916 44.7923C6.68549 44.8613 6.86027 44.8947 7.0335 44.8947C7.38352 44.8947 7.7273 44.758 7.98458 44.5009L17.4754 35.0101H19.3796C20.1223 35.0101 20.7242 34.4082 20.7242 33.6655C20.7242 32.9227 20.122 32.3208 19.3796 32.3208C19.3796 32.3208 16.8536 32.3225 16.8272 32.3252C16.5141 32.3465 16.2068 32.4754 15.9675 32.7146L8.37835 40.3038C8.37835 40.3038 8.37601 33.5804 8.37167 33.5456C8.31099 32.8591 7.7352 32.3208 7.03306 32.3208H3.20971C2.9227 32.3208 2.68936 32.0873 2.68936 31.8004V8.86041C2.68936 8.57341 2.92281 8.34007 3.20971 8.34007H41.4464C41.7334 8.34007 41.9668 8.57352 41.9668 8.86041V17.6615C41.9668 18.4042 42.5689 19.0061 43.3114 19.0061C44.0538 19.0061 44.656 18.4042 44.656 17.6615V8.86041C44.656 7.09063 43.2162 5.65082 41.4464 5.65082Z" fill="#8BC34A"/>
<path d="M53.7904 22.0978H27.0254C25.2556 22.0978 23.8157 23.5376 23.8157 25.3075V40.9569C23.8157 42.7267 25.2555 44.1666 27.0254 44.1666H43.7818L50.5706 50.9554C50.8279 51.2127 51.1718 51.3493 51.5217 51.3493C51.6949 51.3493 51.8697 51.3158 52.0361 51.2469C52.5384 51.0387 52.8661 50.5485 52.8661 50.0046V44.1665H53.7903C55.56 44.1665 57 42.7267 57 40.9568V25.3074C57.0001 23.5376 55.5603 22.0978 53.7904 22.0978ZM54.3108 40.9569C54.3108 41.2438 54.0774 41.4773 53.7905 41.4773H51.5221C50.8145 41.4773 50.2358 42.0241 50.1827 42.7182C50.1792 42.7476 50.177 46.7583 50.177 46.7583L45.2948 41.876C45.2897 41.8709 45.2843 41.8661 45.2792 41.861C45.2601 41.8423 45.2419 41.8261 45.2248 41.8115C44.9881 41.604 44.6789 41.4772 44.3396 41.4772H27.0254C26.7384 41.4772 26.505 41.2437 26.505 40.9568V25.3074C26.505 25.0204 26.7385 24.787 27.0254 24.787H53.7905C54.0774 24.787 54.3108 25.0205 54.3108 25.3074V40.9569Z" fill="#8BC34A"/>
<path d="M40.4082 31.7876C39.6659 31.7876 39.0635 32.39 39.0635 33.1322C39.0635 33.8745 39.6659 34.4769 40.4082 34.4769C41.1505 34.4769 41.7528 33.8745 41.7528 33.1322C41.7528 32.39 41.1504 31.7876 40.4082 31.7876Z" fill="#8BC34A"/>
<path d="M34.5643 14.5407H10.0919C9.34932 14.5407 8.74725 15.1427 8.74725 15.8853C8.74725 16.628 9.34943 17.23 10.0919 17.23H34.5643C35.3069 17.23 35.9089 16.628 35.9089 15.8853C35.9089 15.1427 35.3069 14.5407 34.5643 14.5407Z" fill="#8BC34A"/>
<path d="M19.3794 23.4307H10.0919C9.34932 23.4307 8.74725 24.0327 8.74725 24.7754C8.74725 25.518 9.34943 26.12 10.0919 26.12H19.3794C20.1221 26.12 20.7241 25.518 20.7241 24.7754C20.7241 24.0327 20.122 23.4307 19.3794 23.4307Z" fill="#8BC34A"/>
<path d="M34.1596 31.7876C33.4175 31.7876 32.815 32.39 32.815 33.1322C32.815 33.8745 33.4175 34.4769 34.1596 34.4769C34.902 34.4769 35.5043 33.8745 35.5043 33.1322C35.5043 32.39 34.902 31.7876 34.1596 31.7876Z" fill="#8BC34A"/>
<path d="M46.6554 31.7876C45.9132 31.7876 45.3108 32.39 45.3108 33.1322C45.3108 33.8745 45.9132 34.4769 46.6554 34.4769C47.3977 34.4769 48 33.8745 48 33.1322C48 32.39 47.3976 31.7876 46.6554 31.7876Z" fill="#8BC34A"/>
</svg>
