<svg width="54" height="54" viewBox="0 0 54 54" fill="none" xmlns="http://www.w3.org/2000/svg">
<path d="M27 0C12.0875 0 0 12.0875 0 27C0 41.9125 12.0875 54 27 54C41.9108 54 54 41.9108 54 27C54 12.0875 41.9108 0 27 0ZM27 50.6249C13.9523 50.6249 3.37505 40.0477 3.37505 27C3.37505 13.9523 13.9523 3.37505 27 3.37505C40.0477 3.37505 50.6249 13.9523 50.6249 27C50.6249 40.0477 40.0477 50.6249 27 50.6249Z" fill="#8BC34A"/>
<path d="M39.3187 17.5382L21.9577 34.7439L14.7335 27.6632C14.0686 27.0034 12.9887 27.0034 12.3238 27.6632C11.6572 28.323 11.6572 29.3912 12.3238 30.0493L20.7595 38.3163C21.4513 38.9255 22.4858 38.993 23.1692 38.3163L41.73 19.9243C42.3949 19.2662 42.3949 18.1963 41.73 17.5382C41.0636 16.88 39.9853 16.88 39.3187 17.5382Z" fill="#8BC34A"/>
</svg>
