<svg width="25" height="25" viewBox="0 0 25 25" fill="none" xmlns="http://www.w3.org/2000/svg">
<path d="M24.754 21.1447L19.7788 16.1694L23.3282 14.1192C23.6056 13.9591 23.7669 13.6546 23.7439 13.3351C23.7208 13.0156 23.5173 12.7374 23.2198 12.6188L7.39226 6.30518C7.08199 6.18128 6.72769 6.25426 6.49141 6.49045C6.25513 6.72682 6.18215 7.08102 6.30598 7.39129L12.6186 23.2207C12.7373 23.5181 13.0155 23.7218 13.335 23.7448C13.6545 23.7681 13.9591 23.6066 14.1192 23.3292L16.1692 19.7798L21.144 24.7551C21.3008 24.9119 21.5136 25 21.7352 25C21.957 25 22.1696 24.9119 22.3263 24.7551L24.754 22.3271C25.0805 22.0005 25.0805 21.4713 24.754 21.1447Z" fill="white"/>
<path d="M3.67088 2.48765C3.34437 2.16139 2.81516 2.1613 2.48848 2.48765C2.16204 2.81416 2.16204 3.34354 2.48848 3.67006L4.34614 5.52772C4.50935 5.69093 4.72324 5.77258 4.9373 5.77258C5.15119 5.77258 5.36516 5.69093 5.52837 5.52772C5.85489 5.2012 5.85489 4.67191 5.52837 4.34539L3.67088 2.48765Z" fill="white"/>
<path d="M4.30043 8.26718C4.30043 7.80556 3.9261 7.43115 3.46431 7.43115H0.83721C0.375509 7.43115 0.00109863 7.80548 0.00109863 8.26718C0.00109863 8.72888 0.375425 9.10329 0.83721 9.10329H3.46431C3.9261 9.10321 4.30043 8.72888 4.30043 8.26718Z" fill="white"/>
<path d="M3.96156 10.8475L2.10365 12.7053C1.77722 13.0319 1.77722 13.5612 2.10365 13.8877C2.26695 14.0509 2.48092 14.1325 2.69481 14.1325C2.9087 14.1325 3.12276 14.0509 3.28597 13.8877L5.1438 12.0299C5.47031 11.7034 5.47031 11.174 5.1438 10.8475C4.81737 10.5212 4.28824 10.5212 3.96156 10.8475Z" fill="white"/>
<path d="M8.26785 4.29949C8.72955 4.29949 9.10396 3.92517 9.10396 3.46338V0.836027C9.10396 0.374327 8.72963 0 8.26785 0C7.80623 0 7.43182 0.374242 7.43182 0.836027V3.46347C7.43182 3.92517 7.80615 4.29949 8.26785 4.29949Z" fill="white"/>
<path d="M11.4389 5.3876C11.653 5.3876 11.8668 5.30595 12.0301 5.14274L13.8876 3.28508C14.2142 2.95856 14.2142 2.42919 13.8876 2.10267C13.5611 1.77632 13.0317 1.77632 12.7053 2.10267L10.8477 3.96041C10.5212 4.28693 10.5212 4.81631 10.8477 5.14274C11.011 5.30595 11.2249 5.3876 11.4389 5.3876Z" fill="white"/>
</svg>
