<svg width="21" height="21" viewBox="0 0 21 21" fill="none" xmlns="http://www.w3.org/2000/svg">
<g clip-path="url(#clip0)">
<path d="M16.0549 9.00221C16.0545 8.99832 16.0542 8.99437 16.0536 8.99053C16.0508 8.97133 16.0472 8.95218 16.042 8.93327C16.042 8.93308 16.0419 8.93289 16.0418 8.93266C16.037 8.91498 16.0308 8.89755 16.0238 8.8803C16.0218 8.87536 16.0196 8.87061 16.0175 8.86576C16.012 8.85331 16.0058 8.84106 15.9992 8.82899C15.9963 8.82371 15.9935 8.81844 15.9904 8.81326C15.9887 8.81046 15.9874 8.80756 15.9856 8.80476C15.9786 8.79359 15.9709 8.78309 15.9631 8.77269C15.9616 8.77074 15.9604 8.7687 15.959 8.7668C15.9471 8.7514 15.9343 8.7371 15.9208 8.72356C15.9183 8.721 15.9155 8.71862 15.9129 8.71615C15.9012 8.70489 15.8891 8.69434 15.8765 8.68441C15.8732 8.68189 15.8701 8.67938 15.8668 8.67695C15.8499 8.66441 15.8324 8.65272 15.8142 8.6426L8.81468 4.66389L12.8448 2.12614L19.6012 5.96655L16.7557 7.75833C16.5336 7.89811 16.467 8.19149 16.6068 8.41351C16.7466 8.63557 17.0399 8.70223 17.262 8.5624L20.779 6.34778C20.9204 6.25879 21.0047 6.10205 21.0009 5.935C20.9971 5.76795 20.9059 5.61525 20.7607 5.53268L13.0671 1.15948C12.9149 1.07292 12.7274 1.07719 12.5791 1.17046L7.64007 4.28057C7.63907 4.28119 7.63802 4.28186 7.63703 4.28247L5.16897 5.83661C5.16783 5.83732 5.16669 5.83803 5.1656 5.83874L0.223173 8.951C0.0817802 9.03998 -0.00245679 9.19672 0.00134409 9.36377C0.00509746 9.53082 0.096271 9.68352 0.24156 9.7661L7.9352 14.1393C8.00809 14.1808 8.08905 14.2014 8.16996 14.2014C8.25799 14.2014 8.34589 14.1769 8.4231 14.1283L11.9401 11.9136C12.1622 11.7739 12.2289 11.4805 12.089 11.2585C11.9493 11.0364 11.6559 10.9697 11.4339 11.1096L8.15746 13.1727L1.40107 9.33218L5.43123 6.79438L12.6372 10.8904V16.3153C12.6372 16.4883 12.7312 16.6476 12.8827 16.7313C12.9543 16.7708 13.0334 16.7904 13.1123 16.7904C13.2004 16.7904 13.2883 16.7659 13.3655 16.7173L15.8367 15.1612C15.9749 15.0742 16.0587 14.9224 16.0587 14.7592V9.05785C16.0587 9.05505 16.0582 9.05239 16.0581 9.04958C16.0578 9.03381 16.0568 9.01803 16.0549 9.00221ZM13.5874 15.4547V10.614C13.5874 10.4431 13.4957 10.2854 13.3471 10.201L6.34344 6.22002L7.90242 5.2383L14.6588 9.07875L14.0672 9.45124C13.8451 9.59102 13.7785 9.8844 13.9183 10.1064C14.0086 10.2499 14.1629 10.3284 14.3208 10.3284C14.4073 10.3284 14.4949 10.3048 14.5735 10.2553L15.1084 9.91851V14.497L13.5874 15.4547Z" fill="#8BC34A"/>
<path d="M20.2717 7.444L16.7547 9.65864C16.5326 9.79841 16.466 10.0918 16.6058 10.3138C16.6961 10.4573 16.8504 10.5358 17.0083 10.5358C17.0948 10.5358 17.1824 10.5122 17.261 10.4627L20.778 8.24808C21.0001 8.1083 21.0667 7.81492 20.9269 7.5929C20.7871 7.37084 20.4938 7.30413 20.2717 7.444Z" fill="#8BC34A"/>
<path d="M11.4327 13.01L8.15631 15.0731L0.709961 10.8405C0.482004 10.7109 0.191807 10.7905 0.0621492 11.0187C-0.0675083 11.2468 0.0122627 11.5369 0.24041 11.6665L7.93405 16.0397C8.00694 16.0812 8.08789 16.1018 8.1688 16.1018C8.25684 16.1018 8.34474 16.0774 8.42194 16.0288L11.939 13.8141C12.1611 13.6743 12.2277 13.3809 12.0879 13.1589C11.9482 12.9368 11.6547 12.8701 11.4327 13.01Z" fill="#8BC34A"/>
<path d="M20.2717 9.34465L16.7547 11.5593C16.5326 11.6991 16.466 11.9924 16.6058 12.2145C16.6961 12.3579 16.8504 12.4365 17.0083 12.4365C17.0948 12.4365 17.1824 12.4129 17.261 12.3634L20.778 10.1487C21.0001 10.0089 21.0667 9.71557 20.9269 9.49355C20.7871 9.27144 20.4938 9.20478 20.2717 9.34465Z" fill="#8BC34A"/>
<path d="M11.4327 14.9106L8.15631 16.9737L0.709961 12.7411C0.482004 12.6115 0.191807 12.6911 0.0621492 12.9194C-0.0675083 13.1475 0.0122627 13.4375 0.24041 13.5672L7.93405 17.9404C8.00694 17.9818 8.08789 18.0025 8.1688 18.0025C8.25684 18.0025 8.34474 17.978 8.42194 17.9294L11.939 15.7147C12.1611 15.5749 12.2277 15.2816 12.0879 15.0595C11.9482 14.8374 11.6547 14.7707 11.4327 14.9106Z" fill="#8BC34A"/>
<path d="M20.2717 11.245L16.7547 13.4596C16.5326 13.5994 16.466 13.8928 16.6058 14.1148C16.6961 14.2583 16.8504 14.3368 17.0083 14.3368C17.0948 14.3368 17.1824 14.3132 17.261 14.2637L20.778 12.0491C21.0001 11.9093 21.0667 11.6159 20.9269 11.3939C20.7871 11.1718 20.4938 11.1052 20.2717 11.245Z" fill="#8BC34A"/>
<path d="M11.4327 16.811L8.15631 18.8741L0.709961 14.6415C0.482004 14.5119 0.191807 14.5915 0.0621492 14.8198C-0.0675083 15.0479 0.0122627 15.3379 0.24041 15.4676L7.93405 19.8408C8.00694 19.8822 8.08789 19.9029 8.1688 19.9029C8.25684 19.9029 8.34474 19.8784 8.42194 19.8298L11.939 17.6151C12.1611 17.4753 12.2277 17.182 12.0879 16.9599C11.9482 16.7378 11.6547 16.6711 11.4327 16.811Z" fill="#8BC34A"/>
</g>
<defs>
<clipPath id="clip0">
<rect width="21" height="21" fill="white"/>
</clipPath>
</defs>
</svg>
