<svg width="27" height="27" viewBox="0 0 27 27" fill="none" xmlns="http://www.w3.org/2000/svg">
<path d="M17.601 12.297C18.157 11.926 18.813 11.768 19.455 11.84L26.769 4.52398L22.673 0.427979L15.358 7.74398C15.432 8.39398 15.268 9.05798 14.882 9.62098L17.601 12.297Z" fill="white"/>
<path d="M4.842 21.207L4.577 20.942L3.19 22.063L0.854004 25.744L1.452 26.342L5.136 24.006L6.256 22.623L5.99 22.354L10.642 17.701L9.486 16.561L4.842 21.207Z" fill="white"/>
<path d="M11.204 8.30702C11.741 6.38702 11.254 4.24102 9.74699 2.73102C8.24499 1.23502 6.12399 0.744016 4.21499 1.26202L7.44799 4.49402L6.59999 7.66002L3.42999 8.50802L0.197993 5.27802C-0.318007 7.18602 0.171993 9.30702 1.67099 10.807C3.24199 12.379 5.50599 12.84 7.48599 12.196L7.50399 12.214L20.803 25.513C21.329 26.038 22.019 26.304 22.708 26.304C23.398 26.304 24.086 26.038 24.614 25.513C25.665 24.464 25.665 22.759 24.614 21.702L11.204 8.30702ZM22.94 25.061C22.374 25.061 21.915 24.6 21.915 24.032C21.915 23.462 22.374 23.003 22.94 23.003C23.51 23.003 23.971 23.462 23.971 24.032C23.972 24.6 23.511 25.061 22.94 25.061Z" fill="white"/>
</svg>
