<svg width="40" height="40" viewBox="0 0 40 40" fill="none" xmlns="http://www.w3.org/2000/svg">
<circle cx="20" cy="20" r="20" fill="#FF9800"/>
<path d="M26.3281 17.418V11.7578H24.043V12.8125H25.2734V17.418C25.2734 18.0473 25.5505 18.6132 25.989 19C25.5505 19.3868 25.2734 19.9527 25.2734 20.582V25.1875H24.043V26.2422H26.3281V20.582C26.3281 20.0005 26.8013 19.5273 27.3828 19.5273V18.4727C26.8013 18.4727 26.3281 17.9995 26.3281 17.418Z" fill="white"/>
<path d="M14.011 19C14.4495 18.6132 14.7266 18.0473 14.7266 17.418V12.8125H15.957V11.7578H13.6719V17.418C13.6719 17.9995 13.1987 18.4727 12.6172 18.4727V19.5273C13.1987 19.5273 13.6719 20.0005 13.6719 20.582V26.2422H15.957V25.1875H14.7266V20.582C14.7266 19.9527 14.4495 19.3868 14.011 19Z" fill="white"/>
<path d="M22.9004 16.416V21.1445C22.9004 21.508 23.1961 21.8037 23.5596 21.8037C23.9231 21.8037 24.2188 21.508 24.2188 21.1445V16.416C24.2188 15.3983 23.3907 14.5703 22.373 14.5703H20.5273V18.5781H19.4727V14.5703H17.627C16.6093 14.5703 15.7812 15.3983 15.7812 16.416V21.1445C15.7812 21.508 16.0769 21.8037 16.4404 21.8037C16.8039 21.8037 17.0996 21.508 17.0996 21.1445V16.416H18.1543V28H19.4727V21.127H20.5273V28H21.8457V16.416H22.9004Z" fill="white"/>
<path d="M20 10C19.0307 10 18.2422 10.7886 18.2422 11.7578C18.2422 12.7271 19.0307 13.5156 20 13.5156C20.9693 13.5156 21.7578 12.7271 21.7578 11.7578C21.7578 10.7886 20.9693 10 20 10Z" fill="white"/>
</svg>
