<svg width="40" height="40" viewBox="0 0 40 40" fill="none" xmlns="http://www.w3.org/2000/svg">
<circle cx="20" cy="20" r="20" fill="#FF9800"/>
<path d="M26.6191 24.4953L25.4744 22.5873C24.9458 21.7067 24.6664 20.698 24.6664 19.6713V18C24.6664 15.89 23.2584 14.1053 21.3331 13.53V12.3333C21.3331 11.598 20.7351 11 19.9997 11C19.2644 11 18.6664 11.598 18.6664 12.3333V13.53C16.7411 14.1053 15.3331 15.89 15.3331 18V19.6713C15.3331 20.698 15.0537 21.706 14.5257 22.5867L13.3811 24.4947C13.3191 24.598 13.3177 24.726 13.3771 24.8307C13.4364 24.9353 13.5464 25 13.6664 25H26.3331C26.4531 25 26.5637 24.9354 26.6231 24.8314C26.6824 24.7273 26.6804 24.598 26.6191 24.4953Z" fill="white"/>
<path d="M17.9005 25.6666C18.2765 26.452 19.0725 27 19.9998 27C20.9271 27 21.7231 26.452 22.0991 25.6666H17.9005Z" fill="white"/>
</svg>
