<svg width="40" height="40" viewBox="0 0 40 40" fill="none" xmlns="http://www.w3.org/2000/svg">
<circle cx="20" cy="20" r="20" fill="#FF9800"/>
<path d="M13.4116 25.6014C12.8628 26.1502 12.8628 27.0389 13.4116 27.5877C13.686 27.8621 14.0456 27.9988 14.4052 27.9988C14.7648 27.9988 15.1244 27.8621 15.3988 27.5877L20.0109 22.9746L18.0237 20.9893L13.4116 25.6014Z" fill="white"/>
<path d="M24.9387 17.0532L26.9474 16.0147L27.9991 13.9816L27.0186 13.0011L24.9864 14.0537L23.946 16.0606L21.5027 18.5066L22.4935 19.4993L24.9387 17.0532Z" fill="white"/>
<path d="M25.3787 22.3846L25.1896 22.3659C24.8468 22.3659 24.5219 22.4361 24.2185 22.5485L18.4526 16.7817C18.5649 16.4783 18.6352 16.1533 18.6352 15.8105L18.6165 15.6214C18.5172 14.1595 17.3129 13.0011 15.8258 13.0011C15.3931 13.0011 14.9876 13.1069 14.6215 13.282L16.4878 15.1484C16.5862 15.2468 16.6536 15.3629 16.6986 15.4856C16.8212 15.8171 16.7547 16.2048 16.4878 16.4726C16.3052 16.6552 16.0655 16.747 15.8258 16.747C15.7153 16.747 15.6057 16.7227 15.5008 16.6833C15.3781 16.6365 15.262 16.5709 15.1637 16.4717L13.2973 14.6062C13.1222 14.9724 13.0164 15.3779 13.0164 15.8105C13.0164 17.2977 14.1748 18.502 15.6366 18.6012L15.8258 18.62C16.1685 18.62 16.4935 18.5497 16.7969 18.4383L22.5619 24.2042C22.4514 24.5076 22.3811 24.8326 22.3811 25.1753L22.4008 25.3645C22.4982 26.8272 23.7034 27.9847 25.1905 27.9847C25.6232 27.9847 26.0296 27.8808 26.3948 27.7038L24.5285 25.8374C24.431 25.74 24.3627 25.623 24.3159 25.5012C24.1932 25.1697 24.2597 24.7811 24.5285 24.5133C24.7092 24.3306 24.9508 24.2389 25.1905 24.2389C25.301 24.2389 25.4096 24.2623 25.5164 24.3025C25.6391 24.3484 25.7561 24.414 25.8526 24.5133L27.719 26.3796C27.895 26.0125 27.9999 25.608 27.9999 25.1753C27.999 23.6882 26.8406 22.4838 25.3787 22.3846Z" fill="white"/>
</svg>
