<svg width="21" height="21" viewBox="0 0 21 21" fill="none" xmlns="http://www.w3.org/2000/svg">
<path d="M9.30991 6.85282C9.3483 6.9296 9.38669 7.00638 9.42508 7.06397C9.46347 7.12155 9.52106 7.17914 9.55945 7.23673C9.61704 7.29432 9.67462 7.3519 9.7514 7.40949C9.80899 7.44788 9.88577 7.50547 9.98175 7.52466C10.0585 7.56305 10.1353 7.58225 10.2313 7.60144C10.3273 7.62064 10.4041 7.62064 10.4808 7.62064C10.5576 7.62064 10.6536 7.62064 10.7304 7.60144C10.8072 7.58225 10.8839 7.56305 10.9415 7.52466H10.9607C11.0375 7.48627 11.1143 7.44788 11.1911 7.39029C11.2487 7.3519 11.3062 7.29432 11.3638 7.23673L11.383 7.21753C11.4406 7.15995 11.479 7.10236 11.5174 7.04477C11.5558 6.98719 11.5942 6.9296 11.6134 6.85282C11.6134 6.83362 11.6134 6.83362 11.6326 6.81443C11.671 6.73764 11.6902 6.64167 11.7094 6.56488C11.7286 6.4881 11.7286 6.39212 11.7286 6.31534C11.7286 6.23856 11.7286 6.14258 11.7094 6.0658C11.6902 5.98902 11.671 5.91223 11.6326 5.81625C11.575 5.68189 11.4982 5.56671 11.4022 5.47073C11.383 5.45154 11.383 5.45154 11.3638 5.43234C11.3062 5.37476 11.2487 5.33637 11.1719 5.27878C11.0951 5.24039 11.0375 5.202 10.9607 5.1636C10.8839 5.12521 10.8072 5.10602 10.7304 5.08682C10.6344 5.06763 10.5576 5.06763 10.4808 5.06763C10.4041 5.06763 10.3081 5.06763 10.2313 5.08682C10.1545 5.10602 10.0777 5.12521 10.0009 5.1636H9.98175C9.90497 5.202 9.82819 5.24039 9.7706 5.27878C9.69382 5.33637 9.63623 5.37476 9.57864 5.43234C9.52106 5.48993 9.46347 5.54752 9.42508 5.6051C9.38669 5.66269 9.3483 5.73947 9.30991 5.81625C9.27152 5.89304 9.25232 5.96982 9.23312 6.0466C9.21393 6.14258 9.21393 6.21936 9.21393 6.29614C9.21393 6.37293 9.21393 6.4689 9.23312 6.54569C9.25232 6.69925 9.29071 6.77603 9.30991 6.85282Z" fill="#A7A7A7"/>
<path d="M11.978 13.8784H11.5365V9.17551C11.5365 8.90677 11.3254 8.67642 11.0375 8.67642H9.02191C8.75317 8.67642 8.52283 8.88757 8.52283 9.17551V10.2121C8.52283 10.4808 8.73398 10.7112 9.02191 10.7112H9.42502V13.8976H9.02191C8.75317 13.8976 8.52283 14.1088 8.52283 14.3967V15.4333C8.52283 15.702 8.73398 15.9324 9.02191 15.9324H11.978C12.2468 15.9324 12.4771 15.7212 12.4771 15.4333V14.3967C12.4771 14.1088 12.2468 13.8784 11.978 13.8784Z" fill="#A7A7A7"/>
<path d="M10.5 0C4.70292 0 0 4.70292 0 10.5C0 16.2971 4.70292 21 10.5 21C16.2971 21 21 16.2971 21 10.5C21 4.70292 16.2971 0 10.5 0ZM10.5 19.6179C5.47075 19.6179 1.38208 15.5293 1.38208 10.5C1.38208 5.47075 5.47075 1.38208 10.5 1.38208C15.5293 1.38208 19.6179 5.47075 19.6179 10.5C19.6179 15.5293 15.5293 19.6179 10.5 19.6179Z" fill="#A7A7A7"/>
</svg>
