<svg width="22" height="22" viewBox="0 0 22 22" fill="none" xmlns="http://www.w3.org/2000/svg">
<g clip-path="url(#clip0)">
<path d="M20.9026 18.9885H6.19132C5.58499 18.9885 5.09357 18.497 5.09357 17.8907C5.09357 17.2844 5.58499 16.793 6.19132 16.793H20.9023C21.5086 16.793 22 17.2844 22 17.8907C22 18.497 21.5089 18.9885 20.9026 18.9885Z" fill="white"/>
<path d="M20.9026 12.0981H6.19132C5.58499 12.0981 5.09357 11.6067 5.09357 11.0003C5.09357 10.394 5.58499 9.90259 6.19132 9.90259H20.9023C21.5086 9.90259 22 10.394 22 11.0003C22.0004 11.6067 21.5089 12.0981 20.9026 12.0981Z" fill="white"/>
<path d="M20.9026 5.20722H6.19132C5.58499 5.20722 5.09357 4.71579 5.09357 4.10947C5.09357 3.50314 5.58499 3.01172 6.19132 3.01172H20.9023C21.5086 3.01172 22 3.50314 22 4.10947C22 4.71579 21.5089 5.20722 20.9026 5.20722Z" fill="white"/>
<path d="M1.47428 5.66877C2.2885 5.66877 2.94856 5.00871 2.94856 4.19449C2.94856 3.38027 2.2885 2.72021 1.47428 2.72021C0.660057 2.72021 0 3.38027 0 4.19449C0 5.00871 0.660057 5.66877 1.47428 5.66877Z" fill="white"/>
<path d="M1.47428 12.4744C2.2885 12.4744 2.94856 11.8144 2.94856 11.0002C2.94856 10.1859 2.2885 9.52588 1.47428 9.52588C0.660057 9.52588 0 10.1859 0 11.0002C0 11.8144 0.660057 12.4744 1.47428 12.4744Z" fill="white"/>
<path d="M1.47428 19.2801C2.2885 19.2801 2.94856 18.62 2.94856 17.8058C2.94856 16.9916 2.2885 16.3315 1.47428 16.3315C0.660057 16.3315 0 16.9916 0 17.8058C0 18.62 0.660057 19.2801 1.47428 19.2801Z" fill="white"/>
</g>
<defs>
<clipPath id="clip0">
<rect width="22" height="22" fill="white"/>
</clipPath>
</defs>
</svg>
