<svg width="35" height="35" viewBox="0 0 35 35" fill="none" xmlns="http://www.w3.org/2000/svg">
<g clip-path="url(#clip0)">
<path d="M5.20157 8.58875C5.27022 8.55524 5.33693 8.519 5.40153 8.48284C5.43434 8.52609 5.46863 8.56747 5.509 8.60714L9.29094 12.39C9.52761 12.1124 9.87603 11.9375 10.2537 11.9375C10.3759 11.9375 10.4977 11.955 10.6149 11.9899L11.0864 12.1302L11.3799 11.1429L7.17651 6.93916C7.1098 6.87323 7.03811 6.81782 6.96072 6.77044L6.97062 6.72696C6.9806 6.68698 6.99353 6.65698 7.00569 6.62245C7.01535 6.59666 7.02556 6.56962 7.03515 6.54125C7.04738 6.51374 7.05954 6.48452 7.07177 6.45405C7.09266 6.40332 7.11487 6.3483 7.14339 6.29243L7.22233 6.13213L7.31226 5.97331C7.35021 5.90037 7.39307 5.83701 7.44193 5.76454C7.46812 5.7262 7.49438 5.6863 7.52111 5.64585C7.54472 5.61429 7.5695 5.58211 7.59389 5.54875C7.65514 5.46794 7.71227 5.39126 7.7743 5.32494L7.81763 5.27717C7.89968 5.18763 7.98174 5.09505 8.07728 5.01619C8.10767 4.98907 8.13059 4.96803 8.15474 4.94668C8.18701 4.9166 8.21974 4.88589 8.25465 4.85838L8.43887 4.7245C8.4451 4.72092 8.44931 4.71702 8.45344 4.71297C8.52716 4.65413 8.61561 4.60426 8.71014 4.55158C8.74801 4.53093 8.78472 4.51043 8.82189 4.4883C8.90099 4.43757 8.98258 4.40476 9.06939 4.37001C9.11318 4.35161 9.15597 4.33416 9.19976 4.31538C9.22493 4.3054 9.25073 4.29379 9.27606 4.28257C9.30356 4.27127 9.33061 4.25763 9.35811 4.25077L9.56073 4.19389C9.60094 4.18391 9.6477 4.17043 9.69484 4.15679C9.76069 4.13754 9.82444 4.11931 9.8673 4.11354L10.4097 4.03421C10.4886 4.02276 10.5585 3.98605 10.6124 3.9329C10.6711 3.87344 10.7106 3.79302 10.7161 3.70457C10.7277 3.53593 10.6206 3.38179 10.4586 3.33426L9.92411 3.18222C9.83114 3.15432 9.7324 3.13982 9.63725 3.12587C9.59486 3.11933 9.55153 3.11309 9.50571 3.10546L9.27169 3.06922C9.19828 3.0573 9.12947 3.05558 9.06822 3.05434C9.04414 3.05348 9.01983 3.05301 8.9945 3.05176C8.93325 3.05091 8.88883 3.04849 8.84301 3.04639C8.70671 3.0407 8.55257 3.0347 8.38876 3.05605L8.28504 3.06439C8.12825 3.0774 7.9487 3.0919 7.76837 3.13515L7.47926 3.19359C7.39034 3.21557 7.31592 3.23856 7.24134 3.26178L7.15009 3.28968C6.94101 3.34766 6.7433 3.43065 6.55183 3.51139L6.52557 3.52238C6.36138 3.59041 6.2123 3.66989 6.06821 3.74665L5.94867 3.81032C5.94033 3.81445 5.93394 3.81921 5.9256 3.82357C5.87939 3.85233 5.83209 3.88069 5.78619 3.90867C5.66142 3.98418 5.53152 4.06242 5.41151 4.15157L5.21154 4.29426C5.20733 4.29784 5.1877 4.3121 5.18279 4.31616L4.98493 4.47412C4.93162 4.51526 4.88245 4.55703 4.8353 4.59826C4.47894 4.65756 4.13652 4.82293 3.86198 5.09825L3.43828 5.52124C3.24323 5.71653 3.06025 5.99037 2.90954 6.29718C2.24535 6.16961 1.34411 7.15042 0 8.49414L3.00562 11.4983C4.03607 10.4674 5.32999 9.25293 5.20157 8.58875Z" fill="#FF9800"/>
<path d="M28.77 8.40241L30.6635 8.76868L32.5908 6.33528C32.9427 5.89373 33.528 5.69159 34.0743 5.82079V4.77289H31.2279V7.04996H28.1623L28.77 8.40241Z" fill="#FF9800"/>
<path d="M11.5864 9.01727L12.1707 7.04958H9.61932L11.5864 9.01727Z" fill="#FF9800"/>
<path d="M34.0743 19.2875V11.9935C34.0231 12.0637 33.9724 12.1345 33.9178 12.2031C33.1257 13.2034 32.0745 13.9234 30.8963 14.3068H31.229V19.2875H24.557H23.6028L27.1762 14.4152C27.2411 14.3322 27.3008 14.2465 27.3561 14.1589C29.3525 14.6592 31.5491 13.9928 32.9078 12.2781C33.8991 11.0265 34.2846 9.41058 33.9645 7.84367C33.929 7.66607 33.7927 7.52557 33.6169 7.48317C33.4402 7.44156 33.2557 7.50531 33.1426 7.6469L30.8393 10.5549L27.8447 9.97517L26.5944 7.19234L28.8988 4.28413C29.0115 4.1423 29.0312 3.94748 28.95 3.78585C28.8685 3.6236 28.7009 3.52354 28.5203 3.52861C26.9211 3.57576 25.4359 4.32036 24.4443 5.5719C23.0872 7.2857 22.9404 9.57517 23.8818 11.4035C23.8106 11.4785 23.7406 11.5581 23.6733 11.6427L19.0491 17.1438L20.1682 18.2631C20.4582 18.5531 20.6609 18.9045 20.7693 19.2874H20.2704C20.1792 19.0362 20.035 18.8004 19.8329 18.5988L13.4674 12.2322L13.302 12.7872L13.7333 12.9156C14.0579 13.0117 14.3254 13.2285 14.4866 13.526C14.6476 13.8234 14.6834 14.1663 14.587 14.4905C14.5351 14.6643 14.4458 14.8246 14.328 14.96C14.3613 15.2574 14.336 15.5587 14.2483 15.8484L13.6767 17.7736L15.1905 19.2865H14.7055H13.646H12.5827L13.7068 15.5022C13.8033 15.18 13.7951 14.8512 13.7047 14.5517C13.8631 14.4709 13.9903 14.3276 14.0452 14.1434C14.1506 13.7867 13.9473 13.411 13.5902 13.3055L12.5911 13.008L15.3069 3.86698L15.3924 3.89238L16.0959 2.53034L16.3718 0.406087L15.1993 0.058136L14.2868 1.99388L14.1402 3.52105L14.227 3.54692L11.5111 12.6885L10.4713 12.3797C10.1154 12.2737 9.73904 12.4771 9.63329 12.8338C9.58232 13.0063 9.60329 13.1826 9.6788 13.3316C9.42865 13.5346 9.23383 13.8133 9.13501 14.1455L7.60972 19.2875H6.59314H6.18269V14.3073H8.07269L8.41051 13.1685C8.49561 12.8832 8.55382 12.8048 8.72355 12.5668L5.67242 9.44074C5.25457 10.0162 4.84085 10.6132 4.19731 11.252L3.33698 12.1114V19.2875H2.41127V29.2496C2.41127 32.3929 4.9607 34.9417 8.10441 34.9417H29.3081C32.4522 34.9417 35 32.3933 35 29.2496V19.2875H34.0743ZM11.7314 15.7493C11.8436 15.3702 12.2419 15.1549 12.621 15.2671C12.9985 15.3795 13.2148 15.7777 13.1022 16.1565L12.1727 19.2876H10.6803L11.7314 15.7493ZM9.42577 15.0645C9.53806 14.686 9.93643 14.4703 10.3152 14.5824C10.6939 14.6948 10.9097 15.0929 10.797 15.4715L9.6636 19.2876H8.17151L9.42577 15.0645Z" fill="#FF9800"/>
<path d="M15.4242 7.04958L14.323 10.7565L17.8744 14.3073H19.7781L22.9443 10.5411C22.5095 9.41658 22.4112 8.20573 22.6266 7.0495H15.4242V7.04958Z" fill="#FF9800"/>
</g>
<defs>
<clipPath id="clip0">
<rect width="35" height="35" fill="white"/>
</clipPath>
</defs>
</svg>
