<svg width="57" height="57" viewBox="0 0 57 57" fill="none" xmlns="http://www.w3.org/2000/svg">
<g clip-path="url(#clip0)">
<path d="M52.7125 15.4646L52.7107 15.4202C52.6859 14.8727 52.6694 14.2935 52.6594 13.649C52.6129 10.5061 50.1145 7.90645 46.9713 7.73076C40.4177 7.36503 35.3479 5.22806 31.0162 1.00587L30.9792 0.970641C29.5663 -0.324849 27.435 -0.324849 26.0216 0.970641L25.9847 1.00587C21.6529 5.22806 16.5831 7.36503 10.0296 7.7312C6.88672 7.90645 4.38793 10.5061 4.3414 13.6494C4.33184 14.2895 4.31488 14.8688 4.29009 15.4202L4.28748 15.5233C4.16006 22.206 4.00177 30.523 6.78409 38.0719C8.31398 42.2233 10.631 45.8318 13.6703 48.7981C17.1319 52.1762 21.6659 54.8581 27.1462 56.7689C27.3245 56.8311 27.5098 56.8816 27.6985 56.9194C27.9646 56.9725 28.2325 56.999 28.5004 56.999C28.7683 56.999 29.0366 56.9725 29.3023 56.9194C29.4911 56.8816 29.6776 56.8307 29.8568 56.7681C35.3305 54.8537 39.8598 52.1706 43.3183 48.7929C46.3563 45.8258 48.6734 42.2163 50.2045 38.0641C52.9973 30.4925 52.8395 22.1599 52.7125 15.4646ZM47.0665 36.9069C44.132 44.8634 38.1416 50.3276 28.7531 53.6109C28.7196 53.6222 28.6839 53.6322 28.647 53.6396C28.55 53.6587 28.4513 53.6587 28.353 53.6391C28.3165 53.6317 28.2808 53.6222 28.2477 53.6109C18.8492 50.3337 12.8549 44.8725 9.92258 36.9156C7.35813 29.9572 7.50337 22.3225 7.63166 15.5872L7.63253 15.5498C7.65862 14.971 7.67602 14.3648 7.68559 13.6985C7.70646 12.303 8.818 11.1484 10.2161 11.0706C13.9247 10.8636 17.1828 10.1469 20.1765 8.8797C23.1662 7.61422 25.8216 5.83036 28.2934 3.42638C28.4191 3.32027 28.5822 3.31983 28.7074 3.42638C31.1797 5.83036 33.835 7.61422 36.8243 8.8797C39.818 10.1469 43.0761 10.8636 46.7851 11.0706C48.1833 11.1484 49.2948 12.303 49.3152 13.699C49.3252 14.3687 49.3426 14.9749 49.3687 15.5498C49.4966 22.293 49.6383 29.9337 47.0665 36.9069Z" fill="#8BC34A"/>
<path d="M28.4996 14.2957C20.6666 14.2957 14.2944 20.6683 14.2944 28.5009C14.2944 36.3338 20.6666 42.7065 28.4996 42.7065C36.3321 42.7065 42.7048 36.3338 42.7048 28.5009C42.7048 20.6683 36.3321 14.2957 28.4996 14.2957ZM28.4996 39.3614C22.5109 39.3614 17.639 34.4895 17.639 28.5009C17.639 22.5122 22.5109 17.6403 28.4996 17.6403C34.4878 17.6403 39.3597 22.5122 39.3597 28.5009C39.3597 34.4895 34.4878 39.3614 28.4996 39.3614Z" fill="#8BC34A"/>
<path d="M32.5822 24.0908L25.9843 30.6887L24.1935 28.8979C23.5403 28.2447 22.4814 28.2447 21.8282 28.8979C21.1754 29.5511 21.1754 30.61 21.8282 31.2628L24.8019 34.2364C25.1285 34.563 25.5564 34.7261 25.9843 34.7261C26.4122 34.7261 26.8401 34.563 27.1667 34.2364L34.9475 26.4557C35.6003 25.8025 35.6003 24.7435 34.9475 24.0908C34.2943 23.4372 33.2354 23.4372 32.5822 24.0908Z" fill="#8BC34A"/>
</g>
<defs>
<clipPath id="clip0">
<rect width="57" height="57" fill="white"/>
</clipPath>
</defs>
</svg>
