<svg width="21" height="21" viewBox="0 0 21 21" fill="none" xmlns="http://www.w3.org/2000/svg">
<path d="M5.99395 20.2306L5.99333 20.2312C5.9924 20.2318 5.99147 20.2324 5.99023 20.233C5.92967 20.2849 5.85669 20.3225 5.77967 20.3523C5.75606 20.3617 5.7337 20.3678 5.70979 20.3745C5.65047 20.3913 5.58898 20.4013 5.5247 20.4039C5.50109 20.4053 5.47873 20.4086 5.45451 20.4075C5.44209 20.4073 5.43091 20.4102 5.41879 20.4094C5.34457 20.4037 5.27283 20.3876 5.20544 20.3636C5.1983 20.3616 5.19271 20.3566 5.18556 20.354C5.11134 20.3255 5.0455 20.2855 4.98525 20.2384C4.97687 20.2318 4.96569 20.2294 4.9573 20.2225L1.18522 16.9743C0.896401 16.7257 0.890811 16.3262 1.17373 16.0814C1.45634 15.8372 1.9197 15.8408 2.20914 16.09L4.24301 17.8409C3.90885 15.3299 4.4396 12.8768 4.46568 12.761C5.85296 5.18324 12.9213 -0.070244 20.2223 1.04978C20.5838 1.1053 20.841 1.37797 20.841 1.68366C20.841 1.71636 20.8382 1.74901 20.8326 1.78222C20.7695 2.12535 20.395 2.3537 19.9953 2.29287C13.4921 1.2951 7.17471 6.09068 5.90886 13.0028C5.90141 13.0344 5.35171 15.5688 5.7306 17.9712L7.31229 15.3538C7.498 15.0471 7.93962 14.9338 8.29894 15.0997C8.65888 15.2653 8.79832 15.6478 8.61478 15.9555L6.1216 20.0814C6.08712 20.1372 6.04395 20.187 5.99395 20.2306Z" fill="white"/>
</svg>
