<svg width="30" height="30" viewBox="0 0 30 30" fill="none" xmlns="http://www.w3.org/2000/svg">
<g filter="url(#filter0_d)">
<circle cx="15" cy="11" r="11" fill="white"/>
</g>
<path d="M13.167 10.1484H14.2197C14.721 10.1484 15.0924 10.0231 15.334 9.77246C15.5755 9.52181 15.6963 9.18913 15.6963 8.77441C15.6963 8.37337 15.5755 8.0612 15.334 7.83789C15.097 7.61458 14.7689 7.50293 14.3496 7.50293C13.9714 7.50293 13.6546 7.60775 13.3994 7.81738C13.1442 8.02246 13.0166 8.29134 13.0166 8.62402H11.041C11.041 8.10449 11.18 7.63965 11.458 7.22949C11.7406 6.81478 12.1325 6.49121 12.6338 6.25879C13.1396 6.02637 13.6956 5.91016 14.3018 5.91016C15.3545 5.91016 16.1794 6.16309 16.7764 6.66895C17.3734 7.17025 17.6719 7.86296 17.6719 8.74707C17.6719 9.2028 17.5329 9.62207 17.2549 10.0049C16.9769 10.3877 16.6123 10.6816 16.1611 10.8867C16.7217 11.0872 17.1387 11.388 17.4121 11.7891C17.6901 12.1901 17.8291 12.6641 17.8291 13.2109C17.8291 14.0951 17.5055 14.8037 16.8584 15.3369C16.2158 15.8701 15.3636 16.1367 14.3018 16.1367C13.3083 16.1367 12.4948 15.8747 11.8613 15.3506C11.2324 14.8265 10.918 14.1338 10.918 13.2725H12.8936C12.8936 13.6462 13.0326 13.9515 13.3105 14.1885C13.5931 14.4255 13.9395 14.5439 14.3496 14.5439C14.819 14.5439 15.1859 14.4209 15.4502 14.1748C15.7191 13.9242 15.8535 13.5938 15.8535 13.1836C15.8535 12.1901 15.3066 11.6934 14.2129 11.6934H13.167V10.1484Z" fill="#42A812"/>
<defs>
<filter id="filter0_d" x="0" y="0" width="30" height="30" filterUnits="userSpaceOnUse" color-interpolation-filters="sRGB">
<feFlood flood-opacity="0" result="BackgroundImageFix"/>
<feColorMatrix in="SourceAlpha" type="matrix" values="0 0 0 0 0 0 0 0 0 0 0 0 0 0 0 0 0 0 127 0"/>
<feOffset dy="4"/>
<feGaussianBlur stdDeviation="2"/>
<feColorMatrix type="matrix" values="0 0 0 0 0 0 0 0 0 0 0 0 0 0 0 0 0 0 0.1 0"/>
<feBlend mode="normal" in2="BackgroundImageFix" result="effect1_dropShadow"/>
<feBlend mode="normal" in="SourceGraphic" in2="effect1_dropShadow" result="shape"/>
</filter>
</defs>
</svg>
