<svg width="52" height="52" viewBox="0 0 52 52" fill="none" xmlns="http://www.w3.org/2000/svg">
<g clip-path="url(#clip0)">
<path d="M7.72804 12.7604C7.83004 12.7106 7.92915 12.6568 8.02513 12.6031C8.07388 12.6673 8.12482 12.7288 8.18479 12.7877L13.8037 18.4079C14.1553 17.9955 14.673 17.7357 15.234 17.7357C15.4157 17.7357 15.5965 17.7617 15.7707 17.8136L16.4712 18.022L16.9073 16.5551L10.6622 10.3096C10.5631 10.2116 10.4566 10.1293 10.3416 10.0589L10.3564 9.99433C10.3712 9.93493 10.3904 9.89036 10.4085 9.83907C10.4228 9.80074 10.438 9.76057 10.4522 9.71842C10.4704 9.67755 10.4885 9.63414 10.5066 9.58887C10.5377 9.51349 10.5707 9.43175 10.613 9.34874L10.7303 9.11058L10.8639 8.87462C10.9203 8.76625 10.984 8.67212 11.0566 8.56445C11.0955 8.50748 11.1345 8.4482 11.1742 8.38812C11.2093 8.34122 11.2461 8.29341 11.2824 8.24385C11.3734 8.12379 11.4582 8.00986 11.5504 7.91134L11.6148 7.84036C11.7367 7.70733 11.8586 7.56979 12.0005 7.45262C12.0457 7.41233 12.0797 7.38106 12.1156 7.34934C12.1636 7.30465 12.2122 7.25903 12.264 7.21816L12.5378 7.01925C12.547 7.01393 12.5533 7.00814 12.5594 7.00212C12.6689 6.9147 12.8003 6.84061 12.9408 6.76234C12.997 6.73166 13.0516 6.70121 13.1068 6.66833C13.2243 6.59295 13.3455 6.54421 13.4745 6.49257C13.5396 6.46525 13.6032 6.43931 13.6682 6.41141C13.7056 6.39659 13.7439 6.37934 13.7816 6.36267C13.8224 6.34588 13.8626 6.32562 13.9035 6.31543L14.2045 6.23091C14.2643 6.21609 14.3337 6.19606 14.4038 6.1758C14.5016 6.1472 14.5963 6.12011 14.66 6.11154L15.4658 5.99368C15.5831 5.97666 15.6869 5.92213 15.767 5.84316C15.8543 5.75482 15.9128 5.63534 15.9211 5.50393C15.9383 5.25338 15.7791 5.02437 15.5385 4.95375L14.7444 4.72786C14.6063 4.68641 14.4596 4.66487 14.3182 4.64415C14.2552 4.63442 14.1908 4.62516 14.1228 4.61382L13.7751 4.55998C13.666 4.54226 13.5638 4.53972 13.4728 4.53786C13.437 4.53659 13.4009 4.5359 13.3633 4.53404C13.2723 4.53277 13.2063 4.52918 13.1382 4.52606C12.9357 4.5176 12.7067 4.50869 12.4633 4.54041L12.3092 4.5528C12.0763 4.57214 11.8095 4.59367 11.5416 4.65793L11.112 4.74476C10.9799 4.77741 10.8694 4.81157 10.7586 4.84607L10.623 4.88752C10.3124 4.97366 10.0186 5.09696 9.73415 5.21691L9.69514 5.23324C9.45119 5.33431 9.2297 5.45241 9.01563 5.56645L8.83802 5.66104C8.82563 5.66718 8.81614 5.67424 8.80375 5.68073C8.73509 5.72345 8.66481 5.76559 8.59662 5.80716C8.41126 5.91935 8.21825 6.03559 8.03995 6.16804L7.74286 6.38003C7.73661 6.38536 7.70743 6.40655 7.70014 6.41257L7.40618 6.64725C7.32698 6.70838 7.25393 6.77044 7.18388 6.83169C6.65442 6.9198 6.14569 7.16548 5.73779 7.57453L5.1083 8.20298C4.81851 8.49313 4.54666 8.89998 4.32274 9.3558C3.33595 9.16627 1.99696 10.6235 0 12.6199L4.4655 17.0832C5.99645 15.5515 7.91885 13.7472 7.72804 12.7604Z" fill="white"/>
<path d="M42.7442 12.4836L45.5574 13.0277L48.4207 9.41242C48.9436 8.75641 49.8132 8.45608 50.6248 8.64804V7.09116H46.3958V10.4742H41.8413L42.7442 12.4836Z" fill="white"/>
<path d="M17.214 13.3971L18.0821 10.4737H14.2915L17.214 13.3971Z" fill="white"/>
<path d="M50.6247 28.6557V17.819C50.5487 17.9232 50.4733 18.0284 50.3923 18.1303C49.2154 19.6165 47.6536 20.6862 45.9031 21.2559H46.3974V28.6557H36.4847H35.0671L40.3762 21.4168C40.4725 21.2936 40.5612 21.1663 40.6434 21.036C43.6095 21.7794 46.873 20.7893 48.8916 18.2418C50.3645 16.3822 50.9372 13.9814 50.4616 11.6535C50.4088 11.3896 50.2063 11.1808 49.9452 11.1179C49.6826 11.056 49.4085 11.1507 49.2405 11.3611L45.8184 15.6815L41.3693 14.8203L39.5118 10.6858L42.9354 6.36499C43.1029 6.15427 43.1321 5.86482 43.0114 5.62469C42.8904 5.38364 42.6414 5.23498 42.373 5.2425C39.9971 5.31255 37.7906 6.41882 36.3173 8.27824C34.301 10.8245 34.083 14.226 35.4816 16.9423C35.3758 17.0538 35.2718 17.172 35.1718 17.2977L28.3015 25.4708L29.9642 27.1338C30.3951 27.5646 30.6963 28.0866 30.8574 28.6556H30.1161C29.9806 28.2824 29.7664 27.9321 29.466 27.6325L20.0088 18.1736L19.763 18.9982L20.4039 19.1889C20.8861 19.3316 21.2836 19.6538 21.523 20.0958C21.7622 20.5376 21.8153 21.047 21.6722 21.5288C21.595 21.787 21.4624 22.0251 21.2874 22.2262C21.3368 22.6681 21.2992 23.1158 21.1689 23.5462L20.3197 26.4064L22.5688 28.6542H21.8482H20.2741H18.6944L20.3644 23.0318C20.5078 22.5532 20.4957 22.0647 20.3614 21.6196C20.5967 21.4996 20.7856 21.2867 20.8672 21.0131C21.0238 20.483 20.7218 19.925 20.1912 19.7681L18.7068 19.3262L22.7417 5.74522L22.8687 5.78296L23.914 3.75936L24.3239 0.603327L22.5819 0.0863705L21.2261 2.96234L21.0084 5.23127L21.1373 5.26971L17.1023 18.8515L15.5574 18.3926C15.0286 18.2352 14.4695 18.5374 14.3124 19.0674C14.2367 19.3236 14.2678 19.5856 14.38 19.807C14.0083 20.1086 13.7189 20.5226 13.5721 21.0162L11.3059 28.6557H9.79559H9.18578V21.2566H11.9938L12.4957 19.5647C12.6221 19.1408 12.7086 19.0242 12.9608 18.6707L8.42766 14.0262C7.80685 14.8812 7.19217 15.7681 6.23607 16.7172L4.95786 17.9941V28.6557H3.58252V43.4566C3.58252 48.1266 7.37024 51.9134 12.0409 51.9134H43.5435C48.2148 51.9134 52.0001 48.1272 52.0001 43.4566V28.6557H50.6247ZM17.4295 23.399C17.5962 22.8357 18.188 22.5159 18.7512 22.6825C19.3121 22.8496 19.6335 23.4412 19.4662 24.004L18.0853 28.6558H15.868L17.4295 23.399ZM14.0041 22.3816C14.1709 21.8193 14.7628 21.4987 15.3256 21.6653C15.8881 21.8322 16.2087 22.4237 16.0413 22.9862L14.3574 28.6558H12.1406L14.0041 22.3816Z" fill="white"/>
<path d="M22.9161 10.4737L21.28 15.9811L26.5564 21.2566H29.3847L34.0888 15.661C33.4428 13.9903 33.2968 12.1914 33.6168 10.4735H22.9161V10.4737Z" fill="white"/>
</g>
<defs>
<clipPath id="clip0">
<rect width="52" height="52" fill="white"/>
</clipPath>
</defs>
</svg>
