<svg width="57" height="57" viewBox="0 0 57 57" fill="none" xmlns="http://www.w3.org/2000/svg">
<path d="M56.7139 26.5529H53.9791V13.9727C53.9791 10.9567 51.5255 8.5031 48.5095 8.5031H44.8055L41.0151 1.68799C40.4374 0.646464 39.338 0 38.1456 0C37.5899 0 37.0386 0.143318 36.5518 0.413444L22.0048 8.50293H5.75572C2.73973 8.50293 0.286133 10.9565 0.286133 13.9725V51.5302C0.286133 54.5462 2.73973 56.9998 5.75572 56.9998H48.5095C51.5255 56.9998 53.9791 54.5462 53.9791 51.5302V40.5002H56.7139V26.5529ZM48.5095 10.6908C50.1941 10.6908 51.5702 11.9707 51.7551 13.6083H47.6441L46.0229 10.6908H48.5095ZM37.6161 2.3256C38.1291 2.03795 38.8195 2.23914 39.1028 2.75011L45.1412 13.6072H17.3272L37.6161 2.3256ZM51.7912 51.5302C51.7912 53.3396 50.3187 54.8121 48.5093 54.8121H5.75572C3.94637 54.8121 2.47386 53.3396 2.47386 51.5302V13.9727C2.47386 12.1633 3.94637 10.6908 5.75572 10.6908H18.071L12.8246 13.6084H6.43946C5.83453 13.6084 5.34551 14.0985 5.34551 14.7024C5.34551 15.3063 5.83453 15.7963 6.43946 15.7963H8.88983H48.8607H51.7912V26.5539H43.7914C40.0764 26.5539 37.0529 29.5775 37.0529 33.2924V33.7629C37.0529 37.4779 40.0765 40.5014 43.7914 40.5014H51.7912V51.5302ZM54.526 38.3125H53.9791H43.7914C41.282 38.3125 39.2406 36.2713 39.2406 33.7617V33.2912C39.2406 30.7818 41.2818 28.7404 43.7914 28.7404H53.9791H54.526V38.3125ZM47.142 33.6163C47.142 34.9509 46.0612 36.0316 44.7267 36.0316C43.3921 36.0316 42.3114 34.9508 42.3114 33.6163C42.3114 32.2818 43.3923 31.201 44.7267 31.201C46.0613 31.2008 47.142 32.2827 47.142 33.6163Z" fill="#8BC34A"/>
</svg>
